<svg width="240" height="48" viewBox="0 0 240 48" fill="none" xmlns="http://www.w3.org/2000/svg">
<path d="M47.4222 28.4946L43.1778 10.3636C42.9333 9.36 42.0222 8.37818 41 8.09455L21.6222 2.22545C21.3778 2.13818 21.0889 2.13818 20.8 2.13818C19.9778 2.13818 19.1111 2.46546 18.5333 2.94546L4.64446 15.6218C3.86668 16.2764 3.48891 17.6073 3.73335 18.5673L8.26668 37.9636C8.51113 38.9673 9.42224 39.9491 10.4445 40.2327L28.5778 45.7745C28.8222 45.8618 29.1111 45.8618 29.4 45.8618C30.2222 45.8618 31.0889 45.5345 31.6667 45.0546L46.5111 31.5273C47.2667 30.7636 47.6667 29.4982 47.4222 28.4946ZM23.6445 6.52364L36.9556 10.5382C37.4889 10.6909 37.4889 10.9091 36.9556 11.0618L29.9556 12.6327C29.4222 12.7855 28.7111 12.5455 28.3111 12.1527L23.4445 7.00364C23.0222 6.58909 23.1111 6.39273 23.6445 6.52364ZM31.9333 29.9564C32.0889 30.48 31.7333 30.7636 31.2 30.6109L16.8445 26.2473C16.3111 26.0945 16.2222 25.68 16.6 25.3091L27.6 15.2727C27.9778 14.9018 28.4222 15.0327 28.5556 15.5564L31.9333 29.9564ZM8.26668 17.1927L19.9333 6.54546C20.3111 6.17455 20.9556 6.21818 21.3333 6.58909L27.1556 12.7855C27.5333 13.1564 27.4889 13.7891 27.1111 14.16L15.4445 24.8073C15.0667 25.1782 14.4222 25.1345 14.0445 24.7636L8.22224 18.5673C7.84446 18.1309 7.8889 17.52 8.26668 17.1927ZM11.1111 34.08L8.02224 20.7709C7.86668 20.2473 8.11113 20.16 8.46668 20.5309L13.3333 25.68C13.7111 26.0509 13.8667 26.8145 13.7111 27.3382L11.6 34.0582C11.4445 34.6036 11.2 34.6036 11.1111 34.08ZM28.1778 41.8909L12.9333 37.2436C12.4 37.0909 12.1111 36.5236 12.2667 36.0218L14.8222 27.9709C14.9778 27.4473 15.5556 27.1636 16.0667 27.3164L31.3111 31.8982C31.8445 32.0509 32.1333 32.6182 31.9778 33.12L29.4222 41.1709C29.2445 41.6946 28.7111 41.9782 28.1778 41.8909ZM41.6889 31.0036L31.5111 40.2764C31.1333 40.6473 30.9333 40.5164 31.0667 39.9927L33.1778 33.2727C33.3333 32.7491 33.9111 32.2255 34.4222 32.1382L41.4222 30.5673C41.9778 30.3927 42.0667 30.6327 41.6889 31.0036ZM42.7778 28.9745L34.4 30.8727C33.8667 31.0255 33.3333 30.6764 33.2 30.1527L29.6222 14.9018C29.4667 14.3782 29.8222 13.8545 30.3556 13.7236L38.7333 11.8255C39.2667 11.6727 39.8 12.0218 39.9333 12.5455L43.5111 27.7964C43.6445 28.3636 43.3111 28.8655 42.7778 28.9745Z" fill="white"/>
<path d="M172.756 34.8873C172.711 35.3673 172.911 35.4546 173.089 35.4546H174.244C174.689 35.4546 174.778 35.0837 174.778 34.8873L179.511 8.53094C179.6 8.05094 179.267 7.96367 179.022 8.0073L177.778 8.20367C177.444 8.2473 177.244 8.53094 177.244 8.7273L175.889 16.3855C174.689 16.0146 172.422 15.7746 171.111 15.7746C166.089 15.7746 163.689 17.6728 162.778 22.9309L161.289 31.2218C161.2 31.7455 161.133 32.2255 161.133 32.64C161.133 34.9964 162.489 35.9128 165 35.9128C167.844 35.9128 170.778 34.5818 173.044 32.6837L172.756 34.8873ZM165.244 33.8837C164.044 33.8837 163.422 33.5564 163.422 32.3128C163.422 31.9855 163.467 31.6582 163.578 31.1782L164.978 23.28C165.756 18.9818 167.244 17.7382 170.867 17.7382C172.467 17.7382 174 17.9782 175.6 18.3491L173.489 30.0437C170.867 32.2909 167.733 33.8837 165.244 33.8837Z" fill="white"/>
<path d="M192.711 34.8873C192.667 35.3673 192.867 35.4546 193.089 35.4546H194.244C194.689 35.4546 194.778 35.0837 194.778 34.8873L198 17.04C195.689 16.1891 193.044 15.7527 191.2 15.7527C185.889 15.7527 183.778 17.8255 182.867 22.9091L181.378 31.2C181.289 31.7237 181.222 32.2037 181.222 32.6182C181.222 34.9746 182.578 35.8909 185.089 35.8909C187.933 35.8909 190.733 34.56 193 32.6618L192.711 34.8873ZM185.289 33.8836C184.089 33.8836 183.467 33.5564 183.467 32.3127C183.467 31.9855 183.511 31.6582 183.622 31.1782L185.022 23.28C185.8 19.0255 187.2 17.7382 190.911 17.7382C192.555 17.7382 194.422 18.0655 195.533 18.3491L193.422 30.0437C190.844 32.2909 187.755 33.8836 185.289 33.8836Z" fill="white"/>
<path d="M224.978 34.8873C224.933 35.3673 225.133 35.4546 225.311 35.4546H226.467C226.911 35.4546 227 35.0837 227 34.8873L230.222 17.04C227.911 16.1891 225.267 15.7527 223.422 15.7527C218.111 15.7527 216 17.8255 215.089 22.9091L213.6 31.2C213.511 31.7237 213.444 32.2037 213.444 32.6182C213.444 34.9746 214.8 35.8909 217.311 35.8909C220.155 35.8909 222.955 34.56 225.222 32.6618L224.978 34.8873ZM217.6 33.8836C216.4 33.8836 215.778 33.5564 215.778 32.3127C215.778 31.9855 215.822 31.6582 215.933 31.1782L217.333 23.28C218.111 19.0255 219.511 17.7382 223.222 17.7382C224.867 17.7382 226.733 18.0655 227.844 18.3491L225.733 30.0437C223.133 32.2909 220.044 33.8836 217.6 33.8836Z" fill="white"/>
<path d="M212.711 17.76L213 16.4728C213.089 16.1455 212.911 16.1455 212.711 16.1455H207.178L207.956 11.6946C208.044 11.2146 207.711 11.1273 207.467 11.1709L206.222 11.3673C205.889 11.4109 205.689 11.6946 205.689 11.8909L204.911 16.1455H201.489C201.4 16.1455 201.111 16.1891 201.044 16.4728L200.844 17.6946C200.844 17.7818 200.844 18.0218 201.178 18.0218H204.556L201.978 32.5091C201.933 32.7928 201.889 33.0328 201.889 33.2728C201.889 35.0182 203.133 35.8255 205.111 35.8255C206.644 35.8255 209.4 35.3891 210.8 34.7346C211.244 34.4946 211.178 34.2109 211.089 34.0146L210.8 33.2509C210.756 33.0546 210.511 33.0982 210.356 33.1637C209 33.6873 208.244 33.9709 205.489 33.9709C204.578 33.9709 204.133 33.7746 204.133 33.0328C204.133 32.8364 204.178 32.5964 204.222 32.3128L206.778 18.0655H212.267C212.578 18.0437 212.667 17.9346 212.711 17.76Z" fill="white"/>
<path d="M159.6 16.1455H153.956C153.711 16.1455 153.422 16.3419 153.289 16.5164L149.289 22.2328L146.933 16.2764C146.778 15.9492 146.489 15.8401 146.2 15.9055L141.289 16.6255L145.533 25.811L137.733 35.5201H143.045C143.378 35.5201 143.911 35.3237 144.156 35.0401L147.822 30.6764L149.889 35.0401C149.978 35.2801 150.333 35.5201 150.667 35.5201H155.822L151.667 26.5746L159.6 16.1455Z" fill="white"/>
<path d="M135.289 35.1273L138.666 16.2328C138.711 15.8618 138.422 15.8618 138.178 15.9055L133.444 16.5164C132.911 16.6037 132.778 16.9528 132.778 17.1273L130.778 28.5818C129.333 29.3018 126.733 30.4364 125.666 30.4364C125.089 30.4364 124.889 30.24 124.889 29.8255C124.889 29.6728 124.933 29.4546 124.978 29.2146L127.289 16.1891C127.333 15.8182 127.044 15.8182 126.844 15.8619L122.111 16.5164C121.578 16.6037 121.444 16.9528 121.444 17.1273L119.178 29.7164C119.022 30.5237 118.978 31.1346 118.978 31.9418C118.978 34.3637 120 35.8691 122.6 35.8691C124.866 35.8691 127.266 35.1055 130.355 33.6873L130.4 35.1055C130.4 35.1928 130.444 35.4328 130.644 35.4328H135C135.2 35.4546 135.289 35.2582 135.289 35.1273Z" fill="white"/>
<path d="M88.4888 15.7746C86.2221 15.7746 83.8221 16.5382 80.7332 17.9564L80.7777 16.2546C80.7777 15.8182 80.4443 15.8837 80.2443 15.9273L76.5332 16.5382C75.911 16.6255 75.711 17.0182 75.6666 17.1928L72.5777 34.6037C72.4221 35.411 72.4888 35.4546 73.1555 35.4546H77.3999C77.8888 35.4546 78.1332 35.4546 78.2666 34.6037L80.3332 23.0182C81.8666 22.211 84.3777 21.1637 85.4443 21.1637C86.0221 21.1637 86.2221 21.3164 86.2221 21.731C86.2221 21.8837 86.1777 22.1019 86.1332 22.3419L83.9555 34.6037C83.7999 35.411 83.8666 35.4546 84.5332 35.4546H88.7777C89.2666 35.4546 89.511 35.4546 89.6443 34.6037L91.911 21.9273C92.0666 20.9237 92.111 20.3564 92.111 19.7019C92.111 17.2801 91.1332 15.7746 88.4888 15.7746Z" fill="white"/>
<path d="M72.1556 7.33093L67.4222 7.98548C66.8889 8.02911 66.8 8.42184 66.7556 8.59638L65.8889 13.44C65.8 14.0073 65.8444 14.0073 66.3778 13.9637L71.0445 13.3528C71.5333 13.3091 71.6222 13.2655 71.7111 12.6327L72.6222 7.61457C72.6667 7.33093 72.5778 7.33093 72.1556 7.33093Z" fill="white"/>
<path d="M67.7557 34.6037L71.089 16.2328C71.1335 15.8619 70.8446 15.8619 70.6001 15.9055L65.889 16.5164C65.3557 16.6037 65.2224 16.9528 65.2224 17.1273L62.0446 34.7346C61.9557 35.3891 62.0446 35.4982 62.6668 35.4982H66.9112C67.3335 35.4546 67.5557 35.4546 67.7557 34.6037Z" fill="white"/>
<path d="M114.467 34.6036L119.244 7.89819C119.289 7.52728 119.089 7.52728 118.867 7.57092L113.422 8.46547C110.956 7.81092 108.178 7.52728 106.578 7.52728C101.511 7.52728 99.8222 9.2291 99 13.68L98.5555 16.2327H96.3333C95.7555 16.2327 95.7111 16.5164 95.6666 16.7564L95 20.4436C94.9555 20.5964 95.0444 20.7709 95.2888 20.7709H97.7555L95.1111 35.5418C94.8222 37.2873 94.5333 38.3346 92.8444 40.08C92.5111 40.4073 92.6 40.5164 92.8444 40.6909L95.8444 43.44C96.1333 43.7236 96.2888 43.68 96.6222 43.3527C99.3777 40.6036 100.244 38.7709 100.711 36.1964L103.467 20.8146H107.844C108.089 20.8146 108.133 20.8146 108.222 20.5309L109.244 16.6473C109.333 16.3636 109.044 16.2764 108.867 16.2764H104.289L104.822 13.4836C105.022 12.48 105.444 12.1527 106.711 12.1527C108.4 12.1527 111.156 12.48 112.689 12.8727L108.778 34.7346C108.622 35.5418 108.689 35.5855 109.356 35.5855H113.6C114.089 35.4546 114.333 35.4546 114.467 34.6036Z" fill="white"/>
<path d="M233.933 10.32H233.4L233.245 11.2582H232.711L233.2 8.46543H234.267C234.845 8.46543 235.133 8.70543 235.133 9.07634C235.133 9.11998 235.133 9.16362 235.133 9.27271L235.089 9.64361C235.045 10.0145 234.889 10.1673 234.556 10.2982L235.089 11.3018H234.511L233.933 10.32ZM234.556 9.27271C234.556 9.22907 234.556 9.18543 234.556 9.18543C234.556 8.98907 234.467 8.94543 234.222 8.94543H233.645L233.489 9.88361H234.067C234.4 9.88361 234.445 9.79634 234.511 9.55634L234.556 9.27271ZM233.933 12.2182C232.578 12.2182 231.533 11.1709 231.533 9.8618C231.533 8.55271 232.6 7.50543 233.933 7.50543C235.289 7.50543 236.333 8.55271 236.333 9.8618C236.333 11.1709 235.222 12.2182 233.933 12.2182ZM233.933 7.89816C232.822 7.89816 231.956 8.74907 231.956 9.83998C231.956 10.9309 232.822 11.7818 233.933 11.7818C235.045 11.7818 235.911 10.9309 235.911 9.83998C235.911 8.74907 234.978 7.89816 233.933 7.89816Z" fill="white"/>
</svg>
