<svg width="48" height="49" viewBox="0 0 48 49" fill="none" xmlns="http://www.w3.org/2000/svg">
<path fill-rule="evenodd" clip-rule="evenodd" d="M0 16.2081V32.8154C0 46.2289 1.93776 48.1448 15.5017 48.1448H32.3446C45.9087 48.1448 47.8463 46.2289 47.8463 32.8154V16.2083C47.8463 2.79479 45.9087 0.878662 32.3448 0.878662H15.5017C1.93757 0.878662 0 2.79479 0 16.2081ZM9.20448 38.2981C9.20448 38.2981 7.97415 24.512 10.3259 9.78746H10.326H17.1321C17.9107 9.79654 20.0019 12.8849 21.6695 15.3478L21.6695 15.3478C22.7765 16.9827 23.6969 18.342 23.9228 18.342C24.1488 18.342 25.0692 16.9827 26.1762 15.3478C27.8438 12.8849 29.935 9.79654 30.7136 9.78746H37.5198C39.8717 24.512 38.6412 38.2979 38.6412 38.2979H31.29C31.9893 34.6221 34.4987 17.8283 32.4113 17.7729C31.2926 17.9484 26.1813 32.0204 26.1813 32.0204C26.1813 32.0204 25.0555 31.882 23.9228 31.882C22.7901 31.882 21.6646 32.0204 21.6646 32.0204C21.6646 32.0204 16.5533 17.9482 15.4345 17.7729C13.347 17.8283 15.8564 34.6221 16.5559 38.2981H9.20448ZM22.4721 36.5794C22.4721 37.0353 22.2888 37.4725 21.9625 37.7948C21.6362 38.1172 21.1936 38.2983 20.7321 38.2983C20.2707 38.2983 19.8281 38.1172 19.5018 37.7948C19.1755 37.4725 18.9922 37.0353 18.9922 36.5794C18.9922 36.1235 19.1755 35.6864 19.5018 35.364C19.8281 35.0417 20.2707 34.8606 20.7321 34.8606C21.1936 34.8606 21.6362 35.0417 21.9625 35.364C22.2888 35.6864 22.4721 36.1235 22.4721 36.5794ZM28.3451 37.7947C28.6714 37.4723 28.8547 37.0352 28.8547 36.5793C28.8547 36.1235 28.6714 35.6863 28.3451 35.364C28.0188 35.0416 27.5763 34.8606 27.1148 34.8606C26.6534 34.8606 26.2109 35.0416 25.8846 35.364C25.5583 35.6863 25.375 36.1235 25.375 36.5793C25.375 37.0352 25.5583 37.4723 25.8846 37.7947C26.2109 38.117 26.6534 38.2981 27.1148 38.2981C27.5763 38.2981 28.0188 38.117 28.3451 37.7947Z" fill="white"/>
<path opacity="0.1" d="M37.172 10.2741C38.2329 17.3681 38.4818 24.1763 38.4623 29.2479C38.4423 34.4353 38.1415 37.8055 38.1415 37.8055H31.9535L31.2886 38.298H38.6399C38.6399 38.298 39.8704 24.5119 37.5185 9.78735L37.172 10.2743V10.2741ZM17.6916 10.095C19.6228 12.2173 22.9629 17.8496 23.4231 17.8496C22.1986 16.3027 19.1909 11.3671 17.6916 10.095ZM14.9348 17.2804C12.8473 17.3358 15.3567 34.1297 16.0562 37.8055H9.6388L9.20312 38.298H16.5546C15.8587 34.6407 13.3714 17.9959 15.402 17.7728C15.2128 17.4922 15.0496 17.2983 14.9348 17.2802V17.2804ZM31.9114 17.2804C30.7929 17.4558 25.6814 31.528 25.6814 31.528C25.6814 31.528 24.5558 31.3896 23.4231 31.3896C22.7529 31.3896 22.176 31.4302 21.7858 31.4661L21.6631 32.0203C21.6631 32.0203 22.7888 31.8819 23.9217 31.8819C25.0542 31.8819 26.1799 32.0203 26.1799 32.0203C26.1799 32.0203 31.2527 18.0405 32.3943 17.7728C32.2714 17.4649 32.1194 17.2858 31.9114 17.2802V17.2804Z" fill="black"/>
<path opacity="0.3" d="M10.3259 9.78724C7.97415 24.5118 9.20448 38.2978 9.20448 38.2978L9.63732 37.8169C9.4158 34.5645 8.82415 22.8028 10.8242 10.2794H17.6307C17.7747 10.2812 17.9681 10.3978 18.1913 10.5872C17.7457 10.0973 17.3751 9.78985 17.1321 9.78687H10.326L10.3259 9.78724ZM30.7136 9.78724C29.4181 9.80235 24.4892 18.342 23.9228 18.342C24.1538 18.6338 24.3413 18.8343 24.4214 18.8343C24.9876 18.8343 29.9165 10.2947 31.212 10.2796H37.2184L37.5198 9.78705H30.7136V9.78724ZM15.9018 18.265C17.5551 20.7178 21.6644 32.0202 21.6644 32.0202L21.7847 31.4691C20.7702 28.7207 16.9042 18.4174 15.9329 18.265C15.9223 18.2653 15.9121 18.2638 15.9018 18.265ZM32.9097 18.265C34.0186 21.059 31.9194 34.9896 31.29 38.2978L31.9566 37.7835C32.8079 32.8498 34.8578 18.3168 32.9097 18.265Z" fill="white"/>
</svg>
