<svg width="164" height="48" viewBox="0 0 164 48" fill="none" xmlns="http://www.w3.org/2000/svg">
<path fill-rule="evenodd" clip-rule="evenodd" d="M152.798 20.4012C152.652 20.4309 152.504 20.758 152.504 20.9363C152.475 22.1263 152.446 25.2792 152.446 27.4207C152.446 27.4803 152.534 27.5993 152.622 27.5993C153.063 27.6289 154.123 27.6586 155.035 27.6586C156.3 27.6586 157.036 27.4803 157.448 27.3021C158.507 26.7664 159.007 25.6064 159.007 24.3271C159.007 21.4423 157.006 20.3416 154.034 20.3416C153.828 20.3119 153.24 20.3119 152.798 20.4012ZM160.391 33.6969C160.391 30.7522 158.242 29.1161 154.358 29.1161C154.182 29.1161 152.946 29.0864 152.651 29.1458C152.563 29.1757 152.446 29.2354 152.446 29.3246C152.446 31.4362 152.416 34.7976 152.504 36.1062C152.563 36.6713 152.975 37.4745 153.476 37.7123C154.005 38.0098 155.212 38.0692 156.036 38.0692C158.36 38.0692 160.391 36.7605 160.391 33.6969ZM146.796 18.7655C147.09 18.7655 147.973 18.8544 150.239 18.8544C152.387 18.8544 154.093 18.7951 156.183 18.7951C158.742 18.7951 162.273 19.7169 162.273 23.5838C162.273 25.4874 160.949 27.0046 159.213 27.7482C159.125 27.7778 159.125 27.8371 159.213 27.8668C161.685 28.4918 163.863 30.0383 163.863 32.953C163.863 35.8087 162.097 37.6231 159.537 38.7534C157.977 39.4374 156.036 39.6753 154.064 39.6753C152.563 39.6753 148.532 39.497 146.296 39.5567C146.061 39.4671 146.502 38.3963 146.708 38.2181C147.238 38.1881 147.649 38.1584 148.208 37.9799C149.003 37.772 149.091 37.5338 149.209 36.3145C149.268 35.2734 149.268 31.5847 149.268 28.9675C149.268 25.3685 149.297 22.9295 149.268 21.7398C149.238 20.818 148.915 20.5202 148.267 20.3416C147.767 20.2526 146.943 20.1334 146.266 20.0444C146.119 19.8955 146.619 18.8841 146.796 18.7655ZM129.818 37.2663C130.524 37.831 131.907 38.0688 133.143 38.0688C134.732 38.0688 136.321 37.772 137.851 36.3734C139.411 34.9462 140.499 32.7451 140.499 29.2354C140.499 25.8739 139.234 23.1374 136.644 21.5316C135.173 20.6091 133.29 20.223 131.113 20.223C130.465 20.223 129.847 20.2526 129.465 20.4309C129.376 20.4905 129.171 20.758 129.171 20.9066C129.112 21.5016 129.112 26.0821 129.112 28.7593C129.112 31.5254 129.112 35.3923 129.171 35.8384C129.171 36.2848 129.376 36.9688 129.818 37.2663H129.818ZM123.138 18.7651C123.697 18.7651 125.845 18.8544 126.875 18.8544C128.729 18.8544 130.053 18.7655 133.555 18.7655C136.497 18.7655 138.969 19.5684 140.734 21.0852C142.882 22.9592 144.001 25.5471 144.001 28.6997C144.001 33.1912 141.97 35.7791 139.94 37.2663C137.91 38.7831 135.262 39.6753 131.495 39.6753C129.494 39.6753 126.052 39.616 123.197 39.586H123.168C123.021 39.3185 123.403 38.2774 123.638 38.2477C124.404 38.1584 124.61 38.1285 124.992 37.9802C125.61 37.742 125.728 37.4149 125.816 36.3145C125.904 34.2619 125.875 31.7933 125.875 28.9972C125.875 27.0046 125.904 23.1077 125.845 21.8584C125.757 20.8177 125.316 20.5498 124.433 20.3713C123.992 20.2823 123.403 20.163 122.579 20.0741C122.462 19.8655 122.991 18.9437 123.138 18.7655V18.7651Z" fill="white"/>
<path fill-rule="evenodd" clip-rule="evenodd" d="M87.5355 38.4257C86.7999 38.3365 86.2702 38.2178 85.623 37.9203C85.5346 37.8607 85.3873 37.5635 85.3873 37.4443C85.3287 36.4032 85.3287 33.4288 85.3287 31.4363C85.3287 29.8298 85.064 28.4319 84.3871 27.4505C83.5925 26.3198 82.4452 25.6658 80.9737 25.6658C79.6791 25.6658 77.9429 26.558 76.501 27.8073C76.4717 27.8369 76.2364 28.0455 76.2657 27.718C76.2657 27.3908 76.3247 26.7365 76.354 26.2901C76.3837 25.8737 76.148 25.6658 76.148 25.6658C75.2064 26.1415 72.5583 26.7662 71.5871 26.8551C70.8811 27.0044 70.7045 27.6883 71.4404 27.9262H71.4697C72.2637 28.1641 72.7936 28.4319 73.2053 28.6998C73.4996 28.9376 73.4703 29.2648 73.4703 29.5326C73.4996 31.7631 73.4996 35.1839 73.4116 37.0578C73.3822 37.8014 73.1763 38.0689 72.6463 38.1879L72.7053 38.1582C72.2933 38.2475 71.9697 38.3365 71.4694 38.3961C71.2928 38.5747 71.2928 39.5265 71.4694 39.7347C71.793 39.7347 73.4996 39.6454 74.9125 39.6454C76.8543 39.6454 77.8549 39.7347 78.3549 39.7347C78.5609 39.4968 78.6198 38.6043 78.5022 38.3961C77.9429 38.3664 77.5309 38.3071 77.1486 38.1879C76.619 38.0686 76.4717 37.8014 76.442 37.1768C76.3837 35.6 76.3837 32.2688 76.3837 30.0084C76.3837 29.3837 76.56 29.0862 76.7363 28.9077C77.4133 28.313 78.5022 27.8965 79.4731 27.8965C80.4147 27.8965 81.0323 28.194 81.5033 28.5808C82.1506 29.1159 82.3566 29.8894 82.4449 30.4545C82.5919 31.7334 82.5332 34.2617 82.5332 36.4628C82.5332 37.6525 82.4449 37.95 82.0039 38.0986C81.7976 38.1879 81.268 38.3071 80.65 38.3661C80.444 38.5747 80.503 39.4968 80.65 39.705C81.5033 39.705 82.5039 39.6157 83.9751 39.6157C85.7993 39.6157 86.9765 39.705 87.4475 39.705C87.5942 39.5265 87.6531 38.6639 87.5355 38.4257ZM95.6862 27.064C94.127 27.064 93.1557 28.2833 93.1557 30.1866C93.1557 32.1202 94.009 34.351 96.4218 34.351C96.8338 34.351 97.599 34.1724 97.9517 33.756C98.511 33.2209 98.8936 32.1499 98.8936 31.0195C98.8936 28.5509 97.687 27.0637 95.6862 27.0637V27.064ZM95.4802 40.2104C94.8919 40.2104 94.4796 40.389 94.215 40.5379C92.9791 41.3405 92.4201 42.114 92.4201 43.0365C92.4201 43.8987 92.7437 44.5827 93.45 45.1777C94.3033 45.9213 95.4802 46.2784 96.9808 46.2784C99.9822 46.2784 101.306 44.6423 101.306 43.0365C101.306 41.9058 100.747 41.1622 99.5999 40.7461C98.7759 40.389 97.2754 40.2104 95.4802 40.2104ZM95.6862 47.9442C93.8913 47.9442 92.5964 47.5574 91.4785 46.6948C90.3896 45.862 89.919 44.6127 89.919 43.7501C89.919 43.5123 89.978 42.8576 90.5076 42.263C90.8309 41.9058 91.5375 41.2219 93.2147 40.0618C93.2734 40.0322 93.3027 40.0025 93.3027 39.9426C93.3027 39.8833 93.2437 39.8236 93.1851 39.7943C91.8022 39.2589 91.3902 38.3961 91.2722 37.9203V37.8607C91.2432 37.6822 91.1842 37.5039 91.4492 37.3253C91.6552 37.1768 91.9495 36.9982 92.2728 36.7903C92.7731 36.4925 93.3027 36.1653 93.6264 35.8975C93.6853 35.8382 93.6853 35.7789 93.6853 35.7192C93.6853 35.6596 93.6264 35.6 93.5674 35.5706C91.5082 34.8864 90.4782 33.3395 90.4782 31.0195C90.4782 29.5027 91.1549 28.1344 92.3611 27.2719C93.185 26.6176 95.2449 25.8144 96.5984 25.8144H96.6868C98.0697 25.844 98.8346 26.1415 99.9232 26.5283C100.512 26.7365 101.071 26.8255 101.836 26.8255C102.984 26.8255 103.484 26.4687 103.896 26.0526C103.925 26.1119 103.984 26.2608 104.014 26.6472C104.043 27.034 103.925 27.599 103.631 28.0155C103.396 28.3426 102.866 28.5808 102.336 28.5808H102.189C101.659 28.5212 101.424 28.4616 101.424 28.4616L101.306 28.5212C101.277 28.5808 101.306 28.6401 101.336 28.7294L101.365 28.789C101.424 29.0566 101.542 29.8595 101.542 30.068C101.542 32.507 100.571 33.5774 99.5409 34.3806C98.5403 35.1242 97.393 35.6 96.0981 35.7192C96.0688 35.7192 95.9515 35.7192 95.6862 35.7489C95.5392 35.7489 95.3332 35.7789 95.3036 35.7789H95.2742C95.0389 35.8382 94.4506 36.1357 94.4506 36.6411C94.4506 37.0872 94.7153 37.6228 95.9805 37.7121C96.2451 37.7418 96.5098 37.7418 96.8044 37.7718C98.4816 37.8904 100.571 38.0393 101.542 38.3664C102.895 38.8718 103.749 40.0915 103.749 41.549C103.749 43.7505 102.189 45.8027 99.5999 47.0813C98.3346 47.6467 97.0691 47.9442 95.6862 47.9442ZM112.458 27.2126C111.841 27.2126 111.281 27.3608 110.869 27.6583C109.722 28.3723 109.133 29.8002 109.133 31.882C109.133 35.7789 111.075 38.5153 113.841 38.5153C114.665 38.5153 115.313 38.2772 115.872 37.8014C116.725 37.0872 117.166 35.6596 117.166 33.6667C117.166 29.8002 115.254 27.2123 112.459 27.2123L112.458 27.2126ZM112.988 39.9429C107.986 39.9429 106.191 36.2249 106.191 32.7449C106.191 30.3059 107.162 28.4319 109.104 27.0933C110.487 26.2308 112.135 25.7551 113.606 25.7551C117.431 25.7551 120.109 28.5212 120.109 32.507C120.109 35.2135 119.05 37.355 117.019 38.6639C116.048 39.3182 114.371 39.9429 112.988 39.9429H112.988ZM60.5529 27.2123C59.935 27.2123 59.376 27.3608 58.9637 27.6583C57.8165 28.3723 57.2278 29.8002 57.2278 31.882C57.2278 35.7789 59.1697 38.5153 61.9358 38.5153C62.7597 38.5153 63.407 38.2772 63.9663 37.8014C64.8193 37.0872 65.2609 35.6596 65.2609 33.6667C65.2609 29.8002 63.3777 27.2123 60.5529 27.2123ZM61.0825 39.9429C56.0803 39.9429 54.2854 36.2249 54.2854 32.7449C54.2854 30.3059 55.2563 28.4319 57.1982 27.0933C58.5814 26.2308 60.2293 25.7551 61.7005 25.7551C65.5259 25.7551 68.2033 28.5212 68.2033 32.507C68.2033 35.2135 67.1441 37.355 65.1136 38.6639C64.172 39.3182 62.4948 39.9429 61.0825 39.9429ZM27.4498 39.6454C27.3908 39.5564 27.3319 39.2886 27.3615 38.9614C27.3615 38.7232 27.4205 38.5747 27.4498 38.5153C28.0678 38.4257 28.3914 38.3365 28.7444 38.2475C29.333 38.0986 29.5683 37.7718 29.5977 37.0282C29.6863 35.2435 29.6863 31.8524 29.6567 29.5027V29.443C29.6567 29.1755 29.6567 28.848 29.333 28.6102C28.8621 28.313 28.3031 28.0455 27.5675 27.8366C27.3028 27.748 27.1262 27.599 27.1555 27.4208C27.1555 27.2422 27.3322 27.034 27.7148 26.9744C28.6857 26.8851 31.2159 26.2608 32.2165 25.8144C32.2755 25.8737 32.3638 26.0526 32.3638 26.2904L32.3344 26.6173C32.3048 26.9447 32.2755 27.3315 32.2755 27.718C32.2755 27.8369 32.3934 27.9262 32.5108 27.9262C32.5698 27.9262 32.6288 27.8965 32.6874 27.8666C34.5706 26.3794 36.2771 25.844 37.1598 25.844C38.602 25.844 39.7202 26.5283 40.5735 27.9559C40.6321 28.0455 40.6911 28.0751 40.7795 28.0751C40.8381 28.0751 40.9261 28.0455 40.9558 27.9858C42.692 26.6472 44.4282 25.844 45.5754 25.844C48.3119 25.844 49.9304 27.8965 49.9304 31.3766C49.9304 32.3581 49.9304 33.637 49.9011 34.7974C49.9011 35.8382 49.8717 36.79 49.8717 37.4743C49.8717 37.6225 50.0774 38.0986 50.4011 38.1879C50.813 38.3961 51.3723 38.4854 52.1079 38.6043H52.1372C52.1962 38.8125 52.0786 39.5858 51.9609 39.7347C51.7843 39.7347 51.5193 39.7347 51.2253 39.705C50.4804 39.6657 49.7347 39.6459 48.9888 39.6454C47.1646 39.6454 46.223 39.6751 45.3105 39.7347C45.2521 39.4968 45.2224 38.7829 45.3105 38.6043C45.8404 38.5153 46.105 38.4257 46.429 38.3368C47.0176 38.1582 47.1646 37.8904 47.1943 37.1171C47.1943 36.5521 47.3116 31.7334 47.135 30.5734C46.9586 29.3837 46.0757 27.9858 44.1335 27.9858C43.3979 27.9858 42.2507 28.2833 41.1324 29.1455C41.0738 29.2052 41.0145 29.3537 41.0145 29.443V29.473C41.1324 30.0973 41.1324 30.8116 41.1324 31.912V33.8453C41.1324 35.1839 41.1028 36.4332 41.1324 37.3847C41.1324 38.0393 41.5151 38.1879 41.8387 38.3071C42.0154 38.3365 42.1327 38.3664 42.28 38.3961C42.5447 38.4557 42.8096 38.5153 43.2216 38.6043C43.2806 38.7236 43.2806 39.11 43.1923 39.4372C43.1626 39.6157 43.1036 39.7047 43.0743 39.7347C42.074 39.705 41.0441 39.6751 39.5436 39.6751C39.1022 39.6751 38.337 39.705 37.6897 39.705C37.1598 39.705 36.6598 39.7347 36.3658 39.7347C36.3361 39.6751 36.2771 39.4672 36.2771 39.1397C36.2771 38.8722 36.3361 38.6639 36.3951 38.6043C36.5421 38.5747 36.6598 38.545 36.8071 38.545C37.1598 38.4854 37.4544 38.4257 37.7484 38.3664C38.249 38.2178 38.4253 37.95 38.4546 37.2957C38.543 35.8085 38.6313 31.5552 38.4253 30.4841C38.0723 28.7591 37.1014 27.8965 35.5415 27.8965C34.6296 27.8965 33.4817 28.3426 32.5404 29.0569C32.3931 29.1755 32.2755 29.4727 32.2755 29.7405V31.4956C32.2755 33.637 32.2755 36.3142 32.3048 37.4743C32.3344 37.8307 32.4518 38.2475 33.1287 38.3961C33.276 38.4257 33.5114 38.4854 33.8057 38.5153L34.335 38.6043C34.3943 38.7829 34.3646 39.4968 34.247 39.7347C33.9527 39.7347 33.5997 39.705 33.1874 39.705C32.5698 39.6751 31.7752 39.6454 30.8926 39.6454C29.8626 39.6454 29.127 39.6751 28.5384 39.705C28.1265 39.6454 27.8028 39.6454 27.4498 39.6454Z" fill="white"/>
<path fill-rule="evenodd" clip-rule="evenodd" d="M11.967 46.7839L10.7608 46.3672C10.7608 46.3672 10.9081 40.1509 8.70095 39.7048C7.23005 37.9795 8.93691 -33.4658 14.2332 39.4666C14.2332 39.4666 12.4087 40.3885 12.085 41.9653C11.7317 43.5121 11.967 46.7839 11.967 46.7839Z" fill="white"/>
<path fill-rule="evenodd" clip-rule="evenodd" d="M11.967 46.7839L10.7608 46.3672C10.7608 46.3672 10.9081 40.1509 8.70095 39.7048C7.23005 37.9795 8.93691 -33.4658 14.2332 39.4666C14.2332 39.4666 12.4087 40.3885 12.085 41.9653C11.7317 43.5121 11.967 46.7839 11.967 46.7839Z" fill="white"/>
<path fill-rule="evenodd" clip-rule="evenodd" d="M12.6156 40.7764C12.6156 40.7764 23.1794 33.7566 20.7073 19.152C18.3241 8.5338 12.7039 5.05372 12.0859 3.71513C11.4093 2.76332 10.7617 1.0979 10.7617 1.0979L11.2033 30.6333C11.2033 30.6633 10.2911 39.6756 12.6159 40.7767" fill="white"/>
<path fill-rule="evenodd" clip-rule="evenodd" d="M12.6156 40.7764C12.6156 40.7764 23.1794 33.7566 20.7073 19.152C18.3241 8.5338 12.7039 5.05372 12.0859 3.71513C11.4093 2.76332 10.7617 1.0979 10.7617 1.0979L11.2033 30.6333C11.2033 30.6633 10.2911 39.6756 12.6159 40.7767" fill="white"/>
<path fill-rule="evenodd" clip-rule="evenodd" d="M10.1461 41.1625C10.1461 41.1625 0.229558 34.3212 0.818173 22.2752C1.37713 10.2288 8.38025 4.30976 9.73381 3.23902C10.6167 2.28721 10.6461 1.93008 10.7051 0.978271C11.323 2.31686 11.2054 20.9962 11.2934 23.197C11.558 31.674 10.8227 39.5567 10.1461 41.1625Z" fill="white"/>
<path fill-rule="evenodd" clip-rule="evenodd" d="M10.1461 41.1625C10.1461 41.1625 0.229558 34.3212 0.818173 22.2752C1.37713 10.2288 8.38025 4.30976 9.73381 3.23902C10.6167 2.28721 10.6461 1.93008 10.7051 0.978271C11.323 2.31686 11.2054 20.9962 11.2934 23.197C11.558 31.674 10.8227 39.5567 10.1461 41.1625Z" fill="white"/>
</svg>
