<svg width="114" height="77" viewBox="0 0 114 77" fill="none" xmlns="http://www.w3.org/2000/svg">
<path d="M27.9181 70.0966H23.5452C23.3906 62.7175 22.9647 55.7802 22.2684 49.2797H22.2296L15.5718 70.0966H12.2425L5.62443 49.2797H5.5864C5.09546 55.5209 4.78619 62.4598 4.65775 70.0966H0.671875C0.928755 60.81 1.57434 52.1038 2.60608 43.9771H8.02592L14.3339 63.1694H14.3727L20.7195 43.9771H25.9053C27.041 53.496 27.7119 62.203 27.9181 70.0966ZM46.8825 50.8256C45.1021 60.4848 42.7529 67.5031 39.8377 71.8841C37.5663 75.2565 35.0778 76.9443 32.3679 76.9443C31.6454 76.9443 30.7539 76.7264 29.6977 76.2938V73.9648C30.214 74.0391 30.8198 74.0814 31.5161 74.0814C32.7819 74.0814 33.7993 73.7333 34.575 73.0355C35.5028 72.1857 35.9667 71.2303 35.9667 70.1735C35.9667 69.4486 35.6051 67.9669 34.8834 65.7232L30.0847 50.8248H34.3807L37.8249 61.9673C38.5989 64.4974 38.9217 66.2638 38.7924 67.27C40.6759 62.241 41.9916 56.7576 42.7411 50.8239H46.8825V50.8256Z" fill="white"/>
<path d="M105.088 70.0967H92.6665V43.9772H96.845V66.8815H105.088V70.0967ZM89.415 70.7278L84.612 68.3582C85.0378 68.0085 85.4451 67.63 85.8119 67.1916C87.8534 64.7941 88.8716 61.2486 88.8716 56.5525C88.8716 47.9113 85.4798 43.5886 78.6936 43.5886C75.366 43.5886 72.7701 44.6851 70.9136 46.879C68.8738 49.2782 67.8556 52.811 67.8556 57.4818C67.8556 62.0731 68.758 65.4412 70.5638 67.5776C72.2158 69.513 74.706 70.482 78.0362 70.482C79.2783 70.482 80.4182 70.3299 81.4567 70.0233L87.7097 73.6625L89.415 70.7278ZM73.8559 64.8701C72.798 63.1688 72.269 60.4368 72.269 56.6699C72.269 50.0934 74.2675 46.8013 78.2685 46.8013C80.3599 46.8013 81.8928 47.5886 82.873 49.1599C83.9292 50.8638 84.4607 53.5713 84.4607 57.2858C84.4607 63.9164 82.4606 67.2321 78.462 67.2321C76.3698 67.233 74.837 66.4482 73.8559 64.8701ZM66.0346 62.857C66.0346 65.072 65.2217 66.8891 63.5976 68.3126C61.9718 69.7301 59.7917 70.4406 57.0598 70.4406C54.5046 70.4406 52.027 69.6245 49.6289 68.0009L50.7519 65.758C52.8154 66.7911 54.6837 67.3048 56.361 67.3048C57.9353 67.3048 59.1656 66.9559 60.0579 66.264C60.9494 65.5696 61.4809 64.5956 61.4809 63.3639C61.4809 61.8121 60.3984 60.4858 58.4127 59.3749C56.5816 58.3696 52.9193 56.2678 52.9193 56.2678C50.9344 54.8216 49.9407 53.2689 49.9407 50.7109C49.9407 48.5939 50.6818 46.8849 52.1648 45.5848C53.6494 44.2796 55.565 43.6292 57.9133 43.6292C60.3385 43.6292 62.5431 44.2788 64.5288 45.5645L63.5216 47.8083C61.8231 47.0868 60.1466 46.7261 58.493 46.7261C57.1536 46.7261 56.1194 47.048 55.4003 47.6942C54.6753 48.3379 54.2282 49.1616 54.2282 50.1719C54.2282 51.7162 55.3335 53.0594 57.3733 54.1922C59.229 55.1992 62.9825 57.3373 62.9825 57.3373C65.0181 58.781 66.0346 60.3193 66.0346 62.857Z" fill="white"/>
<path d="M110.336 35.2287C107.809 35.1645 105.853 35.4188 104.211 36.1132C103.737 36.3025 102.983 36.3024 102.917 36.9014C103.173 37.1548 103.203 37.5637 103.425 37.9134C103.804 38.5445 104.464 39.3935 105.066 39.8361C105.728 40.343 106.392 40.8448 107.088 41.2866C108.316 42.0461 109.708 42.4879 110.904 43.2448C111.601 43.6849 112.294 44.2543 112.992 44.7282C113.335 44.9808 113.555 45.3905 114 45.5485V45.4522C113.777 45.1683 113.714 44.7578 113.495 44.4418L112.547 43.5278C111.631 42.2978 110.493 41.2241 109.265 40.3422C108.254 39.6461 106.044 38.6999 105.634 37.5358L105.57 37.4716C106.264 37.4066 107.088 37.1548 107.748 36.9614C108.822 36.6784 109.801 36.7426 110.903 36.4596C111.41 36.3329 111.913 36.174 112.422 36.0178V35.7331C111.851 35.1645 111.443 34.4093 110.843 33.872C109.235 32.4841 107.464 31.1265 105.634 29.9903C104.654 29.3576 103.393 28.9504 102.349 28.4123C101.973 28.2222 101.34 28.1284 101.118 27.8125C100.552 27.1181 100.234 26.204 99.8229 25.3821C98.9103 23.6477 98.0238 21.7234 97.2363 19.8894C96.6668 18.6594 96.3203 17.4311 95.6257 16.2932C92.3725 10.9289 88.8395 7.67985 83.4096 4.49084C82.2426 3.82684 80.8543 3.54384 79.3713 3.1958L77.0027 3.07077C76.4974 2.84944 75.9913 2.24881 75.5502 1.96496C73.7487 0.829589 69.1104 -1.63123 67.7855 1.61776C66.932 3.67141 69.0479 5.69041 69.7746 6.73202C70.3112 7.45514 71.0066 8.27795 71.3818 9.09907C71.604 9.6355 71.6666 10.2049 71.8888 10.7717C72.3941 12.1605 72.8665 13.7056 73.5306 15.0015C73.8771 15.6621 74.2548 16.3565 74.6976 16.9546C74.9511 17.3043 75.3922 17.4589 75.4885 18.0292C75.0483 18.6577 75.0136 19.6064 74.761 20.3954C73.6253 23.9612 74.0689 28.3785 75.6786 30.999C76.1823 31.788 77.3838 33.5248 78.991 32.8592C80.414 32.2915 80.0988 30.4929 80.5078 28.9158C80.6016 28.5348 80.5399 28.2847 80.7292 28.0347V28.0963C81.1695 28.9791 81.6139 29.8298 82.0221 30.7151C83.0014 32.2602 84.7066 33.8703 86.1271 34.9407C86.8834 35.5117 87.4825 36.4883 88.4297 36.8372V36.7426H88.3672C88.1754 36.4596 87.8948 36.3329 87.643 36.1132C87.0735 35.5447 86.4431 34.8503 86.0012 34.2201C84.6779 32.452 83.5067 30.4946 82.4674 28.4748C81.9587 27.4948 81.5201 26.4237 81.1103 25.4454C80.9193 25.0678 80.9193 24.4984 80.6025 24.3084C80.1276 25.0019 79.4355 25.6026 79.0891 26.4524C78.4883 27.8116 78.4257 29.4834 78.2027 31.222L78.0784 31.2828C77.0729 31.0302 76.7231 29.9903 76.3411 29.1075C75.3956 26.8655 75.2367 23.2668 76.0572 20.6801C76.2769 20.0186 77.2275 17.9354 76.8481 17.3052C76.658 16.7012 76.0259 16.3574 75.6795 15.8818C75.2722 15.2837 74.826 14.5267 74.5421 13.8627C73.785 12.0963 73.4039 10.139 72.5885 8.37341C72.2074 7.5506 71.5457 6.69907 71.01 5.94131C70.4084 5.08978 69.7467 4.48999 69.271 3.48049C69.1138 3.13329 68.8933 2.5656 69.1459 2.18798C69.2076 1.93455 69.336 1.83994 69.5879 1.77658C69.9968 1.43107 71.1655 1.87035 71.5753 2.06042C72.7456 2.53349 73.7241 2.97531 74.701 3.63761C75.1429 3.9544 75.617 4.55419 76.1839 4.71216H76.8481C77.8562 4.9318 78.9927 4.77299 79.9417 5.05852C81.6139 5.5958 83.129 6.38397 84.4878 7.23466C88.6224 9.85599 92.0319 13.5806 94.3337 18.0292C94.7114 18.754 94.872 19.418 95.2168 20.174C95.8818 21.7217 96.704 23.2997 97.3639 24.8144C98.0272 26.297 98.6593 27.8108 99.6065 29.0425C100.079 29.7048 101.977 30.052 102.828 30.3992C103.457 30.6822 104.437 30.9339 105.005 31.2811C106.079 31.9426 107.149 32.702 108.159 33.4294C108.662 33.8078 110.242 34.5969 110.336 35.2287ZM78.1359 7.80404C77.7001 7.79951 77.2656 7.85291 76.8439 7.96285V8.02621H76.9047C77.1591 8.53054 77.601 8.88027 77.9162 9.3204C78.1705 9.82642 78.3911 10.3282 78.6404 10.8334L78.7012 10.7709C79.1465 10.4558 79.3679 9.9506 79.3679 9.19284C79.1761 8.96982 79.1465 8.75187 78.9868 8.53054C78.8009 8.21459 78.3911 8.05747 78.1359 7.80404Z" fill="white"/>
<path d="M113.341 70.0924H113.995V66.8924H113.014L112.214 69.0762L111.345 66.8924H110.4V70.0924H111.018V67.6578H111.052L111.963 70.0924H112.434L113.341 67.6578V70.0924ZM108.073 70.0924H108.765V67.4348H109.671V66.8916H107.129V67.4348H108.071L108.073 70.0924Z" fill="white"/>
</svg>
