<svg width="57" height="59" viewBox="0 0 57 59" fill="none" xmlns="http://www.w3.org/2000/svg">
<path d="M24.1962 18.1693C23.5749 18.0829 23.0123 18.1628 22.7276 18.3783C22.5677 18.4995 22.5181 18.6399 22.5046 18.7365C22.4689 18.9926 22.6483 19.2757 22.7587 19.4217C23.0707 19.8351 23.5265 20.1192 23.9776 20.1817C24.043 20.191 24.1081 20.1952 24.1728 20.1952C24.925 20.1952 25.6091 19.6096 25.6694 19.1775C25.7447 18.6362 24.9586 18.2754 24.1962 18.1695V18.1693ZM44.7779 18.1864C44.7185 17.7622 43.9632 17.6412 43.2465 17.7409C42.5306 17.8405 41.8366 18.1635 41.8945 18.5887C41.9409 18.9193 42.5383 19.4838 43.2453 19.4838C43.3051 19.4838 43.3654 19.4799 43.4261 19.4713C43.8981 19.4059 44.2444 19.1063 44.409 18.9337C44.6594 18.6705 44.8045 18.3771 44.7779 18.1864Z" fill="white"/>
<path d="M56.5842 36.3589C56.3213 35.5644 55.4752 35.3088 54.0695 35.5989C49.8956 36.4599 48.4008 35.8635 47.9101 35.5023C51.1544 30.5622 53.8233 24.5905 55.2631 19.019C55.9451 16.3798 56.3218 13.9288 56.3526 11.931C56.3867 9.73827 56.013 8.12695 55.2425 7.14264C52.1356 3.17458 47.5758 1.04608 42.0562 0.98769C38.2616 0.945055 35.0556 1.91569 34.4341 2.18865C33.1252 1.86333 31.6984 1.66359 30.145 1.6381C27.2964 1.59199 24.834 2.27369 22.7954 3.66326C21.9099 3.33377 19.6214 2.5485 16.8227 2.09782C11.9842 1.31927 8.13926 1.90921 5.39546 3.85211C2.12151 6.17061 0.610059 10.315 0.902844 16.1699C1.00137 18.1397 2.12429 24.1994 3.8963 30.0026C6.22885 37.6407 8.76447 41.9647 11.4322 42.8542C11.7445 42.9583 12.1045 43.031 12.5016 43.031C13.4748 43.031 14.6679 42.5926 15.9093 41.1009C17.4234 39.2853 18.9897 37.5138 20.6062 35.7887C21.6549 36.3513 22.807 36.6655 23.9854 36.697C23.9877 36.7278 23.9907 36.7586 23.9935 36.7892C23.7906 37.031 23.592 37.2762 23.3977 37.5249C22.5812 38.5609 22.4113 38.7766 19.7832 39.3174C19.0356 39.4717 17.0501 39.8807 17.0209 41.2719C16.9893 42.7919 19.368 43.4303 19.639 43.4979C20.5834 43.7343 21.4933 43.8508 22.361 43.8508C24.4713 43.8508 26.3283 43.1576 27.8124 41.8162C27.7668 47.235 27.9928 52.5745 28.6437 54.2014C29.1769 55.5333 30.4793 58.7881 34.5931 58.7879C35.1967 58.7879 35.8611 58.7177 36.5921 58.561C40.8855 57.6411 42.75 55.7444 43.4712 51.5627C43.8572 49.3278 44.5195 43.9913 44.8311 41.1287C45.4885 41.3338 46.3349 41.4276 47.2499 41.4274C49.1582 41.4274 51.3602 41.0221 52.7411 40.3814C54.2925 39.6613 57.0919 37.8942 56.5842 36.3589ZM46.3597 17.0156C46.3455 17.8607 46.2292 18.6279 46.1058 19.4287C45.973 20.2899 45.8358 21.1804 45.8012 22.2614C45.7672 23.3133 45.8986 24.407 46.0256 25.4648C46.2825 27.6011 46.5461 29.8005 45.5258 31.9708C45.3564 31.6706 45.2054 31.3604 45.0738 31.0418C44.947 30.7346 44.6716 30.241 44.2902 29.5579C42.8068 26.8988 39.3331 20.6718 41.1113 18.1309C41.641 17.3746 42.9853 16.5969 46.3597 17.0156ZM42.2695 2.69888C47.2151 2.80802 51.1272 4.6573 53.897 8.19508C56.0214 10.9086 53.6821 23.2559 46.91 33.9079C46.8419 33.8213 46.7734 33.735 46.7046 33.649L46.6189 33.542C48.3688 30.6532 48.0267 27.7951 47.7221 25.2611C47.5969 24.2212 47.4787 23.2389 47.5088 22.3163C47.5399 21.3384 47.6692 20.4996 47.7944 19.6887C47.9481 18.6893 48.1046 17.6552 48.0615 16.4361C48.0937 16.3082 48.1067 16.1571 48.0897 15.9778C47.9796 14.8088 46.6444 11.3102 43.9228 8.14364C42.4341 6.41159 40.2631 4.47333 37.2989 3.16601C38.5739 2.90186 40.3174 2.65555 42.2695 2.69888ZM14.5956 40.0091C13.2279 41.6528 12.2835 41.3377 11.9728 41.2343C9.94905 40.5596 7.60074 36.2841 5.53038 29.5042C3.7389 23.6377 2.69201 17.7386 2.60902 16.0844C2.34753 10.8528 3.61627 7.20683 6.38023 5.24747C10.8784 2.05912 18.2738 3.9675 21.2455 4.93536C21.2029 4.97753 21.1583 5.01692 21.1162 5.05979C16.2396 9.98227 16.3553 18.3925 16.3674 18.9066C16.3669 19.105 16.3836 19.3858 16.4063 19.7721C16.4902 21.1867 16.6465 23.8194 16.2292 26.8008C15.8416 29.5714 16.6961 32.2831 18.5731 34.2408C18.7658 34.4414 18.9682 34.6322 19.1798 34.8127C18.3443 35.7071 16.5285 37.685 14.5956 40.0091ZM19.8066 33.0593C18.2938 31.4814 17.6067 29.2866 17.9213 27.0372C18.3617 23.8877 18.1992 21.1447 18.1118 19.671C18.0995 19.4648 18.0886 19.2841 18.0824 19.1416C18.7947 18.5102 22.0961 16.7422 24.4504 17.2814C25.5246 17.5273 26.1793 18.2585 26.4514 19.5163C27.86 26.0281 26.6378 28.7421 25.6558 30.9232C25.4535 31.3725 25.2622 31.7972 25.099 32.2365L24.9724 32.5762C24.6521 33.4349 24.354 34.2334 24.1692 34.9916C22.5608 34.9869 20.9963 34.3002 19.8066 33.0591V33.0593ZM20.0535 41.8412C19.5838 41.724 19.1615 41.5203 18.9137 41.3514C19.1207 41.254 19.489 41.1215 20.1279 40.9899C23.2197 40.3538 23.6972 39.9048 24.7399 38.5815C24.9789 38.2779 25.2499 37.9341 25.6252 37.5151L25.6257 37.5147C26.1846 36.8891 26.4403 36.9952 26.9039 37.1875C27.2797 37.3428 27.6458 37.8136 27.7941 38.3317C27.8644 38.5764 27.9432 39.0407 27.6852 39.4022C25.507 42.4506 22.333 42.4114 20.0535 41.8412ZM36.2341 56.8913C32.4518 57.7014 31.1126 55.7724 30.2301 53.5672C29.6605 52.1436 29.3804 45.7238 29.5791 38.6341C29.5817 38.5398 29.5682 38.4487 29.5423 38.363C29.519 38.1937 29.4837 38.0263 29.4365 37.862C29.1412 36.8304 28.4214 35.9675 27.5579 35.6098C27.2148 35.4677 26.5852 35.2071 25.8285 35.4006C25.9899 34.736 26.2697 33.9855 26.5731 33.1729L26.7004 32.8311C26.8437 32.4458 27.0236 32.0465 27.2137 31.6239C28.2413 29.342 29.6487 26.2164 28.1212 19.1555C27.5491 16.5107 25.6385 15.2192 22.7421 15.5192C21.0058 15.6988 19.4172 16.399 18.6248 16.8006C18.4544 16.8868 18.2987 16.9702 18.1531 17.0513C18.3742 14.3866 19.2097 9.40669 22.3351 6.25588C24.303 4.27243 26.9236 3.29276 30.1167 3.34559C36.4082 3.44847 40.4428 6.67574 42.7197 9.36522C44.6818 11.6826 45.7442 14.0171 46.1682 15.2762C42.9795 14.952 40.8109 15.5811 39.7116 17.1521C37.32 20.5694 41.02 27.2019 42.7983 30.3896C43.1244 30.9737 43.4059 31.4786 43.4944 31.6932C44.0735 33.0959 44.8232 34.0325 45.3705 34.7161C45.5383 34.9255 45.7011 35.1287 45.8249 35.3062C44.8591 35.5845 43.1244 36.2275 43.2825 39.4416C43.155 41.0543 42.2484 48.6049 41.7878 51.2726C41.1797 54.7969 39.8822 56.1095 36.2341 56.8916V56.8913ZM52.0218 38.8327C51.0343 39.2908 49.3817 39.6344 47.8118 39.7083C46.0778 39.7894 45.195 39.5141 44.9873 39.3447C44.89 37.3418 45.6357 37.1326 46.4251 36.9111C46.5491 36.8763 46.6701 36.8423 46.7869 36.8015C46.8595 36.8606 46.939 36.9192 47.0262 36.9767C48.4198 37.8961 50.9056 37.9953 54.4151 37.2712L54.4536 37.2635C53.9802 37.7058 53.1702 38.2995 52.0218 38.8327Z" fill="white"/>
</svg>
