<svg width="172" height="27" viewBox="0 0 172 27" fill="none" xmlns="http://www.w3.org/2000/svg">
<path d="M22.871 11.2397C23.1935 11.2397 23.5029 11.3659 23.7316 11.5906C23.9602 11.8154 24.0894 12.1204 24.091 12.439V24.99C24.091 25.6508 23.55 26.1902 22.877 26.1902H1.215C0.892762 26.1902 0.583722 26.0638 0.355865 25.8387C0.128009 25.6136 0 25.3083 0 24.99V2.22834C0 1.56844 0.541 1.02906 1.216 1.02906H3.849C4.517 1.02906 5.063 1.56252 5.063 2.22834V10.1106C5.08088 10.3916 5.19692 10.6578 5.39133 10.8637C5.58574 11.0697 5.84646 11.2025 6.129 11.2397H8.099C8.696 11.1854 9.193 10.7053 9.226 10.1106V2.22736C9.226 1.56746 9.766 1.02808 10.44 1.02808H13.073C13.741 1.02808 14.288 1.56153 14.288 2.22736V10.0276C14.288 10.644 14.746 11.1676 15.348 11.2387H22.872L22.871 11.2397ZM19.404 19.8471V17.3912C19.404 16.7313 18.864 16.191 18.19 16.191H15.556C14.888 16.191 14.341 16.7254 14.341 17.3912V19.8461C14.341 20.506 14.882 21.0454 15.556 21.0454H18.189C18.857 21.0454 19.403 20.5119 19.403 19.8461L19.404 19.8471ZM41.624 26.2129L40.365 20.4082C40.2093 19.6307 40.0103 18.8623 39.769 18.1064C39.554 17.4357 39.249 16.8736 38.869 16.4162C38.483 15.9578 37.98 15.614 37.356 15.374C36.733 15.1399 35.916 15.0193 34.906 15.0193H32.261V26.212H29.38V1.07253H35.684C36.727 1.07253 37.737 1.1812 38.72 1.39359C39.697 1.60697 40.564 1.96162 41.315 2.45259C42.0702 2.9505 42.6914 3.62249 43.125 4.41056C43.583 5.22358 43.81 6.22133 43.81 7.41073C43.81 8.32155 43.7 9.12865 43.484 9.82115C43.2874 10.4787 42.9566 11.0896 42.512 11.6161C42.082 12.118 41.541 12.5427 40.901 12.8865C40.261 13.2303 39.504 13.5089 38.643 13.7213V13.7924C39.482 14.0048 40.155 14.2774 40.658 14.5995C41.16 14.9265 41.563 15.3137 41.867 15.7672C42.165 16.2196 42.397 16.7373 42.562 17.3211C42.728 17.9049 42.882 18.5757 43.037 19.3235L44.505 26.212H41.624V26.2129ZM40.923 7.71006C40.923 6.66884 40.735 5.85582 40.365 5.28285C40.0108 4.72539 39.4981 4.28348 38.891 4.01244C38.278 3.73979 37.583 3.5758 36.804 3.52147C36.0069 3.46627 35.2081 3.43892 34.409 3.43948H32.266V12.6573H33.85C34.717 12.6573 35.567 12.5981 36.417 12.4726C37.21 12.3643 37.9778 12.1202 38.686 11.7515C39.3514 11.3995 39.9111 10.8805 40.309 10.2469C40.712 9.59789 40.922 8.75227 40.922 7.71006H40.923ZM57.776 26.2129V23.9161H57.705C57.4625 24.3696 57.1322 24.7717 56.733 25.0996C56.324 25.4375 55.877 25.722 55.391 25.9452C54.9018 26.1692 54.389 26.3391 53.862 26.452C53.3562 26.5624 52.84 26.619 52.322 26.6209C51.566 26.6209 50.892 26.5063 50.307 26.2722C49.7466 26.0625 49.2424 25.7286 48.833 25.2962C48.4234 24.8544 48.1133 24.3319 47.923 23.763C47.713 23.1634 47.608 22.4985 47.608 21.7616C47.608 21.0958 47.74 20.507 48.005 19.9834C48.27 19.4598 48.618 19.0015 49.06 18.6033C49.5167 18.193 50.0294 17.8478 50.583 17.5779C51.163 17.2885 51.759 17.0593 52.377 16.8844C53.5507 16.5495 54.7653 16.375 55.987 16.3658C56.286 16.3658 56.578 16.3609 56.854 16.3559C57.13 16.35 57.417 16.3174 57.721 16.2571V15.8867C57.721 15.2485 57.71 14.6104 57.693 13.9722C57.6857 13.385 57.5757 12.8035 57.368 12.2533C57.1768 11.7554 56.838 11.3261 56.396 11.0214C55.949 10.7102 55.281 10.5522 54.409 10.5522C53.89 10.5522 53.426 10.6016 53.012 10.6944C52.6277 10.774 52.2638 10.9296 51.942 11.1518C51.6343 11.375 51.3842 11.6668 51.212 12.0034C51.025 12.358 50.898 12.7937 50.826 13.3123H48.033C48.043 12.4331 48.232 11.6922 48.601 11.0817C48.9566 10.4827 49.4457 9.97154 50.031 9.58702C50.6457 9.19098 51.326 8.90475 52.041 8.7414C52.7928 8.56218 53.5636 8.47263 54.337 8.47467C56.33 8.47467 57.809 8.92119 58.775 9.81028C59.742 10.6994 60.227 12.112 60.227 14.0433V26.212H57.777L57.776 26.2129ZM56.226 18.3465C55.662 18.3465 55.044 18.4068 54.381 18.5322C53.733 18.6508 53.1049 18.8583 52.515 19.1487C51.935 19.4381 51.455 19.8086 51.064 20.2778C50.672 20.747 50.478 21.3249 50.478 22.0125C50.478 22.7485 50.705 23.354 51.152 23.8282C51.605 24.3024 52.201 24.5375 52.946 24.5375C53.388 24.5375 53.818 24.4723 54.226 24.3301C54.6317 24.1968 55.0164 24.0079 55.369 23.7689C55.728 23.527 56.0529 23.239 56.335 22.9125C56.623 22.5795 56.86 22.219 57.037 21.8258C57.18 21.5047 57.296 21.2104 57.39 20.9486C57.5693 20.4222 57.6697 19.8727 57.688 19.3176C57.699 19.0341 57.705 18.7071 57.705 18.3416H56.225V18.3465H56.226ZM79.201 17.7251C79.201 18.8651 79.085 19.9676 78.848 21.0355C78.61 22.1054 78.218 23.0537 77.666 23.8835C77.1166 24.7109 76.3719 25.394 75.496 25.8741C74.602 26.37 73.487 26.6209 72.156 26.6209C70.92 26.6209 69.882 26.4303 69.043 26.0539C68.204 25.6726 67.525 25.149 67.017 24.4723C66.51 23.7956 66.14 23.0004 65.919 22.0777C65.6908 21.0938 65.5798 20.0869 65.588 19.0775V1.07253H68.088V11.7465H68.177C68.3223 11.2463 68.5596 10.7768 68.877 10.3615C69.1863 9.96421 69.5576 9.61807 69.977 9.3361C70.4031 9.05494 70.8701 8.83974 71.362 8.69793C71.8709 8.54871 72.3991 8.47317 72.93 8.47369C73.769 8.47369 74.509 8.60507 75.143 8.8718C75.778 9.13951 76.33 9.50404 76.788 9.96834C77.252 10.4326 77.638 10.9661 77.948 11.5786C78.2647 12.1992 78.5128 12.8516 78.688 13.5247C78.87 14.2122 78.997 14.9156 79.074 15.6358C79.162 16.35 79.201 17.0484 79.201 17.7251ZM76.319 17.6599C76.3162 17.2066 76.2961 16.7535 76.259 16.3016C76.2127 15.7837 76.1406 15.2684 76.043 14.7576C75.943 14.229 75.8 13.7153 75.618 13.2145C75.4495 12.7366 75.2135 12.2846 74.917 11.872C74.6394 11.4881 74.2842 11.1652 73.874 10.9236C73.465 10.6776 72.99 10.5581 72.449 10.5581C71.875 10.5581 71.362 10.6885 70.92 10.9503C70.4719 11.2174 70.0804 11.5676 69.767 11.9816C69.441 12.4064 69.17 12.8924 68.955 13.4378C68.7407 13.9804 68.5692 14.5385 68.442 15.1073C68.3188 15.6577 68.2287 16.2148 68.172 16.7758C68.1198 17.2595 68.0918 17.7455 68.088 18.2319C68.088 18.8977 68.138 19.5952 68.232 20.3262C68.326 21.0632 68.519 21.7448 68.8 22.3721C69.082 22.9994 69.485 23.518 70.01 23.927C70.534 24.336 71.224 24.5375 72.09 24.5375C72.665 24.5375 73.173 24.4288 73.614 24.2155C74.0443 24.0063 74.4273 23.7133 74.74 23.354C75.055 22.9945 75.309 22.5736 75.513 22.0994C75.717 21.6253 75.878 21.1343 75.999 20.6275C76.12 20.1197 76.203 19.607 76.253 19.0993C76.297 18.5925 76.319 18.1114 76.319 17.6599ZM96.938 17.7251C96.938 18.8651 96.822 19.9676 96.584 21.0355C96.347 22.1054 95.955 23.0537 95.404 23.8835C94.8546 24.7109 94.1099 25.394 93.234 25.8741C92.339 26.37 91.224 26.6209 89.894 26.6209C88.657 26.6209 87.619 26.4303 86.78 26.0539C85.941 25.6726 85.262 25.149 84.754 24.4723C84.246 23.7956 83.877 23.0004 83.656 22.0777C83.4278 21.0938 83.3168 20.0869 83.325 19.0775V1.07253H85.825V11.7465H85.914C86.0593 11.2463 86.2966 10.7768 86.614 10.3615C86.9233 9.96421 87.2946 9.61807 87.714 9.3361C88.14 9.05477 88.6071 8.83955 89.099 8.69793C89.6079 8.54871 90.1361 8.47317 90.667 8.47369C91.506 8.47369 92.245 8.60507 92.88 8.8718C93.515 9.13951 94.067 9.50404 94.525 9.96834C94.989 10.4326 95.375 10.9661 95.685 11.5786C96.0017 12.1992 96.2498 12.8516 96.425 13.5247C96.607 14.2122 96.733 14.9156 96.811 15.6358C96.899 16.35 96.938 17.0484 96.938 17.7251ZM94.056 17.6599C94.0532 17.2066 94.0331 16.7535 93.996 16.3016C93.9497 15.7837 93.8776 15.2684 93.78 14.7576C93.68 14.229 93.537 13.7153 93.355 13.2145C93.1865 12.7366 92.9505 12.2846 92.654 11.872C92.3764 11.4881 92.0212 11.1652 91.611 10.9236C91.202 10.6776 90.727 10.5581 90.186 10.5581C89.612 10.5581 89.099 10.6885 88.657 10.9503C88.2086 11.2173 87.8167 11.5675 87.503 11.9816C87.178 12.4064 86.907 12.8924 86.692 13.4378C86.4777 13.9804 86.3062 14.5385 86.179 15.1073C86.0558 15.6577 85.9657 16.2148 85.909 16.7758C85.8568 17.2595 85.8288 17.7455 85.825 18.2319C85.825 18.8977 85.875 19.5952 85.969 20.3262C86.063 21.0632 86.256 21.7448 86.537 22.3721C86.819 22.9994 87.222 23.518 87.747 23.927C88.271 24.336 88.961 24.5375 89.827 24.5375C90.402 24.5375 90.91 24.4288 91.351 24.2155C91.7813 24.0063 92.1643 23.7133 92.477 23.354C92.792 22.9945 93.046 22.5736 93.25 22.0994C93.4536 21.6232 93.6162 21.1308 93.736 20.6275C93.857 20.1197 93.94 19.607 93.99 19.0993C94.034 18.5925 94.056 18.1114 94.056 17.6599ZM101.366 4.34536V1.07154H104.677V4.34437H101.365L101.366 4.34536ZM101.763 26.212V8.86686H104.263V26.212H101.763ZM114.15 10.9453V21.6193C114.15 22.5469 114.377 23.2612 114.835 23.7739C115.293 24.2876 116.022 24.5375 117.021 24.5375C117.318 24.5426 117.614 24.5151 117.904 24.4555C118.187 24.3874 118.466 24.3016 118.738 24.1987V26.4253C118.368 26.4846 117.998 26.534 117.628 26.5666C117.264 26.6051 116.894 26.6209 116.518 26.6209C115.69 26.6209 114.973 26.5449 114.366 26.3918C113.758 26.2396 113.25 25.9887 112.842 25.6341C112.433 25.2853 112.13 24.827 111.932 24.254C111.732 23.681 111.633 22.9777 111.633 22.138V10.9453H108.768V8.86093H111.633V4.82547L114.133 3.26067V8.86192H118.87V10.9463H114.15V10.9453Z" fill="white"/>
<path d="M143.446 26.2809V4.16242H143.376L135.884 26.275H133.041L125.566 4.16242H125.478V26.275H122.906V1.14051H127.228L134.448 22.528H134.52L141.758 1.14051H146.025V26.2809H143.446ZM160.212 26.2888C159.025 26.2888 157.971 26.114 157.06 25.7653C156.179 25.4345 155.367 24.9462 154.664 24.3249C153.975 23.7071 153.391 22.9832 152.936 22.1812C152.462 21.3509 152.083 20.4712 151.805 19.5584C151.514 18.6104 151.305 17.6394 151.181 16.6561C151.056 15.6681 150.993 14.6733 150.993 13.6776C150.993 12.6364 151.048 11.5942 151.164 10.5579C151.274 9.54431 151.466 8.54103 151.738 7.55774C152.008 6.59259 152.373 5.7035 152.826 4.86875C153.271 4.05538 153.856 3.32466 154.554 2.70926C155.249 2.09776 156.077 1.61765 157.027 1.26893C157.982 0.920215 159.097 0.745361 160.367 0.745361C161.603 0.745361 162.685 0.925154 163.618 1.28573C164.505 1.62195 165.319 2.1237 166.014 2.76359C166.682 3.38595 167.234 4.11698 167.67 4.96161C168.106 5.8013 168.454 6.70126 168.708 7.65653C168.962 8.61082 169.138 9.60264 169.238 10.634C169.338 11.6653 169.393 12.6799 169.393 13.6776C169.388 14.885 169.307 16.0909 169.15 17.2883C169.059 17.9759 168.933 18.6587 168.774 19.3342C168.614 20.0218 168.404 20.6708 168.15 21.2764C167.909 21.8586 167.604 22.4129 167.24 22.9291C166.914 23.3979 166.495 23.7968 166.009 24.1017L166.08 24.1728L171.32 23.8508V26.2888H160.212ZM166.262 13.6401C166.262 12.9851 166.24 12.2709 166.202 11.4964C166.159 10.7154 166.069 9.93754 165.932 9.16699C165.795 8.39915 165.593 7.64382 165.33 6.90871C165.083 6.21151 164.727 5.55662 164.275 4.96754C163.84 4.40937 163.291 3.94818 162.663 3.61415C162.028 3.2763 161.261 3.10737 160.373 3.10737C159.433 3.10737 158.633 3.27037 157.965 3.59834C157.313 3.91331 156.736 4.36108 156.271 4.91222C155.797 5.48333 155.418 6.12607 155.15 6.81585C154.866 7.54614 154.648 8.29988 154.499 9.0682C154.349 9.85455 154.25 10.6399 154.2 11.4253C154.15 12.2156 154.129 12.9525 154.129 13.6401C154.129 14.2941 154.156 14.9984 154.217 15.7561C154.277 16.5148 154.383 17.2725 154.543 18.0361C154.697 18.7948 154.918 19.5308 155.2 20.2391C155.464 20.9201 155.833 21.5569 156.293 22.1269C156.74 22.6722 157.281 23.1089 157.916 23.4358C158.551 23.7638 159.306 23.9268 160.168 23.9268C161.14 23.9268 161.968 23.7747 162.647 23.4635C163.296 23.174 163.874 22.7498 164.341 22.2198C164.801 21.6841 165.162 21.0729 165.407 20.4139C165.667 19.7323 165.859 19.0072 165.987 18.2436C166.113 17.48 166.191 16.6995 166.218 15.9142C166.246 15.1179 166.262 14.3602 166.262 13.6401Z" fill="white"/>
</svg>
