<svg width="145" height="47" viewBox="0 0 145 47" fill="none" xmlns="http://www.w3.org/2000/svg">
<path d="M79.3609 15.0096C79.3609 16.143 78.4183 17.1546 77.1892 17.1546C76.2466 17.1546 75.4274 17.3977 74.7309 17.9238C73.9525 18.4099 73.3378 19.0977 72.8464 19.8666C71.863 21.1619 71.3719 22.6997 71.1667 23.2659V30.9561C71.1667 32.1299 70.1427 33.1014 68.9136 33.1014C67.7253 33.1014 66.7422 32.1299 66.7422 30.9561V15.0096C66.7422 13.8357 67.7253 12.9049 68.9136 12.9049C70.1427 12.9049 71.1667 13.836 71.1667 15.0096V15.293C71.4124 15.0096 71.7403 14.686 72.0272 14.4834C73.3793 13.5933 75.1408 12.8645 77.1892 12.9049C78.4183 12.9049 79.3609 13.836 79.3609 15.0096Z" fill="white"/>
<path d="M78.1562 22.9835C78.1975 17.4792 82.5402 12.8652 88.1527 12.8652C93.4789 12.8652 97.6987 16.7911 98.0268 22.2547V22.4571C98.0268 22.5382 98.0268 22.7402 97.9859 22.8213C97.8626 23.7928 97.0025 24.4405 95.8551 24.4405H82.8268C83.0316 25.3716 83.4821 26.4236 84.2199 27.1117C85.0803 28.0832 86.7191 28.8111 88.1527 28.9326C89.6276 29.0538 91.3894 28.6899 92.4137 27.921C93.2738 27.0303 94.9538 27.1521 95.4864 27.7992C96.019 28.3664 96.4286 29.5806 95.4864 30.43C93.4786 32.2509 91.0615 33.1012 88.1524 33.1012C82.5402 33.0614 78.1975 28.4879 78.1562 22.9835ZM82.622 21.0004H94.2164C93.8068 19.3815 91.7172 16.9937 88.1527 16.7103C84.6707 16.8719 82.9498 19.3411 82.622 21.0004Z" fill="white"/>
<path d="M118.904 30.9164C118.904 32.0903 117.92 33.1022 116.691 33.1022C115.585 33.1022 114.725 32.3333 114.52 31.3618C112.963 32.4138 110.996 33.1022 108.948 33.1022C103.417 33.1022 98.9922 28.4882 98.9922 23.0243C98.9922 17.4792 103.417 12.8653 108.948 12.8653C110.956 12.8653 112.922 13.5126 114.438 14.565V6.95628C114.438 5.78243 115.421 4.77051 116.691 4.77051C117.92 4.77051 118.903 5.78243 118.903 6.95628V22.9836V23.0243V30.9164H118.904ZM108.948 17.2769C107.473 17.2769 106.121 17.8839 105.097 18.9362C104.073 19.9481 103.458 21.4048 103.458 23.024C103.458 24.5617 104.073 26.0187 105.097 27.0306C106.121 28.0833 107.473 28.6902 108.948 28.6902C110.464 28.6902 111.775 28.0833 112.799 27.0306C113.823 26.019 114.438 24.5617 114.438 23.024C114.438 21.4048 113.823 19.9481 112.799 18.9362C111.775 17.8839 110.464 17.2769 108.948 17.2769Z" fill="white"/>
<path d="M126.698 7.80628C126.698 9.02053 125.756 10.0321 124.486 10.0321C123.257 10.0321 122.273 9.02053 122.273 7.80628V6.95628C122.273 5.74203 123.257 4.77051 124.486 4.77051C125.756 4.77051 126.698 5.74203 126.698 6.95628V7.80628ZM126.698 15.1318V30.9164C126.698 32.1307 125.756 33.1022 124.486 33.1022C123.257 33.1022 122.273 32.1307 122.273 30.9164V15.1318C122.273 13.8368 123.257 12.9057 124.486 12.9057C125.756 12.9057 126.698 13.8368 126.698 15.1318Z" fill="white"/>
<path d="M129.512 27.3118C130.249 26.3409 131.683 26.2194 132.584 26.9883C133.65 27.879 135.494 28.8092 137.091 28.7691C138.197 28.7691 139.222 28.4051 139.877 28.0002C140.451 27.5144 140.614 27.1101 140.614 26.7859C140.614 26.5836 140.573 26.5028 140.492 26.381C140.45 26.2598 140.287 26.0978 139.959 25.8958C139.385 25.4909 138.156 25.0455 136.681 24.7624H136.64C135.37 24.5197 134.141 24.1958 133.076 23.7098C131.97 23.1839 130.986 22.4554 130.249 21.3627C129.798 20.6342 129.553 19.7438 129.553 18.813C129.553 16.9511 130.618 15.3726 131.97 14.3607C133.404 13.3894 135.125 12.8633 137.009 12.8633C139.836 12.8633 141.844 14.199 143.155 15.0891C144.138 15.7368 144.425 17.0726 143.81 18.0839C143.155 19.0554 141.803 19.3388 140.779 18.6508C139.468 17.8011 138.32 17.1531 137.009 17.1531C135.985 17.1531 135.084 17.4769 134.551 17.8816C134.018 18.2461 133.896 18.6104 133.896 18.8127C133.896 18.9743 133.896 19.015 133.978 19.1362C134.019 19.217 134.141 19.3789 134.428 19.5409C134.961 19.9051 136.026 20.2693 137.419 20.5124L137.46 20.5531H137.501C138.854 20.7955 140.124 21.1601 141.312 21.7266C142.418 22.2124 143.524 22.9813 144.221 24.1144C144.712 24.9237 144.999 25.8548 144.999 26.7856C144.999 28.7688 143.893 30.4284 142.418 31.4804C140.943 32.492 139.099 33.0996 137.091 33.0996C133.896 33.0592 131.438 31.6022 129.799 30.3072C128.897 29.5787 128.775 28.2022 129.512 27.3118Z" fill="white"/>
<path d="M53.8805 28.9314C53.858 29.4404 53.1776 30.0095 51.7809 30.7319C48.9043 32.2146 34.0048 38.2808 30.8341 39.9168C27.6611 41.5529 25.9005 41.5373 23.3945 40.3503C20.8884 39.1655 5.03459 32.8236 2.17821 31.4743C0.75227 30.7986 0.0247014 30.2295 0 29.6916V35.0843C0 35.6222 0.750024 36.1935 2.17821 36.8693C5.03459 38.2208 20.8906 44.5605 23.3945 45.7452C25.9005 46.9323 27.6611 46.9478 30.8341 45.3096C34.0048 43.6735 48.9043 37.6095 51.7809 36.1246C53.2427 35.3711 53.8895 34.7842 53.8895 34.2529C53.8895 33.7506 53.8917 28.9358 53.8917 28.9358C53.8895 28.9336 53.8827 28.9336 53.8805 28.9314ZM53.8782 20.1399C53.8535 20.6489 53.1754 21.2157 51.7809 21.9382C48.9043 23.4208 34.0048 29.4871 30.8341 31.1231C27.6611 32.7592 25.9005 32.7436 23.3945 31.5588C20.8884 30.374 5.03459 24.0321 2.17821 22.6806C0.75227 22.0071 0.0247014 21.4358 0 20.9001V26.2928C0 26.8307 0.750024 27.3998 2.17821 28.0756C5.03459 29.4271 20.8884 35.7667 23.3945 36.9515C25.9005 38.1385 27.6611 38.1541 30.8341 36.5181C34.0048 34.882 48.9043 28.8158 51.7809 27.3331C53.2427 26.5773 53.8895 25.9905 53.8895 25.4592C53.8895 24.9569 53.8917 20.1421 53.8917 20.1421C53.8895 20.1399 53.8827 20.1421 53.8782 20.1399ZM53.8782 11.0216C53.9052 10.4792 53.1888 10.0035 51.7472 9.47892C48.9447 8.46307 34.1351 2.628 31.2989 1.59881C28.4627 0.571836 27.3085 0.61407 23.9761 1.79664C20.6436 2.98144 4.87516 9.10326 2.07043 10.1902C0.666938 10.7371 -0.0202102 11.2417 0.00449116 11.7796V17.1723C0.00449116 17.7103 0.754515 18.2793 2.18271 18.9551C5.03908 20.3066 20.8929 26.6485 23.399 27.8333C25.905 29.0181 27.6656 29.0336 30.8386 27.3976C34.0093 25.7615 48.9088 19.6953 51.7854 18.2126C53.2472 17.4568 53.894 16.87 53.894 16.3387C53.894 15.8386 53.8962 11.0216 53.8962 11.0216H53.8782ZM19.2985 16.1253L31.7862 14.227L28.0136 19.702L19.2985 16.1253ZM46.9169 11.195L39.5335 14.0825L38.7318 14.3937L31.3506 11.5062L39.529 8.30524L46.9169 11.195ZM25.2358 5.89786L24.0277 3.69276L27.7958 5.15097L31.3483 3.99952L30.3872 6.27797L34.0071 7.62059L29.3385 8.10074L28.2921 10.5904L26.6034 7.81399L21.2118 7.33384L25.2358 5.89786ZM15.9324 9.00767C19.6196 9.00767 22.6063 10.1547 22.6063 11.5684C22.6063 12.9822 19.6174 14.1292 15.9324 14.1292C12.2474 14.1292 9.25629 12.98 9.25629 11.5684C9.25629 10.1547 12.2452 9.00767 15.9324 9.00767Z" fill="white"/>
</svg>
