<svg width="144" height="42" viewBox="0 0 144 42" fill="none" xmlns="http://www.w3.org/2000/svg">
<path d="M54.6254 0.906738H138.691C141.64 0.906738 144 3.32058 144 6.25432V35.7031C144 38.6739 141.603 41.0506 138.691 41.0506H54.6254C51.6757 41.0506 49.316 38.6368 49.316 35.7031V6.25432C49.316 3.28344 51.6757 0.906738 54.6254 0.906738Z" fill="#2438AE"/>
<path d="M77.4484 8.74219H82.684V32.2492H77.4484V22.2968H68.6363V32.2492H63.3638V8.74219H68.5994V17.7291H77.4115V8.74219H77.4484Z" fill="white"/>
<path d="M97.2111 32.6949C95.7732 32.732 94.3352 32.5092 92.971 31.9893C91.8649 31.5808 90.8325 30.9124 90.0213 30.0582C89.247 29.2041 88.6571 28.2014 88.2884 27.1245C87.9197 25.899 87.7354 24.6364 87.7354 23.3366V8.7051H92.971V22.891C92.971 23.708 93.0447 24.525 93.3028 25.3048C93.4872 25.899 93.7821 26.4561 94.1877 26.9388C94.5564 27.3473 94.9989 27.6444 95.5519 27.8301C96.105 28.0158 96.6949 28.09 97.2849 28.09C98.4279 28.1272 99.5708 27.7187 100.382 26.9017C101.193 26.1218 101.562 24.7478 101.562 22.8539V8.66797H106.798V23.2995C106.798 24.5993 106.613 25.8619 106.208 27.0874C105.839 28.2014 105.249 29.2041 104.475 30.0582C103.627 30.9124 102.594 31.5808 101.488 31.9893C100.124 32.5092 98.6859 32.732 97.2111 32.6949Z" fill="white"/>
<path d="M119.665 32.5465C118.375 32.5465 117.121 32.5093 115.831 32.4351C114.503 32.3608 113.176 32.1751 111.886 31.878V9.07659C113.066 8.85377 114.245 8.70523 115.425 8.63096C116.716 8.51956 117.896 8.48242 119.002 8.48242C120.366 8.48242 121.73 8.59383 123.094 8.81664C124.237 9.00232 125.307 9.37368 126.302 9.93072C127.15 10.4135 127.888 11.1191 128.404 11.9732C128.92 12.9387 129.215 14.0157 129.178 15.0926C129.178 16.9865 128.293 18.4348 126.486 19.5489C127.961 20.106 128.994 20.8858 129.51 21.8513C130.063 22.854 130.321 24.0052 130.321 25.1564C130.321 27.6074 129.436 29.4642 127.629 30.7268C125.86 31.9152 123.205 32.5465 119.665 32.5465ZM117.011 17.9521H119.555C121.177 17.9521 122.32 17.7293 123.021 17.3208C123.721 16.9123 124.127 16.1324 124.053 15.3154C124.053 14.3499 123.684 13.6814 122.984 13.3101C122.283 12.9387 121.214 12.7159 119.813 12.7159C119.37 12.7159 118.891 12.7159 118.375 12.7159C117.859 12.7159 117.416 12.753 117.011 12.7902V17.9521ZM117.011 21.9999V28.053C117.379 28.0902 117.822 28.1273 118.264 28.1644C118.707 28.2016 119.223 28.2016 119.739 28.2016C121.03 28.2387 122.357 28.0159 123.537 27.5331C124.495 27.0875 124.975 26.2334 124.975 25.0079C124.975 23.931 124.569 23.1511 123.758 22.6683C122.947 22.2227 121.804 21.9627 120.292 21.9627L117.011 21.9999Z" fill="white"/>
<path d="M32.2817 27.7934C32.1343 27.6449 32.0605 27.5335 31.9499 27.4592C30.9544 26.4937 29.9589 25.491 28.9634 24.5255C28.8528 24.4141 28.7053 24.2655 28.5947 24.117C28.4103 23.8942 28.4103 23.56 28.5578 23.3C28.7053 23.0029 28.9634 22.8172 29.2952 22.7801C29.4427 22.743 29.5902 22.743 29.7377 22.743C31.1019 22.743 32.4292 22.743 33.7934 22.7801C34.7521 22.8172 35.637 23.1886 36.3007 23.8942C38.2917 25.8995 40.2458 27.9048 42.2368 29.9102C42.4581 30.133 42.6793 30.393 42.8636 30.69C43.1586 31.1357 43.1955 31.7298 42.9374 32.2126C42.753 32.5097 42.5687 32.8068 42.3106 33.0667C41.4626 33.9209 40.6145 34.775 39.7665 35.6291C38.6604 36.7803 37.5174 37.8944 36.4113 39.0456C35.9319 39.5284 35.342 39.8997 34.7152 40.0483C34.4202 40.1226 34.0884 40.1968 33.7566 40.1968C32.8717 40.1968 32.0237 40.1968 31.1388 40.1597C30.6226 40.1226 30.0695 40.1226 29.5533 40.1226C29.3321 40.1226 29.074 40.0483 28.8896 39.8997C28.5209 39.6769 28.4472 39.1942 28.6684 38.8228L28.7053 38.7857C28.8159 38.6 28.9634 38.4514 29.1109 38.3029C29.8852 37.523 30.6594 36.7803 31.3968 36.0005C31.6549 35.7034 31.913 35.4434 32.208 35.2206C32.2449 35.1835 32.2817 35.1092 32.2449 35.0721C32.2449 34.9978 32.1711 34.9607 32.0974 34.9607C31.7656 34.9235 31.4337 34.9235 31.1388 34.9235C30.2539 34.9235 29.4058 34.9235 28.5209 34.8864C26.6774 34.8493 24.9076 34.4408 23.2116 33.698C21.9579 33.141 20.7781 32.4726 19.6351 31.7298C18.3815 30.9129 17.2016 30.0216 16.0218 29.1303C14.8788 28.2762 13.6989 27.4592 12.5559 26.6422C11.2286 25.7138 9.75374 25.0454 8.1683 24.7483C7.28341 24.5626 6.39851 24.4883 5.51361 24.5255C4.33375 24.5626 3.15388 24.5626 1.93715 24.5255C1.34722 24.5255 0.794159 24.4884 0.204228 24.4512C0.0198744 24.4512 -0.0169963 24.3769 0.0198744 24.2284C0.0198744 24.0799 0.056744 23.9684 0.0936147 23.8199C0.314839 22.8172 0.388585 21.7774 0.351714 20.7376C0.351714 19.8835 0.241101 19.0665 0.0567474 18.2495C-0.0538647 17.6553 -0.0538636 17.6553 0.536068 17.6182C1.64219 17.5811 2.74831 17.5439 3.85443 17.6182C4.33375 17.6553 4.81307 17.6925 5.32926 17.6925C6.9147 17.6925 8.50014 17.3954 9.97497 16.8012C11.4129 16.207 12.7403 15.4272 13.9939 14.5359C14.8788 13.9046 15.6899 13.199 16.538 12.5306C18.2709 11.1194 20.1513 9.93108 22.1423 8.96554C23.1747 8.48278 24.2808 8.07429 25.3869 7.74006C27.4517 7.14589 29.5902 6.92307 31.7287 7.10875C31.8762 7.10875 31.9868 7.10875 32.1343 7.10875C32.1711 7.10875 32.208 7.07161 32.208 7.03447C32.208 6.99734 32.208 6.96021 32.1711 6.92307C31.2125 6.06895 30.4382 5.06627 29.4427 4.24928C29.2215 4.0636 29.0002 3.84079 28.8528 3.58084C28.5578 3.09807 28.5209 2.46677 28.7422 1.94686C28.779 1.87259 28.8528 1.83545 28.9265 1.83545C29.0003 1.83545 29.1109 1.83545 29.1846 1.83545C30.8807 1.83545 32.5767 1.83545 34.2728 1.83545C34.494 1.83545 34.7521 1.90972 34.9364 2.05827C36.0057 2.87526 37.0012 3.76652 37.9598 4.69492C39.066 5.80899 40.1352 6.96021 41.2045 8.07429C41.5732 8.44564 41.9419 8.817 42.3106 9.18836C42.5318 9.41118 42.753 9.63399 42.9005 9.89394C43.2323 10.3767 43.2323 11.008 42.9374 11.4908C42.753 11.825 42.4949 12.1221 42.2 12.3821C41.4257 13.1619 40.6514 13.9789 39.8402 14.7587C38.6604 15.9471 37.4805 17.1354 36.3007 18.3238C35.7845 18.8808 35.0839 19.2522 34.3096 19.3636C34.0884 19.4007 33.8672 19.4007 33.646 19.4007C32.3924 19.4007 31.1387 19.3636 29.922 19.3636C29.7008 19.3636 29.4796 19.3265 29.2583 19.3265C29.0371 19.2893 28.8159 19.1779 28.6684 18.9922C28.4103 18.6951 28.3734 18.2495 28.6315 17.9524C28.7053 17.841 28.8159 17.7296 28.9265 17.6182C29.922 16.6155 30.9175 15.65 31.913 14.6473C31.9868 14.5731 32.0974 14.4617 32.1711 14.3874C32.208 14.3503 32.1711 14.276 32.1343 14.276H32.0974C32.0605 14.276 32.0236 14.2388 31.9499 14.2388C30.77 14.1274 29.6271 14.1274 28.4472 14.2388C27.0461 14.3874 25.7188 14.833 24.502 15.5015C23.4696 16.0956 22.4741 16.7641 21.5155 17.5068C20.3725 18.3609 19.2295 19.215 18.0865 20.0692C17.8653 20.2549 17.6072 20.4034 17.3491 20.5891C16.7592 20.9976 16.7592 21.1833 17.3491 21.5917C17.6809 21.8146 17.9759 22.0374 18.3077 22.2602C20.1144 23.5228 21.8842 24.8226 23.6909 26.0852C25.0182 27.0507 26.5299 27.6449 28.1522 27.8677C29.1846 28.0163 30.217 28.0534 31.2494 27.9791C31.4706 27.942 31.6918 27.942 31.913 27.942C31.9868 27.9049 32.1343 27.8677 32.2817 27.7934Z" fill="#2438AE"/>
</svg>
