<svg width="17" height="18" viewBox="0 0 17 18" fill="none" xmlns="http://www.w3.org/2000/svg">
<path d="M0.309992 8.88011C0.309992 7.10941 0.30759 5.33872 0.310592 3.56802C0.313594 1.80093 1.5469 0.573026 3.31759 0.572426C6.8788 0.571225 10.4406 0.570625 14.0018 0.572426C15.7665 0.573026 16.9968 1.80813 16.998 3.57883C16.9998 7.14003 16.9998 10.7018 16.998 14.263C16.9974 16.0277 15.7629 17.2592 13.991 17.2598C10.4298 17.2622 6.86799 17.2622 3.30679 17.2598C1.53849 17.2586 0.312393 16.0253 0.310592 14.2522C0.30819 12.4611 0.309992 10.6706 0.309992 8.88011ZM8.75277 2.71299C6.91723 2.74422 5.33867 3.22997 4.03272 4.41284C2.75798 5.56748 2.12512 7.00013 2.41033 8.7366C2.67813 10.3692 3.66525 11.5118 5.04926 12.3416C5.88507 12.8424 6.80195 13.1072 7.76205 13.2441C8.27482 13.3174 8.35348 13.444 8.23279 13.9526C8.17275 14.2048 8.08268 14.4498 8.02084 14.702C7.94518 15.01 8.1073 15.1793 8.41293 15.0893C8.62008 15.028 8.82302 14.9259 9.00436 14.8058C9.46249 14.5014 9.91883 14.1934 10.3541 13.8578C11.4139 13.0406 12.5319 12.281 13.4986 11.3635C15.4002 9.55981 15.4723 6.84882 13.7418 4.88778C12.398 3.36447 10.64 2.76643 8.75277 2.71299Z" fill="white"/>
<path d="M8.41675 7.65161C8.41675 8.1782 8.41735 8.70478 8.41615 9.23197C8.41615 9.33164 8.43897 9.45173 8.39273 9.52558C8.33749 9.61385 8.22281 9.70632 8.12614 9.71472C8.05108 9.72133 7.94841 9.61445 7.89016 9.53459C7.84873 9.47755 7.85053 9.38148 7.84993 9.30222C7.84753 8.54146 7.84693 7.78131 7.84993 7.02055C7.85053 6.8122 7.88296 6.61225 8.12734 6.5456C8.36151 6.48196 8.47379 6.64107 8.58127 6.80439C8.94394 7.3562 9.306 7.908 9.66927 8.4586C9.7119 8.52345 9.75993 8.5841 9.87642 8.63994C9.87642 8.43819 9.87642 8.23704 9.87642 8.03529C9.87642 7.65522 9.87582 7.27454 9.87762 6.89446C9.87882 6.70772 9.93286 6.5408 10.1514 6.5354C10.3748 6.53059 10.4312 6.70592 10.4324 6.88725C10.4378 7.69785 10.445 8.50844 10.4252 9.31843C10.4222 9.44993 10.3027 9.67329 10.2115 9.6871C10.0668 9.70872 9.84039 9.63607 9.75453 9.52318C9.4465 9.11789 9.18351 8.67896 8.90311 8.25325C8.76681 8.0455 8.6299 7.83835 8.4936 7.6306C8.46839 7.6378 8.44257 7.64441 8.41675 7.65161Z" fill="white"/>
<path d="M11.4845 7.79233C11.8214 7.79233 12.1126 7.77071 12.3978 7.80254C12.5149 7.81575 12.6962 7.92983 12.7124 8.0223C12.7473 8.21504 12.5683 8.24686 12.4062 8.24626C12.166 8.24506 11.9247 8.23245 11.6869 8.25587C11.6148 8.26307 11.5025 8.36755 11.4947 8.4372C11.4701 8.66236 11.4857 8.89173 11.4857 9.15953C11.855 9.15953 12.1913 9.16133 12.5281 9.15893C12.7094 9.15773 12.901 9.17394 12.901 9.40091C12.901 9.63568 12.7004 9.63448 12.5251 9.63388C12.115 9.63328 11.7043 9.62787 11.2942 9.63568C11.0174 9.64108 10.8871 9.51739 10.8877 9.24179C10.8895 8.48163 10.8913 7.72088 10.8865 6.96072C10.8847 6.68932 10.9982 6.54822 11.2774 6.54942C11.6977 6.55182 12.118 6.54642 12.5383 6.55182C12.6932 6.55362 12.8788 6.58064 12.8361 6.78479C12.8181 6.87305 12.6518 6.97693 12.5425 6.99014C12.2861 7.02076 12.0231 7.00995 11.7631 6.99855C11.5638 6.99014 11.4617 7.04778 11.4815 7.26754C11.4959 7.42426 11.4845 7.58337 11.4845 7.79233Z" fill="white"/>
<path d="M4.40495 8.09099C4.40495 7.7013 4.40314 7.31102 4.40555 6.92133C4.40675 6.70998 4.4734 6.52745 4.72078 6.53645C4.95074 6.54486 5.00118 6.72259 5.00058 6.92193C4.99938 7.58182 5.00659 8.2417 4.99698 8.90158C4.99398 9.10453 5.04862 9.1952 5.26537 9.18018C5.48454 9.16517 5.7055 9.17178 5.92526 9.18018C6.09278 9.18679 6.28432 9.22942 6.23869 9.43957C6.21767 9.53684 6.04174 9.65813 5.92886 9.66654C5.55118 9.69476 5.1699 9.67615 4.78983 9.67795C4.52804 9.67915 4.40434 9.54825 4.40495 9.29067C4.40555 8.89137 4.40495 8.49148 4.40495 8.09099Z" fill="white"/>
<path d="M7.26285 8.14296C7.26285 8.53324 7.26405 8.92353 7.26224 9.31382C7.26104 9.51977 7.21181 9.71371 6.96683 9.72331C6.71404 9.73292 6.66 9.53658 6.6588 9.33183C6.6552 8.53144 6.6558 7.73046 6.6582 6.93007C6.6588 6.72472 6.71044 6.53018 6.96383 6.53678C7.21121 6.54339 7.26104 6.73613 7.26164 6.94208C7.26405 7.34257 7.26285 7.74247 7.26285 8.14296Z" fill="white"/>
</svg>
