<svg width="16" height="12" viewBox="0 0 16 12" fill="none" xmlns="http://www.w3.org/2000/svg">
<path d="M2.44122 2.84443C2.45901 2.67221 2.39123 2.50162 2.25736 2.38572L0.897482 0.807173V0.571289H5.12199L8.38739 7.46987L11.258 0.571289H15.2851V0.807173L14.1217 1.8813C14.0218 1.95476 13.9718 2.07637 13.9921 2.19554V10.0899C13.9709 10.2099 14.0209 10.3307 14.1217 10.4041L15.2579 11.4783V11.7141H9.54392V11.4783L10.7208 10.378C10.836 10.267 10.836 10.2335 10.836 10.0638V3.68349L7.56384 11.6897H7.12156L3.31221 3.68349V9.04923C3.28087 9.2745 3.35797 9.50223 3.52319 9.66547L5.05421 11.4538V11.6897H0.713623V11.4538L2.24465 9.66547C2.40817 9.50223 2.48189 9.27369 2.44206 9.04923V2.84443H2.44122Z" fill="white"/>
</svg>
