<svg width="18" height="15" viewBox="0 0 18 15" fill="none" xmlns="http://www.w3.org/2000/svg">
<path d="M6.77898 13.6831C6.8158 13.0564 6.85263 12.4415 6.90173 11.8385C6.95083 11.1881 6.99993 10.5496 7.03676 9.89923C7.04903 9.69821 7.12268 9.55631 7.28226 9.41442C9.73728 7.2978 12.18 5.16935 14.6351 3.04091C14.6964 2.98178 14.7701 2.93448 14.8192 2.86354C14.9174 2.73346 14.7701 2.53245 14.5246 2.61522C14.3405 2.67434 14.3036 2.70982 14.1318 2.81624C12.1923 3.98688 10.2651 5.16935 8.32564 6.34C7.19633 7.02583 6.05475 7.72349 4.92544 8.40932C4.79041 8.49209 4.67993 8.50392 4.53263 8.45662C3.24374 8.05458 1.94258 7.66436 0.653694 7.27415C0.530942 7.23867 0.420466 7.19137 0.30999 7.14408C-0.0705385 6.94306 -0.107364 6.63561 0.23634 6.37547C0.457292 6.20993 0.715069 6.07985 0.972847 5.98526C2.06533 5.57139 3.17009 5.16935 4.26258 4.75549C8.43612 3.20645 12.5974 1.65742 16.7709 0.108383C16.8446 0.0847332 16.9182 0.0492591 16.9919 0.0374344C17.4952 -0.104462 17.9739 0.167506 17.9984 0.675968C18.0107 1.03071 17.9493 1.4091 17.8634 1.76384C16.9919 5.73694 16.1203 9.69821 15.2365 13.6713C15.0279 14.6055 14.3896 14.8301 13.5917 14.2625C12.3396 13.3757 11.0875 12.4888 9.84776 11.5902C9.77411 11.531 9.70046 11.4837 9.61453 11.4246C9.56543 11.4719 9.50405 11.5074 9.45495 11.5547C8.81665 12.1459 8.19062 12.7372 7.55231 13.3284C7.34363 13.5294 7.12268 13.695 6.77898 13.6831Z" fill="white"/>
</svg>
