<svg width="38" height="35" viewBox="0 0 38 35" fill="none" xmlns="http://www.w3.org/2000/svg">
<g filter="url(#filter0_d)">
<path d="M16.779 23.6831C16.8158 23.0564 16.8526 22.4415 16.9017 21.8385C16.9508 21.1881 16.9999 20.5496 17.0368 19.8992C17.049 19.6982 17.1227 19.5563 17.2823 19.4144C19.7373 17.2978 22.18 15.1694 24.6351 13.0409C24.6964 12.9818 24.7701 12.9345 24.8192 12.8635C24.9174 12.7335 24.7701 12.5324 24.5246 12.6152C24.3405 12.6743 24.3036 12.7098 24.1318 12.8162C22.1923 13.9869 20.2651 15.1694 18.3256 16.34C17.1963 17.0258 16.0547 17.7235 14.9254 18.4093C14.7904 18.4921 14.6799 18.5039 14.5326 18.4566C13.2437 18.0546 11.9426 17.6644 10.6537 17.2741C10.5309 17.2387 10.4205 17.1914 10.31 17.1441C9.92946 16.9431 9.89264 16.6356 10.2363 16.3755C10.4573 16.2099 10.7151 16.0799 10.9728 15.9853C12.0653 15.5714 13.1701 15.1694 14.2626 14.7555C18.4361 13.2065 22.5974 11.6574 26.7709 10.1084C26.8446 10.0847 26.9182 10.0493 26.9919 10.0374C27.4952 9.89554 27.9739 10.1675 27.9984 10.676C28.0107 11.0307 27.9493 11.4091 27.8634 11.7638C26.9919 15.7369 26.1203 19.6982 25.2365 23.6713C25.0279 24.6055 24.3896 24.8301 23.5917 24.2625C22.3396 23.3757 21.0875 22.4888 19.8478 21.5902C19.7741 21.531 19.7005 21.4837 19.6145 21.4246C19.5654 21.4719 19.5041 21.5074 19.455 21.5547C18.8166 22.1459 18.1906 22.7372 17.5523 23.3284C17.3436 23.5294 17.1227 23.695 16.779 23.6831Z" fill="#0066FF"/>
</g>
<defs>
<filter id="filter0_d" x="0" y="0" width="38" height="34.5714" filterUnits="userSpaceOnUse" color-interpolation-filters="sRGB">
<feFlood flood-opacity="0" result="BackgroundImageFix"/>
<feColorMatrix in="SourceAlpha" type="matrix" values="0 0 0 0 0 0 0 0 0 0 0 0 0 0 0 0 0 0 127 0"/>
<feOffset/>
<feGaussianBlur stdDeviation="5"/>
<feColorMatrix type="matrix" values="0 0 0 0 0 0 0 0 0 0.4 0 0 0 0 1 0 0 0 1 0"/>
<feBlend mode="normal" in2="BackgroundImageFix" result="effect1_dropShadow"/>
<feBlend mode="normal" in="SourceGraphic" in2="effect1_dropShadow" result="shape"/>
</filter>
</defs>
</svg>
