<svg width="17" height="14" viewBox="0 0 17 14" fill="none" xmlns="http://www.w3.org/2000/svg">
<path d="M0.713623 12.1199C2.12847 13.0531 3.77913 13.5715 5.56453 13.5715C11.426 13.5715 14.7273 8.49085 14.5589 3.92864C15.1653 3.47933 15.7043 2.89177 16.1422 2.23509C15.5695 2.47703 14.9632 2.6844 14.3231 2.75353C14.9632 2.33878 15.4685 1.71666 15.7043 0.956291C15.0979 1.33648 14.4242 1.61297 13.6831 1.75122C13.1104 1.1291 12.3019 0.714355 11.3924 0.714355C9.33745 0.714355 7.85523 2.64984 8.32685 4.68901C5.66559 4.58532 3.3412 3.30652 1.7916 1.33648C0.949431 2.78809 1.35367 4.68901 2.76852 5.65675C2.26322 5.65675 1.75792 5.48394 1.35367 5.24201C1.31999 6.72818 2.36428 8.14523 3.88019 8.45629C3.44226 8.59454 2.93695 8.59454 2.46534 8.52542C2.86958 9.80422 4.04862 10.7374 5.42978 10.772C4.04862 11.8434 2.39796 12.3273 0.713623 12.1199Z" fill="white"/>
</svg>
