<svg width="48" height="48" viewBox="0 0 48 48" fill="none" xmlns="http://www.w3.org/2000/svg">
<g clip-path="url(#clip0)">
<path d="M9.94402 7.7564L9.75024 7.80113V8V41.5384V41.7884H10.0002H12.0002H12.2502V41.5384V7.53839V7.22412L11.944 7.2948L9.94402 7.7564Z" fill="white" stroke="white" stroke-width="0.5"/>
<path d="M38.0002 7.75H37.7502V8V42V42.3202L38.0609 42.2425L40.0609 41.7425L40.2502 41.6952V41.5V8V7.75H40.0002H38.0002Z" fill="white" stroke="white" stroke-width="0.5"/>
<mask id="path-4-outside-1" maskUnits="userSpaceOnUse" x="9.00024" y="1" width="32" height="14" fill="black">
<rect fill="white" x="9.00024" y="1" width="32" height="14"/>
<path fill-rule="evenodd" clip-rule="evenodd" d="M38.0058 8C38.0025 8 37.9999 7.99755 37.9997 7.99429C37.9934 7.87376 37.9256 7.5801 37.4455 7.12493C36.9312 6.63738 36.08 6.10617 34.8625 5.61799C32.4385 4.64602 28.9526 4 25.0002 4C21.0479 4 17.562 4.64602 15.138 5.61799C13.9205 6.10617 13.0693 6.63738 12.555 7.12493C12.0451 7.60829 12.0002 7.90951 12.0002 8.01469C12.0002 8.11986 12.0451 8.42108 12.555 8.90444C13.0693 9.39199 13.9205 9.92321 15.138 10.4114C17.562 11.3834 21.0479 12.0294 25.0002 12.0294C27.1041 12.0294 29.0758 11.8463 30.8255 11.5285C31.4531 11.4145 32.0468 11.8862 32.0468 12.5241C32.0468 12.9916 31.7204 13.3973 31.2607 13.4821C29.3553 13.8334 27.2348 14.0294 25.0002 14.0294C16.716 14.0294 10.0002 11.3365 10.0002 8.01469C10.0002 4.69287 16.716 2 25.0002 2C33.2845 2 40.0002 4.69287 40.0002 8.01469C40.0002 8.58251 39.804 9.13195 39.4373 9.65271C38.9571 10.3345 38.0119 9.86588 38.0119 9.03194V8.00608C38.0119 8.00272 38.0092 8 38.0058 8Z"/>
</mask>
<path fill-rule="evenodd" clip-rule="evenodd" d="M38.0058 8C38.0025 8 37.9999 7.99755 37.9997 7.99429C37.9934 7.87376 37.9256 7.5801 37.4455 7.12493C36.9312 6.63738 36.08 6.10617 34.8625 5.61799C32.4385 4.64602 28.9526 4 25.0002 4C21.0479 4 17.562 4.64602 15.138 5.61799C13.9205 6.10617 13.0693 6.63738 12.555 7.12493C12.0451 7.60829 12.0002 7.90951 12.0002 8.01469C12.0002 8.11986 12.0451 8.42108 12.555 8.90444C13.0693 9.39199 13.9205 9.92321 15.138 10.4114C17.562 11.3834 21.0479 12.0294 25.0002 12.0294C27.1041 12.0294 29.0758 11.8463 30.8255 11.5285C31.4531 11.4145 32.0468 11.8862 32.0468 12.5241C32.0468 12.9916 31.7204 13.3973 31.2607 13.4821C29.3553 13.8334 27.2348 14.0294 25.0002 14.0294C16.716 14.0294 10.0002 11.3365 10.0002 8.01469C10.0002 4.69287 16.716 2 25.0002 2C33.2845 2 40.0002 4.69287 40.0002 8.01469C40.0002 8.58251 39.804 9.13195 39.4373 9.65271C38.9571 10.3345 38.0119 9.86588 38.0119 9.03194V8.00608C38.0119 8.00272 38.0092 8 38.0058 8Z" fill="white"/>
<path d="M37.4455 7.12493L37.7895 6.76207L37.7895 6.76207L37.4455 7.12493ZM34.8625 5.61799L35.0486 5.15391L34.8625 5.61799ZM15.138 5.61799L14.9519 5.15391L15.138 5.61799ZM12.555 7.12493L12.899 7.48779L12.555 7.12493ZM12.555 8.90444L12.899 8.54158L12.555 8.90444ZM15.138 10.4114L14.9519 10.8755L15.138 10.4114ZM31.2607 13.4821L31.17 12.9904L31.2607 13.4821ZM37.9997 7.99429L38.499 7.96827L37.9997 7.99429ZM38.499 7.96827C38.484 7.6805 38.3296 7.27414 37.7895 6.76207L37.1015 7.48779C37.5216 7.88606 37.5028 8.06701 37.5004 8.0203L38.499 7.96827ZM37.7895 6.76207C37.214 6.2165 36.301 5.65609 35.0486 5.15391L34.6764 6.08207C35.859 6.55625 36.6484 7.05826 37.1015 7.48779L37.7895 6.76207ZM35.0486 5.15391C32.552 4.15282 29 3.5 25.0002 3.5V4.5C28.9051 4.5 32.325 5.13922 34.6764 6.08207L35.0486 5.15391ZM25.0002 3.5C21.0005 3.5 17.4485 4.15282 14.9519 5.15391L15.3241 6.08207C17.6754 5.13922 21.0954 4.5 25.0002 4.5V3.5ZM14.9519 5.15391C13.6995 5.65609 12.7865 6.2165 12.211 6.76207L12.899 7.48779C13.3521 7.05826 14.1415 6.55625 15.3241 6.08207L14.9519 5.15391ZM12.211 6.76207C11.6356 7.30759 11.5002 7.73154 11.5002 8.01469H12.5002C12.5002 8.08748 12.4547 7.90899 12.899 7.48779L12.211 6.76207ZM11.5002 8.01469C11.5002 8.29783 11.6356 8.72178 12.211 9.2673L12.899 8.54158C12.4547 8.12038 12.5002 7.94189 12.5002 8.01469H11.5002ZM12.211 9.2673C12.7865 9.81287 13.6995 10.3733 14.9519 10.8755L15.3241 9.9473C14.1415 9.47313 13.3521 8.97111 12.899 8.54158L12.211 9.2673ZM14.9519 10.8755C17.4485 11.8766 21.0005 12.5294 25.0002 12.5294V11.5294C21.0954 11.5294 17.6754 10.8902 15.3241 9.9473L14.9519 10.8755ZM25.0002 12.5294C27.1325 12.5294 29.1341 12.3439 30.9149 12.0205L30.7361 11.0366C29.0174 11.3487 27.0757 11.5294 25.0002 11.5294V12.5294ZM25.0002 14.5294C27.2634 14.5294 29.4143 14.331 31.3513 13.9738L31.17 12.9904C29.2963 13.3359 27.2063 13.5294 25.0002 13.5294V14.5294ZM9.50024 8.01469C9.50024 9.02646 10.0137 9.94009 10.835 10.7187C11.6553 11.4963 12.8154 12.1736 14.2076 12.7318C16.9946 13.8494 20.8107 14.5294 25.0002 14.5294V13.5294C20.9056 13.5294 17.2216 12.863 14.5797 11.8036C13.2574 11.2734 12.2209 10.6546 11.523 9.99302C10.8263 9.33249 10.5002 8.66382 10.5002 8.01469H9.50024ZM25.0002 1.5C20.8107 1.5 16.9946 2.18002 14.2076 3.29758C12.8154 3.85581 11.6553 4.53304 10.835 5.31064C10.0137 6.08928 9.50024 7.00291 9.50024 8.01469H10.5002C10.5002 7.36555 10.8263 6.69689 11.523 6.03636C12.2209 5.37478 13.2574 4.75595 14.5797 4.22574C17.2216 3.16642 20.9056 2.5 25.0002 2.5V1.5ZM40.5002 8.01469C40.5002 7.00291 39.9868 6.08928 39.1655 5.31064C38.3452 4.53304 37.1851 3.85581 35.7929 3.29758C33.0058 2.18002 29.1898 1.5 25.0002 1.5V2.5C29.0949 2.5 32.7789 3.16642 35.4208 4.22574C36.7431 4.75595 37.7796 5.37478 38.4775 6.03636C39.1742 6.69689 39.5002 7.36555 39.5002 8.01469H40.5002ZM39.8461 9.94061C40.2607 9.35184 40.5002 8.70383 40.5002 8.01469H39.5002C39.5002 8.46118 39.3473 8.91206 39.0285 9.36481L39.8461 9.94061ZM37.5119 8.00608V9.03194H38.5119V8.00608H37.5119ZM38.5119 8.00608C38.5119 7.72658 38.2853 7.5 38.0058 7.5V8.5C37.733 8.5 37.5119 8.27886 37.5119 8.00608H38.5119ZM39.0285 9.36481C38.9713 9.44603 38.9204 9.46815 38.8911 9.47547C38.8573 9.48388 38.8103 9.4826 38.7533 9.45642C38.6358 9.40241 38.5119 9.25505 38.5119 9.03194H37.5119C37.5119 9.64277 37.8606 10.1467 38.3357 10.3651C38.836 10.595 39.4578 10.4919 39.8461 9.94061L39.0285 9.36481ZM31.5468 12.5241C31.5468 12.7591 31.3842 12.9509 31.17 12.9904L31.3513 13.9738C32.0567 13.8437 32.5468 13.2242 32.5468 12.5241H31.5468ZM30.9149 12.0205C31.2517 11.9593 31.5468 12.2144 31.5468 12.5241H32.5468C32.5468 11.558 31.6544 10.8698 30.7361 11.0366L30.9149 12.0205ZM37.5004 8.0203C37.5149 8.2988 37.7462 8.5 38.0058 8.5V7.5C38.2589 7.5 38.4849 7.6963 38.499 7.96827L37.5004 8.0203Z" fill="white" mask="url(#path-4-outside-1)"/>
<mask id="path-6-outside-2" maskUnits="userSpaceOnUse" x="9.00024" y="28.0923" width="32" height="10" fill="black">
<rect fill="white" x="9.00024" y="28.0923" width="32" height="10"/>
<path fill-rule="evenodd" clip-rule="evenodd" d="M38.0797 30.0206C38.0797 29.1987 39.014 28.7421 39.476 29.4219C39.8178 29.9247 40.0002 30.4538 40.0002 31C40.0002 34.3137 33.2845 37 25.0002 37C22.9008 37 20.9021 36.8274 19.0879 36.5159C18.622 36.4359 18.2888 36.0272 18.2888 35.5544C18.2888 34.9219 18.8728 34.4512 19.4965 34.5567C21.1649 34.8389 23.0243 35 25.0002 35C28.9531 35 32.4396 34.3554 34.8641 33.3857C36.0818 32.8985 36.9331 32.3685 37.4473 31.8823C37.8682 31.4842 37.971 31.2111 37.9941 31.0709C37.9976 31.0493 38.0157 31.0325 38.0376 31.0325C38.0609 31.0325 38.0797 31.0137 38.0797 30.9904V30.0206ZM10.0002 31C10.0002 31.1939 10.0232 31.3857 10.0682 31.5749C10.3274 32.6655 11.665 32.1209 11.665 31C11.665 29.879 10.3274 29.3344 10.0682 30.425C10.0232 30.6142 10.0002 30.806 10.0002 31Z"/>
</mask>
<path fill-rule="evenodd" clip-rule="evenodd" d="M38.0797 30.0206C38.0797 29.1987 39.014 28.7421 39.476 29.4219C39.8178 29.9247 40.0002 30.4538 40.0002 31C40.0002 34.3137 33.2845 37 25.0002 37C22.9008 37 20.9021 36.8274 19.0879 36.5159C18.622 36.4359 18.2888 36.0272 18.2888 35.5544C18.2888 34.9219 18.8728 34.4512 19.4965 34.5567C21.1649 34.8389 23.0243 35 25.0002 35C28.9531 35 32.4396 34.3554 34.8641 33.3857C36.0818 32.8985 36.9331 32.3685 37.4473 31.8823C37.8682 31.4842 37.971 31.2111 37.9941 31.0709C37.9976 31.0493 38.0157 31.0325 38.0376 31.0325C38.0609 31.0325 38.0797 31.0137 38.0797 30.9904V30.0206ZM10.0002 31C10.0002 31.1939 10.0232 31.3857 10.0682 31.5749C10.3274 32.6655 11.665 32.1209 11.665 31C11.665 29.879 10.3274 29.3344 10.0682 30.425C10.0232 30.6142 10.0002 30.806 10.0002 31Z" fill="white"/>
<path d="M34.8641 33.3857L34.6784 32.9214L34.8641 33.3857ZM37.4473 31.8823L37.1037 31.519L37.4473 31.8823ZM10.0682 30.425L10.5547 30.5406L10.0682 30.425ZM37.9941 31.0709L38.4874 31.1521L37.9941 31.0709ZM19.0879 36.5159L19.1726 36.0231L19.0879 36.5159ZM39.8895 29.1408C40.2775 29.7115 40.5002 30.3368 40.5002 31H39.5002C39.5002 30.5708 39.3582 30.1379 39.0625 29.703L39.8895 29.1408ZM40.5002 31C40.5002 32.0102 39.9863 32.922 39.165 33.6987C38.3448 34.4744 37.1846 35.15 35.7925 35.7068C33.0056 36.8216 29.1897 37.5 25.0002 37.5V36.5C29.0951 36.5 32.7792 35.8352 35.4212 34.7784C36.7435 34.2494 37.7801 33.6321 38.4779 32.9722C39.1747 32.3132 39.5002 31.6466 39.5002 31H40.5002ZM25.0002 37.5C22.874 37.5 20.8469 37.3253 19.0033 37.0087L19.1726 36.0231C20.9573 36.3296 22.9277 36.5 25.0002 36.5V37.5ZM19.5798 34.0637C21.2195 34.341 23.051 34.5 25.0002 34.5V35.5C22.9977 35.5 21.1103 35.3368 19.4131 35.0497L19.5798 34.0637ZM25.0002 34.5C28.9057 34.5 32.3264 33.8622 34.6784 32.9214L35.0498 33.8499C32.5528 34.8487 29.0004 35.5 25.0002 35.5V34.5ZM34.6784 32.9214C35.8613 32.4482 36.6508 31.9473 37.1037 31.519L37.7908 32.2456C37.2154 32.7897 36.3024 33.3488 35.0498 33.8499L34.6784 32.9214ZM37.1037 31.519C37.2881 31.3447 37.3877 31.2118 37.4409 31.123C37.4932 31.0357 37.5004 30.9914 37.5007 30.9898L38.4874 31.1521C38.4412 31.4332 38.2629 31.7992 37.7908 32.2456L37.1037 31.519ZM37.5797 30.9904V30.0206H38.5797V30.9904H37.5797ZM9.58178 31.6906C9.52802 31.4644 9.50024 31.2338 9.50024 31H10.5002C10.5002 31.154 10.5185 31.307 10.5547 31.4593L9.58178 31.6906ZM9.50024 31C9.50024 30.7661 9.52802 30.5355 9.58178 30.3094L10.5547 30.5406C10.5185 30.6929 10.5002 30.8459 10.5002 31H9.50024ZM11.165 31C11.165 30.6395 10.9518 30.4137 10.7856 30.3503C10.7068 30.3202 10.6686 30.335 10.6591 30.34C10.6549 30.3422 10.5946 30.3728 10.5547 30.5406L9.58178 30.3094C9.6715 29.9319 9.87558 29.6216 10.195 29.4542C10.5092 29.2896 10.8541 29.3061 11.1421 29.416C11.7094 29.6325 12.165 30.2395 12.165 31H11.165ZM10.5547 31.4593C10.5946 31.6271 10.6549 31.6577 10.6591 31.6599C10.6686 31.6649 10.7068 31.6797 10.7856 31.6496C10.9518 31.5862 11.165 31.3605 11.165 31H12.165C12.165 31.7604 11.7094 32.3674 11.1421 32.5839C10.8541 32.6938 10.5092 32.7103 10.195 32.5457C9.87558 32.3783 9.6715 32.068 9.58178 31.6906L10.5547 31.4593ZM38.0376 30.5325C37.7847 30.5325 37.5797 30.7375 37.5797 30.9904H38.5797C38.5797 31.2898 38.337 31.5325 38.0376 31.5325V30.5325ZM17.7888 35.5544C17.7888 34.5971 18.6664 33.9092 19.5798 34.0637L19.4131 35.0497C19.0791 34.9932 18.7888 35.2468 18.7888 35.5544H17.7888ZM37.5007 30.9898C37.5401 30.75 37.7479 30.5325 38.0376 30.5325V31.5325C38.2835 31.5325 38.4551 31.3487 38.4874 31.1521L37.5007 30.9898ZM19.0033 37.0087C18.2891 36.886 17.7888 36.2621 17.7888 35.5544H18.7888C18.7888 35.7922 18.955 35.9858 19.1726 36.0231L19.0033 37.0087ZM39.0625 29.703C39.0084 29.6234 38.9611 29.6033 38.9363 29.5968C38.9071 29.5891 38.8644 29.5893 38.8108 29.6136C38.7 29.6637 38.5797 29.8041 38.5797 30.0206H37.5797C37.5797 29.4151 37.9265 28.9163 38.3984 28.7026C38.6361 28.595 38.9137 28.5571 39.1896 28.6294C39.4699 28.7028 39.7126 28.8805 39.8895 29.1408L39.0625 29.703Z" fill="white" mask="url(#path-6-outside-2)"/>
<mask id="path-8-outside-3" maskUnits="userSpaceOnUse" x="9.00024" y="39.419" width="32" height="9" fill="black">
<rect fill="white" x="9.00024" y="39.419" width="32" height="9"/>
<path fill-rule="evenodd" clip-rule="evenodd" d="M37.9996 41.3817C37.9997 40.1232 39.5043 39.444 39.8817 40.6446C39.9599 40.8934 40.0002 41.147 40.0002 41.4043C40.0002 44.7261 33.2845 47.419 25.0002 47.419C16.716 47.419 10.0002 44.7261 10.0002 41.4043C10.0002 41.1545 10.0382 40.9082 10.112 40.6664C10.482 39.4538 12.0002 40.1365 12.0002 41.4043L12.0002 41.4942C12.0002 41.4974 12.0029 41.5 12.0061 41.5C12.0088 41.5 12.0112 41.5019 12.0118 41.5046C12.0438 41.6538 12.1595 41.9192 12.555 42.2941C13.0693 42.7816 13.9205 43.3128 15.138 43.801C17.562 44.773 21.0479 45.419 25.0002 45.419C28.9526 45.419 32.4385 44.773 34.8625 43.801C36.08 43.3128 36.9312 42.7816 37.4455 42.2941C37.8412 41.9189 37.9568 41.6535 37.9888 41.5043C37.9893 41.5017 37.9915 41.5 37.9941 41.5C37.9971 41.5 37.9996 41.4976 37.9996 41.4946L37.9996 41.427C38.0001 41.4186 38.0002 41.4111 38.0002 41.4043C38.0002 41.3976 38.0001 41.39 37.9996 41.3817Z"/>
</mask>
<path fill-rule="evenodd" clip-rule="evenodd" d="M37.9996 41.3817C37.9997 40.1232 39.5043 39.444 39.8817 40.6446C39.9599 40.8934 40.0002 41.147 40.0002 41.4043C40.0002 44.7261 33.2845 47.419 25.0002 47.419C16.716 47.419 10.0002 44.7261 10.0002 41.4043C10.0002 41.1545 10.0382 40.9082 10.112 40.6664C10.482 39.4538 12.0002 40.1365 12.0002 41.4043L12.0002 41.4942C12.0002 41.4974 12.0029 41.5 12.0061 41.5C12.0088 41.5 12.0112 41.5019 12.0118 41.5046C12.0438 41.6538 12.1595 41.9192 12.555 42.2941C13.0693 42.7816 13.9205 43.3128 15.138 43.801C17.562 44.773 21.0479 45.419 25.0002 45.419C28.9526 45.419 32.4385 44.773 34.8625 43.801C36.08 43.3128 36.9312 42.7816 37.4455 42.2941C37.8412 41.9189 37.9568 41.6535 37.9888 41.5043C37.9893 41.5017 37.9915 41.5 37.9941 41.5C37.9971 41.5 37.9996 41.4976 37.9996 41.4946L37.9996 41.427C38.0001 41.4186 38.0002 41.4111 38.0002 41.4043C38.0002 41.3976 38.0001 41.39 37.9996 41.3817Z" fill="white"/>
<path d="M12.555 42.2941L12.211 42.6569L12.211 42.6569L12.555 42.2941ZM15.138 43.801L14.9519 44.2651L15.138 43.801ZM34.8625 43.801L35.0486 44.2651L34.8625 43.801ZM37.4455 42.2941L37.7895 42.6569L37.4455 42.2941ZM37.9996 41.427L37.5004 41.3983L37.4996 41.4126L37.4996 41.427L37.9996 41.427ZM37.9996 41.4946L37.4996 41.4945L37.9996 41.4946ZM37.9888 41.5043L38.4777 41.6089L37.9888 41.5043ZM12.0118 41.5046L12.5006 41.3997L12.0118 41.5046ZM39.8817 40.6446L40.3587 40.4947L39.8817 40.6446ZM40.5002 41.4043C40.5002 41.094 40.4515 40.7899 40.3587 40.4947L39.4047 40.7945C39.4684 40.9969 39.5002 41.2 39.5002 41.4043L40.5002 41.4043ZM25.0002 47.919C29.1898 47.919 33.0058 47.239 35.7929 46.1214C37.1851 45.5632 38.3452 44.886 39.1655 44.1084C39.9868 43.3297 40.5002 42.4161 40.5002 41.4043L39.5002 41.4043C39.5002 42.0535 39.1742 42.7221 38.4775 43.3826C37.7796 44.0442 36.7431 44.6631 35.4208 45.1933C32.7789 46.2526 29.0949 46.919 25.0002 46.919L25.0002 47.919ZM9.50024 41.4043C9.50024 42.4161 10.0137 43.3297 10.835 44.1084C11.6553 44.886 12.8154 45.5632 14.2076 46.1214C16.9946 47.239 20.8107 47.919 25.0002 47.919L25.0002 46.919C20.9056 46.919 17.2216 46.2526 14.5797 45.1933C13.2574 44.6631 12.2209 44.0442 11.523 43.3826C10.8263 42.7221 10.5002 42.0535 10.5002 41.4043L9.50024 41.4043ZM9.63377 40.5205C9.54615 40.8077 9.50024 41.1031 9.50024 41.4043L10.5002 41.4043C10.5002 41.2059 10.5303 41.0088 10.5902 40.8123L9.63377 40.5205ZM12.5002 41.4942L12.5002 41.4043L11.5002 41.4043L11.5002 41.4942L12.5002 41.4942ZM11.5229 41.6095C11.5824 41.8868 11.7677 42.2367 12.211 42.6569L12.899 41.9312C12.5513 41.6016 12.5052 41.4209 12.5006 41.3997L11.5229 41.6095ZM12.211 42.6569C12.7865 43.2025 13.6995 43.7629 14.9519 44.2651L15.3241 43.3369C14.1415 42.8628 13.3521 42.3607 12.899 41.9312L12.211 42.6569ZM14.9519 44.2651C17.4485 45.2662 21.0005 45.919 25.0002 45.919L25.0002 44.919C21.0954 44.919 17.6754 44.2798 15.3241 43.3369L14.9519 44.2651ZM25.0002 45.919C29 45.919 32.552 45.2662 35.0486 44.2651L34.6764 43.3369C32.325 44.2798 28.9051 44.919 25.0002 44.919L25.0002 45.919ZM35.0486 44.2651C36.301 43.7629 37.214 43.2025 37.7895 42.6569L37.1015 41.9312C36.6484 42.3607 35.859 42.8628 34.6764 43.3369L35.0486 44.2651ZM37.7895 42.6569C38.233 42.2364 38.4183 41.8863 38.4777 41.6089L37.4999 41.3996C37.4954 41.4206 37.4494 41.6014 37.1015 41.9312L37.7895 42.6569ZM37.4996 41.427L37.4996 41.4945L38.4996 41.4946L38.4996 41.427L37.4996 41.427ZM38.4988 41.4557C38.4998 41.4374 38.5002 41.4203 38.5002 41.4043L37.5002 41.4043C37.5002 41.4019 37.5003 41.3999 37.5004 41.3983L38.4988 41.4557ZM38.5002 41.4043C38.5002 41.3884 38.4998 41.3713 38.4988 41.3531L37.5004 41.4104C37.5003 41.4088 37.5002 41.4068 37.5002 41.4043L38.5002 41.4043ZM37.9941 42C38.2733 42 38.4996 41.7737 38.4996 41.4946L37.4996 41.4945C37.4996 41.2214 37.721 41 37.9941 41L37.9941 42ZM38.4777 41.6089C38.4274 41.8439 38.2202 42 37.9941 42L37.9941 41C37.7629 41 37.5512 41.1596 37.4999 41.3996L38.4777 41.6089ZM12.0061 42C11.7798 42 11.5732 41.8437 11.5229 41.6095L12.5006 41.3997C12.4492 41.16 12.2378 41 12.0061 41L12.0061 42ZM11.5002 41.4942C11.5002 41.7735 11.7267 42 12.0061 42L12.0061 41C12.279 41 12.5002 41.2213 12.5002 41.4942L11.5002 41.4942ZM10.5902 40.8123C10.65 40.6164 10.7318 40.5641 10.7668 40.5485C10.8095 40.5294 10.8878 40.5189 11.0024 40.5667C11.2403 40.6659 11.5002 40.9704 11.5002 41.4043L12.5002 41.4043C12.5002 40.5704 12.001 39.8997 11.3873 39.6437C11.0761 39.5139 10.7054 39.4808 10.3594 39.6352C10.0058 39.793 9.75898 40.1101 9.63377 40.5205L10.5902 40.8123ZM38.4996 41.3817C38.4996 40.9522 38.7565 40.6508 38.9921 40.5523C39.1056 40.5048 39.1837 40.5148 39.2269 40.5339C39.2626 40.5496 39.344 40.6014 39.4047 40.7945L40.3587 40.4947C40.2307 40.0874 39.9826 39.774 39.63 39.6187C39.2849 39.4668 38.9161 39.5001 38.6063 39.6297C37.9952 39.8853 37.4996 40.5527 37.4996 41.3817L38.4996 41.3817Z" fill="white" mask="url(#path-8-outside-3)"/>
<mask id="path-10-outside-4" maskUnits="userSpaceOnUse" x="9.00024" y="16.396" width="32" height="10" fill="black">
<rect fill="white" x="9.00024" y="16.396" width="32" height="10"/>
<path fill-rule="evenodd" clip-rule="evenodd" d="M37.9696 19.5516C37.9842 19.5071 38.024 19.4738 38.0708 19.4738C38.1251 19.4738 38.1691 19.4298 38.1691 19.3755L38.1691 18.4733C38.1691 17.6538 39.1055 17.2083 39.5428 17.9014C39.8415 18.3748 40.0002 18.8706 40.0002 19.3813C40.0002 22.7031 33.2845 25.396 25.0002 25.396C16.716 25.396 10.0002 22.7031 10.0002 19.3813C10.0002 18.8716 10.1584 18.3767 10.456 17.9041C10.8922 17.2114 11.8277 17.656 11.8277 18.4746L11.8277 19.3735C11.8277 19.4289 11.8726 19.4738 11.928 19.4738C11.9758 19.4738 12.0164 19.5077 12.0314 19.5531C12.0829 19.7094 12.2164 19.9501 12.555 20.2711C13.0693 20.7586 13.9205 21.2898 15.138 21.778C17.562 22.75 21.0479 23.396 25.0002 23.396C28.9526 23.396 32.4385 22.75 34.8625 21.778C36.08 21.2898 36.9312 20.7586 37.4455 20.2711C37.7852 19.949 37.9185 19.7078 37.9696 19.5516Z"/>
</mask>
<path fill-rule="evenodd" clip-rule="evenodd" d="M37.9696 19.5516C37.9842 19.5071 38.024 19.4738 38.0708 19.4738C38.1251 19.4738 38.1691 19.4298 38.1691 19.3755L38.1691 18.4733C38.1691 17.6538 39.1055 17.2083 39.5428 17.9014C39.8415 18.3748 40.0002 18.8706 40.0002 19.3813C40.0002 22.7031 33.2845 25.396 25.0002 25.396C16.716 25.396 10.0002 22.7031 10.0002 19.3813C10.0002 18.8716 10.1584 18.3767 10.456 17.9041C10.8922 17.2114 11.8277 17.656 11.8277 18.4746L11.8277 19.3735C11.8277 19.4289 11.8726 19.4738 11.928 19.4738C11.9758 19.4738 12.0164 19.5077 12.0314 19.5531C12.0829 19.7094 12.2164 19.9501 12.555 20.2711C13.0693 20.7586 13.9205 21.2898 15.138 21.778C17.562 22.75 21.0479 23.396 25.0002 23.396C28.9526 23.396 32.4385 22.75 34.8625 21.778C36.08 21.2898 36.9312 20.7586 37.4455 20.2711C37.7852 19.949 37.9185 19.7078 37.9696 19.5516Z" fill="white"/>
<path d="M12.555 20.2711L12.211 20.6339L12.211 20.6339L12.555 20.2711ZM15.138 21.778L14.9519 22.2421L15.138 21.778ZM34.8625 21.778L35.0486 22.2421L34.8625 21.778ZM37.4455 20.2711L37.1015 19.9082L37.4455 20.2711ZM12.0314 19.5531L11.5565 19.7096L12.0314 19.5531ZM11.8277 19.3735L12.3277 19.3735L11.8277 19.3735ZM39.5428 17.9014L39.9656 17.6345L39.5428 17.9014ZM10.456 17.9041L10.0329 17.6377L10.456 17.9041ZM11.8277 18.4746L12.3277 18.4746L11.8277 18.4746ZM37.9696 19.5516L38.4448 19.7071L37.9696 19.5516ZM38.1691 19.3755L37.6691 19.3755L38.1691 19.3755ZM37.6691 18.4733L37.6691 19.3755L38.6691 19.3755L38.6691 18.4733L37.6691 18.4733ZM40.5002 19.3813C40.5002 18.7622 40.3068 18.1752 39.9656 17.6345L39.1199 18.1682C39.3763 18.5744 39.5002 18.979 39.5002 19.3813L40.5002 19.3813ZM25.0002 25.896C29.1898 25.896 33.0058 25.216 35.7929 24.0984C37.1851 23.5402 38.3452 22.863 39.1655 22.0854C39.9868 21.3067 40.5002 20.3931 40.5002 19.3813L39.5002 19.3813C39.5002 20.0304 39.1742 20.6991 38.4775 21.3596C37.7796 22.0212 36.7431 22.64 35.4208 23.1703C32.7789 24.2296 29.0949 24.896 25.0002 24.896L25.0002 25.896ZM9.50024 19.3813C9.50024 20.3931 10.0137 21.3067 10.835 22.0854C11.6553 22.8629 12.8154 23.5402 14.2076 24.0984C16.9946 25.216 20.8107 25.896 25.0002 25.896L25.0002 24.896C20.9056 24.896 17.2216 24.2296 14.5797 23.1703C13.2574 22.64 12.2209 22.0212 11.523 21.3596C10.8263 20.6991 10.5002 20.0304 10.5002 19.3813L9.50024 19.3813ZM10.0329 17.6377C9.69297 18.1774 9.50024 18.7634 9.50024 19.3813L10.5002 19.3813C10.5002 18.9798 10.6237 18.576 10.8791 18.1705L10.0329 17.6377ZM12.3277 19.3735L12.3277 18.4746L11.3277 18.4746L11.3277 19.3735L12.3277 19.3735ZM11.5565 19.7096C11.641 19.9661 11.8315 20.2741 12.211 20.6339L12.899 19.9082C12.6013 19.626 12.5247 19.4527 12.5062 19.3966L11.5565 19.7096ZM12.211 20.6339C12.7865 21.1795 13.6995 21.7399 14.9519 22.2421L15.3241 21.3139C14.1415 20.8397 13.3521 20.3377 12.899 19.9082L12.211 20.6339ZM14.9519 22.2421C17.4485 23.2432 21.0005 23.896 25.0002 23.896L25.0002 22.896C21.0954 22.896 17.6754 22.2568 15.3241 21.3139L14.9519 22.2421ZM25.0002 23.896C29 23.896 32.552 23.2432 35.0486 22.2421L34.6764 21.3139C32.325 22.2568 28.9051 22.896 25.0002 22.896L25.0002 23.896ZM35.0486 22.2421C36.301 21.7399 37.214 21.1795 37.7895 20.6339L37.1015 19.9082C36.6484 20.3377 35.859 20.8397 34.6764 21.3139L35.0486 22.2421ZM37.7895 20.6339C38.1703 20.2729 38.3607 19.9641 38.4448 19.7071L37.4944 19.396C37.4763 19.4515 37.4001 19.6251 37.1015 19.9082L37.7895 20.6339ZM11.928 19.9738C11.7278 19.9738 11.5985 19.837 11.5565 19.7096L12.5062 19.3966C12.4343 19.1785 12.2237 18.9738 11.928 18.9738L11.928 19.9738ZM11.3277 19.3735C11.3277 19.705 11.5964 19.9738 11.928 19.9738L11.928 18.9738C12.1487 18.9738 12.3277 19.1528 12.3277 19.3735L11.3277 19.3735ZM38.6691 18.4733C38.6691 18.2589 38.7887 18.1238 38.8935 18.0777C38.944 18.0555 38.9818 18.0568 39.0056 18.0637C39.0249 18.0692 39.0691 18.0876 39.1199 18.1682L39.9656 17.6345C39.7978 17.3686 39.561 17.1828 39.2817 17.1025C39.007 17.0236 38.7287 17.0576 38.4904 17.1625C38.0177 17.3707 37.6691 17.8681 37.6691 18.4733L38.6691 18.4733ZM10.8791 18.1705C10.9297 18.0901 10.9737 18.0718 10.9928 18.0663C11.0163 18.0596 11.0538 18.0582 11.104 18.0803C11.2084 18.1262 11.3277 18.2608 11.3277 18.4746L12.3277 18.4746C12.3277 17.8699 11.9792 17.3728 11.5068 17.165C11.2686 17.0602 10.9905 17.0263 10.7159 17.1054C10.4369 17.1858 10.2004 17.3717 10.0329 17.6377L10.8791 18.1705ZM38.0708 18.9738C37.776 18.9738 37.5658 19.1779 37.4944 19.396L38.4448 19.7071C38.4026 19.8362 38.272 19.9738 38.0708 19.9738L38.0708 18.9738ZM38.0708 19.9738C38.4013 19.9738 38.6691 19.7059 38.6691 19.3755L37.6691 19.3755C37.6691 19.1537 37.849 18.9738 38.0708 18.9738L38.0708 19.9738Z" fill="white" mask="url(#path-10-outside-4)"/>
<circle cx="15.9895" cy="17.7876" r="1.41735" fill="white" stroke="white" stroke-width="0.5"/>
<circle cx="15.9895" cy="29.6319" r="1.41735" fill="white" stroke="white" stroke-width="0.5"/>
<circle cx="15.9895" cy="40.1808" r="1.41735" fill="white" stroke="white" stroke-width="0.5"/>
</g>
<defs>
<clipPath id="clip0">
<rect x="48" y="48" width="48" height="48" transform="rotate(-180 48 48)" fill="white"/>
</clipPath>
</defs>
</svg>
