<svg width="48" height="48" viewBox="0 0 48 48" fill="none" xmlns="http://www.w3.org/2000/svg">
<g clip-path="url(#clip0)">
<mask id="mask0" mask-type="alpha" maskUnits="userSpaceOnUse" x="1" y="1" width="48" height="47">
<path d="M30.9324 27.8582C32.8127 28.6886 35.0389 28.9351 37.2997 28.4047C41.8961 27.3263 47.0805 20.0581 48.1332 18.5791C48.7859 17.7065 48.4681 16.3519 47.4954 15.8606C45.8948 15.004 37.9161 10.8241 33.4225 11.8783C31.1617 12.4087 29.268 13.6218 27.9625 15.1995C24.0636 5.9326 17.1462 0.311011 10.7094 1.82115C4.48753 3.28087 0.671461 11.0461 1.182 21.0784C1.23568 22.1895 2.1456 23.001 3.25664 22.9474C4.36768 22.8937 5.17927 21.9838 5.12559 20.8727C4.68791 12.8734 7.414 6.596 11.5993 5.61408C17.0458 4.33628 23.7591 11.9869 26.1766 22.2913C28.5941 32.5958 25.9839 42.4338 20.5374 43.7116C16.2586 44.7154 11.0011 40.2026 7.81354 32.7499C7.36749 31.7309 6.2359 31.2769 5.21692 31.7229C3.61861 32.4725 4.14392 34.1234 4.28336 34.2976C8.30981 43.6037 15.2053 48.9643 21.4272 47.5045C27.864 45.9944 31.5594 37.8829 30.9324 27.8582ZM43.3289 18.2672C41.1776 21.0291 38.1475 24.2041 36.3164 24.6336C33.4577 25.3043 30.635 23.8179 30.063 21.3796C29.4909 18.9412 31.358 16.3545 34.2167 15.6838C36.0478 15.2542 40.071 16.7744 43.3289 18.2672Z" fill="black"/>
</mask>
<g mask="url(#mask0)">
<path d="M23.7523 7.85477L22.8302 1.64023L19.6946 -0.303655L12.2258 -0.15912C8.95867 1.14329 2.32279 3.77195 1.91643 3.86728L-2.14714 4.82064C-2.4669 6.50338 -3.08257 9.97043 -2.98724 10.3768C-2.8919 10.7831 -2.13614 18.573 -1.77017 22.4171C-1.01543 25.6341 0.690975 32.4506 1.47868 33.9807C2.4633 35.8933 4.48919 44.5284 5.35464 45.9331C6.04701 47.0568 9.82391 48.9932 11.6258 49.8209L22.6189 50.9931C24.2222 50.9742 28.5466 48.1034 30.4258 36.2998C32.3755 24.0524 28.4683 14.251 23.7523 7.85477Z" fill="white"/>
</g>
<mask id="mask1" mask-type="alpha" maskUnits="userSpaceOnUse" x="9" y="0" width="48" height="47">
<path d="M36.8562 29.9843C38.4971 31.2221 40.6082 31.9706 42.9304 31.9706C47.6516 31.9706 54.3591 26.0787 55.7217 24.8792C56.5565 24.1788 56.5565 22.7874 55.7217 22.0869C54.3591 20.8874 47.546 14.9955 42.9304 14.9955C40.6082 14.9955 38.4875 15.744 36.8562 16.9819C35.177 7.06932 29.7265 0.0163563 23.1149 0.016356C16.7241 0.0163557 11.2353 6.70468 9.44083 16.5884C9.23931 17.6824 9.93981 18.6803 11.0337 18.8818C12.1277 19.0833 13.1256 18.3828 13.3272 17.2889C14.7282 9.40112 18.816 3.91228 23.1149 3.91228C28.7093 3.91228 33.4977 12.894 33.4977 23.4783C33.4977 34.0625 28.7093 43.0442 23.1149 43.0442C18.72 43.0442 14.6322 37.4498 13.2312 29.4661C13.0297 28.3721 12.0317 27.6716 10.9378 27.8732C9.21053 28.2378 9.34487 29.9651 9.44083 30.1666C11.2353 40.1463 16.7241 46.9402 23.1149 46.9402C29.7265 46.9402 35.177 39.8872 36.8562 29.9843ZM51.1157 23.4783C48.3905 25.6757 44.7152 28.0747 42.8345 28.0747C39.8981 28.0747 37.4896 25.9828 37.4896 23.4783C37.4896 20.9737 39.8981 18.8818 42.8345 18.8818C44.7152 18.8818 48.2849 21.2808 51.1157 23.4783Z" fill="black"/>
<path d="M36.8562 29.9843C38.4971 31.2221 40.6082 31.9706 42.9304 31.9706C47.6516 31.9706 54.3591 26.0787 55.7217 24.8792C56.5565 24.1788 56.5565 22.7874 55.7217 22.0869C54.3591 20.8874 47.546 14.9955 42.9304 14.9955C40.6082 14.9955 38.4875 15.744 36.8562 16.9819C35.177 7.06932 29.7265 0.0163563 23.1149 0.016356C16.7241 0.0163557 11.2353 6.70468 9.44083 16.5884C9.23931 17.6824 9.93981 18.6803 11.0337 18.8818C12.1277 19.0833 13.1256 18.3828 13.3272 17.2889C14.7282 9.40112 18.816 3.91228 23.1149 3.91228C28.7093 3.91228 33.4977 12.894 33.4977 23.4783C33.4977 34.0625 28.7093 43.0442 23.1149 43.0442C18.72 43.0442 14.6322 37.4498 13.2312 29.4661C13.0297 28.3721 12.0317 27.6716 10.9378 27.8732C9.21053 28.2378 9.34487 29.9651 9.44083 30.1666C11.2353 40.1463 16.7241 46.9402 23.1149 46.9402C29.7265 46.9402 35.177 39.8872 36.8562 29.9843ZM51.1157 23.4783C48.3905 25.6757 44.7152 28.0747 42.8345 28.0747C39.8981 28.0747 37.4896 25.9828 37.4896 23.4783C37.4896 20.9737 39.8981 18.8818 42.8345 18.8818C44.7152 18.8818 48.2849 21.2808 51.1157 23.4783Z" stroke="#BBBBBB"/>
</mask>
<g mask="url(#mask1)">
<path d="M34.4348 8.8696L34.9565 2.60873L32.3479 3.16081e-05L25.0435 -1.56519C21.5652 -1.04345 14.5044 3.08282e-05 14.087 3.08099e-05L9.91307 3.06275e-05C9.21741 1.56525 7.82611 4.80003 7.82611 5.21742C7.82611 5.63481 6.78263 13.3913 6.26089 17.2174C6.26089 20.5218 6.36524 27.5479 6.78263 29.2174C7.30437 31.3044 7.30437 40.1739 7.82611 41.7392C8.2435 42.9913 11.4783 45.7392 13.0435 46.9566L23.4783 50.6087C25.0435 50.9566 29.9093 49.1494 34.4348 38.087C39.1305 26.6087 37.5652 16.1739 34.4348 8.8696Z" fill="white"/>
</g>
<mask id="mask2" mask-type="alpha" maskUnits="userSpaceOnUse" x="15" y="1" width="49" height="47">
<path d="M42.599 33.8433C43.9204 35.4177 45.8097 36.6208 48.0727 37.1418C52.6735 38.201 60.5319 33.9642 62.1289 33.101C63.0996 32.6057 63.4118 31.2498 62.7554 30.3798C61.6966 28.9052 56.3791 21.635 51.8812 20.5994C49.6182 20.0784 47.3837 20.332 45.5162 21.1724C46.1037 11.1358 42.3746 3.03975 35.9316 1.5564C29.7036 0.122561 22.8542 5.40891 18.888 14.6381C18.4462 15.6589 18.9049 16.7886 19.9257 17.2304C20.9466 17.6722 22.0763 17.2135 22.5181 16.1927C25.653 8.82027 30.8681 4.3885 35.0575 5.353C40.5093 6.60815 43.1604 16.4352 40.7858 26.7496C38.4111 37.064 31.7297 44.7425 26.2779 43.4874C21.9951 42.5013 19.2666 36.1324 19.6925 28.0379C19.7416 26.9266 18.9262 26.0201 17.815 25.971C16.0499 25.9388 15.7933 27.6522 15.8416 27.8701C15.3513 37.998 19.1759 45.8501 25.4039 47.284C31.8469 48.7673 38.7408 43.117 42.599 33.8433ZM57.9546 30.7024C54.8059 32.2324 50.6861 33.7456 48.8533 33.3236C45.9918 32.6649 44.114 30.0859 44.6759 27.6452C45.2378 25.2046 48.0543 23.7064 50.9158 24.3652C52.7486 24.7871 55.689 27.9258 57.9546 30.7024Z" fill="black"/>
<path d="M42.599 33.8433C43.9204 35.4177 45.8097 36.6208 48.0727 37.1418C52.6735 38.201 60.5319 33.9642 62.1289 33.101C63.0996 32.6057 63.4118 31.2498 62.7554 30.3798C61.6966 28.9052 56.3791 21.635 51.8812 20.5994C49.6182 20.0784 47.3837 20.332 45.5162 21.1724C46.1037 11.1358 42.3746 3.03975 35.9316 1.5564C29.7036 0.122561 22.8542 5.40891 18.888 14.6381C18.4462 15.6589 18.9049 16.7886 19.9257 17.2304C20.9466 17.6722 22.0763 17.2135 22.5181 16.1927C25.653 8.82027 30.8681 4.3885 35.0575 5.353C40.5093 6.60815 43.1604 16.4352 40.7858 26.7496C38.4111 37.064 31.7297 44.7425 26.2779 43.4874C21.9951 42.5013 19.2666 36.1324 19.6925 28.0379C19.7416 26.9266 18.9262 26.0201 17.815 25.971C16.0499 25.9388 15.7933 27.6522 15.8416 27.8701C15.3513 37.998 19.1759 45.8501 25.4039 47.284C31.8469 48.7673 38.7408 43.117 42.599 33.8433ZM57.9546 30.7024C54.8059 32.2324 50.6861 33.7456 48.8533 33.3236C45.9918 32.6649 44.114 30.0859 44.6759 27.6452C45.2378 25.2046 48.0543 23.7064 50.9158 24.3652C52.7486 24.7871 55.689 27.9258 57.9546 30.7024Z" stroke="#BBBBBB"/>
</mask>
<g mask="url(#mask2)">
<path d="M44.9765 12.7237L46.8897 6.73951L44.9327 3.61204L38.1658 0.447938C34.6591 0.176003 27.5442 -0.39128 27.1374 -0.484925L23.0699 -1.42137C22.0408 -0.0521341 19.9592 2.78803 19.8656 3.19478C19.7719 3.60154 17.0148 10.9262 15.648 14.5377C14.9066 17.7578 13.432 24.6282 13.4641 26.3488C13.5043 28.4996 11.5144 37.1431 11.6717 38.7855C11.7975 40.0994 14.3333 43.5029 15.5855 45.0404L24.9348 50.9406C26.3821 51.6307 31.5293 50.9613 38.4214 41.1963C45.5726 31.0641 46.3884 20.5442 44.9765 12.7237Z" fill="white"/>
</g>
</g>
<defs>
<clipPath id="clip0">
<rect x="48" y="48" width="48" height="48" transform="rotate(-180 48 48)" fill="white"/>
</clipPath>
</defs>
</svg>
