<svg width="48" height="48" viewBox="0 0 48 48" fill="none" xmlns="http://www.w3.org/2000/svg">
<g clip-path="url(#clip0)">
<path d="M12.75 12.6562C12.75 13.4329 13.3796 14.0625 14.1562 14.0625H15.5625V39.5625C15.5625 44.2149 19.3476 48 24 48C28.6524 48 32.4375 44.2149 32.4375 39.5625V14.0625H33.8438C34.6204 14.0625 35.25 13.4329 35.25 12.6562C35.25 11.8796 34.6204 11.25 33.8438 11.25H14.1562C13.3796 11.25 12.75 11.8796 12.75 12.6562ZM29.625 39.5625C29.625 42.6641 27.1016 45.1875 24 45.1875C20.8984 45.1875 18.375 42.6641 18.375 39.5625H22.5938C23.3704 39.5625 24 38.9329 24 38.1562C24 37.3796 23.3704 36.75 22.5938 36.75H18.375V33.9375H22.5938C23.3704 33.9375 24 33.3079 24 32.5312C24 31.7546 23.3704 31.125 22.5938 31.125H18.375V28.3125H22.5938C23.3704 28.3125 24 27.6829 24 26.9062C24 26.1296 23.3704 25.5 22.5938 25.5H18.375V22.6875H22.5938C23.3704 22.6875 24 22.0579 24 21.2812C24 20.5046 23.3704 19.875 22.5938 19.875H18.375V14.0625H29.625V39.5625Z" fill="white"/>
<path d="M29.625 4.21875C29.625 1.89253 27.7325 0 25.4062 0C23.08 0 21.1875 1.89253 21.1875 4.21875C21.1875 6.54497 23.08 8.4375 25.4062 8.4375C27.7325 8.4375 29.625 6.54497 29.625 4.21875ZM24 4.21875C24 3.44334 24.6308 2.8125 25.4062 2.8125C26.1817 2.8125 26.8125 3.44334 26.8125 4.21875C26.8125 4.99416 26.1817 5.625 25.4062 5.625C24.6308 5.625 24 4.99416 24 4.21875Z" fill="white"/>
<path d="M16.9688 8.4375C17.7454 8.4375 18.375 7.8079 18.375 7.03125C18.375 6.2546 17.7454 5.625 16.9688 5.625C16.1921 5.625 15.5625 6.2546 15.5625 7.03125C15.5625 7.8079 16.1921 8.4375 16.9688 8.4375Z" fill="white"/>
</g>
<defs>
<clipPath id="clip0">
<rect x="48" y="48" width="48" height="48" transform="rotate(-180 48 48)" fill="white"/>
</clipPath>
</defs>
</svg>
