<svg width="48" height="48" viewBox="0 0 48 48" fill="none" xmlns="http://www.w3.org/2000/svg">
<g clip-path="url(#clip0)">
<path d="M46.6013 1.39861C45.6129 0.41021 44.2465 -0.0936954 42.8546 0.0144919C38.9834 0.316741 35.1835 1.22621 31.5605 2.71758C28.1337 4.12805 24.8055 6.08395 21.7361 8.62297C19.8902 10.15 18.2102 11.8254 16.7061 13.6272C12.0372 13.9338 7.59641 15.9825 4.13161 19.4474C2.49239 21.0866 1.15355 22.9856 0.152114 25.0917C-0.133073 25.6916 -0.00988553 26.4062 0.459801 26.8758C0.760926 27.1769 1.16255 27.3356 1.57017 27.3356C1.79845 27.3356 2.02861 27.2858 2.24386 27.1835C4.70132 26.015 7.38463 25.4879 9.96716 25.6457C9.7821 26.1929 9.60885 26.7453 9.44844 27.3029L4.43386 30.3116C3.55786 30.8372 3.41067 32.0469 4.13151 32.7678L6.44742 35.0837C5.71842 36.0374 4.82901 37.3389 4.07404 38.6403C3.40195 39.7989 2.9213 40.809 2.6453 41.6424C2.15677 43.1178 2.28333 44.2403 3.02142 44.9783C3.89395 45.8508 5.17682 45.7455 6.35732 45.3544C7.19066 45.0784 8.20072 44.5978 9.35938 43.9257C10.6608 43.1708 11.9622 42.2814 12.9161 41.5524L15.232 43.8683C15.9508 44.5872 17.1605 44.4452 17.6881 43.566L20.6968 38.5514C21.2544 38.3911 21.8068 38.2177 22.3541 38.0327C22.5118 40.6151 21.9847 43.2984 20.8164 45.756C20.5311 46.3559 20.6544 47.0704 21.124 47.5401C21.5938 48.0098 22.3081 48.133 22.9082 47.8478C25.0144 46.8464 26.9134 45.5074 28.5525 43.8683C32.0172 40.4036 34.0661 35.9627 34.3727 31.2938C36.1745 29.7898 37.8499 28.1097 39.3769 26.2638C41.916 23.1945 43.8717 19.8665 45.2823 16.4396C46.7737 12.8166 47.6831 9.01672 47.9854 5.14551C48.0942 3.75267 47.5896 2.38692 46.6013 1.39861ZM5.25107 22.8786C5.59776 22.4583 5.96479 22.0543 6.35179 21.6674C8.55144 19.4678 11.208 17.9447 14.0535 17.216C12.9397 18.9273 11.9681 20.7265 11.1468 22.6004C9.20807 22.3718 7.21073 22.4685 5.25107 22.8786ZM8.38288 40.8524C7.18363 41.5881 6.34195 41.9974 5.77485 42.2252C6.00248 41.6581 6.41188 40.8164 7.14763 39.6171C7.67451 38.7583 8.22463 37.9564 8.68954 37.3256L10.6744 39.3105C10.0436 39.7754 9.24163 40.3256 8.38288 40.8524ZM16.0305 40.2264L7.7736 31.9695L10.5487 30.3044L17.6956 37.4513L16.0305 40.2264ZM25.1213 42.7487C25.5315 40.7892 25.6282 38.7917 25.3995 36.8532C27.2734 36.0319 29.0726 35.0603 30.7838 33.9465C29.8987 37.4028 27.8498 40.4984 25.1213 42.7487ZM20.131 35.4465L12.5534 27.8691C15.0675 19.416 20.7245 12.2183 28.3778 7.75316L40.2467 19.6221C35.8891 27.0915 28.7811 32.8738 20.131 35.4465ZM44.8553 4.90101C44.5302 9.06557 43.4598 13.0485 41.7686 16.7039L31.2961 6.23142C34.9515 4.54026 38.9344 3.46983 43.099 3.1447C43.5824 3.10664 44.0377 3.2753 44.3812 3.6187C44.7247 3.9622 44.8931 4.41754 44.8553 4.90101Z" fill="white"/>
<path d="M31.8837 16.1171C29.4324 13.6657 25.4547 13.6655 23.0033 16.1171C20.5551 18.5654 20.5551 22.549 23.0033 24.9974C25.4515 27.4458 29.4353 27.4459 31.8837 24.9974C34.332 22.5491 34.332 18.5653 31.8837 16.1171ZM29.6636 22.7773C28.4394 24.0014 26.4476 24.0014 25.2233 22.7773C23.9991 21.5531 23.9991 19.5613 25.2233 18.3371C26.4476 17.1127 28.4391 17.1127 29.6635 18.3371C30.8877 19.5612 30.8877 21.5532 29.6636 22.7773Z" fill="white"/>
</g>
<defs>
<clipPath id="clip0">
<rect x="48" y="48" width="48" height="48" transform="rotate(-180 48 48)" fill="white"/>
</clipPath>
</defs>
</svg>
