<svg width="48" height="48" viewBox="0 0 48 48" fill="none" xmlns="http://www.w3.org/2000/svg">
<g clip-path="url(#clip0)">
<path d="M24 0C10.7662 0 0 10.7662 0 24C0 37.2338 10.7662 48 24 48C37.2338 48 48 37.2338 48 24C48 10.7662 37.2338 0 24 0ZM22.5938 11.7803C20.4543 11.6884 18.3365 11.3877 16.3143 10.8988C16.6373 10.1334 16.9878 9.39844 17.3657 8.7019C18.9163 5.84473 20.8198 3.83972 22.5938 3.11353V11.7803ZM22.5938 14.595V22.5938H13.8102C13.934 19.4718 14.4661 16.3726 15.3461 13.5535C17.6781 14.1409 20.1262 14.4965 22.5938 14.595ZM22.5938 25.4062V33.405C20.1262 33.5035 17.6781 33.8591 15.3461 34.4465C14.4661 31.6274 13.934 28.5282 13.8102 25.4062H22.5938ZM22.5938 36.2197V44.8865C20.8198 44.1603 18.9163 42.1553 17.3657 39.2981C16.9878 38.6016 16.6373 37.8666 16.3143 37.1012C18.3365 36.6123 20.454 36.3116 22.5938 36.2197ZM25.4062 36.2197C27.5457 36.3116 29.6635 36.6123 31.6857 37.1012C31.3627 37.8666 31.0122 38.6016 30.6343 39.2981C29.0837 42.1553 27.1802 44.1603 25.4062 44.8865V36.2197ZM25.4062 33.405V25.4062H34.1898C34.066 28.5282 33.5339 31.6274 32.6539 34.4465C30.3219 33.8591 27.8738 33.5035 25.4062 33.405ZM25.4062 22.5938V14.595C27.8738 14.4965 30.3219 14.1409 32.6539 13.5535C33.5339 16.3726 34.066 19.4718 34.1898 22.5938H25.4062ZM25.4062 11.7803V3.11353C27.1802 3.83972 29.0837 5.84473 30.6343 8.7019C31.0122 9.39844 31.3627 10.1334 31.6857 10.8988C29.6635 11.3877 27.5457 11.6884 25.4062 11.7803ZM33.1062 7.36047C32.402 6.06262 31.637 4.91858 30.8306 3.94263C33.6423 4.90283 36.1893 6.43909 38.3313 8.4093C37.1096 9.06372 35.7931 9.63208 34.4081 10.1071C34.0151 9.15271 33.5808 8.23462 33.1062 7.36047ZM14.8938 7.36047C14.4192 8.23462 13.9849 9.15271 13.5919 10.1071C12.2069 9.63208 10.8904 9.06335 9.6687 8.4093C11.8107 6.43909 14.3577 4.90283 17.1694 3.94263C16.363 4.91858 15.5984 6.06226 14.8938 7.36047ZM12.6405 12.7504C11.6807 15.821 11.1163 19.1686 10.9948 22.5938H2.86047C3.1615 18.0231 4.91675 13.8431 7.66919 10.5157C9.19666 11.3917 10.8695 12.141 12.6405 12.7504ZM10.9948 25.4062C11.1163 28.8318 11.6807 32.179 12.6405 35.2496C10.8695 35.859 9.19666 36.6083 7.66919 37.4843C4.91675 34.1569 3.1615 29.9769 2.86047 25.4062H10.9948ZM13.5919 37.8929C13.9849 38.8473 14.4192 39.7654 14.8938 40.6395C15.5984 41.9374 16.363 43.0814 17.1694 44.0574C14.3577 43.0972 11.8107 41.5609 9.66907 39.5907C10.89 38.9366 12.2069 38.3679 13.5919 37.8929ZM33.1062 40.6395C33.5808 39.7654 34.0151 38.8473 34.4081 37.8929C35.7931 38.3679 37.1096 38.9366 38.3313 39.5907C36.1893 41.5609 33.6423 43.0972 30.8306 44.0574C31.637 43.0814 32.4016 41.9377 33.1062 40.6395ZM35.3595 35.2496C36.3193 32.179 36.8837 28.8314 37.0052 25.4062H45.1395C44.8385 29.9769 43.0833 34.1569 40.3308 37.4843C38.8033 36.6083 37.1305 35.859 35.3595 35.2496ZM37.0052 22.5938C36.8837 19.1682 36.3193 15.821 35.3595 12.7504C37.1305 12.141 38.8033 11.3917 40.3308 10.5157C43.0833 13.8431 44.8385 18.0231 45.1395 22.5938H37.0052Z" fill="white"/>
</g>
<defs>
<clipPath id="clip0">
<rect x="48" y="48" width="48" height="48" transform="rotate(-180 48 48)" fill="white"/>
</clipPath>
</defs>
</svg>
