<svg width="48" height="48" viewBox="0 0 48 48" fill="none" xmlns="http://www.w3.org/2000/svg">
<g clip-path="url(#clip0)">
<path d="M25.95 2.25L25.95 5.25C25.95 6.32697 25.077 7.2 24 7.2C22.923 7.2 22.05 6.32697 22.05 5.25L22.05 2.25C22.05 1.17303 22.923 0.3 24 0.3C25.077 0.3 25.95 1.17303 25.95 2.25Z" fill="white" stroke="#0F0F0F" stroke-width="0.6"/>
<path d="M40.7586 9.99934C40.7586 9.99933 40.7586 9.99933 40.7586 9.99932C41.5201 9.23776 41.5201 8.00318 40.7586 7.24162C40.3777 6.86073 39.8793 6.67043 39.3797 6.67043C38.8803 6.67043 38.3817 6.8608 38.0008 7.24153L38.0008 7.24157M40.7586 9.99934L37.7887 7.0294L38.0008 7.24157M40.7586 9.99934L38.6372 12.1206C38.6372 12.1206 38.6372 12.1206 38.6372 12.1206M40.7586 9.99934L38.6372 12.1206M38.0008 7.24157L35.8794 9.3628M38.0008 7.24157L35.8794 9.3628M35.8794 9.3628C35.8794 9.3628 35.8794 9.36281 35.8794 9.36281C35.118 10.1244 35.118 11.359 35.8794 12.1205C36.6409 12.8821 37.8756 12.8821 38.6372 12.1206M35.8794 9.3628L38.6372 12.1206" fill="white" stroke="#0F0F0F" stroke-width="0.6"/>
<path d="M10.0003 7.24173L10.0003 7.24172C9.6194 6.86085 9.12099 6.67062 8.62137 6.67062C8.12179 6.67062 7.62337 6.86092 7.24248 7.24182C6.48101 8.00338 6.48101 9.23796 7.24247 9.99952L10.0003 7.24173ZM10.0003 7.24173L12.1216 9.36301C12.1216 9.36301 12.1216 9.36301 12.1217 9.36301C12.8831 10.1245 12.8831 11.3591 12.1216 12.1208L10.0003 7.24173ZM9.36384 12.1208L7.24249 9.99954L12.1215 12.1208C11.36 12.8824 10.1254 12.8823 9.36385 12.1208C9.36384 12.1208 9.36384 12.1208 9.36384 12.1208Z" fill="white" stroke="#0F0F0F" stroke-width="0.6"/>
<path d="M32.0663 34.4476L31.95 34.5377L31.95 34.6848L31.95 43.875C31.95 45.9839 30.2339 47.7 28.125 47.7L19.875 47.7C17.7661 47.7 16.05 45.9839 16.05 43.875L16.05 34.6848L16.05 34.5377L15.9337 34.4476C12.7305 31.9673 10.8 28.105 10.8 24C10.8 16.7218 16.7217 10.8 24 10.8C31.2783 10.8 37.2 16.7218 37.2 24C37.2 28.105 35.2695 31.9672 32.0663 34.4476ZM28.9758 31.8L29.0665 31.8L29.142 31.7498C31.7206 30.034 33.3 27.1173 33.3 24C33.3 18.8717 29.1283 14.7 24 14.7C18.8717 14.7 14.7 18.8717 14.7 24C14.7 27.1173 16.2794 30.034 18.858 31.7498L18.9335 31.8L19.0242 31.8L28.9758 31.8ZM27.75 43.8L28.05 43.8L28.05 43.5L28.05 36L28.05 35.7L27.75 35.7L20.25 35.7L19.95 35.7L19.95 36L19.95 43.5L19.95 43.8L20.25 43.8L27.75 43.8Z" fill="white" stroke="#0F0F0F" stroke-width="0.6"/>
</g>
<defs>
<clipPath id="clip0">
<rect x="48" y="48" width="48" height="48" transform="rotate(-180 48 48)" fill="white"/>
</clipPath>
</defs>
</svg>
