<svg width="140" height="26" viewBox="0 0 140 26" fill="none" xmlns="http://www.w3.org/2000/svg">
<path fill-rule="evenodd" clip-rule="evenodd" d="M29.4518 9.92613L27.8635 11.4769C27.0085 12.3115 27.0034 13.6703 27.8518 14.5114C27.8558 14.5151 27.8596 14.519 27.8635 14.523L29.4518 16.0735C30.3069 16.9081 30.312 18.2669 29.4635 19.108C29.4596 19.112 29.4556 19.1157 29.4518 19.1196L24.0286 24.4142C23.1782 25.2445 21.8061 25.2445 20.9557 24.4142L10.8244 14.523C9.9694 13.6881 9.96409 12.3296 10.8127 11.4884C10.8165 11.4845 10.8205 11.4806 10.8244 11.4769L20.9557 1.58561C21.8061 0.755318 23.1782 0.755318 24.0286 1.58561L29.4518 6.88007C30.3069 7.71493 30.312 9.07344 29.4635 9.91461C29.4596 9.91852 29.4556 9.92244 29.4518 9.92613Z" fill="white"/>
<path fill-rule="evenodd" clip-rule="evenodd" d="M10.3041 9.67303L8.71581 11.2236C7.86098 12.0584 7.85568 13.4169 8.70409 14.2581C8.70807 14.262 8.71205 14.2659 8.71581 14.2696L10.3041 15.8202C11.1592 16.655 11.1645 18.0138 10.3158 18.8547C10.3118 18.8586 10.3081 18.8625 10.3041 18.8665L9.36505 19.7833C8.51443 20.6136 7.14255 20.6136 6.29207 19.7833L0.644743 14.2696C-0.210306 13.435 -0.215568 12.0763 0.633005 11.2351C0.636896 11.2312 0.640809 11.2275 0.644743 11.2236L6.29207 5.71012C7.14255 4.87983 8.51443 4.87983 9.36505 5.71012L10.3041 6.62696C11.1592 7.46182 11.1645 8.82034 10.3158 9.6615C10.3118 9.66541 10.3081 9.66933 10.3041 9.67303Z" fill="white"/>
<path fill-rule="evenodd" clip-rule="evenodd" d="M38.7088 5.71012L44.3559 11.2236C45.2109 12.0584 45.2163 13.4169 44.3678 14.2581C44.3639 14.262 44.3599 14.2659 44.3559 14.2696L38.7088 19.7833C37.8581 20.6136 36.4863 20.6136 35.6359 19.7833L29.9885 14.2696C29.1335 13.435 29.1282 12.0763 29.9768 11.2351C29.9805 11.2314 29.9845 11.2275 29.9885 11.2236L35.6359 5.71012C36.4863 4.87983 37.8581 4.87983 38.7088 5.71012Z" fill="white"/>
<path d="M57.8788 1.36471C58.6489 1.36471 59.3572 1.5559 60.0035 1.93829C60.6498 2.30749 61.1655 2.81513 61.5506 3.46123C61.9356 4.09414 62.1281 4.81276 62.1281 5.61708C62.1281 6.40822 61.9356 7.13343 61.5506 7.79271C61.1655 8.4388 60.6498 8.95304 60.0035 9.33543C59.3572 9.71781 58.6489 9.909 57.8788 9.909H54.2278V15.2096H52V1.36471H57.8788ZM57.8376 7.85204C58.2089 7.85204 58.5458 7.75315 58.8483 7.55537C59.1509 7.3444 59.3915 7.07409 59.5703 6.74445C59.7628 6.40162 59.8591 6.02583 59.8591 5.61708C59.8591 4.99735 59.6597 4.47652 59.2609 4.05458C58.8621 3.63264 58.3877 3.42167 57.8376 3.42167H54.2278V7.85204H57.8376Z" fill="white"/>
<path d="M64.9497 15.2096V0.573576H67.0744V15.2096H64.9497Z" fill="white"/>
<path d="M80.4046 4.82594V15.2096H78.2593V13.6076C77.9293 14.0427 77.4411 14.4515 76.7948 14.8338C76.1485 15.2162 75.399 15.4074 74.5464 15.4074C73.6388 15.4074 72.8068 15.1767 72.0505 14.7152C71.3079 14.2537 70.7165 13.6142 70.2765 12.7967C69.8364 11.9791 69.6164 11.043 69.6164 9.98811C69.6164 8.93326 69.8433 8.00368 70.2971 7.19935C70.7509 6.38184 71.3766 5.74893 72.1742 5.30062C72.9718 4.83913 73.8794 4.60838 74.8971 4.60838C75.6534 4.60838 76.3135 4.76661 76.8773 5.08306C77.4549 5.39952 77.9156 5.76871 78.2593 6.19065V4.82594H80.4046ZM75.0414 13.5285C75.7015 13.5285 76.2791 13.3768 76.7742 13.0736C77.2692 12.7571 77.6543 12.3352 77.9293 11.8077C78.2043 11.2671 78.3419 10.6606 78.3419 9.98811C78.3419 9.32883 78.2043 8.73548 77.9293 8.20805C77.6543 7.68063 77.2692 7.26528 76.7742 6.96201C76.2791 6.64556 75.7015 6.48733 75.0414 6.48733C74.4089 6.48733 73.845 6.63896 73.35 6.94223C72.8549 7.2455 72.4699 7.66085 72.1948 8.18828C71.9198 8.7157 71.7823 9.31565 71.7823 9.98811C71.7823 10.6606 71.9198 11.2671 72.1948 11.8077C72.4699 12.3352 72.8549 12.7571 73.35 13.0736C73.845 13.3768 74.4089 13.5285 75.0414 13.5285Z" fill="white"/>
<path d="M87.2491 15.2096H85.1244V6.80378H82.876V4.82594H85.1244V2.17563H87.2491V4.82594H89.7656V6.80378H87.2491V15.2096Z" fill="white"/>
<path d="M93.5361 2.5712C93.0548 2.5712 92.6973 2.45253 92.4635 2.21519C92.2297 1.97785 92.1128 1.66798 92.1128 1.2856C92.1128 0.955958 92.2297 0.659282 92.4635 0.39557C92.6973 0.131857 93.0548 0 93.5361 0C94.0174 0 94.375 0.118671 94.6088 0.356012C94.8425 0.593354 94.9594 0.903216 94.9594 1.2856C94.9594 1.61524 94.8425 1.91192 94.6088 2.17563C94.375 2.43934 94.0174 2.5712 93.5361 2.5712ZM94.6294 15.2096H92.5048V4.82594H94.6294V15.2096Z" fill="white"/>
<path d="M103.939 4.60838C104.915 4.60838 105.672 4.79957 106.208 5.18195C106.744 5.56434 107.116 6.07858 107.322 6.72467C107.542 7.37077 107.652 8.08938 107.652 8.88052V15.2096H105.527V9.01897C105.527 8.51792 105.459 8.06961 105.321 7.67404C105.184 7.27847 104.95 6.96861 104.62 6.74445C104.29 6.52029 103.829 6.42799 103.238 6.46755C102.688 6.46755 102.199 6.57963 101.773 6.80378C101.347 7.02794 101.01 7.32462 100.762 7.69381C100.515 8.06301 100.391 8.47177 100.391 8.92008V15.2096H98.2664V4.82594H100.391V6.46755C100.721 5.97968 101.202 5.55115 101.835 5.18195C102.468 4.79957 103.169 4.60838 103.939 4.60838Z" fill="white"/>
<path d="M118.331 11.0759V4.82594H120.456V15.2096H118.331V13.5482C118.015 14.0361 117.548 14.4712 116.929 14.8536C116.324 15.2228 115.595 15.4074 114.742 15.4074C113.615 15.4074 112.7 15.0382 111.999 14.2998C111.297 13.5614 110.947 12.5395 110.947 11.2342V4.82594H113.071V10.6804C113.071 11.2078 113.154 11.6957 113.319 12.144C113.498 12.5923 113.773 12.9549 114.144 13.2318C114.529 13.4955 115.017 13.6273 115.609 13.6273C116.351 13.6273 116.991 13.4032 117.527 12.9549C118.063 12.5066 118.331 11.8803 118.331 11.0759Z" fill="white"/>
<path d="M129.356 4.64793C130.25 4.64793 130.965 4.84572 131.501 5.24129C132.038 5.62367 132.423 6.1511 132.657 6.82356C132.849 6.49392 133.131 6.16428 133.502 5.83464C133.874 5.49182 134.307 5.20832 134.802 4.98417C135.297 4.76001 135.826 4.64793 136.39 4.64793C137.325 4.64793 138.054 4.84572 138.577 5.24129C139.099 5.62367 139.464 6.1445 139.67 6.80378C139.89 7.44988 140 8.17509 140 8.97941V15.2096H137.855V9.09808C137.855 8.33332 137.703 7.71359 137.401 7.23891C137.098 6.76423 136.528 6.52689 135.689 6.52689C134.891 6.52689 134.231 6.77082 133.709 7.25869C133.2 7.73337 132.945 8.31354 132.945 8.99919V15.2096H130.8V9.05853C130.8 8.32013 130.635 7.71359 130.305 7.23891C129.975 6.76423 129.432 6.52689 128.675 6.52689C128.153 6.52689 127.685 6.63897 127.273 6.86312C126.86 7.08728 126.537 7.38395 126.303 7.75315C126.07 8.10916 125.953 8.51132 125.953 8.95964V15.2096H123.807V4.82594H125.953V6.48733C126.283 6.01265 126.743 5.59071 127.335 5.22151C127.94 4.83913 128.614 4.64793 129.356 4.64793Z" fill="white"/>
<path d="M56.7911 25.5631L56.1582 25.9999L55.4664 25.1333C55.172 25.2413 54.858 25.2953 54.5244 25.2953C54.1564 25.2953 53.8178 25.2319 53.5087 25.1051C53.1996 24.9736 52.9322 24.7927 52.7065 24.5625C52.4808 24.3324 52.3067 24.0646 52.184 23.7593C52.0613 23.4493 52 23.1158 52 22.7588C52 22.4018 52.0613 22.0706 52.184 21.7653C52.3067 21.4552 52.4808 21.1851 52.7065 20.955C52.9322 20.7248 53.1996 20.5463 53.5087 20.4195C53.8178 20.2879 54.1564 20.2222 54.5244 20.2222C54.8923 20.2222 55.2284 20.2879 55.5326 20.4195C55.8417 20.5463 56.1091 20.7248 56.3348 20.955C56.5654 21.1851 56.7421 21.4552 56.8647 21.7653C56.9874 22.0706 57.0487 22.4018 57.0487 22.7588C57.0487 23.1674 56.9678 23.5432 56.8058 23.8861C56.6439 24.229 56.4207 24.5156 56.1361 24.7457L56.7911 25.5631ZM56.2392 22.7588C56.2392 22.4158 56.1656 22.1105 56.0184 21.8428C55.8712 21.5703 55.6676 21.3566 55.4075 21.2016C55.1524 21.0419 54.858 20.962 54.5244 20.962C54.1858 20.962 53.8865 21.0419 53.6265 21.2016C53.3713 21.3566 53.1702 21.5703 53.023 21.8428C52.8807 22.1105 52.8096 22.4158 52.8096 22.7588C52.8096 23.1017 52.8807 23.4093 53.023 23.6818C53.1702 23.9495 53.3713 24.1633 53.6265 24.323C53.8865 24.478 54.1858 24.5555 54.5244 24.5555C54.6765 24.5555 54.8236 24.5367 54.9659 24.4991L54.2079 23.555C54.2079 23.555 54.2398 23.5338 54.3036 23.4915C54.3723 23.4493 54.4483 23.4023 54.5317 23.3506C54.62 23.2943 54.6961 23.2449 54.7599 23.2027C54.8286 23.1604 54.8629 23.1392 54.8629 23.1392L55.6577 24.1398C55.8393 23.9754 55.9816 23.7757 56.0846 23.5409C56.1876 23.3013 56.2392 23.0406 56.2392 22.7588Z" fill="white"/>
<path d="M63.2345 20.2926C63.6319 20.2926 63.9803 20.3584 64.2796 20.4899C64.5838 20.6167 64.8364 20.7952 65.0376 21.0254C65.2388 21.2509 65.3909 21.5139 65.4939 21.8146C65.5969 22.1105 65.6484 22.4252 65.6484 22.7588C65.6484 23.2097 65.5577 23.6231 65.3761 23.9989C65.1946 24.37 64.9248 24.6682 64.5666 24.8937C64.2084 25.1145 63.7644 25.2249 63.2345 25.2249H61.2179V20.2926H63.2345ZM63.1977 24.4921C63.5853 24.4921 63.8993 24.4146 64.1397 24.2596C64.3801 24.0999 64.5568 23.8885 64.6696 23.6254C64.7825 23.3624 64.8389 23.0735 64.8389 22.7588C64.8389 22.4487 64.7825 22.1622 64.6696 21.8991C64.5568 21.6361 64.3801 21.4247 64.1397 21.265C63.8993 21.1053 63.5853 21.0254 63.1977 21.0254H62.0128V24.4921H63.1977Z" fill="white"/>
<path d="M70.4949 25.2249L70.0092 23.9989H67.8528L67.367 25.2249H66.5575L68.5519 20.2926H69.3615L71.3412 25.2249H70.4949ZM68.5372 22.2796L68.1472 23.2661H69.7221L69.3173 22.2514C69.2536 22.087 69.1898 21.9109 69.126 21.723C69.0622 21.5304 68.9984 21.3378 68.9346 21.1452C68.866 21.3425 68.7973 21.5398 68.7286 21.7371C68.6648 21.9344 68.601 22.1152 68.5372 22.2796Z" fill="white"/>
<path d="M77.3001 22.7588C77.3001 23.1158 77.2387 23.4493 77.1161 23.7593C76.9934 24.0646 76.8168 24.3324 76.5862 24.5625C76.3605 24.7927 76.0931 24.9736 75.784 25.1051C75.4798 25.2319 75.1437 25.2953 74.7757 25.2953C74.4077 25.2953 74.0692 25.2319 73.7601 25.1051C73.451 24.9736 73.1836 24.7927 72.9579 24.5625C72.7322 24.3324 72.558 24.0646 72.4354 23.7593C72.3127 23.4493 72.2514 23.1158 72.2514 22.7588C72.2514 22.4018 72.3127 22.0706 72.4354 21.7653C72.558 21.4552 72.7322 21.1851 72.9579 20.955C73.1836 20.7248 73.451 20.5463 73.7601 20.4195C74.0692 20.2879 74.4077 20.2222 74.7757 20.2222C75.1437 20.2222 75.4798 20.2879 75.784 20.4195C76.0931 20.5463 76.3605 20.7248 76.5862 20.955C76.8168 21.1851 76.9934 21.4552 77.1161 21.7653C77.2387 22.0706 77.3001 22.4018 77.3001 22.7588ZM76.4905 22.7588C76.4905 22.4158 76.4169 22.1105 76.2697 21.8428C76.1225 21.5703 75.9189 21.3566 75.6589 21.2016C75.4037 21.0419 75.1094 20.962 74.7757 20.962C74.4372 20.962 74.1379 21.0419 73.8778 21.2016C73.6227 21.3566 73.4215 21.5703 73.2744 21.8428C73.1321 22.1105 73.0609 22.4158 73.0609 22.7588C73.0609 23.1017 73.1321 23.4093 73.2744 23.6818C73.4215 23.9495 73.6227 24.1633 73.8778 24.323C74.1379 24.478 74.4372 24.5555 74.7757 24.5555C75.1094 24.5555 75.4037 24.478 75.6589 24.323C75.9189 24.1633 76.1225 23.9472 76.2697 23.6747C76.4169 23.4023 76.4905 23.097 76.4905 22.7588Z" fill="white"/>
<path d="M81.4693 20.2926H84.7149V21.0254H82.2642V22.3289H84.3101V23.0617H82.2642V24.4921H84.7149V25.2249H81.4693V20.2926Z" fill="white"/>
<path d="M90.1041 20.2926H90.8989V25.2249H90.1703L87.1749 21.4623C87.2044 21.7488 87.2314 22.0354 87.2559 22.3219C87.2853 22.6037 87.3 22.8879 87.3 23.1745V25.2249H86.5052V20.2926H87.2191L90.2145 24.1327C90.1703 23.7898 90.1409 23.4211 90.1261 23.0265C90.1114 22.6272 90.1041 22.2561 90.1041 21.9132V20.2926Z" fill="white"/>
<path d="M95.1525 20.2504C95.4469 20.2504 95.7192 20.2903 95.9695 20.3701C96.2197 20.45 96.4405 20.5533 96.6318 20.6802C96.8232 20.807 96.9728 20.9432 97.0808 21.0888L96.5656 21.6032C96.3693 21.4247 96.1535 21.2791 95.9179 21.1663C95.6824 21.0489 95.4273 20.9902 95.1525 20.9902C94.8042 20.9902 94.4877 21.0677 94.2032 21.2227C93.9235 21.3777 93.7027 21.5891 93.5408 21.8569C93.3789 22.1199 93.2979 22.4205 93.2979 22.7588C93.2979 23.0923 93.3838 23.3952 93.5555 23.6677C93.7272 23.9401 93.9554 24.1562 94.24 24.3159C94.5294 24.4756 94.8434 24.5555 95.182 24.5555C95.4273 24.5555 95.6579 24.5109 95.8738 24.4216C96.0897 24.3277 96.2639 24.2008 96.3963 24.0411C96.5337 23.8814 96.6024 23.6982 96.6024 23.4915C96.6024 23.4681 96.6024 23.454 96.6024 23.4493H95.1378V22.6953H97.4193C97.4291 22.7658 97.4365 22.8363 97.4414 22.9067C97.4512 22.9772 97.4561 23.0476 97.4561 23.1181C97.4561 23.3765 97.4144 23.6301 97.331 23.8791C97.2525 24.128 97.1274 24.3441 96.9557 24.5273C96.7594 24.7622 96.5043 24.9501 96.1903 25.091C95.8811 25.2272 95.5377 25.2953 95.1599 25.2953C94.787 25.2953 94.4387 25.2319 94.1148 25.1051C93.791 24.9736 93.5064 24.7927 93.2611 24.5625C93.0158 24.3324 92.8244 24.0646 92.6871 23.7593C92.5546 23.4493 92.4884 23.1158 92.4884 22.7588C92.4884 22.4018 92.5546 22.0729 92.6871 21.7723C92.8244 21.467 93.0133 21.2016 93.2538 20.9761C93.4991 20.7459 93.7837 20.5674 94.1075 20.4406C94.4313 20.3138 94.7797 20.2504 95.1525 20.2504Z" fill="white"/>
<path d="M101.201 25.2249H98.743V24.5203H99.5747V20.9972H98.743V20.2926H101.201V20.9972H100.369V24.5203H101.201V25.2249Z" fill="white"/>
<path d="M106.563 20.2926H107.358V25.2249H106.629L103.634 21.4623C103.663 21.7488 103.69 22.0354 103.715 22.3219C103.744 22.6037 103.759 22.8879 103.759 23.1745V25.2249H102.964V20.2926H103.678L106.673 24.1327C106.629 23.7898 106.6 23.4211 106.585 23.0265C106.57 22.6272 106.563 22.2561 106.563 21.9132V20.2926Z" fill="white"/>
<path d="M109.315 20.2926H112.561V21.0254H110.11V22.3289H112.156V23.0617H110.11V24.4921H112.561V25.2249H109.315V20.2926Z" fill="white"/>
<path d="M114.351 20.2926H117.597V21.0254H115.146V22.3289H117.192V23.0617H115.146V24.4921H117.597V25.2249H114.351V20.2926Z" fill="white"/>
<path d="M123.207 21.8639C123.207 22.1598 123.113 22.4346 122.927 22.6883C122.745 22.942 122.507 23.1298 122.213 23.252L123.413 25.2319L122.449 25.2249L121.359 23.3718H120.182V25.2249H119.387V20.2926H121.58C121.85 20.2926 122.108 20.356 122.353 20.4829C122.603 20.6097 122.807 20.7906 122.964 21.0254C123.126 21.2603 123.207 21.5398 123.207 21.8639ZM121.448 21.0254H120.182V22.639H121.654C121.889 22.639 122.071 22.5591 122.198 22.3994C122.331 22.2397 122.397 22.0588 122.397 21.8569C122.397 21.5985 122.304 21.3965 122.117 21.2509C121.931 21.1006 121.708 21.0254 121.448 21.0254Z" fill="white"/>
<path d="M127.286 25.2249H124.828V24.5203H125.66V20.9972H124.828V20.2926H127.286V20.9972H126.455V24.5203H127.286V25.2249Z" fill="white"/>
<path d="M132.648 20.2926H133.443V25.2249H132.714L129.719 21.4623C129.748 21.7488 129.775 22.0354 129.8 22.3219C129.829 22.6037 129.844 22.8879 129.844 23.1745V25.2249H129.049V20.2926H129.763L132.758 24.1327C132.714 23.7898 132.685 23.4211 132.67 23.0265C132.655 22.6272 132.648 22.2561 132.648 21.9132V20.2926Z" fill="white"/>
<path d="M137.696 20.2504C137.991 20.2504 138.263 20.2903 138.513 20.3701C138.764 20.45 138.984 20.5533 139.176 20.6802C139.367 20.807 139.517 20.9432 139.625 21.0888L139.109 21.6032C138.913 21.4247 138.697 21.2791 138.462 21.1663C138.226 21.0489 137.971 20.9902 137.696 20.9902C137.348 20.9902 137.032 21.0677 136.747 21.2227C136.467 21.3777 136.247 21.5891 136.085 21.8569C135.923 22.1199 135.842 22.4205 135.842 22.7588C135.842 23.0923 135.928 23.3952 136.099 23.6677C136.271 23.9401 136.499 24.1562 136.784 24.3159C137.073 24.4756 137.387 24.5555 137.726 24.5555C137.971 24.5555 138.202 24.5109 138.418 24.4216C138.634 24.3277 138.808 24.2008 138.94 24.0411C139.078 23.8814 139.146 23.6982 139.146 23.4915C139.146 23.4681 139.146 23.454 139.146 23.4493H137.682V22.6953H139.963C139.973 22.7658 139.98 22.8363 139.985 22.9067C139.995 22.9772 140 23.0476 140 23.1181C140 23.3765 139.958 23.6301 139.875 23.8791C139.796 24.128 139.671 24.3441 139.5 24.5273C139.303 24.7622 139.048 24.9501 138.734 25.091C138.425 25.2272 138.082 25.2953 137.704 25.2953C137.331 25.2953 136.983 25.2319 136.659 25.1051C136.335 24.9736 136.05 24.7927 135.805 24.5625C135.56 24.3324 135.368 24.0646 135.231 23.7593C135.098 23.4493 135.032 23.1158 135.032 22.7588C135.032 22.4018 135.098 22.0729 135.231 21.7723C135.368 21.467 135.557 21.2016 135.798 20.9761C136.043 20.7459 136.328 20.5674 136.651 20.4406C136.975 20.3138 137.324 20.2504 137.696 20.2504Z" fill="white"/>
</svg>
