<svg width="80" height="42" viewBox="0 0 80 42" fill="none" xmlns="http://www.w3.org/2000/svg">
<path fill-rule="evenodd" clip-rule="evenodd" d="M52.3608 15.6374L49.5371 18.3429C48.0169 19.799 48.0081 22.1694 49.5163 23.6369C49.5234 23.6435 49.53 23.6502 49.5371 23.6571L52.3608 26.3622C53.8808 27.8183 53.8899 30.1887 52.3816 31.6562C52.3745 31.6631 52.3674 31.6695 52.3608 31.6764L42.7195 40.9135C41.2077 42.3622 38.7684 42.3622 37.2565 40.9135L19.2452 23.6571C17.7252 22.2005 17.7156 19.8305 19.2244 18.3631C19.231 18.3562 19.2381 18.3493 19.2452 18.3429L37.2565 1.08641C38.7684 -0.362136 41.2077 -0.362136 42.7195 1.08641L52.3608 10.3232C53.8808 11.7797 53.8899 14.1498 52.3816 15.6173C52.3745 15.6242 52.3674 15.6309 52.3608 15.6374Z" fill="#FF6701"/>
<path fill-rule="evenodd" clip-rule="evenodd" d="M18.3184 15.1955L15.4948 17.9005C13.9752 19.357 13.9657 21.7272 15.474 23.1947C15.4811 23.2016 15.4882 23.2083 15.4948 23.2148L18.3184 25.9198C19.8386 27.3764 19.8481 29.7468 18.3393 31.214C18.3323 31.2209 18.3256 31.2276 18.3184 31.2345L16.6491 32.834C15.1368 34.2825 12.6979 34.2825 11.186 32.834L1.14622 23.2148C-0.373881 21.7586 -0.383233 19.3881 1.12535 17.9206C1.13226 17.9138 1.13922 17.9074 1.14622 17.9005L11.186 8.28172C12.6979 6.83318 15.1368 6.83318 16.6491 8.28172L18.3184 9.88125C19.8386 11.3378 19.8481 13.7078 18.3393 15.1754C18.3323 15.1823 18.3256 15.189 18.3184 15.1955Z" fill="#FF6701"/>
<path fill-rule="evenodd" clip-rule="evenodd" d="M68.8143 8.28171L78.8536 17.9006C80.3738 19.357 80.3832 21.7271 78.875 23.1946C78.8679 23.2015 78.8607 23.2084 78.8536 23.2147L68.8143 32.8339C67.3021 34.2826 64.8632 34.2826 63.3513 32.8339L53.3116 23.2147C51.7915 21.7587 51.782 19.3882 53.2907 17.9207C53.2974 17.9142 53.3045 17.9073 53.3116 17.9006L63.3513 8.28171C64.8632 6.83318 67.3021 6.83318 68.8143 8.28171Z" fill="#FF6701"/>
</svg>
