<svg width="272" height="272" viewBox="0 0 272 272" fill="none" xmlns="http://www.w3.org/2000/svg">
<path d="M92.4078 210.575C51.0873 186.719 36.8783 133.69 60.7347 92.3693C84.5911 51.0488 137.581 36.9067 178.902 60.7631C220.222 84.6195 234.431 137.648 210.575 178.969C186.718 220.289 133.728 234.431 92.4078 210.575ZM177.742 62.7722C137.56 39.5731 85.9428 53.3472 62.7051 93.5962C39.506 133.778 53.2801 185.395 93.5291 208.633C133.711 231.832 185.328 218.058 208.566 177.809C231.803 137.56 217.924 85.9713 177.742 62.7722Z" fill="white"/>
<path d="M93.0231 203.787C92.2195 203.323 91.9751 202.199 92.4391 201.396C92.9031 200.592 94.0264 200.348 94.83 200.812C95.6337 201.276 95.8781 202.399 95.4141 203.203C94.8831 203.968 93.8268 204.251 93.0231 203.787ZM102.467 206.917C102.864 206.075 103.825 205.648 104.773 206.016C105.615 206.413 106.042 207.374 105.674 208.322C105.277 209.165 104.316 209.592 103.368 209.223C103.301 209.185 103.234 209.146 103.234 209.146C102.391 208.749 102.137 207.798 102.467 206.917ZM83.5293 196.877C82.803 196.279 82.7312 195.166 83.3292 194.44C83.9271 193.713 85.04 193.641 85.7664 194.239C86.4927 194.837 86.5644 195.95 85.9665 196.677C85.4073 197.336 84.5339 197.457 83.7972 197.031C83.7302 196.993 83.5963 196.915 83.5293 196.877ZM113.201 211.061C113.464 210.141 114.396 209.608 115.316 209.871C116.236 210.134 116.769 211.067 116.506 211.987C116.242 212.906 115.31 213.439 114.39 213.176C114.256 213.099 114.084 213.089 113.95 213.011C113.347 212.663 113.015 211.846 113.201 211.061ZM75.154 188.648C74.505 187.916 74.6059 186.814 75.3377 186.165C76.0696 185.516 77.1722 185.616 77.7542 186.31C78.4032 187.042 78.3024 188.144 77.6091 188.726C77.0603 189.213 76.2255 189.267 75.6228 188.919C75.4502 188.908 75.288 188.725 75.154 188.648ZM124.383 213.499C124.474 212.569 125.35 211.825 126.347 211.954C127.277 212.044 128.021 212.92 127.825 213.879C127.696 214.876 126.858 215.553 125.861 215.424C125.622 215.375 125.382 215.326 125.181 215.21C124.646 214.9 124.303 214.256 124.383 213.499ZM68.0981 179.217C67.5934 178.39 67.8282 177.364 68.5884 176.821C69.4155 176.316 70.4408 176.551 70.9841 177.311C71.4888 178.138 71.254 179.164 70.4939 179.707C69.9167 180.088 69.2263 180.047 68.6905 179.737C68.4509 179.688 68.2887 179.505 68.0981 179.217ZM135.87 214.327C135.827 213.32 136.597 212.604 137.538 212.522C138.506 212.545 139.261 213.249 139.343 214.189C139.387 215.196 138.616 215.912 137.676 215.994C137.331 215.974 137.024 215.886 136.756 215.731C136.182 215.489 135.868 214.95 135.87 214.327ZM62.5135 168.938C62.1145 168.083 62.5219 167.068 63.3773 166.669C64.2328 166.27 65.2477 166.677 65.6467 167.533C66.0458 168.388 65.6384 169.403 64.7829 169.802C64.2831 170.049 63.6983 169.98 63.2295 169.709C62.8946 169.516 62.6654 169.294 62.5135 168.938ZM147.289 213.419C147.14 212.44 147.748 211.541 148.727 211.392C149.639 211.204 150.605 211.851 150.754 212.83C150.903 213.809 150.295 214.708 149.316 214.857C148.893 214.97 148.52 214.844 148.185 214.65C147.716 214.38 147.392 214.014 147.289 213.419ZM58.4286 157.918C58.1738 156.968 58.7151 156.03 59.5989 155.737C60.5496 155.482 61.4872 156.023 61.7806 156.907C62.0353 157.858 61.494 158.795 60.6103 159.089C60.1491 159.269 59.6699 159.171 59.2681 158.939C58.8663 158.707 58.6088 158.38 58.4286 157.918ZM158.455 210.936C158.161 210.052 158.636 209.076 159.558 208.716C160.442 208.422 161.418 208.897 161.779 209.819C162.072 210.703 161.598 211.679 160.675 212.039C160.214 212.22 159.735 212.122 159.266 211.851C158.931 211.658 158.607 211.292 158.455 210.936ZM56.0338 146.446C55.8847 145.467 56.5599 144.606 57.5389 144.457C58.4793 144.375 59.3782 144.983 59.4603 145.924C59.6095 146.903 58.9342 147.763 57.9552 147.912C57.5713 147.958 57.1591 147.899 56.8243 147.706C56.4225 147.474 56.0697 147.002 56.0338 146.446ZM169.235 206.802C168.836 205.947 169.177 204.893 170.032 204.494C170.887 204.095 171.941 204.435 172.34 205.291C172.739 206.146 172.399 207.2 171.543 207.599C171.043 207.846 170.353 207.805 169.884 207.534C169.616 207.379 169.32 207.119 169.235 206.802ZM55.2801 134.76C55.3036 133.791 56.1128 133.008 57.0815 133.031C58.0501 133.055 58.7661 133.825 58.8095 134.833C58.786 135.801 57.9768 136.584 57.0082 136.561C56.7299 136.579 56.4234 136.491 56.1555 136.336C55.6198 136.027 55.2773 135.383 55.2801 134.76ZM179.207 201.13C178.664 200.37 178.87 199.239 179.63 198.695C180.391 198.152 181.521 198.359 182.065 199.119C182.608 199.879 182.402 201.01 181.642 201.553C181.064 201.934 180.335 201.96 179.799 201.65C179.532 201.496 179.331 201.38 179.207 201.13ZM56.2242 123.071C56.4203 122.113 57.2578 121.436 58.2161 121.632C59.1744 121.828 59.8517 122.666 59.6556 123.624C59.4595 124.582 58.622 125.259 57.6637 125.063C57.4241 125.014 57.2901 124.937 57.0892 124.821C56.4865 124.473 56.1441 123.829 56.2242 123.071ZM188.255 194.12C187.606 193.388 187.601 192.314 188.333 191.665C188.998 190.977 190.139 191.011 190.788 191.743C191.437 192.475 191.442 193.549 190.71 194.198C190.122 194.752 189.287 194.806 188.618 194.419C188.551 194.38 188.35 194.264 188.255 194.12ZM58.9509 111.698C59.214 110.779 60.2137 110.284 61.1334 110.547C62.053 110.81 62.5473 111.81 62.2842 112.73C62.0212 113.649 61.0214 114.144 60.1018 113.881C59.9679 113.803 59.9009 113.765 59.767 113.687C59.0303 113.262 58.6982 112.445 58.9509 111.698ZM196.233 185.868C195.507 185.271 195.33 184.186 195.966 183.393C196.564 182.666 197.649 182.489 198.375 183.087C199.101 183.685 199.279 184.769 198.681 185.496C198.122 186.155 197.209 186.343 196.473 185.917C196.367 185.946 196.3 185.907 196.233 185.868ZM63.2104 100.763C63.6074 99.9211 64.6354 99.5324 65.5447 99.9681C66.387 100.365 66.737 101.46 66.34 102.302C65.943 103.145 64.915 103.533 64.0057 103.098C63.9387 103.059 63.9387 103.059 63.8717 103.02C63.1351 102.595 62.8134 101.606 63.2104 100.763ZM202.242 174.069L202.281 174.002L202.32 173.935C202.784 173.131 203.84 172.848 204.644 173.312C205.447 173.776 205.73 174.832 205.266 175.636L205.228 175.703L205.189 175.77C204.725 176.574 203.669 176.857 202.865 176.393C202.023 175.996 201.74 174.939 202.242 174.069ZM69.5659 93.0032C68.8009 92.4723 68.5565 91.3489 69.0875 90.584C69.6184 89.819 70.7417 89.5746 71.5067 90.1056C72.2717 90.6365 72.5161 91.7598 71.9851 92.5248C71.4542 93.2898 70.4365 93.5059 69.6998 93.0805C69.6329 93.0419 69.6329 93.0419 69.5659 93.0032ZM207.189 163.799C207.519 162.918 208.586 162.462 209.467 162.792C210.348 163.122 210.804 164.189 210.407 165.031C210.077 165.912 209.01 166.368 208.168 165.971C208.101 165.932 208.034 165.893 207.967 165.855C207.258 165.535 206.898 164.613 207.189 163.799ZM76.4551 83.8546C75.7675 83.1897 75.6957 82.0767 76.3606 81.3891C77.0255 80.7015 78.1384 80.6297 78.8261 81.2946C79.5137 81.9595 79.5855 83.0724 78.9206 83.7601C78.4 84.3524 77.421 84.5015 76.7513 84.1149C76.656 83.9706 76.5891 83.9319 76.4551 83.8546ZM210.498 153.119C210.694 152.16 211.666 151.56 212.585 151.823C213.544 152.02 214.077 152.952 213.88 153.911C213.684 154.869 212.752 155.402 211.793 155.206C211.621 155.195 211.487 155.118 211.286 155.002C210.722 154.587 210.351 153.837 210.498 153.119ZM84.6347 75.7189C83.9857 74.987 84.1535 73.9231 84.8854 73.2741C85.6173 72.6251 86.7482 72.8316 87.3302 73.5248C87.9792 74.2566 87.8114 75.3206 87.0795 75.9695C86.5306 76.4563 85.7345 76.4431 85.1318 76.0951C84.9592 76.0848 84.7583 75.9688 84.6347 75.7189ZM212.274 142C212.365 141.07 213.241 140.326 214.171 140.416C215.101 140.507 215.884 141.316 215.755 142.313C215.664 143.243 214.855 144.026 213.858 143.897C213.618 143.848 213.379 143.799 213.111 143.644C212.575 143.335 212.233 142.691 212.274 142ZM93.8727 68.9978C93.368 68.1707 93.6415 67.0784 94.4686 66.5738C95.2957 66.0691 96.388 66.3425 96.8927 67.1697C97.3973 67.9968 97.1239 69.089 96.2968 69.5937C95.7582 69.9078 95.0678 69.8664 94.5321 69.5571C94.2925 69.508 94.0633 69.2864 93.8727 68.9978ZM212.391 130.817C212.309 129.876 213.051 129.055 213.991 128.973C214.932 128.89 215.753 129.633 215.836 130.573C215.918 131.513 215.175 132.335 214.235 132.417C213.851 132.463 213.545 132.376 213.277 132.221C212.741 131.912 212.427 131.373 212.391 130.817ZM104.035 63.6141C103.675 62.6917 104.082 61.6768 105.005 61.3164C105.927 60.9561 106.942 61.3634 107.302 62.2858C107.663 63.2083 107.255 64.2232 106.333 64.5835C105.833 64.8307 105.248 64.761 104.779 64.4903C104.445 64.297 104.254 64.0084 104.035 63.6141ZM210.877 119.674C210.689 118.762 211.269 117.757 212.248 117.608C213.16 117.42 214.059 118.029 214.314 118.979C214.502 119.892 213.855 120.857 212.943 121.045C212.52 121.158 212.041 121.06 211.706 120.867C211.238 120.596 210.952 120.163 210.877 119.674ZM114.9 59.7971C114.646 58.8463 115.254 57.9474 116.138 57.654C117.088 57.3993 117.987 58.0075 118.242 58.9583C118.497 59.909 117.889 60.8079 117.005 61.1013C116.582 61.2145 116.103 61.1165 115.701 60.8845C115.299 60.6525 114.975 60.2866 114.9 59.7971ZM207.712 108.917C207.352 107.995 207.826 107.018 208.748 106.658C209.671 106.298 210.647 106.772 211.007 107.694C211.368 108.617 210.893 109.593 209.971 109.953C209.51 110.134 208.925 110.064 208.523 109.832C208.188 109.639 207.931 109.311 207.712 108.917ZM126.19 57.5645C126.108 56.6241 126.783 55.7639 127.724 55.6817C128.664 55.5996 129.524 56.2749 129.606 57.2152C129.689 58.1556 129.013 59.0158 128.073 59.098C127.689 59.1442 127.316 59.0178 127.048 58.8632C126.54 58.6595 126.187 58.1879 126.19 57.5645ZM203.096 98.6622C202.658 97.8737 202.932 96.7815 203.826 96.3155C204.653 95.8108 205.706 96.1512 206.173 97.0453C206.677 97.8724 206.337 98.926 205.51 99.4307C204.971 99.7448 204.281 99.7034 203.812 99.4327C203.477 99.2394 203.248 99.0178 203.096 98.6622ZM137.588 57.0014C137.611 56.0327 138.487 55.2884 139.417 55.3789C140.386 55.4024 141.13 56.2786 141.04 57.2086C141.016 58.1772 140.14 58.9215 139.21 58.831C138.932 58.849 138.664 58.6943 138.463 58.5783C137.927 58.269 137.546 57.6918 137.588 57.0014ZM197.009 89.2544C196.398 88.4555 196.566 87.3916 197.326 86.8483C198.087 86.3049 199.189 86.4057 199.732 87.1659C200.343 87.9647 200.175 89.0287 199.376 89.639C198.76 90.0871 198.031 90.1126 197.428 89.7646C197.333 89.6203 197.132 89.5043 197.009 89.2544ZM148.987 58.136C149.183 57.1777 150.088 56.5391 151.046 56.7352C152.004 56.9313 152.576 57.7971 152.38 58.7554C152.184 59.7137 151.279 60.3523 150.321 60.1562C150.148 60.1458 149.948 60.0298 149.814 59.9525C149.211 59.6045 148.907 58.8934 148.987 58.136ZM189.545 80.838C188.858 80.1731 188.853 79.0988 189.518 78.4111C190.183 77.7235 191.257 77.7187 191.945 78.3836C192.632 79.0485 192.637 80.1228 191.972 80.8104C191.385 81.3641 190.511 81.4849 189.842 81.0983C189.813 80.9926 189.679 80.9153 189.545 80.838ZM160.149 60.9193C160.479 60.0384 161.479 59.544 162.36 59.8741C163.241 60.2041 163.735 61.2039 163.405 62.0848C163.075 62.9658 162.075 63.4601 161.194 63.1301C161.127 63.0914 160.994 63.0141 160.927 62.9754C160.257 62.5888 159.858 61.7333 160.149 60.9193ZM181.041 73.6063C180.276 73.0754 180.099 71.9907 180.668 71.1588C181.199 70.3938 182.284 70.2164 183.116 70.786C183.881 71.3169 184.058 72.4016 183.489 73.2335C182.958 73.9985 181.979 74.1476 181.242 73.7223C181.108 73.645 181.041 73.6063 181.041 73.6063ZM170.767 65.2637C171.164 64.4214 172.259 64.0714 173.13 64.574C173.933 65.038 174.322 66.0661 173.819 66.9367C173.355 67.7403 172.327 68.129 171.457 67.6263L171.39 67.5877C170.653 67.1624 170.37 66.106 170.767 65.2637Z" fill="white"/>
<path d="M82.9094 219.914C82.7754 219.836 82.5745 219.72 82.4406 219.643C79.4373 217.731 77.3696 214.662 76.7807 211.196C76.0683 207.481 73.0112 204.734 69.1752 204.573C65.6844 204.433 62.3539 202.778 60.0541 200.111C57.7544 197.443 56.6864 193.88 57.1049 190.371C57.5724 186.623 55.3914 183.132 51.8006 181.773C48.4776 180.569 45.8223 178.053 44.3884 174.815C43.0214 171.614 43.0381 167.874 44.4432 164.667C46.0029 161.192 44.9273 157.178 41.9447 154.92C39.1244 152.845 37.2783 149.547 36.929 146.131C36.5515 142.609 37.699 139.075 40.003 136.476C42.5286 133.648 42.7103 129.467 40.4313 126.455C38.3145 123.625 37.5634 119.977 38.2215 116.517C38.8795 113.058 41.0034 109.998 44.0233 108.17C47.2262 106.179 48.6727 102.282 47.4321 98.7081C46.3151 95.3844 46.5713 91.6927 48.283 88.5734C49.9946 85.4541 52.8343 83.1648 56.2816 82.2977C59.9402 81.374 62.4299 77.9896 62.274 74.2385C62.1746 70.6987 63.5231 67.2805 66.028 64.7978C68.5329 62.3151 71.9726 60.9971 75.5304 61.1761C79.3663 61.337 82.6286 58.9344 83.6809 55.2559C84.5786 51.8452 86.9316 49.0069 90.0468 47.3231C93.1903 45.7449 96.8461 45.4446 100.169 46.6488C103.732 47.902 107.622 46.5765 109.718 43.4109C111.63 40.4076 114.699 38.3399 118.164 37.751C121.63 37.1622 125.252 38.0032 128.072 40.078C131.121 42.3744 135.218 42.2392 138.135 39.8159C140.802 37.5161 144.365 36.4481 147.874 36.8666C151.287 37.1408 154.502 38.9967 156.58 41.8931C158.82 44.9724 162.844 46.0454 166.294 44.5549C169.533 43.1209 173.235 43.2046 176.442 44.6096C179.649 46.0147 182.15 48.7979 183.267 52.1216C184.507 55.6952 187.941 57.9454 191.741 57.5499C195.263 57.1723 198.797 58.3199 201.396 60.6238C204.061 62.9665 205.629 66.2826 205.728 69.8224C205.846 73.6405 208.498 76.7792 212.264 77.5249C215.724 78.183 218.784 80.3068 220.612 83.3267C222.44 86.3467 223.019 89.9845 222.054 93.3565C221.041 96.9681 222.644 100.841 226.003 102.601C229.123 104.313 231.412 107.153 232.279 110.6C233.185 113.98 232.583 117.651 230.671 120.655C228.642 123.859 229.056 127.937 231.768 130.664C234.25 133.169 235.568 136.608 235.389 140.166C235.249 143.657 233.594 146.987 230.927 149.287C228.01 151.71 227.243 155.822 228.984 159.148C230.601 162.225 230.862 165.948 229.658 169.271C228.454 172.594 225.939 175.249 222.7 176.683C219.25 178.173 217.229 181.828 217.941 185.544C218.597 189.047 217.689 192.631 215.614 195.451C213.54 198.271 210.241 200.117 206.758 200.428C202.958 200.824 200.049 203.698 199.581 207.446C199.163 210.955 197.307 214.169 194.449 216.18C191.553 218.259 187.971 219.048 184.512 218.39C180.813 217.683 177.13 219.576 175.571 223.05C174.166 226.257 171.383 228.758 168.059 229.875C164.735 230.992 161.043 230.736 157.924 229.024C154.604 227.197 150.505 227.955 148.046 230.822C145.704 233.487 142.387 235.055 138.848 235.155C135.308 235.254 131.89 233.906 129.407 231.401C126.762 228.713 122.668 228.225 119.399 230.176C116.379 232.004 112.741 232.583 109.369 231.618C105.997 230.654 103.12 228.368 101.475 225.186C99.7342 221.859 95.9245 220.106 92.2943 221.135C89.2591 222.062 85.7891 221.576 82.9094 219.914ZM75.1736 201.607C78.3212 203.424 80.6285 206.542 81.3023 210.324C81.7241 212.532 83.0296 214.447 84.8944 215.702C86.7979 216.89 89.0597 217.303 91.2781 216.709C97.0493 215.219 103.023 217.864 105.791 223.123C106.846 225.161 108.634 226.551 110.779 227.164C112.925 227.778 115.267 227.434 117.21 226.234C122.25 223.072 128.75 223.878 132.932 228.078C134.498 229.697 136.662 230.589 138.955 230.484C141.209 230.446 143.314 229.429 144.77 227.68C148.713 223.171 155.087 222.029 160.36 224.805C162.341 225.859 164.652 226.033 166.775 225.294C168.898 224.555 170.583 223.028 171.542 220.903C173.984 215.437 179.743 212.422 185.598 213.57C187.821 214.05 190.068 213.562 191.915 212.217C193.763 210.873 194.884 208.931 195.191 206.697C195.861 200.744 200.533 196.209 206.464 195.525C208.728 195.315 210.738 194.154 212.06 192.327C213.382 190.501 213.968 188.25 213.546 186.042C212.479 180.157 215.526 174.416 221.071 172.081C223.165 171.237 224.689 169.527 225.475 167.391C226.261 165.256 226.051 162.991 224.995 160.953C222.227 155.694 223.446 149.254 228.076 145.409C229.829 143.92 230.816 141.901 230.884 139.618C230.951 137.336 230.146 135.174 228.541 133.623C224.292 129.383 223.678 122.868 226.856 117.827C228.045 115.924 228.457 113.662 227.863 111.444C227.269 109.225 225.886 107.445 223.905 106.39C218.622 103.787 216.107 97.7806 217.629 92.0515C218.243 89.9057 217.898 87.5638 216.698 85.6209C215.498 83.678 213.633 82.4228 211.41 81.9429C205.555 80.7946 201.347 75.8649 201.153 69.8596C201.115 67.6054 200.098 65.5003 198.388 63.9772C196.678 62.454 194.465 61.8015 192.267 62.0507C186.337 62.7341 180.799 59.1797 178.887 53.5217C178.148 51.3986 176.621 49.7132 174.496 48.7542C172.437 47.8338 170.116 47.8331 168.022 48.6774C162.544 51.051 156.24 49.2868 152.751 44.5042C151.407 42.6566 149.465 41.5353 147.231 41.228C144.959 40.9877 142.808 41.6207 141.055 43.1092C136.491 46.9927 129.968 47.1555 125.227 43.6143C123.439 42.2251 121.149 41.7065 118.941 42.1283C116.733 42.5501 114.818 43.8557 113.563 45.7205C110.385 50.7612 104.16 52.882 98.5679 50.8141C96.4324 50.0276 94.1009 50.1995 92.1684 51.2268C90.1302 52.2824 88.7411 54.0698 88.1272 56.2157C86.5667 62.0117 81.2456 65.8151 75.3383 65.5298C73.0558 65.4621 70.8941 66.2678 69.2757 67.8336C67.6573 69.3995 66.7652 71.5632 66.8701 73.8561C67.064 79.8614 63.1851 85.0333 57.3752 86.59C55.1851 87.2901 53.4045 88.6729 52.3502 90.6537C51.2959 92.6345 51.1225 94.9454 51.8612 97.0684C53.7736 102.726 51.5689 108.865 46.5287 112.027C44.5859 113.227 43.3306 115.092 42.8508 117.315C42.4378 119.577 42.9266 121.823 44.2425 123.565C47.7987 128.387 47.5107 134.917 43.5676 139.427C42.0445 141.137 41.392 143.35 41.6412 145.547C41.8517 147.812 43.0129 149.822 44.8391 151.144C49.6478 154.724 51.2791 161.024 48.8376 166.49C47.9173 168.548 47.9165 170.869 48.7609 172.964C49.6722 175.097 51.3153 176.581 53.4508 177.368C59.0818 179.369 62.491 184.909 61.8218 190.862C61.5815 193.135 62.2146 195.286 63.7031 197.038C65.1916 198.791 67.211 199.778 69.4936 199.846C71.5262 200.037 73.4994 200.64 75.1736 201.607Z" fill="white"/>
<path d="M120.062 72.51L124.065 71.6071L124.423 73.1529L120.419 74.0559L120.062 72.51Z" fill="white"/>
<path d="M133.369 75.9071C132.826 75.147 132.476 74.0519 132.492 72.6324L132.532 67.9231C132.548 66.5036 132.821 65.4113 133.419 64.685C134.017 63.9587 134.978 63.5314 136.398 63.5473C137.75 63.5245 138.698 63.8932 139.213 64.5478C139.728 65.2023 140.089 66.1247 140.083 67.3716L140.088 68.4459L137.422 68.4244L137.427 67.1775C137.381 66.7937 137.402 66.4484 137.345 66.2372C137.288 66.0259 137.232 65.8146 137.07 65.6317C136.907 65.4487 136.668 65.3997 136.323 65.379C135.872 65.3865 135.516 65.5384 135.362 65.8063C135.207 66.0742 135.176 66.592 135.173 67.2155L135.127 73.1717C135.125 73.7952 135.199 74.2847 135.39 74.5733C135.58 74.8619 135.848 75.0165 136.299 75.009C136.75 75.0014 137.038 74.8108 137.193 74.5429C137.281 74.2364 137.379 73.7572 137.382 73.1338L137.415 71.9925L140.015 71.9753L140.02 73.0496C140.014 74.2965 139.712 75.2831 139.22 75.9811C138.661 76.6405 137.738 77.0009 136.386 77.0236C134.966 77.0077 133.951 76.6003 133.369 75.9071Z" fill="white"/>
<path d="M144.126 64.0804L149.791 64.9401L149.543 66.7614L146.524 66.2684L145.972 69.6998L148.339 70.0844L148.091 71.9057L145.791 71.5598L145.13 75.6429L148.188 76.069L147.94 77.8903L142.275 77.0306L144.126 64.0804Z" fill="white"/>
<path d="M153.653 65.8302L156.919 66.8231C158.279 67.2512 159.217 67.7925 159.76 68.5527C160.237 69.2742 160.319 70.2145 159.968 71.4407C159.677 72.2547 159.396 72.8961 158.991 73.2876C158.586 73.679 158.087 73.9262 157.386 74.0574L157.193 80.7324L154.54 79.9148L154.874 73.768L153.954 73.5049L152.193 79.185L149.645 78.3392L153.653 65.8302ZM155.246 72.1966C155.859 72.372 156.309 72.3644 156.637 72.1069C156.964 71.8494 157.263 71.4862 157.438 70.8731C157.614 70.2601 157.645 69.7422 157.56 69.4253C157.408 69.0698 157.112 68.8095 156.499 68.6341L155.579 68.371L154.46 72.0109L155.246 72.1966Z" fill="white"/>
<path d="M165.058 72.058L163.24 71.1867L164.111 69.3681L170.17 72.3302L169.298 74.1487L167.48 73.2774L162.582 83.3077L160.16 82.0884L165.058 72.058Z" fill="white"/>
<path d="M173.011 74.0597L175.249 75.4413L168.207 86.5555L165.969 85.174L173.011 74.0597Z" fill="white"/>
<path d="M178.605 77.8255L182.935 81.3073L181.777 82.693L179.532 80.8606L177.323 83.6036L179.206 85.137L178.01 86.5896L176.127 85.0562L172.423 89.6149L170.34 87.9655L178.605 77.8255Z" fill="white"/>
<path d="M185.456 83.7453L187.318 85.624L177.963 94.8671L176.101 92.9884L185.456 83.7453Z" fill="white"/>
<path d="M190.115 88.6674L193.692 93.1435L192.239 94.2689L190.341 91.8337L187.578 93.9891L189.028 95.8084L187.575 96.9338L186.125 95.1145L182.891 97.6227L184.789 100.058L183.335 101.183L179.797 96.6402L190.115 88.6674Z" fill="white"/>
<path d="M195.883 96.4623L197.482 99.2606C198.015 100.193 198.347 101.01 198.373 101.739C198.437 102.401 198.261 103.014 197.885 103.512C197.509 104.009 196.854 104.524 196.027 105.028L191.902 107.379C191.008 107.845 190.297 108.149 189.635 108.213C188.972 108.277 188.359 108.102 187.757 107.754C187.193 107.339 186.678 106.684 186.145 105.752L184.584 102.886L195.883 96.4623ZM187.693 104.771C187.912 105.165 188.141 105.387 188.409 105.541C188.61 105.657 188.888 105.639 189.166 105.621C189.483 105.536 189.772 105.346 190.272 105.099L195.041 102.405C195.474 102.12 195.763 101.929 195.946 101.767C196.129 101.605 196.245 101.404 196.227 101.125C196.209 100.847 196.124 100.53 195.905 100.136L195.658 99.6362L187.446 104.271L187.693 104.771Z" fill="white"/>
<path d="M196.792 114.221L197.945 118.101L196.427 118.564L195.275 114.684L196.792 114.221Z" fill="white"/>
<path d="M74.9415 152.362L76.1614 156.28L74.6438 156.744L73.4239 152.825L74.9415 152.362Z" fill="white"/>
<path d="M74.9908 167.124C75.3208 166.243 76.13 165.46 77.3514 164.736L81.4381 162.452C82.6594 161.729 83.7827 161.484 84.7127 161.575C85.6041 161.732 86.4643 162.408 87.1209 163.59C87.7774 164.773 87.9266 165.752 87.6352 166.566C87.3438 167.38 86.6789 168.068 85.6018 168.696L84.6691 169.229L83.3842 166.969L84.4613 166.341C84.8169 166.189 85.0385 165.96 85.2885 165.836C85.4714 165.674 85.5874 165.473 85.7034 165.272C85.7524 165.033 85.6958 164.821 85.5053 164.533C85.2864 164.138 84.9516 163.945 84.6064 163.924C84.2225 163.971 83.8669 164.123 83.3284 164.437L78.126 167.416C77.5875 167.73 77.2215 168.054 77.0669 168.322C76.9122 168.59 76.8915 168.935 77.1103 169.33C77.3292 169.724 77.5971 169.878 77.9423 169.899C78.2592 169.814 78.6817 169.701 79.2203 169.387L80.2973 168.759L81.5822 171.018L80.6494 171.551C79.5723 172.18 78.5546 172.396 77.7303 172.277C76.8389 172.12 76.1126 171.522 75.3891 170.3C74.7712 169.051 74.5551 168.033 74.9908 167.124Z" fill="white"/>
<path d="M89.9197 168.332L93.458 172.875L92.0047 174L90.1068 171.565L87.3443 173.72L88.7942 175.539L87.3408 176.665L85.891 174.846L82.657 177.354L84.5549 179.789L83.1015 180.914L79.5632 176.371L89.9197 168.332Z" fill="white"/>
<path d="M94.4316 173.972L96.9247 176.305C97.9755 177.269 98.5085 178.201 98.7349 179.046C98.8557 179.92 98.5257 180.801 97.7061 181.756C97.0799 182.377 96.5696 182.797 96.0028 183.005C95.436 183.214 94.8795 183.25 94.3051 183.007L91.2477 188.921L89.2131 187.032L92.2007 181.703L91.513 181.038L87.4747 185.404L85.574 183.592L94.4316 173.972ZM93.1466 180.374C93.605 180.817 94.0455 180.982 94.4294 180.936C94.8133 180.89 95.2462 180.604 95.6894 180.145C96.1327 179.687 96.3647 179.285 96.4241 178.873C96.4448 178.528 96.2646 178.067 95.8345 177.729L95.1468 177.064L92.5542 179.853L93.1466 180.374Z" fill="white"/>
<path d="M101.434 182.569L99.7697 181.43L100.87 179.833L106.426 183.665L105.325 185.262L103.662 184.123L97.2901 193.303L95.0622 191.749L101.434 182.569Z" fill="white"/>
<path d="M107.804 184.372L110.12 185.619L103.882 197.198L101.566 195.95L107.804 184.372Z" fill="white"/>
<path d="M112.206 186.645L117.348 188.721L116.659 190.377L113.988 189.281L112.65 192.527L114.881 193.458L114.154 195.181L111.923 194.25L109.721 199.765L107.251 198.786L112.206 186.645Z" fill="white"/>
<path d="M119.053 189.17L121.611 189.843L118.044 202.517L115.486 201.844L119.053 189.17Z" fill="white"/>
<path d="M123.824 190.495L129.45 191.422L129.202 193.243L126.183 192.75L125.631 196.182L127.998 196.566L127.711 198.455L125.344 198.07L124.683 202.153L127.702 202.646L127.387 204.429L121.656 203.53L123.824 190.495Z" fill="white"/>
<path d="M131.003 191.515L134.188 191.568C135.262 191.563 136.153 191.72 136.795 192.001C137.436 192.282 137.894 192.726 138.103 193.293C138.378 193.898 138.471 194.666 138.514 195.673L138.436 200.449C138.412 201.418 138.293 202.242 138.012 202.884C137.731 203.525 137.327 203.917 136.683 204.259C136.077 204.535 135.204 204.655 134.129 204.66L130.839 204.636L131.003 191.515ZM134.099 202.857C134.55 202.849 134.934 202.803 135.117 202.641C135.367 202.517 135.483 202.316 135.57 202.01C135.658 201.703 135.679 201.358 135.643 200.802L135.657 195.363C135.689 194.845 135.642 194.461 135.586 194.25C135.529 194.039 135.405 193.789 135.205 193.673C135.004 193.557 134.697 193.469 134.179 193.438L133.623 193.474L133.543 202.893L134.099 202.857Z" fill="white"/>
<path d="M146.449 197.397L150.414 196.561L150.771 198.107L146.806 198.943L146.449 197.397Z" fill="white"/>
<path d="M201.536 143.122L96.1923 82.3022L95.303 83.8426L200.647 144.663L201.536 143.122Z" fill="white"/>
<path d="M175.94 187.457L70.5959 126.636L69.7067 128.177L175.05 188.997L175.94 187.457Z" fill="white"/>
<path d="M159.201 92.8749L158.816 97.5635L162.525 100.419L157.954 101.531L156.409 105.907L153.981 101.916L149.244 101.77L152.262 98.2441L150.939 93.7301L155.266 95.5142L159.201 92.8749Z" fill="white"/>
<path d="M169.508 102.397L169.273 105.744L171.892 107.703L168.656 108.513L167.568 111.635L165.796 108.827L162.478 108.697L164.638 106.193L163.722 102.985L166.795 104.313L169.508 102.397Z" fill="white"/>
<path d="M145.734 88.6711L145.498 92.0175L148.118 93.9763L144.882 94.7868L143.794 97.9089L142.022 95.1002L138.704 94.9703L140.864 92.4669L139.947 89.2592L143.02 90.5869L145.734 88.6711Z" fill="white"/>
<path d="M102.878 98.8241L98.9808 105.575L92.7928 102.002L82.1444 120.446L74.6705 116.131L85.3189 97.687L79.0907 94.0911L82.9881 87.3406L102.878 98.8241Z" fill="white"/>
<path d="M117.463 131.89L113.589 138.6L95.9893 128.439L110.535 103.245L127.773 113.197L123.992 119.747L114.187 114.086L112.54 116.939L120.858 121.741L117.332 127.849L109.014 123.047L107.297 126.02L117.463 131.89Z" fill="white"/>
<path d="M127.533 146.651L119.858 142.22L143.445 122.245L151.2 126.723L145.414 156.974L137.779 152.566L138.753 148.467L130.556 143.735L127.533 146.651ZM142.827 131.854C141.956 132.744 141.035 133.658 140.064 134.598C139.135 135.526 138.281 136.355 137.503 137.084L135.584 138.923L140.406 141.707L141.039 139.126C142.231 134.278 142.827 131.854 142.827 131.854Z" fill="white"/>
<path d="M193.269 151.011L178.723 176.205L171.731 172.169L179.457 158.788L171.174 165.525L165.348 162.161L167.138 151.729L159.436 165.07L152.484 161.056L167.03 135.862L176.071 141.082L173.714 154.722L184.549 145.977L193.269 151.011Z" fill="white"/>
<path d="M112.107 174.444L112.425 169.717L108.717 166.861L113.287 165.75L114.87 161.306L117.366 165.337L122.036 165.444L118.98 169.037L120.302 173.551L115.975 171.766L112.107 174.444Z" fill="white"/>
<path d="M101.733 164.883L102.035 161.575L99.3877 159.511L102.585 158.767L103.712 155.578L105.445 158.454L108.802 158.517L106.603 161.087L107.558 164.228L104.513 163.006L101.733 164.883Z" fill="white"/>
<path d="M125.507 178.609L125.81 175.302L123.162 173.237L126.359 172.494L127.486 169.305L129.219 172.18L132.576 172.243L130.378 174.814L131.332 177.954L128.288 176.732L125.507 178.609Z" fill="white"/>
</svg>
