<svg width="60" height="60" viewBox="0 0 60 60" fill="none" xmlns="http://www.w3.org/2000/svg">
<path d="M9.50027 45.438L5.50007 43.1025C5.19098 42.9243 4.81059 42.9243 4.50149 43.102C4.19239 43.2797 4.00098 43.6089 4 43.9658V49.7029C4.00098 50.0594 4.19142 50.388 4.50002 50.5662L8.50022 52.9003C8.80932 53.0786 9.18971 53.079 9.4988 52.9008C9.80839 52.7231 9.99932 52.394 10.0003 52.037V46.3028C9.9998 45.9459 9.80937 45.6163 9.50027 45.438ZM8.0002 50.303L6.0001 49.1311V45.7081L8.0002 46.8751V50.303Z" fill="white"/>
<path d="M55.5003 43.1024C55.1907 42.9242 54.8098 42.9242 54.5002 43.1024L50.5 45.437C50.1914 45.6148 50.001 45.9434 50 46.2998V52.0379C50.001 52.3949 50.1924 52.724 50.5015 52.9017C50.8106 53.08 51.191 53.0795 51.5001 52.9012L55.5003 50.5671C55.8089 50.3889 55.9998 50.0593 56.0003 49.7028V43.9667C55.9998 43.6103 55.8089 43.2811 55.5003 43.1024ZM54.0002 49.131L52.0001 50.303V46.8751L54.0002 45.708V49.131Z" fill="white"/>
<path d="M59.9219 36.637C59.9067 36.5911 59.8882 36.5462 59.8662 36.5033C59.8477 36.4759 59.8281 36.4495 59.8071 36.4241C59.7769 36.3792 59.7437 36.3367 59.707 36.2972C59.6899 36.2801 59.668 36.2679 59.6489 36.2523C59.604 36.2093 59.5547 36.1712 59.502 36.138L47.502 29.1377C47.1904 28.956 46.8057 28.956 46.4942 29.1377L44.187 30.4839L40.7632 24.8835L42.5 23.8654C42.8086 23.6872 42.9995 23.3581 43 23.0016V8.00088C43 7.91298 42.9883 7.82558 42.9649 7.74061C42.9531 7.70497 42.939 7.66981 42.9219 7.63563C42.9068 7.58973 42.8882 7.5448 42.8662 7.50183C42.8477 7.47449 42.8281 7.44812 42.8071 7.42273C42.7769 7.3778 42.7437 7.33532 42.7071 7.29577C42.69 7.27868 42.668 7.26647 42.6489 7.25084C42.604 7.20787 42.5547 7.16978 42.502 7.13658L30.502 0.136237C30.1905 -0.0454124 29.8057 -0.0454124 29.4942 0.136237L17.4942 7.13658C17.44 7.17076 17.3892 7.20983 17.3433 7.25377C17.3262 7.26891 17.3052 7.27965 17.2901 7.29577C17.253 7.3363 17.2198 7.37976 17.19 7.42566C17.1719 7.45154 17.149 7.47351 17.1333 7.50183C17.1089 7.54871 17.0884 7.59754 17.0723 7.64783C17.0577 7.67762 17.045 7.70838 17.0342 7.73964C17.0113 7.8246 16.9996 7.9125 17 8.00088V23.0016C17.001 23.3581 17.1915 23.6872 17.5 23.8654L19.2393 24.8806L15.815 30.481L13.5 29.1377C13.1885 28.956 12.8038 28.956 12.4922 29.1377L0.492248 36.138C0.438049 36.1722 0.387268 36.2112 0.340881 36.2552C0.324279 36.2703 0.303283 36.2811 0.288147 36.2972C0.251037 36.3377 0.217834 36.3812 0.188049 36.4271C0.169983 36.453 0.147034 36.4749 0.13092 36.5033C0.106995 36.5501 0.0864867 36.599 0.0698852 36.6493C0.055725 36.679 0.0430297 36.7098 0.0322875 36.7411C0.00982665 36.8265 -0.000915526 36.9139 6.10351e-05 37.0023V52.003C0.0010376 52.3595 0.191467 52.6886 0.50006 52.8668L12.5 59.8672C12.5508 59.8936 12.6036 59.9155 12.6583 59.9321C12.6861 59.9424 12.712 59.9585 12.7403 59.9663C12.9092 60.0112 13.087 60.0112 13.2559 59.9663C13.2842 59.9585 13.3101 59.9424 13.3379 59.9321C13.3926 59.9155 13.4454 59.8936 13.4961 59.8672L25.4961 52.8668C25.8062 52.6896 25.9986 52.3605 26 52.003V49.0029H34V52.003C34.001 52.3595 34.1914 52.6886 34.5 52.8668L46.5 59.8672C46.5508 59.8936 46.6035 59.9155 46.6582 59.9321C46.6861 59.9424 46.7119 59.9585 46.7402 59.9663C46.9092 60.0112 47.0869 60.0112 47.2559 59.9663C47.2842 59.9585 47.3101 59.9424 47.3379 59.9321C47.3926 59.9155 47.4453 59.8936 47.4961 59.8672L59.4961 52.8668C59.8062 52.6896 59.9985 52.3605 60 52.003V37.0023C60 36.9144 59.9883 36.827 59.9648 36.742C59.9531 36.7064 59.939 36.6712 59.9219 36.637ZM47 31.1587L57.0151 37.0023L47 42.8444L36.9849 37.0023L43.5 33.2018L44.3003 34.5168L46.0069 33.4738L45.2251 32.194L47 31.1587ZM39.7212 23.1735L38.75 21.5836L37.043 22.6266L37.9932 24.1814L31 28.2607V15.576L41 9.74266V22.4274L39.7212 23.1735ZM30 2.15733L40.0152 8.00088L30 13.843L19.9849 8.00088L30 2.15733ZM19 22.4274V9.74266L29 15.576V28.2607L22.0069 24.1814L22.9571 22.6266L21.25 21.5836L20.2793 23.1735L19 22.4274ZM13 31.1587L14.7681 32.191L13.9859 33.4709L15.6929 34.5139L16.4932 33.1989L23.0152 37.0023L13 42.8444L2.98492 37.0023L13 31.1587ZM2.00006 38.7441L12 44.5774V57.2621L2.00006 51.4288V38.7441ZM24 51.4288L14 57.2621V44.5774L24 38.7441V47.0028H21V49.0029H24V51.4288ZM26 47.0028V37.0023C26 36.9144 25.9883 36.827 25.9649 36.742C25.9532 36.7064 25.939 36.6712 25.9219 36.637C25.9068 36.5911 25.8882 36.5462 25.8662 36.5033C25.8477 36.4759 25.8282 36.4495 25.8072 36.4241C25.7769 36.3792 25.7437 36.3367 25.7071 36.2972C25.69 36.2801 25.668 36.2679 25.649 36.2523C25.604 36.2093 25.5547 36.1712 25.502 36.138L17.5401 31.4918L20.9639 25.8914L29.5 30.8658H29.5049C29.5557 30.8921 29.6084 30.9141 29.6631 30.9307C29.6909 30.941 29.7173 30.9571 29.7451 30.9649C29.9141 31.0098 30.0918 31.0098 30.2613 30.9649C30.2891 30.9571 30.315 30.941 30.3433 30.9307C30.3975 30.9141 30.4507 30.8921 30.501 30.8658L39.0332 25.8885L42.4571 31.4888L34.5 36.138C34.4458 36.1722 34.3955 36.2112 34.3491 36.2552C34.3321 36.2703 34.3111 36.2811 34.2959 36.2972C34.2593 36.3377 34.2256 36.3812 34.1963 36.4271C34.1782 36.453 34.1553 36.4749 34.1392 36.5033C34.1148 36.5501 34.0943 36.599 34.0782 36.6493C34.0635 36.679 34.0508 36.7098 34.0401 36.7411C34.0152 36.826 34.0015 36.9139 34 37.0023V47.0028H26ZM36 49.0029H39V47.0028H36V38.7441L46 44.5774V57.2621L36 51.4288V49.0029ZM48 57.2621V44.5774L58 38.7441V51.4288L48 57.2621Z" fill="white"/>
<path d="M25.4341 8.86471L29.499 11.234C29.8105 11.4156 30.1958 11.4156 30.5073 11.234L34.5679 8.86471C34.8755 8.6855 35.0644 8.35638 35.0644 8.0009C35.0644 7.64492 34.8755 7.3158 34.5679 7.1366L30.499 4.76734C30.1875 4.58569 29.8027 4.58569 29.4912 4.76734L25.4341 7.1366C25.1265 7.3158 24.9375 7.64492 24.9375 8.0009C24.9375 8.35638 25.1265 8.6855 25.4341 8.86471ZM29.999 6.78844L32.0762 8.0009L29.999 9.21287L27.9219 8.0009L29.999 6.78844Z" fill="white"/>
<path d="M35.1484 19.523L36.8551 18.48L37.8327 20.0792L36.126 21.1222L35.1484 19.523Z" fill="white"/>
<path d="M45.1172 35.8926L46.8233 34.8506L47.8229 36.4864L46.1167 37.5289L45.1172 35.8926Z" fill="white"/>
<path d="M22.1699 20.078L23.1475 18.4788L24.8541 19.5223L23.8765 21.121L22.1699 20.078Z" fill="white"/>
<path d="M12.1465 36.4805L13.1465 34.8438L14.8532 35.8868L13.8531 37.5231L12.1465 36.4805Z" fill="white"/>
<path d="M41 47.0029H43.0001V49.003H41V47.0029Z" fill="white"/>
<path d="M17 47.0029H19.0001V49.003H17V47.0029Z" fill="white"/>
</svg>
