<svg width="60" height="60" viewBox="0 0 60 60" fill="none" xmlns="http://www.w3.org/2000/svg">
<path d="M9.22957 4.7124H6.92188V6.83884H9.22957V4.7124Z" fill="white"/>
<path d="M23.0775 4.7124H11.5391V6.83884H23.0775V4.7124Z" fill="white"/>
<path d="M23.0768 8.96533H4.61523V11.0918H23.0768V8.96533Z" fill="white"/>
<path d="M19.6152 13.2183H4.61523V15.3447H19.6152V13.2183Z" fill="white"/>
<path d="M41.5382 15.3442H39.2305V17.4707H41.5382V15.3442Z" fill="white"/>
<path d="M55.3842 15.3442H43.8457V17.4707H55.3842V15.3442Z" fill="white"/>
<path d="M55.3834 19.5972H36.9219V21.7236H55.3834V19.5972Z" fill="white"/>
<path d="M51.9219 23.8501H36.9219V25.9765H51.9219V23.8501Z" fill="white"/>
<path d="M2.33203 23.8042C2.31587 24.1689 2.30664 24.541 2.30664 24.9131C2.30664 25.2853 2.31587 25.6574 2.33203 26.0221L4.63972 25.9306C4.62241 25.5936 4.61433 25.2534 4.61433 24.9131C4.61433 24.5729 4.62241 24.2327 4.63856 23.8956L2.33203 23.8042Z" fill="white"/>
<path d="M13.1441 45.1602L14.5494 43.474C11.8962 41.6104 9.67083 39.28 8.00249 36.6179C6.33414 33.9557 5.25601 31.0149 4.8306 27.9658L2.53906 28.2401C3.00344 31.5668 4.17998 34.7755 6.00043 37.68C7.82089 40.5845 10.249 43.1271 13.1441 45.1602Z" fill="white"/>
<path d="M49.8949 7.16292C46.1337 3.57151 41.308 1.08024 36.0199 0L35.5215 2.07647C40.3661 3.06986 44.7865 5.35459 48.2323 8.64611L49.8949 7.16292Z" fill="white"/>
<path d="M52.3373 30.2296H58.8462C59.1522 30.2296 59.4457 30.1176 59.662 29.9182C59.8784 29.7188 60 29.4484 60 29.1664V12.1549C60 11.8729 59.8784 11.6025 59.662 11.4031C59.4457 11.2037 59.1522 11.0917 58.8462 11.0917H47.5258C45.3643 8.75496 42.6775 6.8791 39.6513 5.594C36.6252 4.30891 33.3321 3.6453 30 3.64913C29.2281 3.64913 28.4573 3.69698 27.6923 3.76715V1.52269C27.6923 1.24071 27.5707 0.970275 27.3544 0.770883C27.138 0.57149 26.8445 0.459473 26.5385 0.459473H1.15385C0.847827 0.459473 0.554342 0.57149 0.337954 0.770883C0.121566 0.970275 0 1.24071 0 1.52269V18.5342C0 18.8162 0.121566 19.0866 0.337954 19.286C0.554342 19.4854 0.847827 19.5974 1.15385 19.5974H7.66038C6.28257 24.4887 6.84623 29.6726 9.24975 34.2148C11.6533 38.7569 15.7385 42.3585 20.7692 44.3705V45.1147H19.6154C19.3094 45.1147 19.0159 45.2267 18.7995 45.4261C18.5831 45.6255 18.4615 45.896 18.4615 46.1779V54.6837C18.4615 54.9657 18.5831 55.2361 18.7995 55.4355C19.0159 55.6349 19.3094 55.7469 19.6154 55.7469H20.7692V56.8102C20.7692 57.6561 21.1339 58.4674 21.7831 59.0656C22.4323 59.6638 23.3127 59.9998 24.2308 59.9998H35.7692C36.6873 59.9998 37.5677 59.6638 38.2169 59.0656C38.8661 58.4674 39.2308 57.6561 39.2308 56.8102V55.7469H40.3846C40.6906 55.7469 40.9841 55.6349 41.2005 55.4355C41.4169 55.2361 41.5385 54.9657 41.5385 54.6837V46.1779C41.5385 45.896 41.4169 45.6255 41.2005 45.4261C40.9841 45.2267 40.6906 45.1147 40.3846 45.1147H39.2308V44.3705C42.4382 43.0864 45.2856 41.1455 47.5567 38.6951C49.8278 36.2448 51.4628 33.3496 52.3373 30.2296ZM57.6923 28.1032H47.3077C47.058 28.1032 46.8151 28.1778 46.6154 28.3158L43.8462 30.2296V29.1664C43.8462 28.8844 43.7246 28.614 43.5082 28.4146C43.2918 28.2152 42.9983 28.1032 42.6923 28.1032H34.6154V13.2181H57.6923V28.1032ZM32.3077 33.4193V45.1147H27.6923V33.4193C27.6925 33.2544 27.651 33.0917 27.5712 32.944L24.1281 26.5998L29.6827 28.0628C29.8901 28.117 30.1099 28.117 30.3173 28.0628L32.3077 27.5386V29.1664C32.3077 29.4484 32.4293 29.7188 32.6456 29.9182C32.862 30.1176 33.1555 30.2296 33.4615 30.2296H33.9023L32.4231 32.944C32.3452 33.0921 32.3057 33.2548 32.3077 33.4193ZM2.30769 2.58591H25.3846V17.471H16.1538C15.8478 17.471 15.5543 17.583 15.338 17.7824C15.1216 17.9818 15 18.2522 15 18.5342V19.5974L12.2308 17.6836C12.031 17.5456 11.7881 17.471 11.5385 17.471H2.30769V2.58591ZM22.3488 42.6693C17.5449 40.9309 13.6202 37.5997 11.3461 33.3305C9.07207 29.0613 8.61303 24.1627 10.0592 19.5974H11.1542L15.4615 22.5745C15.6613 22.7125 15.9042 22.7871 16.1538 22.7871C16.4599 22.7871 16.7534 22.6751 16.9697 22.4757C17.1861 22.2763 17.3077 22.0059 17.3077 21.7239V19.5974H26.5385C26.8445 19.5974 27.138 19.4854 27.3544 19.286C27.5707 19.0866 27.6923 18.8162 27.6923 18.5342V5.90635C28.4584 5.82387 29.2288 5.78021 30 5.77557C35.3497 5.77005 40.4935 7.67557 44.3504 11.0917H33.4615C33.1555 11.0917 32.862 11.2037 32.6456 11.4031C32.4293 11.6025 32.3077 11.8729 32.3077 12.1549V25.3261L30 25.9342L22.2404 23.8907C22.069 23.8462 21.8889 23.8385 21.7138 23.8684C21.5387 23.8983 21.3734 23.9648 21.2308 24.063L16.6154 27.2526L18 28.9538L21.5088 26.5286L25.3846 33.6702V45.1147H23.0769V43.6592C23.0773 43.4459 23.0081 43.2375 22.8782 43.061C22.7484 42.8845 22.5639 42.748 22.3488 42.6693ZM20.7692 47.2412H39.2308V49.3676H20.7692V47.2412ZM36.9231 56.8102C36.9231 57.0921 36.8015 57.3626 36.5851 57.562C36.3687 57.7614 36.0752 57.8734 35.7692 57.8734H24.2308C23.9247 57.8734 23.6313 57.7614 23.4149 57.562C23.1985 57.3626 23.0769 57.0921 23.0769 56.8102V55.7469H36.9231V56.8102ZM39.2308 53.6205H20.7692V51.494H39.2308V53.6205ZM34.6154 45.1147V33.6702L36.4823 30.2296H41.5385V32.3561C41.5385 32.5535 41.5981 32.7471 41.7108 32.9151C41.8234 33.083 41.9846 33.2188 42.1763 33.3071C42.368 33.3954 42.5825 33.4327 42.7959 33.415C43.0093 33.3973 43.2132 33.3251 43.3846 33.2067L47.6919 30.2296H49.9512C49.0684 33.0312 47.5008 35.6091 45.3686 37.7654C43.2364 39.9218 40.5964 41.5994 37.6512 42.6693C37.4362 42.7479 37.2519 42.8842 37.1221 43.0606C36.9923 43.2369 36.9229 43.4451 36.9231 43.6581V45.1147H34.6154Z" fill="white"/>
</svg>
