<svg width="60" height="60" viewBox="0 0 60 60" fill="none" xmlns="http://www.w3.org/2000/svg">
<path d="M46.5021 32.0099L40.0139 23.7505C42.3178 21.3885 43.709 18.2858 43.9402 14.9943H53.9868V16.0938C51.6612 16.5718 49.9912 18.6175 49.9885 20.9917C49.9892 23.7519 52.2272 25.989 54.9874 25.9885C57.7475 25.988 59.9847 23.7499 59.9842 20.9897C59.9837 18.6151 58.3125 16.5688 55.9859 16.0938V13.9948C55.9859 13.4428 55.5384 12.9952 54.9864 12.9952H43.9402C43.7448 10.2258 42.7247 7.57818 41.0114 5.39351L42.4058 3.99912H54.1707C54.7227 5.56056 56.4361 6.37883 57.9974 5.82669C59.5589 5.27468 60.3771 3.56131 59.825 1.99999C59.2729 0.438667 57.5597 -0.379727 55.9984 0.172283C55.1444 0.474151 54.4727 1.14598 54.1708 1.99986H41.9921C41.727 1.99986 41.4729 2.10532 41.2855 2.29273L39.6712 3.90703C34.1163 -1.44264 25.2764 -1.27634 19.9266 4.27849C17.6529 6.63947 16.2821 9.72512 16.0544 12.9951H7.6581L4.3904 5.6454C5.85114 4.87661 6.41214 3.0694 5.64348 1.60866C4.87481 0.147919 3.06748 -0.412962 1.60674 0.355703C0.146123 1.12437 -0.414883 2.93158 0.353782 4.39232C0.757731 5.15998 1.47542 5.71437 2.3203 5.91116L6.09366 14.4015C6.25434 14.7622 6.61243 14.9944 7.00726 14.9942H16.0543C16.2845 18.2478 17.6489 21.3174 19.9096 23.6684L11.4713 32.1067C6.01507 31.2892 0.929157 35.0496 0.111638 40.5058C-0.705881 45.9621 3.05448 51.048 8.51073 51.8655C8.67541 51.8903 8.84071 51.9107 9.00639 51.9271V56.9759C9.00639 57.5279 9.45394 57.9755 10.006 57.9755H19.186C19.738 59.5369 21.4513 60.3552 23.0127 59.8031C24.574 59.2509 25.3924 57.5377 24.8402 55.9763C24.2881 54.415 22.5749 53.5966 21.0135 54.1488C20.1595 54.4506 19.4878 55.1225 19.186 55.9763H11.0055V51.9271C16.4954 51.3798 20.5023 46.4857 19.955 40.9958C19.5847 37.2809 17.1737 34.0824 13.7043 32.7035L21.401 25.0068C26.4133 28.9534 33.4685 28.9817 38.5125 25.0758L44.0581 32.1347C36.4008 33.2029 31.0593 40.2762 32.1274 47.9334C33.1956 55.5906 40.2689 60.9322 47.9261 59.864C55.5834 58.7959 60.9249 51.7226 59.8567 44.0654C58.9186 37.3396 53.2885 32.2572 46.5021 32.0099ZM57.9851 20.9917C57.9851 22.6479 56.6425 23.9904 54.9864 23.9904C53.3302 23.9904 51.9877 22.6479 51.9877 20.9917C51.9877 19.3356 53.3302 17.993 54.9864 17.993C56.6425 17.993 57.9851 19.3356 57.9851 20.9917ZM56.9855 1.99999C57.5375 1.99999 57.9851 2.44754 57.9851 2.99955C57.9851 3.55156 57.5375 3.99912 56.9855 3.99912C56.4335 3.99912 55.9859 3.55156 55.9859 2.99955C55.9859 2.44754 56.4335 1.99999 56.9855 1.99999ZM3.009 3.99912C2.45699 3.99912 2.00944 3.55156 2.00944 2.99955C2.00944 2.44754 2.45699 1.99999 3.009 1.99999C3.56101 1.99999 4.00856 2.44754 4.00856 2.99955C4.00856 3.55156 3.56101 3.99912 3.009 3.99912ZM22.0007 55.9765C22.5527 55.9765 23.0003 56.424 23.0003 56.976C23.0003 57.528 22.5527 57.9756 22.0007 57.9756C21.4487 57.9756 21.0012 57.528 21.0012 56.976C21.0012 56.424 21.4487 55.9765 22.0007 55.9765ZM14.0042 48.8976C11.5339 50.3402 8.47799 50.3402 6.00769 48.8976V46.9804C6.00769 44.7722 7.79779 42.9821 10.006 42.9821C12.2141 42.9821 14.0042 44.7722 14.0042 46.9804V48.8976ZM8.00682 38.9839C8.00682 37.8797 8.90181 36.9847 10.006 36.9847C11.1101 36.9847 12.0051 37.8797 12.0051 38.9839C12.0051 40.088 11.1101 40.983 10.006 40.983C8.90181 40.983 8.00682 40.0879 8.00682 38.9839ZM16.0033 36.6759C17.2955 38.1411 18.0067 40.0288 18.0025 41.9826C18.0021 43.925 17.291 45.8 16.0033 47.2543V46.9804C16.0021 44.7951 14.8122 42.7833 12.8977 41.7297C14.4224 40.1324 14.3634 37.6015 12.7661 36.0768C11.1688 34.5522 8.63792 34.611 7.11321 36.2083C5.63848 37.7533 5.63848 40.1846 7.11321 41.7296C5.19905 42.7835 4.00969 44.7951 4.00856 46.9803V47.2541C1.08746 43.9418 1.40457 38.8887 4.71676 35.9676C8.02906 33.0465 13.0822 33.3636 16.0033 36.6759ZM36.9942 23.7145C32.8214 26.744 27.1731 26.744 23.0003 23.7145V21.2916C23.0003 19.4699 24.4771 17.993 26.2989 17.993H28.5179L27.0675 21.6194C26.919 21.9909 27.0063 22.4153 27.2894 22.698L29.2886 24.6971C29.6789 25.0873 30.3116 25.0873 30.7019 24.6971L32.7011 22.698C32.9842 22.4152 33.0715 21.9909 32.923 21.6194L31.4736 17.993H33.6956C35.5173 17.993 36.9942 19.4699 36.9942 21.2916V23.7145ZM30.1403 7.4826C30.1028 7.54507 30.0723 7.61129 30.0493 7.68039C29.5436 9.19673 26.8129 9.77148 25.0546 9.9384C25.3228 6.58861 26.8991 4.99856 29.9974 4.99856C32.8341 4.99856 34.3955 6.33997 34.8423 9.13875L31.5117 7.13962C31.0382 6.85575 30.4242 7.0093 30.1403 7.4826ZM31.3756 9.39077L34.9481 11.5348C34.5473 13.9818 31.5316 15.9939 29.9972 15.9939C27.7678 15.6142 25.9133 14.0682 25.1384 11.9437C26.8496 11.8027 29.9393 11.2839 31.3756 9.39077ZM30.8229 21.7504L29.9972 22.577L29.1716 21.7504L29.9972 19.6843L30.8229 21.7504ZM34.3583 16.0399C35.9177 14.8128 36.8771 12.9768 36.9942 10.9961C36.9942 4.38695 33.1889 2.99955 29.9972 2.99955C26.8056 2.99955 23.0003 4.38695 23.0003 10.9961C23.1165 12.978 24.0761 14.8152 25.6361 16.0429C22.9865 16.3694 20.9973 18.6219 21.0012 21.2916V21.8993C16.6194 16.931 17.095 9.35116 22.0634 4.96944C27.0319 0.587727 34.6116 1.06327 38.9933 6.0316C42.9916 10.5653 42.9916 17.3655 38.9933 21.8992V21.2915C38.9987 18.6207 37.0091 16.3664 34.3583 16.0399ZM52.9872 55.7006C48.8144 58.73 43.1661 58.73 38.9933 55.7006V53.2776C38.9933 51.4559 40.4702 49.9791 42.2919 49.9791H44.5109L43.0606 53.6055C42.912 53.977 42.9993 54.4013 43.2825 54.684L45.2816 56.6832C45.6719 57.0734 46.3046 57.0734 46.695 56.6832L48.6941 54.684C48.9772 54.4013 49.0646 53.977 48.916 53.6055L47.4666 49.9791H49.6887C51.5104 49.9791 52.9872 51.4559 52.9872 53.2776V55.7006ZM47.3687 41.3768V41.3758L50.9411 43.5199C50.5403 45.9678 47.5246 47.98 45.9903 47.98C43.7609 47.6002 41.9063 46.0543 41.1314 43.9297C42.8426 43.7888 45.9323 43.2699 47.3687 41.3768ZM41.0474 41.9246C41.3153 38.5751 42.8916 36.9847 45.9903 36.9847C48.827 36.9847 50.3884 38.3262 50.8352 41.1249L47.5046 39.1258C47.0312 38.8418 46.4172 38.9954 46.1332 39.4688C46.0957 39.5313 46.0652 39.5975 46.0423 39.6666C45.5365 41.1829 42.8057 41.7577 41.0474 41.9246ZM46.8159 53.7365L45.9903 54.5631L45.1646 53.7365L45.9903 51.6703L46.8159 53.7365ZM54.9864 53.8883V53.2775C54.9917 50.6067 53.0021 48.3524 50.3514 48.0258C51.9107 46.7987 52.8702 44.9628 52.9872 42.982C52.9872 36.3729 49.1819 34.9855 45.9903 34.9855C42.7987 34.9855 38.9933 36.3729 38.9933 42.982C39.1095 44.9639 40.0691 46.8011 41.6292 48.0288C38.9796 48.3553 36.9903 50.6078 36.9942 53.2775V53.8853C32.6227 48.913 33.1098 41.3384 38.082 36.9669C43.0542 32.5954 50.6289 33.0824 55.0004 38.0547C56.9265 40.2455 57.9877 43.0635 57.9851 45.9806C57.9844 48.8943 56.9179 51.707 54.9864 53.8883Z" fill="white"/>
</svg>
