<svg width="60" height="60" viewBox="0 0 60 60" fill="none" xmlns="http://www.w3.org/2000/svg">
<path d="M23.6526 13.3809C23.4149 13.0398 22.9675 12.9723 22.6532 13.2301L16.4395 18.3335C16.1251 18.5918 16.063 19.078 16.3008 19.4196C16.3404 19.4765 16.3872 19.5272 16.4395 19.5702L22.6532 24.6736C22.9647 24.936 23.4131 24.8745 23.6547 24.5361C23.8964 24.1977 23.8397 23.7107 23.5281 23.4483C23.5235 23.4444 23.5189 23.4405 23.5141 23.4368L18.0532 18.9519L23.5141 14.467C23.8286 14.2086 23.8905 13.7223 23.6526 13.3809Z" fill="white"/>
<path d="M35.7889 18.3335L29.5752 13.2301C29.2597 12.9734 28.8124 13.0429 28.5758 13.3856C28.3407 13.7262 28.4025 14.209 28.7142 14.467L34.1751 18.9519L28.7142 23.4368C28.3968 23.6909 28.3292 24.1762 28.5631 24.521C28.797 24.8658 29.2439 24.9392 29.5613 24.6851C29.5661 24.6814 29.5707 24.6775 29.5753 24.6736L35.789 19.5703C36.1035 19.3119 36.1656 18.8257 35.9277 18.4842C35.888 18.4273 35.8414 18.3765 35.7889 18.3335Z" fill="white"/>
<path d="M27.28 10.6152C26.8902 10.5515 26.5266 10.8425 26.4673 11.2657L24.3461 26.488C24.2869 26.9114 24.555 27.3067 24.9449 27.371C25.3347 27.4352 25.6987 27.144 25.7578 26.7206L27.8789 11.4989C27.9385 11.0756 27.6708 10.6801 27.281 10.6153C27.2807 10.6153 27.2803 10.6153 27.28 10.6152Z" fill="white"/>
<path d="M56.3459 22.6349H52.1285V0.88153C52.1285 0.45329 51.7604 0.150394 51.3663 0.150394H0.858774C0.479722 0.129461 0.156706 0.446312 0.137433 0.858011C0.137076 0.865894 0.136838 0.873776 0.136719 0.88153V44.6563C0.136719 45.0844 0.464493 45.3779 0.858774 45.3779H18.4759L16.6444 52.4851H13.444C13.0497 52.4851 12.7302 52.8322 12.7302 53.2604C12.7302 53.6887 13.0497 54.0358 13.444 54.0358H38.7813C39.0339 54.052 39.2731 53.9111 39.3983 53.6722V56.0852C39.4087 58.1763 40.9779 59.8621 42.903 59.8508C42.9072 59.8508 42.9114 59.8508 42.9156 59.8507H56.3459C58.27 59.8698 59.8441 58.1913 59.8618 56.1015C59.8618 56.0961 59.8619 56.0906 59.8619 56.0852V26.403C59.8527 24.312 58.2846 22.625 56.3594 22.6348C56.355 22.6349 56.3505 22.6349 56.3459 22.6349ZM40.826 36.3418V30.1298H58.4342V51.1929H40.826V36.3418ZM58.4342 26.4034V28.5791H40.826V26.4034C40.8349 25.1688 41.7635 24.1758 42.9002 24.1855C42.9053 24.1855 42.9104 24.1856 42.9156 24.1856H56.3459C57.4819 24.167 58.4168 25.152 58.4339 26.386C58.4341 26.3918 58.4342 26.3976 58.4342 26.4034ZM1.56441 1.70105H50.7008V22.6349H42.9156C40.9896 22.6171 39.5527 24.538 39.3983 26.4034V34.7817H1.56441V1.70105ZM1.56441 36.3324H39.3983V43.8273H1.56441V36.3324ZM19.9587 45.3779H32.2665L34.0978 52.4851H18.1272L19.9587 45.3779ZM38.7813 52.4851H35.5809L33.7494 45.3779H39.3983V52.9297C39.282 52.671 39.046 52.501 38.7813 52.4851ZM56.3459 58.3001H42.9156C41.7801 58.3202 40.8446 57.3367 40.8262 56.1034C40.8261 56.0974 40.8261 56.0913 40.826 56.0852V52.7435H58.4342V56.0852C58.4256 57.3179 57.4988 58.3095 56.3639 58.3003C56.358 58.3003 56.3519 58.3002 56.3459 58.3001Z" fill="white"/>
<path fill-rule="evenodd" clip-rule="evenodd" d="M0.86281 0.000983263H51.367C51.814 0.000983263 52.2667 0.347713 52.2667 0.881372V22.4855H56.3466L56.3564 22.4854L56.3594 22.4854C58.3606 22.4752 59.9905 24.2287 60 26.4022V56.085L59.9999 56.1013L59.9999 56.1027C59.9816 58.2747 58.3456 60.0194 56.3459 59.9998H42.9181C42.9127 59.9999 42.9077 59.9999 42.9042 59.9999C40.9036 60.0112 39.2724 58.2591 39.2616 56.0859L39.2616 56.085V54.0432C39.121 54.1434 38.9523 54.1951 38.7781 54.1848H13.4447C12.9745 54.1848 12.5934 53.7709 12.5934 53.2603C12.5934 52.7496 12.9745 52.3357 13.4447 52.3357H16.5409L18.2955 45.527H0.859474C0.404764 45.527 0 45.1826 0 44.6562V0.878884C0.000143781 0.869514 0.000449804 0.860017 0.000879737 0.850522C0.0239463 0.357809 0.409545 -0.0219123 0.86281 0.000983263ZM0.275379 0.865309C0.275116 0.87114 0.274935 0.876967 0.274836 0.882689V44.6562C0.274836 44.986 0.525621 45.2285 0.859474 45.2285H18.6578L16.7494 52.6342H13.4447C13.1263 52.6342 12.8683 52.9145 12.8683 53.2603C12.8683 53.6061 13.1263 53.8863 13.4447 53.8863H38.7861L38.7901 53.8866C38.9905 53.8995 39.1803 53.7877 39.2796 53.5983L39.5364 53.1082V56.0842C39.5465 58.0929 41.0537 59.7122 42.903 59.7014H42.9037L42.9125 59.7014L42.9163 59.7012L56.3466 59.7013L56.3479 59.7013C58.1961 59.7197 59.7081 58.1073 59.7251 56.1L59.7252 56.085V26.4036C59.7164 24.3954 58.2108 22.7752 56.362 22.7839C56.3561 22.784 56.3505 22.784 56.3466 22.784H51.9918V0.881372C51.9918 0.558551 51.7083 0.299491 51.367 0.299491H0.852487C0.54926 0.282744 0.290857 0.536003 0.275379 0.865309ZM1.42769 1.55164H50.839V22.784H42.9163L42.9152 22.784C41.0651 22.7669 39.5364 25.2581 39.5364 26.4052M39.5364 26.4052V34.9308H1.42769V1.55164M1.70253 1.85015V34.6323H39.2616V26.3987L39.2617 26.3903L39.2617 26.3891C39.2788 24.2147 40.9153 22.4673 42.917 22.4855H50.5641V1.85015H1.70253ZM58.2972 26.3881C58.2813 25.2366 57.4088 24.3173 56.3487 24.3347L56.3466 24.3347H42.9163L42.9009 24.3346L42.8998 24.3346C41.8392 24.3255 40.9727 25.252 40.9641 26.4039V28.4297H58.2975V26.4033C58.2975 26.3994 58.2974 26.3953 58.2973 26.3891L58.2972 26.3881ZM58.572 26.3829C58.5534 25.0672 57.5567 24.0169 56.3456 24.0362H42.9163L42.902 24.0361C41.6894 24.0257 40.6988 25.0851 40.6893 26.4021L40.6893 26.4033V28.7282H58.5723V26.4033C58.5723 26.3961 58.5722 26.3892 58.5721 26.3838L58.572 26.3829ZM40.6893 29.9804H58.5723V51.342H40.6893V29.9804ZM40.9641 30.2789V51.0435H58.2975V30.2789H40.9641ZM1.42769 36.183H39.5364V43.9763H1.42769V36.183ZM1.70253 36.4815V43.6778H39.2616V36.4815H1.70253ZM19.8552 45.2285H32.3714L34.2797 52.6342H17.9467L19.8552 45.2285ZM20.0636 45.527L18.3091 52.3357H33.9174L32.1629 45.527H20.0636ZM33.5689 45.2285H39.5364V52.9296L39.2755 52.995C39.1816 52.7862 38.9916 52.6484 38.778 52.6342H35.4773L33.5689 45.2285ZM38.782 52.485L38.7896 52.3359C38.9634 52.3463 39.1268 52.4128 39.2616 52.522V45.527H33.9312L35.6858 52.3357H38.782V52.485ZM40.6893 52.5941H58.5723V56.085L58.5723 56.0862C58.5632 57.401 57.5747 58.4589 56.3642 58.4494C56.3572 58.4494 56.3504 58.4493 56.345 58.4492H42.9175C41.7066 58.47 40.7092 57.421 40.6895 56.1057L40.8269 56.1033L40.6895 56.1064L40.6895 56.1057L40.6893 56.0882L40.6893 56.085V52.5941ZM56.3466 58.3L56.3494 58.1507C56.3556 58.1508 56.3603 58.1509 56.3646 58.1509L56.3656 58.1509C57.4245 58.1595 58.2892 57.2345 58.2975 56.0845V52.8926H40.9641V56.085L40.9642 56.0925L40.9643 56.1001L40.9643 56.1008C40.9815 57.2517 41.8545 58.1695 42.9141 58.1507L42.9163 58.1506L56.3466 58.1506V58.3ZM56.3642 58.4494L56.3636 58.4494L56.3646 58.3002L56.3642 58.4494Z" fill="white"/>
<path d="M47.2549 26.8993H52.0093C52.4036 26.8993 52.7232 26.5522 52.7232 26.124C52.7232 25.6957 52.4036 25.3486 52.0093 25.3486H47.2549C46.8606 25.3486 46.541 25.6957 46.541 26.124C46.541 26.5522 46.8606 26.8993 47.2549 26.8993Z" fill="white"/>
<path d="M49.6323 53.1799C48.4298 53.1799 47.4551 54.2386 47.4551 55.5447C47.4551 56.8507 48.4298 57.9094 49.6323 57.9094C50.8348 57.9094 51.8095 56.8507 51.8095 55.5447C51.8085 54.2392 50.8343 53.1811 49.6323 53.1799ZM49.6323 56.3577C49.2184 56.3577 48.8828 55.9932 48.8828 55.5436C48.8828 55.0941 49.2184 54.7296 49.6323 54.7296C50.0462 54.7296 50.3818 55.0941 50.3818 55.5436C50.3818 55.9933 50.0462 56.3577 49.6323 56.3577Z" fill="white"/>
<path d="M46.0986 33.7479H56.9948C57.3891 33.7479 57.7086 33.4008 57.7086 32.9726C57.7086 32.5444 57.3891 32.1973 56.9948 32.1973H46.0986C45.7043 32.1973 45.3848 32.5444 45.3848 32.9726C45.3848 33.4008 45.7043 33.7479 46.0986 33.7479Z" fill="white"/>
<path d="M56.9948 35.9443H46.0986C45.7043 35.9443 45.3848 36.2914 45.3848 36.7197C45.3848 37.1479 45.7043 37.495 46.0986 37.495H56.9948C57.3891 37.495 57.7086 37.1479 57.7086 36.7197C57.7086 36.2914 57.3891 35.9443 56.9948 35.9443Z" fill="white"/>
<path d="M56.9948 39.821H46.0986C45.7043 39.821 45.3848 40.1681 45.3848 40.5964C45.3848 41.0246 45.7043 41.3717 46.0986 41.3717H56.9948C57.3891 41.3717 57.7086 41.0246 57.7086 40.5964C57.7086 40.1681 57.3891 39.821 56.9948 39.821Z" fill="white"/>
<path d="M56.9948 43.698H46.0986C45.7043 43.698 45.3848 44.0451 45.3848 44.4733C45.3848 44.9016 45.7043 45.2487 46.0986 45.2487H56.9948C57.3891 45.2487 57.7086 44.9016 57.7086 44.4733C57.7086 44.0451 57.3891 43.698 56.9948 43.698Z" fill="white"/>
<path d="M56.9948 47.575H46.0986C45.7043 47.575 45.3848 47.922 45.3848 48.3503C45.3848 48.7785 45.7043 49.1256 46.0986 49.1256H56.9948C57.3891 49.1256 57.7086 48.7785 57.7086 48.3503C57.7086 47.922 57.3891 47.575 56.9948 47.575Z" fill="white"/>
<path d="M43.8612 32.1973H42.2685C41.8743 32.1973 41.5547 32.5444 41.5547 32.9726C41.5547 33.4008 41.8743 33.7479 42.2685 33.7479H43.8612C44.2555 33.7479 44.5751 33.4008 44.5751 32.9726C44.5751 32.5444 44.2555 32.1973 43.8612 32.1973Z" fill="white"/>
<path d="M43.8612 35.9443H42.2685C41.8743 35.9443 41.5547 36.2914 41.5547 36.7197C41.5547 37.1479 41.8743 37.495 42.2685 37.495H43.8612C44.2555 37.495 44.5751 37.1479 44.5751 36.7197C44.5751 36.2914 44.2555 35.9443 43.8612 35.9443Z" fill="white"/>
<path d="M43.8612 39.821H42.2685C41.8743 39.821 41.5547 40.1681 41.5547 40.5964C41.5547 41.0246 41.8743 41.3717 42.2685 41.3717H43.8612C44.2555 41.3717 44.5751 41.0246 44.5751 40.5964C44.5751 40.1681 44.2555 39.821 43.8612 39.821Z" fill="white"/>
<path d="M43.8612 43.698H42.2685C41.8743 43.698 41.5547 44.0451 41.5547 44.4733C41.5547 44.9016 41.8743 45.2487 42.2685 45.2487H43.8612C44.2555 45.2487 44.5751 44.9016 44.5751 44.4733C44.5751 44.0451 44.2555 43.698 43.8612 43.698Z" fill="white"/>
<path d="M43.8612 47.575H42.2685C41.8743 47.575 41.5547 47.922 41.5547 48.3503C41.5547 48.7785 41.8743 49.1256 42.2685 49.1256H43.8612C44.2555 49.1256 44.5751 48.7785 44.5751 48.3503C44.5751 47.922 44.2555 47.575 43.8612 47.575Z" fill="white"/>
</svg>
