<svg width="57" height="60" viewBox="0 0 57 60" fill="none" xmlns="http://www.w3.org/2000/svg">
<path d="M24.2771 45.6673C24.2771 46.228 24.7367 46.6823 25.3028 46.6823H31.7165C32.283 46.6823 32.7422 46.228 32.7422 45.6673V43.6997C34.0909 43.3405 35.3803 42.8116 36.5919 42.1209L37.9959 43.5101C38.1882 43.7005 38.4491 43.8075 38.7215 43.8075C38.9932 43.8075 39.2544 43.7005 39.4468 43.5097L43.98 39.0209C44.3803 38.6244 44.3803 37.9818 43.98 37.5857L42.5777 36.198C43.2757 34.9991 43.8102 33.7233 44.1732 32.3887H46.1541C46.7207 32.3887 47.1799 31.9344 47.1799 31.3738V25.0275C47.1799 24.4668 46.7207 24.0125 46.1541 24.0125H44.1728C43.8098 22.6784 43.2757 21.4025 42.5777 20.2036L43.9724 18.8235C44.1648 18.6332 44.2729 18.3747 44.2729 18.1055C44.2725 17.8363 44.1644 17.5778 43.972 17.3875L39.4352 12.9018C39.0349 12.5057 38.3854 12.5057 37.9847 12.9022L36.5919 14.2807C35.3803 13.5901 34.0909 13.0612 32.7422 12.702V10.7525C32.7422 10.1919 32.283 9.73755 31.7165 9.73755H25.3028C24.7367 9.73755 24.2771 10.1919 24.2771 10.7525V12.7024C22.9288 13.0612 21.6394 13.5901 20.4278 14.2807L19.0346 12.9022C18.6343 12.5061 17.9848 12.5057 17.5842 12.9018L13.0477 17.3879C12.8549 17.5782 12.7468 17.8363 12.7468 18.1055C12.7468 18.3747 12.8549 18.6332 13.0473 18.8235L14.442 20.2036C13.7441 21.4025 13.2096 22.678 12.8465 24.0125H10.8692C10.3026 24.0125 9.84345 24.4668 9.84345 25.0271L9.83984 31.3734C9.83944 31.6426 9.94763 31.9011 10.14 32.0914C10.3323 32.2817 10.5931 32.3887 10.8656 32.3887H12.8465C13.2096 33.7233 13.7441 34.9991 14.442 36.198L13.0397 37.5857C12.6394 37.9818 12.639 38.6244 13.0397 39.0209L17.5729 43.5097C17.7653 43.7001 18.0261 43.8075 18.2982 43.8075H18.2986C18.5706 43.8075 18.8315 43.7005 19.0238 43.5101L20.4274 42.1209C21.6394 42.8116 22.9288 43.3405 24.2771 43.6997V45.6673ZM20.8297 39.9863C20.4238 39.7266 19.8897 39.7829 19.5475 40.1211L18.2986 41.3569L15.2153 38.3037L16.4631 37.0687C16.8048 36.7305 16.8617 36.202 16.5993 35.8004C15.6693 34.3762 15.0154 32.8153 14.6564 31.1605C14.5546 30.693 14.1371 30.3588 13.6535 30.3588H11.8917L11.8941 26.0424H13.6535C14.1371 26.0424 14.5546 25.7086 14.6564 25.2408C15.0154 23.5863 15.6693 22.0254 16.5993 20.6013C16.8617 20.1996 16.8048 19.6711 16.4631 19.3329L15.2234 18.1059L18.309 15.055L19.5475 16.2809C19.8897 16.6191 20.4234 16.675 20.8297 16.4157C22.2685 15.4955 23.846 14.8485 25.5184 14.4932C25.9908 14.3925 26.3286 13.979 26.3286 13.5009V11.7675H30.6907V13.5005C30.6907 13.979 31.0281 14.3925 31.5009 14.4928C33.1729 14.8485 34.7508 15.4951 36.1897 16.4153C36.5955 16.675 37.1296 16.6191 37.4714 16.2805L38.7103 15.055L41.7959 18.1059L40.5562 19.3325C40.2141 19.6711 40.1576 20.1996 40.42 20.6013C41.35 22.0254 42.0035 23.5863 42.3629 25.2408C42.4643 25.7086 42.8822 26.0424 43.3658 26.0424H45.1284V30.3588H43.3658C42.8822 30.3588 42.4647 30.693 42.3629 31.1605C42.0039 32.8149 41.35 34.3762 40.42 35.8C40.1576 36.202 40.2145 36.7305 40.5562 37.0687L41.804 38.3033L38.7207 41.3565L37.4718 40.1211C37.1296 39.7825 36.5955 39.7266 36.1897 39.9863C34.7504 40.9065 33.1729 41.5532 31.5009 41.9088C31.0281 42.0095 30.6907 42.4226 30.6907 42.9012V44.6524H26.3286V42.9012C26.3286 42.423 25.9908 42.0095 25.5184 41.9088C23.8464 41.5536 22.2689 40.9065 20.8297 39.9863Z" fill="white"/>
<path d="M36.7612 28.2096C36.7612 23.5509 32.9956 19.761 28.3669 19.761C23.7382 19.761 19.9727 23.5509 19.9727 28.2096C19.9727 32.8683 23.7382 36.6582 28.3669 36.6582C32.9956 36.6582 36.7612 32.8683 36.7612 28.2096ZM22.0045 28.2096C22.0045 24.6785 24.8585 21.8059 28.3669 21.8059C31.8754 21.8059 34.7294 24.6789 34.7294 28.2096C34.7294 31.7403 31.8754 34.6133 28.3669 34.6133C24.8585 34.6133 22.0045 31.7407 22.0045 28.2096Z" fill="white"/>
<path fill-rule="evenodd" clip-rule="evenodd" d="M56.9994 29.3629C57.0257 28.7266 56.5014 28.21 55.8577 28.21C55.214 28.21 54.6949 28.7266 54.6662 29.3628C54.401 35.2565 52.1085 40.8976 48.1499 45.3402C44.1914 49.7828 38.8222 52.7402 32.9457 53.7392C32.3113 53.847 31.8583 54.4213 31.939 55.0532C32.0197 55.6851 32.6034 56.135 33.2382 56.0294C39.6779 54.9585 45.5645 51.7293 49.8985 46.8654C54.2324 42.0015 56.7326 35.8185 56.9994 29.3629Z" fill="white"/>
<path fill-rule="evenodd" clip-rule="evenodd" d="M14.3714 3.71478C13.8124 4.03069 13.6485 4.74461 13.9903 5.28425C14.3322 5.8239 15.0503 5.98474 15.6103 5.67084C20.7985 2.76314 26.8469 1.68918 32.7538 2.64847C38.6607 3.60775 44.0448 6.53838 48.0213 10.9344C48.4506 11.409 49.183 11.4837 49.6813 11.0805C50.1795 10.6773 50.2548 9.94897 49.8273 9.47286C45.4901 4.64286 39.5984 1.42283 33.1314 0.372569C26.6643 -0.677688 20.0414 0.509966 14.3714 3.71478Z" fill="white"/>
<path fill-rule="evenodd" clip-rule="evenodd" d="M14.1021 52.5516C14.6576 52.8734 15.3648 52.6581 15.6671 52.0958C15.9695 51.5336 15.7524 50.8375 15.1981 50.5137C10.0639 47.5137 6.1073 42.8616 4.00265 37.3172C1.898 31.7728 1.7811 25.6939 3.64991 20.0916C3.85166 19.4868 3.55196 18.8214 2.95028 18.5951C2.34859 18.3688 1.67296 18.6673 1.46899 19.2714C-0.600185 25.3994 -0.483786 32.0579 1.82046 38.1281C4.1247 44.1983 8.46731 49.2864 14.1021 52.5516Z" fill="white"/>
<path fill-rule="evenodd" clip-rule="evenodd" d="M51.526 11.599C50.0074 11.599 48.7762 12.8171 48.7762 14.3197C48.7762 15.8224 50.0074 17.0405 51.526 17.0405C53.0447 17.0405 54.2759 15.8224 54.2759 14.3197C54.2759 12.8171 53.0447 11.599 51.526 11.599ZM46.75 14.3197C46.75 11.7099 48.8883 9.59424 51.526 9.59424C54.1638 9.59424 56.3021 11.7099 56.3021 14.3197C56.3021 16.9295 54.1638 19.0452 51.526 19.0452C48.8883 19.0452 46.75 16.9295 46.75 14.3197Z" fill="white"/>
<ellipse cx="55.1404" cy="23.3413" rx="1.30256" ry="1.28877" fill="white"/>
<ellipse cx="19.826" cy="53.6984" rx="1.30256" ry="1.28877" fill="white"/>
<ellipse cx="10.2752" cy="8.16231" rx="1.30256" ry="1.28877" fill="white"/>
<path fill-rule="evenodd" clip-rule="evenodd" d="M28.655 52.5536C27.1363 52.5536 25.9051 53.7717 25.9051 55.2743C25.9051 56.7769 27.1363 57.9951 28.655 57.9951C30.1737 57.9951 31.4048 56.7769 31.4048 55.2743C31.4048 53.7717 30.1737 52.5536 28.655 52.5536ZM23.8789 55.2743C23.8789 52.6645 26.0172 50.5488 28.655 50.5488C31.2927 50.5488 33.431 52.6645 33.431 55.2743C33.431 57.8841 31.2927 59.9998 28.655 59.9998C26.0172 59.9998 23.8789 57.8841 23.8789 55.2743Z" fill="white"/>
<path fill-rule="evenodd" clip-rule="evenodd" d="M5.2116 12.7447C3.6929 12.7447 2.46175 13.9629 2.46175 15.4655C2.46175 16.9681 3.6929 18.1862 5.2116 18.1862C6.73029 18.1862 7.96144 16.9681 7.96144 15.4655C7.96144 13.9629 6.73029 12.7447 5.2116 12.7447ZM0.435547 15.4655C0.435547 12.8557 2.57386 10.74 5.2116 10.74C7.84933 10.74 9.98764 12.8557 9.98764 15.4655C9.98764 18.0753 7.84933 20.191 5.2116 20.191C2.57386 20.191 0.435547 18.0753 0.435547 15.4655Z" fill="white"/>
</svg>
