<svg width="60" height="60" viewBox="0 0 60 60" fill="none" xmlns="http://www.w3.org/2000/svg">
<path d="M60 30.9677C60 24.4945 55.4342 19.0742 49.3548 17.7406V4.83871C49.3548 2.17064 47.1842 0 44.5161 0H19.3548C16.6868 0 14.5161 2.17064 14.5161 4.83871V15.4839H8.92161L8.33806 17.8219L6.2729 16.5823L1.09742 21.7548L2.3371 23.8219L0 24.4055V31.7235L2.33806 32.3071L1.09742 34.3742L6.27193 39.5477L8.3371 38.3081L8.92161 40.6452H14.5161V55.1613C14.5161 57.8293 16.6868 60 19.3548 60H44.5161C47.1842 60 49.3548 57.8293 49.3548 55.1613V44.1948C55.4342 42.8613 60 37.441 60 30.9677ZM58.0645 30.9677C58.0645 32.8539 57.6029 34.6306 56.8016 36.2071C56.2645 34.7294 55.0287 33.5671 53.4319 33.1674L49.3548 32.1474V31.9161C50.5606 31.0074 51.2903 29.5781 51.2903 28.0655V26.13C51.2903 24.7781 50.7184 23.4774 49.7206 22.5619C48.7239 21.6494 47.3729 21.1906 46.0219 21.3097C43.5494 21.5235 41.6129 23.73 41.6129 26.3294V28.0645C41.6129 29.5771 42.3426 31.0065 43.5484 31.9152V32.1465L39.4713 33.1665C37.8745 33.5661 36.6387 34.7284 36.1016 36.2061C35.3003 34.6306 34.8387 32.8539 34.8387 30.9677C34.8387 24.5642 40.0481 19.3548 46.4516 19.3548C52.8552 19.3548 58.0645 24.5642 58.0645 30.9677ZM43.5484 17.7406C42.8826 17.8868 42.2381 18.0881 41.6129 18.3281V15.4839H22.2581V29.0323H33.0581C32.9661 29.6661 32.9032 30.3087 32.9032 30.9677C32.9032 37.441 37.469 42.8613 43.5484 44.1948V46.4516H20.3226V13.5484H43.5484V17.7406ZM33.4742 27.0968H24.1935V17.4194H39.6774V19.2523C36.7219 20.9681 34.471 23.761 33.4742 27.0968ZM19.3548 1.93548H44.5161C46.1168 1.93548 47.4193 3.23806 47.4193 4.83871V7.74194H16.4516V4.83871C16.4516 3.23806 17.7542 1.93548 19.3548 1.93548ZM14.5161 32.489C13.9055 32.7581 13.2465 32.9032 12.5806 32.9032C9.91258 32.9032 7.74194 30.7326 7.74194 28.0645C7.74194 25.3965 9.91258 23.2258 12.5806 23.2258C13.2465 23.2258 13.9055 23.371 14.5161 23.64V32.489ZM10.4332 38.7097L9.96194 36.8235L9.76548 36.3058L8.66032 35.8568L6.57193 37.111L3.53516 34.0732L4.78935 31.9839L4.30548 30.8032L1.93548 30.2119V25.9171L4.30258 25.3258L4.78935 24.1452L3.53516 22.0558L6.57193 19.0181L8.66032 20.2723L9.84097 19.7923L10.4332 17.4194H14.5161V21.5855C13.8881 21.3968 13.2377 21.2903 12.5806 21.2903C8.84516 21.2903 5.80645 24.33 5.80645 28.0645C5.80645 31.799 8.84516 34.8387 12.5806 34.8387C13.2377 34.8387 13.8881 34.7323 14.5161 34.5435V38.7097H10.4332ZM44.5161 58.0645H19.3548C17.7542 58.0645 16.4516 56.7619 16.4516 55.1613V52.2581H47.4193V55.1613C47.4193 56.7619 46.1168 58.0645 44.5161 58.0645ZM47.4193 50.3226H16.4516V9.67742H47.4193V17.4687C47.0981 17.4455 46.7787 17.4194 46.4516 17.4194C46.1245 17.4194 45.8052 17.4455 45.4839 17.4687V11.6129H18.3871V48.3871H45.4839V44.4668C45.8052 44.49 46.1245 44.5161 46.4516 44.5161C46.7787 44.5161 47.0981 44.49 47.4193 44.4668V50.3226ZM46.4516 42.5806C42.9823 42.5806 39.8719 41.0429 37.7419 38.6235V37.861C37.7419 36.5265 38.6468 35.3681 39.9406 35.0439L45.4839 33.659V30.8419L45.0029 30.5623C44.0923 30.0319 43.5484 29.0981 43.5484 28.0645V26.3294C43.5484 24.7239 44.7087 23.3661 46.1894 23.2374C47.0197 23.1706 47.8064 23.4319 48.4132 23.9884C49.0113 24.5371 49.3548 25.3171 49.3548 26.129V28.0645C49.3548 29.0981 48.811 30.0319 47.9003 30.5623L47.4193 30.8419V33.659L52.9626 35.0439C54.2564 35.3681 55.1613 36.5265 55.1613 37.861V38.6235C53.0313 41.0429 49.921 42.5806 46.4516 42.5806Z" fill="white"/>
</svg>
