<svg width="60" height="60" viewBox="0 0 60 60" fill="none" xmlns="http://www.w3.org/2000/svg">
<path d="M3.75 11.186C3.23227 11.186 2.8125 11.6414 2.8125 12.203V21.3555H4.6875V13.2199H10.3125V11.186H3.75Z" fill="white"/>
<path d="M59.0625 51.8641H57.1875V22.3726H55.3125V51.8641H35.625C35.3763 51.8641 35.138 51.9714 34.9622 52.1621L33.3619 53.898H26.6381L25.0378 52.1621C24.862 51.9714 24.6237 51.8641 24.375 51.8641H4.6875V47.7963H2.8125V51.8641H0.9375C0.419766 51.8641 0 52.3194 0 52.8811V57.9658C0 59.0892 0.839414 59.9997 1.875 59.9997H58.125C59.1606 59.9997 60 59.0892 60 57.9658V52.8811C60 52.3194 59.5802 51.8641 59.0625 51.8641ZM58.125 57.9658H1.875V53.898H23.9869L25.5863 55.6339C25.7623 55.8249 26.0011 55.9322 26.25 55.9319H33.75C33.9987 55.9319 34.237 55.8246 34.4128 55.6339L36.0131 53.898H58.125V57.9658Z" fill="white"/>
<path d="M51.5625 22.3726V47.7963H6.5625V48.8133C6.5625 49.3749 6.98227 49.8302 7.5 49.8302H52.5C53.0177 49.8302 53.4375 49.3749 53.4375 48.8133V22.3726H51.5625Z" fill="white"/>
<path d="M7.5 15.2544C6.98227 15.2544 6.5625 15.7097 6.5625 16.2713V21.3561H8.4375V17.2883H10.3125V15.2544H7.5Z" fill="white"/>
<path d="M58.125 4.06787H34.6875V6.10177H57.1875V18.3052H14.0625V6.10177H15.9375V4.06787H13.125C12.6073 4.06787 12.1875 4.52321 12.1875 5.08482V19.3221C12.1875 19.8837 12.6073 20.3391 13.125 20.3391H58.125C58.6427 20.3391 59.0625 19.8837 59.0625 19.3221V5.08482C59.0625 4.52321 58.6427 4.06787 58.125 4.06787Z" fill="white"/>
<path d="M26.25 23.3901H1.875C1.35727 23.3901 0.9375 23.8455 0.9375 24.4071V44.7461C0.9375 45.3077 1.35727 45.763 1.875 45.763H26.25C26.7677 45.763 27.1875 45.3077 27.1875 44.7461V24.4071C27.1875 23.8455 26.7677 23.3901 26.25 23.3901ZM4.43496 43.7291L14.0625 34.8918L23.69 43.7291H4.43496ZM25.3125 42.5528L18.6141 36.4046L21.4931 33.9054L25.3125 38.0485V42.5528ZM25.3125 35.1715L22.2262 31.8237C21.8885 31.4571 21.3506 31.4247 20.9775 31.7484L17.1552 35.0655L14.6681 32.7827C14.3186 32.4618 13.8064 32.4618 13.4569 32.7827L2.8125 42.5528V25.424H25.3125V35.1715Z" fill="white"/>
<path d="M7.5 27.4575C5.42895 27.4575 3.75 29.2787 3.75 31.5253C3.75 33.7719 5.42895 35.5931 7.5 35.5931C9.57105 35.5931 11.25 33.7719 11.25 31.5253C11.25 29.2787 9.57105 27.4575 7.5 27.4575ZM7.5 33.5592C6.46441 33.5592 5.625 32.6487 5.625 31.5253C5.625 30.402 6.46441 29.4914 7.5 29.4914C8.53559 29.4914 9.375 30.402 9.375 31.5253C9.375 32.6487 8.53559 33.5592 7.5 33.5592Z" fill="white"/>
<path d="M34.6875 23.3901H30V25.424H34.6875V23.3901Z" fill="white"/>
<path d="M48.75 26.4414H30V28.4753H48.75V26.4414Z" fill="white"/>
<path d="M42.1875 30.5088H30V32.5427H42.1875V30.5088Z" fill="white"/>
<path d="M34.6875 34.5762H30V36.6101H34.6875V34.5762Z" fill="white"/>
<path d="M48.75 38.644H30V40.6779H48.75V38.644Z" fill="white"/>
<path d="M42.1875 42.7114H30V44.7453H42.1875V42.7114Z" fill="white"/>
<path d="M31.875 0H18.75C18.2323 0 17.8125 0.455339 17.8125 1.01695V15.2542C17.8125 15.8159 18.2323 16.2712 18.75 16.2712H31.875C32.3927 16.2712 32.8125 15.8159 32.8125 15.2542V1.01695C32.8125 0.455339 32.3927 0 31.875 0ZM19.6875 2.0339H29.6121L19.6875 12.7996V2.0339ZM30.9375 14.2373H21.0137L30.9375 3.4725V14.2373Z" fill="white"/>
<path d="M54.375 8.13525H51.5625V10.1692H53.4375V12.2031H55.3125V9.1522C55.3125 8.59059 54.8927 8.13525 54.375 8.13525Z" fill="white"/>
</svg>
