<svg width="60" height="60" viewBox="0 0 60 60" fill="none" xmlns="http://www.w3.org/2000/svg">
<path d="M4.8386 54.0001H29.9999V51.9996H4.8386C3.23528 51.9996 1.93539 50.6564 1.93539 48.9997V4.99987C1.93539 3.34261 3.23528 1.9999 4.8386 1.9999H47.4192C49.0232 1.9999 50.3224 3.34261 50.3224 4.99987V27.9996H52.2583V4.99987C52.2551 2.23977 50.0905 0.00325837 47.4192 0H4.8386C2.16801 0.00325837 0.00339585 2.23977 0 4.99987V48.9997C0.00339585 51.7598 2.16801 53.9963 4.8386 54.0001Z" fill="white"/>
<path d="M3.87109 4.00049H5.80624V6.00014H3.87109V4.00049Z" fill="white"/>
<path d="M7.74023 4.00049H9.67611V6.00014H7.74023V4.00049Z" fill="white"/>
<path d="M11.6113 4.00049H13.547V6.00014H11.6113V4.00049Z" fill="white"/>
<path d="M3.87109 8H48.3868V10.0004H3.87109V8Z" fill="white"/>
<path d="M13.8317 12.293L11.3736 14.833C9.29586 13.4116 6.51345 13.8477 4.93656 15.8419C3.35991 17.8357 3.50133 20.7402 5.26329 22.5607C7.02501 24.3818 9.83604 24.528 11.7659 22.8985C13.6954 21.2693 14.1177 18.3937 12.7419 16.2472L15.1998 13.7071L13.8317 12.293ZM8.70911 21.9997C7.10602 21.9997 5.80614 20.6568 5.80614 19C5.80614 17.343 7.10602 16.0003 8.70911 16.0003C9.14086 16.0018 9.56559 16.104 9.95296 16.2998L8.02533 18.2919L9.39337 19.7061L11.3225 17.7152C11.5119 18.1152 11.6111 18.5541 11.6126 19C11.6126 20.6568 10.3132 21.9997 8.70911 21.9997Z" fill="white"/>
<path d="M16.4512 16.0005H32.9024V18.0001H16.4512V16.0005Z" fill="white"/>
<path d="M16.4512 20.0005H23.2252V22.0001H16.4512V20.0005Z" fill="white"/>
<path d="M25.1602 20.0005H38.7081V22.0001H25.1602V20.0005Z" fill="white"/>
<path d="M34.8379 16.0005H44.5153V18.0001H34.8379V16.0005Z" fill="white"/>
<path d="M13.8317 24.2925L11.3736 26.8325C9.29586 25.4111 6.51345 25.8472 4.93656 27.8414C3.35991 29.8355 3.50133 32.7397 5.26329 34.5607C7.02501 36.3814 9.83604 36.5275 11.7659 34.898C13.6954 33.2686 14.1177 30.3939 12.7419 28.2467L15.1998 25.7066L13.8317 24.2925ZM8.70911 33.9995C7.10602 33.9995 5.80614 32.6563 5.80614 30.9995C5.80614 29.3425 7.10602 27.9993 8.70911 27.9993C9.14086 28.001 9.56559 28.1035 9.95296 28.2993L8.02533 30.2919L9.39337 31.7056L11.3225 29.7144C11.5119 30.1147 11.6111 30.5536 11.6126 30.9995C11.6126 32.6563 10.3132 33.9995 8.70911 33.9995Z" fill="white"/>
<path d="M16.4512 28H32.9024V30.0002H16.4512V28Z" fill="white"/>
<path d="M16.4512 32.0005H23.2252V34.0004H16.4512V32.0005Z" fill="white"/>
<path d="M25.1602 32.0005H32.9017V34.0004H25.1602V32.0005Z" fill="white"/>
<path d="M34.8379 28H38.7087V30.0002H34.8379V28Z" fill="white"/>
<path d="M13.8317 36.2925L11.3736 38.8325C9.29586 37.4111 6.51345 37.8472 4.93656 39.8414C3.35991 41.8355 3.50133 44.7397 5.26329 46.5607C7.02501 48.3816 9.83604 48.5272 11.7659 46.898C13.6954 45.2686 14.1177 42.3937 12.7419 40.2464L15.1998 37.7066L13.8317 36.2925ZM8.70911 45.9995C7.10602 45.9995 5.80614 44.6563 5.80614 42.9995C5.80614 41.3425 7.10602 39.9995 8.70911 39.9995C9.14086 40.001 9.56559 40.1033 9.95296 40.2993L8.02533 42.2919L9.39337 43.7056L11.3225 41.7144C11.5119 42.1147 11.6111 42.5539 11.6126 42.9995C11.6126 44.6563 10.3132 45.9995 8.70911 45.9995Z" fill="white"/>
<path d="M16.4512 40H29.0316V42.0004H16.4512V40Z" fill="white"/>
<path d="M16.4512 43.9995H23.2252V45.9994H16.4512V43.9995Z" fill="white"/>
<path d="M25.1602 43.9995H29.0309V45.9994H25.1602V43.9995Z" fill="white"/>
<path d="M45.4831 59.9998C53.5004 59.9998 59.9989 53.2835 59.9989 44.9996C59.9989 36.7151 53.5004 29.9995 45.4831 29.9995C37.4657 29.9995 30.9668 36.7151 30.9668 44.9996C30.9763 53.2797 37.4696 59.9897 45.4831 59.9998ZM45.4831 31.9997C52.4308 31.9997 58.0637 37.8199 58.0637 44.9996C58.0637 52.1794 52.4308 57.9994 45.4831 57.9994C38.5347 57.9994 32.9019 52.1794 32.9019 44.9996C32.9102 37.8234 38.5378 32.0077 45.4831 31.9997Z" fill="white"/>
<path d="M39.58 45.5532L37.8477 46.447L39.7833 50.4471C39.922 50.7348 40.1869 50.9361 40.4942 50.9875C40.5442 50.9955 40.5942 50.9997 40.6444 51.0005C40.9008 51.0005 41.147 50.895 41.3289 50.7075L52.9412 38.7076L51.5732 37.2935L40.9093 48.3123L39.58 45.5532Z" fill="white"/>
</svg>
