<svg width="141" height="39" viewBox="0 0 141 39" fill="none" xmlns="http://www.w3.org/2000/svg">
<path fill-rule="evenodd" clip-rule="evenodd" d="M41.2852 28.8911V11.7733H43.5057L54.0602 25.5491V11.7733H56.1711V28.8911H53.9506L43.3961 14.9795V28.8911H41.2852ZM73.3599 28.2119C71.9617 28.7281 70.4539 28.9998 68.8639 28.9998C62.6135 28.9998 59.4882 26.0382 59.4882 20.0877C59.4882 14.4632 62.5038 11.6374 68.5349 11.6374C70.262 11.6374 71.8795 11.882 73.3599 12.3439V14.2459C71.8795 13.6753 70.3443 13.4035 68.7817 13.4035C64.0664 13.4035 61.7088 15.6316 61.7088 20.0333C61.7088 24.7883 64.039 27.1522 68.672 27.1522C69.4122 27.1522 70.2346 27.0435 71.1393 26.8533V21.1202H73.3599V28.2119ZM76.9237 22.2885V11.7733H79.1443V22.2885C79.1443 25.5762 80.7891 27.2337 84.1063 27.2337C87.396 27.2337 89.0682 25.5762 89.0682 22.2885V11.7733H91.2888V22.2885C91.2888 26.7718 88.9038 29.027 84.1063 29.027C79.3088 29.027 76.9237 26.7718 76.9237 22.2885ZM97.4844 11.7733V27.0978H106.531V28.8911H95.2639V11.7733H97.4844ZM109.739 28.8911H107.408L115.989 9.51807L124.57 28.8911H122.102L119.882 23.5112H114.18L114.783 21.7179H119.142L115.907 13.9741L109.739 28.8911ZM126.955 28.8911V11.7733H134.329C137.619 11.7733 139.264 13.1318 139.264 15.8761C139.264 18.1042 137.646 19.7616 134.439 20.8213L140.36 28.8911H137.427L131.944 21.2017V19.7616C135.234 19.2454 136.906 17.9955 136.906 15.9848C136.906 14.4089 136.001 13.6209 134.165 13.6209H129.23V28.8911H126.955Z" fill="white"/>
<path fill-rule="evenodd" clip-rule="evenodd" d="M17.6826 0.959229L0 7.2086L2.71408 30.3856L17.6826 38.6185L32.8979 30.2769L35.8313 7.09992L17.6826 0.959229ZM6.69141 29.6521L17.7122 5.36107L29.1991 29.7065L25.2787 29.6249L22.8662 24.082H13.0243L10.8036 29.5706L6.69141 29.6521ZM21.468 20.8758L17.7396 13.1592L14.4772 20.8758H21.468Z" fill="white"/>
</svg>
