<svg width="196" height="39" viewBox="0 0 196 39" fill="none" xmlns="http://www.w3.org/2000/svg">
<path d="M40.186 0.900635C35.9463 0.900635 32.0268 2.27431 28.8626 4.59242H12.3194C11.063 4.59242 10.0446 5.59413 10.0446 6.82987C10.0446 8.06561 11.063 9.06731 12.3194 9.06731H24.4944C22.816 11.4824 21.6989 14.3028 21.3279 17.3459H7.76978C6.51339 17.3459 5.49496 18.3476 5.49496 19.5833C5.49496 20.8191 6.51339 21.8208 7.76978 21.8208H21.3279C21.6989 24.8638 22.816 27.6842 24.4944 30.0993H3.22013C1.96375 30.0993 0.945312 31.101 0.945312 32.3368C0.945312 33.5725 1.96375 34.5742 3.22013 34.5742H28.5844C28.6714 34.5742 28.7569 34.5684 28.8414 34.559C32.0093 36.8864 35.9368 38.266 40.186 38.266C42.9344 38.266 45.5868 37.7005 48.0693 36.5854C49.2121 36.0721 49.7154 34.7447 49.1935 33.6207C48.6714 32.4967 47.3219 32.0016 46.1792 32.515C44.2941 33.3617 42.2777 33.7911 40.186 33.7911C32.2209 33.7911 25.7409 27.4175 25.7409 19.5833C25.7409 11.7491 32.2209 5.37553 40.186 5.37553C48.151 5.37553 54.6311 11.7491 54.6311 19.5833C54.6311 21.6231 54.2017 23.591 53.3547 25.4323C52.8367 26.5582 53.3449 27.8838 54.4896 28.3931C55.6343 28.9026 56.982 28.4028 57.4999 27.2769C58.6152 24.8521 59.1807 22.2635 59.1807 19.5833C59.1807 9.28166 50.6597 0.900635 40.186 0.900635Z" fill="white"/>
<path d="M78.772 24.9125H72.9291L71.8144 27.5656H68.8301L74.4393 15.1844H77.3158L82.9429 27.5656H79.8866L78.772 24.9125ZM77.8551 22.7369L75.8595 17.9967L73.864 22.7369H77.8551Z" fill="white"/>
<path d="M96.3299 15.1844V27.5656H93.9388L87.6644 20.0484V27.5656H84.7879V15.1844H87.197L93.4534 22.7015V15.1844H96.3299Z" fill="white"/>
<path d="M99.8467 15.1844H102.759V27.5656H99.8467V15.1844Z" fill="white"/>
<path d="M117.737 27.5656L117.719 20.1369L114.016 26.2567H112.703L109.018 20.2961V27.5656H106.285V15.1844H108.694L113.404 22.8784L118.043 15.1844H120.434L120.47 27.5656H117.737Z" fill="white"/>
<path d="M132.283 24.9125H126.44L125.325 27.5656H122.341L127.95 15.1844H130.827L136.454 27.5656H133.398L132.283 24.9125ZM131.366 22.7369L129.37 17.9967L127.375 22.7369H131.366Z" fill="white"/>
<path d="M140.274 17.5191H136.246V15.1844H147.213V17.5191H143.186V27.5656H140.274V17.5191Z" fill="white"/>
<path d="M149.32 15.1844H152.232V27.5656H149.32V15.1844Z" fill="white"/>
<path d="M161.853 27.7778C160.546 27.7778 159.366 27.5007 158.311 26.9465C157.268 26.3923 156.447 25.6317 155.848 24.6648C155.261 23.6861 154.967 22.5895 154.967 21.375C154.967 20.1605 155.261 19.0697 155.848 18.1028C156.447 17.1241 157.268 16.3577 158.311 15.8035C159.366 15.2493 160.546 14.9722 161.853 14.9722C163.159 14.9722 164.333 15.2493 165.376 15.8035C166.419 16.3577 167.24 17.1241 167.839 18.1028C168.439 19.0697 168.738 20.1605 168.738 21.375C168.738 22.5895 168.439 23.6861 167.839 24.6648C167.24 25.6317 166.419 26.3923 165.376 26.9465C164.333 27.5007 163.159 27.7778 161.853 27.7778ZM161.853 25.337C162.596 25.337 163.267 25.1719 163.866 24.8417C164.465 24.4998 164.933 24.0281 165.268 23.4267C165.616 22.8253 165.79 22.1414 165.79 21.375C165.79 20.6085 165.616 19.9246 165.268 19.3233C164.933 18.7219 164.465 18.2561 163.866 17.926C163.267 17.584 162.596 17.413 161.853 17.413C161.109 17.413 160.438 17.584 159.839 17.926C159.24 18.2561 158.766 18.7219 158.419 19.3233C158.083 19.9246 157.915 20.6085 157.915 21.375C157.915 22.1414 158.083 22.8253 158.419 23.4267C158.766 24.0281 159.24 24.4998 159.839 24.8417C160.438 25.1719 161.109 25.337 161.853 25.337Z" fill="white"/>
<path d="M183.008 15.1844V27.5656H180.617L174.343 20.0484V27.5656H171.466V15.1844H173.875L180.132 22.7015V15.1844H183.008Z" fill="white"/>
<path d="M190.66 27.7778C189.665 27.7778 188.7 27.6481 187.766 27.3887C186.843 27.1175 186.1 26.7696 185.536 26.3451L186.525 24.1873C187.064 24.5764 187.706 24.8889 188.449 25.1247C189.192 25.3605 189.935 25.4784 190.678 25.4784C191.505 25.4784 192.116 25.3605 192.512 25.1247C192.907 24.8771 193.105 24.5528 193.105 24.1519C193.105 23.8571 192.985 23.6154 192.746 23.4267C192.518 23.2263 192.218 23.0671 191.847 22.9492C191.487 22.8312 190.996 22.7015 190.372 22.56C189.414 22.336 188.629 22.112 188.017 21.8879C187.406 21.6639 186.879 21.3042 186.435 20.809C186.004 20.3137 185.788 19.6534 185.788 18.828C185.788 18.1087 185.986 17.4602 186.381 16.8824C186.777 16.2928 187.37 15.8271 188.161 15.4851C188.964 15.1431 189.941 14.9722 191.092 14.9722C191.895 14.9722 192.68 15.0665 193.447 15.2552C194.214 15.4438 194.885 15.715 195.46 16.0688L194.561 18.2443C193.399 17.5958 192.236 17.2715 191.074 17.2715C190.259 17.2715 189.653 17.4012 189.258 17.6606C188.874 17.9201 188.682 18.262 188.682 18.6865C188.682 19.111 188.904 19.4294 189.348 19.6416C189.803 19.8421 190.492 20.0425 191.415 20.243C192.374 20.467 193.159 20.6911 193.77 20.9151C194.382 21.1392 194.903 21.4929 195.334 21.9764C195.778 22.4598 196 23.1142 196 23.9397C196 24.6471 195.796 25.2957 195.388 25.8853C194.993 26.463 194.394 26.9229 193.59 27.2649C192.787 27.6068 191.811 27.7778 190.66 27.7778Z" fill="white"/>
</svg>
