<svg width="93" height="37" viewBox="0 0 93 37" fill="none" xmlns="http://www.w3.org/2000/svg">
<path d="M63.42 4.0768L63.3999 3.88349L63.0839 3.91016L63.1041 4.10346L63.42 4.0768ZM65.5444 9.1428L65.5512 9.24945L65.773 9.22945C65.7663 9.16279 65.7932 9.05614 65.8402 8.92282L65.8201 8.72952C65.726 8.73618 65.6318 8.87616 65.5444 9.1428ZM57.2553 15.5219C57.2418 15.342 56.6771 14.6421 55.5611 13.4089C55.541 13.1823 55.9242 12.8423 56.7107 12.3957L58.9561 10.456C59.4603 9.82271 59.7561 8.79617 59.8435 7.3697L59.8166 7.04307C59.7292 6.05654 59.0099 5.26331 57.6452 4.65672C56.8385 4.1168 55.3863 3.81684 53.2888 3.76351C51.5544 3.91016 49.2888 4.52341 46.4988 5.60993C45.7324 6.15653 44.8585 6.70312 43.8769 7.24971L43.8904 7.41636C43.9509 7.40969 44.045 7.37636 44.1526 7.30304C44.2669 7.28971 44.3341 7.34303 44.3408 7.44969L44.5089 7.36303L44.5896 7.35637L44.5963 7.42969C44.603 7.51635 43.998 7.98961 42.7744 8.83617L42.8685 9.00948L42.7879 9.01615L42.5862 8.94282C42.5929 9.00281 42.5055 9.04281 42.3374 9.05614L42.3442 9.12946L42.5391 9.36943C42.4786 9.3761 42.3845 9.34943 42.2568 9.30277C41.9744 9.32944 41.6988 9.47608 41.4231 9.75605L41.5374 9.26278C41.9475 7.50968 42.2299 5.95655 42.3778 4.61006L42.3576 4.52341C42.0752 4.34343 41.7996 4.09013 41.5442 3.77018C41.5509 3.56354 41.5509 3.44355 41.5442 3.41689L41.524 3.34357L41.4433 3.36356C40.5559 4.68339 38.8483 6.93642 36.3138 10.1227C34.3844 12.389 33.3894 13.6489 33.3289 13.9022C32.5424 14.7087 32.1659 15.1953 32.2062 15.362C31.9978 15.4953 31.9104 15.6286 31.944 15.7752C31.8835 15.7886 31.8432 15.7686 31.8297 15.7086C31.4936 16.2485 30.9961 16.5951 30.3306 16.7485L29.6314 16.9084C29.5373 16.9284 29.4902 16.9951 29.4969 17.1084L29.5171 17.1951L29.7793 17.1351L29.7995 17.2084L29.2079 17.435L28.1591 17.675L27.6078 17.7083C27.5272 17.7883 28.0448 17.7017 27.8431 17.7483L27.1574 17.9083C26.7406 18.0016 26.512 17.9683 26.4717 17.8016L26.391 17.8216C26.4045 17.895 26.4112 17.9483 26.3977 17.995L26.3574 17.8283L25.8061 17.955C25.7658 17.7017 25.0196 16.7818 23.5742 15.1953C23.5473 14.8887 24.0582 14.4421 25.1003 13.8622L28.0448 11.2958C28.7037 10.456 29.0936 9.10947 29.2213 7.25638L29.181 6.8231C29.0667 5.51661 28.1121 4.46342 26.3171 3.65019C25.2549 2.93695 23.3456 2.557 20.5893 2.49701C18.3035 2.69032 15.3186 3.49688 11.648 4.90336C10.6396 5.62993 9.48998 6.34983 8.19921 7.06307L8.21938 7.28971C8.30677 7.28304 8.42106 7.23638 8.56224 7.15639C8.71014 7.14306 8.79081 7.20972 8.80426 7.34303L9.03283 7.21638L9.14712 7.20972L9.15384 7.31637C9.16056 7.42302 8.36055 8.04294 6.74037 9.17612L6.8681 9.3761L6.75381 9.38276L6.50507 9.29611C6.51179 9.36277 6.39751 9.40943 6.16221 9.42942L6.17565 9.54941L6.44456 9.8427C6.35717 9.84937 6.23616 9.8227 6.08153 9.76938C5.55716 9.81604 5.04623 10.1893 4.54202 10.8959L4.66975 11.0959C5.10673 10.6959 5.3622 10.4959 5.43615 10.4893L5.46304 10.8159C5.38909 10.8226 5.2748 10.8692 5.12018 10.9492L5.39581 11.3625C5.92691 10.7959 6.51179 10.3093 7.15046 9.90269C7.46643 9.98268 7.6345 10.0827 7.64122 10.1893L7.88324 10.1693C9.61771 8.89616 11.332 7.97628 13.0329 7.40969L13.053 7.63633C12.7371 8.10293 12.5219 8.3429 12.4077 8.35623C12.4211 8.51621 12.4749 8.65619 12.5757 8.77618C12.6026 9.06281 11.8295 10.9959 10.2631 14.5687C6.70675 22.8743 3.72184 29.0202 1.29492 32.993C1.30164 33.0729 1.3487 33.1796 1.4361 33.3129C2.03443 33.1729 2.4109 33.0263 2.57225 32.8863L2.69998 32.873L2.72015 33.0996L2.942 33.0796L3.17058 32.953C3.1773 33.0196 3.25125 33.053 3.40587 33.0396L3.42604 33.2663C3.44621 33.4862 3.31848 33.8195 3.04957 34.2795C2.80755 34.5528 2.54536 35.126 2.26972 35.9992L2.27645 36.1059L2.4983 36.0859C3.46638 35.0127 4.19916 33.9595 4.70337 32.933C7.52693 32.1131 9.67822 31.3065 11.1707 30.5133C12.6699 30.3866 13.8127 29.9934 14.5926 29.3468L14.5791 29.2268L14.0144 29.3934L13.8867 29.4068L13.8732 29.2868C14.9758 29.1201 15.7354 28.8802 16.159 28.5469C18.3035 26.9071 19.9237 25.7473 21.0195 25.0607C23.2717 23.4209 24.7372 21.8211 25.4028 20.268C25.5238 20.2413 25.6448 20.2147 25.7793 20.1813C26.0952 20.168 26.27 20.1613 26.3171 20.148C26.3036 20.088 26.3305 20.0547 26.391 20.0413C26.8952 19.988 26.6532 20.0747 26.9759 20.0014L27.823 19.808C27.7692 19.8214 27.749 19.848 27.7625 19.9014L27.8902 19.8214C27.8633 19.8214 27.8431 19.8147 27.823 19.808L27.9642 19.7747L27.8969 19.8147C27.991 19.828 28.0919 19.8214 28.2062 19.7947L28.2667 20.0413L24.4145 26.1139L23.5607 27.1737L23.1439 28.5602L23.2246 28.5402L23.6414 28.3669L23.507 28.9068L23.5473 29.0668L23.6616 29.2068C23.6078 29.2201 23.5876 29.2535 23.6011 29.3134L23.6212 29.4001L23.796 29.3601C24.0515 29.1401 24.1591 28.9402 24.1187 28.7602C24.3944 28.8068 24.5759 28.8268 24.67 28.8002L24.6902 28.8868C24.5221 28.9268 24.4347 29.0602 24.4213 29.2868L24.4414 29.3734L24.5355 29.3534C25.9339 27.8403 29.3625 22.661 32.1121 19.1481C32.0247 18.7682 33.4567 18.2416 36.4147 17.5617L36.5088 17.5417C36.6164 18.0016 36.3878 19.1148 35.8231 20.8812C35.46 21.9478 35.2853 22.5343 35.3121 22.6277C34.8415 24.0475 34.6197 24.814 34.6466 24.934L33.5978 28.3402C32.9188 30.0867 32.4012 31.9198 32.0382 33.8528C32.0987 33.8395 32.1928 33.8462 32.3272 33.8795L32.4751 33.7529C32.4886 33.8129 32.5289 33.8328 32.5894 33.8195L32.5289 33.5729L32.9861 33.5596C33.1205 33.5262 33.2348 33.3596 33.3289 33.053C33.3088 32.593 33.4029 32.3464 33.6113 32.2931C33.8936 31.1999 34.0684 30.6533 34.1289 30.6333C34.3911 29.5468 34.5861 28.9268 34.7138 28.7735C35.1105 27.3604 35.3995 26.6338 35.5878 26.5871L35.6281 26.7605L35.339 27.5004C34.8348 29.7201 34.3239 31.4732 33.8062 32.7597L33.9541 33.3996L34.0483 33.3796C35.2987 30.7133 37.1004 25.434 39.4466 17.5417C39.5139 16.8484 39.85 16.3085 40.4483 15.9286L40.3139 15.7886L40.2937 15.7153C40.5626 15.6553 40.7509 15.5486 40.8584 15.402C40.845 15.342 40.6097 15.2553 40.1525 15.1353L41.3223 10.1627C41.5778 9.93602 41.7257 9.81604 41.7727 9.81604L41.7929 10.0693C41.7324 10.076 41.6383 10.1093 41.5307 10.1827L41.7526 10.4959C42.1559 10.0627 42.5929 9.68939 43.0702 9.3761C43.3122 9.44276 43.4332 9.52274 43.4467 9.60273L43.6215 9.5894C44.9526 8.62286 46.2568 7.92962 47.5409 7.50968L47.5543 7.67632C47.319 8.02961 47.1577 8.20959 47.0703 8.21625C47.0837 8.33624 47.1173 8.44289 47.1778 8.53621C47.198 8.75618 46.6198 10.2227 45.4366 12.9423C42.7341 19.2415 40.4685 23.9008 38.6265 26.9271C38.6332 26.9871 38.6735 27.0671 38.7475 27.1737C39.1979 27.0671 39.487 26.9538 39.6013 26.8471L39.6819 26.8404L39.6954 27.0071L39.8836 26.9938L40.0517 26.9071C40.0584 26.9538 40.1189 26.9738 40.2332 26.9671L40.2467 27.1471C40.2601 27.307 40.166 27.5603 39.9576 27.907C39.7626 28.1136 39.5609 28.5469 39.3458 29.2068L39.3525 29.2934L39.5273 29.2801C40.2601 28.4669 40.8181 27.667 41.2013 26.8804C43.3459 26.2539 44.9795 25.6473 46.1089 25.0473C47.2585 24.9474 48.1257 24.6541 48.7173 24.1608L48.7106 24.0741L48.2736 24.2008L48.1795 24.2075L48.1728 24.1208C49.0064 24.0008 49.5913 23.8142 49.9073 23.5675C51.5342 22.3277 52.7645 21.4412 53.5981 20.9212C56.1931 19.0481 57.4032 17.2484 57.2553 15.5219ZM56.8116 15.6353L56.8721 16.3085C56.7914 16.4752 56.704 16.5618 56.6233 16.5685L56.5225 15.422C56.7107 15.4886 56.8048 15.5553 56.8116 15.6353ZM5.90674 10.2093L5.79246 10.216L5.77229 10.0093L6.23616 9.96935L6.24288 10.076C6.16893 10.0827 6.05464 10.1227 5.90674 10.2093ZM3.64117 32.6797C3.37226 32.5597 3.13024 32.513 2.92183 32.533L2.89494 32.2064C2.8815 32.0797 2.95545 31.9931 3.11679 31.9598C3.26469 31.9464 3.35209 32.0531 3.36554 32.2664C3.75546 31.7931 3.97059 31.5532 4.01092 31.5465L4.25966 31.6465C4.17899 32.3131 3.97059 32.653 3.64117 32.6797ZM27.8499 7.56967C27.7356 7.583 27.507 7.22972 27.1776 6.52981L27.1574 6.32317C27.3725 6.30317 27.5944 6.64979 27.8297 7.36303L27.8499 7.56967ZM27.5272 5.08333L27.4331 5.30331L24.1456 3.94349C26.3372 4.01681 27.4667 4.39676 27.5272 5.08333ZM13.6447 16.9018L13.1808 16.9418L13.1606 16.7351L13.6245 16.6951L13.6447 16.9018ZM13.2682 9.80271L13.3825 9.79604L13.4094 10.1227C13.3018 10.1293 13.1606 10.2893 12.9858 10.5959L12.9657 10.3693C13.1741 10.1227 13.2816 9.93602 13.2682 9.80271ZM12.2934 12.0824L12.3337 12.5157L12.2194 12.5223L12.1791 12.0891L12.2934 12.0824ZM11.7824 12.8956L12.0043 12.8756C11.9841 13.2356 11.8833 13.4289 11.7018 13.4422L11.5875 13.4489C11.7287 13.2089 11.7959 13.0223 11.7824 12.8956ZM11.3992 14.0288L11.527 14.0155L11.5337 14.1221L11.3253 14.4688L11.1034 14.4888L11.0967 14.3821C11.3186 14.3621 11.4194 14.2488 11.3992 14.0288ZM11.0228 15.0487L10.9555 15.5953L10.8413 15.6019L10.7942 15.062L11.0228 15.0487ZM7.2513 25.6806C7.1034 26.4272 6.94205 26.8071 6.77398 26.8204L6.76726 26.7138C6.72692 26.3472 6.88827 26.0006 7.2513 25.6806ZM6.55885 27.1671L6.56557 27.2737C6.57902 27.4204 6.51179 27.507 6.36389 27.5137L6.35717 27.407C6.34372 27.2804 6.41095 27.2004 6.55885 27.1671ZM6.35717 30.2533L6.70675 30.22L6.7202 30.34C6.6328 30.3466 6.51852 30.3933 6.37734 30.4733L6.15549 30.4933C6.14204 30.38 6.21599 30.2933 6.35717 30.2533ZM16.3069 27.2071C14.3438 28.1669 13.1875 28.8202 12.8446 29.1601C10.7202 29.8934 9.66477 30.3466 9.68494 30.5266C7.79584 31.2665 6.55213 31.8131 5.9538 32.1531C5.81262 32.1664 5.61094 32.1131 5.34203 31.9931C5.30842 31.6131 5.48321 31.3065 5.85296 31.0599C6.18238 31.0332 6.49835 31.0799 6.80087 31.2065C7.15046 31.0266 7.76223 30.8266 8.62947 30.6133L8.6093 30.3866L7.91013 30.4466C7.99752 30.3266 8.6698 30.0134 9.93368 29.5068L10.2833 29.4734L10.29 29.5801C9.69166 29.6334 9.36225 29.8067 9.2883 30.12C9.30174 30.26 9.38242 30.32 9.53032 30.3067C9.98074 30.0267 10.2026 29.86 10.1959 29.8134C11.0497 29.6534 13.4094 28.4269 17.2749 26.1405L17.2951 26.3472C17.3018 26.4472 16.9724 26.7271 16.3069 27.2071ZM10.3774 29.1401C10.9421 29.0935 11.4261 28.8668 11.8295 28.4736C11.9908 28.4602 12.0782 28.5202 12.085 28.6602C11.8093 28.6869 11.2782 28.9135 10.5051 29.3534L10.3908 29.3601L10.3774 29.1401ZM19.9439 21.8544L16.9791 24.1808C14.7741 25.6139 13.5909 26.3338 13.4228 26.3472C9.91351 28.2603 7.72861 29.2535 6.88154 29.3268L6.75381 29.3401C6.86138 28.9468 8.42106 25.7806 11.4463 19.8214C12.7774 19.7081 14.8749 19.0948 17.7321 17.975L18.4313 17.915C19.8767 17.7883 20.959 18.0683 21.6716 18.7349L21.712 19.1681C21.1742 20.7013 20.5826 21.5945 19.9439 21.8544ZM14.1489 18.6215L14.6262 18.5815L14.6329 18.6882L14.1556 18.7282L14.1489 18.6215ZM20.8515 17.495L21.201 17.4617C21.5237 17.615 21.6918 17.7483 21.7053 17.8683L21.712 17.975C21.4027 18.0016 21.1137 17.8416 20.8515 17.495ZM21.7994 12.1424C21.4901 12.509 20.6431 13.1356 19.2582 14.0155C18.801 14.0555 17.1002 14.7087 14.1556 15.9886C14.0077 15.9219 13.8531 15.8952 13.685 15.9086L13.6648 15.7019C13.6312 15.282 13.8194 14.7554 14.2363 14.1155C14.4648 12.9156 14.7136 12.2291 14.9892 12.0624L17.443 6.5898C17.4161 6.24985 17.9405 5.98988 19.0161 5.80991L19.3657 5.77658L19.3926 6.08987C20.4481 5.92989 21.1069 5.83657 21.3624 5.81657C23.312 5.64993 24.3271 6.04321 24.4078 6.98308L24.6297 6.96309L24.5826 6.40983L24.8246 6.38983C25.3961 6.70312 25.7053 7.08307 25.7456 7.52968C25.7725 7.8363 25.6045 8.21625 25.2482 8.66952C25.1003 8.68286 25.0129 8.5762 24.9994 8.3629L24.7574 8.3829L24.7036 9.04947C23.7154 10.5159 22.996 11.2692 22.5523 11.3092C22.149 11.8624 21.9002 12.1357 21.7994 12.1424ZM23.3053 15.9752C23.1036 15.8419 22.9422 15.7819 22.8212 15.7886L22.7943 15.462L23.0162 15.442L23.507 15.7286C23.5271 15.8819 23.4599 15.9619 23.3053 15.9752ZM24.865 17.8083C25.0801 17.895 25.2078 17.9883 25.2347 18.0749L25.1271 18.1016L25.1339 18.1083C25.1137 18.1083 25.0868 18.1149 25.0666 18.1216L24.9053 18.2483L24.865 17.8083ZM25.0129 18.7282L24.9927 18.6415L25.275 18.5749L25.2952 18.6615L25.0129 18.7282ZM25.6919 19.4814C25.9809 19.4348 26.1221 19.4148 26.6599 19.2948L26.6801 19.3814L25.6582 19.6147C25.6717 19.5681 25.6851 19.5214 25.6919 19.4814ZM26.6868 19.9014C26.2566 19.9414 26.3507 19.888 25.665 20.0413L25.6448 19.9547L26.4986 19.6814L26.9087 19.5881L26.949 19.7481C26.7675 19.788 26.902 19.788 26.6868 19.9014ZM27.5944 19.6881C27.4936 19.7147 27.4129 19.6681 27.3658 19.5547L27.628 19.4948C27.7423 19.4681 27.8162 19.5148 27.8431 19.6281L27.5944 19.6881ZM30.0549 17.0617L30.0348 16.9751L30.4583 16.8751L30.4986 17.0351L30.0549 17.0617ZM32.6835 33.0463C32.7104 32.9263 32.7172 32.8396 32.7037 32.7797L32.7978 32.7597C32.9121 32.733 32.9793 32.773 33.0062 32.8796L33.0264 32.9663L32.6835 33.0463ZM34.5256 17.7483L34.3373 17.715C34.0348 17.835 33.7793 17.9216 33.5709 17.9683L33.3962 18.0083C33.2953 18.0349 33.2146 17.995 33.1743 17.8883L34.4046 17.6083L34.8079 17.4217L34.9424 17.575C34.7474 17.615 34.6063 17.675 34.5256 17.7483ZM35.4735 17.4484L35.4533 17.3617C35.5138 17.3484 35.5945 17.3017 35.6819 17.2151L36.5559 17.0151L36.576 17.1017C36.1121 17.2151 35.7424 17.3284 35.4735 17.4484ZM35.6079 15.6953C35.5474 15.7086 35.4668 15.7619 35.3659 15.8419C35.3525 15.7819 35.2315 15.7819 35.0029 15.8352C34.9626 15.6686 35.6079 15.4353 36.9458 15.1287L37.134 15.0887L37.1744 15.2487C36.2332 15.5219 35.7088 15.6753 35.6079 15.6953ZM37.9609 13.1756C37.8668 14.2355 37.4903 14.8354 36.8248 14.9887L36.8046 14.902L36.213 15.1287L35.9508 15.1887C35.8163 15.222 35.6953 15.2153 35.5878 15.182L35.534 14.9487C35.5138 14.862 36.3676 13.6889 38.1021 11.4358L38.3038 11.4692C38.3777 11.7758 38.2634 12.3424 37.9609 13.1756ZM42.1223 9.64273L42.0416 9.64939L42.0282 9.48275L42.3778 9.44942L42.3845 9.53608C42.324 9.54941 42.2366 9.58274 42.1223 9.64273ZM40.408 26.7138C40.2063 26.6205 40.0248 26.5805 39.8702 26.5938L39.85 26.3405C39.8433 26.2539 39.8971 26.1939 40.0114 26.1605C40.1256 26.1472 40.1929 26.2272 40.2063 26.4005C40.4954 26.0339 40.6567 25.8472 40.6904 25.8472L40.8719 25.9206C40.8046 26.4272 40.65 26.6938 40.408 26.7138ZM58.7881 7.64966C58.7007 7.65633 58.5326 7.38969 58.2704 6.84977L58.257 6.68312C58.425 6.66979 58.5998 6.92976 58.7746 7.46302L58.7881 7.64966ZM58.546 5.74325L58.4654 5.91656L55.9779 4.88336C57.6385 4.93669 58.499 5.22332 58.546 5.74325ZM47.998 14.7221L47.6484 14.7554L47.635 14.5887L47.9846 14.5621L47.998 14.7221ZM47.7089 9.32944L47.803 9.32277L47.8232 9.57607C47.7358 9.58274 47.6283 9.70272 47.5005 9.93602L47.4871 9.76938C47.6417 9.57607 47.7157 9.42942 47.7089 9.32944ZM46.9761 11.0625L47.003 11.3892L46.9089 11.3958L46.882 11.0692L46.9761 11.0625ZM46.5795 11.6825L46.7543 11.6691C46.7341 11.9491 46.6602 12.0957 46.5324 12.1091L46.4383 12.1157C46.5392 11.9291 46.5862 11.7824 46.5795 11.6825ZM46.2971 12.5357L46.3778 12.529L46.3845 12.6157L46.2299 12.8823L46.0551 12.8956L46.0484 12.809C46.2299 12.7956 46.3106 12.7023 46.2971 12.5357ZM46.0148 13.3089L45.9543 13.7355L45.8736 13.7422L45.84 13.3222L46.0148 13.3089ZM43.1442 21.3945C43.0299 21.9544 42.9089 22.2411 42.7811 22.2544L42.7744 22.1811C42.7542 21.9011 42.8753 21.6345 43.1442 21.3945ZM42.6131 22.521L42.6198 22.5943C42.6332 22.7143 42.5795 22.781 42.4584 22.7876L42.4517 22.701C42.445 22.6143 42.4988 22.5543 42.6131 22.521ZM42.4652 24.8674L42.7341 24.8474L42.7408 24.934C42.6803 24.9407 42.5862 24.974 42.4786 25.034L42.3038 25.0473C42.2971 24.954 42.3509 24.894 42.4652 24.8674ZM50.0148 22.5543C48.5358 23.2809 47.6551 23.7742 47.3795 24.0275C45.766 24.5874 44.966 24.934 44.9795 25.074C43.5475 25.6406 42.6063 26.0472 42.1626 26.3072C42.0551 26.3138 41.9005 26.2739 41.6988 26.1805C41.6719 25.8939 41.8063 25.6606 42.0887 25.4873C42.3442 25.4673 42.5862 25.5006 42.808 25.5939C43.0769 25.4606 43.5408 25.314 44.1996 25.1473L44.1862 24.9807L43.6349 25.0207C43.7022 24.9274 44.2198 24.6874 45.1812 24.3008L45.4501 24.2808L45.4568 24.3541C44.9997 24.3941 44.7442 24.5274 44.6904 24.7674C44.6971 24.874 44.7644 24.9274 44.8786 24.914C45.2148 24.6941 45.3761 24.5674 45.3761 24.5274C46.0215 24.4141 47.8098 23.4809 50.7476 21.7345L50.7611 21.9011C50.7678 21.9744 50.5191 22.1877 50.0148 22.5543ZM45.5106 24.0208C45.9476 23.9808 46.3173 23.8142 46.6266 23.5209C46.7409 23.5076 46.8081 23.5609 46.8148 23.6675C46.6131 23.6875 46.2165 23.8542 45.6181 24.1741L45.524 24.1808L45.5106 24.0208ZM52.7846 18.4816L50.5459 20.268C48.872 21.3545 47.9644 21.9011 47.8232 21.9144C45.161 23.3676 43.5072 24.1208 42.8551 24.1741L42.761 24.1808C42.8416 23.8808 44.0316 21.4745 46.3308 16.9551C47.3325 16.8684 48.919 16.3952 51.0972 15.5419L51.6418 15.4953C52.7376 15.402 53.5577 15.6153 54.0956 16.1285L54.1225 16.4552C53.7124 17.6017 53.2687 18.2749 52.7846 18.4816ZM48.3879 16.0285L48.7375 15.9952L48.7442 16.0819L48.3946 16.1152L48.3879 16.0285ZM53.4771 15.1687L53.746 15.1487C53.9947 15.2686 54.1225 15.3753 54.1292 15.462L54.1359 15.5353C53.9006 15.5553 53.6788 15.4353 53.4771 15.1687ZM54.183 11.1092C53.9477 11.3892 53.309 11.8691 52.267 12.5357C51.9174 12.569 50.6266 13.0623 48.3946 14.0221C48.2871 13.9822 48.1661 13.9688 48.0383 13.9755L48.0249 13.8088C47.998 13.4889 48.1392 13.0889 48.4484 12.6023C48.6232 11.6825 48.8182 11.1692 49.0199 11.0492L50.8955 6.88976C50.8754 6.64313 51.272 6.44315 52.0787 6.28984L52.3476 6.26984L52.3678 6.52314C53.1611 6.39649 53.6586 6.32317 53.8603 6.30317C55.3393 6.17652 56.1124 6.46982 56.1729 7.18972L56.3477 7.17639L56.3141 6.77644L56.4889 6.76311C56.9191 6.99641 57.1477 7.27638 57.1746 7.60967C57.1948 7.84963 57.0737 8.14293 56.8183 8.48288C56.704 8.49621 56.6368 8.41623 56.6233 8.24292L56.4485 8.25625L56.3947 8.75618C55.6485 9.8827 55.104 10.4626 54.7611 10.4893C54.4586 10.8959 54.2704 11.1025 54.183 11.1092ZM54.9695 13.8822L54.9494 13.6289L55.1241 13.6155L55.5006 13.8422C55.5073 13.9488 55.4536 14.0088 55.3393 14.0221C55.1779 13.9222 55.0569 13.8755 54.9695 13.8822ZM23.675 30.0733L23.5002 30.1133L23.3523 30.24C23.3792 30.3466 23.4465 30.3866 23.5607 30.36C23.675 30.3333 23.7221 30.2667 23.6952 30.16L23.675 30.0733ZM23.0095 28.7602L23.0296 28.8468C23.1439 28.8202 23.191 28.7535 23.1641 28.6469L23.1439 28.5602C23.0364 28.5869 22.9893 28.6535 23.0095 28.7602ZM27.7423 17.595L27.944 17.5483L27.9036 17.375L27.702 17.4217L27.7423 17.595ZM88.7447 22.6743C86.701 23.1276 86.4455 23.0476 86.0153 23.0809L86.0287 23.2476L86.217 23.2343L86.3178 23.2276L86.2909 23.2076L86.5128 23.1209C88.5363 22.901 88.7716 22.981 88.7514 22.7543L88.7447 22.6743ZM77.7396 24.1208L77.753 24.2875H77.7799L77.7664 24.1208H77.7396ZM76.4757 19.7281L76.2942 19.6681C76.1463 20.0613 76.0723 20.2946 76.079 20.3613L76.0857 20.4346C76.2269 20.428 76.3547 20.188 76.4757 19.7281ZM89.1615 22.641L89.175 22.8076L89.4708 22.861L89.4573 22.6943L89.1615 22.641ZM75.2521 24.3274L74.795 24.2741L74.7143 24.4474L74.721 24.5341L77.4437 24.3074L77.4303 24.1408L75.2521 24.3274ZM74.0151 18.4149L74.0084 18.3282L73.9143 18.3349L73.7462 18.4416L73.8403 18.6015C73.9681 18.5882 74.0286 18.5282 74.0151 18.4149ZM90.4523 21.4145L90.58 21.4012C90.654 21.3945 90.6876 21.3345 90.6809 21.2279L90.6069 21.0679C90.1431 21.1079 89.9279 21.1279 89.5515 21.3345L89.5447 21.2479L88.9867 21.3012C88.9733 21.1345 88.9262 21.0479 88.8523 21.0545L88.5632 21.0812C88.2271 21.1079 88.0657 21.0945 87.8977 21.2212C87.8909 21.1612 87.8708 21.1345 87.8372 21.1345L87.5145 21.1612L87.3262 21.2679C87.3195 21.2079 87.2993 21.1812 87.2657 21.1812L87.1514 21.2812L87.1447 21.1945L86.6943 21.1612L86.5867 21.1679L86.6002 21.3345L86.8287 21.3945L87.0439 21.3812C87.1178 21.4278 87.1985 21.4412 87.2926 21.4345L87.4808 21.3412L87.4876 21.4145C86.4321 21.6745 86.4388 21.6278 85.7128 21.7478C85.6321 21.6945 85.5716 21.6678 85.5312 21.6745L85.5178 21.6878C85.4371 21.6811 85.3901 21.6278 85.3833 21.5411L85.7598 21.4945C85.7867 21.4945 85.8069 21.5212 86.0153 21.5611C86.3178 21.4145 86.3313 21.3545 86.4926 21.3412L86.4792 21.1745C85.4438 21.3745 85.8607 21.2412 84.5632 21.3545L84.5027 21.3612L84.4892 21.1945C86.1565 20.9946 85.5985 21.1079 86.1699 20.9479C86.1766 21.0079 86.1968 21.0345 86.2304 21.0345C86.2976 20.9679 86.3716 20.9346 86.459 20.9212L86.5733 20.9146C87.1581 20.8679 87.3531 20.9812 88.5094 20.6613L88.5162 20.7346L88.7044 20.6413L88.8792 20.6279C88.8657 20.4613 89.1212 20.4346 89.2086 20.428L89.1951 20.248C87.1649 20.6546 86.6338 20.5413 86.0691 20.7013L86.0623 20.6279C85.5312 20.7213 85.5111 20.6813 85.3766 20.6879C85.3363 20.6946 85.2758 20.7279 85.2085 20.7946C85.2018 20.7346 85.1817 20.7079 85.1413 20.7079C85.1212 20.7079 85.1144 20.7146 85.1077 20.7146L83.3867 20.9946C83.38 20.9479 83.3598 20.9212 83.3195 20.9279C82.4253 21.1145 82.6673 21.1479 81.4707 21.2545C81.4169 21.2612 81.343 21.2878 81.2488 21.3478C81.2421 21.3012 81.2152 21.2745 81.1547 21.2812L80.4219 21.3412L79.9312 21.4612C79.9245 21.4145 79.8976 21.3878 79.8371 21.3945C79.5614 21.4678 79.3194 21.5145 79.1244 21.5278H79.111C78.99 21.5411 79.1715 21.4945 79.0774 21.4545L78.9295 21.5411C78.7144 21.5611 78.8286 21.5278 78.0891 21.5345C76.7916 21.6945 76.9328 21.7145 76.7916 21.7211L76.3076 21.6878C76.3143 21.7345 76.2874 21.7678 76.2337 21.7678C75.6824 21.6945 75.4 21.6078 75.3933 21.5078C75.4673 20.9879 75.595 20.7213 75.7765 20.7079L75.8706 20.7013L75.7899 20.8746L75.8841 20.8679C76.0589 20.7746 76.1395 20.6879 76.1328 20.6079L76.1194 20.428L75.9446 20.4413L75.9311 20.2746C75.9177 20.148 75.9378 20.0347 75.9849 19.9414L76.3815 19.3081L76.395 19.4748L76.5832 19.4614L76.5698 19.2948L76.4622 19.1415C76.6034 19.0215 76.711 18.9548 76.7984 18.9482L76.7916 18.8615L76.5362 18.8815L76.516 18.6282C77.0269 17.575 77.269 16.9618 77.2555 16.7884L77.437 16.8618C77.5513 16.8551 77.6051 16.7884 77.5984 16.6685L77.4236 16.6818L77.4169 16.6085C77.4034 16.4818 77.4303 16.3618 77.4841 16.2552C77.7597 15.9686 77.8875 15.6819 77.8606 15.382C77.9143 15.3753 77.9412 15.402 77.948 15.462C78.1833 15.3286 78.3648 14.9754 78.4992 14.3888C78.916 13.6422 79.5076 12.1491 80.2808 9.91603C81.7598 5.96988 81.6993 5.54994 81.9077 4.61673L81.7329 4.63006C81.7463 4.75005 81.7194 4.86336 81.6656 4.97002C81.5446 4.92336 81.4505 4.89669 81.3833 4.90336L81.3766 4.83004C81.3497 4.49008 81.4909 4.08347 81.8136 3.60353L81.8942 3.59687L82.0421 4.17012L82.2169 4.15679C82.2102 4.1168 82.2573 3.89016 82.3514 3.47022C82.3447 3.38356 82.2774 3.33023 82.143 3.32357L81.9749 3.43022C81.9615 3.31024 81.9682 2.99695 81.9883 2.49701L81.9009 2.50368C81.753 2.35703 81.6791 2.23705 81.6724 2.13706L80.711 2.23038C80.7043 2.16372 80.6707 2.06374 80.6035 1.93709C80.5967 1.85043 80.8119 1.76378 81.2556 1.67712L81.4505 1.75044L81.632 1.64379C81.6388 1.70378 81.6724 1.73045 81.7396 1.72378L81.9211 1.61713C81.9278 1.67712 81.9614 1.70378 82.0287 1.69712L82.1161 1.69045L82.1026 1.49714C81.9682 1.51048 81.6119 1.51048 81.0471 1.49048L80.8656 1.61046L80.8589 1.50381C76.3479 1.87043 73.7866 2.07707 73.1748 2.13706C73.0941 2.14372 72.7781 2.13706 72.2202 2.12373C72.2269 2.19705 72.1597 2.23705 72.0252 2.25038L71.8302 2.16372L71.1714 2.33037C71.0168 2.3437 70.7546 2.33703 70.3916 2.29704C70.2907 2.37703 70.1697 2.42369 70.0218 2.43702C69.9411 2.44368 70.9832 2.38369 71.9512 2.31704C71.8504 2.39702 71.6958 2.44369 71.4806 2.46368C71.3327 2.47701 71.205 2.45702 71.0975 2.39702C70.9496 2.46368 70.4722 2.57034 69.6722 2.73031L69.4773 2.65699L66.331 3.13693C66.21 3.07693 66.0688 3.05694 65.9075 3.07027C65.7394 3.0836 65.457 3.14359 65.0671 3.25024L63.5478 3.87683L63.6621 4.06347C63.736 4.0568 63.8436 4.01681 63.9713 3.94349L64.5091 3.99015L64.4419 4.49008C63.9444 4.71005 63.6553 5.03667 63.5747 5.44995C62.8284 5.77658 62.4587 6.00988 62.4587 6.14986L62.4654 6.23651L62.5797 6.22985L62.7814 6.1232L63.0167 6.40316L63.0503 6.78977C63.0637 6.90976 61.8066 9.52941 59.2923 14.6487C57.1141 19.5814 55.9712 22.2811 55.8637 22.7677C55.1174 22.9743 54.6872 23.2743 54.5594 23.6742C54.5729 23.8008 54.7947 23.8875 55.225 23.9208L55.2452 24.1141L55.0502 24.4341L55.0838 24.8207C55.104 25.0207 55.6485 25.174 56.7174 25.2807C56.7107 25.214 56.7443 25.174 56.8183 25.1673C56.8385 25.4073 56.7712 25.8739 56.6166 26.5671L56.7309 26.5605C57.1746 25.9606 57.383 25.5473 57.3628 25.3206L57.4569 25.314C57.5645 25.3073 57.6788 25.4273 57.8133 25.6873C57.6788 25.7406 57.2082 26.8004 56.4015 28.8735L56.5158 29.0601L56.63 29.0535C57.6183 26.5738 58.2368 25.2007 58.4923 24.9407C59.7897 24.8274 62.0352 24.6007 65.2217 24.2608L65.4234 24.1408C65.4302 24.2075 65.4705 24.2408 65.5444 24.2341L65.7528 24.2141L65.9545 24.0941C65.9613 24.1608 66.0016 24.1941 66.0755 24.1875L68.489 23.9808C69.1277 23.9275 69.4302 23.7342 69.4033 23.4076C69.3966 23.3209 69.7731 23.2209 70.5327 23.1143C70.6067 23.1076 70.7143 23.1276 70.8622 23.1743C70.8554 23.1143 71.2386 23.0543 72.005 22.9876C72.0252 22.5877 72.1529 22.3744 72.3815 22.3544L72.3613 22.1611C72.1462 22.1811 71.9042 22.2344 71.6218 22.3277C71.1176 22.301 70.7949 22.2611 70.6605 22.2144C70.526 22.2877 70.4252 22.3277 70.3512 22.3344L68.6705 22.3877L68.4688 22.4944C68.4621 22.4344 68.4218 22.4077 68.3478 22.4144L68.2537 22.421L68.0386 22.5277C68.0319 22.4677 67.8571 22.421 67.5075 22.3744L67.2924 22.501L66.8755 22.5343L66.8688 22.4277C69.0336 22.1944 70.1025 21.9011 70.0756 21.5545C70.2168 21.5411 70.2907 21.6078 70.3042 21.7478L70.9361 21.5878L70.9159 21.3945L65.7327 21.5345C65.7394 21.6011 65.7058 21.6411 65.6318 21.6478L64.9999 21.5945C64.8386 21.6078 64.7041 21.6545 64.5965 21.7345L64.3612 21.6478C63.7091 21.7011 63.2251 21.7811 62.9024 21.8811C62.4587 21.8478 61.9679 21.8544 61.4234 21.9011L60.2603 22.0011L59.7225 21.9411C59.6956 21.6011 60.3612 19.928 61.7326 16.9284C62.1293 15.9152 62.4923 15.282 62.8419 15.042C62.9158 15.0353 63.0234 15.062 63.1713 15.122L63.9982 14.842L64.4217 14.9087C65.1343 14.8487 65.9613 14.6487 66.9092 14.3021C67.1445 14.2821 67.3192 14.2954 67.447 14.3488L68.0789 14.2021L69.9613 14.0421C70.7613 13.9755 71.6286 13.8022 72.5697 13.5155L72.5496 13.3222C72.2 13.3556 72.0185 13.2956 72.005 13.1556C71.9849 12.8956 71.7294 12.789 71.2386 12.829L71.2185 12.6357L71.7361 12.489L73.0941 12.3757L73.074 12.1824C73.0202 12.1891 72.7445 12.1824 72.2336 12.1624L72.2134 11.9558L72.7378 11.9091C72.879 11.8958 72.9395 11.8291 72.926 11.6958C72.2202 11.7158 71.8639 11.6825 71.8571 11.5891C66.9361 11.8291 64.4688 11.8758 64.4553 11.7225C64.3814 11.7291 64.2806 11.7758 64.1461 11.8558L64.0184 11.6558C65.3226 8.90949 66.089 7.52301 66.3108 7.50301C66.3176 7.60967 66.2638 7.78298 66.1428 8.01628L66.1495 8.10293L66.3579 8.08294C66.8755 6.85643 67.3125 6.22318 67.6756 6.19652C69.2218 6.0632 67.4604 5.96322 70.768 5.44995C70.9025 5.50994 70.9966 5.53661 71.0638 5.52994C72.3613 5.26998 74.1698 4.99668 76.4891 4.71672L76.4757 4.52341L75.2387 4.63673L75.2252 4.44342C75.3731 4.43009 75.4941 4.38343 75.595 4.30344L75.6017 4.41009C75.6689 4.40342 75.7631 4.35676 75.8841 4.27678C76.0992 4.25678 76.2605 4.27677 76.3748 4.33677C76.8051 4.22345 77.1547 4.15679 77.4101 4.13013L78.1833 4.0568C78.3715 3.93682 78.4589 3.83017 78.4522 3.73018L78.4454 3.64353C78.2505 3.66352 78.0286 3.65019 77.7664 3.60353C77.7597 3.49688 77.8135 3.42356 77.9412 3.39023L79.3799 3.25691L80.0387 3.09027C80.0455 3.16359 80.0791 3.19025 80.1329 3.19025C80.2001 3.18359 80.2942 3.13693 80.4152 3.05694C80.4488 3.0636 80.4892 3.0636 80.5228 3.07027C80.4354 3.25024 80.3345 3.51021 80.2337 3.85016L80.0455 3.8635C80.032 3.73685 79.9984 3.62353 79.9379 3.52354L79.8438 3.53021C78.0959 8.35623 77.316 10.6026 75.7026 14.3088C75.4067 15.2553 75.158 15.7819 74.9429 15.8952C74.9496 16.0019 75.0168 16.0552 75.1311 16.0419C75.1715 16.5085 75.0639 16.9684 74.8017 17.4217C74.0555 19.5547 73.558 20.7213 73.3025 20.9346L73.4706 21.9411C73.4773 22.0477 73.4235 22.1077 73.3092 22.1211L73.1345 22.1344C73.1076 21.8544 73.0067 21.7211 72.8252 21.7411L72.7311 21.7478C72.5025 22.1011 72.3277 22.5077 72.2134 22.981L72.3882 22.9676C72.6235 22.8143 72.7311 22.6343 72.7109 22.4277L73.0605 22.3944L73.2622 22.4677C73.1008 22.721 73.0269 22.921 73.0403 23.0743L73.1345 23.2343L72.9059 23.7675L72.9126 23.8542C73.1143 23.8342 73.3361 23.9008 73.5714 24.0408C73.7328 24.0275 73.9076 23.9542 74.1025 23.8275C74.3042 23.8075 75.0572 23.8008 76.3547 23.8008L77.0068 23.5809C77.8001 23.5742 77.9278 23.5942 78.6135 23.5342L78.8959 23.5076L79.0438 23.4076L79.0505 23.4942C79.7698 23.4342 79.8169 23.4809 80.3816 23.5475L80.3883 23.6342L79.9917 23.6675L80.0051 23.8342C80.1261 23.8208 80.2337 23.7875 80.3211 23.7142C80.4219 23.7075 80.4824 23.7609 80.4892 23.8808C80.3278 23.8942 80.1463 23.9342 79.9446 24.0008L79.7698 23.9408C79.4942 24.0142 79.5547 24.0341 79.3665 24.0475L79.0908 23.9942C79.0975 24.0408 79.0707 24.0741 79.0236 24.0741C79.0303 24.1808 79.0908 24.2341 79.1917 24.2275L79.474 24.2008L80.9463 24.0741L81.5043 23.9542C81.511 24.0008 81.5312 24.0275 81.5783 24.0208L81.8472 23.9208L82.3514 23.8808C82.7413 23.8475 82.7346 23.8208 83.5816 23.6875C83.5749 23.6342 83.5951 23.6142 83.6354 23.6075L83.6421 23.6809C85.0203 23.4476 85.1077 23.4342 85.3296 23.3609L85.3497 23.4009C85.6926 23.3209 85.4976 23.3409 85.5917 23.2743C85.5985 23.3342 85.6186 23.3609 85.6523 23.3609L85.8943 23.3409L85.8808 23.1609L85.3901 23.1543L85.3833 23.1409C85.3632 23.1476 85.3497 23.1476 85.3296 23.1543H85.2623V23.1676C84.9329 23.2343 84.9262 23.1876 84.7111 23.2076L83.4808 23.2743L83.4741 23.1876L84.1598 23.0943L84.4085 23.0743L84.5497 22.9743L84.5564 23.0609C85.5245 22.981 85.8674 23.2209 90.3447 22.2744C90.5868 22.2544 90.5666 22.0544 90.7212 21.6411C90.6405 21.6478 90.5599 21.6278 90.4859 21.5878C90.1162 21.7278 89.9212 21.6611 89.2086 21.7745C89.1481 21.7811 89.101 21.7278 89.0809 21.6211L89.0741 21.5478L89.7599 21.5678C89.8876 21.5545 90.1363 21.5345 90.5061 21.3278C90.5061 21.3878 90.3716 21.4212 90.4523 21.4145ZM57.3494 21.9411L57.0334 21.9678C57.02 21.8411 57.188 21.3612 57.5376 20.5413L57.746 20.5213C57.7528 20.7146 57.625 21.1879 57.3494 21.9411ZM57.7326 20.4213L57.7259 20.3346C57.7191 20.228 57.7864 20.1547 57.9343 20.1213L57.941 20.208C57.9477 20.3346 57.8805 20.408 57.7326 20.4213ZM61.9343 23.6409L61.941 23.7275L61.4167 23.7742L61.4099 23.6875L61.9343 23.6409ZM61.3024 23.5875C61.3091 23.6942 61.1478 23.8142 60.7982 23.9342L60.1528 23.8875L59.9444 23.9075L59.9242 23.7142L61.3024 23.5875ZM65.5512 4.19679L65.2352 4.22345L65.2285 4.1168C65.2217 4.01014 65.2823 3.93682 65.4167 3.90349L65.531 3.89683L65.7461 3.98348C65.7528 4.11013 65.6923 4.18345 65.5512 4.19679ZM70.3579 3.26358L70.4588 3.25691L70.4722 3.45022L70.1832 3.47688C70.1764 3.37023 70.2302 3.29691 70.3579 3.26358ZM69.1478 3.68352L68.6705 3.63019L68.6638 3.54354C69.289 3.49021 69.4974 3.42355 69.8806 3.3169C69.8874 3.39023 69.9546 3.41689 70.0756 3.40356L70.089 3.59687L69.9008 3.61686C69.7529 3.63019 69.6252 3.6102 69.5176 3.5502C69.4033 3.62353 69.2823 3.67019 69.1478 3.68352ZM69.7462 5.40996L69.7394 5.3233L70.5126 5.24998L70.5193 5.33663L69.7462 5.40996ZM70.5731 4.74338L70.5664 4.63673L70.9428 4.6034L70.9496 4.71005L70.5731 4.74338ZM70.6605 3.43689L70.5596 3.44355L70.647 3.23691L71.5075 3.15692L71.5143 3.26358C71.2924 3.28357 71.0033 3.34357 70.6605 3.43689ZM71.0975 5.27664L71.084 5.08333L71.4605 5.05001C71.5882 5.03667 71.6554 5.09667 71.6622 5.22998L71.0975 5.27664ZM73.3765 2.19705L72.8924 2.33037L72.805 2.33703C72.5765 2.35703 72.2807 2.35036 71.9311 2.31704C72.5563 2.27704 73.1546 2.23038 73.3765 2.19705ZM72.8588 4.3301L72.8655 4.41676L72.2 4.47675L72.1933 4.39009L72.8588 4.3301ZM73.9479 4.84337C73.9412 4.76338 73.8135 4.71005 73.5513 4.68339L72.8857 4.87003L72.3748 4.89003C72.2605 4.81004 72.2 4.75671 72.1933 4.71672L72.7849 4.75005L74.116 4.53674L74.795 4.5634L74.8017 4.67006C74.4656 4.70338 74.1832 4.76338 73.9479 4.84337ZM80.7984 3.09027C80.8791 3.09693 80.9329 3.09693 80.953 3.09693C81.1883 2.8703 81.4505 2.69032 81.753 2.56367C81.511 3.61686 81.1345 4.39676 80.6169 4.90336L80.2404 4.67672C80.5564 3.88349 80.7446 3.3569 80.7984 3.09027ZM79.6421 5.05667L79.7362 5.05001C79.6085 5.28997 79.4942 5.41662 79.4001 5.42329L79.3799 5.16999C79.4404 5.16999 79.5278 5.13 79.6421 5.05667ZM78.8959 6.8231C79.0774 6.1032 79.2522 5.69659 79.4135 5.58993L79.4202 5.67659C79.3261 6.34317 79.1782 6.69645 78.9833 6.72312L79.0169 7.14306C78.8555 7.3697 78.7816 7.54301 78.7883 7.67632L78.6942 7.68299L78.6404 7.10307C78.748 7.08973 78.8354 6.99641 78.8959 6.8231ZM78.6068 7.78298C78.6135 7.88296 78.5463 8.11627 78.4118 8.47622L78.3177 8.48288L78.2975 8.22958C78.4253 7.93629 78.5328 7.78964 78.6068 7.78298ZM73.1815 23.3942L73.1748 23.3209L73.3496 23.3076L73.3698 23.5609C73.2756 23.5675 73.2084 23.5142 73.1815 23.3942ZM80.9329 23.5942C80.9261 23.5342 80.8993 23.5076 80.8387 23.5142L80.4018 23.5542L80.3951 23.4676H80.4354L81.4707 23.3809L81.4774 23.4676C81.1749 23.4809 80.9934 23.5276 80.9329 23.5942ZM80.4152 23.3809C80.4556 23.4009 80.4354 23.4209 80.4152 23.4342C80.395 23.4276 80.3681 23.4076 80.4152 23.3809ZM80.469 22.1811L79.8908 22.2277L79.8841 22.1411L80.4085 22.0944L80.8656 21.9811C80.8724 22.0344 80.8992 22.0544 80.9598 22.0477C81.5043 21.9544 81.4505 21.9278 81.7127 21.9078C81.8001 21.9011 81.8539 21.9544 81.8606 22.0611L80.469 22.1811ZM82.4925 22.0078C82.1699 21.9744 82.1497 21.9478 81.9211 21.9678L81.9144 21.8944L82.432 21.8478L82.4388 21.9211C82.385 21.9278 82.5799 21.9411 82.4925 22.0078ZM82.5329 21.9144L82.5262 21.8411L82.8085 21.8144L82.8152 21.8878L82.5329 21.9144ZM83.1581 21.8611L83.1514 21.7878C83.1984 21.7811 83.2657 21.7478 83.3531 21.6811C83.4942 21.6678 83.5682 21.7611 83.5816 21.8678L83.1581 21.8611ZM83.9581 21.7611L83.9514 21.6745L84.2943 21.6478L84.301 21.7345L83.9581 21.7611ZM84.4354 21.7211C84.4287 21.6211 84.469 21.5611 84.5564 21.5478L84.6707 21.6945C84.664 21.6478 84.6842 21.6211 84.7245 21.6145L84.8119 21.7745L84.4354 21.7211ZM79.3597 23.8942L79.3463 23.7275L79.2925 23.7342L79.306 23.9008L79.3597 23.8942ZM91.1716 20.8612C91.2254 20.8279 91.2523 20.7946 91.1246 20.7746C91.0641 20.8412 91.1918 20.8612 91.0574 20.8679L91.0641 20.9279C91.0775 20.9146 91.1111 20.8946 91.138 20.8746L91.0641 20.9346V20.9412L90.9229 21.1212L91.2053 21.0212H91.2389L91.2254 20.8546L91.1716 20.8612ZM91.6624 21.2412L91.6086 21.2479L91.6221 21.4145L92.0187 21.3812C92.012 21.2745 91.7498 21.2412 91.6624 21.2412ZM91.0506 20.9479L91.0574 20.9412V20.9346C91.0574 20.9346 91.0506 20.9412 91.0506 20.9479Z" fill="black"/>
<path d="M65.2417 8.60935L65.2484 8.716L65.4703 8.696C65.4636 8.62935 65.4904 8.52269 65.5375 8.38938L65.5173 8.19607C65.4232 8.20274 65.3291 8.34272 65.2417 8.60935ZM63.1173 3.54335L63.0971 3.35005L62.7812 3.37671L62.8013 3.57002L63.1173 3.54335ZM56.9525 14.9885C56.9391 14.8085 56.3744 14.1086 55.2584 12.8754C55.2382 12.6488 55.6214 12.3089 56.408 11.8622L58.6534 9.92251C59.1576 9.28926 59.4534 8.26273 59.5408 6.83625L59.5139 6.50963C59.4265 5.52309 58.7072 4.72986 57.3425 4.12328C56.5357 3.58335 55.0836 3.28339 52.9861 3.23006C51.2516 3.37671 48.986 3.98996 46.1961 5.07648C45.4297 5.62308 44.5557 6.16967 43.5742 6.71627L43.5877 6.88291C43.6482 6.87624 43.7423 6.84292 43.8498 6.76959C43.9641 6.75626 44.0314 6.80959 44.0381 6.91624L44.2062 6.82959L44.2868 6.82292L44.2936 6.89624C44.3003 6.9829 43.6952 7.45617 42.4717 8.30272L42.5658 8.47603L42.4851 8.4827L42.2834 8.40937C42.2902 8.46937 42.2028 8.50936 42.0347 8.52269L42.0414 8.59602L42.2364 8.83598C42.1759 8.84265 42.0818 8.81599 41.954 8.76933C41.6717 8.79599 41.396 8.94264 41.1204 9.2226L41.2347 8.72933C41.6448 6.97623 41.9271 5.4231 42.075 4.07662L42.0549 3.98996C41.7725 3.80999 41.4969 3.55669 41.2414 3.23673C41.2481 3.03009 41.2481 2.9101 41.2414 2.88344L41.2212 2.81012L41.1406 2.83012C40.2532 4.14994 38.5456 6.40297 36.0111 9.58922C34.0817 11.8556 33.0867 13.1154 33.0262 13.3687C32.2396 14.1753 31.8631 14.6619 31.9035 14.8285C31.6951 14.9618 31.6077 15.0952 31.6413 15.2418C31.5808 15.2551 31.5405 15.2351 31.527 15.1751C31.1909 15.7151 30.6934 16.0617 30.0278 16.215L29.3287 16.375C29.2345 16.395 29.1875 16.4616 29.1942 16.575L29.2144 16.6616L29.4766 16.6016L29.4967 16.6749L28.9051 16.9016L27.8564 17.1415L27.3051 17.1749C27.2244 17.2549 27.7421 17.1682 27.5404 17.2149L26.8547 17.3748C26.4379 17.4682 26.2093 17.4348 26.169 17.2682L26.0883 17.2882C26.1017 17.3615 26.1085 17.4148 26.095 17.4615L26.0547 17.2949L25.5034 17.4215C25.4631 17.1682 24.7168 16.2483 23.2715 14.6619C23.2446 14.3553 23.7555 13.9086 24.7975 13.3287L27.7421 10.7624C28.4009 9.92251 28.7908 8.57602 28.9186 6.72293L28.8782 6.28966C28.764 4.98316 27.8093 3.92997 26.0143 3.11674C24.9521 2.40351 23.0429 2.02356 20.2865 1.96356C18.0008 2.15687 15.0159 2.96343 11.3453 4.36991C10.3368 5.09648 9.18724 5.81639 7.89647 6.52962L7.91664 6.75626C8.00404 6.7496 8.11832 6.70293 8.2595 6.62295C8.4074 6.60961 8.48808 6.67627 8.50152 6.80959L8.7301 6.68294L8.84438 6.67627L8.85111 6.78292C8.85783 6.88958 8.05782 7.50949 6.43763 8.64268L6.56536 8.84265L6.45108 8.84932L6.20233 8.76266C6.20906 8.82932 6.09477 8.87598 5.85947 8.89598L5.87292 9.01596L6.14183 9.30926C6.05443 9.31592 5.93342 9.28926 5.7788 9.23593C5.25442 9.28259 4.74349 9.65588 4.23929 10.3624L4.36702 10.5624C4.804 10.1625 5.05946 9.9625 5.13341 9.95584L5.16031 10.2825C5.08635 10.2891 4.97207 10.3358 4.81744 10.4158L5.09308 10.8291C5.62418 10.2625 6.20906 9.77586 6.84772 9.36925C7.16369 9.44924 7.33176 9.54922 7.33848 9.65588L7.5805 9.63588C9.31498 8.36271 11.0293 7.44284 12.7301 6.87625L12.7503 7.10288C12.4343 7.56949 12.2192 7.80945 12.1049 7.82279C12.1184 7.98276 12.1722 8.12275 12.273 8.24273C12.2999 8.52936 11.5268 10.4624 9.96036 14.0353C6.40402 22.3409 3.41911 28.4867 0.992188 32.4595C0.99891 32.5395 1.04597 32.6462 1.13337 32.7795C1.73169 32.6395 2.10817 32.4928 2.26951 32.3529L2.39725 32.3395L2.41741 32.5662L2.63927 32.5462L2.86784 32.4195C2.87456 32.4862 2.94851 32.5195 3.10314 32.5062L3.12331 32.7328C3.14347 32.9528 3.01574 33.2861 2.74683 33.746C2.50481 34.0193 2.24262 34.5926 1.96699 35.4658L1.97371 35.5724L2.19556 35.5524C3.16364 34.4792 3.89642 33.4261 4.40063 32.3995C7.2242 31.5796 9.37548 30.7731 10.8679 29.9798C12.3671 29.8532 13.51 29.4599 14.2898 28.8133L14.2764 28.6933L13.7117 28.86L13.5839 28.8733L13.5705 28.7533C14.673 28.5867 15.4327 28.3467 15.8562 28.0134C18.0008 26.3737 19.621 25.2138 20.7168 24.5272C22.9689 22.8875 24.4345 21.2877 25.1 19.7345C25.2211 19.7079 25.3421 19.6812 25.4765 19.6479C25.7925 19.6346 25.9673 19.6279 26.0143 19.6146C26.0009 19.5546 26.0278 19.5212 26.0883 19.5079C26.5925 19.4546 26.3505 19.5412 26.6732 19.4679L27.5202 19.2746L27.6614 19.2413L27.5942 19.2813C27.6883 19.2946 27.7892 19.2879 27.9034 19.2613L27.9639 19.5079L24.1118 25.5804L23.258 26.6403L22.8412 28.0268L22.9219 28.0068L23.3387 27.8335L23.2042 28.3734L23.2446 28.5334L23.3588 28.6733C23.3051 28.6867 23.2849 28.72 23.2983 28.78L23.3185 28.8667L23.4933 28.8267C23.7488 28.6067 23.8563 28.4067 23.816 28.2267C24.0916 28.2734 24.2731 28.2934 24.3673 28.2667L24.3874 28.3534C24.2194 28.3934 24.132 28.5267 24.1185 28.7533L24.1387 28.84L24.2328 28.82C25.6311 27.3069 29.0598 22.1276 31.8094 18.6147C31.722 18.2347 33.1539 17.7081 36.1119 17.0282L36.2061 17.0082C36.3136 17.4682 36.085 18.5814 35.5203 20.3478C35.1573 21.4143 34.9825 22.0009 35.0094 22.0942C34.5388 23.514 34.317 24.2806 34.3438 24.4006L33.2951 27.8068C32.6161 29.5532 32.0984 31.3863 31.7354 33.3194C31.7959 33.3061 31.89 33.3127 32.0245 33.3461L32.1724 33.2194C32.1858 33.2794 32.2262 33.2994 32.2867 33.2861L32.2262 33.0394L32.6833 33.0261C32.8178 32.9928 32.9321 32.8261 33.0262 32.5195C33.006 32.0596 33.1001 31.8129 33.3085 31.7596C33.5909 30.6664 33.7657 30.1198 33.8262 30.0998C34.0884 29.0133 34.2833 28.3934 34.4111 28.2401C34.8077 26.8269 35.0968 26.1004 35.285 26.0537L35.3254 26.227L35.0363 26.9669C34.5321 29.1866 34.0212 30.9397 33.5035 32.2262L33.6514 32.8661L33.7455 32.8461C34.996 30.1798 36.7977 24.9005 39.1439 17.0082C39.2111 16.315 39.5473 15.7751 40.1456 15.3951L40.0111 15.2551L39.991 15.1818C40.2599 15.1218 40.4481 15.0152 40.5557 14.8685C40.5422 14.8085 40.3069 14.7219 39.8498 14.6019L41.0196 9.62921C41.275 9.40258 41.4229 9.28259 41.47 9.28259L41.4902 9.53589C41.4296 9.54256 41.3355 9.57589 41.228 9.64921L41.4498 9.9625C41.8532 9.52923 42.2902 9.15594 42.7675 8.84265C43.0095 8.90931 43.1305 8.9893 43.144 9.06929L43.3187 9.05595C44.6499 8.08942 45.9541 7.39618 47.2381 6.97623L47.2516 7.14288C47.0163 7.49616 46.8549 7.67614 46.7675 7.6828C46.781 7.80279 46.8146 7.90944 46.8751 8.00276C46.8953 8.22273 46.3171 9.6892 45.1339 12.4088C42.4313 18.708 40.1658 23.3674 38.3237 26.3937C38.3305 26.4536 38.3708 26.5336 38.4447 26.6403C38.8952 26.5336 39.1842 26.4203 39.2985 26.3137L39.3792 26.307L39.3927 26.4736L39.5809 26.4603L39.749 26.3737C39.7557 26.4203 39.8162 26.4403 39.9305 26.4336L39.9439 26.6136C39.9574 26.7736 39.8632 27.0269 39.6548 27.3735C39.4599 27.5802 39.2582 28.0134 39.0431 28.6733L39.0498 28.76L39.2246 28.7467C39.9574 27.9334 40.5154 27.1336 40.8986 26.347C43.0431 25.7204 44.6768 25.1138 45.8062 24.5139C46.9558 24.4139 47.823 24.1206 48.4146 23.6274L48.4079 23.5407L47.9709 23.6673L47.8768 23.674L47.8701 23.5874C48.7037 23.4674 49.2886 23.2807 49.6045 23.0341C51.2314 21.7943 52.4617 20.9077 53.2953 20.3878C55.8903 18.5147 57.1004 16.7149 56.9525 14.9885ZM56.5088 15.1018L56.5693 15.7751C56.4887 15.9417 56.4013 16.0284 56.3206 16.035L56.2197 14.8885C56.408 14.9552 56.5021 15.0218 56.5088 15.1018ZM5.60401 9.67587L5.48972 9.68254L5.46955 9.4759L5.93342 9.4359L5.94015 9.54256C5.8662 9.54922 5.75191 9.58922 5.60401 9.67587ZM3.33844 32.1462C3.06952 32.0262 2.8275 31.9796 2.6191 31.9996L2.59221 31.673C2.57876 31.5463 2.65271 31.4596 2.81406 31.4263C2.96196 31.413 3.04936 31.5196 3.0628 31.7329C3.45272 31.2597 3.66785 31.0197 3.70819 31.013L3.95693 31.113C3.87626 31.7796 3.66785 32.1196 3.33844 32.1462ZM27.5471 7.03622C27.4328 7.04955 27.2043 6.69627 26.8749 5.99636L26.8547 5.78972C27.0698 5.76973 27.2917 6.11635 27.527 6.82959L27.5471 7.03622ZM27.2244 4.54989L27.1303 4.76986L23.8429 3.41004C26.0345 3.48336 27.1639 3.86331 27.2244 4.54989ZM13.3419 16.3683L12.878 16.4083L12.8579 16.2017L13.3217 16.1617L13.3419 16.3683ZM12.9654 9.26926L13.0797 9.2626L13.1066 9.58922C12.9991 9.59588 12.8579 9.75586 12.6831 10.0625L12.6629 9.83585C12.8713 9.58922 12.9789 9.40258 12.9654 9.26926ZM11.9906 11.549L12.031 11.9822L11.9167 11.9889L11.8764 11.5556L11.9906 11.549ZM11.4797 12.3622L11.7016 12.3422C11.6814 12.7021 11.5806 12.8954 11.399 12.9088L11.2847 12.9154C11.4259 12.6755 11.4932 12.4888 11.4797 12.3622ZM11.0965 13.4954L11.2242 13.482L11.231 13.5887L11.0226 13.9353L10.8007 13.9553L10.794 13.8487C11.0158 13.8287 11.1167 13.7153 11.0965 13.4954ZM10.72 14.5152L10.6528 15.0618L10.5385 15.0685L10.4915 14.5286L10.72 14.5152ZM6.94856 25.1472C6.80066 25.8937 6.63931 26.2737 6.47125 26.287L6.46452 26.1803C6.42419 25.8137 6.58553 25.4671 6.94856 25.1472ZM6.25612 26.6336L6.26284 26.7403C6.27629 26.8869 6.20906 26.9736 6.06116 26.9802L6.05443 26.8736C6.04099 26.7469 6.10822 26.667 6.25612 26.6336ZM6.05443 29.7199L6.40402 29.6865L6.41746 29.8065C6.33007 29.8132 6.21578 29.8599 6.0746 29.9398L5.85275 29.9598C5.83931 29.8465 5.91326 29.7599 6.05443 29.7199ZM16.0041 26.6736C14.0411 27.6335 12.8848 28.2867 12.5419 28.6267C10.4175 29.3599 9.36204 29.8132 9.38221 29.9932C7.49311 30.7331 6.24939 31.2797 5.65107 31.6196C5.50989 31.633 5.30821 31.5796 5.0393 31.4596C5.00568 31.0797 5.18047 30.7731 5.55023 30.5264C5.87964 30.4998 6.19561 30.5464 6.49814 30.6731C6.84772 30.4931 7.45949 30.2931 8.32673 30.0798L8.30656 29.8532L7.60739 29.9132C7.69479 29.7932 8.36707 29.4799 9.63095 28.9733L9.98053 28.94L9.98726 29.0466C9.38893 29.1 9.05951 29.2733 8.98556 29.5866C8.99901 29.7265 9.07968 29.7865 9.22758 29.7732C9.67801 29.4932 9.89986 29.3266 9.89314 29.2799C10.7469 29.12 13.1066 27.8935 16.9722 25.6071L16.9924 25.8137C16.9991 25.9137 16.6697 26.1937 16.0041 26.6736ZM10.0746 28.6067C10.6394 28.56 11.1234 28.3334 11.5268 27.9401C11.6881 27.9268 11.7755 27.9868 11.7822 28.1268C11.5066 28.1534 10.9755 28.3801 10.2024 28.82L10.0881 28.8267L10.0746 28.6067ZM19.6412 21.321L16.6764 23.654C14.4713 25.0872 13.2881 25.8071 13.1133 25.8204C9.60406 27.7335 7.41916 28.7267 6.57209 28.8L6.44436 28.8133C6.55192 28.4201 8.1116 25.2538 11.1368 19.2946C12.468 19.1813 14.5655 18.568 17.4226 17.4482L18.1218 17.3882C19.5672 17.2615 20.6496 17.5415 21.3622 18.2081L21.4025 18.6413C20.8714 20.1678 20.2798 21.061 19.6412 21.321ZM13.8461 18.0881L14.3234 18.0481L14.3302 18.1547L13.8528 18.1947L13.8461 18.0881ZM20.5487 16.9616L20.8983 16.9282C21.221 17.0816 21.3891 17.2149 21.4025 17.3349L21.4092 17.4415C21.1 17.4682 20.8109 17.3082 20.5487 16.9616ZM21.4966 11.6089C21.1874 11.9756 20.3403 12.6022 18.9554 13.482C18.4983 13.522 16.7974 14.1753 13.8528 15.4551C13.7049 15.3884 13.5503 15.3618 13.3823 15.3751L13.3621 15.1685C13.3285 14.7485 13.5167 14.2219 13.9335 13.582C14.1621 12.3822 14.4108 11.6956 14.6865 11.529L17.1403 6.05635C17.1134 5.7164 17.6378 5.45643 18.7134 5.27646L19.063 5.24313L19.0899 5.55642C20.1454 5.39644 20.8042 5.30312 21.0597 5.28312C23.0093 5.11648 24.0244 5.50976 24.1051 6.44963L24.3269 6.42964L24.2799 5.87638L24.5219 5.85638C25.0933 6.16967 25.4026 6.54962 25.4429 6.99623C25.4698 7.30286 25.3017 7.6828 24.9454 8.13608C24.7975 8.14941 24.7101 8.04276 24.6967 7.82945L24.4547 7.84945L24.4009 8.51603C23.4126 9.9825 22.6933 10.7357 22.2496 10.7757C21.8462 11.329 21.5975 11.6023 21.4966 11.6089ZM23.0025 15.4418C22.8009 15.3085 22.6395 15.2485 22.5185 15.2551L22.4916 14.9285L22.7135 14.9085L23.2042 15.1951C23.2244 15.3485 23.1572 15.4284 23.0025 15.4418ZM24.5622 17.2749C24.7773 17.3615 24.9051 17.4548 24.932 17.5415L24.8244 17.5682L24.8311 17.5748C24.811 17.5748 24.7841 17.5815 24.7639 17.5882L24.6026 17.7148L24.5622 17.2749ZM24.7101 18.1947L24.69 18.1081L24.9723 18.0414L24.9925 18.1281L24.7101 18.1947ZM25.3891 18.948C25.6782 18.9013 25.8194 18.8813 26.3572 18.7613L26.3774 18.848L25.3555 19.0813C25.369 19.0346 25.3824 18.988 25.3891 18.948ZM26.3841 19.3679C25.9538 19.4079 26.048 19.3546 25.3622 19.5079L25.3421 19.4212L26.2026 19.1479L26.6127 19.0546L26.653 19.2146C26.4648 19.2546 26.5992 19.2546 26.3841 19.3679ZM27.2917 19.1546C27.1908 19.1813 27.1102 19.1346 27.0631 19.0213L27.3253 18.9613C27.4396 18.9346 27.5135 18.9813 27.5404 19.0946L27.2917 19.1546ZM29.7522 16.5283L29.732 16.4416L30.1556 16.3417L30.1959 16.5016L29.7522 16.5283ZM32.3808 32.5128C32.4077 32.3929 32.4144 32.3062 32.401 32.2462L32.4951 32.2262C32.6094 32.1995 32.6766 32.2395 32.7035 32.3462L32.7237 32.4328L32.3808 32.5128ZM34.2228 17.2149L34.0346 17.1815C33.7321 17.3015 33.4766 17.3882 33.2682 17.4348L33.0934 17.4748C32.9926 17.5015 32.9119 17.4615 32.8716 17.3549L34.1018 17.0749L34.5052 16.8882L34.6397 17.0416C34.4447 17.0816 34.3035 17.1415 34.2228 17.2149ZM35.1707 16.9149L35.1506 16.8283C35.2111 16.8149 35.2918 16.7683 35.3792 16.6816L36.2531 16.4816L36.2733 16.5683C35.8094 16.6816 35.4397 16.7949 35.1707 16.9149ZM35.3052 15.1618C35.2447 15.1751 35.164 15.2285 35.0632 15.3085C35.0497 15.2485 34.9287 15.2485 34.7002 15.3018C34.6598 15.1351 35.3052 14.9018 36.643 14.5952L36.8313 14.5552L36.8716 14.7152C35.9304 14.9885 35.406 15.1418 35.3052 15.1618ZM37.6582 12.6421C37.5641 13.702 37.1876 14.3019 36.522 14.4552L36.5019 14.3686L35.9103 14.5952L35.6481 14.6552C35.5136 14.6885 35.3926 14.6819 35.285 14.6485L35.2313 14.4152C35.2111 14.3286 36.0649 13.1554 37.7994 10.9024L38.001 10.9357C38.075 11.2423 37.9607 11.8089 37.6582 12.6421ZM41.8196 9.10928L41.7389 9.11595L41.7255 8.9493L42.075 8.91597L42.0818 9.00263C42.0213 9.01596 41.9339 9.04929 41.8196 9.10928ZM40.1053 26.1803C39.9036 26.087 39.7221 26.047 39.5674 26.0604L39.5473 25.8071C39.5406 25.7204 39.5943 25.6604 39.7086 25.6271C39.8229 25.6138 39.8901 25.6937 39.9036 25.8671C40.1927 25.5004 40.354 25.3138 40.3876 25.3138L40.5691 25.3871C40.5019 25.8937 40.3473 26.1603 40.1053 26.1803ZM58.4853 7.11621C58.3979 7.12288 58.2299 6.85625 57.9677 6.31632L57.9542 6.14967C58.1223 6.13634 58.2971 6.39631 58.4719 6.92957L58.4853 7.11621ZM58.2433 5.2098L58.1626 5.38311L55.6752 4.34991C57.3357 4.40324 58.1962 4.68987 58.2433 5.2098ZM47.6953 14.1886L47.3457 14.2219L47.3322 14.0553L47.6818 14.022L47.6953 14.1886ZM47.4062 8.79599L47.5003 8.78932L47.5205 9.04262C47.4331 9.04929 47.3255 9.16927 47.1978 9.40258L47.1843 9.23593C47.339 9.04262 47.4129 8.89598 47.4062 8.79599ZM46.6734 10.5291L46.7003 10.8557L46.6062 10.8624L46.5793 10.5358L46.6734 10.5291ZM46.2768 11.149L46.4516 11.1357C46.4314 11.4156 46.3574 11.5623 46.2297 11.5756L46.1356 11.5823C46.2364 11.3956 46.2835 11.249 46.2768 11.149ZM45.9944 12.0022L46.0751 11.9956L46.0818 12.0822L45.9272 12.3489L45.7524 12.3622L45.7457 12.2755C45.9272 12.2622 46.0079 12.1689 45.9944 12.0022ZM45.7121 12.7755L45.6516 13.2021L45.5709 13.2087L45.5373 12.7888L45.7121 12.7755ZM42.8414 20.8611C42.7271 21.421 42.6061 21.7076 42.4784 21.7209L42.4717 21.6476C42.4515 21.3677 42.5725 21.101 42.8414 20.8611ZM42.3103 21.9876L42.3171 22.0609C42.3305 22.1809 42.2767 22.2475 42.1557 22.2542L42.149 22.1675C42.1423 22.0809 42.196 22.0209 42.3103 21.9876ZM42.1624 24.3339L42.4313 24.3139L42.4381 24.4006C42.3776 24.4072 42.2834 24.4406 42.1759 24.5006L42.0011 24.5139C41.9944 24.4206 42.0481 24.3606 42.1624 24.3339ZM49.7121 22.0209C48.2331 22.7475 47.3524 23.2407 47.0768 23.494C45.4633 24.054 44.6633 24.4006 44.6768 24.5406C43.2448 25.1072 42.3036 25.5138 41.8599 25.7737C41.7523 25.7804 41.5977 25.7404 41.396 25.6471C41.3691 25.3605 41.5036 25.1272 41.786 24.9538C42.0414 24.9338 42.2834 24.9672 42.5053 25.0605C42.7742 24.9272 43.2381 24.7805 43.8969 24.6139L43.8835 24.4472L43.3389 24.4939C43.4061 24.4006 43.9238 24.1606 44.8852 23.774L45.1541 23.754L45.1608 23.8273C44.7036 23.8673 44.4482 24.0006 44.3944 24.2406C44.4011 24.3473 44.4683 24.4006 44.5826 24.3873C44.9188 24.1673 45.0801 24.0406 45.0801 24.0006C45.7255 23.8873 47.5138 22.9541 50.4516 21.2077L50.4651 21.3743C50.4651 21.441 50.2163 21.6543 49.7121 22.0209ZM45.2079 23.4874C45.6448 23.4474 46.0146 23.2807 46.3238 22.9874C46.4381 22.9808 46.5053 23.0274 46.5121 23.1341C46.3104 23.1541 45.9137 23.3207 45.3154 23.6407L45.2213 23.6474L45.2079 23.4874ZM52.4819 17.9481L50.2432 19.7345C48.5692 20.8211 47.6617 21.3677 47.5205 21.381C44.8583 22.8341 43.2045 23.5874 42.5524 23.6407L42.4582 23.6474C42.5389 23.3474 43.7288 20.941 46.028 16.4216C47.0297 16.335 48.6163 15.8617 50.7945 15.0085L51.339 14.9618C52.4348 14.8685 53.255 15.0818 53.7928 15.5951L53.8197 15.9217C53.4096 17.0682 52.9659 17.7415 52.4819 17.9481ZM48.0852 15.4951L48.4348 15.4618L48.4415 15.5484L48.0919 15.5818L48.0852 15.4951ZM53.1743 14.6352L53.4432 14.6152C53.692 14.7352 53.8197 14.8419 53.8264 14.9285L53.8332 15.0018C53.5979 15.0218 53.376 14.9018 53.1743 14.6352ZM53.8802 10.5758C53.6449 10.8557 53.0063 11.3357 51.9642 12.0022C51.6147 12.0356 50.3239 12.5288 48.0919 13.4887C47.9844 13.4487 47.8633 13.4354 47.7356 13.442L47.7222 13.2754C47.6953 12.9554 47.8365 12.5555 48.1457 12.0689C48.3205 11.149 48.5154 10.6357 48.7171 10.5158L50.5928 6.35631C50.5726 6.10968 50.9693 5.90971 51.776 5.75639L52.0449 5.7364L52.0651 5.9897C52.8584 5.86305 53.3558 5.78972 53.5575 5.76972C55.0365 5.64307 55.8097 5.93637 55.8702 6.65627L56.045 6.64294L56.0113 6.243L56.1861 6.22966C56.6164 6.46297 56.845 6.74293 56.8719 7.07622C56.892 7.31619 56.771 7.60948 56.5155 7.94944C56.4013 7.96277 56.334 7.88278 56.3206 7.70947L56.1458 7.7228L56.092 8.22273C55.3458 9.34925 54.8012 9.92917 54.4584 9.95584C54.1559 10.3624 53.9676 10.5691 53.8802 10.5758ZM54.6668 13.3487L54.6466 13.0954L54.8214 13.0821L55.1979 13.3087C55.2046 13.4154 55.1508 13.4754 55.0365 13.4887C54.8752 13.3887 54.7542 13.3421 54.6668 13.3487ZM23.3723 29.5399L23.1975 29.5799L23.0496 29.7065C23.0765 29.8132 23.1437 29.8532 23.258 29.8265C23.3723 29.7999 23.4194 29.7332 23.3925 29.6266L23.3723 29.5399ZM22.7067 28.2267L22.7269 28.3134C22.8412 28.2867 22.8883 28.2201 22.8614 28.1134L22.8412 28.0268C22.7336 28.0534 22.6866 28.1201 22.7067 28.2267ZM27.4665 19.3613L27.5942 19.2813C27.5673 19.2813 27.5471 19.2746 27.527 19.2679C27.4799 19.2813 27.4597 19.3146 27.4665 19.3613ZM27.4396 17.0616L27.6412 17.0149L27.6009 16.8416L27.3992 16.8882L27.4396 17.0616ZM74.9494 23.794L74.4922 23.7407L74.4116 23.914L74.4183 24.0006L77.141 23.774L77.1276 23.6074L74.9494 23.794ZM77.4368 23.5874L77.4503 23.754H77.4772L77.4637 23.5874H77.4368ZM88.8588 22.1076L88.8723 22.2742L89.1681 22.3275L89.1546 22.1609L88.8588 22.1076ZM88.442 22.1409C86.3983 22.5942 86.1428 22.5142 85.7125 22.5475L85.726 22.7141L85.9142 22.7008L86.0151 22.6941L85.9882 22.6741L86.21 22.5875C88.2336 22.3675 88.4689 22.4475 88.4487 22.2209L88.442 22.1409ZM76.1729 19.1946L75.9914 19.1346C75.8435 19.5279 75.7696 19.7612 75.7763 19.8279L75.783 19.9012C75.9242 19.8945 76.0519 19.6545 76.1729 19.1946ZM73.7124 17.8814L73.7057 17.7948L73.6116 17.8015L73.4435 17.9081L73.5376 18.0681C73.6653 18.0548 73.7258 17.9948 73.7124 17.8814ZM79.057 23.3607L79.0436 23.1941L78.9898 23.2007L79.0032 23.3674L79.057 23.3607ZM90.1496 20.8811L90.2773 20.8677C90.3513 20.8611 90.3849 20.8011 90.3782 20.6944L90.3042 20.5344C89.8403 20.5744 89.6252 20.5944 89.2487 20.8011L89.242 20.7144L88.684 20.7677C88.6706 20.6011 88.6235 20.5144 88.5496 20.5211L88.2605 20.5478C87.9243 20.5744 87.763 20.5611 87.5949 20.6877C87.5882 20.6278 87.568 20.6011 87.5344 20.6011L87.2117 20.6278L87.0235 20.7344C87.0168 20.6744 86.9966 20.6477 86.963 20.6477L86.8487 20.7477L86.842 20.6611L86.3915 20.6278L86.284 20.6344L86.2974 20.8011L86.526 20.8611L86.7411 20.8477C86.8151 20.8944 86.8958 20.9077 86.9899 20.901L87.1781 20.8077L87.1848 20.8811C86.1294 21.141 86.1361 21.0944 85.41 21.2143C85.3294 21.161 85.2688 21.1343 85.2285 21.141L85.2151 21.1543C85.1344 21.1477 85.0873 21.0944 85.0806 21.0077L85.4571 20.961C85.484 20.961 85.5041 20.9877 85.7125 21.0277C86.0151 20.8811 86.0285 20.8211 86.1899 20.8077L86.1764 20.6411C85.1411 20.8411 85.5579 20.7077 84.2604 20.8211L84.1999 20.8277L84.1865 20.6611C85.8537 20.4611 85.2957 20.5744 85.8672 20.4144C85.8739 20.4744 85.8941 20.5011 85.9277 20.5011C85.9949 20.4344 86.0689 20.4011 86.1562 20.3878L86.2705 20.3811C86.8554 20.3345 87.0504 20.4478 88.2067 20.1278L88.2134 20.2011L88.4017 20.1078L88.5764 20.0945C88.563 19.9278 88.8185 19.9012 88.9059 19.8945L88.8924 19.7145C86.8621 20.1212 86.331 20.0078 85.7663 20.1678L85.7596 20.0945C85.2285 20.1878 85.2083 20.1478 85.0739 20.1545C85.0335 20.1611 84.973 20.1945 84.9058 20.2611C84.8991 20.2011 84.8789 20.1745 84.8386 20.1745C84.8184 20.1745 84.8117 20.1811 84.805 20.1811L83.0839 20.4611C83.0772 20.4144 83.0571 20.3878 83.0167 20.3944C82.1226 20.5811 82.3646 20.6144 81.168 20.7211C81.1142 20.7277 81.0402 20.7544 80.9461 20.8144C80.9394 20.7677 80.9125 20.7411 80.852 20.7477L80.1192 20.8077L79.6284 20.9277C79.6217 20.8811 79.5948 20.8544 79.5343 20.8611C79.2587 20.9344 79.0167 20.981 78.8217 20.9944H78.8083C78.6872 21.0077 78.8688 20.961 78.7746 20.921L78.6267 21.0077C78.4116 21.0277 78.5259 20.9944 77.7864 21.001C76.4889 21.161 76.6301 21.181 76.4889 21.1877L76.0049 21.1543C76.0116 21.201 75.9847 21.2343 75.9309 21.2343C75.3796 21.161 75.0973 21.0744 75.0906 20.9744C75.1645 20.4544 75.2923 20.1878 75.4738 20.1745L75.5679 20.1678L75.4872 20.3411L75.5813 20.3345C75.7561 20.2411 75.8368 20.1545 75.8301 20.0745L75.8166 19.8945L75.6418 19.9078L75.6284 19.7412C75.6149 19.6146 75.6351 19.5012 75.6822 19.4079L76.0788 18.7747L76.0923 18.9413L76.2805 18.928L76.2671 18.7613L76.1595 18.608C76.3007 18.488 76.4082 18.4214 76.4956 18.4147L76.4889 18.3281L76.2334 18.3481L76.2133 18.0948C76.7242 17.0416 76.9662 16.4283 76.9528 16.255L77.1343 16.3283C77.2486 16.3217 77.3024 16.255 77.2956 16.135L77.1208 16.1483L77.1141 16.075C77.1007 15.9484 77.1276 15.8284 77.1814 15.7217C77.457 15.4351 77.5847 15.1485 77.5578 14.8485C77.6116 14.8419 77.6385 14.8685 77.6452 14.9285C77.8805 14.7952 78.062 14.4419 78.1965 13.8553C78.6133 13.1088 79.2049 11.6156 79.978 9.38258C81.457 5.43644 81.3965 5.01649 81.6049 4.08328L81.4301 4.09661C81.4436 4.2166 81.4167 4.32992 81.3629 4.43657C81.2419 4.38991 81.1478 4.36325 81.0806 4.36991L81.0738 4.29659C81.0469 3.95663 81.1881 3.55002 81.5108 3.07008L81.5915 3.06342L81.7394 3.63668L81.9142 3.62334C81.9075 3.58335 81.9545 3.35671 82.0486 2.93677C82.0419 2.85011 81.9747 2.79679 81.8402 2.79012L81.6722 2.89677C81.6587 2.77679 81.6654 2.4635 81.6856 1.96356L81.5982 1.97023C81.4503 1.82358 81.3764 1.7036 81.3696 1.60361L80.4083 1.69693C80.4016 1.63028 80.3679 1.53029 80.3007 1.40364C80.294 1.31698 80.5091 1.23033 80.9528 1.14367L81.1478 1.217L81.3293 1.11034C81.336 1.17034 81.3696 1.197 81.4369 1.19033L81.6184 1.08368C81.6251 1.14367 81.6587 1.17034 81.7259 1.16367L81.8133 1.157L81.7999 0.963697C81.6654 0.977028 81.3091 0.977029 80.7444 0.957031L80.5629 1.07702L80.5562 0.970363C76.0452 1.33698 73.4838 1.54362 72.8721 1.60361C72.7914 1.61028 72.4754 1.60361 71.9174 1.59028C71.9241 1.6636 71.8569 1.7036 71.7225 1.71693L71.5275 1.63028L70.8687 1.79692C70.714 1.81025 70.4519 1.80359 70.0888 1.76359C69.988 1.84358 69.867 1.89024 69.7191 1.90357C69.6384 1.91024 70.6804 1.85025 71.6485 1.78359C71.5477 1.86358 71.393 1.91024 71.1779 1.93024C71.03 1.94357 70.9023 1.92357 70.7947 1.86358C70.6468 1.93024 70.1695 2.03689 69.3695 2.19687L69.1745 2.12354L66.0283 2.60348C65.9073 2.54349 65.7661 2.52349 65.6047 2.53682C65.4367 2.55015 65.1543 2.61014 64.7644 2.7168L63.245 3.34338L63.3593 3.53002C63.4333 3.52336 63.5408 3.48336 63.6686 3.41004L64.2064 3.4567L64.1392 3.95663C63.6417 4.1766 63.3526 4.50323 63.2719 4.9165C62.5257 5.24313 62.156 5.47643 62.156 5.61641L62.1627 5.70307L62.277 5.6964L62.4786 5.58975L62.7139 5.86971L62.7476 6.25633C62.761 6.37631 61.5038 8.99596 58.9895 14.1153C56.8114 19.048 55.6685 21.7476 55.5609 22.2342C54.8147 22.4408 54.3844 22.7408 54.2567 23.1408C54.2701 23.2674 54.492 23.3541 54.9223 23.3874L54.9424 23.5807L54.7475 23.9007L54.7811 24.2873C54.8012 24.4872 55.3458 24.6406 56.4147 24.7472C56.408 24.6805 56.4416 24.6406 56.5155 24.6339C56.5357 24.8739 56.4685 25.3405 56.3139 26.0337L56.4282 26.027C56.8719 25.4271 57.0803 25.0138 57.0601 24.7872L57.1542 24.7805C57.2618 24.7739 57.3761 24.8939 57.5105 25.1538C57.3761 25.2071 56.9055 26.267 56.0987 28.3401L56.213 28.5267L56.3273 28.52C57.3156 26.0404 57.9341 24.6672 58.1895 24.4072C59.487 24.2939 61.7324 24.0673 64.919 23.7273L65.1207 23.6074C65.1274 23.674 65.1678 23.7073 65.2417 23.7007L65.4501 23.6807L65.6518 23.5607C65.6585 23.6274 65.6989 23.6607 65.7728 23.654L68.1863 23.4474C68.8249 23.3941 69.1275 23.2007 69.1006 22.8741C69.0939 22.7875 69.4703 22.6875 70.23 22.5808C70.304 22.5742 70.4115 22.5942 70.5594 22.6408C70.5527 22.5808 70.9359 22.5208 71.7023 22.4542C71.7225 22.0542 71.8502 21.8409 72.0788 21.8209L72.0586 21.6276C71.8435 21.6476 71.6015 21.7009 71.3191 21.7943C70.8149 21.7676 70.4922 21.7276 70.3577 21.6809C70.2233 21.7543 70.1224 21.7943 70.0485 21.8009L68.3678 21.8543L68.1661 21.9609C68.1594 21.9009 68.119 21.8743 68.0451 21.8809L67.951 21.8876L67.7359 21.9942C67.7291 21.9342 67.5543 21.8876 67.2048 21.8409L66.9896 21.9676L66.5728 22.0009L66.5661 21.8943C68.7308 21.6609 69.7997 21.3677 69.7729 21.021C69.914 21.0077 69.988 21.0744 70.0014 21.2143L70.6334 21.0544L70.6132 20.8611L65.4299 21.001C65.4367 21.0677 65.403 21.1077 65.3291 21.1144L64.6972 21.061C64.5358 21.0744 64.4014 21.121 64.2938 21.201L64.0585 21.1144C63.4064 21.1677 62.9223 21.2477 62.5997 21.3477C62.156 21.3143 61.6652 21.321 61.1206 21.3677L59.9576 21.4676L59.4198 21.4076C59.3929 21.0677 60.0584 19.3946 61.4299 16.395C61.8265 15.3818 62.1896 14.7485 62.5392 14.5086C62.6131 14.5019 62.7207 14.5286 62.8686 14.5886L63.6955 14.3086L64.119 14.3752C64.8316 14.3153 65.6585 14.1153 66.6064 13.7687C66.8417 13.7487 67.0165 13.762 67.1442 13.8153L67.7762 13.6687L69.6586 13.5087C70.4586 13.442 71.3258 13.2687 72.267 12.9821L72.2468 12.7888C71.8972 12.8221 71.7157 12.7621 71.7023 12.6221C71.6821 12.3622 71.4267 12.2555 70.9359 12.2955L70.9157 12.1022L71.4334 11.9556L72.7914 11.8423L72.7712 11.6489C72.7174 11.6556 72.4418 11.6489 71.9309 11.6289L71.9107 11.4223L72.4351 11.3756C72.5763 11.3623 72.6368 11.2957 72.6233 11.1623C71.9174 11.1823 71.5611 11.149 71.5544 11.0557C66.6333 11.2957 64.1661 11.3423 64.1526 11.189C64.0787 11.1957 63.9778 11.2423 63.8434 11.3223L63.7156 11.1223C65.0199 8.37605 65.7863 6.98956 66.0081 6.96957C66.0148 7.07622 65.961 7.24953 65.8468 7.48283L65.8535 7.56949L66.0619 7.54949C66.5795 6.32298 67.0165 5.68974 67.3795 5.66307C68.9258 5.52976 67.1644 5.42977 70.472 4.9165C70.6065 4.9765 70.7006 5.00316 70.7678 4.9965C72.0653 4.73653 73.8737 4.46323 76.1931 4.18327L76.1797 3.98996L74.9427 4.10328L74.9292 3.90997C75.0771 3.89664 75.1981 3.84998 75.299 3.76999L75.3057 3.87664C75.3729 3.86998 75.467 3.82332 75.5881 3.74333C75.8032 3.72333 75.9645 3.74333 76.0788 3.80332C76.5091 3.69 76.8587 3.62334 77.1141 3.59668L77.8872 3.52336C78.0755 3.40337 78.1629 3.29672 78.1562 3.19673L78.1494 3.11008C77.9545 3.13008 77.7326 3.11674 77.4704 3.07008C77.4637 2.96343 77.5175 2.89011 77.6452 2.85678L79.0839 2.72346L79.7427 2.55682C79.7495 2.63014 79.7831 2.65681 79.8368 2.65681C79.9041 2.65014 79.9982 2.60348 80.1192 2.52349C80.1528 2.53016 80.1932 2.53016 80.2268 2.53682C80.1394 2.7168 80.0385 2.97676 79.9377 3.31672L79.7494 3.33005C79.736 3.2034 79.7024 3.09008 79.6419 2.99009L79.5478 2.99676C77.7998 7.82279 77.02 10.0692 75.4065 13.7753C75.1107 14.7219 74.862 15.2485 74.6469 15.3618C74.6536 15.4684 74.7208 15.5218 74.8351 15.5084C74.8754 15.975 74.7679 16.435 74.5057 16.8882C73.7595 19.0213 73.262 20.1878 73.0065 20.4011L73.1746 21.4076C73.1813 21.5143 73.1275 21.5743 73.0132 21.5876L72.8384 21.601C72.8116 21.321 72.7107 21.1877 72.5292 21.2077L72.4351 21.2143C72.2065 21.5676 72.0317 21.9742 71.9174 22.4475L72.0922 22.4342C72.3275 22.2809 72.4351 22.1009 72.4149 21.8943L72.7645 21.8609L72.9662 21.9342C72.8048 22.1875 72.7309 22.3875 72.7443 22.5408L72.8384 22.7008L72.6099 23.2341L72.6166 23.3207C72.8183 23.3007 73.0401 23.3674 73.2754 23.5074C73.4368 23.494 73.6116 23.4207 73.8065 23.2941C74.0082 23.2741 74.7612 23.2674 76.0586 23.2674L76.7108 23.0474C77.504 23.0408 77.6318 23.0608 78.3175 23.0008L78.5999 22.9741L78.7478 22.8741L78.7545 22.9608C79.4738 22.9008 79.5209 22.9474 80.0856 23.0141L80.0923 23.1008L79.6957 23.1341L79.7091 23.3007C79.8301 23.2874 79.9377 23.2541 80.0251 23.1807C80.1259 23.1741 80.1864 23.2274 80.1932 23.3474C80.0318 23.3607 79.8503 23.4007 79.6486 23.4674L79.4738 23.4074C79.1982 23.4807 79.2587 23.5007 79.0704 23.514L78.7948 23.4607C78.8015 23.5074 78.7747 23.5407 78.7276 23.5407C78.7343 23.6474 78.7948 23.7007 78.8957 23.694L79.178 23.6673L80.6503 23.5407L81.2083 23.4207C81.215 23.4674 81.2352 23.494 81.2822 23.4874L81.5511 23.3874L82.0554 23.3474C82.4453 23.3141 82.4386 23.2874 83.2856 23.1541C83.2789 23.1008 83.2991 23.0808 83.3394 23.0741L83.3461 23.1474C84.7243 22.9141 84.8117 22.9008 85.0335 22.8275L85.0537 22.8675C85.3966 22.7875 85.2016 22.8075 85.2957 22.7408C85.3025 22.8008 85.3226 22.8275 85.3562 22.8275L85.5983 22.8075L85.5848 22.6275L85.094 22.6208L85.0873 22.6075C85.0672 22.6142 85.0537 22.6142 85.0335 22.6208H84.9663V22.6342C84.6369 22.7008 84.6302 22.6541 84.415 22.6741L83.1848 22.7408L83.1781 22.6541L83.8638 22.5608L84.1125 22.5408L84.2537 22.4408L84.2604 22.5275C85.2285 22.4475 85.5714 22.6875 90.0487 21.7409C90.2908 21.7209 90.2706 21.521 90.4252 21.1077C90.3445 21.1144 90.2639 21.0944 90.1899 21.0544C89.8202 21.1943 89.6252 21.1277 88.9126 21.241C88.8521 21.2477 88.805 21.1943 88.7849 21.0877L88.7781 21.0144L89.4639 21.0344C89.5916 21.021 89.8403 21.001 90.2101 20.7944C90.2101 20.8544 90.0689 20.8877 90.1496 20.8811ZM57.0466 21.4076L56.7307 21.4343C56.7172 21.3077 56.8853 20.8277 57.2349 20.0078L57.4433 19.9878C57.45 20.1811 57.3223 20.6544 57.0466 21.4076ZM57.4298 19.8878L57.4231 19.8012C57.4164 19.6945 57.4836 19.6212 57.6315 19.5879L57.6383 19.6745C57.645 19.8012 57.5777 19.8745 57.4298 19.8878ZM61.6316 23.1074L61.6383 23.1941L61.1139 23.2407L61.1072 23.1541L61.6316 23.1074ZM60.9996 23.0541C61.0064 23.1607 60.845 23.2807 60.4954 23.4007L59.85 23.3541L59.6416 23.3741L59.6215 23.1807L60.9996 23.0541ZM65.2484 3.66334L64.9325 3.69L64.9257 3.58335C64.919 3.4767 64.9795 3.40337 65.114 3.37004L65.2283 3.36338L65.4434 3.45003C65.4501 3.57668 65.3896 3.65001 65.2484 3.66334ZM70.0552 2.73013L70.1561 2.72346L70.1695 2.91677L69.8804 2.94343C69.8737 2.83678 69.9275 2.76346 70.0552 2.73013ZM68.8451 3.15007L68.3678 3.09675L68.3611 3.01009C68.9863 2.95677 69.1947 2.89011 69.5779 2.78345C69.5846 2.85678 69.6518 2.88344 69.7729 2.87011L69.7863 3.06342L69.5981 3.08342C69.4502 3.09675 69.3224 3.07675 69.2149 3.01676C69.1006 3.09008 68.9796 3.13674 68.8451 3.15007ZM69.4434 4.87651L69.4367 4.78986L70.2098 4.71653L70.2166 4.80319L69.4434 4.87651ZM70.2703 4.20993L70.2636 4.10328L70.6401 4.06995L70.6468 4.1766L70.2703 4.20993ZM70.3577 2.90344L70.2569 2.91011L70.3443 2.70347L71.2048 2.62348L71.2115 2.73013C70.9897 2.75013 70.7006 2.81012 70.3577 2.90344ZM70.7947 4.7432L70.7813 4.54989L71.1578 4.51656C71.2855 4.50323 71.3527 4.56322 71.3594 4.69653L70.7947 4.7432ZM73.0737 1.6636L72.5897 1.79692L72.5023 1.80359C72.2737 1.82358 71.9779 1.81692 71.6283 1.78359C72.2536 1.74359 72.8519 1.69693 73.0737 1.6636ZM72.5561 3.79665L72.5628 3.88331L71.8973 3.9433L71.8905 3.85665L72.5561 3.79665ZM73.6452 4.30992C73.6385 4.22993 73.5107 4.1766 73.2485 4.14994L72.583 4.33658L72.072 4.35658C71.9578 4.27659 71.8973 4.22326 71.8905 4.18327L72.4821 4.2166L73.8132 4.00329L74.4922 4.02996L74.499 4.13661C74.1628 4.16994 73.8805 4.22993 73.6452 4.30992ZM80.4957 2.55682C80.5764 2.56348 80.6301 2.56348 80.6503 2.56348C80.8856 2.33685 81.1478 2.15687 81.4503 2.03022C81.2083 3.08342 80.8318 3.86331 80.3142 4.36991L79.9377 4.14327C80.2537 3.35005 80.4419 2.82345 80.4957 2.55682ZM79.3394 4.52322L79.4335 4.51656C79.3057 4.75653 79.1915 4.88318 79.0973 4.88984L79.0772 4.63654C79.1377 4.63654 79.2251 4.59655 79.3394 4.52322ZM78.5931 6.28966C78.7747 5.56975 78.9494 5.16314 79.1108 5.05649L79.1175 5.14314C79.0234 5.80972 78.8755 6.16301 78.6805 6.18967L78.7141 6.60961C78.5528 6.83625 78.4788 7.00956 78.4856 7.14288L78.3914 7.14954L78.3377 6.56962C78.4452 6.55629 78.5326 6.46297 78.5931 6.28966ZM78.304 7.24953C78.3108 7.34951 78.2436 7.58282 78.1091 7.94277L78.015 7.94944L77.9948 7.69614C78.1225 7.40284 78.2301 7.25619 78.304 7.24953ZM72.8788 22.8608L72.8721 22.7875L73.0468 22.7741L73.067 23.0274C72.9729 23.0341 72.9057 22.9808 72.8788 22.8608ZM80.6301 23.0608C80.6234 23.0008 80.5965 22.9741 80.536 22.9808L80.099 23.0208L80.0923 22.9341H80.1326L81.168 22.8475L81.1747 22.9341C80.8722 22.9474 80.6906 22.9941 80.6301 23.0608ZM80.1125 22.8475C80.1528 22.8675 80.1326 22.8875 80.1125 22.9008C80.0923 22.8941 80.0654 22.8741 80.1125 22.8475ZM80.1663 21.6476L79.5881 21.6943L79.5814 21.6076L80.1058 21.561L80.5629 21.4476C80.5696 21.501 80.5965 21.521 80.657 21.5143C81.2016 21.421 81.1478 21.3943 81.41 21.3743C81.4974 21.3677 81.5511 21.421 81.5579 21.5276L80.1663 21.6476ZM82.1898 21.4743C81.8671 21.441 81.847 21.4143 81.6184 21.4343L81.6117 21.361L82.1293 21.3143L82.136 21.3876C82.0822 21.3943 82.2772 21.4076 82.1898 21.4743ZM82.2301 21.381L82.2234 21.3077L82.5058 21.281L82.5125 21.3543L82.2301 21.381ZM82.8554 21.3277L82.8486 21.2543C82.8957 21.2477 82.9629 21.2143 83.0503 21.1477C83.1915 21.1343 83.2655 21.2277 83.2789 21.3343L82.8554 21.3277ZM83.6554 21.2277L83.6487 21.141L83.9915 21.1144L83.9982 21.201L83.6554 21.2277ZM84.1327 21.1877C84.126 21.0877 84.1663 21.0277 84.2537 21.0144L84.368 21.161C84.3613 21.1144 84.3814 21.0877 84.4218 21.081L84.5092 21.241L84.1327 21.1877ZM90.7479 20.4144L90.7546 20.4078V20.4011C90.7546 20.4011 90.7479 20.4078 90.7479 20.4144ZM90.8689 20.3278C90.9227 20.2945 90.9496 20.2611 90.8219 20.2411C90.7613 20.3078 90.8891 20.3278 90.7546 20.3345L90.7613 20.3944C90.7748 20.3811 90.8084 20.3611 90.8353 20.3411L90.7613 20.4011V20.4078L90.6202 20.5878L90.9025 20.4878H90.9361L90.9227 20.3211L90.8689 20.3278ZM91.3597 20.7077L91.3059 20.7144L91.3193 20.8811L91.716 20.8477C91.7093 20.7411 91.4471 20.7077 91.3597 20.7077Z" fill="white"/>
</svg>
