<svg width="61" height="50" viewBox="0 0 61 50" fill="none" xmlns="http://www.w3.org/2000/svg">
<path d="M0 8.5321H14.0931V12.6146H0V8.5321ZM0 0.950195H14.0931V5.03267H0V0.950195ZM25.2851 16.0556H0V20.138H24.3376C27.0022 20.138 33.2197 20.1962 35.5292 23.8705V21.5961C34.4041 17.98 31.0881 16.0556 25.2849 16.0556H25.2851ZM25.344 23.6372H0V27.7197H24.3376C30.259 27.7197 33.9896 27.953 35.5292 28.7696V26.9616C34.3447 24.1038 29.3708 23.6372 25.3442 23.6372H25.344ZM25.2851 42.8833H0V38.8008H24.3376C27.0022 38.8008 33.2197 38.7426 35.5292 35.0683V37.3427C34.4041 40.9588 31.0881 42.8833 25.2849 42.8833H25.2851ZM25.344 35.3016H0V31.2191H24.3376C30.259 31.2191 33.9896 30.9858 35.5292 30.1692V31.9773C34.3447 34.835 29.3708 35.3016 25.3442 35.3016H25.344ZM41.6875 49.9403H60.2812V47.4324H42.2204C40.6215 47.4324 36.832 47.3741 35.4701 45.2161V46.616C36.1214 48.7738 38.1347 49.9403 41.6875 49.9403ZM41.6284 45.3328H60.2221V42.8251H42.2204C38.6082 42.8251 36.358 42.7084 35.4698 42.1836V43.2917C36.1803 45.0413 39.2002 45.3328 41.6282 45.3328H41.6284Z" fill="white"/>
</svg>
