<svg width="43" height="58" viewBox="0 0 43 58" fill="none" xmlns="http://www.w3.org/2000/svg">
<path d="M10.7168 0H16.9822V2.57753H13.3369V5.15505H16.9822V7.73258H10.7168V0Z" fill="white"/>
<path d="M18.2344 0H24.4998V2.24133H20.8544V2.68959H24.4998V7.84464H18.2344V5.49125H21.8797V5.04298H18.2344V0Z" fill="white"/>
<path d="M25.7539 0H32.0193V2.24133H28.374V2.68959H32.0193V7.84464H25.7539V5.49125H29.3992V5.04298H25.7539V0Z" fill="white"/>
<path fill-rule="evenodd" clip-rule="evenodd" d="M38.5465 52.7627L42.3107 11.2759H0.992188L4.75243 52.7692L21.6262 57.3777L38.5465 52.7627ZM28.0029 35.1464L27.4024 41.7465L21.6329 43.2784V43.2799L21.6318 43.2802L15.8706 41.7498L15.5023 37.6911H12.7028H10.3095L11.0342 45.6815L21.6307 48.5754L21.6545 48.5689V48.567L32.2378 45.6815L32.3156 44.8217L33.5312 31.424L33.6575 30.0575L34.5913 19.7573H21.6329V19.7574H8.68164L9.15189 24.8464H21.653V24.8463H28.9222L28.4515 30.0575H21.6329V30.0576H9.61419L10.0778 35.1465H21.654V35.1464H28.0029Z" fill="white"/>
</svg>
