<svg width="59" height="52" viewBox="0 0 59 52" fill="none" xmlns="http://www.w3.org/2000/svg">
<path d="M18.51 18.9623L29.4257 12.7009C29.56 12.6238 29.7123 12.5833 29.8673 12.5833C30.0224 12.5833 30.1747 12.6238 30.3089 12.7009L41.2246 18.9623C41.3589 19.0393 41.4703 19.1501 41.5478 19.2834C41.6254 19.4168 41.6662 19.5681 41.6663 19.7221V32.2449C41.6663 32.5582 41.4977 32.8478 41.2246 33.0048L30.3089 39.2662C30.1747 39.3432 30.0224 39.3838 29.8673 39.3838C29.7123 39.3838 29.56 39.3432 29.4257 39.2662L18.51 33.0048C18.3757 32.9278 18.2643 32.817 18.1867 32.6836C18.1092 32.5502 18.0684 32.399 18.0684 32.2449V19.7219C18.0686 19.4084 18.2369 19.119 18.51 18.962" fill="white"/>
<path d="M58.165 24.957L45.1091 2.39004C44.6349 1.57415 43.7589 0.972168 42.8105 0.972168H16.6986C15.7502 0.972168 14.8737 1.57415 14.3996 2.39004L1.34393 24.9072C0.869733 25.7233 0.869733 26.7534 1.34393 27.5695L14.3996 49.9515C14.8737 50.7674 15.7502 51.1845 16.6986 51.1845H42.8103C43.7587 51.1845 44.6349 50.7799 45.1089 49.9638L58.1648 27.5454C58.6394 26.7297 58.6394 25.7729 58.1648 24.957H58.165ZM47.354 35.8088C47.354 36.1403 47.1531 36.4474 46.8637 36.6135L30.2334 46.1463C30.0902 46.2278 29.928 46.2707 29.763 46.2707C29.598 46.2707 29.4358 46.2278 29.2926 46.1463L12.6495 36.6135C12.3603 36.4474 12.1578 36.1406 12.1578 35.8085V16.7425C12.1578 16.4105 12.3574 16.1039 12.6468 15.9378L29.2762 6.40475C29.4193 6.3231 29.5815 6.28014 29.7465 6.28014C29.9115 6.28014 30.0736 6.3231 30.2167 6.40475L46.8607 15.9378C47.1504 16.1039 47.354 16.4105 47.354 16.7425V35.8085V35.8088Z" fill="white"/>
</svg>
