<svg width="32" height="68" viewBox="0 0 32 68" fill="none" xmlns="http://www.w3.org/2000/svg">
<path fill-rule="evenodd" clip-rule="evenodd" d="M16.0467 53.6018C12.1068 53.6018 9.0625 53.015 7.59854 52.6653C6.59743 52.4262 5.79355 52.1787 5.18287 51.9245L7.13533 55.2319L7.89908 65.5661C7.89908 66.7246 11.611 67.6638 16.1898 67.6638C20.7686 67.6638 24.4805 66.7246 24.4805 65.5661L25.0852 55.1194L26.9326 51.9148C26.3193 52.1725 25.5083 52.4232 24.4946 52.6653C23.0307 53.015 19.9863 53.6018 16.0467 53.6018ZM26.996 19.974C24.1044 20.3744 20.2666 20.5951 16.1898 20.5951C12.1129 20.5951 8.27519 20.3744 5.38357 19.974C3.95121 19.7757 2.81798 19.5417 2.01532 19.2791C1.82386 19.2162 1.49941 19.1091 1.18717 18.9385L2.97872 35.2867C3.06197 35.0052 3.15465 34.724 3.25745 34.4438C3.46776 33.8697 3.71105 33.3083 3.98716 32.7599C4.26344 32.2117 4.56416 31.6934 4.8893 31.2053C5.21428 30.7173 5.56037 30.2679 5.92706 29.8572C6.29392 29.4468 6.67021 29.0938 7.05662 28.7978C7.44286 28.5023 7.83276 28.2711 8.22632 28.1046C8.62006 27.9381 9.00996 27.8547 9.3962 27.8547C9.84108 27.8547 10.2715 27.9754 10.6872 28.2166C11.1028 28.4576 11.4913 28.8482 11.8532 29.3879C11.9363 29.5085 11.989 29.6305 12.0108 29.7539C12.033 29.8775 12.0438 29.9938 12.0438 30.1028C12.0438 30.3611 11.9815 30.5652 11.8569 30.7143C11.7323 30.8637 11.5843 30.9383 11.4132 30.9383C11.2565 30.9383 11.1111 30.8564 10.9767 30.6929C10.8422 30.5292 10.6919 30.2952 10.5256 29.9908C10.369 29.7152 10.1968 29.5158 10.0086 29.3923C9.82031 29.2689 9.61628 29.2071 9.3962 29.2071C9.05394 29.2071 8.68848 29.3478 8.2998 29.6292C7.91095 29.9104 7.52593 30.2822 7.14476 30.7444C6.76324 31.2068 6.39777 31.735 6.04819 32.3294C5.6986 32.9236 5.38916 33.5322 5.12021 34.1552C4.85126 34.7785 4.63763 35.393 4.47864 35.9987C4.31964 36.6043 4.24023 37.1484 4.24023 37.6307C4.24023 37.7916 4.2514 37.9569 4.27321 38.1259C4.29538 38.2955 4.33674 38.449 4.398 38.5869C4.45891 38.7248 4.54216 38.838 4.64723 38.9268C4.75247 39.0161 4.88564 39.0604 5.04691 39.0604C5.22789 39.0604 5.43314 39.0002 5.66317 38.8795C5.89285 38.7593 6.13126 38.6011 6.37805 38.4061C6.62501 38.2107 6.87319 37.9897 7.12259 37.7426C7.37217 37.4959 7.6043 37.2462 7.81932 36.9933C8.03434 36.7409 8.2251 36.4981 8.39125 36.2657C8.55758 36.0331 8.6822 35.8306 8.76545 35.6583L9.44751 33.6341C9.53059 33.4161 9.63932 33.2611 9.77388 33.1692C9.90827 33.0773 10.0465 33.0313 10.1884 33.0313C10.2566 33.0313 10.325 33.0428 10.3936 33.0657C10.4622 33.0887 10.5231 33.1247 10.5771 33.1733C10.6308 33.2223 10.6736 33.2853 10.7053 33.363C10.7371 33.4403 10.753 33.5308 10.753 33.6341C10.753 33.9098 10.7286 34.168 10.6797 34.4094C10.6308 34.6508 10.5685 34.886 10.4926 35.1158C10.4169 35.3452 10.3324 35.5764 10.2395 35.809C10.1467 36.0416 10.0561 36.2842 9.96831 36.537C9.94876 36.5657 9.91333 36.6559 9.86185 36.808C9.81053 36.9605 9.7484 37.1515 9.67492 37.381C9.60162 37.6108 9.52203 37.8676 9.43651 38.1519C9.35082 38.4362 9.26303 38.726 9.17262 39.0218C9.08204 39.3175 8.9953 39.6075 8.91223 39.8919C8.82897 40.176 8.75428 40.433 8.68848 40.6628C8.62251 40.8922 8.56753 41.0845 8.52337 41.2397C8.47939 41.3948 8.45251 41.4865 8.44274 41.5156C8.41831 41.6071 8.37904 41.7092 8.32546 41.821C8.2717 41.9329 8.20817 42.0394 8.13469 42.1397C8.06139 42.2401 7.98076 42.3237 7.89262 42.3894C7.80466 42.4554 7.71425 42.4886 7.62123 42.4886C7.46485 42.4886 7.35105 42.4369 7.28037 42.3337C7.20933 42.2302 7.17408 42.0408 7.17408 41.7653V41.6447C7.17408 41.6043 7.17635 41.5611 7.18124 41.5156C7.18595 41.4235 7.22277 41.2511 7.29136 40.9983C7.35978 40.7458 7.44163 40.4603 7.5371 40.1416C7.6324 39.8228 7.73519 39.4926 7.84515 39.1509C7.95493 38.8093 8.05406 38.5037 8.1422 38.2337C7.88267 38.521 7.60185 38.8065 7.29869 39.0908C6.99536 39.375 6.68487 39.6306 6.36723 39.8573C6.04923 40.0841 5.72897 40.2693 5.40644 40.4129C5.08373 40.5564 4.77324 40.6284 4.47497 40.6284C4.13272 40.6284 3.83811 40.5536 3.59098 40.4043C3.54647 40.3771 3.50441 40.3468 3.46252 40.3167L4.45944 50.6801C4.71896 51.3251 9.60476 52.9096 16.0467 52.9096C22.4915 52.9096 27.3793 51.3235 27.6343 50.6791L29.0663 38.3578C28.9478 38.4656 28.8324 38.571 28.7221 38.6731C28.3113 39.0519 27.9236 39.3777 27.5594 39.6505C27.1953 39.9232 26.8394 40.1345 26.4923 40.2835C26.145 40.433 25.7734 40.5076 25.3774 40.5076C25.0058 40.5076 24.7184 40.4271 24.5156 40.2663C24.3128 40.1057 24.2112 39.8848 24.2112 39.6032V39.5387C24.2112 39.5186 24.2136 39.494 24.2187 39.4653C24.2381 39.2933 24.3142 39.0948 24.4461 38.8711C24.5781 38.647 24.7369 38.4146 24.9226 38.1735C25.1085 37.9323 25.3064 37.6881 25.5167 37.4412C25.727 37.1944 25.9214 36.9605 26.1 36.7391C26.2783 36.5185 26.4262 36.316 26.5434 36.1321C26.6611 35.9483 26.7197 35.7991 26.7197 35.6842C26.7197 35.6154 26.6951 35.5609 26.6464 35.5204C26.5974 35.4806 26.5166 35.4601 26.4043 35.4601C26.2087 35.4601 26.0069 35.5105 25.7994 35.6109C25.5914 35.7112 25.3858 35.8466 25.183 36.0158C24.9802 36.1852 24.7821 36.3792 24.5889 36.5972C24.396 36.8154 24.215 37.0423 24.0463 37.2775C23.8775 37.5132 23.7237 37.7501 23.5843 37.9883C23.4448 38.2266 23.3263 38.4462 23.2284 38.647C23.1991 38.7103 23.1576 38.7994 23.1036 38.914C23.0499 39.0289 22.9912 39.1583 22.9277 39.3018C22.864 39.4454 22.7968 39.5934 22.7259 39.7451C22.6551 39.8976 22.5903 40.0412 22.5317 40.176C22.473 40.311 22.4205 40.4312 22.3743 40.5377C22.3275 40.6437 22.2945 40.7171 22.275 40.7574C22.2505 40.809 22.2102 40.9064 22.154 41.0501C22.0978 41.1937 22.0329 41.3617 21.9598 41.554C21.8864 41.7462 21.8093 41.9487 21.7285 42.1614C21.6482 42.3735 21.5721 42.5748 21.5013 42.7643C21.4302 42.9536 21.3679 43.1202 21.3143 43.2638C21.2606 43.4071 21.226 43.5049 21.2114 43.5566C21.1627 43.706 21.1051 43.8463 21.0393 43.9789C20.9731 44.1107 20.8976 44.227 20.8119 44.3277C20.7263 44.4281 20.6286 44.5084 20.5185 44.5686C20.4084 44.6292 20.285 44.6591 20.1483 44.6591C19.972 44.6591 19.8268 44.6172 19.7116 44.5342C19.597 44.4509 19.5394 44.2914 19.5394 44.0562C19.5394 43.9413 19.554 43.8237 19.5834 43.7032C19.6127 43.5826 19.6495 43.4632 19.6935 43.3457C19.7375 43.2277 19.7828 43.1131 19.8293 43.0012C19.8755 42.889 19.9184 42.7816 19.9574 42.6781C20.2216 42.1039 20.4906 41.5284 20.7642 40.9511C21.0379 40.3741 21.3007 39.8029 21.5527 39.2372C21.6051 39.1192 21.6533 39.0036 21.7044 38.8863C21.6891 38.9012 21.674 38.9167 21.659 38.9313C21.341 39.2358 21.0246 39.5041 20.7092 39.7366C20.3937 39.9692 20.0808 40.1544 19.7706 40.2923C19.46 40.4299 19.158 40.4989 18.8645 40.4989C18.6641 40.4989 18.4967 40.4674 18.3623 40.4043C18.2278 40.3409 18.1204 40.2547 18.0396 40.1459C17.9588 40.0369 17.9012 39.9076 17.867 39.7583C17.8555 39.7072 17.8483 39.6539 17.8408 39.6008C17.755 39.6671 17.6684 39.7316 17.5811 39.7929C17.278 40.005 16.9797 40.176 16.6863 40.3051C16.3931 40.4344 16.1289 40.4989 15.8945 40.4989C15.6596 40.4989 15.469 40.4214 15.322 40.2663C15.1754 40.1115 15.1023 39.8472 15.1023 39.4741C15.1023 39.2097 15.1414 38.9026 15.2194 38.5525C15.0923 38.7764 14.9335 39.0033 14.7429 39.2327C14.552 39.4625 14.3345 39.6721 14.0902 39.8617C13.8453 40.0511 13.5717 40.2047 13.2687 40.3224C12.9653 40.4401 12.6353 40.4989 12.2786 40.4989C12.1171 40.4989 11.962 40.4788 11.8127 40.4387C11.6635 40.3984 11.5328 40.3295 11.4204 40.2319C11.3078 40.1345 11.2176 40.0036 11.149 39.8401C11.0806 39.6766 11.0464 39.471 11.0464 39.2242C11.0464 39.2185 11.0562 39.131 11.0757 38.9614C11.0952 38.792 11.1576 38.525 11.2628 38.1604C11.3679 37.7959 11.5305 37.3235 11.7503 36.7435C11.9705 36.1636 12.281 35.4601 12.6819 34.6335C12.7845 34.4151 12.9032 34.2587 13.0374 34.164C13.1722 34.0692 13.3174 34.0218 13.4737 34.0218C13.5423 34.0218 13.6132 34.032 13.6865 34.0519C13.7602 34.0721 13.8284 34.1036 13.8921 34.1467C13.9555 34.1898 14.0069 34.2445 14.0462 34.3104C14.085 34.3763 14.1048 34.4523 14.1048 34.5385C14.1048 34.5959 14.0973 34.6508 14.0827 34.702C14.0581 34.8001 14.0055 34.9275 13.9253 35.0853C13.8444 35.2435 13.7502 35.4243 13.6425 35.6282C13.5352 35.832 13.4214 36.0516 13.3017 36.2873C13.1818 36.5225 13.0706 36.7665 12.968 37.0193C12.8653 37.2721 12.7772 37.5289 12.7039 37.7902C12.6306 38.0515 12.5889 38.3057 12.5793 38.5525C12.5793 38.6558 12.6035 38.7504 12.6526 38.8366C12.7015 38.9228 12.7823 38.9657 12.8947 38.9657C13.2123 38.9657 13.5155 38.8622 13.8041 38.6558C14.0925 38.449 14.3588 38.192 14.6035 37.8849C14.848 37.5777 15.0691 37.2474 15.2672 36.8942C15.4653 36.541 15.6302 36.2183 15.7622 35.9253C15.8552 35.7303 15.9371 35.5204 16.0079 35.2966C16.0788 35.0725 16.1559 34.8661 16.239 34.6764C16.3223 34.4867 16.4174 34.3289 16.5251 34.2026C16.6324 34.0765 16.7671 34.0131 16.9282 34.0131C17.1045 34.0131 17.2436 34.0792 17.3466 34.2113C17.4492 34.3435 17.5003 34.5013 17.5003 34.6849C17.5003 34.7882 17.4675 34.9306 17.4014 35.1114C17.3352 35.2923 17.2522 35.4991 17.152 35.7316C17.0516 35.9642 16.9429 36.2125 16.8258 36.4764C16.7085 36.7409 16.5994 37.0091 16.4996 37.282C16.3989 37.5547 16.3161 37.8217 16.25 38.083C16.1839 38.3441 16.151 38.5869 16.151 38.8107C16.151 39.0175 16.2586 39.1209 16.4736 39.1209C16.6252 39.1209 16.8134 39.0692 17.0384 38.9657C17.2633 38.8622 17.4993 38.7174 17.7461 38.5307C17.8077 38.4841 17.8698 38.4355 17.9314 38.3845C18.0004 38.1026 18.0812 37.842 18.1752 37.605C18.3463 37.1569 18.5199 36.7121 18.696 36.27C18.872 35.8279 19.0332 35.4229 19.1802 35.0554L21.4023 29.4999C21.4903 29.276 21.6089 29.118 21.7578 29.0261C21.9072 28.9344 22.0575 28.8883 22.2092 28.8883C22.3605 28.8883 22.4985 28.9371 22.6233 29.0347C22.7481 29.1325 22.8106 29.2903 22.8106 29.5085C22.8106 29.6119 22.7896 29.721 22.7481 29.8358C22.7066 29.9507 22.654 30.0741 22.5903 30.2061C22.4683 30.4762 22.3228 30.8062 22.154 31.1966C21.9852 31.5872 21.8042 32.0122 21.6112 32.4714C21.418 32.9309 21.2199 33.4088 21.0171 33.9055C20.8143 34.4023 20.6162 34.886 20.423 35.3568C20.2302 35.8279 20.049 36.274 19.8802 36.6962C19.7116 37.1183 19.5664 37.4844 19.4439 37.7944C19.3901 37.9264 19.3376 38.0802 19.2865 38.2554C19.235 38.4303 19.2095 38.5869 19.2095 38.7248C19.2095 38.8107 19.2242 38.8795 19.2535 38.9313C19.2828 38.983 19.339 39.009 19.4221 39.009C19.5247 39.009 19.653 38.9732 19.8071 38.9012C19.961 38.8295 20.1272 38.7345 20.3057 38.6169C20.4844 38.4994 20.6702 38.3644 20.863 38.2121C21.0564 38.06 21.2482 37.9022 21.4388 37.7385C21.6297 37.5746 21.8118 37.4111 21.9852 37.2474C22.1587 37.0838 22.3142 36.9331 22.4512 36.7952C22.4833 36.7621 22.5217 36.7388 22.564 36.7213C22.6465 36.4768 22.7219 36.2373 22.7884 36.003C22.8275 35.8995 22.8814 35.7533 22.9499 35.5636C23.0181 35.374 23.0965 35.1874 23.1844 35.0036C23.2724 34.82 23.3717 34.6605 23.4813 34.5257C23.5914 34.3909 23.7101 34.3232 23.8372 34.3232C24.0328 34.3232 24.1747 34.3679 24.2627 34.4566C24.3506 34.5459 24.3946 34.6764 24.3946 34.8488C24.3946 34.8832 24.3897 34.9377 24.38 35.0123C24.37 35.087 24.3581 35.1661 24.3435 35.2494C24.3288 35.3324 24.3128 35.4115 24.2957 35.4863C24.2784 35.5608 24.2627 35.6154 24.248 35.6498C24.4287 35.4544 24.6243 35.2608 24.8346 35.0685C25.0449 34.8761 25.2624 34.702 25.4874 34.5473C25.7125 34.3921 25.9422 34.2661 26.1771 34.168C26.4115 34.0707 26.6464 34.0218 26.881 34.0218C27.0422 34.0218 27.2025 34.0448 27.3613 34.0908C27.5201 34.1367 27.6622 34.2042 27.7866 34.2931C27.9114 34.3824 28.013 34.4942 28.091 34.6292C28.1692 34.764 28.2083 34.9204 28.2083 35.0985C28.2083 35.3342 28.1486 35.5852 28.0287 35.8523C27.909 36.1193 27.7587 36.3877 27.5777 36.6573C27.3967 36.9274 27.2011 37.1899 26.9911 37.4455C26.7808 37.7011 26.5841 37.9335 26.4007 38.1431C26.2172 38.353 26.0631 38.5307 25.9383 38.6771C25.8141 38.8238 25.7488 38.9228 25.7441 38.9745C25.7441 39.0434 25.7663 39.0993 25.8102 39.1426C25.8542 39.1855 25.9275 39.2071 26.0301 39.2071C26.1132 39.2071 26.2357 39.1611 26.3968 39.0692C26.5581 38.9773 26.7845 38.8181 27.0752 38.5912C27.366 38.3644 27.7355 38.06 28.1828 37.6781C28.4896 37.4164 28.8488 37.1044 29.2535 36.7495L31.1933 18.938C30.8809 19.109 30.5559 19.2162 30.3643 19.2791C29.5618 19.5417 28.4285 19.7757 26.996 19.974ZM16.1783 15.748C7.79235 15.748 0.994141 16.6777 0.994141 17.8246C0.994141 18.9715 7.79235 19.9012 16.1783 19.9012C24.5642 19.9012 31.3624 18.9715 31.3624 17.8246C31.3624 16.6777 24.5642 15.748 16.1783 15.748ZM22.2411 18.4315C22.2411 18.7006 21.4332 18.9188 20.4365 18.9188C19.4399 18.9188 18.632 18.7006 18.632 18.4315C18.632 18.1622 19.4399 17.944 20.4365 17.944C21.4332 17.944 22.2411 18.1622 22.2411 18.4315Z" fill="white"/>
<path fill-rule="evenodd" clip-rule="evenodd" d="M18.996 18.2161C18.987 18.2302 18.9824 18.2447 18.9824 18.2594C18.9824 18.4336 19.6329 18.5747 20.435 18.5747C21.2374 18.5747 21.8877 18.4336 21.8877 18.2594L23.785 10.6318L31.3304 2.73314C31.3329 2.73073 31.3353 2.72823 31.3376 2.72566C31.4973 2.54655 31.1732 1.99228 30.6355 1.51692C30.0977 1.04157 29.5171 0.880632 29.3366 1.06164C29.3352 1.06299 29.3339 1.06437 29.3327 1.06576L21.282 9.46513L18.996 18.2161Z" fill="white"/>
</svg>
