<svg width="117" height="26" viewBox="0 0 117 26" fill="none" xmlns="http://www.w3.org/2000/svg">
<path d="M13.3048 2.17959L12.7165 2.97845C11.9302 4.12134 11.8559 5.54089 12.4014 6.8033C12.9764 8.1429 14.1526 9.19643 15.5283 9.69442C15.585 9.7155 15.6427 9.73446 15.6998 9.75322L15.7769 9.77742C15.8585 9.80249 15.9381 9.83082 16.022 9.84659C19.8246 10.572 20.8564 7.92063 21.1307 7.52954C20.227 8.81453 18.708 9.1211 16.8449 8.67423C16.6984 8.63937 16.5377 8.58866 16.3967 8.53936C16.2139 8.47479 16.035 8.40103 15.8609 8.31803C15.5299 8.16133 15.215 7.96899 14.9225 7.75087C13.2556 6.50174 12.2174 4.12043 13.3048 2.17959ZM8.99089 3.10986L7.90191 4.62805C6.56789 6.52374 6.64116 9.06228 7.68131 11.0674C7.85589 11.4037 8.051 11.7284 8.26957 12.0391C8.46954 12.3218 8.69452 12.6595 8.95937 12.8864C9.05595 12.9912 9.15498 13.0934 9.257 13.1942L9.33754 13.2703C9.4368 13.3657 9.53738 13.4591 9.64217 13.5504L9.65267 13.5608L9.65617 13.5642C9.77179 13.6642 9.89181 13.7598 10.0133 13.8547L10.0939 13.917C10.2159 14.0093 10.3412 14.1004 10.4685 14.1867L10.479 14.1971C10.5348 14.2356 10.5939 14.2711 10.6506 14.3078L10.7311 14.3596C10.8223 14.4174 10.9143 14.472 11.0078 14.5256L11.0463 14.5498C11.127 14.5955 11.2089 14.6409 11.2914 14.6847L11.3789 14.7297C11.4361 14.7587 11.4929 14.7879 11.5505 14.8161L11.575 14.83C11.6924 14.8872 11.8116 14.9402 11.9322 14.9925L12.0127 15.0236C12.1097 15.064 12.2049 15.1045 12.3033 15.1412C12.345 15.1568 12.3872 15.1714 12.4294 15.1862C12.5182 15.2189 12.6088 15.2495 12.699 15.2795C12.7398 15.2925 12.7813 15.305 12.8216 15.3176C12.9499 15.3569 13.077 15.4063 13.2102 15.4282C20.0972 16.5551 21.6875 11.3198 21.6875 11.3198C20.2542 13.3589 17.4778 14.3308 14.5163 13.5712C14.3844 13.5371 14.2529 13.5008 14.1242 13.4605L14.0086 13.4225C13.917 13.3931 13.8261 13.3613 13.7355 13.3291C13.6942 13.3138 13.6538 13.2997 13.6129 13.2841C13.5141 13.247 13.4154 13.2072 13.3188 13.1666L13.2383 13.1354C13.1177 13.0826 12.999 13.0272 12.8811 12.9694C12.8204 12.9404 12.7589 12.9096 12.699 12.8795L12.5975 12.8276C12.5203 12.7863 12.4416 12.7432 12.3664 12.6997L12.3139 12.6686C12.2204 12.6143 12.128 12.56 12.0372 12.5026L11.9532 12.4472C11.8933 12.4087 11.8331 12.3692 11.7746 12.3297C11.6472 12.2432 11.525 12.1514 11.4035 12.0599L11.3194 11.9977C10.0226 10.9872 8.99342 9.60444 8.50417 8.03793C7.9922 6.41315 8.10344 4.59008 8.99089 3.10988V3.10986ZM3.61602 5.02921L2.17688 6.83443C0.332266 9.45254 0.561425 12.86 1.97029 15.6427C2.00384 15.7089 2.04041 15.7744 2.07534 15.8398C2.09754 15.8819 2.11571 15.9236 2.13836 15.9643L2.18038 16.0369C2.2044 16.0812 2.22943 16.1219 2.25391 16.1649C2.29835 16.2414 2.34466 16.3174 2.39047 16.3931C2.41589 16.4348 2.43819 16.4759 2.46401 16.5176C2.51527 16.5986 2.56853 16.6795 2.62158 16.7597L2.68811 16.86C2.76202 16.9684 2.83863 17.075 2.91571 17.1816L2.91921 17.192L2.95772 17.2438C3.02484 17.3353 3.09451 17.4246 3.16432 17.5136L3.24135 17.6104C3.30391 17.6879 3.36953 17.7651 3.43394 17.8421L3.50397 17.9286C3.59103 18.0293 3.67988 18.1279 3.77008 18.226L3.77709 18.2329L3.78759 18.2433C3.87556 18.3382 3.96607 18.4306 4.0572 18.5234L4.14124 18.6099C4.21242 18.6801 4.28578 18.7485 4.35834 18.8174L4.44588 18.9004C4.54299 18.9903 4.63975 19.0803 4.74001 19.1667L4.74701 19.1701L4.79604 19.2151C4.88402 19.2903 4.97498 19.363 5.06566 19.4364L5.1742 19.5229C5.24767 19.5811 5.3226 19.6393 5.3983 19.6958L5.51735 19.7857C5.60035 19.8461 5.68511 19.9078 5.76947 19.9655L5.86051 20.0278L5.88502 20.0451C5.96531 20.0992 6.04852 20.1517 6.13012 20.2041L6.23517 20.2733C6.36076 20.3517 6.48803 20.4302 6.61684 20.505L6.72189 20.5638C6.81668 20.6176 6.90941 20.6714 7.00551 20.7229C7.05765 20.7508 7.11399 20.7755 7.16658 20.8024C7.2346 20.8378 7.30034 20.8717 7.36967 20.9062L7.41869 20.9304L7.49923 20.9684C7.60664 21.0191 7.71556 21.0692 7.82487 21.1171L7.8949 21.1483C8.01958 21.2025 8.14564 21.2542 8.27307 21.3039L8.36411 21.3385C8.48242 21.3833 8.60158 21.4285 8.72127 21.4699L8.76679 21.4872C8.89876 21.5323 9.03216 21.574 9.16596 21.6151L9.26051 21.6428C9.39655 21.6836 9.53001 21.7314 9.67019 21.7569C18.5904 23.3638 21.1833 16.4623 21.1833 16.4623C19.0077 19.2627 15.1443 20.0028 11.484 19.1805C11.3453 19.1496 11.2095 19.1054 11.0743 19.0664L10.9728 19.0353C10.8408 18.9954 10.7108 18.9552 10.5806 18.9108L10.5281 18.89C10.4115 18.8498 10.2957 18.806 10.1814 18.762L10.0834 18.724C9.95731 18.6747 9.83207 18.6251 9.7087 18.5718L9.63167 18.5407C9.52556 18.4932 9.42171 18.4451 9.31653 18.3955L9.22549 18.3505C9.14342 18.3115 9.06464 18.2711 8.98388 18.2295C8.92907 18.2018 8.87328 18.1721 8.81931 18.143C8.72043 18.0901 8.62221 18.0361 8.52518 17.9805L8.42714 17.9286C8.29787 17.8539 8.17106 17.7754 8.04547 17.6969L7.94392 17.6277C7.85279 17.5695 7.76062 17.5119 7.6708 17.4514L7.58677 17.3891C7.49925 17.3287 7.41203 17.2681 7.32765 17.2058L7.2156 17.1228C7.13805 17.0642 7.06113 17.0037 6.9845 16.943L6.87946 16.86C6.78196 16.7811 6.68753 16.7029 6.59233 16.6214L6.56081 16.5972C6.45832 16.508 6.35592 16.4153 6.25618 16.324L6.17214 16.241C6.09868 16.1716 6.02666 16.1017 5.95505 16.03L5.86751 15.947C5.77678 15.855 5.68844 15.7613 5.60139 15.6669L5.58739 15.6531C5.49535 15.5533 5.40621 15.4516 5.31777 15.3487L5.24774 15.2657C5.18148 15.1874 5.1156 15.107 5.05165 15.0271L4.98162 14.9407C4.90447 14.8425 4.82656 14.7427 4.75402 14.6432C2.72209 11.9059 1.9918 8.12956 3.61602 5.02923V5.02921Z" fill="white"/>
<path d="M47.5715 0.166421C40.8913 0.166421 37.9886 4.91713 36.8813 10.0813C35.7749 15.283 37.225 19.8435 43.8669 19.806L49.1087 19.7887L54.0039 19.7714C54.1925 19.7699 54.3865 19.6225 54.4346 19.4429L55.289 16.2267C55.3367 16.0462 55.2184 15.899 55.0298 15.8981L54.214 15.8947L53.3946 15.8878C53.2341 15.8869 53.1444 15.7853 53.1635 15.6491L53.1845 15.573C53.1845 15.573 55.033 11.1365 55.4535 8.5735C56.0262 5.1425 54.2893 0.166421 47.5715 0.166421ZM116.524 2.06502L115.445 2.07194C115.257 2.07332 114.948 2.07539 114.759 2.07539H111.905C111.717 2.07539 111.476 2.20196 111.37 2.35551L105.056 11.4854C104.95 11.6399 104.829 11.6184 104.787 11.4369L104.325 9.42423C104.283 9.24197 104.093 9.0957 103.904 9.0957H99.8461C99.657 9.0957 99.5462 9.24166 99.5975 9.42078L101.415 15.7114C101.466 15.8907 101.472 16.1846 101.425 16.365L100.63 19.4083C100.583 19.5897 100.701 19.7368 100.89 19.7368H104.899C105.087 19.7368 105.283 19.5897 105.33 19.4083L106.121 16.365C106.168 16.1846 106.298 15.9154 106.412 15.7667L116.661 2.33476C116.774 2.18653 116.713 2.06419 116.524 2.06502H116.524ZM81.7011 4.08811C75.0976 4.08811 73.5345 8.04692 72.6566 12.0421C71.7788 16.1144 71.8532 19.9201 78.6863 19.9201H78.9314H78.9944H79.4356H79.5161C79.5842 19.9201 79.6538 19.9201 79.7227 19.9201H79.7718C80.0422 19.9196 80.3158 19.9176 80.5911 19.9166H80.6051C82.4099 19.91 84.2172 19.8953 84.9505 19.889C85.1383 19.8863 85.3217 19.7379 85.3602 19.557L85.6368 18.2221L85.6929 17.9627L86.022 16.3685C86.0602 16.1862 85.9345 16.0365 85.7454 16.0365H79.6037C77.1606 16.0365 76.4338 15.397 76.7009 13.5119H86.5227H86.5297C86.6857 13.5093 86.8297 13.4006 86.8869 13.2595L86.9114 13.1765H86.9079C88.3661 7.74487 87.9474 4.08811 81.7011 4.08811ZM47.0183 4.21607C50.7046 4.11149 51.4284 6.81892 50.4918 9.92914L50.3973 10.2542V10.2577L49.6585 12.8514L48.9161 15.4451C48.8645 15.6242 48.6675 15.7736 48.4784 15.7736H44.5567C41.5798 15.7736 40.8518 13.4733 41.5769 10.0813C42.3015 6.61229 43.7239 4.45527 46.6541 4.23682C46.7793 4.22751 46.8994 4.21944 47.0183 4.21607ZM32.0667 4.2714C31.8781 4.2714 31.6882 4.42212 31.6465 4.60339L31.2929 6.14578L30.9392 7.68818C30.8972 7.86944 31.0168 8.02017 31.2053 8.02017H34.966C35.1551 8.02017 35.3422 7.86994 35.3827 7.68818L35.7258 6.14578L36.069 4.60339C36.1093 4.42113 35.9879 4.2714 35.7994 4.2714H32.0667ZM59.2912 4.3129C59.1025 4.3129 58.9162 4.46312 58.878 4.64489L58.1287 8.1585L57.3759 11.6721V11.6756L57.3058 12.0041C56.4421 15.8991 56.6727 19.6139 61.3676 19.7299C61.4444 19.7321 61.5042 19.7299 61.5042 19.7299H68.8714C69.06 19.7299 69.2451 19.5807 69.2846 19.3979L70.8743 12.0214L72.464 4.64489C72.503 4.46263 72.3797 4.3129 72.1909 4.3129H68.7944C68.6058 4.3129 68.4181 4.46312 68.3777 4.64489L67.1732 10.1539L65.9652 15.6664C65.9253 15.8482 65.7402 15.9984 65.552 15.9984H63.1464C60.7668 15.9984 61.0411 14.3726 61.5287 12.1459L61.5427 12.0802L61.5952 11.7966L61.6057 11.7447L61.7143 11.1741L61.8298 10.562C61.8653 10.3776 61.9209 10.1059 61.9559 9.93605L62.5056 7.29047L63.0519 4.64489C63.0895 4.46263 62.9673 4.3129 62.7788 4.3129H59.2912ZM91.4669 4.35094C91.2783 4.35094 91.0892 4.50067 91.0502 4.68293L90.9137 5.32963L90.7491 6.09737L90.7036 6.31178L89.289 12.8548L87.9444 19.0694C87.9045 19.2516 87.8933 19.4761 87.9163 19.5674C87.9392 19.6583 88.2984 19.7299 88.4871 19.7299H91.3234C91.5124 19.7299 91.7492 19.6984 91.8521 19.6573C91.9551 19.6161 92.1084 19.2487 92.1462 19.0659L92.6504 16.6071L93.1547 14.1448V14.1413L93.2212 13.8128L93.834 10.9839L94.3732 8.48704C94.413 8.30561 94.5983 8.15884 94.7864 8.1585L103.705 8.15504C103.893 8.15421 104.011 8.00498 103.967 7.82305L103.813 7.18673L103.659 6.53657L103.579 6.20458C103.273 5.03213 102.378 4.35784 100.431 4.35784L97.3985 4.35439L94.6078 4.35093H91.4669V4.35094ZM80.8257 7.78155C82.9433 7.78155 83.354 8.80119 83.2103 9.94989C83.185 10.15 82.9988 10.2992 82.8111 10.2992H77.6673C77.4895 10.2992 77.3958 10.1798 77.4222 10.0329L77.4257 10.0225L77.4292 10.0052C77.4292 10.0052 77.4366 9.96939 77.4502 9.91876C77.9417 8.62847 78.9448 7.78155 80.8257 7.78155ZM30.9532 9.07149C30.7646 9.07149 30.5777 9.22155 30.5365 9.40348L30.0078 11.7136L29.4791 14.0237C29.4372 14.2057 29.371 14.505 29.332 14.6877L28.8243 17.0463L28.3166 19.4048C28.2771 19.5868 28.1953 19.882 28.1345 20.0584C28.1345 20.0584 27.4319 22.1221 26.2506 22.0988C26.2007 22.0973 26.1525 22.0998 26.1036 22.0988C25.5321 22.0882 25.0811 22.0781 25.0811 22.0781C24.8926 22.0754 24.7045 22.2222 24.6609 22.4031L24.2688 24.0216L23.8801 25.6401C23.8366 25.8209 23.9551 25.9721 24.1427 25.9755C24.8117 25.9832 26.3118 25.9998 27.2206 25.9998C30.1706 25.9998 31.7275 24.3827 32.725 19.7368L33.891 14.4042L34.987 9.40348C35.0273 9.22155 34.9026 9.07149 34.7139 9.07149H30.9532Z" fill="white"/>
</svg>
