<svg width="47" height="45" viewBox="0 0 47 45" fill="none" xmlns="http://www.w3.org/2000/svg">
<path fill-rule="evenodd" clip-rule="evenodd" d="M0.900391 0H46.4634V45H0.900391V0ZM35.7328 37.7245C33.6209 37.7245 32.4269 36.6366 31.5091 35.1566L28.0297 37.153C29.2867 39.6059 31.8556 41.4773 35.8318 41.4773C39.8985 41.4773 42.9266 39.3916 42.9266 35.5845C42.9266 32.053 40.8727 30.4823 37.2349 28.9416L36.1645 28.4888C34.3275 27.703 33.532 27.1895 33.532 25.9209C33.532 24.8945 34.3268 24.1088 35.5809 24.1088C36.8104 24.1088 37.6023 24.6209 38.3364 25.9209L41.6704 23.8066C40.2601 21.3566 38.3031 20.4209 35.5809 20.4209C31.7572 20.4209 29.3105 22.8352 29.3105 26.0066C29.3105 29.4495 31.363 31.078 34.4527 32.378L35.523 32.8316C37.4757 33.6752 38.6401 34.1888 38.6401 35.6388C38.6401 36.8488 37.5068 37.7245 35.7328 37.7245ZM19.1399 37.698C17.6688 37.698 17.057 36.7016 16.3844 35.523L12.8992 37.607C13.9088 39.7173 15.8941 41.4695 19.3221 41.4695C23.1161 41.4695 25.7154 39.4766 25.7154 35.098V20.6623H21.4339V35.0409C21.4339 37.1545 20.5465 37.698 19.1399 37.698Z" fill="white"/>
</svg>
