<svg width="80" height="35" viewBox="0 0 80 35" fill="none" xmlns="http://www.w3.org/2000/svg">
<path d="M76.4731 12.9849C76.4731 10.4991 76.8675 9.03178 76.8675 6.36402C76.8675 2.21686 75.3145 0.882976 71.8757 0.882976H69.3489V3.81751H70.1255C71.8757 3.81751 72.2578 4.38745 72.2578 6.49741C72.2578 8.47398 72.0606 10.4505 72.0606 12.7424C72.0606 15.6769 73.0343 16.8168 74.9694 17.2655V17.4595C73.022 17.9082 72.0606 19.048 72.0606 21.9826C72.0606 24.2744 72.2578 26.1297 72.2578 28.2276C72.2578 30.3981 71.8017 30.9681 70.1255 30.9681V31.0287H69.3489V34.0845H71.8757C75.3022 34.0845 76.8675 32.7506 76.8675 28.6035C76.8675 25.8629 76.4731 24.4563 76.4731 21.9826C76.4731 20.6487 77.3112 19.242 79.838 19.1208V15.8103C77.3112 15.7254 76.4731 14.3188 76.4731 12.9849ZM63.4573 16.8653C61.5099 16.1014 59.698 15.6527 59.698 14.3794C59.698 13.4215 60.4745 12.8515 61.9043 12.8515C63.3341 12.8515 64.6283 13.4215 66.0457 14.4401L68.6341 11.069C67.0194 9.85636 64.8131 8.58311 61.8304 8.58311C57.4301 8.58311 54.4473 11.069 54.4473 14.5735C54.4473 17.6899 57.2329 19.2905 59.5625 20.1758C61.5715 20.9397 63.519 21.5824 63.519 22.8556C63.519 23.8136 62.7424 24.4442 60.9922 24.4442C59.3776 24.4442 57.7506 23.8015 56.0004 22.4676L53.412 26.1661C55.3594 27.7546 58.3299 28.846 60.795 28.846C65.9717 28.846 68.7573 26.1661 68.7573 22.6616C68.7573 19.1572 65.9841 17.6899 63.4573 16.8653ZM19.2209 24.0683C18.7649 24.0683 18.1856 23.6802 18.1856 22.4797V0.87085H8.99073C5.49027 0.87085 3.93725 2.20473 3.93725 6.35189C3.93725 9.09241 4.33167 10.6203 4.33167 12.9728C4.33167 14.3067 3.49353 15.7133 0.966797 15.8346V19.145C3.49353 19.2057 4.33167 20.6123 4.33167 21.9462C4.33167 24.2987 3.93725 25.7053 3.93725 28.4458C3.93725 32.593 5.49027 33.9269 8.9291 33.9269H11.4558V30.9923H10.6793C9.06468 30.9923 8.54701 30.3496 8.54701 28.2518C8.54701 26.154 8.74422 24.3593 8.74422 22.0068C8.74422 19.0723 7.7705 17.9324 5.83539 17.4837V17.2897C7.78282 16.8411 8.74422 15.7012 8.74422 12.7666C8.74422 10.4748 8.54701 8.61949 8.54701 6.52166C8.54701 4.42383 9.00305 3.84177 10.6793 3.84177H12.4172V22.1281C12.4172 26.0206 13.773 28.5671 17.7295 28.5671C18.9621 28.5671 19.9358 28.3731 20.6384 28.1184L19.9851 23.9713C19.603 24.0683 19.4181 24.0683 19.2209 24.0683ZM47.7792 16.8653C45.7702 16.1014 43.9583 15.6527 43.9583 14.3794C43.9583 13.4215 44.7348 12.8515 46.1646 12.8515C47.5943 12.8515 48.8885 13.4215 50.306 14.4401L52.8943 11.069C51.2797 9.85636 49.0734 8.58311 46.0906 8.58311C41.6904 8.58311 38.7076 11.069 38.7076 14.5735C38.7076 17.6899 41.4932 19.2905 43.8227 20.1758C45.8318 20.9397 47.7792 21.5824 47.7792 22.8556C47.7792 23.8136 47.0027 24.4442 45.2525 24.4442C43.6378 24.4442 42.0109 23.8015 40.2606 22.4676L37.7339 26.1661C39.6813 27.7546 42.6518 28.846 45.1169 28.846C50.2936 28.846 53.0792 26.1661 53.0792 22.6616C53.0915 19.1572 50.306 17.6899 47.7792 16.8653ZM28.6746 8.52248C23.9416 8.52248 19.4181 12.415 19.5414 18.5266C19.5414 24.8322 23.7567 28.5307 29.3156 28.5307C31.6451 28.5307 34.2334 27.7061 36.2425 26.3601L34.2951 22.989C32.8653 23.8136 31.5095 24.2017 30.0797 24.2017C27.4914 24.2017 25.4823 22.989 24.9646 20.0545H36.6986C36.7602 19.6058 36.8958 18.7206 36.8958 17.702C36.9697 12.5363 34.1102 8.52248 28.6746 8.52248ZM24.977 16.55C25.3714 14.0035 26.9244 12.7909 28.7363 12.7909C31.0658 12.7909 31.9779 14.3794 31.9779 16.55H24.977Z" fill="white"/>
</svg>
