<svg width="133" height="42" viewBox="0 0 133 42" fill="none" xmlns="http://www.w3.org/2000/svg">
<path d="M2.03681 6.24098H23.3757V7.55819H24.7094V4.26518C24.7094 2.44941 23.2137 0.972168 21.3752 0.972168H4.03733C2.19885 0.972168 0.703125 2.44941 0.703125 4.26518V33.9023H2.03681V6.24098ZM2.03681 4.26518C2.03681 3.17585 2.93438 2.28937 4.03733 2.28937H21.3752C22.4782 2.28937 23.3757 3.17585 23.3757 4.26518V4.92378H2.03681V4.26518Z" fill="white"/>
<path d="M0.703125 38.5127C0.703125 40.3285 2.19885 41.8057 4.03733 41.8057H21.3752C23.2137 41.8057 24.7094 40.3285 24.7094 38.5127V35.2197H0.703125V38.5127ZM2.03681 36.5369H23.3757V38.5127C23.3757 39.6021 22.4782 40.4885 21.3752 40.4885H4.03733C2.93438 40.4885 2.03681 39.6021 2.03681 38.5127V36.5369Z" fill="white"/>
<path d="M16.0415 37.854H9.37305V39.1712H16.0415V37.854Z" fill="white"/>
<path d="M30.712 21.3887C28.5054 21.3887 26.7109 23.161 26.7109 25.3403C26.7109 27.5196 28.5054 29.2919 30.712 29.2919C32.9186 29.2919 34.713 27.5196 34.713 25.3403C34.713 23.161 32.9186 21.3887 30.712 21.3887ZM30.712 27.9747C29.2409 27.9747 28.0446 26.7932 28.0446 25.3403C28.0446 23.8874 29.2409 22.7059 30.712 22.7059C32.183 22.7059 33.3794 23.8874 33.3794 25.3403C33.3794 26.7932 32.183 27.9747 30.712 27.9747Z" fill="white"/>
<path d="M12.0393 12.8269C10.2008 12.8269 8.70508 14.3041 8.70508 16.1199C8.70508 17.9357 10.2008 19.4129 12.0393 19.4129C13.8778 19.4129 15.3735 17.9357 15.3735 16.1199C15.3735 14.3041 13.8778 12.8269 12.0393 12.8269ZM12.0393 18.0957C10.9363 18.0957 10.0388 17.2092 10.0388 16.1199C10.0388 15.0306 10.9363 14.1441 12.0393 14.1441C13.1422 14.1441 14.0398 15.0306 14.0398 16.1199C14.0398 17.2092 13.1422 18.0957 12.0393 18.0957Z" fill="white"/>
<path d="M14.4099 22.2782C14.5325 22.2321 14.6546 22.1814 14.7759 22.1267L16.8432 23.4881L19.5025 20.8616L18.1242 18.8199C18.1795 18.6994 18.2309 18.5789 18.2775 18.4583L20.7115 17.9776V14.263L18.2775 13.7823C18.1835 13.5419 18.0728 13.3015 17.9468 13.0637L16.7665 13.6769C16.9205 13.9673 17.0459 14.2617 17.1366 14.5502L17.2546 14.9236L19.3778 15.3431V16.8974L17.2539 17.317L17.1359 17.6904C17.0452 17.9789 16.9205 18.2726 16.7658 18.5637L16.5818 18.9101L17.7854 20.6936L16.6731 21.7928L14.8673 20.6034L14.5172 20.7852C14.2245 20.9373 13.9264 21.0605 13.6323 21.1514L13.2549 21.2679L12.8301 23.3649H11.2557L10.8309 21.2679L10.4535 21.1514C10.1594 21.0605 9.86132 20.9373 9.56858 20.7852L9.21849 20.6034L7.41268 21.7928L5.91362 20.3116L4.9707 21.2429L7.2433 23.4874L9.31051 22.1261C9.43188 22.1808 9.55391 22.2315 9.67661 22.2776L10.1634 24.6815H13.9237L14.4099 22.2782Z" fill="white"/>
<path d="M3.37305 14.2624V17.9769L5.80702 18.4577C5.90104 18.6981 6.01174 18.9385 6.13777 19.1763L7.31808 18.5631C7.16404 18.2727 7.03868 17.9783 6.94799 17.6898L6.82996 17.3164L4.70673 16.8968V15.3425L6.83062 14.923L6.94865 14.5496C7.03934 14.2611 7.16404 13.9674 7.31875 13.6763L7.5028 13.3299L6.29915 11.5464L7.41211 10.4471L9.21858 11.6366L9.56868 11.4542C9.86075 11.3027 10.1582 11.1795 10.4522 11.0886L10.8297 10.9721L11.2545 8.87507H12.8289L13.2536 10.9721L13.6311 11.0886C13.9252 11.1795 14.2232 11.3027 14.5146 11.4542L14.8647 11.6366L16.6712 10.4471L18.1709 11.9283L19.1139 10.9971L16.8419 8.75257L14.774 10.1132C14.652 10.0586 14.5306 10.0085 14.4079 9.96176L13.9218 7.55786H10.1615L9.6747 9.96176C9.552 10.0085 9.43064 10.0586 9.30861 10.1132L7.24073 8.75257L4.58203 11.3784L5.96039 13.4201C5.90505 13.5406 5.8537 13.6611 5.80702 13.7817L3.37305 14.2624Z" fill="white"/>
<path d="M12.7094 25.9993H11.375V27.3165H12.7094V25.9993Z" fill="white"/>
<path d="M12.7094 28.6333H11.375V29.9505H12.7094V28.6333Z" fill="white"/>
<path d="M12.7094 31.2678H11.375V32.585H12.7094V31.2678Z" fill="white"/>
<path d="M31.3794 11.51H30.0449V12.8272H31.3794V11.51Z" fill="white"/>
<path d="M31.3794 8.87549H30.0449V10.1927H31.3794V8.87549Z" fill="white"/>
<path d="M31.3794 6.24121H30.0449V7.55842H31.3794V6.24121Z" fill="white"/>
<path d="M42.0513 27.8562V22.8245L38.7625 22.1758C38.6858 21.9854 38.6011 21.7971 38.5097 21.6113L37.3101 22.1876C37.4354 22.4431 37.5461 22.704 37.6368 22.9648L37.7622 23.3211L40.7176 23.9046V26.7754L37.7622 27.3596L37.6368 27.7159C37.5455 27.9767 37.4354 28.2382 37.3101 28.4931L37.1427 28.8322L38.8158 31.3106L36.7599 33.341L34.2499 31.6893L33.9065 31.8546C33.6485 31.9784 33.3837 32.0877 33.1196 32.1773L32.7589 32.3011L32.1687 35.2194H29.2613L28.6698 32.3004L28.309 32.1766C28.045 32.0864 27.7802 31.9777 27.5222 31.8539L27.1788 31.6886L24.6688 33.3404L22.2261 30.9286L21.2832 31.8598L24.4994 35.0356L27.2901 33.1981C27.3628 33.2291 27.4362 33.2594 27.5095 33.2883L28.1677 36.5366H33.263L33.9199 33.2883C33.9932 33.2594 34.0666 33.2291 34.1392 33.1981L36.93 35.0356L40.5329 31.4785L38.6718 28.7216C38.7031 28.6498 38.7338 28.5774 38.7631 28.5049L42.0513 27.8562Z" fill="white"/>
<path d="M20.8934 19.2026L22.7546 21.9588C22.7232 22.0306 22.6925 22.1031 22.6632 22.1755L19.375 22.8249V27.8573L22.6639 28.506C22.7406 28.6963 22.8252 28.8847 22.9166 29.0698L24.1162 28.4935C23.9909 28.2386 23.8802 27.9772 23.7895 27.7163L23.6641 27.36L20.7087 26.7765V23.905L23.6641 23.3208L23.7895 22.9645C23.8809 22.7037 23.9909 22.4429 24.1162 22.1874L24.2836 21.8475L22.6105 19.3699L24.6664 17.3394L27.1757 18.9912L27.5198 18.8265C27.7772 18.7027 28.0426 18.5934 28.308 18.5025L28.6674 18.3787L29.2569 15.4617H32.165L32.7559 18.3793L33.1153 18.5032C33.38 18.594 33.6461 18.7034 33.9035 18.8272L34.2476 18.9918L36.7569 17.3401L39.1995 19.7525L40.1425 18.8213L36.9263 15.6455L34.1349 17.483C34.0629 17.452 33.9895 17.4224 33.9162 17.3934L33.258 14.1445H28.164L27.5065 17.3928C27.4331 17.4217 27.3598 17.4514 27.2877 17.4823L24.4963 15.6448L20.8934 19.2026Z" fill="white"/>
<path d="M60.9208 17.1889V27.6389H59.0139V20.3889L56.6008 25.5889H54.9301L52.5338 20.3722V27.6389H50.627V17.1889H53.1245L55.8076 23.1389L58.5077 17.1889H60.9208Z" fill="white"/>
<path d="M71.0032 23.5056C71.0032 25.0611 70.6995 26.1667 70.0919 26.8223C69.4957 27.4667 68.4719 27.7889 67.0207 27.7889C65.5469 27.7889 64.5119 27.4723 63.9156 26.8389C63.3194 26.1945 63.0212 25.0834 63.0212 23.5056C63.0212 21.9611 63.325 20.8667 63.9325 20.2222C64.54 19.5667 65.5694 19.2389 67.0207 19.2389C68.4832 19.2389 69.5126 19.5611 70.1088 20.2056C70.7051 20.8389 71.0032 21.9389 71.0032 23.5056ZM64.9788 23.4889C64.9788 24.5111 65.1081 25.1834 65.3669 25.5056C65.6257 25.8278 66.1769 25.9889 67.0207 25.9889C67.8419 25.9889 68.3819 25.8278 68.6407 25.5056C68.9107 25.1722 69.0457 24.5 69.0457 23.4889C69.0457 22.4556 68.9163 21.7778 68.6576 21.4556C68.4101 21.1334 67.8644 20.9722 67.0207 20.9722C66.1882 20.9722 65.6369 21.1389 65.3669 21.4722C65.1081 21.8056 64.9788 22.4778 64.9788 23.4889Z" fill="white"/>
<path d="M77.5342 19.2389C78.6592 19.2389 79.4579 19.5667 79.9304 20.2222C80.403 20.8667 80.6392 21.9445 80.6392 23.4556C80.6392 24.9889 80.3298 26.0945 79.7111 26.7722C79.1036 27.45 78.0967 27.7889 76.6904 27.7889C75.9704 27.7889 75.2954 27.75 74.6654 27.6723C74.0466 27.5945 73.4898 27.4834 72.9947 27.3389V16.5556H74.9523V19.8889C75.346 19.6778 75.7679 19.5167 76.2179 19.4056C76.6679 19.2945 77.1067 19.2389 77.5342 19.2389ZM78.6817 23.4556C78.6817 22.4889 78.5579 21.8334 78.3104 21.4889C78.0742 21.1445 77.5792 20.9722 76.8254 20.9722C76.4992 20.9722 76.1673 21.0111 75.8298 21.0889C75.5035 21.1556 75.211 21.25 74.9523 21.3722V25.8389C75.1548 25.8945 75.3854 25.9334 75.6441 25.9556C75.9029 25.9778 76.2067 25.9889 76.5554 25.9889C77.4217 25.9889 77.9898 25.8167 78.2598 25.4722C78.5411 25.1278 78.6817 24.4556 78.6817 23.4556Z" fill="white"/>
<path d="M84.6558 18.2389H82.5801V16.5556H84.6558V18.2389ZM84.6051 27.6389H82.6476V19.4056H84.6051V27.6389Z" fill="white"/>
<path d="M88.9017 16.5556V27.6389H86.9442V16.5556H88.9017Z" fill="white"/>
<path d="M97.8221 25.6222V27.1889C97.5408 27.3556 97.0965 27.5 96.489 27.6222C95.8927 27.7334 95.2683 27.7889 94.6158 27.7889C93.2883 27.7889 92.332 27.4556 91.747 26.7889C91.1733 26.1222 90.8864 25.0222 90.8864 23.4889C90.8864 22.0111 91.1901 20.9334 91.7977 20.2556C92.4052 19.5778 93.367 19.2389 94.6833 19.2389C95.9546 19.2389 96.8546 19.5 97.3833 20.0222C97.9121 20.5445 98.1765 21.4389 98.1765 22.7056C98.1765 22.9389 98.1709 23.1556 98.1596 23.3556C98.1483 23.5445 98.1259 23.8111 98.0921 24.1556H92.8608C92.872 24.8445 93.0239 25.3278 93.3164 25.6056C93.6202 25.8834 94.1546 26.0222 94.9196 26.0222C95.4258 26.0222 95.9489 25.9834 96.489 25.9056C97.029 25.8278 97.4733 25.7334 97.8221 25.6222ZM94.6833 20.9222C93.9971 20.9222 93.5189 21.0556 93.2489 21.3222C92.9902 21.5889 92.8608 22.0722 92.8608 22.7722H96.3877V22.4222C96.3765 21.8556 96.2471 21.4667 95.9996 21.2556C95.7521 21.0334 95.3133 20.9222 94.6833 20.9222Z" fill="white"/>
<path d="M103.934 21.0222H102.82V19.4056H103.934V19.3222C103.934 18.3445 104.159 17.6111 104.609 17.1222C105.059 16.6334 105.74 16.3889 106.651 16.3889C106.865 16.3889 107.078 16.4 107.292 16.4222C107.506 16.4445 107.759 16.4834 108.051 16.5389V18.0722C107.905 18.05 107.742 18.0334 107.562 18.0222C107.382 18 107.219 17.9889 107.073 17.9889C106.623 17.9889 106.313 18.0722 106.145 18.2389C105.976 18.4056 105.891 18.7167 105.891 19.1722V19.4056H107.798V21.0222H105.891V27.6389H103.934V21.0222ZM111.275 18.2389H109.199V16.5556H111.275V18.2389ZM111.224 27.6389H109.267V19.4056H111.224V27.6389Z" fill="white"/>
<path d="M115.531 27.6389H113.573V19.4056H115.379L115.463 20.0722H115.514C115.93 19.8278 116.352 19.6389 116.78 19.5056C117.207 19.3722 117.623 19.3056 118.028 19.3056C118.141 19.3056 118.214 19.3056 118.248 19.3056C118.293 19.3056 118.327 19.3111 118.349 19.3222V21.1889C118.282 21.1667 118.192 21.1556 118.079 21.1556C117.978 21.1445 117.798 21.1389 117.539 21.1389C117.145 21.1389 116.78 21.1722 116.442 21.2389C116.105 21.3056 115.801 21.4 115.531 21.5222V27.6389Z" fill="white"/>
<path d="M123.085 20.9056C122.489 20.9056 122.078 20.9667 121.853 21.0889C121.639 21.2 121.532 21.45 121.532 21.8389C121.532 22.0278 121.577 22.1722 121.667 22.2722C121.757 22.3611 121.909 22.4222 122.123 22.4556L124.199 22.7556C124.862 22.8445 125.324 23.05 125.582 23.3722C125.852 23.6945 125.987 24.2056 125.987 24.9056C125.987 25.9167 125.751 26.65 125.279 27.1056C124.806 27.5611 124.002 27.7889 122.865 27.7889C122.213 27.7889 121.617 27.7611 121.077 27.7056C120.537 27.65 120.081 27.5667 119.71 27.4556V25.7389C120.058 25.8278 120.486 25.9056 120.992 25.9722C121.499 26.0278 122.01 26.0556 122.528 26.0556C123.113 26.0556 123.507 25.9834 123.709 25.8389C123.923 25.6945 124.03 25.4222 124.03 25.0222C124.03 24.8222 123.979 24.6722 123.878 24.5722C123.777 24.4611 123.608 24.3889 123.372 24.3556L121.262 24.0556C120.688 23.9778 120.267 23.7667 119.997 23.4222C119.727 23.0667 119.592 22.5556 119.592 21.8889C119.592 20.9889 119.867 20.3222 120.418 19.8889C120.981 19.4556 121.83 19.2389 122.967 19.2389C123.428 19.2389 123.85 19.25 124.232 19.2722C124.615 19.2945 125.009 19.3389 125.414 19.4056V21.0556C125.121 21.0111 124.767 20.9778 124.35 20.9556C123.945 20.9222 123.524 20.9056 123.085 20.9056Z" fill="white"/>
<path d="M133.001 25.8389V27.4889C132.809 27.5667 132.539 27.6334 132.191 27.6889C131.853 27.7556 131.544 27.7889 131.262 27.7889C130.194 27.7889 129.429 27.5611 128.967 27.1056C128.506 26.6389 128.275 25.8667 128.275 24.7889V21.0222H127.162V19.4056H128.326L128.596 17.4389H130.233V19.4056H132.899V21.0222H130.233V24.7222C130.233 25.2111 130.34 25.5445 130.554 25.7222C130.767 25.9 131.15 25.9889 131.701 25.9889C131.892 25.9889 132.117 25.9778 132.376 25.9556C132.635 25.9222 132.843 25.8834 133.001 25.8389Z" fill="white"/>
</svg>
