<svg width="95" height="37" viewBox="0 0 95 37" fill="none" xmlns="http://www.w3.org/2000/svg">
<path fill-rule="evenodd" clip-rule="evenodd" d="M94.2784 0.890625H0.957031V31.4946H26.8796V36.5953H47.6177V31.4946H94.2784V0.890625ZM6.14258 26.394H6.14155V5.99129H26.8796V5.99136H26.8807V26.394H21.6961V26.394H21.6951V11.092H16.5116V26.394H6.14258V26.394ZM42.431 31.4948V31.4946H42.4332V26.3941H52.8V26.394H52.8022V5.99129H32.0642V5.99146H32.062V31.4948H42.431ZM47.6155 11.0921V21.2933H42.4332V11.0921H47.6155ZM57.9868 5.99146V5.99129H89.0939V26.394H89.0932V26.3941H83.9086V11.0921H78.7248V26.394H78.7241V26.3941H73.5396V11.0921H68.3558V26.394H68.3551V26.3941H57.986V5.99146H57.9868Z" fill="white"/>
</svg>
