<svg width="52" height="45" viewBox="0 0 52 45" fill="none" xmlns="http://www.w3.org/2000/svg">
<path d="M51.1669 22.0884C51.1669 18.8029 47.001 15.6893 40.614 13.7585C42.088 7.3291 41.4329 2.21389 38.5464 0.576218C37.8811 0.192073 37.1032 0.0101089 36.2537 0.0101089V2.26444C36.7245 2.26444 37.1032 2.35542 37.4205 2.52728C38.8126 3.31579 39.4165 6.31819 38.9456 10.1799C38.833 11.1301 38.6488 12.1309 38.4236 13.1519C36.4174 12.6667 34.227 12.2927 31.924 12.05C30.5422 10.1799 29.1092 8.48154 27.666 6.9955C31.0028 3.93244 34.1349 2.25433 36.2639 2.25433V0C33.4491 0 29.7643 1.98138 26.0386 5.41848C22.3128 2.0016 18.628 0.0404366 15.8132 0.0404366V2.29477C17.932 2.29477 21.0743 3.96277 24.4111 7.00561C22.9781 8.49165 21.5452 10.1799 20.1838 12.05C17.8706 12.2927 15.6802 12.6667 13.674 13.1621C13.4386 12.1511 13.2646 11.1706 13.1417 10.2304C12.6607 6.36873 13.2543 3.36633 14.6361 2.56771C14.9432 2.38575 15.3424 2.30488 15.8132 2.30488V0.0505455C14.9534 0.0505455 14.1755 0.232509 13.5 0.616655C10.6238 2.25433 9.97895 7.35943 11.4631 13.7686C5.09658 15.7095 0.951172 18.813 0.951172 22.0884C0.951172 25.3738 5.11705 28.4874 11.5041 30.4183C10.0301 36.8477 10.6852 41.9629 13.5716 43.6006C14.2369 43.9847 15.0149 44.1667 15.8746 44.1667C18.6894 44.1667 22.3742 42.1853 26.1 38.7482C29.8257 42.1651 33.5105 44.1262 36.3253 44.1262C37.1851 44.1262 37.963 43.9443 38.6386 43.5601C41.5148 41.9224 42.1596 36.8173 40.6754 30.4082C47.0215 28.4773 51.1669 25.3637 51.1669 22.0884ZM37.8402 15.3456C37.4615 16.6497 36.9906 17.9942 36.4584 19.3387C36.0387 18.53 35.5986 17.7213 35.1175 16.9125C34.6467 16.1038 34.1451 15.3153 33.6436 14.547C35.0971 14.7593 36.4993 15.0221 37.8402 15.3456ZM33.1523 26.1118C32.3539 27.4765 31.5351 28.7705 30.6855 29.9735C29.1604 30.1049 27.6148 30.1757 26.059 30.1757C24.5135 30.1757 22.9679 30.1049 21.453 29.9836C20.6035 28.7806 19.7744 27.4968 18.976 26.1421C18.1981 24.8178 17.4919 23.4733 16.847 22.1187C17.4816 20.7641 18.1981 19.4095 18.9658 18.0852C19.7642 16.7205 20.583 15.4265 21.4326 14.2235C22.9577 14.0921 24.5032 14.0213 26.059 14.0213C27.6046 14.0213 29.1502 14.0921 30.665 14.2134C31.5146 15.4164 32.3437 16.7002 33.1421 18.0549C33.92 19.3791 34.6262 20.7237 35.2711 22.0783C34.6262 23.4329 33.92 24.7875 33.1523 26.1118ZM36.4584 24.7976C37.0111 26.1522 37.4819 27.5069 37.8709 28.8211C36.53 29.1445 35.1175 29.4175 33.6538 29.6298C34.1554 28.8514 34.6569 28.0528 35.1278 27.2339C35.5986 26.4252 36.0387 25.6064 36.4584 24.7976ZM26.0795 35.584C25.1276 34.6136 24.1757 33.5319 23.234 32.3491C24.1552 32.3896 25.0969 32.4199 26.0488 32.4199C27.0109 32.4199 27.9629 32.3997 28.8943 32.3491C27.9731 33.5319 27.0212 34.6136 26.0795 35.584ZM18.4642 29.6298C17.0108 29.4175 15.6085 29.1547 14.2677 28.8312C14.6464 27.5271 15.1172 26.1826 15.6495 24.8381C16.0691 25.6468 16.5092 26.4555 16.9903 27.2642C17.4714 28.073 17.9627 28.8615 18.4642 29.6298ZM26.0283 8.59274C26.9802 9.56321 27.9321 10.6449 28.8738 11.8276C27.9526 11.7872 27.011 11.7569 26.059 11.7569C25.0969 11.7569 24.145 11.7771 23.2136 11.8276C24.1348 10.6449 25.0867 9.56321 26.0283 8.59274ZM18.454 14.547C17.9525 15.3254 17.4509 16.124 16.9801 16.9429C16.5092 17.7516 16.0691 18.5603 15.6495 19.369C15.0967 18.0144 14.6259 16.6598 14.2369 15.3456C15.5778 15.0322 16.9903 14.7593 18.454 14.547ZM9.19081 27.2036C5.56742 25.6771 3.22347 23.6755 3.22347 22.0884C3.22347 20.5013 5.56742 18.4895 9.19081 16.9732C10.0711 16.5991 11.0332 16.2655 12.0261 15.9522C12.6095 17.9335 13.3772 19.9958 14.3291 22.1086C13.3874 24.2113 12.63 26.2634 12.0568 28.2347C11.0435 27.9213 10.0813 27.5776 9.19081 27.2036ZM14.6976 41.6495C13.3055 40.861 12.7016 37.8586 13.1725 33.9969C13.285 33.0467 13.4693 32.0459 13.6945 31.0248C15.7006 31.5101 17.8911 31.8841 20.1941 32.1267C21.5759 33.9969 23.0088 35.6952 24.4521 37.1813C21.1153 40.2443 17.9832 41.9224 15.8542 41.9224C15.3936 41.9123 15.0046 41.8214 14.6976 41.6495ZM38.9763 33.9464C39.4574 37.808 38.8637 40.8104 37.4819 41.6091C37.1749 41.791 36.7757 41.8719 36.3048 41.8719C34.1861 41.8719 31.0438 40.2039 27.707 37.1611C29.14 35.675 30.5729 33.9868 31.9343 32.1166C34.2475 31.874 36.4379 31.5 38.4441 31.0046C38.6795 32.0256 38.8637 33.0062 38.9763 33.9464ZM42.917 27.2036C42.0368 27.5776 41.0746 27.9112 40.0818 28.2246C39.4984 26.2432 38.7307 24.181 37.7788 22.0682C38.7204 19.9655 39.4779 17.9133 40.0511 15.9421C41.0644 16.2554 42.0265 16.5991 42.9273 16.9732C46.5507 18.4997 48.8946 20.5013 48.8946 22.0884C48.8844 23.6755 46.5404 25.6872 42.917 27.2036Z" fill="white"/>
<path d="M26.0507 26.7082C28.6341 26.7082 30.7284 24.6398 30.7284 22.0884C30.7284 19.5369 28.6341 17.4685 26.0507 17.4685C23.4673 17.4685 21.373 19.5369 21.373 22.0884C21.373 24.6398 23.4673 26.7082 26.0507 26.7082Z" fill="white"/>
</svg>
