<svg width="84" height="58" viewBox="0 0 84 58" fill="none" xmlns="http://www.w3.org/2000/svg">
<path d="M62.1452 16.9113H61.484V3.25217C61.4819 1.45697 60.0031 0.00211391 58.1784 0H30.4111C28.5864 0.00211391 27.1076 1.45697 27.1054 3.25217V13.0087H26.4443C25.3489 13.0087 24.4609 13.8823 24.4609 14.96V31.8713C24.4609 32.949 25.3489 33.8226 26.4443 33.8226H51.5671C51.9323 33.8226 52.2283 33.5313 52.2283 33.1721C52.2261 31.3769 50.7473 29.9221 48.9226 29.92H46.9393V26.0174H54.8728V31.8713C54.8728 32.949 55.7608 33.8226 56.8562 33.8226H62.1452C63.2406 33.8226 64.1286 32.949 64.1286 31.8713V18.8626C64.1286 17.7849 63.2406 16.9113 62.1452 16.9113ZM39.0057 31.8713C39.0057 32.2305 38.7097 32.5217 38.3446 32.5217H26.4443C26.0792 32.5217 25.7832 32.2305 25.7832 31.8713V31.2208H39.0057V31.8713ZM39.0057 29.92H25.7832V14.96C25.7832 14.6008 26.0792 14.3096 26.4443 14.3096H38.3446C38.7097 14.3096 39.0057 14.6008 39.0057 14.96V29.92ZM48.9226 31.2208C49.7629 31.2218 50.5117 31.7426 50.793 32.5217H40.2063C40.2847 32.3134 40.3258 32.0934 40.328 31.8713V31.2208H48.9226ZM40.328 29.92V26.0174H41.6502V29.92H40.328ZM42.9725 29.92V26.0174H45.617V29.92H42.9725ZM54.8728 24.7165H40.328V20.8139H54.8728V24.7165ZM54.8728 18.8626V19.513H40.328V14.96C40.3258 14.6514 40.2482 14.3478 40.1019 14.0747C40.1118 14.0656 40.125 14.063 40.1343 14.0533L46.6794 7.61398C46.9331 7.3556 46.9259 6.94379 46.6632 6.69427C46.407 6.45084 46.0009 6.45084 45.7446 6.69427L39.1994 13.1336C39.1836 13.1498 39.177 13.1706 39.1631 13.1876C38.9066 13.0705 38.6273 13.0095 38.3446 13.0087H28.4277V3.25217C28.4277 2.17448 29.3157 1.30087 30.4111 1.30087H58.1784C59.2738 1.30087 60.1618 2.17448 60.1618 3.25217V16.9113H56.8562C55.7608 16.9113 54.8728 17.7849 54.8728 18.8626ZM62.8063 31.8713C62.8063 32.2305 62.5103 32.5217 62.1452 32.5217H56.8562C56.4911 32.5217 56.195 32.2305 56.195 31.8713V31.2208H62.8063V31.8713ZM62.8063 29.92H56.195V18.8626C56.195 18.5034 56.4911 18.2122 56.8562 18.2122H62.1452C62.5103 18.2122 62.8063 18.5034 62.8063 18.8626V29.92Z" fill="white"/>
<path d="M32.3603 20.9253C32.102 20.6714 31.6834 20.6714 31.4252 20.9253L28.6199 23.6844C28.3571 23.934 28.3499 24.3458 28.6037 24.6042C28.8574 24.8625 29.276 24.8697 29.5388 24.6201C29.5443 24.6149 29.5497 24.6095 29.555 24.6042L32.3603 21.845C32.4783 21.6438 32.2411 21.2612 32.3603 20.9253Z" fill="white"/>
<path d="M36.3109 20.9255C36.0546 20.6821 35.6483 20.6821 35.392 20.9255L32.5867 23.6846C32.3239 23.9342 32.3167 24.346 32.5704 24.6043C32.8241 24.8627 33.2428 24.8699 33.5056 24.6203C33.5111 24.6151 33.5165 24.6097 33.5218 24.6043L36.3271 21.8452C36.5808 21.5868 36.5736 21.175 36.3109 20.9255Z" fill="white"/>
<path d="M50.6954 6.69478C50.4392 6.45135 50.033 6.45135 49.7767 6.69478L43.2311 13.1341C42.9685 13.3836 42.9612 13.7954 43.2149 14.0538C43.4685 14.3122 43.8871 14.3193 44.1498 14.0698C44.1553 14.0646 44.1607 14.0592 44.166 14.0538L50.7116 7.61449C50.9654 7.3561 50.9581 6.9443 50.6954 6.69478Z" fill="white"/>
<path d="M60.8855 22.6863C60.6293 22.4428 60.2229 22.4428 59.9666 22.6863L58.0964 24.5257C57.8337 24.7753 57.8264 25.187 58.0802 25.4454C58.334 25.7038 58.7526 25.711 59.0153 25.4614C59.0208 25.4562 59.0262 25.4508 59.0315 25.4454L60.9017 23.606C61.1555 23.3476 61.1482 22.9359 60.8855 22.6863Z" fill="white"/>
<path d="M44.3072 22.115H44.3006C43.9354 22.1168 43.6408 22.4095 43.6426 22.7687C43.6444 23.1279 43.942 23.4176 44.3072 23.4159C44.6724 23.4159 44.9685 23.1246 44.9685 22.7654C44.9685 22.4062 44.6724 22.115 44.3072 22.115Z" fill="white"/>
<path d="M45.6152 2.60132H42.9699C42.6047 2.60132 42.3086 2.89255 42.3086 3.25175C42.3086 3.61095 42.6047 3.90219 42.9699 3.90219H45.6152C45.9804 3.90219 46.2765 3.61095 46.2765 3.25175C46.2765 2.89255 45.9804 2.60132 45.6152 2.60132Z" fill="white"/>
<path d="M3.14175 54.0557V57.8408H0.984375V46.7508H4.95754C6.62351 46.7508 7.81007 47.0279 8.51721 47.5822C9.23633 48.1364 9.59589 49.062 9.59589 50.3591C9.59589 51.2906 9.38615 52.0453 8.96666 52.623C8.55916 53.189 7.93591 53.5841 7.09694 53.8081L9.93748 57.8408H7.34863L4.81371 54.0557H3.14175ZM7.40256 50.3591C7.40256 49.7459 7.21679 49.3096 6.84524 49.0502C6.48568 48.7908 5.85645 48.6611 4.95754 48.6611H3.14175V52.287H4.95754C5.85645 52.287 6.48568 52.1396 6.84524 51.8448C7.21679 51.55 7.40256 51.0548 7.40256 50.3591Z" fill="white"/>
<path d="M19.5225 55.8421V57.8408H11.8998V46.7508H19.3607V48.6611H14.0571V51.2788H18.6955V53.1006H14.0571V55.8421H19.5225Z" fill="white"/>
<path d="M25.9887 53.4367L23.4898 52.853C22.6628 52.6643 22.0815 52.3577 21.7459 51.9332C21.4103 51.497 21.2425 50.8779 21.2425 50.0761C21.2425 48.8733 21.5781 47.989 22.2493 47.423C22.9204 46.857 23.9632 46.574 25.3775 46.574C25.9647 46.574 26.4861 46.6035 26.9415 46.6624C27.409 46.7096 27.8405 46.7862 28.236 46.8923V48.8026C27.5528 48.6729 27.0075 48.5903 26.6 48.555C26.1925 48.5078 25.773 48.4842 25.3415 48.4842C24.6224 48.4842 24.113 48.5962 23.8134 48.8203C23.5137 49.0325 23.3639 49.404 23.3639 49.9346C23.3639 50.2412 23.4238 50.477 23.5437 50.6421C23.6755 50.7954 23.8913 50.9074 24.1909 50.9781L26.6179 51.5441C27.1813 51.6738 27.6007 51.8094 27.8764 51.9509C28.1521 52.0806 28.3798 52.2457 28.5596 52.4462C28.7394 52.6702 28.8712 52.9473 28.9551 53.2775C29.051 53.6076 29.0989 54.0145 29.0989 54.4979C29.0989 55.7478 28.7633 56.644 28.0921 57.1864C27.421 57.7288 26.3782 58 24.964 58C24.2328 58 23.5257 57.9528 22.8425 57.8585C22.1714 57.7642 21.644 57.6463 21.2605 57.5048V55.5061C21.7758 55.6594 22.3571 55.7832 23.0043 55.8775C23.6635 55.9601 24.3167 56.0013 24.964 56.0013C25.6711 56.0013 26.1625 55.907 26.4382 55.7183C26.7258 55.5179 26.8696 55.1347 26.8696 54.5687C26.8696 54.2149 26.8097 53.9614 26.6899 53.8081C26.582 53.643 26.3483 53.5192 25.9887 53.4367Z" fill="white"/>
<path d="M33.3071 54.4802V57.8408H31.1497V46.7508H35.1229C36.7888 46.7508 37.9754 47.0397 38.6825 47.6175C39.4017 48.1953 39.7612 49.1563 39.7612 50.5006C39.7612 51.8566 39.3837 52.8589 38.6286 53.5074C37.8855 54.156 36.7349 54.4802 35.1768 54.4802H33.3071ZM37.5679 50.5006C37.5679 49.8284 37.3821 49.3568 37.0106 49.0856C36.651 48.8026 36.0218 48.6611 35.1229 48.6611H33.3071V52.623H35.1229C36.0218 52.623 36.651 52.4639 37.0106 52.1455C37.3821 51.8153 37.5679 51.267 37.5679 50.5006Z" fill="white"/>
<path d="M51.6901 52.2693C51.6901 54.2857 51.2826 55.7478 50.4676 56.6558C49.6646 57.5519 48.3522 58 46.5304 58C44.5888 58 43.2404 57.5814 42.4853 56.7442C41.7302 55.8952 41.3527 54.4036 41.3527 52.2693C41.3527 50.2647 41.7602 48.8144 42.5752 47.9182C43.3902 47.0221 44.7086 46.574 46.5304 46.574C48.46 46.574 49.8024 46.9985 50.5575 47.8475C51.3126 48.6847 51.6901 50.1586 51.6901 52.2693ZM43.9775 55.0639C44.1693 55.4059 44.4509 55.6476 44.8225 55.7891C45.194 55.9306 45.7633 56.0013 46.5304 56.0013C47.717 56.0013 48.508 55.7419 48.9035 55.2231C49.299 54.6925 49.4968 53.7079 49.4968 52.2693C49.4968 51.5736 49.4608 51.0017 49.3889 50.5536C49.329 50.1055 49.2211 49.74 49.0653 49.457C48.8735 49.1033 48.5919 48.8556 48.2203 48.7141C47.8488 48.5609 47.2855 48.4842 46.5304 48.4842C45.3319 48.4842 44.5348 48.7495 44.1393 49.2801C43.7438 49.8108 43.546 50.8071 43.546 52.2693C43.546 52.965 43.582 53.5369 43.6539 53.985C43.7258 54.4331 43.8337 54.7927 43.9775 55.0639Z" fill="white"/>
<path d="M63.4381 46.7508V57.8408H61.3347L55.9952 50.3237V57.8408H53.9636V46.7508H56.0671L61.4246 54.4448V46.7508H63.4381Z" fill="white"/>
<path d="M70.4579 53.4367L67.9589 52.853C67.1319 52.6643 66.5506 52.3577 66.215 51.9332C65.8794 51.497 65.7116 50.8779 65.7116 50.0761C65.7116 48.8733 66.0472 47.989 66.7184 47.423C67.3896 46.857 68.4323 46.574 69.8466 46.574C70.4339 46.574 70.9553 46.6035 71.4107 46.6624C71.8781 46.7096 72.3096 46.7862 72.7051 46.8923V48.8026C72.022 48.6729 71.4766 48.5903 71.0691 48.555C70.6616 48.5078 70.2421 48.4842 69.8107 48.4842C69.0915 48.4842 68.5821 48.5962 68.2825 48.8203C67.9829 49.0325 67.8331 49.404 67.8331 49.9346C67.8331 50.2412 67.893 50.477 68.0128 50.6421C68.1447 50.7954 68.3604 50.9074 68.66 50.9781L71.0871 51.5441C71.6504 51.6738 72.0699 51.8094 72.3456 51.9509C72.6212 52.0806 72.849 52.2457 73.0287 52.4462C73.2085 52.6702 73.3404 52.9473 73.4243 53.2775C73.5201 53.6076 73.5681 54.0145 73.5681 54.4979C73.5681 55.7478 73.2325 56.644 72.5613 57.1864C71.8901 57.7288 70.8474 58 69.4331 58C68.702 58 67.9949 57.9528 67.3117 57.8585C66.6405 57.7642 66.1132 57.6463 65.7296 57.5048V55.5061C66.245 55.6594 66.8263 55.7832 67.4735 55.8775C68.1327 55.9601 68.7859 56.0013 69.4331 56.0013C70.1403 56.0013 70.6317 55.907 70.9073 55.7183C71.195 55.5179 71.3388 55.1347 71.3388 54.5687C71.3388 54.2149 71.2789 53.9614 71.159 53.8081C71.0511 53.643 70.8174 53.5192 70.4579 53.4367Z" fill="white"/>
<path d="M83.2416 55.8421V57.8408H75.6189V46.7508H83.0798V48.6611H77.7762V51.2788H82.4146V53.1006H77.7762V55.8421H83.2416Z" fill="white"/>
</svg>
