<svg width="71" height="53" viewBox="0 0 71 53" fill="none" xmlns="http://www.w3.org/2000/svg">
<path d="M60.6498 30.3642C58.232 30.3767 56.1307 30.9495 54.3712 31.7964C53.7256 30.5386 53.08 29.4177 52.9661 28.5958C52.8395 27.6369 52.6876 27.0515 52.8395 25.9058C52.9914 24.7601 53.675 23.1286 53.6623 23.0041C53.6497 22.8796 53.5104 22.2942 52.118 22.2818C50.7256 22.2693 49.523 22.5433 49.3838 22.9045C49.2445 23.2656 48.9787 24.0876 48.8015 24.9344C48.561 26.1798 46.0166 30.6257 44.5609 32.9546C44.0925 32.0455 43.6875 31.2484 43.5989 30.6133C43.4723 29.6544 43.3204 29.069 43.4723 27.9233C43.6242 26.7776 44.3077 25.1461 44.2951 25.0216C44.2824 24.8971 44.1432 24.3117 42.7507 24.2993C41.3583 24.2868 40.1558 24.5608 40.0165 24.922C39.8773 25.2831 39.7254 26.13 39.4342 26.9519C39.1431 27.7739 35.7633 35.1963 34.8772 37.1141C34.4215 38.098 34.0291 38.8825 33.7506 39.4181C33.7506 39.4181 33.7379 39.4554 33.7 39.5177C33.4595 39.9785 33.3202 40.2276 33.3202 40.2276C33.3202 40.2276 33.3202 40.2275 33.3202 40.24C33.1303 40.5763 32.9278 40.8876 32.8265 40.8876C32.7506 40.8876 32.6113 39.9909 32.8519 38.7705C33.3582 36.1926 34.5607 32.1825 34.5481 32.0455C34.5481 31.9708 34.7759 31.2733 33.7633 30.9122C32.7759 30.551 32.4215 31.1488 32.3329 31.1488C32.2443 31.1488 32.181 31.3605 32.181 31.3605C32.181 31.3605 33.2822 26.8523 30.0797 26.8523C28.0796 26.8523 25.3201 29.0068 23.953 30.9495C23.0922 31.4103 21.2567 32.3942 19.2947 33.4527C18.5478 33.8637 17.7757 34.2747 17.0541 34.6607C17.0035 34.6109 16.9529 34.5487 16.9022 34.4989C13.0288 30.4265 5.86408 27.5497 6.16788 22.0825C6.28181 20.0899 6.97802 14.8594 19.9276 8.50799C30.586 3.3397 39.0671 4.77188 40.5355 7.94757C42.6368 12.4807 35.9911 20.8994 24.9783 22.1199C20.7757 22.5807 18.5731 20.9866 18.0162 20.3888C17.4339 19.7661 17.3453 19.7288 17.1301 19.8533C16.7757 20.0401 17.0035 20.6005 17.1301 20.9243C17.4592 21.7712 18.8137 23.2656 21.1048 24.0004C23.1302 24.648 28.0543 25.0091 34.0164 22.7426C40.6874 20.202 45.9027 13.1408 44.371 7.22526C42.8394 1.22257 32.7126 -0.757564 23.1302 2.59248C17.4339 4.58507 11.2566 7.7234 6.81346 11.8082C1.5349 16.6652 0.699443 20.887 1.04122 22.6554C2.26909 28.932 11.0667 33.0169 14.5857 36.0431C14.4085 36.1427 14.244 36.2299 14.1047 36.3046C12.3452 37.1639 5.63623 40.6136 3.96532 44.2625C2.06655 48.3972 4.26912 51.3612 5.72484 51.7597C10.2439 52.9926 14.8895 50.7758 17.3833 47.1144C19.877 43.4531 19.5732 38.6957 18.4212 36.5163C18.4086 36.4914 18.3959 36.4665 18.3706 36.4416C18.8263 36.1801 19.2947 35.9061 19.7504 35.6446C20.6491 35.1215 21.5352 34.6358 22.2947 34.2373C21.8643 35.3955 21.5479 36.7779 21.396 38.7705C21.2061 41.1118 22.1808 44.1505 23.4593 45.346C24.0289 45.8691 24.6998 45.8815 25.1302 45.8815C26.6239 45.8815 27.2948 44.6611 28.0417 43.2164C28.9531 41.448 29.7759 39.3932 29.7759 39.3932C29.7759 39.3932 28.7505 44.9475 31.5354 44.9475C32.5481 44.9475 33.5734 43.6523 34.0291 42.9923C34.0291 43.0047 34.0291 43.0047 34.0291 43.0047C34.0291 43.0047 34.0544 42.9674 34.105 42.8802C34.2063 42.7183 34.2696 42.6187 34.2696 42.6187C34.2696 42.6187 34.2696 42.6062 34.2696 42.5938C34.6747 41.8963 35.5861 40.3147 36.9405 37.687C38.6874 34.2996 40.371 30.0653 40.371 30.0653C40.371 30.0653 40.5229 31.099 41.0419 32.8176C41.3457 33.8264 41.9786 34.9347 42.4849 36.0057C42.0799 36.5662 41.8267 36.8775 41.8267 36.8775C41.8267 36.8775 41.8267 36.8775 41.8393 36.89C41.5102 37.3134 41.1558 37.7742 40.7634 38.2225C39.3836 39.8415 37.738 41.6971 37.5102 42.2326C37.2443 42.8677 37.3076 43.3285 37.814 43.7021C38.1811 43.9761 38.8393 44.0135 39.5102 43.9761C40.7507 43.8889 41.6241 43.59 42.0545 43.4032C42.7254 43.1666 43.5103 42.8055 44.2444 42.27C45.5989 41.2861 46.4217 39.8788 46.3457 38.0232C46.3078 37.002 45.966 35.9808 45.5483 35.0219C45.6748 34.8475 45.7888 34.6732 45.9154 34.4989C48.0546 31.4228 49.7129 28.0478 49.7129 28.0478C49.7129 28.0478 49.8648 29.0815 50.3838 30.8001C50.637 31.6719 51.1559 32.6183 51.6116 33.5399C49.599 35.1464 48.3584 37.0145 47.9154 38.235C47.1179 40.5015 47.7382 41.5227 48.9154 41.7594C49.4471 41.8714 50.2066 41.6224 50.7635 41.3857C51.4724 41.1616 52.3079 40.7755 53.1053 40.2026C54.4598 39.2188 55.7636 37.8489 55.6877 35.9933C55.6497 35.1464 55.4218 34.312 55.1054 33.5026C56.8143 32.8051 59.0168 32.4191 61.827 32.7429C67.8524 33.4403 69.0423 37.139 68.8145 38.6957C68.5866 40.2525 67.3208 41.0993 66.903 41.3608C66.4853 41.6224 66.3461 41.7095 66.384 41.8963C66.4347 42.1703 66.6372 42.1579 66.9916 42.1081C67.4853 42.0209 70.1563 40.8502 70.2702 37.9859C70.4601 34.3245 66.9157 30.3269 60.6498 30.3642ZM14.168 45.7819C12.168 47.9239 9.38313 48.7334 8.18058 48.0485C6.88942 47.3137 7.39575 44.1505 9.85149 41.8839C11.3452 40.5015 13.2693 39.2188 14.5478 38.4342C14.8389 38.2599 15.2693 38.0108 15.7883 37.6994C15.8769 37.6496 15.9275 37.6247 15.9275 37.6247C16.0288 37.5625 16.1301 37.5002 16.2313 37.4379C17.1301 40.6759 16.2693 43.5278 14.168 45.7819ZM28.7252 36.0431C28.029 37.7119 26.5733 41.9835 25.6872 41.7469C24.9277 41.5476 24.4593 38.3097 25.5353 35.1091C26.0796 33.5026 27.2315 31.5847 27.9024 30.8375C28.991 29.6419 30.1936 29.2434 30.4847 29.7291C30.8518 30.3642 29.1556 34.997 28.7252 36.0431ZM40.7381 41.6971C40.4469 41.8465 40.1684 41.9462 40.0418 41.8714C39.9532 41.8216 40.1684 41.6224 40.1684 41.6224C40.1684 41.6224 41.6748 40.0283 42.2697 39.306C42.6115 38.8825 43.0166 38.3844 43.447 37.824C43.447 37.8738 43.447 37.9361 43.447 37.9859C43.447 39.8913 41.5735 41.174 40.7381 41.6971ZM50.004 39.6173C49.7888 39.4679 49.8268 38.9697 50.5483 37.413C50.8268 36.8028 51.4851 35.7816 52.6117 34.7977C52.7383 35.1963 52.8269 35.5823 52.8142 35.9435C52.8015 38.347 51.0547 39.2437 50.004 39.6173Z" fill="white"/>
</svg>
