<svg width="132" height="33" viewBox="0 0 132 33" fill="none" xmlns="http://www.w3.org/2000/svg">
<path d="M16.9414 4.11148H10.2196V24.6758H7.48924V4.11148H0.78125V1.67041H16.9414V4.11148Z" fill="white"/>
<path d="M27.5473 8.25049L19.8968 27.3045C18.534 30.7037 16.6167 32.4056 14.1451 32.4056C13.4522 32.4056 12.8747 32.3372 12.4081 32.1958V29.8368C12.9809 30.0285 13.5076 30.1243 13.9834 30.1243C15.3278 30.1243 16.3349 29.3349 17.0048 27.7516L18.3353 24.6399L11.8398 8.25049H14.7965L19.2962 20.8893C19.3517 21.049 19.4626 21.4688 19.6381 22.1395H19.7351C19.7906 21.884 19.8968 21.4779 20.0585 20.9212L24.7846 8.25049H27.5473Z" fill="white"/>
<path d="M31.9041 22.3037H31.8395V32.2322H29.1738V8.25046H31.8395V11.1387H31.9041C33.2162 8.95768 35.1288 7.86719 37.6558 7.86719C39.7994 7.86719 41.4718 8.60179 42.673 10.071C43.8741 11.5402 44.4747 13.5113 44.4747 15.9843C44.4747 18.7311 43.8002 20.9349 42.4466 22.5866C41.093 24.2383 39.2404 25.0642 36.8936 25.0642C34.7361 25.0596 33.073 24.1425 31.9041 22.3037ZM31.8395 15.6786V17.9737C31.8395 19.3334 32.2876 20.4832 33.1792 21.4322C34.0708 22.3813 35.2073 22.8512 36.584 22.8512C38.1964 22.8512 39.4622 22.2398 40.3769 21.0216C41.2916 19.8033 41.749 18.106 41.749 15.9387C41.749 14.109 41.3194 12.6763 40.4647 11.6406C39.61 10.6048 38.4504 10.0847 36.9906 10.0847C35.4429 10.0847 34.1956 10.6185 33.2531 11.6816C32.3107 12.7402 31.8395 14.0725 31.8395 15.6786Z" fill="white"/>
<path d="M60.6352 17.1204H48.8916C48.9331 18.9501 49.4321 20.36 50.3838 21.3547C51.3355 22.3493 52.6475 22.8467 54.3152 22.8467C56.1863 22.8467 57.9095 22.2353 59.4802 21.017V23.4855C58.0203 24.5349 56.0846 25.0596 53.6823 25.0596C51.3308 25.0596 49.4875 24.3159 48.1431 22.8239C46.7988 21.3318 46.1289 19.233 46.1289 16.5273C46.1289 13.9721 46.8635 11.887 48.3279 10.2809C49.797 8.67023 51.6173 7.86719 53.7932 7.86719C55.9691 7.86719 57.6508 8.56072 58.8427 9.95236C60.0346 11.344 60.6305 13.274 60.6305 15.7425V17.1204H60.6352ZM57.9048 14.8892C57.8956 13.3699 57.5214 12.1881 56.7915 11.344C56.0615 10.4999 55.0452 10.0756 53.747 10.0756C52.4904 10.0756 51.4232 10.5181 50.5455 11.4079C49.6677 12.2976 49.1272 13.4565 48.9193 14.8892H57.9048Z" fill="white"/>
<path d="M62.9629 23.7456V20.5699C63.3001 20.8893 63.7021 21.1813 64.1733 21.4368C64.6445 21.6923 65.1388 21.9113 65.6609 22.0847C66.1829 22.2581 66.7049 22.3996 67.227 22.4954C67.7536 22.5912 68.2387 22.6414 68.6822 22.6414C70.216 22.6414 71.3663 22.3357 72.124 21.7197C72.8817 21.1037 73.2605 20.2186 73.2605 19.0642C73.2605 18.4437 73.1357 17.9053 72.8817 17.4444C72.6276 16.9836 72.2811 16.5638 71.833 16.1851C71.3848 15.8064 70.8582 15.4414 70.2484 15.0946C69.6385 14.7478 68.9825 14.3828 68.2803 13.995C67.5365 13.5889 66.8435 13.1783 66.2014 12.7585C65.5592 12.3433 64.9956 11.8824 64.5244 11.3805C64.0485 10.8786 63.6743 10.3083 63.4018 9.67407C63.1292 9.03985 62.9952 8.29156 62.9952 7.43833C62.9952 6.3889 63.2077 5.48091 63.6328 4.70524C64.0578 3.92958 64.6168 3.29079 65.3144 2.78889C66.0074 2.28699 66.7973 1.91285 67.6844 1.66646C68.5714 1.42007 69.4768 1.29688 70.3962 1.29688C72.4982 1.29688 74.0274 1.57064 74.9883 2.11361V5.14327C73.7317 4.20334 72.1148 3.73338 70.1421 3.73338C69.597 3.73338 69.0518 3.79726 68.5067 3.91589C67.9615 4.03908 67.4765 4.23984 67.0514 4.51817C66.6264 4.7965 66.2799 5.15239 66.012 5.59498C65.744 6.033 65.61 6.56684 65.61 7.20106C65.61 7.78966 65.7117 8.29612 65.915 8.72502C66.1182 9.15392 66.4185 9.54175 66.8158 9.89764C67.2131 10.249 67.6936 10.5912 68.2664 10.9243C68.8347 11.2573 69.4907 11.6178 70.2345 12.0148C70.9968 12.4208 71.7221 12.8497 72.4058 13.2969C73.0895 13.744 73.6901 14.2414 74.2029 14.7889C74.7157 15.3364 75.1269 15.9387 75.4272 16.6003C75.7275 17.2619 75.8799 18.0239 75.8799 18.8771C75.8799 20.0087 75.672 20.9714 75.2655 21.7562C74.8543 22.541 74.2999 23.1798 73.6024 23.6726C72.9048 24.1653 72.1009 24.5212 71.1862 24.7402C70.2761 24.9593 69.3152 25.0688 68.3034 25.0688C67.9662 25.0688 67.5504 25.0414 67.0561 24.9821C66.5617 24.9228 66.0535 24.8361 65.5407 24.7266C65.0233 24.6125 64.5382 24.4756 64.0763 24.3113C63.6097 24.1334 63.2447 23.9463 62.9629 23.7456Z" fill="white"/>
<path d="M90.0614 23.9235C88.7817 24.6809 87.2664 25.0642 85.5155 25.0642C83.1455 25.0642 81.2283 24.3022 79.7731 22.7782C78.3178 21.2543 77.5879 19.2786 77.5879 16.8512C77.5879 14.1455 78.3733 11.9737 79.944 10.3311C81.5147 8.68848 83.6075 7.86719 86.2316 7.86719C87.6915 7.86719 88.9804 8.13639 90.0984 8.67023V11.3668C88.8649 10.509 87.5436 10.0847 86.1346 10.0847C84.4345 10.0847 83.0393 10.687 81.9536 11.8915C80.868 13.0961 80.3228 14.6748 80.3228 16.6322C80.3228 18.5577 80.8356 20.0771 81.8566 21.1858C82.8776 22.2946 84.2543 22.8558 85.9729 22.8558C87.4235 22.8558 88.7863 22.3813 90.066 21.4277V23.9235H90.0614Z" fill="white"/>
<path d="M100.365 10.9101C99.8989 10.5588 99.229 10.3808 98.3512 10.3808C97.2148 10.3808 96.2631 10.9101 95.5008 11.9687C94.7385 13.0272 94.3551 14.469 94.3551 16.2987V24.6713H91.6895V8.24546H94.3551V11.631H94.4198C94.7986 10.4766 95.3761 9.57322 96.1568 8.92987C96.9376 8.28196 97.8061 7.95801 98.7716 7.95801C99.4646 7.95801 99.9959 8.03101 100.365 8.18158V10.9101Z" fill="white"/>
<path d="M103.423 4.07968C102.947 4.07968 102.54 3.91998 102.203 3.60059C101.866 3.2812 101.699 2.87512 101.699 2.38234C101.699 1.88956 101.866 1.48348 102.203 1.15496C102.54 0.831007 102.947 0.666748 103.423 0.666748C103.908 0.666748 104.324 0.831007 104.666 1.15496C105.008 1.48348 105.179 1.88956 105.179 2.38234C105.179 2.8523 105.008 3.25382 104.666 3.5869C104.324 3.91086 103.908 4.07968 103.423 4.07968ZM104.721 24.6759H102.055V8.25003H104.721V24.6759Z" fill="white"/>
<path d="M109.019 22.3037H108.955V32.2322H106.289V8.25046H108.955V11.1387H109.019C110.331 8.95768 112.244 7.86719 114.771 7.86719C116.915 7.86719 118.587 8.60179 119.788 10.071C120.989 11.5402 121.59 13.5113 121.59 15.9843C121.59 18.7311 120.915 20.9349 119.562 22.5866C118.208 24.2383 116.356 25.0642 114.009 25.0642C111.851 25.0596 110.188 24.1425 109.019 22.3037ZM108.955 15.6786V17.9737C108.955 19.3334 109.403 20.4832 110.294 21.4322C111.186 22.3813 112.323 22.8512 113.699 22.8512C115.312 22.8512 116.577 22.2398 117.492 21.0216C118.407 19.8033 118.864 18.106 118.864 15.9387C118.864 14.109 118.435 12.6763 117.58 11.6406C116.725 10.6048 115.566 10.0847 114.106 10.0847C112.558 10.0847 111.311 10.6185 110.368 11.6816C109.426 12.7402 108.955 14.0725 108.955 15.6786Z" fill="white"/>
<path d="M131.565 24.5164C130.937 24.8586 130.11 25.0274 129.08 25.0274C126.169 25.0274 124.709 23.4213 124.709 20.2137V10.4951H121.85V8.25019H124.709V4.23954L127.375 3.39087V8.25019H131.565V10.4951H127.375V19.7483C127.375 20.8479 127.564 21.6373 127.943 22.1072C128.322 22.5772 128.95 22.8145 129.828 22.8145C130.498 22.8145 131.08 22.632 131.565 22.2669V24.5164Z" fill="white"/>
</svg>
