<svg width="55" height="55" viewBox="0 0 55 55" fill="none" xmlns="http://www.w3.org/2000/svg">
<path d="M1.98242 27.7565C1.98242 13.531 13.6233 1.97656 27.9913 1.97656C42.3593 1.97656 54.0002 13.531 54.0002 27.7565C54.0002 41.982 42.3593 53.5364 27.9913 53.5364C13.6233 53.5364 1.98242 41.982 1.98242 27.7565Z" stroke="white" stroke-width="2"/>
<path d="M43.8866 37.3923C42.2181 37.7852 41.3734 38.1471 39.3086 39.4809C36.0862 41.5489 32.5614 42.5105 32.5614 42.5105C32.5614 42.5105 32.2694 42.9448 31.4247 43.1412C29.9647 43.4928 24.469 43.7926 23.9684 43.8029C22.6232 43.8133 21.7993 43.4617 21.5699 42.9137C20.8712 41.2594 22.571 40.5356 22.571 40.5356C22.571 40.5356 22.1956 40.3081 21.9766 40.1013C21.7785 39.9049 21.5699 39.512 21.5073 39.6567C21.2466 40.2874 21.111 41.8281 20.4123 42.5208C19.4529 43.4824 17.6384 43.1619 16.5643 42.6035C15.3859 41.9832 16.6477 40.5252 16.6477 40.5252C16.6477 40.5252 16.0116 40.8975 15.5006 40.1323C15.0417 39.4292 14.6142 38.2298 14.7289 36.7512C14.854 35.0659 16.752 33.4322 16.752 33.4322C16.752 33.4322 16.4183 30.9403 17.5132 28.3864C18.5039 26.06 21.1736 24.1885 21.1736 24.1885C21.1736 24.1885 18.9315 21.7276 19.7658 19.5149C20.3081 18.0673 20.5271 18.0777 20.7043 18.0156C21.33 17.7778 21.9349 17.5193 22.3833 17.0334C24.6254 14.6345 27.4828 15.0895 27.4828 15.0895C27.4828 15.0895 28.8385 11.0053 30.0899 11.8014C30.4757 12.0496 31.8627 15.1102 31.8627 15.1102C31.8627 15.1102 33.3435 14.252 33.5104 14.5725C34.4072 16.2992 34.5115 19.5976 34.1152 21.6035C33.4478 24.9122 31.7793 26.6907 31.1119 27.8074C30.9554 28.0659 32.9055 28.8827 34.1361 32.2638C35.2728 35.3554 34.2612 37.9507 34.4385 38.2402C34.4698 38.2919 34.4802 38.3125 34.4802 38.3125C34.4802 38.3125 35.7838 38.4159 38.4013 36.8133C39.7987 35.9551 41.4568 34.9935 43.3444 34.9728C45.1693 34.9418 45.2632 37.0614 43.8866 37.3923ZM46.3686 35.8724C46.1809 34.4041 44.9295 33.3908 43.3235 33.4115C40.925 33.4425 38.9123 34.673 37.5775 35.4898C37.056 35.8103 36.6076 36.0481 36.2218 36.2239C36.3052 35.0245 36.2322 33.4529 35.6065 31.7261C34.8452 29.6582 33.8232 28.3864 33.0933 27.6523C33.938 26.4322 35.0955 24.6537 35.6378 21.9034C36.1071 19.5563 35.9611 15.9063 34.8869 13.8591C34.6679 13.4455 34.3029 13.1456 33.8441 13.0215C33.6564 12.9698 33.3018 12.8664 32.6031 13.0629C31.5499 10.9019 31.1849 10.6744 30.9033 10.4883C30.3193 10.1161 29.631 10.0334 28.9845 10.2712C28.1189 10.5814 27.3785 11.4085 26.6798 12.8768C26.5755 13.0939 26.4817 13.3007 26.3982 13.5075C25.0738 13.6006 22.9881 14.0762 21.2258 15.9684C21.0068 16.2062 20.5792 16.382 20.1308 16.5474H20.1412C19.2235 16.8679 18.8064 17.6124 18.2954 18.9566C17.5862 20.8384 18.3162 22.6892 19.0358 23.8886C18.0555 24.7571 16.752 26.1427 16.0637 27.766C15.2086 29.7719 15.1147 31.7365 15.146 32.8015C14.416 33.5666 13.2898 35.0038 13.1646 36.6168C12.9978 38.8709 13.8216 40.4012 14.1866 40.9595C14.2909 41.125 14.4056 41.2594 14.5307 41.3938C14.489 41.673 14.4786 41.9728 14.5412 42.283C14.6767 43.0068 15.1356 43.5962 15.8343 43.9684C17.2108 44.6922 19.1296 45.0024 20.6105 44.2682C21.1423 44.8266 22.1122 45.3643 23.8746 45.3643H23.9788C24.4273 45.3643 30.1212 45.0644 31.7793 44.6611C32.5197 44.4854 33.0307 44.1752 33.3644 43.896C34.4281 43.5651 37.3689 42.5725 40.1428 40.7941C42.1034 39.5326 42.7812 39.2638 44.2412 38.9123C45.6595 38.571 46.5459 37.2889 46.3686 35.8724Z" fill="white"/>
</svg>
