<svg width="133" height="78" viewBox="0 0 133 78" fill="none" xmlns="http://www.w3.org/2000/svg">
<path d="M129.574 45.1154H129.146V44.8774H130.297V45.1154H129.873V46.3024H129.574V45.1154ZM131.869 45.1773H131.862L131.439 46.3026H131.245L130.824 45.1773H130.819V46.3026H130.537V44.8777H130.952L131.342 45.8867L131.73 44.8777H132.143V46.3026H131.868V45.1773H131.869Z" fill="white"/>
<path d="M18.4825 59.8784C18.4825 59.8784 15.5091 61.5991 20.5986 62.1813C26.7644 62.8813 29.9156 62.7809 36.7103 61.5012C36.7103 61.5012 38.4967 62.6158 40.9916 63.5812C25.7596 70.0773 6.51858 63.2049 18.4825 59.8784Z" fill="white"/>
<path d="M16.6194 51.4014C16.6194 51.4014 13.2844 53.8579 18.3777 54.3821C24.9642 55.0583 30.1657 55.1136 39.1662 53.3889C39.1662 53.3889 40.4111 54.6448 42.3687 55.3316C23.9523 60.6904 3.43974 55.7542 16.6194 51.4014Z" fill="white"/>
<path d="M32.3135 37.022C36.0667 41.3219 31.3274 45.1912 31.3274 45.1912C31.3274 45.1912 40.8573 40.2957 36.4807 34.1654C32.393 28.4486 29.2583 25.6081 46.2283 15.8145C46.2283 15.8145 19.5911 22.4345 32.3135 37.022Z" fill="white"/>
<path d="M52.4571 66.1485C52.4571 66.1485 54.6575 67.9527 50.0338 69.3484C41.2417 71.9987 13.4401 72.7991 5.71693 69.454C2.94065 68.2521 8.14695 66.5843 9.78466 66.2343C11.4926 65.8657 12.4687 65.9344 12.4687 65.9344C9.38116 63.7701 -7.48769 70.1842 3.90012 72.0211C34.9563 77.0328 60.5126 69.7643 52.4571 66.1485Z" fill="white"/>
<path d="M19.909 42.6181C19.909 42.6181 5.76734 45.9605 14.9011 47.1742C18.7576 47.688 26.4456 47.5718 33.6067 46.9747C39.4591 46.4834 45.3357 45.4389 45.3357 45.4389C45.3357 45.4389 43.272 46.3184 41.779 47.3328C27.4184 51.0911 -0.323567 49.3427 7.663 45.4984C14.4173 42.2495 19.909 42.6181 19.909 42.6181Z" fill="white"/>
<path d="M45.2817 56.7288C59.8799 49.1802 53.1303 41.9262 48.4191 42.9035C47.2644 43.1426 46.7495 43.3499 46.7495 43.3499C46.7495 43.3499 47.1782 42.6816 47.9969 42.3924C57.3171 39.1318 64.4849 52.009 44.9883 57.1092C44.9883 57.1094 45.2142 56.9085 45.2817 56.7288Z" fill="white"/>
<path d="M36.4785 0C36.4785 0 44.5632 8.04773 28.8105 20.4229C16.1784 30.3499 25.93 36.01 28.8052 42.4769C21.4317 35.8568 16.0205 30.0291 19.6507 24.6052C24.9791 16.6435 39.7405 12.7833 36.4785 0Z" fill="white"/>
<path d="M21.3462 77.1835C35.3586 78.0761 56.8763 76.6883 57.386 70.0906C57.386 70.0906 56.4064 72.5917 45.8054 74.578C33.8455 76.8177 19.0946 76.5562 10.3457 75.1209C10.3459 75.1206 12.1367 76.5959 21.3462 77.1835Z" fill="white"/>
<path d="M91.887 58.4933C90.5651 59.6342 89.169 60.2747 87.9162 60.2747C86.1279 60.2747 85.1617 59.2076 85.1617 57.4962C85.1617 55.6449 86.1969 54.2913 90.35 54.2913H91.8868V58.4933H91.887ZM95.5345 62.5884V49.9121C95.5345 46.6739 93.6784 44.5371 89.2034 44.5371C86.5909 44.5371 84.3025 45.179 82.4425 45.9977L82.9793 48.2416C84.4438 47.7067 86.3395 47.2088 88.2001 47.2088C90.778 47.2088 91.887 48.2416 91.887 50.3769V51.979H90.6004C84.3371 51.979 81.5117 54.3984 81.5117 58.0298C81.5117 61.1637 83.3736 62.9451 86.8793 62.9451C89.1327 62.9451 90.8149 62.0193 92.3874 60.6645L92.6728 62.5886H95.5345V62.5884Z" fill="white"/>
<path d="M107.706 62.5883H103.157L97.6816 44.8579H101.654L105.052 55.7516L105.807 59.0278C107.525 54.2909 108.741 49.4852 109.349 44.8579H113.214C112.178 50.6964 110.315 57.1049 107.706 62.5883Z" fill="white"/>
<path d="M125.157 58.4933C123.833 59.6342 122.434 60.2747 121.181 60.2747C119.396 60.2747 118.428 59.2076 118.428 57.4962C118.428 55.6449 119.465 54.2913 123.618 54.2913H125.157V58.4933ZM128.804 62.5884V49.9121C128.804 46.6739 126.944 44.5371 122.474 44.5371C119.86 44.5371 117.57 45.179 115.711 45.9977L116.247 48.2416C117.712 47.7067 119.611 47.2088 121.471 47.2088C124.047 47.2088 125.157 48.2416 125.157 50.3769V51.979H123.869C117.603 51.979 114.779 54.3984 114.779 58.0298C114.779 61.1637 116.64 62.9451 120.145 62.9451C122.399 62.9451 124.081 62.0193 125.656 60.6645L125.943 62.5886H128.804V62.5884Z" fill="white"/>
<path d="M77.5111 65.5992C76.4713 67.1099 74.7918 68.305 72.9532 68.9812L71.1523 66.8724C72.5518 66.1578 73.752 65.0038 74.3097 63.9288C74.792 62.9728 74.9917 61.7407 74.9917 58.7942V38.5522H78.8669V58.5168C78.8667 62.4561 78.5502 64.0473 77.5111 65.5992Z" fill="white"/>
</svg>
