<svg width="96" height="59" viewBox="0 0 96 59" fill="none" xmlns="http://www.w3.org/2000/svg">
<path d="M47.6688 58.9999C47.3534 58.9999 47.0401 58.9176 46.7636 58.7592L43.8825 57.0618C43.4522 56.8223 43.6621 56.7376 43.8041 56.6888C44.3778 56.4889 44.4943 56.4438 45.1067 56.0977C45.1711 56.0611 45.2553 56.074 45.3212 56.1127L47.5346 57.4197C47.6146 57.4627 47.728 57.4627 47.8021 57.4197L56.4323 52.4626C56.5122 52.4175 56.5641 52.3251 56.5641 52.2305V42.3206C56.5641 42.2217 56.5122 42.1336 56.4306 42.0841L47.8038 37.1314C47.7239 37.0841 47.618 37.0841 47.5381 37.1314L38.913 42.0841C38.8294 42.1314 38.7763 42.2239 38.7763 42.3184V52.2283C38.7763 52.3229 38.8281 52.4132 38.9102 52.4583L41.2736 53.8169C42.5567 54.4554 43.3409 53.703 43.3409 52.9463V43.1654C43.3409 43.0257 43.4511 42.9182 43.5915 42.9182H44.6846C44.8207 42.9182 44.933 43.0257 44.933 43.1654V52.9506C44.933 54.6531 43.9998 55.6312 42.3774 55.6312C41.8784 55.6312 41.4853 55.6312 40.3878 55.0938L38.1239 53.7954C37.5644 53.473 37.2188 52.8711 37.2188 52.2283V42.3184C37.2188 41.6736 37.5644 41.0717 38.1239 40.7535L46.7628 35.7943C47.3093 35.4869 48.0352 35.4869 48.5774 35.7943L57.2054 40.7557C57.7628 41.076 58.1106 41.6757 58.1106 42.3206V52.2305C58.1106 52.8732 57.7628 53.473 57.2054 53.7954L48.5774 58.7547C48.3009 58.9137 47.9876 58.9954 47.6679 58.9954" fill="white"/>
<path d="M50.3335 52.1717C46.5574 52.1717 45.7656 50.4469 45.7656 49.0001C45.7656 48.8626 45.8771 48.7529 46.0156 48.7529H47.1303C47.2534 48.7529 47.3571 48.8421 47.3765 48.9632C47.545 50.0935 48.0462 50.6635 50.3296 50.6635C52.1485 50.6635 52.9219 50.2547 52.9219 49.2949C52.9219 48.7424 52.7016 48.3318 49.8759 48.0567C47.5126 47.8245 46.0523 47.3064 46.0523 45.4255C46.0523 43.6929 47.5213 42.661 49.9818 42.661C52.7448 42.661 54.1144 43.6155 54.2872 45.6663C54.2937 45.7372 54.2677 45.806 54.2202 45.8576C54.1727 45.907 54.1057 45.9371 54.0366 45.9371H52.9154C52.7988 45.9371 52.6972 45.8554 52.6735 45.7436C52.4034 44.5549 51.751 44.1744 49.9775 44.1744C47.9922 44.1744 47.7611 44.8623 47.7611 45.3782C47.7611 46.0037 48.0332 46.1865 50.712 46.539C53.3648 46.8894 54.6242 47.3838 54.6242 49.239C54.6242 51.1092 53.0558 52.1818 50.321 52.1818L50.3335 52.1717ZM60.8328 41.6722H61.1222C61.3599 41.6722 61.4052 41.5067 61.4052 41.4099C61.4052 41.1563 61.2303 41.1563 61.133 41.1563H60.8349L60.8328 41.6722ZM60.4806 40.8596H61.1222C61.3426 40.8596 61.7746 40.8596 61.7746 41.3498C61.7746 41.6916 61.5543 41.7625 61.4225 41.8055C61.6796 41.8227 61.6969 41.9904 61.7314 42.2268C61.7487 42.3751 61.7768 42.6309 61.8286 42.7169H61.4333C61.4225 42.6309 61.362 42.158 61.362 42.1322C61.3361 42.0269 61.2994 41.9753 61.1676 41.9753H60.8414V42.7191H60.4806V40.8596ZM59.7094 41.784C59.7094 42.5536 60.3337 43.177 61.1006 43.177C61.874 43.177 62.4983 42.5407 62.4983 41.784C62.4983 41.0123 61.8654 40.3996 61.0985 40.3996C60.3424 40.3996 59.7073 41.0037 59.7073 41.7818L59.7094 41.784ZM62.7662 41.7883C62.7662 42.6997 62.0166 43.4435 61.1028 43.4435C60.1955 43.4435 59.4394 42.7083 59.4394 41.7883C59.4394 40.851 60.2128 40.1331 61.1028 40.1331C61.9993 40.1331 62.764 40.8532 62.764 41.7883" fill="white"/>
<path fill-rule="evenodd" clip-rule="evenodd" d="M20.9461 20.2248C20.9461 19.8292 20.7366 19.466 20.3935 19.2693L11.2435 14.0306C11.0891 13.9403 10.916 13.893 10.7406 13.8865H10.646C10.4706 13.893 10.2976 13.9403 10.1405 14.0306L0.990958 19.2693C0.650069 19.467 0.4375 19.8303 0.4375 20.2259L0.45759 34.3362C0.45759 34.5318 0.559122 34.7145 0.731943 34.8112C0.900443 34.9144 1.11215 34.9144 1.28065 34.8112L6.72017 31.7114C7.06365 31.5081 7.2732 31.1486 7.2732 30.757V24.1651C7.2732 23.7717 7.48274 23.4084 7.82514 23.2128L10.1409 21.8856C10.3129 21.7867 10.5017 21.7377 10.694 21.7377C10.8832 21.7377 11.0763 21.7863 11.2435 21.8854L13.5582 23.2121C13.9009 23.4078 14.1113 23.7711 14.1113 24.1644V30.7559C14.1113 31.1471 14.3236 31.5083 14.6654 31.7104L20.1014 34.808C20.2721 34.909 20.4845 34.909 20.6545 34.808C20.8221 34.7113 20.9284 34.5285 20.9284 34.3329L20.9461 20.2248ZM64.1227 27.5714C64.1227 27.6697 64.0702 27.7606 63.9845 27.8092L60.8417 29.6119C60.7564 29.6607 60.651 29.6607 60.5658 29.6119L57.4227 27.8092C57.3363 27.7604 57.2844 27.6694 57.2844 27.5714V23.9609C57.2844 23.8624 57.3363 23.7717 57.4205 23.7223L60.5615 21.9166C60.6479 21.8671 60.7538 21.8671 60.8402 21.9166L63.9834 23.7223C64.0698 23.7717 64.1216 23.8624 64.1216 23.9609L64.1227 27.5714ZM64.9717 0.829368C64.8002 0.734353 64.5915 0.736933 64.4221 0.835172C64.2536 0.934056 64.1495 1.11463 64.1495 1.31024V15.283C64.1495 15.4205 64.076 15.5474 63.9564 15.6162C63.8376 15.6849 63.6896 15.6849 63.5697 15.6162L61.2777 14.3025C60.9363 14.106 60.5159 14.106 60.1733 14.3025L51.0203 19.559C50.6784 19.7547 50.4673 20.1179 50.4673 20.5092V31.0253C50.4673 31.4186 50.6784 31.7798 51.0203 31.9776L60.1733 37.2377C60.5151 37.4334 60.9359 37.4334 61.2787 37.2377L70.4317 31.9754C70.7731 31.7776 70.9848 31.4165 70.9848 31.0231V4.8146C70.9848 4.41563 70.7666 4.04868 70.4166 3.85371L64.9717 0.829368ZM95.4514 23.8659C95.7914 23.6694 96.0007 23.3065 96.0007 22.9153V20.3667C96.0007 19.9746 95.7912 19.6128 95.4505 19.4154L86.3559 14.1617C86.0124 13.9639 85.5911 13.9639 85.2476 14.1617L76.0968 19.4176C75.7533 19.6154 75.5438 19.9765 75.5438 20.3699V30.8817C75.5438 31.2772 75.7576 31.6426 76.1011 31.8383L85.1936 36.9953C85.5285 37.1866 85.9389 37.1887 86.2781 37.0017L91.7781 33.96C91.9509 33.8632 92.0611 33.6805 92.0611 33.4827C92.0611 33.285 91.9552 33.1001 91.7824 33.0034L82.5754 27.7453C82.4026 27.6486 82.2967 27.4659 82.2967 27.2703V23.9727C82.2967 23.7758 82.4004 23.5944 82.5732 23.4963L85.4377 21.8519C85.6084 21.753 85.8179 21.753 85.9886 21.8519L88.8553 23.4963C89.0259 23.5931 89.1318 23.7758 89.1318 23.9714V26.5639C89.1318 26.7595 89.2376 26.9422 89.4083 27.0411C89.579 27.1378 89.7907 27.1378 89.9613 27.039L95.4514 23.8659Z" fill="white"/>
<path d="M46.1253 31.5126V19.8238L35.837 13.9795L25.5488 19.8238V31.5126L35.837 37.357L46.1253 31.5126Z" fill="#C9C9C9"/>
<path d="M45.9794 31.5612L35.8375 13.98L25.5493 19.7841L35.7789 37.4217L45.9794 31.5612Z" fill="white"/>
<path d="M25.5488 31.3921L29.0322 25.7492L25.5488 19.7839V31.3921Z" fill="#DCDCDC"/>
<path d="M42.6408 25.8294L46.1242 19.7837L35.8359 13.9795L42.6408 25.8294Z" fill="#DCDCDC"/>
<path fill-rule="evenodd" clip-rule="evenodd" d="M85.666 23.3738C85.7308 23.3357 85.812 23.3357 85.8777 23.3738L87.634 24.3819C87.6996 24.4198 87.7398 24.4894 87.7398 24.5647V26.5832C87.7398 26.6584 87.6996 26.7281 87.634 26.7659L85.8777 27.7741C85.812 27.8121 85.7308 27.8121 85.666 27.7741L83.9107 26.7659C83.8438 26.7281 83.8027 26.6584 83.8027 26.5832V24.5647C83.8027 24.4894 83.8416 24.4198 83.9086 24.3819L85.666 23.3738Z" fill="white"/>
</svg>
