<svg width="125" height="49" viewBox="0 0 125 49" fill="none" xmlns="http://www.w3.org/2000/svg">
<path d="M51.2738 43.382C51.2738 44.4756 50.7243 45.0221 49.6253 45.0221H47.9434V32.5137C48.1051 28.5907 50.1735 26.6938 54.1486 26.6938C58.2521 26.6938 60.3337 28.8808 60.3337 33.2855C60.3337 37.7231 58.5888 40.0391 55.0323 40.167C53.3838 40.167 52.1242 39.4924 51.2833 38.141L51.2738 43.382ZM54.1286 37.2082C55.9387 37.2082 56.8441 35.9538 56.9403 33.413C56.9403 30.7764 56.0031 29.4579 54.0856 29.4579C52.1681 29.4579 51.2736 30.7762 51.3059 33.413C51.4035 35.9538 52.3074 37.2082 54.1179 37.2082H54.1286ZM66.8342 29.587C64.8621 29.587 63.9795 31.2274 63.9795 33.22V39.9086H60.6822V23.1045H62.363C63.4622 23.1045 64.0115 23.695 64.0115 24.7768V28.6997C65.7244 26.7708 67.7939 26.224 70.2822 27.0903C72.1258 27.7649 72.9977 29.5021 72.8989 32.3648V39.9537H69.6043V33.2321C69.6043 31.013 68.7313 29.599 66.8246 29.599L66.8342 29.587ZM76.8112 30.2297H73.4808C73.8685 27.8179 75.6134 26.6285 78.6525 26.6285C82.3041 26.6285 84.1798 27.8178 84.2428 30.2297V34.6673C84.2428 38.2685 82.0448 39.8766 78.4574 40.1346C75.29 40.3915 73.0598 38.9123 73.0598 36.0189C73.1239 32.8675 75.4385 32.0308 78.8131 31.7113C80.2358 31.5504 80.978 31.1208 80.978 30.393C80.9139 29.6535 80.2024 29.2687 78.8131 29.2687C77.6499 29.3325 77.003 29.6237 76.809 30.2332L76.8112 30.2297ZM81.0134 34.5372V33.3149C80.2379 33.6368 79.3326 33.9053 78.3634 34.1196C77.0383 34.3763 76.3591 34.9882 76.3591 35.9539C76.4232 36.9834 76.9728 37.4971 78.0399 37.4971C79.8836 37.4971 81.0134 36.4035 81.0134 34.5385V34.5372ZM88.4772 24.6996V39.9098H85.1468V23.1057H86.8597C87.7327 23.1057 88.4773 23.8453 88.4773 24.7151L88.4772 24.6996ZM95.1999 40.2118C91.1914 40.2118 89.1339 37.9278 89.0148 33.4261C89.0148 28.9563 91.0512 26.7043 95.1238 26.6405C98.3352 26.6405 100.23 28.0559 100.813 30.8854H97.1931C96.8053 29.9859 96.0939 29.5362 95.0282 29.5362C93.2834 29.5362 92.4115 30.8545 92.4115 33.4594C92.4115 36.0643 93.3488 37.3824 95.1912 37.3504C95.9667 37.3504 96.6459 37.0284 97.1955 36.4179C97.5189 36.0959 97.9067 35.9349 98.3255 35.9349H100.847C100.233 38.5715 98.2613 40.3087 95.1913 40.2118H95.1999ZM113.301 33.4474C113.301 37.949 111.264 40.233 107.256 40.233C103.248 40.233 101.245 37.949 101.245 33.4474C101.245 28.8793 103.249 26.6618 107.256 26.6618C111.297 26.6299 113.301 28.8806 113.301 33.4474ZM104.638 33.4474C104.67 35.9881 105.542 37.2746 107.255 37.2746C108.967 37.2746 109.808 35.9254 109.841 33.3516C109.841 30.8108 109 29.5564 107.287 29.5564C105.509 29.5245 104.637 30.8427 104.637 33.4474H104.638ZM123.288 39.9111C122.189 39.8473 121.64 39.3206 121.64 38.2709V31.5492C121.575 30.2002 120.799 29.5232 119.344 29.5232C117.857 29.5232 117.114 30.1978 117.081 31.5492V39.9099H113.688V32.2238C113.688 28.4936 115.595 26.6286 119.377 26.6286C123.159 26.6286 125.001 28.4925 125.001 32.2225V39.9086L123.288 39.9111Z" fill="white"/>
<path d="M18.2646 28.8507L16.0547 29.8969L20.6223 29.5358L21.4905 28.8497L21.2371 28.4165L18.2646 28.8507Z" fill="white"/>
<path d="M25.974 41.1221L28.1483 42.1316V42.7799L26.6615 42.167L26.4808 42.4913L27.858 43.1777L28.4373 44.5835L27.0599 43.4297H26.7697L27.0599 46.9632L25.321 44.9443L25.1758 42.8888L25.974 41.1221Z" fill="white"/>
<path d="M23.0843 40.8316L25.5846 43.2457V44.9026L23.3364 45.8399L21.959 43.3879V36.2129L22.5382 35.0957L22.7559 35.2756L23.0843 40.8316Z" fill="white"/>
<path d="M28.7029 35.0269L30.8772 36.0364V36.7225L29.4261 36.0741L29.2453 36.3984L30.5501 37.0468L31.1661 38.5261L29.8613 37.3368H29.5711L29.8245 40.8337L27.9404 38.6704L27.8691 37.0492L28.7029 35.0269Z" fill="white"/>
<path d="M26.8541 36.3986L28.1589 37.2625V38.5962L24.5347 39.9666L23.2668 37.2992L22.9766 35.5691L23.8091 35.0282L26.2737 34.8838L26.8541 36.3986Z" fill="white"/>
<path d="M18.7009 34.3405L23.3397 31.24L19.7526 30.3027L12.9395 37.0446V41.4432L14.6428 47.2477V44.1709L18.7009 34.3405ZM34.7904 30.4116C34.7192 30.4116 30.4061 31.4934 30.4061 31.4934L26.1277 35.0269H23.8083L30.8736 30.4116H34.7904Z" fill="white"/>
<path d="M40.5529 27.4211L42.2919 30.1974L40.2259 31.2792L32.5421 28.1432L32.3613 26.0166L36.6374 26.3053L40.5529 27.4211Z" fill="white"/>
<path d="M40.5134 29.5841L39.8232 30.0896L39.752 29.9831L40.5136 29.4067L41.6014 30.0197L41.5301 30.164L40.5134 29.5841Z" fill="white"/>
<path d="M23.6282 22.9141L31.8543 24.9697V29.6914L28.7023 28.5022L22.541 25.3662L23.6282 22.9141Z" fill="white"/>
<path d="M33.8823 23.7416L30.1855 20.1003L30.2926 16.7109L33.8823 23.7416Z" fill="white"/>
<path d="M32.5447 25.1128L30.3347 15.667L12.9023 0.812988L15.4762 7.87782L25.6221 17.6126L32.5447 25.1128Z" fill="white"/>
<path d="M12.6508 8.05733L18.9929 15.2678L25.624 17.6108L12.0703 4.56152L12.6508 8.05733Z" fill="white"/>
<path d="M3.8418 15.8818L10.907 17.793L16.6343 23.4058L10.5468 21.6037L8.95289 20.5219L3.8418 15.8818Z" fill="white"/>
<path d="M22.5064 26.8071L22.3612 27.9964L15.5851 27.3835L10.2207 24.4995L22.5064 26.8071Z" fill="white"/>
<path d="M20.5517 29.2952L17.8338 29.0432L13.666 27.7095L22.6165 28.0338L31.3492 28.7556L32.3638 30.6301L30.1895 30.2337L25.4436 29.8005L22.0014 28.5024L20.5517 29.2952Z" fill="white"/>
<path d="M6.92383 20.4634L21.7799 24.97L28.7025 28.5035L22.3604 27.9982L14.2793 25.5841L6.92383 20.4634Z" fill="white"/>
<path d="M5.43751 15.4513L11.4168 20.0311L16.636 23.4073L22.5427 25.354L23.63 22.902L1.30664 9.60889L5.43751 15.4513Z" fill="white"/>
<path d="M0.365234 4.56152L6.85123 13.3944L23.6294 22.9125L32.5443 25.1112L25.6217 17.612L0.365234 4.56152Z" fill="white"/>
<path d="M31.8535 29.6554V24.9692L32.5434 25.1137V25.258L36.6385 26.3041L33.0868 26.8096L35.913 27.9988L33.0868 28.0697L37.5436 29.8364L40.2246 31.2801L40.3698 31.8931L36.1294 30.4138H32.3613L31.8535 29.6554Z" fill="white"/>
<path d="M42.2922 32.6135L41.2049 33.5507H40.082L40.5901 32.6868L40.2273 31.281L42.2933 30.1992L42.2922 32.6135Z" fill="white"/>
<path d="M18.265 41.3357L19.062 42.3451L18.8812 42.5972L19.4605 48.3663L15.7637 41.3844L18.9156 33.9572L25.4385 29.8105L30.8743 30.3869V30.4223L21.9594 36.2268L21.1982 35.1096L18.265 41.3357Z" fill="white"/>
<path d="M25.4415 29.7994L12.9405 37.5862L10.2227 40.7931L11.1647 37.2974L13.9909 33.4396L21.9993 28.5L25.4415 29.7994Z" fill="white"/>
<path d="M21.9603 36.2166V44.9773L23.0832 47.7535L18.2637 41.3361L21.1991 35.0996L21.9603 36.2166Z" fill="white"/>
<path d="M9.67969 35.3525V36.5786L11.9991 33.478L9.67969 35.3525Z" fill="white"/>
<path d="M12.0707 43.3205L12.4702 45.7346L11.5996 45.1937V42.1997L12.0707 43.3205Z" fill="white"/>
</svg>
