<svg width="72" height="35" viewBox="0 0 72 35" fill="none" xmlns="http://www.w3.org/2000/svg">
<path d="M14.8898 12.039C17.1181 12.039 18.6031 12.4482 19.3456 13.2668C20.0875 14.0855 20.2642 15.4906 19.8761 17.4817C19.4706 19.5553 18.6897 21.0353 17.5323 21.922C16.3749 22.8089 14.6135 23.2518 12.2489 23.2518H8.68131L10.8713 12.039H14.8898ZM0.599609 34.6028H6.46473L7.85583 27.4799H12.8796C15.0963 27.4799 16.9198 27.2486 18.3513 26.7847C19.783 26.3215 21.0839 25.5447 22.255 24.454C23.2378 23.5549 24.033 22.5634 24.642 21.479C25.2503 20.3955 25.6826 19.1992 25.9381 17.891C26.5586 14.7152 26.0903 12.2415 24.5346 10.4693C22.9788 8.69707 20.5038 7.81104 17.1109 7.81104H5.83248L0.599609 34.6028Z" fill="white"/>
<path d="M30.2467 0.688477H36.0655L34.6742 7.81138H39.8581C43.1196 7.81138 45.3695 8.37787 46.6078 9.50959C47.846 10.642 48.217 12.4766 47.7219 15.0128L45.2873 27.4802H39.3761L41.691 15.6259C41.9544 14.2774 41.8578 13.3576 41.4003 12.8672C40.9429 12.3767 39.9695 12.1313 38.4808 12.1313H33.8302L30.8326 27.4801H25.0137L30.2467 0.688477Z" fill="white"/>
<path d="M60.669 12.039C62.8972 12.039 64.3823 12.4482 65.1248 13.2668C65.8669 14.0855 66.0435 15.4906 65.6552 17.4817C65.2497 19.5553 64.4692 21.0353 63.3115 21.922C62.154 22.8089 60.3926 23.2518 58.028 23.2518H54.4606L56.6506 12.039H60.669ZM46.3789 34.6028H52.244L53.635 27.4799H58.6587C60.8754 27.4799 62.6989 27.2486 64.1306 26.7847C65.5621 26.3215 66.8631 25.5447 68.0343 24.454C69.0173 23.5549 69.8123 22.5634 70.4213 21.479C71.0295 20.3955 71.4619 19.1992 71.7172 17.891C72.3378 14.7152 71.8696 12.2415 70.3137 10.4693C68.758 8.69707 66.283 7.81104 62.8901 7.81104H51.6119L46.3789 34.6028Z" fill="white"/>
</svg>
