<svg width="185" height="45" viewBox="0 0 185 45" fill="none" xmlns="http://www.w3.org/2000/svg">
<path d="M69.7539 22.8526C69.7539 17.1802 68.1361 14.2681 64.9001 14.1088C63.6124 14.048 62.3558 14.2529 61.1327 14.7278C60.1567 15.0768 59.4998 15.4227 59.1542 15.7721V29.3114C61.2239 30.6101 63.0618 31.2139 64.6648 31.1188C68.0558 30.8941 69.7539 28.1416 69.7539 22.8526ZM73.7453 23.0879C73.7453 25.9696 73.0693 28.3617 71.7094 30.2638C70.1941 32.4167 68.094 33.5253 65.409 33.5861C63.3848 33.6504 61.2995 33.0166 59.1538 31.6875V43.9932L55.6825 42.7553V15.4414C56.2521 14.743 56.9854 14.1431 57.8738 13.634C59.9401 12.4303 62.4501 11.8117 65.4051 11.7814L65.4542 11.8304C68.1548 11.7965 70.2354 12.9051 71.6978 15.1527C73.0615 17.2145 73.7453 19.8571 73.7453 23.0879ZM94.9599 31.164C94.9599 35.0293 94.5726 37.7058 93.798 39.1942C93.0195 40.6822 91.5381 41.8706 89.3507 42.7557C87.577 43.4541 85.6588 43.8339 83.6008 43.8985L83.0269 41.7117C85.1196 41.4274 86.5932 41.1422 87.4477 40.8575C89.1301 40.288 90.2846 39.415 90.919 38.2453C91.4278 37.2925 91.6784 35.4738 91.6784 32.7821V31.8784C89.3047 32.957 86.8172 33.4922 84.216 33.4922C82.5067 33.4922 80.9992 32.957 79.7001 31.8784C78.2417 30.7051 77.5127 29.2171 77.5127 27.4136V12.9698L80.984 11.7814V26.319C80.984 27.8717 81.4851 29.0679 82.4876 29.907C83.4901 30.746 84.7892 31.1488 86.3805 31.118C87.9717 31.0838 89.6768 30.4687 91.4882 29.265V12.3049H94.9595V31.164H94.9599ZM108.51 33.3964C108.13 33.4285 107.749 33.4449 107.367 33.4455C105.404 33.4455 103.873 32.9788 102.78 32.0408C101.689 31.1032 101.143 29.8088 101.143 28.1568V14.4882H98.7651V12.3053H101.143V6.5075L104.61 5.27346V12.3053H108.51V14.4882H104.61V28.0618C104.61 29.3644 104.959 30.2868 105.658 30.8263C106.258 31.2703 107.211 31.5247 108.51 31.5894V33.3964H108.51ZM129.528 33.1117H126.056V19.7165C126.056 18.3535 125.738 17.1802 125.103 16.201C124.37 15.092 123.353 14.5377 122.046 14.5377C120.455 14.5377 118.465 15.3767 116.076 17.0548V33.1117H112.605V1.09341L116.076 0V14.5832C118.294 12.9694 120.717 12.1608 123.349 12.1608C125.187 12.1608 126.676 12.7797 127.815 14.0138C128.958 15.2474 129.528 16.7853 129.528 18.6231V33.1117H129.528ZM147.977 22.3061C147.977 20.1267 147.564 18.327 146.739 16.9033C145.759 15.1683 144.237 14.2529 142.178 14.1583C138.372 14.3784 136.473 17.1043 136.473 22.3291C136.473 24.7247 136.868 26.7257 137.666 28.3317C138.684 30.3783 140.211 31.3884 142.247 31.3541C146.067 31.3233 147.977 28.3087 147.977 22.3061ZM151.779 22.3287C151.779 25.4309 150.985 28.0127 149.402 30.0741C147.658 32.3828 145.251 33.5405 142.178 33.5405C139.132 33.5405 136.759 32.3825 135.046 30.0741C133.492 28.0127 132.717 25.4309 132.717 22.3287C132.717 19.413 133.557 16.9602 135.236 14.963C137.009 12.8444 139.341 11.7814 142.224 11.7814C145.106 11.7814 147.453 12.8444 149.261 14.963C150.94 16.9602 151.779 19.413 151.779 22.3287ZM171.679 33.1117H168.208V18.9573C168.208 17.4046 167.741 16.1932 166.807 15.3198C165.873 14.4504 164.627 14.0289 163.074 14.0628C161.426 14.0932 159.857 14.6323 158.368 15.6767V33.1117H154.897V15.2478C156.895 13.7941 158.733 12.8444 160.412 12.4003C161.995 11.9866 163.393 11.7814 164.597 11.7814C165.42 11.7814 166.196 11.8608 166.925 12.0205C168.288 12.3357 169.397 12.9203 170.251 13.7785C171.205 14.7278 171.679 15.8664 171.679 17.1993V33.1117Z" fill="white"/>
<path d="M21.3983 1.22163C19.6122 1.22981 17.9068 1.38212 16.4063 1.64778C11.9855 2.42879 11.1828 4.06287 11.1828 7.07706V11.0577H21.6298V12.3844H7.2619C4.22585 12.3844 1.56696 14.209 0.735478 17.6797C-0.223809 21.658 -0.26628 24.1404 0.735478 28.2944C1.47813 31.3865 3.25176 33.5897 6.28781 33.5897H9.87988V28.8179C9.87988 25.3706 12.8633 22.3299 16.4063 22.3299H26.8412C29.7459 22.3299 32.0647 19.939 32.0647 17.0226V7.07667C32.0647 4.24634 29.6762 2.11989 26.8412 1.64739C25.0461 1.34901 23.1844 1.21306 21.3983 1.22163ZM15.7486 4.4228C16.8279 4.4228 17.7089 5.31833 17.7089 6.41914C17.7089 7.51606 16.8275 8.40341 15.7486 8.40341C14.6658 8.40341 13.7883 7.51645 13.7883 6.41914C13.7883 5.31833 14.6658 4.4228 15.7486 4.4228Z" fill="white"/>
<path d="M33.3676 12.384V17.0217C33.3676 20.6175 30.3183 23.6437 26.8412 23.6437H16.4063C13.548 23.6437 11.1829 26.0892 11.1829 28.9511V38.8962C11.1829 41.7269 13.6446 43.3918 16.4063 44.2036C19.7132 45.1758 22.8845 45.3515 26.8412 44.2036C29.4713 43.4424 32.0647 41.91 32.0647 38.8962V34.916H21.6298V33.5892H37.2882C40.3246 33.5892 41.4557 31.4718 42.5117 28.294C43.6026 25.0227 43.5563 21.8761 42.5117 17.6793C41.7612 14.6577 40.3281 12.384 37.2882 12.384H33.3676ZM27.4985 37.5695C28.5813 37.5695 29.4588 38.4564 29.4588 39.5537C29.4588 40.6546 28.5813 41.5501 27.4985 41.5501C26.4192 41.5501 25.5383 40.6546 25.5383 39.5537C25.5383 38.4568 26.4196 37.5695 27.4985 37.5695Z" fill="white"/>
<path d="M178.439 9.2113H179.048V5.39546H180.489V4.94049H176.997V5.39546H178.439V9.2113H178.439ZM181.029 9.2113H181.549V5.72617L182.677 9.21091H183.256L184.432 5.73786V9.2113H184.999V4.94088H184.249L182.964 8.59974L181.868 4.94088H181.029V9.2113Z" fill="white"/>
</svg>
