<svg width="132" height="34" viewBox="0 0 132 34" fill="none" xmlns="http://www.w3.org/2000/svg">
<path d="M30.9411 2.00492C30.4866 3.12663 29.8571 4.21328 29.1228 5.19477C22.6187 -1.57051 11.8833 -1.74578 5.1694 4.77413C-1.54454 11.294 -1.75435 22.0554 4.74978 28.7856C4.95959 29.031 5.20437 29.2413 5.44915 29.4516L6.07858 30.0125C13.2121 36.0416 23.9125 35.1303 29.9271 27.9794C32.235 25.2452 33.6337 21.81 33.8785 18.2346C34.3681 13.9931 33.0742 8.52483 30.9411 2.00492ZM7.89694 29.6269C7.40738 30.2579 6.4982 30.328 5.86877 29.8372C5.23933 29.3465 5.1694 28.4351 5.65896 27.8041C6.14851 27.1732 7.05769 27.1031 7.68713 27.5938C8.28159 28.0846 8.3865 28.9959 7.89694 29.6269ZM30.8362 24.5442C26.675 30.1176 17.7231 28.2248 12.0232 28.5052C12.0232 28.5052 11.0091 28.5753 9.99504 28.7155C9.99504 28.7155 10.3797 28.5402 10.8693 28.365C14.8906 26.9629 16.7789 26.6824 19.2267 25.4205C23.8076 23.0719 28.3885 17.9191 29.2976 12.591C27.5492 17.7088 22.234 22.1255 17.4084 23.9132C14.0864 25.1401 8.10675 26.3319 8.10675 26.3319L7.86197 26.1917C3.80563 24.1936 3.66575 15.3602 11.0791 12.5209C14.3311 11.259 17.4084 11.9601 20.9402 11.1188C24.6818 10.2424 29.0179 7.43818 30.7663 3.75759C32.7245 9.68159 35.1024 18.8655 30.8362 24.5442Z" fill="white"/>
<path d="M43.4945 23.7029C43.04 23.4225 42.7602 22.9317 42.7952 22.4059C42.7952 21.5646 43.4596 20.8636 44.2988 20.8636C44.2988 20.8636 44.2988 20.8636 44.3338 20.8636C44.6135 20.8636 44.8933 20.9337 45.1381 21.0739C46.5368 22.0554 48.1803 22.5812 49.8588 22.6513C51.4674 22.6513 52.4115 21.9502 52.4115 20.8636V20.7935C52.4115 19.4965 50.6631 19.0759 48.7398 18.48C46.327 17.7789 43.5994 16.7974 43.5994 13.6426V13.5725C43.5994 10.4528 46.1871 8.55988 49.4392 8.55988C51.2575 8.59493 53.006 9.05062 54.6145 9.8919C55.174 10.1723 55.5237 10.6981 55.5237 11.3291C55.5237 12.1704 54.8243 12.8714 53.9851 12.8714H53.9501C53.7053 12.8714 53.4606 12.8013 53.2158 12.6962C52.0268 12.0301 50.733 11.6446 49.3692 11.5745C47.9006 11.5745 47.0613 12.2755 47.0613 13.1869V13.257C47.0613 14.4839 48.8447 14.9746 50.768 15.6056C53.1808 16.3417 55.8734 17.4634 55.8734 20.4079V20.478C55.8734 23.9483 53.1808 25.6659 49.7889 25.6659C47.5509 25.6308 45.3479 24.9648 43.4945 23.7029Z" fill="white"/>
<path d="M57.2723 10.4878C57.2373 9.47128 58.0766 8.63 59.0907 8.59495H59.1256C60.1747 8.59495 61.0139 9.43623 61.0139 10.4878V11.6095C62.2378 9.89192 63.9513 8.52484 66.6089 8.52484C70.4554 8.52484 74.232 11.5745 74.232 17.0778V17.1479C74.232 22.6163 70.4904 25.7009 66.6089 25.7009C63.8813 25.7009 62.1679 24.3339 61.0139 22.7915V28.6104C61.0139 29.662 60.1747 30.5032 59.1256 30.5032C58.1115 30.5032 57.2723 29.662 57.2723 28.6454V28.6104V10.4878ZM70.4554 17.1479V17.0778C70.4554 13.888 68.3223 11.8198 65.7696 11.8198C63.2169 11.8198 60.9789 13.9581 60.9789 17.0778V17.1479C60.9789 20.3027 63.2169 22.4059 65.7696 22.4059C68.3223 22.4059 70.4554 20.4079 70.4554 17.1479Z" fill="white"/>
<path d="M75.701 10.4879C75.666 9.47131 76.5053 8.63003 77.5193 8.59498H77.5543C78.6034 8.59498 79.4426 9.43626 79.4426 10.4879V11.3992C79.6175 9.99711 81.9254 8.59498 83.5689 8.59498C84.513 8.52487 85.3523 9.22594 85.4222 10.1724C85.4222 10.2775 85.4222 10.3476 85.4222 10.4528C85.4222 11.3642 84.7928 12.1354 83.9186 12.2756C81.226 12.7313 79.4076 15.0798 79.4076 18.3398V23.773C79.4076 24.8246 78.5684 25.6309 77.5193 25.6309C76.5053 25.6309 75.666 24.8246 75.666 23.8081C75.666 23.8081 75.666 23.8081 75.666 23.773L75.701 10.4879Z" fill="white"/>
<path d="M86.9256 10.5229C86.8906 9.5064 87.7299 8.66512 88.744 8.63007H88.7789C89.828 8.63007 90.6672 9.47134 90.6672 10.5229V23.8081C90.6672 24.8597 89.828 25.666 88.7789 25.666C87.7299 25.666 86.9256 24.8247 86.9256 23.8081V10.5229Z" fill="white"/>
<path d="M92.5904 10.5229C92.5554 9.5064 93.3947 8.66512 94.4087 8.63007H94.4437C95.4928 8.63007 96.332 9.47135 96.332 10.5229V11.2941C97.451 9.54146 99.4092 8.52491 101.472 8.59502C105.179 8.59502 107.312 11.0838 107.312 14.9046V23.7731C107.347 24.7896 106.543 25.5959 105.529 25.6309C105.494 25.6309 105.494 25.6309 105.459 25.6309C104.445 25.666 103.605 24.8247 103.57 23.8081V23.7731V16.0614C103.57 13.5025 102.312 12.0302 100.039 12.0302C97.8706 12.0302 96.332 13.5726 96.332 16.1315V23.8081C96.332 24.8597 95.4928 25.701 94.4437 25.701C93.3947 25.701 92.5554 24.8597 92.5554 23.8081L92.5904 10.5229Z" fill="white"/>
<path d="M123.887 8.55985C122.838 8.55985 121.999 9.40113 121.999 10.4527V11.5744C120.775 9.85682 119.062 8.48975 116.404 8.48975C112.558 8.48975 108.781 11.5394 108.781 17.0427V17.1128C108.781 22.5812 112.523 25.6658 116.404 25.6658C119.132 25.6658 120.845 24.2988 121.999 22.7915C121.824 25.771 120.006 27.3134 116.824 27.3134C115.075 27.3134 113.327 26.8927 111.788 26.0164C111.578 25.9112 111.369 25.8762 111.124 25.8762C110.25 25.8762 109.55 26.5422 109.515 27.4185C109.515 28.0845 109.935 28.7155 110.564 28.9258C112.558 29.9073 114.726 30.398 116.929 30.398C119.901 30.398 122.209 29.697 123.678 28.1897C125.041 26.8226 125.776 24.7545 125.776 21.9853V10.4878C125.811 9.43618 124.971 8.59491 123.922 8.55985H123.887ZM117.278 22.4059C114.691 22.4059 112.593 20.3728 112.593 17.1128V17.0427C112.593 13.8529 114.726 11.7848 117.278 11.7848C119.831 11.7848 122.069 13.923 122.069 17.0427V17.1128C122.104 20.2676 119.866 22.4059 117.278 22.4059Z" fill="white"/>
<path d="M90.7024 4.07393C90.7024 5.12552 89.8631 5.9668 88.8141 5.9668C87.765 5.9668 86.9258 5.12552 86.9258 4.07393C86.9258 3.02233 87.765 2.18105 88.8141 2.18105C89.8282 2.146 90.6674 2.98728 90.7024 4.00382C90.7024 4.03887 90.7024 4.03887 90.7024 4.07393Z" fill="white"/>
<path d="M130.077 12.5209C129.028 12.5209 128.154 11.6446 128.154 10.593C128.154 9.54137 129.028 8.66504 130.077 8.66504C131.126 8.66504 132 9.54137 132 10.593C132 11.6446 131.126 12.5209 130.077 12.5209ZM130.077 8.94546C129.168 8.94546 128.433 9.68158 128.433 10.593C128.433 11.5044 129.168 12.2405 130.077 12.2405C130.986 12.2405 131.72 11.5044 131.72 10.593C131.72 9.68158 131.021 8.94546 130.112 8.94546H130.077ZM130.601 11.6796L130.042 10.8033H129.657V11.6796H129.342V9.47126H130.252C130.636 9.43621 130.951 9.75169 130.986 10.1373C130.986 10.4528 130.741 10.7332 130.427 10.8033L131.021 11.6796H130.601ZM130.217 9.75169H129.657V10.5229H130.252C130.461 10.5229 130.636 10.3476 130.636 10.1373C130.636 9.92696 130.461 9.75169 130.217 9.75169Z" fill="white"/>
<path d="M29.9272 27.9794C32.2352 25.2452 33.6339 21.81 33.8787 18.2346L29.9272 27.9794Z" fill="white"/>
</svg>
