<svg width="58" height="44" viewBox="0 0 58 44" fill="none" xmlns="http://www.w3.org/2000/svg">
<path d="M43.5997 33.1297H50.7998V15.6525L42.6878 7.45186L37.5965 12.5989L43.5997 18.6678V33.1295V33.1297ZM50.8189 36.7786H25.704L19.7005 30.7099L22.2464 28.1364L27.2047 33.1489H37.4064L27.3567 22.9701L29.9214 20.3774L39.9711 30.5372V20.2234L35.0318 15.2301L37.5584 12.6756L25.0771 0H0L7.18112 7.2597V7.27894H22.0753L27.3377 12.5989L19.6437 20.3771L14.3813 15.0572V10.928H7.18112V18.0725L19.6437 30.6714L14.5711 35.7992L22.6832 44H58L50.8189 36.7786Z" fill="white"/>
</svg>
