<svg width="189" height="39" viewBox="0 0 189 39" fill="none" xmlns="http://www.w3.org/2000/svg">
<path d="M24.4745 10.9837C22.6701 5.85098 28.0251 0.372232 32.4487 0.199219C35.068 1.52565 37.338 5.04359 37.2216 9.77262C36.8724 15.6551 32.5651 20.6724 27.9087 25.3438C27.6758 19.692 26.4535 16.0588 24.4745 10.9837Z" fill="white"/>
<path d="M14.1148 38.7233C13.3581 33.0139 15.8028 28.1118 18.131 25.1706C19.2369 23.7865 20.11 22.5177 20.8085 21.3066C22.089 21.8257 25.4067 23.5558 27.2693 26.324C26.9783 30.3033 23.9516 37.6276 14.1148 38.7233Z" fill="white"/>
<path d="M10.39 16.9818C2.5322 14.9057 0.611406 8.21585 0.960641 3.77517C8.58561 0.776278 16.7344 3.83285 21.5073 10.1767C24.825 14.6173 26.9205 20.3268 27.3279 25.3442C25.0579 22.4606 22.2058 20.7881 18.5388 19.4617C15.9778 18.539 13.6495 17.9623 10.39 16.9818Z" fill="white"/>
<path d="M81.9824 9.54296V8.62022C81.9824 8.38954 81.866 8.21652 81.4585 8.15885C80.9347 8.10118 80.0034 7.98584 79.0721 7.98584C76.5692 7.98584 74.9395 8.85091 74.9395 11.6768V27.5363C74.9395 27.8247 75.1723 28.0554 75.4633 28.0554H76.7438C77.0349 28.0554 77.2677 27.8247 77.2677 27.5363V15.3677H81.4585C81.7495 15.3677 81.9824 15.1371 81.9824 14.9064V13.9836C81.9824 13.6953 81.7495 13.5223 81.4585 13.5223H77.2677V11.6768C77.2677 10.1197 77.5587 9.88898 79.0139 9.88898H81.4003C81.8077 9.88898 81.9824 9.77364 81.9824 9.54296ZM90.5968 14.964V13.7529C90.5968 13.4069 90.364 13.3492 90.0148 13.3492C87.803 13.3492 85.9404 13.4069 84.427 14.099C84.136 14.2143 83.9614 14.3873 83.9614 14.7334V27.594C83.9614 27.8824 84.1942 28.113 84.427 28.113H85.824C86.115 28.113 86.2896 27.8247 86.2896 27.594V15.6561C87.2791 15.4254 88.2104 15.3677 90.0148 15.3677C90.5386 15.3677 90.5968 15.2524 90.5968 14.964ZM102.18 27.075V14.5603C102.18 14.2143 102.122 14.0413 101.598 13.926C100.201 13.5799 98.28 13.2916 96.7085 13.2916C92.6922 13.2916 90.8879 15.8291 90.8879 19.8084V21.6539C90.8879 25.6332 92.7505 28.1707 96.7085 28.1707C98.3382 28.1707 100.201 27.8824 101.598 27.5363C102.063 27.5363 102.18 27.421 102.18 27.075ZM99.7934 26.0369C99.0367 26.1522 97.8144 26.3252 96.6502 26.3252C94.031 26.3252 93.1579 24.5374 93.1579 21.7692V19.9238C93.1579 17.0979 93.9728 15.3677 96.6502 15.3677C97.7562 15.3677 99.0367 15.4831 99.7934 15.6561V26.0369ZM121.621 27.5363V17.9629C121.621 15.2524 120.049 13.3492 116.848 13.3492H116.207C114.578 13.3492 113.53 13.6376 112.715 14.272C111.9 13.5223 110.852 13.3492 109.223 13.3492H108.582C105.381 13.3492 103.81 15.2524 103.81 17.9629V27.5363C103.81 27.8247 103.984 28.0554 104.275 28.0554H105.672C105.963 28.0554 106.138 27.8247 106.138 27.5363V17.9629C106.138 15.7138 107.127 15.3677 108.524 15.3677H109.165C110.852 15.3677 111.435 15.6561 111.435 17.1555V27.5363C111.435 27.8247 111.609 28.0554 111.9 28.0554H113.297C113.588 28.0554 113.763 27.8247 113.763 27.5363V17.1555C113.763 15.6561 114.345 15.3677 116.033 15.3677H116.673C118.07 15.3677 119.06 15.7138 119.06 17.9629V27.5363C119.06 27.8247 119.234 28.0554 119.525 28.0554H120.922C121.446 28.113 121.621 27.8247 121.621 27.5363ZM134.717 20.9618V19.5201C134.717 15.7714 132.738 13.3492 128.838 13.3492C124.997 13.3492 122.901 15.7714 122.901 19.5201V21.8846C122.901 26.7866 125.87 28.2284 128.955 28.2284C130.759 28.2284 132.214 28.0554 133.727 27.767C134.135 27.7093 134.251 27.4787 134.251 27.1326V26.3252C134.251 26.0369 134.018 25.9792 133.844 25.9792C133.786 25.9792 133.786 25.9792 133.727 25.9792C132.505 26.1522 130.526 26.2676 128.955 26.2676C126.51 26.2676 125.229 25.1141 125.229 21.9422V21.5962H134.193C134.484 21.5385 134.717 21.3079 134.717 20.9618ZM132.33 19.8084H125.288V19.5777C125.288 16.6942 126.568 15.4254 128.838 15.4254C131.166 15.4254 132.33 16.5788 132.33 19.5777V19.8084ZM154.158 22.3459V14.099C154.158 13.8106 153.925 13.5799 153.634 13.5799H152.353C152.062 13.5799 151.829 13.8106 151.829 14.099V22.3459C151.829 25.2295 150.724 26.2676 148.57 26.2676C147.93 26.2676 147.231 26.0946 146.416 25.9215V14.099C146.416 13.8106 146.183 13.5799 145.892 13.5799H144.554C144.263 13.5799 144.03 13.8106 144.03 14.099V25.9792C143.273 26.1522 142.575 26.3252 141.876 26.3252C139.606 26.3252 138.617 25.2872 138.617 22.4036V14.099C138.617 13.8106 138.384 13.5799 138.093 13.5799H136.812C136.521 13.5799 136.288 13.8106 136.288 14.099V22.3459C136.288 27.0173 138.908 28.2861 141.702 28.2861C143.04 28.2861 144.146 28.0554 145.252 27.6517C146.358 28.0554 147.464 28.2861 148.803 28.2861C151.538 28.2861 154.158 27.0173 154.158 22.3459ZM167.836 21.8269V19.8084C167.836 15.9444 165.799 13.3492 161.899 13.3492C157.999 13.3492 155.962 15.8868 155.962 19.8084V21.8269C155.962 25.6909 157.941 28.2861 161.899 28.2861C165.857 28.2861 167.836 25.6909 167.836 21.8269ZM165.508 21.8269C165.508 24.5374 164.402 26.2676 161.899 26.2676C159.396 26.2676 158.348 24.5374 158.348 21.8269V19.8084C158.348 17.0979 159.454 15.3677 161.899 15.3677C164.402 15.3677 165.508 17.0979 165.508 19.8084V21.8269ZM176.276 14.964V13.7529C176.276 13.4069 176.043 13.3492 175.694 13.3492C173.482 13.3492 171.619 13.4069 170.106 14.099C169.815 14.2143 169.64 14.3873 169.64 14.7334V27.594C169.64 27.8824 169.873 28.113 170.106 28.113H171.503C171.794 28.113 171.969 27.8247 171.969 27.594V15.6561C172.958 15.4254 173.889 15.3677 175.694 15.3677C176.276 15.3677 176.276 15.2524 176.276 14.964ZM188.266 27.767C188.266 27.7093 188.266 27.594 188.208 27.5363L182.271 20.4428L188.15 14.1566C188.208 14.099 188.266 13.9836 188.266 13.8683C188.266 13.6953 188.15 13.5799 187.859 13.5799H185.996C185.705 13.5799 185.647 13.6376 185.472 13.8106L180.117 19.7507V8.73556C180.117 8.44721 179.885 8.21652 179.594 8.21652H178.313C178.022 8.21652 177.789 8.44721 177.789 8.73556V27.5363C177.789 27.8247 178.022 28.0554 178.313 28.0554H179.594C179.885 28.0554 180.117 27.8247 180.117 27.5363V21.1925L185.414 27.7093C185.647 27.9977 185.705 28.0554 186.054 28.0554H187.975C188.208 28.113 188.266 27.94 188.266 27.767Z" fill="white"/>
<path d="M71.0998 27.5357V10.6958C71.0998 10.4074 70.8669 10.1768 70.5759 10.1768H68.1313C67.8402 10.1768 67.6074 10.4074 67.6074 10.6958V27.4781C67.6074 27.7664 67.8402 28.0548 68.1313 28.0548H70.5759C70.8669 28.1125 71.0998 27.8241 71.0998 27.5357Z" fill="white"/>
<path d="M64.5814 27.5363V10.6963C64.5814 10.408 64.3486 10.1773 64.0576 10.1773H61.6129C61.3219 10.1773 61.0891 10.408 61.0891 10.6963V27.4786C61.0891 27.7669 61.3219 28.0553 61.6129 28.0553H64.0576C64.3486 28.113 64.5814 27.8246 64.5814 27.5363ZM62.8352 5.44824C63.8247 5.44824 64.6978 6.25564 64.6978 7.29372C64.6978 8.27412 63.8829 9.13919 62.8352 9.13919C61.7875 9.13919 60.9727 8.33179 60.9727 7.29372C60.9727 6.25564 61.7875 5.44824 62.8352 5.44824ZM69.3543 5.44824C70.3438 5.44824 71.2169 6.25564 71.2169 7.29372C71.2169 8.27412 70.402 9.13919 69.3543 9.13919C68.3066 9.13919 67.4917 8.33179 67.4917 7.29372C67.4917 6.25564 68.3066 5.44824 69.3543 5.44824Z" fill="white"/>
<path d="M58.1205 28.0547V10.292C56.7236 10.292 54.6282 11.2147 54.57 13.0602V25.2288C53.8133 25.3441 52.6492 25.4595 52.0089 25.4595C49.7389 25.4595 49.1568 23.8447 49.1568 21.6532V13.0025C49.0404 10.8687 46.5958 10.292 45.6063 10.3497V21.7109C45.6063 25.8632 47.7017 28.343 52.0089 28.343C52.6492 28.343 53.9879 28.17 54.57 28.0547V28.2854C55.0938 31.7456 50.8448 30.4769 48.5748 30.1885C46.8868 30.1885 45.7227 31.5726 45.4316 33.1297C46.4211 33.4181 49.6807 33.8795 51.9507 34.0525C56.0251 33.9948 58.1205 31.8033 58.1205 28.0547Z" fill="white"/>
</svg>
