<svg width="183" height="42" viewBox="0 0 183 42" fill="none" xmlns="http://www.w3.org/2000/svg">
<path d="M11.7255 33.4749C10.0634 33.4749 8.55236 32.1299 8.55236 30.4861C8.55236 28.8422 9.91228 27.4972 11.7255 27.4972C13.5387 27.4972 14.8986 28.8422 14.8986 30.4861C14.8986 32.1299 13.3876 33.4749 11.7255 33.4749ZM50.7098 17.1858C50.4076 14.7947 48.8965 12.852 46.9322 11.3576L46.1767 10.7598L45.5723 11.507C44.3635 12.852 43.9102 15.243 44.0613 17.0363C44.2124 18.3813 44.6657 19.7263 45.4212 20.7724C44.8168 21.0712 44.0613 21.3701 43.4569 21.669C42.097 22.1173 40.737 22.2668 39.3771 22.2668H0.241763L0.0906611 23.1634C-0.211542 26.0028 0.241763 28.9916 1.45058 31.6816L2.05498 32.7277V32.8771C5.68143 38.8548 12.1788 41.5447 19.2806 41.5447C32.8797 41.5447 44.0613 35.7165 49.3498 23.1634C52.8252 23.3129 56.3005 22.4162 57.9626 19.1285L58.4159 18.3813L57.6604 17.933C55.6961 16.7374 52.9763 16.588 50.7098 17.1858ZM31.2176 14.7947H25.3247V20.6229H31.2176V14.7947ZM31.2176 7.47207H25.3247V13.3003H31.2176V7.47207ZM31.2176 0H25.3247V5.82822H31.2176V0ZM38.4705 14.7947H32.5775V20.6229H38.4705V14.7947ZM16.5608 14.7947H10.6678V20.6229H16.5608V14.7947ZM23.9647 14.7947H18.0718V20.6229H23.9647V14.7947ZM9.30787 14.7947H3.4149V20.6229H9.30787V14.7947ZM23.9647 7.47207H18.0718V13.3003H23.9647V7.47207ZM16.5608 7.47207H10.6678V13.3003H16.5608V7.47207Z" fill="white"/>
<path d="M152.553 29.8881C155.122 27.6465 157.691 25.5543 160.259 23.3127C161.166 22.5655 162.073 21.8183 162.979 20.9217C162.224 20.025 161.166 19.4272 160.108 18.9789C158.144 18.2317 156.18 18.5306 154.215 19.5767C151.798 20.9217 150.74 23.1633 150.891 25.8532C150.891 26.8993 151.193 27.9454 151.798 28.8421C152.251 29.2904 152.402 29.5893 152.553 29.8881ZM155.575 31.9803C156.784 32.4286 158.295 32.4286 159.655 32.1298C160.259 31.8309 162.073 31.0837 162.677 31.2331H162.979C163.433 31.3826 163.735 31.6814 163.886 32.1298C164.339 33.0264 164.188 33.9231 163.281 34.3714L162.979 34.5208C159.655 36.4636 156.18 36.1647 152.855 34.3714C151.344 33.4747 150.136 32.2792 149.229 30.7848L149.078 30.4859C146.962 26.8993 147.265 23.0138 149.682 19.5767C150.438 18.3811 151.647 17.4845 152.855 16.7373L153.309 16.4384C156.482 14.6451 159.806 14.7946 162.979 16.289C164.641 17.1856 166.152 18.3811 167.059 20.025L167.21 20.3239C167.966 21.5194 167.059 22.5655 166.001 23.3127L162.828 26.0027C160.108 28.0948 157.842 30.0376 155.575 31.9803ZM180.205 15.5418H180.507C181.565 15.5418 182.32 16.289 182.32 17.3351C182.32 18.8295 180.96 19.1284 179.752 19.1284C178.241 19.1284 176.73 20.025 175.672 21.0711C174.312 22.4161 173.708 24.0599 173.708 25.8532V34.2219C173.708 35.1186 173.103 36.0152 172.045 36.0152H171.743C170.685 36.0152 170.081 35.268 170.081 34.2219V25.4049C170.081 21.9677 171.743 19.2778 174.463 17.3351C176.427 16.1395 178.241 15.5418 180.205 15.5418ZM136.99 21.37L141.07 17.3351C141.523 17.0362 142.883 15.3923 143.487 15.3923H144.092C144.847 15.5418 145.451 15.9901 145.451 16.8867V17.1856C145.451 17.7834 144.696 18.3811 144.394 18.8295C143.638 19.7261 142.732 20.4733 141.976 21.37L137.745 25.5543L143.185 30.9342L144.696 32.4286L145.3 33.0264C145.451 33.3253 145.603 33.4747 145.603 33.7736V34.2219C145.451 34.9692 144.847 35.5669 144.092 35.5669H143.789C143.185 35.5669 142.581 34.9692 142.127 34.5208C141.372 33.7736 140.465 33.0264 139.71 32.1298L136.99 29.5893V33.7736C136.99 34.6703 136.385 35.5669 135.328 35.5669H135.025C133.968 35.5669 133.363 34.8197 133.363 33.7736V10.7596C133.363 9.86299 133.968 9.11578 135.025 9.11578H135.328C136.385 9.11578 136.99 9.86299 136.99 10.7596V21.37ZM125.808 19.1284C125.355 18.8295 124.297 18.8295 123.693 18.8295C120.822 18.68 118.706 20.3239 117.498 22.8644C117.044 23.761 116.893 24.6577 116.893 25.7038C116.893 28.6926 118.404 30.7848 121.124 31.9803C122.031 32.4286 123.391 32.5781 124.448 32.5781C125.355 32.5781 126.715 31.9803 127.47 31.6814H128.226C128.981 31.8309 129.586 32.2792 129.586 33.1759V33.4747C129.586 35.5669 125.657 36.0152 124.297 36.1647C119.16 36.4636 115.231 33.6242 113.72 28.8421C113.418 27.9454 113.418 27.1982 113.418 26.3015V25.5543C113.418 21.8183 115.231 18.8295 118.555 17.0362C120.066 16.1395 121.728 15.6912 123.542 15.6912H124.297C126.11 15.6912 127.924 16.1395 129.435 17.1856L129.586 17.3351L129.737 17.4845C129.888 17.7834 130.039 18.0823 130.039 18.3811V18.68C130.039 19.5767 129.435 20.025 128.528 20.1744H128.377C127.319 19.8756 126.11 19.2778 125.808 19.1284ZM94.0769 25.5543C94.0769 28.0948 95.4368 30.0376 97.5522 31.3826C98.6099 31.9803 99.8187 32.2792 101.028 32.2792C103.596 32.2792 105.561 30.9342 106.921 28.8421C107.525 27.796 107.827 26.6004 107.827 25.4049C107.827 23.0138 106.618 21.0711 104.654 19.7261C103.596 18.9789 102.236 18.68 101.028 18.68C98.1566 18.68 96.0412 20.1744 94.8324 22.7149C94.0769 23.761 94.0769 24.6577 94.0769 25.5543ZM100.423 15.3923H100.876C104.956 15.3923 107.978 17.3351 109.943 20.7722C110.698 22.1172 111.151 23.6116 111.151 25.2555V26.0027C111.151 29.7387 109.338 32.7275 106.014 34.5208C104.503 35.4175 102.841 35.8658 101.028 35.8658H100.272C96.4945 35.8658 93.4725 34.0725 91.6592 30.7848C90.7526 29.2904 90.2993 27.6465 90.2993 25.8532V25.106C90.2993 21.37 92.1125 18.3811 95.4368 16.5879C97.0989 15.8406 98.6099 15.3923 100.423 15.3923ZM71.1094 25.5543C71.1094 28.2443 72.4693 30.3365 74.8869 31.532C75.7936 31.9803 76.8513 32.2792 78.0601 32.2792C80.7799 32.2792 82.7442 31.0837 84.1041 28.8421C84.7086 27.796 85.0108 26.6004 85.0108 25.4049C85.0108 23.0138 83.953 21.2205 81.9887 19.8756C80.7799 19.1284 79.5711 18.68 78.0601 18.68C75.1891 18.68 73.0737 20.1744 71.8649 22.7149C71.4116 23.761 71.1094 24.6577 71.1094 25.5543ZM85.0108 17.9328V10.6102C85.0108 9.71354 85.6152 8.81689 86.6729 8.81689H86.9751C88.0328 8.81689 88.6372 9.5641 88.6372 10.6102V26.0027C88.6372 29.7387 86.824 32.7275 83.4997 34.5208C81.9887 35.4175 80.3266 35.8658 78.5134 35.8658H77.7579C73.9803 35.8658 70.9583 34.0725 69.1451 30.7848C68.2385 29.2904 67.7852 27.6465 67.7852 25.8532V25.106C67.7852 21.37 69.5984 18.3811 72.9226 16.5879C74.4336 15.6912 76.0958 15.2429 77.909 15.2429H78.6645C80.931 15.3923 83.1975 16.289 85.0108 17.9328Z" fill="white"/>
</svg>
