<svg width="164" height="56" viewBox="0 0 164 56" fill="none" xmlns="http://www.w3.org/2000/svg">
<path d="M22.1847 24.1256L34.5414 29.7352L46.9934 18.8489C47.1843 17.9457 47.2558 17.0662 47.2558 16.1155C47.2558 8.46182 41.0059 2.23431 33.3248 2.23431C28.7208 2.23431 24.4509 4.49238 21.8507 8.27166L19.7754 18.9915L22.1847 24.1256Z" fill="white"/>
<path d="M9.39869 37.151C9.20785 38.0542 9.13629 38.9812 9.13629 39.932C9.13629 47.6094 15.41 53.8369 23.1151 53.8369C27.7428 53.8369 32.0605 51.5551 34.6607 47.752L36.7121 37.0797L33.9689 31.8505L21.5645 26.2172L9.39869 37.151Z" fill="white"/>
<path d="M9.3271 15.854L17.7955 17.8506L19.6561 8.27165C18.5111 7.39219 17.0798 6.91681 15.6008 6.91681C11.9272 6.91681 8.92157 9.88795 8.92157 13.5722C8.92157 14.3565 9.0647 15.1409 9.3271 15.854Z" fill="white"/>
<path d="M8.58765 17.8745C4.81863 19.1104 2.17078 22.7233 2.17078 26.6928C2.17078 30.5672 4.58008 34.0137 8.18212 35.3923L20.0617 24.6962L17.8909 20.0612L8.58765 17.8745Z" fill="white"/>
<path d="M36.8076 47.7521C37.9765 48.6316 39.3839 49.1307 40.839 49.1307C44.5126 49.1307 47.5183 46.1596 47.5183 42.4754C47.5183 41.6672 47.3752 40.8829 47.1128 40.1698L38.6683 38.197L36.8076 47.7521Z" fill="white"/>
<path d="M38.5251 35.9864L47.8284 38.1493C51.6213 36.9134 54.2453 33.3005 54.2453 29.3072C54.2453 25.4567 51.836 21.9864 48.2339 20.6315L36.0681 31.2563L38.5251 35.9864Z" fill="white"/>
<path d="M78.9108 39.3379L80.032 39.2191L80.1036 41.5009C77.1456 41.905 74.617 42.1189 72.5178 42.1189C69.7269 42.1189 67.7469 41.3107 66.5781 39.6944C65.4092 38.0781 64.8367 35.5586 64.8367 32.1596C64.8367 25.3617 67.5561 21.9627 72.9711 21.9627C75.5951 21.9627 77.5511 22.6995 78.8393 24.1495C80.1274 25.5994 80.7715 27.905 80.7715 31.0187L80.6045 33.2293H67.7708C67.7708 35.3685 68.1525 36.961 68.9397 37.9831C69.7269 39.0051 71.0627 39.5281 72.9949 39.5281C74.951 39.5756 76.9071 39.5043 78.9108 39.3379ZM77.8612 30.9474C77.8612 28.5705 77.4796 26.8829 76.7162 25.9084C75.9529 24.9338 74.7124 24.4347 72.9949 24.4347C71.2774 24.4347 69.9654 24.9576 69.1066 25.9797C68.2479 27.0018 67.7946 28.6656 67.7708 30.9474H77.8612Z" fill="white"/>
<path d="M84.8268 41.7622V13.9524H87.737V41.7622H84.8268Z" fill="white"/>
<path d="M106.129 28.2377V37.7691C106.129 38.7437 108.538 38.9338 108.538 38.9338L108.395 41.5009C106.343 41.5009 104.65 41.6673 103.624 40.6927C101.286 41.7148 98.9724 42.1426 96.6347 42.1426C94.8456 42.1426 93.4859 41.6435 92.5555 40.6214C91.6252 39.6231 91.1481 38.1732 91.1481 36.2717C91.1481 34.3939 91.6252 32.9916 92.5794 32.1121C93.5336 31.2326 95.0364 30.6622 97.0879 30.472L103.195 29.9016V28.2377C103.195 26.9304 102.908 25.9797 102.336 25.4092C101.763 24.8387 100.976 24.5535 99.9982 24.5535H92.3409V21.9865H99.8073C102.002 21.9865 103.6 22.4856 104.602 23.5077C105.628 24.506 106.129 26.0985 106.129 28.2377ZM94.1538 36.1291C94.1538 38.506 95.1318 39.6944 97.1118 39.6944C98.877 39.6944 100.618 39.4092 102.312 38.815L103.195 38.506V32.1121L97.4457 32.6588C96.2769 32.7539 95.4419 33.0866 94.9171 33.6571C94.3923 34.2275 94.1538 35.0595 94.1538 36.1291Z" fill="white"/>
<path d="M117.507 24.5772C114.693 24.5772 113.261 25.5517 113.261 27.5246C113.261 28.4278 113.595 29.0696 114.239 29.4499C114.883 29.8302 116.362 30.2105 118.676 30.6145C120.99 31.0186 122.612 31.5653 123.566 32.3022C124.521 33.0152 124.998 34.3701 124.998 36.3667C124.998 38.3633 124.354 39.8132 123.066 40.7402C121.777 41.6672 119.917 42.1425 117.436 42.1425C115.838 42.1425 110.47 41.5483 110.47 41.5483L110.637 39.0288C113.715 39.314 115.957 39.5517 117.46 39.5517C118.963 39.5517 120.108 39.314 120.895 38.8387C121.682 38.3633 122.088 37.5551 122.088 36.438C122.088 35.3208 121.754 34.5602 121.086 34.1561C120.418 33.7521 118.939 33.3718 116.649 33.0152C114.359 32.6587 112.737 32.1358 111.782 31.4227C110.828 30.7334 110.351 29.4261 110.351 27.5483C110.351 25.6706 111.019 24.2682 112.355 23.365C113.691 22.4617 115.361 22.0101 117.34 22.0101C118.915 22.0101 124.401 22.4142 124.401 22.4142V24.9575C121.515 24.7911 119.153 24.5772 117.507 24.5772Z" fill="white"/>
<path d="M139.072 24.91H132.894V34.1799C132.894 36.3904 133.061 37.8641 133.371 38.5534C133.705 39.2427 134.468 39.5993 135.685 39.5993L139.144 39.3616L139.334 41.7623C137.593 42.0475 136.281 42.1901 135.375 42.1901C133.347 42.1901 131.963 41.691 131.176 40.7164C130.389 39.7419 130.007 37.8641 130.007 35.1069V24.91H127.24V22.3905H130.007V16.4482H132.894V22.3667H139.072V24.91Z" fill="white"/>
<path d="M143.127 17.9933V14.6418H146.037V18.0171L143.127 17.9933ZM143.127 41.7624V22.3906H146.037V41.7624H143.127Z" fill="white"/>
<path d="M158.68 21.9865C159.539 21.9865 160.994 22.1528 163.046 22.4618L163.976 22.5807L163.857 24.9338C161.782 24.6961 160.255 24.5773 159.277 24.5773C157.082 24.5773 155.579 25.1002 154.792 26.146C154.005 27.1919 153.599 29.1409 153.599 31.9695C153.599 34.798 153.957 36.7708 154.697 37.888C155.436 39.0051 156.963 39.5518 159.301 39.5518L163.881 39.1953L164 41.596C161.591 41.9525 159.778 42.1426 158.585 42.1426C155.555 42.1426 153.456 41.3583 152.311 39.8133C151.166 38.2683 150.57 35.6537 150.57 31.9695C150.57 28.2853 151.19 25.6944 152.431 24.2208C153.695 22.7471 155.77 21.9865 158.68 21.9865Z" fill="white"/>
</svg>
