<svg width="106" height="47" viewBox="0 0 106 47" fill="none" xmlns="http://www.w3.org/2000/svg">
<path d="M70.0759 18.402C68.1101 18.402 66.6462 19.3489 66.6462 21.6278C66.6462 23.3448 67.6111 24.537 69.9699 24.537C71.9694 24.537 73.3276 23.381 73.3276 21.5565C73.3276 19.4891 72.1123 18.402 70.0759 18.402ZM66.1458 34.4935C65.6804 35.0534 65.2168 35.6488 65.2168 36.3507C65.2168 37.752 67.0382 38.1738 69.5403 38.1738C71.6125 38.1738 74.4357 38.0311 74.4357 36.1408C74.4357 35.0172 73.0775 34.948 71.3614 34.8425L66.1458 34.4935ZM76.7221 18.5078C77.3641 19.3141 78.0441 20.4363 78.0441 22.0485C78.0441 25.9393 74.9354 28.2176 70.4342 28.2176C69.2895 28.2176 68.2534 28.0777 67.6111 27.9027L66.4313 29.7599L69.9326 29.97C76.1149 30.3566 79.7581 30.5324 79.7581 35.1926C79.7581 39.2247 76.1503 41.5019 69.9326 41.5019C63.4656 41.5019 61 39.8893 61 37.1204C61 35.543 61.7147 34.7033 62.9654 33.5445C61.786 33.0556 61.3934 32.1797 61.3934 31.2325C61.3934 30.4607 61.786 29.7602 62.4302 29.0935C63.0729 28.4285 63.7873 27.7617 64.645 26.9906C62.8945 26.1492 61.5718 24.3264 61.5718 21.7319C61.5718 17.7015 64.2878 14.9333 69.7535 14.9333C71.2905 14.9333 72.2198 15.0718 73.0417 15.2837H80.0099V18.2621L76.7221 18.5078ZM86.2961 12.1378C84.259 12.1378 83.0799 10.9801 83.0799 8.9813C83.0799 6.98525 84.2586 5.89746 86.2961 5.89746C88.3683 5.89746 89.5477 6.98525 89.5477 8.9813C89.5477 10.9801 88.3686 12.1378 86.2961 12.1378ZM81.6859 33.2034V30.4355L83.5088 30.1909C84.0093 30.1203 84.0802 30.0155 84.0802 29.4887V19.1828C84.0802 18.7983 83.9734 18.5516 83.6149 18.4475L81.6859 17.7808L82.0786 14.9423H89.4757V29.4887C89.4757 30.0503 89.5101 30.1203 90.0478 30.1913L91.87 30.4359V33.2034H81.6859ZM106 31.8445C104.463 32.5801 102.212 33.2462 100.175 33.2462C95.9227 33.2462 94.3155 31.5654 94.3155 27.6022V18.4192C94.3155 18.2091 94.3155 18.0688 94.0286 18.0688H91.5279V14.9481C94.6731 14.5967 95.9227 13.0544 96.3158 9.23352H99.7107V14.2125C99.7107 14.4571 99.7107 14.5629 99.9969 14.5629H105.034V18.0681H99.7107V26.4455C99.7107 28.5136 100.212 29.3192 102.14 29.3192C103.142 29.3192 104.177 29.0745 105.034 28.7589L106 31.8441" fill="white"/>
<path d="M46.272 21.2439L25.6806 0.879998C25.3986 0.60101 25.0638 0.379699 24.6953 0.228707C24.3268 0.0777155 23.9318 0 23.5329 0C23.1341 0 22.7391 0.0777155 22.3706 0.228707C22.0021 0.379699 21.6673 0.60101 21.3853 0.879998L17.1095 5.10925L22.5336 10.4733C23.1712 10.2589 23.8567 10.2253 24.5126 10.3764C25.1685 10.5275 25.7684 10.8573 26.2445 11.3284C26.7232 11.8024 27.0574 12.4 27.2089 13.0529C27.3605 13.7059 27.3233 14.3878 27.1016 15.0209L32.3282 20.191C33.5929 19.7602 35.0524 20.039 36.0622 21.0394C36.3979 21.3713 36.6642 21.7652 36.8459 22.1989C37.0276 22.6325 37.1211 23.0973 37.1211 23.5667C37.1211 24.0361 37.0276 24.5009 36.8459 24.9345C36.6642 25.3682 36.3979 25.7622 36.0622 26.094C35.4716 26.6787 34.6943 27.0428 33.8627 27.1245C33.0311 27.2062 32.1966 27.0004 31.5012 26.542C30.8059 26.0836 30.2926 25.4011 30.0488 24.6106C29.8049 23.8201 29.8457 22.9704 30.164 22.2062L25.2893 17.385L25.2888 30.0728C25.6422 30.2456 25.965 30.4739 26.2445 30.7488C26.5802 31.0807 26.8465 31.4747 27.0282 31.9085C27.2099 32.3422 27.3034 32.807 27.3034 33.2765C27.3034 33.7459 27.2099 34.2108 27.0282 34.6445C26.8465 35.0782 26.5802 35.4723 26.2445 35.8042C24.8324 37.2008 22.5438 37.2008 21.1339 35.8042C20.7126 35.3879 20.402 34.8751 20.2294 34.3115C20.0569 33.7478 20.0279 33.1507 20.1449 32.5732C20.262 31.9958 20.5215 31.4559 20.9004 31.0016C21.2793 30.5473 21.7658 30.1926 22.3167 29.969V17.1631C21.8735 16.9841 21.4713 16.7187 21.1339 16.3829C20.0644 15.3264 19.8072 13.7744 20.3552 12.4754L15.0086 7.18666L0.889889 21.1493C0.60776 21.4283 0.383963 21.7596 0.231275 22.1241C0.0785875 22.4887 0 22.8794 0 23.274C0 23.6686 0.0785875 24.0594 0.231275 24.4239C0.383963 24.7885 0.60776 25.1197 0.889889 25.3987L21.4814 45.7631C22.051 46.3263 22.8235 46.6427 23.629 46.6427C24.4345 46.6427 25.207 46.3263 25.7766 45.7631L46.272 25.4937C46.8416 24.93 47.1616 24.1657 47.1616 23.3688C47.1616 22.5719 46.8416 21.8076 46.272 21.2439Z" fill="white"/>
</svg>
