<svg width="236" height="38" viewBox="0 0 236 38" fill="none" xmlns="http://www.w3.org/2000/svg">
<path d="M66.7667 20.4965C66.5008 27.1283 61.1907 32.2923 54.5801 32.2923C47.608 32.2923 42.4267 26.7399 42.4267 20.0386C42.4267 13.2759 48.0401 7.71942 54.8792 7.71942C57.9664 7.71942 60.9871 9.02779 63.5466 11.3788L61.5563 13.7952C59.5993 12.127 57.2393 10.9863 54.8834 10.9863C49.8683 10.9863 45.7549 15.0381 45.7549 20.0345C45.7549 25.1003 49.6398 29.0213 54.5884 29.0213C59.0384 29.0213 62.5244 25.8199 63.2225 21.7026H53.13V18.7956H66.775V20.4965H66.7667Z" fill="white"/>
<path d="M78.3509 18.8978H76.4894C74.4368 18.8978 72.7707 20.5374 72.7707 22.5572V32.096H69.4508V15.7618H72.1724V17.1356C73.0698 16.2525 74.495 15.7618 76.0905 15.7618H79.6763L78.3509 18.8978Z" fill="white"/>
<path d="M96.4459 32.0961H93.6247V30.0395C91.4433 32.1369 87.9988 33.1427 84.5127 31.6381C81.9283 30.5219 80.0046 28.2036 79.4935 25.4683C78.5046 20.1858 82.6347 15.5002 87.9115 15.5002C90.1345 15.5002 92.1289 16.3833 93.5873 17.8185V15.7619H96.4418V32.0961H96.4459ZM93.0471 25.1044C93.8324 21.7845 91.2771 18.767 87.9448 18.767C85.0571 18.767 82.7303 21.0853 82.7303 23.8983C82.7303 27.0752 85.5681 29.5365 88.8713 28.9805C90.9073 28.637 92.5818 27.0834 93.0471 25.1044Z" fill="white"/>
<path d="M103.135 14.8458V15.7617H108.416V18.636H103.135V32.0959H99.8488V14.944C99.8488 11.35 102.471 9.22803 105.757 9.22803H109.742L108.412 12.2986H105.757C104.299 12.2986 103.135 13.4393 103.135 14.8458Z" fill="white"/>
<path d="M126.013 32.0961H123.192V30.0395C121.01 32.1369 117.566 33.1427 114.08 31.6381C111.495 30.5219 109.572 28.2036 109.061 25.4683C108.072 20.1858 112.202 15.5002 117.479 15.5002C119.701 15.5002 121.696 16.3833 123.154 17.8185V15.7619H126.009V32.0961H126.013ZM122.618 25.1044C123.404 21.7845 120.848 18.767 117.516 18.767C114.628 18.767 112.301 21.0853 112.301 23.8983C112.301 27.0752 115.139 29.5365 118.443 28.9805C120.478 28.637 122.149 27.0834 122.618 25.1044Z" fill="white"/>
<path d="M143.746 22.4263V32.0959H140.427V22.4263C140.427 20.4024 138.731 18.7669 136.708 18.7669C134.618 18.7669 132.956 20.4024 132.956 22.4263V32.0959H129.636V15.7617H132.391V17.1682C133.587 16.1215 135.179 15.5042 136.841 15.5042C140.692 15.5001 143.746 18.6034 143.746 22.4263Z" fill="white"/>
<path d="M163.271 32.0961H160.45V30.0395C158.268 32.1369 154.824 33.1427 151.338 31.6381C148.753 30.5219 146.829 28.2036 146.318 25.4683C145.33 20.1858 149.46 15.5002 154.736 15.5002C156.959 15.5002 158.954 16.3833 160.412 17.8185V15.7619H163.267V32.0961H163.271ZM159.876 25.1044C160.661 21.7845 158.106 18.767 154.774 18.767C151.886 18.767 149.559 21.0853 149.559 23.8983C149.559 27.0752 152.397 29.5365 155.7 28.9805C157.736 28.637 159.407 27.0834 159.876 25.1044Z" fill="white"/>
<path d="M185.978 32.096H173.455V7.77667H176.795V28.776H185.978V32.096Z" fill="white"/>
<path d="M203.745 32.0959H200.907V30.0271C199.436 31.4417 197.4 32.3617 195.165 32.3617C190.391 32.3617 186.547 28.551 186.547 23.8491C186.547 19.2166 190.386 15.4019 195.165 15.4019C197.404 15.4019 199.407 16.2892 200.874 17.7365V15.6677H203.745V32.0959ZM200.471 23.845C200.471 21.0197 198.131 18.6851 195.194 18.6851C192.289 18.6851 189.95 21.0197 189.95 23.845C189.95 26.7357 192.289 29.0376 195.194 29.0376C198.135 29.0376 200.471 26.7398 200.471 23.845Z" fill="white"/>
<path d="M223.747 23.8777C223.747 28.5428 219.875 32.3575 215.134 32.3575C212.894 32.3575 210.825 31.4376 209.354 30.0229V32.0918H206.549V9.09308H209.857V17.3726C211.228 16.1583 213.098 15.4019 215.134 15.4019C219.875 15.4019 223.747 19.1798 223.747 23.8777ZM220.34 23.8777C220.34 21.0197 217.967 18.7178 215.096 18.7178C212.225 18.7178 209.853 21.0197 209.853 23.8777C209.853 26.7029 212.225 29.0049 215.096 29.0049C217.967 29.0049 220.34 26.707 220.34 23.8777Z" fill="white"/>
<path d="M235.169 16.8452L233.698 19.2453C232.996 18.82 231.795 18.1618 230.457 18.1618C229.19 18.1618 228.052 18.7873 228.052 19.8054C228.052 20.9216 229.352 21.3509 230.989 21.9397C233.661 22.8596 236 24.6341 236 27.3285C236 30.0557 233.628 32.3576 230.225 32.3576C228.155 32.3576 226.082 31.5358 224.682 30.6812L225.987 27.9541C226.955 28.5142 228.758 29.2011 230.129 29.2011C231.799 29.2011 232.535 28.2158 232.535 27.2631C232.535 26.1469 231.5 25.5213 229.194 24.6341C227.524 23.9758 224.819 22.8923 224.819 19.969C224.819 17.2418 227.191 15.4019 230.362 15.4019C232.232 15.4019 233.765 16.0234 235.169 16.8452Z" fill="white"/>
<path d="M35.4962 16.7635C35.438 16.1257 35.3258 15.3897 35.1098 14.5761C34.8937 13.7665 34.5738 12.8793 34.1126 11.9552C33.6431 11.0394 33.0323 10.0826 32.2428 9.1586C31.9354 8.79471 31.5988 8.43899 31.2332 8.08737C31.7775 5.96127 30.5725 4.12137 30.5725 4.12137C28.495 3.99462 27.1737 4.75511 26.6834 5.10674C26.6003 5.07403 26.5214 5.03723 26.4383 5.00452C26.0851 4.86142 25.7195 4.73058 25.3455 4.6161C24.9716 4.50161 24.5893 4.39531 24.1987 4.30127C23.8082 4.21132 23.4093 4.13363 23.0063 4.0723C22.9356 4.06004 22.865 4.05186 22.7943 4.04368C21.8886 1.1898 19.2834 0 19.2834 0C16.3832 1.81128 15.8306 4.34624 15.8306 4.34624C15.8306 4.34624 15.8181 4.40349 15.8015 4.49753C15.6394 4.5425 15.4815 4.58748 15.3195 4.63654C15.0951 4.70196 14.8791 4.78373 14.6547 4.86142C14.4345 4.94728 14.2143 5.02905 13.9941 5.12309C13.5578 5.30708 13.1215 5.5156 12.6977 5.74866C12.2863 5.97762 11.8833 6.22703 11.4886 6.49688C11.4304 6.47235 11.3889 6.4519 11.3889 6.4519C7.37098 4.94319 3.80183 6.75855 3.80183 6.75855C3.47774 10.9658 5.40566 13.6152 5.78792 14.0936C5.69235 14.3553 5.6051 14.617 5.522 14.8827C5.22284 15.8354 5.00262 16.8126 4.86551 17.8266C4.84473 17.9697 4.82811 18.1168 4.81149 18.264C1.10108 20.0671 0 23.7674 0 23.7674C3.09963 27.2754 6.71033 27.4921 6.71033 27.4921C6.71448 27.4881 6.71864 27.4881 6.71864 27.484C7.17984 28.2894 7.71169 29.0581 8.30585 29.7736C8.55515 30.0721 8.82107 30.3624 9.09115 30.6404C7.96099 33.8173 9.24904 36.4668 9.24904 36.4668C12.6977 36.5935 14.9663 34.9826 15.44 34.6105C15.7849 34.725 16.1297 34.8272 16.4829 34.9172C17.5424 35.187 18.6269 35.3424 19.7113 35.3914C19.9814 35.4037 20.2515 35.4078 20.5257 35.4078H20.6587L20.7459 35.4037L20.9163 35.3996L21.0866 35.3914L21.0908 35.3955C22.7154 37.677 25.574 38 25.574 38C27.6058 35.8903 27.7222 33.8009 27.7222 33.3471C27.7222 33.3471 27.7222 33.3307 27.7222 33.3185C27.7222 33.2817 27.7222 33.2531 27.7222 33.2531C27.7222 33.2204 27.718 33.1917 27.718 33.1549C28.146 32.8606 28.5532 32.5457 28.9354 32.2064C29.7498 31.4827 30.4603 30.6568 31.0503 29.7695C31.1044 29.6878 31.1584 29.6019 31.2124 29.516C33.5143 29.6469 35.1347 28.1136 35.1347 28.1136C34.7524 25.7545 33.3854 24.6056 33.1029 24.3848C33.1029 24.3848 33.0904 24.3766 33.0738 24.3643C33.0572 24.3521 33.0489 24.3439 33.0489 24.3439C33.0323 24.3357 33.0157 24.3234 32.999 24.3112C33.0115 24.1681 33.024 24.0291 33.0323 23.8859C33.0489 23.6325 33.0572 23.379 33.0572 23.1255V22.9374V22.8433V22.7943C33.0572 22.7289 33.0572 22.7534 33.0572 22.7289L33.0489 22.5694L33.0364 22.3568C33.0323 22.2832 33.0281 22.2178 33.0198 22.1524C33.0157 22.0869 33.0073 22.0215 32.999 21.9561L32.9741 21.7598L32.945 21.5636C32.9076 21.306 32.8536 21.0484 32.7954 20.7908C32.5544 19.7728 32.1514 18.8078 31.6196 17.941C31.0877 17.0742 30.4229 16.3056 29.6792 15.6596C28.9313 15.0095 28.0961 14.4902 27.2194 14.1018C26.3427 13.7134 25.4203 13.464 24.5021 13.3495C24.045 13.2922 23.5838 13.2677 23.1309 13.2718L22.9605 13.2759H22.919C22.9065 13.2759 22.8567 13.2759 22.8608 13.2759L22.7902 13.28L22.624 13.2922C22.5617 13.2963 22.4952 13.3004 22.437 13.3086C22.2043 13.329 21.9717 13.3617 21.7473 13.4067C20.8373 13.5743 19.9773 13.8974 19.2169 14.343C18.4607 14.7887 17.8 15.3488 17.264 15.9785C16.728 16.6122 16.3125 17.3114 16.0258 18.0351C15.7392 18.7588 15.5813 19.507 15.5356 20.2348C15.5231 20.4147 15.5189 20.5987 15.5231 20.7745C15.5231 20.8195 15.5231 20.8644 15.5272 20.9094L15.5314 21.0566C15.5397 21.1425 15.5439 21.2324 15.5522 21.3183C15.5896 21.6862 15.656 22.0379 15.7558 22.3813C15.9552 23.06 16.2751 23.6774 16.674 24.2008C17.0688 24.7241 17.5424 25.1575 18.0452 25.4969C18.5479 25.8362 19.0839 26.0775 19.6158 26.2288C20.1476 26.3841 20.6753 26.4495 21.1739 26.4495C21.2362 26.4495 21.2985 26.4495 21.3609 26.4454C21.3941 26.4454 21.4274 26.4414 21.4606 26.4414C21.4938 26.4414 21.5271 26.4373 21.5603 26.4373C21.6143 26.4332 21.6642 26.425 21.7182 26.4209C21.7307 26.4209 21.7473 26.4168 21.7639 26.4168L21.8138 26.4086C21.847 26.4046 21.8761 26.4005 21.9093 26.3964C21.9758 26.3882 22.0298 26.3759 22.0921 26.3637C22.1503 26.3514 22.2085 26.3432 22.2667 26.3269C22.383 26.3023 22.491 26.2696 22.5991 26.2328C22.8151 26.1633 23.0187 26.0775 23.2098 25.9834C23.401 25.8853 23.5755 25.779 23.7375 25.6686C23.7832 25.6359 23.8289 25.6032 23.8746 25.5664C24.0492 25.4315 24.0782 25.1821 23.937 25.0144C23.8165 24.8672 23.6046 24.8304 23.4384 24.9204C23.3968 24.9408 23.3553 24.9654 23.3137 24.9858C23.1683 25.0553 23.0187 25.1166 22.8567 25.1698C22.6946 25.2189 22.5284 25.2597 22.3539 25.2924C22.2667 25.3047 22.1794 25.317 22.088 25.3252C22.0423 25.3292 21.9966 25.3333 21.955 25.3333C21.9093 25.3333 21.8636 25.3374 21.8221 25.3374C21.7805 25.3374 21.7348 25.3374 21.6933 25.3333C21.6393 25.3292 21.5852 25.3292 21.5312 25.3252C21.5312 25.3252 21.5021 25.3252 21.5271 25.3252H21.5105L21.4731 25.3211C21.4481 25.317 21.4232 25.317 21.4024 25.3129C21.3526 25.3088 21.3069 25.3006 21.257 25.2965C20.8664 25.2434 20.4717 25.133 20.0936 24.9613C19.7113 24.7936 19.3457 24.5565 19.0174 24.2662C18.6892 23.9759 18.4025 23.6243 18.1781 23.2277C17.9538 22.8311 17.7959 22.3936 17.7211 21.9316C17.6837 21.7026 17.6671 21.4614 17.6754 21.2283C17.6795 21.1629 17.6795 21.1016 17.6837 21.0362C17.6837 21.0525 17.6837 21.028 17.6837 21.0239V20.9994L17.6878 20.9503C17.692 20.9176 17.692 20.889 17.6962 20.8563C17.7086 20.7295 17.7294 20.6028 17.7502 20.476C17.9288 19.4702 18.4399 18.4889 19.2335 17.7448C19.4329 17.5608 19.6449 17.385 19.8734 17.2337C20.1019 17.0783 20.3429 16.9434 20.5922 16.8289C20.8456 16.7144 21.1074 16.6204 21.3775 16.5509C21.6476 16.4814 21.9259 16.4323 22.2043 16.4078C22.3456 16.3955 22.4869 16.3914 22.6281 16.3914C22.6655 16.3914 22.6946 16.3914 22.7237 16.3914L22.8401 16.3955L22.9107 16.3996C22.9398 16.3996 22.9107 16.3996 22.9231 16.3996H22.9522L23.0686 16.4078C23.3719 16.4323 23.6752 16.4732 23.9744 16.5427C24.5727 16.6736 25.1544 16.8903 25.6987 17.1846C26.7831 17.7775 27.7097 18.7015 28.2748 19.8177C28.5615 20.3738 28.7609 20.9707 28.8606 21.5881C28.8856 21.7435 28.9022 21.8989 28.9147 22.0542L28.923 22.1728L28.9271 22.2914C28.9313 22.3323 28.9313 22.3691 28.9313 22.4099C28.9313 22.4508 28.9354 22.4917 28.9313 22.5203V22.6226L28.9271 22.737C28.923 22.8147 28.9188 22.9374 28.9147 23.0151C28.9022 23.1868 28.8856 23.3544 28.8648 23.5261C28.844 23.6938 28.8149 23.8614 28.7859 24.0291C28.7526 24.1967 28.7152 24.3602 28.6737 24.5238C28.5906 24.8509 28.4825 25.178 28.3537 25.4928C28.1003 26.1265 27.7596 26.7276 27.3524 27.2836C26.5338 28.3917 25.4162 29.2952 24.1447 29.8677C23.509 30.1498 22.8359 30.3583 22.1503 30.4687C21.8055 30.5259 21.4564 30.5586 21.1074 30.5709L21.0409 30.575H20.9869H20.8747H20.7044H20.6171C20.6628 30.575 20.6088 30.575 20.613 30.575H20.5797C20.3928 30.5709 20.2058 30.5627 20.0188 30.5464C19.2709 30.4932 18.5355 30.3624 17.8208 30.158C17.1061 29.9535 16.4123 29.6796 15.7558 29.3361C14.4428 28.6451 13.2711 27.7007 12.3528 26.5599C11.8916 25.9916 11.4886 25.3824 11.1562 24.7405C10.8238 24.0986 10.562 23.4239 10.3667 22.737C10.1756 22.0461 10.0551 21.3428 10.0094 20.6314L10.0011 20.4964L9.99694 20.4637V20.4351V20.3779L9.99278 20.2593V20.2307V20.1898V20.108L9.98863 19.9445V19.9118C9.98863 19.9159 9.98863 19.9159 9.98863 19.8995V19.8341C9.98863 19.7482 9.99278 19.6624 9.99278 19.5724C10.0052 19.2208 10.0343 18.861 10.0842 18.5012C10.1299 18.1414 10.1922 17.7775 10.267 17.4177C10.3418 17.0579 10.4332 16.7022 10.5329 16.3546C10.7365 15.6555 10.99 14.9768 11.2933 14.3348C11.8958 13.051 12.6852 11.9184 13.6367 11.0108C13.8736 10.7818 14.1187 10.5651 14.3763 10.3648C14.6298 10.1644 14.8957 9.97633 15.1699 9.80052C15.44 9.6247 15.7225 9.46116 16.0134 9.31397C16.1547 9.23628 16.3042 9.17086 16.4497 9.10136C16.5244 9.06865 16.5992 9.03594 16.674 9.00323C16.7488 8.97052 16.8236 8.93781 16.8984 8.90919C17.1976 8.78244 17.5092 8.68022 17.8208 8.5821C17.8998 8.55756 17.9787 8.53712 18.0576 8.51259C18.1366 8.48806 18.2155 8.4717 18.2945 8.44717C18.4524 8.40219 18.6144 8.3654 18.7723 8.3286C18.8512 8.30816 18.9343 8.2918 19.0133 8.27545C19.0922 8.25909 19.1753 8.24274 19.2543 8.22638C19.3374 8.21003 19.4163 8.19776 19.4994 8.18141L19.6199 8.16096L19.7404 8.14461C19.8235 8.13234 19.9025 8.12008 19.9856 8.10781C20.077 8.09146 20.1684 8.08737 20.2598 8.07101C20.3346 8.06284 20.4592 8.04648 20.534 8.0383C20.5922 8.03421 20.6504 8.02604 20.7085 8.02195L20.8249 8.00968L20.883 8.0056L20.9495 8.00151C21.0409 7.99742 21.1323 7.98924 21.2279 7.98515L21.365 7.97697C21.365 7.97697 21.4149 7.97697 21.3733 7.97697H21.4024L21.4606 7.97289C21.5395 7.9688 21.6185 7.96471 21.6974 7.96062C22.0091 7.95244 22.3207 7.95244 22.6323 7.96062C23.2514 7.98515 23.858 8.05057 24.448 8.16096C25.6281 8.37766 26.7374 8.74973 27.743 9.24037C28.7485 9.72283 29.6501 10.3198 30.4312 10.9658C30.4811 11.0067 30.5268 11.0476 30.5767 11.0884C30.6224 11.1293 30.6722 11.1702 30.7179 11.2111C30.8135 11.2929 30.9049 11.3787 30.9963 11.4605C31.0877 11.5423 31.175 11.6281 31.2622 11.714C31.3495 11.7999 31.4368 11.8857 31.5157 11.9716C31.8481 12.3191 32.1556 12.6667 32.4298 13.0183C32.9866 13.7215 33.4312 14.433 33.7843 15.1035C33.8051 15.1444 33.83 15.1853 33.8508 15.2303C33.8716 15.2711 33.8924 15.312 33.9131 15.357C33.9547 15.4388 33.9962 15.5206 34.0336 15.6023C34.071 15.6841 34.1126 15.7659 34.1458 15.8436C34.1832 15.9253 34.2164 16.003 34.2497 16.0807C34.3826 16.3955 34.5031 16.694 34.5987 16.9761C34.7608 17.43 34.8812 17.8429 34.9727 18.2027C35.0101 18.3458 35.1472 18.4399 35.2967 18.4276C35.4505 18.4153 35.571 18.2886 35.5751 18.1373C35.5502 17.7284 35.5419 17.2787 35.4962 16.7635Z" fill="white"/>
</svg>
