<svg width="250" height="56" viewBox="0 0 250 56" fill="none" xmlns="http://www.w3.org/2000/svg">
<path d="M30.4535 56C26.7021 56 22.9007 56 19.1493 56C17.4987 56 16.2483 55.4303 15.2479 54.2433C10.4962 48.6409 5.74444 43.0386 0.9927 37.4362C0.0923712 36.3917 -0.207739 35.2522 0.142389 33.8754C1.84301 26.8961 3.54363 19.8694 5.24425 12.8902C5.59438 11.4184 6.44469 10.4214 7.94524 9.75668C14.6977 6.7181 21.4502 3.63205 28.2527 0.498516C29.7032 -0.166172 31.0537 -0.166172 32.5042 0.498516C39.2567 3.58457 46.0092 6.67062 52.8116 9.7092C54.3122 10.3739 55.2125 11.4184 55.5626 12.9377C57.2132 19.9644 58.9139 26.9436 60.6645 33.9228C60.9646 35.2048 60.6645 36.3442 59.8142 37.3412C55.0625 42.9436 50.3107 48.546 45.609 54.1484C44.5586 55.3828 43.3082 55.9525 41.6576 55.9525C37.9062 55.9525 34.1548 56 30.4535 56ZM29.4531 11.6558C29.4531 11.6558 29.4031 11.6558 29.4531 11.6558C29.4031 11.8457 29.4531 12.0831 29.4031 12.2255C29.153 12.6528 29.253 13.4125 28.5528 13.5074C24.8014 13.9347 21.5502 15.4065 18.7992 17.9228C18.6992 18.0178 18.5491 18.2552 18.3991 18.2077C17.9489 17.9228 17.3487 18.1128 16.8985 17.6855C16.3483 17.1632 15.7481 16.6884 15.2479 16.1187C14.9478 15.7864 14.6477 15.5015 14.2475 15.3116C13.6473 14.9792 12.9471 15.0742 12.5469 15.549C12.1468 16.0237 12.1968 16.6884 12.697 17.1632C12.9971 17.4955 13.3972 17.6855 13.7974 17.9228C14.4976 18.3027 15.1979 18.6825 15.7981 19.2047C16.3483 19.632 16.5984 20.4866 16.3983 20.819C14.4476 23.8576 13.6473 27.181 14.0475 30.7418C14.0475 30.8843 14.1475 31.1217 13.9975 31.2166C13.3972 31.549 12.9471 32.0712 12.1968 32.0712C11.4465 32.0712 10.7463 32.2136 9.99599 32.2611C9.64586 32.3086 9.24572 32.3561 8.94561 32.4985C8.39541 32.7834 8.0953 33.3056 8.19533 33.8279C8.29537 34.3976 8.84557 34.73 9.49581 34.7774C9.99599 34.7774 10.4962 34.5875 10.9463 34.3976C11.6966 34.1128 12.4469 33.8754 13.2472 33.6855C13.8974 33.543 14.8478 33.8754 14.9978 34.3027C16.2983 37.6261 18.5491 40.2849 21.7003 42.184C21.8503 42.2789 22.1004 42.3264 22.0504 42.5163C21.9003 43.181 22.1004 43.8457 21.6002 44.4629C21.1501 44.9852 20.85 45.5549 20.4498 46.1246C20.1997 46.457 19.9996 46.8368 19.8996 47.2641C19.7996 47.8813 20.0497 48.3561 20.5999 48.5935C21.1501 48.8309 21.7503 48.6409 22.1504 48.1187C22.4505 47.7389 22.6006 47.2641 22.7507 46.7893C23.0007 46.0772 23.2008 45.365 23.5509 44.7003C23.9011 44.0356 24.7014 43.6083 25.2015 43.7507C28.7528 44.8902 32.2541 44.8902 35.8054 43.7507C35.9555 43.7033 36.2056 43.5608 36.3056 43.7033C36.6557 44.1306 37.306 44.273 37.506 44.8902C37.7061 45.5074 37.9562 46.0772 38.1563 46.6944C38.3063 47.1217 38.4564 47.549 38.7065 47.9763C39.1066 48.546 39.7569 48.7834 40.3571 48.546C40.9573 48.3086 41.2074 47.6914 41.0073 47.0267C40.9073 46.5994 40.6072 46.2196 40.3571 45.8872C39.8569 45.2225 39.4067 44.5579 39.0566 43.7982C38.8065 43.2285 38.9066 42.4214 39.2567 42.184C42.4579 40.2374 44.7087 37.5312 46.0092 34.1128C46.0592 33.9703 46.1092 33.8279 46.3093 33.7329C47.1596 33.4955 48.0099 33.5905 48.8102 33.9228C49.5604 34.2077 50.3107 34.5401 51.111 34.6825C51.8613 34.8249 52.5615 34.4451 52.7116 33.8279C52.9117 33.2107 52.4615 32.5935 51.7112 32.3561C51.2611 32.2136 50.8109 32.1662 50.3607 32.1662C49.6105 32.1187 48.8602 32.0712 48.1099 31.8813C47.5097 31.7389 46.7594 31.0742 46.8094 30.7418C47.2096 27.181 46.4093 23.8576 44.4586 20.819C44.3586 20.6766 44.1585 20.4866 44.2585 20.3442C44.6587 19.8694 44.7087 19.2047 45.3589 18.8724C46.0092 18.5401 46.5594 18.1602 47.2096 17.7804C47.5597 17.5905 47.9098 17.3531 48.21 17.0682C48.6601 16.5935 48.7101 15.9288 48.31 15.5015C47.9599 15.0742 47.2596 14.9317 46.6594 15.2641C46.2092 15.5015 45.8591 15.8338 45.509 16.2136C45.0088 16.7359 44.4586 17.2582 43.8584 17.7329C43.1081 18.3027 42.2578 18.2552 41.6075 17.6855C39.0066 15.4065 35.9555 14.0772 32.4542 13.6024C32.2541 13.5549 31.954 13.6499 31.904 13.4599C31.804 12.9377 31.3038 12.5104 31.3538 11.8932C31.4538 10.9911 31.6039 10.089 31.6539 9.18694C31.7539 8.09495 31.2037 7.38279 30.3534 7.38279C29.5031 7.33531 29.0029 8.09495 29.103 9.18694C29.203 9.99406 29.3531 10.8012 29.4531 11.6558Z" fill="white"/>
<path d="M113.734 27.7033C113.734 24.1899 113.734 20.724 113.734 17.2107C113.734 16.546 113.884 16.2136 114.684 16.1187C115.685 16.0237 116.685 15.8813 117.685 15.6439C118.436 15.454 118.636 15.6914 118.636 16.4036C118.586 18.4926 118.636 20.5816 118.636 22.6231C118.636 23.2878 118.686 23.6202 119.586 23.3828C125.038 21.911 129.039 24.5222 129.69 29.9347C130.09 33.2107 129.49 36.1543 126.639 38.3857C125.088 39.5727 123.237 40 121.287 40.0475C119.036 40.1424 116.835 39.8101 114.634 39.3828C113.834 39.2403 113.784 38.813 113.784 38.1958C113.784 34.6825 113.734 31.1691 113.734 27.7033ZM124.788 31.2641C124.788 30.9317 124.738 30.5994 124.738 30.2671C124.438 27.3709 122.287 26.1365 119.436 27.1335C118.886 27.3234 118.636 27.6083 118.636 28.178C118.686 30.5044 118.636 32.8308 118.636 35.2047C118.636 35.5371 118.636 35.8219 119.086 36.0119C121.187 36.724 123.688 35.5846 124.438 33.5905C124.688 32.8308 124.788 32.0712 124.788 31.2641Z" fill="white"/>
<path d="M91.9259 23.3353C89.9252 25.5668 88.0745 27.6083 86.0237 29.5074C85.1734 30.2671 85.1734 30.6944 86.0237 31.5015C88.4746 33.8279 90.4754 36.5341 92.226 39.6677C90.3753 39.6677 88.7247 39.6677 87.0241 39.6677C86.5239 39.6677 86.3739 39.2879 86.1738 39.003C84.9233 37.1514 83.6729 35.3472 82.0723 33.733C81.7222 33.4006 81.4721 32.9733 80.7718 32.7359C80.7718 34.73 80.7218 36.6291 80.7718 38.5282C80.8218 39.4778 80.4717 39.7626 79.5214 39.6677C78.671 39.5727 77.7707 39.5727 76.9204 39.6677C76.0201 39.7626 75.82 39.4303 75.82 38.6232C75.87 32.0238 75.82 25.3769 75.82 18.7775C75.82 16.3561 75.82 16.3561 78.3209 15.9763C80.7218 15.5965 80.7218 15.5965 80.7218 17.9229C80.7218 21.5787 80.7218 25.187 80.7218 28.9852C81.4721 28.6528 81.8222 28.0831 82.2724 27.6083C83.4228 26.4214 84.5232 25.1395 85.6736 23.9051C85.9237 23.6677 86.0737 23.3828 86.5239 23.3828C88.2245 23.3353 89.9252 23.3353 91.9259 23.3353Z" fill="white"/>
<path d="M143.245 32.9733C141.694 32.9733 140.093 32.9733 138.543 32.9733C137.743 32.9733 137.693 33.3057 137.943 33.8754C138.443 35.0149 139.393 35.6321 140.594 35.8695C142.494 36.3442 144.395 36.1069 146.246 35.5846C147.046 35.3472 147.346 35.4896 147.396 36.2493C147.446 36.6766 147.496 37.0564 147.596 37.4837C147.896 39.2404 147.896 39.2879 146.046 39.6202C143.895 40.0475 141.744 40.2374 139.543 39.9051C136.242 39.3828 133.791 37.2938 133.091 34.2077C132.341 30.7419 132.691 27.4184 135.642 24.8546C138.143 22.6707 141.094 22.3858 144.195 23.4303C147.046 24.4273 148.397 26.6113 148.747 29.4125C149.197 33.0208 149.197 33.0208 145.395 33.0208C144.645 32.9733 143.945 32.9733 143.245 32.9733ZM140.894 29.8398C141.744 29.8398 142.594 29.8398 143.445 29.8398C144.045 29.8398 144.145 29.6499 144.045 29.0802C143.745 27.7508 142.694 26.8012 141.344 26.6588C139.743 26.5164 138.443 27.276 137.943 28.6529C137.643 29.4125 137.643 29.9347 138.743 29.7923C139.443 29.7448 140.194 29.8398 140.894 29.8398Z" fill="white"/>
<path d="M195.414 32.9734C193.863 32.9734 192.363 33.0208 190.812 32.9734C189.762 32.9259 189.812 33.4007 190.162 34.0653C190.712 35.0624 191.562 35.6321 192.713 35.8695C194.664 36.3443 196.614 36.1069 198.515 35.5372C199.215 35.3472 199.465 35.4422 199.515 36.1069C199.565 36.5817 199.665 37.0564 199.765 37.5312C200.065 39.1929 200.066 39.1929 198.315 39.5728C196.164 40.0001 194.013 40.2374 191.812 39.9051C188.161 39.3354 185.61 37.0564 185.06 33.5431C184.56 30.3621 184.96 27.371 187.561 24.9971C189.962 22.8131 192.863 22.4333 195.964 23.3354C198.915 24.19 200.366 26.279 200.866 29.0802C201.566 32.9259 201.466 33.0208 197.465 33.0208C196.764 32.9734 196.114 32.9734 195.414 32.9734ZM193.013 29.8398C193.813 29.8398 194.563 29.7923 195.364 29.8398C196.264 29.8873 196.314 29.5075 196.164 28.8428C195.764 27.4185 194.513 26.6113 192.913 26.7063C191.412 26.8013 190.112 27.9882 189.962 29.3176C189.912 29.8398 190.212 29.8398 190.562 29.8398C191.362 29.8398 192.213 29.8398 193.013 29.8398Z" fill="white"/>
<path d="M228.426 32.9733C226.875 32.9733 225.275 33.0208 223.724 32.9733C222.824 32.9259 222.824 33.3532 223.124 33.9229C223.624 34.9674 224.524 35.5846 225.725 35.8695C227.625 36.3443 229.526 36.1069 231.427 35.5846C232.127 35.3947 232.427 35.3947 232.577 36.2018C233.177 39.3354 233.177 39.3828 229.826 39.8576C227.125 40.2374 224.524 40.2374 222.023 39.003C221.623 38.8131 221.223 38.5282 220.823 38.2908C216.721 35.4897 216.421 26.4214 222.524 23.6202C227.675 21.2938 233.077 24 233.878 29.3175C234.428 32.9259 234.428 32.9259 230.677 32.9259C229.926 32.9733 229.176 32.9733 228.426 32.9733ZM226.025 29.8398C226.825 29.8398 227.675 29.7923 228.476 29.8398C229.126 29.8873 229.276 29.6974 229.176 29.0802C228.876 27.6558 227.826 26.7537 226.375 26.7063C224.724 26.6588 223.524 27.4659 223.024 28.9377C222.824 29.5549 222.824 29.9348 223.674 29.8398C224.474 29.7923 225.275 29.8398 226.025 29.8398Z" fill="white"/>
<path d="M166.403 31.6914C166.403 29.365 166.403 26.9911 166.403 24.6647C166.403 24.19 166.403 23.7627 167.053 23.6677C169.954 23.098 172.905 22.6232 175.907 23.098C179.008 23.6202 180.708 25.2819 181.108 28.2256C181.559 31.8339 181.208 35.4422 181.308 39.0505C181.308 39.5727 181.008 39.6677 180.558 39.6202C179.458 39.6202 178.357 39.5727 177.257 39.6202C176.507 39.6677 176.357 39.3828 176.357 38.7181C176.407 36.1544 176.357 33.5906 176.357 31.0268C176.357 30.6469 176.357 30.2671 176.307 29.9348C176.107 26.9911 174.656 26.6588 171.805 26.9911C171.105 27.0861 171.255 27.6558 171.255 28.0357C171.255 31.5015 171.205 34.9674 171.255 38.3858C171.255 39.3354 171.055 39.7152 169.954 39.6202C169.054 39.5253 168.154 39.5727 167.253 39.6202C166.503 39.6677 166.353 39.3828 166.353 38.7181C166.403 36.3917 166.403 34.0653 166.403 31.6914Z" fill="white"/>
<path d="M109.182 31.2641C109.182 33.5905 109.182 35.8695 109.182 38.1959C109.182 38.8606 109.032 39.2404 108.282 39.3354C105.581 39.8101 102.88 40.1899 100.129 39.9051C97.228 39.5727 95.3273 38.0534 94.627 35.3472C94.2269 33.638 94.2769 31.8813 94.2769 30.1247C94.2769 28.1306 94.3269 26.184 94.2769 24.1899C94.2769 23.4778 94.477 23.2879 95.2272 23.3353C96.2276 23.3828 97.278 23.3828 98.2784 23.3353C99.0286 23.2879 99.2287 23.5727 99.1787 24.2374C99.1287 26.7063 99.1787 29.2226 99.1787 31.6914C99.1787 32.1187 99.1787 32.4986 99.2287 32.9259C99.4288 35.5371 100.529 36.3917 103.33 36.0594C104.03 35.9644 104.331 35.727 104.331 35.0149C104.281 31.5015 104.331 28.0356 104.281 24.5223C104.281 23.6202 104.431 23.1929 105.481 23.3353C106.681 23.4778 108.232 22.8606 108.982 23.5727C109.683 24.2374 109.182 25.7092 109.182 26.8012C109.182 28.273 109.182 29.7448 109.182 31.2641Z" fill="white"/>
<path d="M242.631 40.0474C240.88 40.0474 239.38 39.81 237.829 39.4302C237.029 39.2403 236.729 38.908 236.929 38.1008C237.129 37.4361 237.279 36.724 237.379 36.0118C237.479 35.3946 237.779 35.3471 238.329 35.537C239.98 36.1068 241.681 36.3916 243.381 36.2492C244.082 36.2017 244.882 36.2017 245.082 35.3471C245.282 34.4925 244.582 34.1602 243.931 33.8753C242.881 33.4005 241.831 33.0207 240.78 32.5934C237.979 31.4065 236.829 29.6498 237.229 27.1335C237.579 24.8545 239.43 23.2878 242.331 22.9554C244.382 22.718 246.382 22.9554 248.383 23.4302C248.983 23.5726 249.233 23.8575 249.033 24.4747C248.983 24.5697 248.983 24.7121 248.933 24.8071C248.733 25.5667 248.783 26.5637 248.283 26.991C247.683 27.5133 246.783 26.7062 245.982 26.7062C245.182 26.7062 244.432 26.6112 243.631 26.6587C242.881 26.6587 242.181 26.8011 242.031 27.6557C241.881 28.5103 242.531 28.8427 243.181 29.1275C244.232 29.5548 245.282 29.9347 246.332 30.362C248.283 31.1691 249.784 32.4035 249.984 34.635C250.184 37.2937 248.533 39.2878 245.482 39.8575C244.482 39.9999 243.481 40.1424 242.631 40.0474Z" fill="white"/>
<path d="M204.667 27.1336C204.667 24.9021 204.717 22.6707 204.667 20.4392C204.617 19.5371 204.817 19.0624 205.868 19.0149C206.718 18.9674 207.568 18.825 208.419 18.6351C209.469 18.3502 209.619 18.7775 209.569 19.6321C209.519 20.5817 209.569 21.5787 209.569 22.5282C209.519 23.1455 209.819 23.3828 210.469 23.3354C211.82 23.2879 213.221 23.3354 214.571 23.3354C215.221 23.3354 215.421 23.5253 215.421 24.1425C215.521 27.1336 215.521 27.1336 212.42 27.1336C209.569 27.1336 209.569 27.1336 209.569 29.8873C209.569 31.1217 209.519 32.3561 209.619 33.5431C209.769 35.4897 210.47 36.1069 212.52 36.0594C213.02 36.0594 213.521 36.0119 214.021 35.917C215.471 35.6321 215.421 35.6321 215.721 37.0564C216.172 39.4303 216.072 39.5253 213.521 39.8576C212.37 40.0001 211.27 40.0475 210.119 39.9051C206.718 39.4778 204.967 37.7211 204.717 34.4452C204.717 34.3027 204.717 34.1603 204.717 34.0179C204.667 31.7389 204.667 29.4125 204.667 27.1336Z" fill="white"/>
<path d="M152.598 31.8339C152.598 29.5549 152.598 27.276 152.598 25.0445C152.598 24.5223 152.648 24.1425 153.298 23.9526C156.4 23.098 159.551 22.5757 162.802 23.2879C163.552 23.4778 163.902 23.6677 163.652 24.4748C163.402 25.3294 163.502 26.4214 162.952 27.0386C162.352 27.7033 161.251 26.9911 160.351 26.8962C157.7 26.7537 157.55 26.8487 157.55 29.2701C157.55 32.3086 157.5 35.3472 157.6 38.4333C157.65 39.4778 157.3 39.7152 156.299 39.6202C155.449 39.5253 154.549 39.5727 153.699 39.6202C152.898 39.6677 152.598 39.4303 152.648 38.6232C152.598 36.3917 152.598 34.1128 152.598 31.8339Z" fill="white"/>
<path d="M36.1055 32.1661C37.9562 32.451 39.8569 32.7833 41.7576 33.0682C41.9077 33.1157 42.0577 33.1157 42.2078 33.1631C42.6079 33.1631 42.758 33.3056 42.5579 33.6854C41.5575 35.9643 40.007 37.816 37.9062 39.2403C37.6061 39.4302 37.456 39.4302 37.306 39.0979C36.5557 37.3412 35.7554 35.5845 35.0051 33.8278C34.605 32.8783 35.1052 32.1186 36.1055 32.1661Z" fill="white"/>
<path d="M28.7028 17.6855C28.6027 19.2997 28.5027 20.9615 28.4027 22.5757C28.3526 23.098 28.3026 23.5727 27.7024 23.8101C27.1522 24.0475 26.702 23.8101 26.2519 23.5253C24.7013 22.4807 23.1507 21.3888 21.5502 20.3917C21.2 20.1543 21.2 20.0119 21.5001 19.7745C23.4008 18.1603 25.6016 17.1632 28.1526 16.7359C28.5527 16.6885 28.8028 16.7359 28.7028 17.2107C28.7028 17.3531 28.7528 17.4956 28.7028 17.6855C28.7528 17.6855 28.7028 17.6855 28.7028 17.6855Z" fill="white"/>
<path d="M17.2986 28.6527C17.2986 26.6112 17.8488 24.7596 18.8492 22.9554C19.0493 22.5756 19.1993 22.4806 19.5995 22.813C21 24.0474 22.4505 25.2344 23.851 26.4688C24.8514 27.3709 24.6513 28.2254 23.3509 28.6053C21.5002 29.1275 19.6495 29.6023 17.8488 30.1246C17.4487 30.2195 17.2986 30.2195 17.2986 29.7922C17.3487 29.4124 17.2986 29.0326 17.2986 28.6527Z" fill="white"/>
<path d="M30.3535 41.4244C29.103 41.4244 27.9026 41.2344 26.7022 40.9021C26.352 40.8071 26.252 40.7122 26.4521 40.3324C27.4524 38.6706 28.4028 37.0089 29.3531 35.3472C29.8533 34.4926 30.8537 34.3976 31.4039 35.2522C32.4543 36.9614 33.4046 38.6706 34.455 40.3798C34.7051 40.7597 34.355 40.8071 34.1549 40.8546C32.8544 41.2819 31.604 41.4244 30.3535 41.4244Z" fill="white"/>
<path d="M24.6514 32.1662C25.5517 32.1662 26.1019 32.8309 25.8018 33.638C25.5017 34.4451 25.1516 35.2048 24.8015 36.0119C24.4013 37.0089 23.9511 37.9585 23.551 38.9555C23.4009 39.3353 23.2509 39.4303 22.8507 39.1929C20.8 37.7686 19.2494 35.9644 18.2491 33.733C18.149 33.4956 17.999 33.2582 18.4491 33.2107C20.5499 32.8309 22.6006 32.4985 24.6514 32.1662Z" fill="white"/>
<path d="M32.054 17.6855C32.004 16.641 32.004 16.5935 33.0544 16.8309C35.3052 17.3057 37.306 18.2552 39.0566 19.727C39.4067 20.0119 39.4567 20.1543 39.0066 20.4392C37.456 21.4362 35.9555 22.4807 34.4049 23.5253C33.9547 23.8101 33.5046 24.095 32.9544 23.8101C32.4042 23.5727 32.3041 23.098 32.2541 22.5757C32.2041 20.9615 32.1541 19.2997 32.054 17.6855Z" fill="white"/>
<path d="M43.4583 28.7003C43.5083 30.267 43.5083 30.267 41.9577 29.8397C40.4572 29.4124 38.9566 29.0326 37.4561 28.6053C36.9059 28.4629 36.4057 28.273 36.2556 27.6557C36.1056 27.086 36.5057 26.7062 36.9059 26.3738C38.3064 25.1869 39.7569 23.9525 41.1574 22.7655C41.5076 22.4807 41.6076 22.5282 41.8077 22.8605C42.758 24.5222 43.4083 26.7062 43.4583 28.7003Z" fill="white"/>
<path d="M30.3535 26.9911C30.8037 27.086 31.3039 26.8012 31.604 27.276C31.9541 27.7507 32.6043 28.0831 32.6043 28.7003C32.6043 29.27 32.5543 29.9822 32.1042 30.4095C31.654 30.7893 31.0038 31.1691 30.4035 31.1691C29.7533 31.1691 29.1031 30.8368 28.6529 30.4095C28.2027 29.9822 28.2027 29.27 28.1527 28.7003C28.1527 28.1306 28.8029 27.7507 29.1531 27.3234C29.5032 26.8012 30.0034 27.1335 30.3535 26.9911Z" fill="white"/>
</svg>
