<svg width="122" height="26" viewBox="0 0 122 26" fill="none" xmlns="http://www.w3.org/2000/svg">
<path d="M22.8604 25.2392C22.1711 25.2392 21.4929 24.9741 20.9859 24.4717L5.30096 8.95771V22.6181C5.30096 24.0663 4.11452 25.2394 2.65048 25.2394C1.1874 25.2394 0 24.066 0 22.6181V2.62885C0 1.56771 0.646762 0.612477 1.63694 0.206796C2.12111 0.00794533 2.65409 -0.0441862 3.16827 0.0570152C3.68245 0.158217 4.15464 0.40819 4.52495 0.775221L20.2099 16.2892V2.62885C20.2099 1.18067 21.3963 0.00749338 22.8604 0.00749338C24.3246 0.00749338 25.5108 1.1809 25.5108 2.62885V22.6181C25.5105 23.3132 25.2311 23.9797 24.7341 24.4712C24.2371 24.9628 23.5632 25.2391 22.8604 25.2394V25.2392ZM35.134 0.0327305L34.4057 1.37714L28.773 11.5015L28.0447 12.7798L28.773 14.0568L34.406 23.8545L35.1669 25.1974H49.9108L50.6391 23.7233L54.8469 15.3347L56.7352 11.5338H52.4616L41.6944 11.5663C40.2941 11.5475 39.0058 12.8025 39.0058 14.1877C39.0058 15.5727 40.2941 16.8289 41.6944 16.809L48.188 16.7765L46.5978 19.9545H38.2486L34.1064 12.7459L38.2815 5.27521H47.1626L49.2331 9.47755H54.5679L51.2053 1.50804L50.4758 0.0327305H35.1343H35.134ZM61.9851 0.000181689C60.5962 0.0169278 59.3497 1.28161 59.3676 2.65409V9.48533H64.6685V2.65409C64.6852 1.25921 63.3941 -0.0175079 61.9851 0.000181689ZM70.4815 25.2897C69.7788 25.2892 69.105 25.0129 68.6082 24.5213C68.1114 24.0298 67.8322 23.3633 67.832 22.6683V2.67909C67.832 1.23114 69.0184 0.0579676 70.4825 0.0579676C71.9467 0.0579676 73.1329 1.23114 73.1329 2.67933V16.3395L88.8183 0.825223C89.1888 0.458355 89.6609 0.208493 90.1751 0.1073C90.6892 0.00610684 91.2221 0.0581374 91.7064 0.256798C92.1906 0.455379 92.6045 0.791486 92.8956 1.22264C93.1868 1.65379 93.3421 2.16063 93.3421 2.67909V22.6683C93.3421 24.116 92.1557 25.2894 90.6916 25.2894C89.2273 25.2894 88.0411 24.116 88.0411 22.6681V9.00818L72.3557 24.5222C72.1097 24.7657 71.8174 24.9589 71.4958 25.0906C71.1741 25.2223 70.8294 25.2899 70.4813 25.2897H70.4815ZM112.975 12.6537L121.22 4.52895C122.257 3.50767 122.26 1.84768 121.227 0.821214C120.194 -0.20431 118.517 -0.206432 117.479 0.814845L109.221 8.9537L100.963 0.814845C99.9256 -0.207376 98.2484 -0.204074 97.216 0.821214C96.1822 1.84768 96.1853 3.50767 97.2212 4.52895L105.466 12.6539L97.2456 20.7557C96.2077 21.7782 96.2055 23.437 97.2391 24.4623C97.4849 24.7074 97.7774 24.9018 98.0997 25.0343C98.422 25.1667 98.7677 25.2346 99.1167 25.234C99.7933 25.234 100.47 24.9793 100.987 24.4686L109.221 16.3541L117.455 24.4686C117.7 24.7117 117.992 24.9044 118.313 25.0357C118.634 25.167 118.978 25.2344 119.326 25.234C120.006 25.234 120.685 24.9771 121.203 24.4623C122.236 23.437 122.234 21.7782 121.197 20.7559L112.975 12.6537ZM61.9851 25.2151C60.5962 25.1986 59.3497 23.9339 59.3676 22.5615V11.5885H64.6685V22.5615C64.6852 23.9549 63.3941 25.2319 61.9851 25.2151Z" fill="white"/>
</svg>
