<svg width="190" height="50" viewBox="0 0 190 50" fill="none" xmlns="http://www.w3.org/2000/svg">
<path d="M125.15 20.6667C126.287 19.8096 126.856 18.4763 126.856 16.7144C126.856 14.9524 126.287 13.6667 125.15 12.762C124.012 11.9048 122.305 11.4763 119.983 11.4763H112.967V21.9524H119.983C122.258 21.9524 124.012 21.5239 125.15 20.6667Z" fill="white"/>
<path d="M48.3059 29.5713H61.1527L54.7056 12.238L48.3059 29.5713Z" fill="white"/>
<path d="M92.7246 20.6667C93.8623 19.8096 94.4312 18.4763 94.4312 16.7144C94.4312 14.9524 93.8623 13.6667 92.7246 12.762C91.5869 11.9048 89.8803 11.4763 87.5574 11.4763H80.5414V21.9524H87.5574C89.8803 21.9524 91.5869 21.5239 92.7246 20.6667Z" fill="white"/>
<path d="M126.193 27.3333C124.96 26.2857 123.064 25.7619 120.551 25.7619H112.967V38.4762H120.551C123.111 38.4762 124.96 37.9524 126.193 36.9048C127.425 35.8571 128.041 34.2381 128.041 32.0952C128.041 29.9524 127.425 28.3333 126.193 27.3333Z" fill="white"/>
<path d="M93.815 27.3333C92.5824 26.2857 90.6862 25.7619 88.1738 25.7619H80.5889V38.4762H88.1738C90.7336 38.4762 92.6299 37.9524 93.815 36.9048C95.0475 35.8571 95.6638 34.2381 95.6638 32.0952C95.6638 29.9524 95.0475 28.3333 93.815 27.3333Z" fill="white"/>
<path d="M0 0V50H190V0H0ZM36.1228 42.381H7.58483V38.8095L29.7231 11.5714H8.10629V7.61905H35.6013V11.1905L13.5105 38.4286H36.1702V42.381H36.1228ZM65.8458 42.381L62.6697 33.4762H46.8837L43.7076 42.381H38.6826L52.0509 7.61905H57.4077L70.7285 42.381H65.8458ZM97.4651 39.8571C95.3318 41.5714 92.2979 42.381 88.4107 42.381H75.8483V7.61905H87.9366C91.5394 7.61905 94.3363 8.38095 96.2799 9.85714C98.2236 11.3333 99.2191 13.4762 99.2191 16.1905C99.2191 18.3333 98.745 20 97.7021 21.2857C96.7066 22.5238 95.237 23.3333 93.2934 23.619C95.6163 24.0952 97.4177 25.1429 98.6976 26.7143C99.9775 28.2857 100.641 30.2381 100.641 32.619C100.641 35.7619 99.5983 38.1429 97.4651 39.8571ZM129.843 39.8571C127.71 41.5714 124.676 42.381 120.788 42.381H108.226V7.61905H120.314C123.917 7.61905 126.714 8.38095 128.658 9.85714C130.601 11.3333 131.597 13.4762 131.597 16.1905C131.597 18.3333 131.075 20 130.08 21.2857C129.084 22.5238 127.615 23.3333 125.671 23.619C127.994 24.0952 129.795 25.1429 131.075 26.7143C132.355 28.2857 133.019 30.2381 133.019 32.619C133.019 35.7619 131.976 38.1429 129.843 39.8571ZM145.344 42.381H140.604V7.61905H145.344V42.381ZM177.248 42.381L167.672 27.8571L157.954 42.381H152.929L165.112 24.0476L154.304 7.61905H159.518L167.72 20.0952L176.063 7.61905H181.088L170.279 23.9048L182.415 42.381H177.248Z" fill="white"/>
</svg>
