<?xml version="1.0"?>
<svg width="425" height="400" xmlns="http://www.w3.org/2000/svg" xmlns:svg="http://www.w3.org/2000/svg" xmlns:xlink="http://www.w3.org/1999/xlink">
 <defs>
  <linearGradient id="paint0_linear" x1="0.5" x2="0.5" y1="0" y2="1">
   <stop offset="1" stop-color="#B1DEFF"/>
   <stop offset="1" stop-color="#6AD0E6"/>
  </linearGradient>
  <symbol height="400" id="svg_157" width="426" xmlns="http://www.w3.org/2000/svg">
   <rect fill="none" height="100%" id="svg_156" width="100%" x="0" y="0"/>
   <defs>
    <linearGradient id="svg_155" x1="0.639285" x2="0.526296" y1="0.186907" y2="0.754166">
     <stop offset="1" stop-color="white"/>
     <stop offset="1" stop-color="#9D73FF"/>
    </linearGradient>
    <linearGradient id="svg_152" x1="0.469713" x2="0.500685" y1="-0.358999" y2="0.927782">
     <stop offset="1" stop-color="white"/>
     <stop offset="1" stop-color="#BDC9FF"/>
    </linearGradient>
    <linearGradient id="svg_150" x1="0.246687" x2="0.530322" y1="0.03801" y2="0.976474">
     <stop offset="1" stop-color="white"/>
     <stop offset="1" stop-color="#8C84FF"/>
    </linearGradient>
    <linearGradient id="svg_146" x1="0.268146" x2="0.712729" y1="1.093575" y2="-0.044603">
     <stop offset="1" stop-color="#4A2466"/>
     <stop offset="1" stop-color="#343C80"/>
    </linearGradient>
    <linearGradient id="svg_34" x1="280.65077" x2="133.906498" y1="-515.819946" y2="1717.561419">
     <stop offset="1" stop-color="white"/>
     <stop offset="1" stop-color="#9D73FF"/>
    </linearGradient>
    <linearGradient id="svg_32" x1="2350.387214" x2="1873.608757" y1="-393.689994" y2="1820.218854">
     <stop offset="1" stop-color="white"/>
     <stop offset="1" stop-color="#9D73FF"/>
    </linearGradient>
   </defs>
   <g class="currentLayer">
    <title>Layer 1</title>
    <path d="m32.4003,396.06189c-2.9569,-17.027 -5.9137,-34.265 -4.5379,-51.5c1.3758,-17.235 7.6165,-34.715 20.4405,-46.301c9.5107,-8.592 22.1747,-13.596 30.2086,-23.583c9.9646,-12.384 10.6951,-29.711 9.3402,-45.5497c-1.3549,-15.8383 -4.3048,-32.0645 -0.1131,-47.3966c4.0144,-14.6817 14.7603,-27.377 28.5773,-33.76032c13.817,-6.38332 30.452,-6.33636 44.233,0.12523c17.329,8.12609 29.646,25.40979 47.913,31.13389c11.778,3.6874 24.491,2.0333 36.686,0.1287c19.162,-2.9951 38.231,-6.5265 57.204,-10.5942c10.203,-2.1881 20.895,-4.5222 30.92,-1.6315c12.325,3.5517 21.265,14.4503 26.655,26.0899c9.021,19.4804 10.111,41.7194 8.36,63.1076c-1.752,21.389 -6.173,42.506 -7.615,63.917c-0.736,10.946 -0.534,22.55 5.014,32.004c5.549,9.453 15.48,15.231 24.02,22.077c8.54,6.846 16.524,10.853 15.306,21.741l-372.6116,-0.008z" fill="url(#svg_155)" id="svg_154"/>
    <path d="m339.4459,200.73389l-7.147,0c-0.768,0 -1.391,0.623 -1.391,1.3915l0,7.1469c0,0.7684 0.623,1.3914 1.391,1.3914l7.147,0c0.768,0 1.391,-0.623 1.391,-1.3914l0,-7.1469c0,-0.7685 -0.623,-1.3915 -1.391,-1.3915z" fill="#FFC869" id="svg_153"/>
    <path d="m4.40067,397.50189c-10.78382,-33.551 7.79743,-73.832 40.32273,-87.403c12.9719,-5.412 27.6136,-7.023 39.3801,-14.711c13.6015,-8.886 21.0994,-24.319 28.9754,-38.529c7.876,-14.211 17.972,-28.8679 33.482,-33.7293c19.23,-6.032 39.217,4.9919 56.559,15.2574c17.343,10.2659 38.104,20.4669 56.786,12.9059c15.617,-6.323 24.293,-23.1332 38.31,-32.4768c21.742,-14.4938 55.335,-5.498 66.921,17.915c8.495,17.1668 5.626,37.7968 11.331,56.0808c5.697,18.254 19.39,32.7 29.652,48.835c10.262,16.136 17.117,39.092 7.913,55.854l-409.63223,0.001z" fill="url(#svg_152)" id="svg_151"/>
    <path d="m418.8909,398.07389c4.348,-22.218 -0.938,-46.149 -14.235,-64.473c-13.297,-18.324 -34.411,-30.767 -56.876,-33.526c-20.8,-2.551 -44.546,2.072 -60.676,-11.305c-8.631,-7.159 -13,-18.058 -18.785,-27.668c-5.785,-9.609 -14.708,-18.958 -25.916,-19.021c-9.857,-0.059 -18.15,7.034 -25.185,13.939c-41.226,40.497 -74.213,88.6 -97.135,141.649l298.808,0.405z" fill="url(#svg_150)" id="svg_149"/>
    <path d="m267.1979,141.10989l-111.943,0c-5.777,0 -10.461,4.68324 -10.461,10.4603l0,235.5167c0,5.777 4.684,10.46 10.461,10.46l111.943,0c5.777,0 10.46,-4.683 10.46,-10.46l0,-235.5167c0,-5.77706 -4.683,-10.4603 -10.46,-10.4603z" id="svg_148" stroke="#3A1020" stroke-miterlimit="10" stroke-width="1.24"/>
    <path d="m271.7549,379.82989l0,-221.0017c0,-1.6311 -1.322,-2.9534 -2.953,-2.9534l-115.145,0c-1.631,0 -2.954,1.3223 -2.954,2.9534l0,221.0017c0,1.631 1.323,2.954 2.954,2.954l115.145,0c1.631,0 2.953,-1.323 2.953,-2.954z" id="svg_147" stroke="#3A1020" stroke-miterlimit="10" stroke-width="1.24"/>
    <path d="m267.1979,141.10989l-111.943,0c-5.777,0 -10.461,4.68324 -10.461,10.4603l0,235.5167c0,5.777 4.684,10.46 10.461,10.46l111.943,0c5.777,0 10.46,-4.683 10.46,-10.46l0,-235.5167c0,-5.77706 -4.683,-10.4603 -10.46,-10.4603z" fill="url(#svg_146)" id="svg_145"/>
    <path d="m271.7549,379.82989l0,-221.0017c0,-1.6311 -1.322,-2.9534 -2.953,-2.9534l-115.145,0c-1.631,0 -2.954,1.3223 -2.954,2.9534l0,221.0017c0,1.631 1.323,2.954 2.954,2.954l115.145,0c1.631,0 2.953,-1.323 2.953,-2.954z" fill="#D4E1FF" id="svg_144"/>
    <path d="m213.7689,148.10699c0,0.65361 -0.194,1.29254 -0.557,1.836c-0.363,0.5435 -0.879,0.967 -1.483,1.2172c-0.604,0.2501 -1.268,0.3155 -1.909,0.188c-0.642,-0.1275 -1.23,-0.4422 -1.693,-0.9044c-0.462,-0.46219 -0.776,-1.05103 -0.904,-1.69208c-0.127,-0.64105 -0.062,-1.30552 0.188,-1.90938c0.25,-0.60386 0.674,-1.11998 1.217,-1.48311c0.544,-0.36313 1.183,-0.55695 1.836,-0.55695c0.434,0 0.864,0.08548 1.265,0.25156c0.401,0.16608 0.765,0.4095 1.072,0.71637c0.307,0.30687 0.55,0.67118 0.716,1.07213c0.166,0.40095 0.252,0.83068 0.252,1.26466l0,0z" id="svg_143" stroke="#3A1020" stroke-miterlimit="10" stroke-width="1.24"/>
    <path d="m213.7689,148.10699c0,0.65361 -0.194,1.29254 -0.557,1.836c-0.363,0.5435 -0.879,0.967 -1.483,1.2172c-0.604,0.2501 -1.268,0.3155 -1.909,0.188c-0.642,-0.1275 -1.23,-0.4422 -1.693,-0.9044c-0.462,-0.46219 -0.776,-1.05103 -0.904,-1.69208c-0.127,-0.64105 -0.062,-1.30552 0.188,-1.90938c0.25,-0.60386 0.674,-1.11998 1.217,-1.48311c0.544,-0.36313 1.183,-0.55695 1.836,-0.55695c0.434,0 0.864,0.08548 1.265,0.25156c0.401,0.16608 0.765,0.4095 1.072,0.71637c0.307,0.30687 0.55,0.67118 0.716,1.07213c0.166,0.40095 0.252,0.83068 0.252,1.26466z" fill="#390573" id="svg_142"/>
    <path d="m277.6589,151.57029c-0.001,-2.28438 -0.75,-4.50564 -2.132,-6.32467c-1.382,-1.81903 -3.321,-3.13588 -5.521,-3.7495l-98.62,253.03177l44.092,2.087l62.181,-196.0391l0,-49.0055z" fill="#FFF0FF" id="svg_141" opacity="0.2"/>
    <path d="m247.4039,141.10989l-9.567,0l-0.241,0.36004l-92.806,238.11396l0,7.498c-0.001,1.574 0.354,3.129 1.039,4.547c0.684,1.417 1.681,2.662 2.915,3.64l17.628,1.344l81.032,-255.503z" fill="#FFF0FF" id="svg_140" opacity="0.2"/>
    <path d="m268.7989,155.87359l-115.144,0c-0.784,0 -1.536,0.3115 -2.09,0.866c-0.555,0.5545 -0.866,1.3066 -0.866,2.0908l0,57.0499l121.057,0l0,-57.0499c0,-0.7842 -0.312,-1.5363 -0.866,-2.0908c-0.555,-0.5545 -1.307,-0.866 -2.091,-0.866z" fill="white" id="svg_139"/>
    <path d="m258.9809,295.37289l-94.643,0c-2.174,0 -3.936,1.762 -3.936,3.936l0,15.123c0,2.174 1.762,3.936 3.936,3.936l94.643,0c2.174,0 3.937,-1.762 3.937,-3.936l0,-15.123c0,-2.174 -1.763,-3.936 -3.937,-3.936z" fill="#B7BDFF" id="svg_138"/>
    <path d="m258.9809,323.97189l-94.643,0c-2.174,0 -3.936,1.763 -3.936,3.936l0,15.124c0,2.174 1.762,3.936 3.936,3.936l94.643,0c2.174,0 3.937,-1.762 3.937,-3.936l0,-15.124c0,-2.173 -1.763,-3.936 -3.937,-3.936z" fill="#B7BDFF" id="svg_137"/>
    <path d="m258.9809,353.46789l-94.643,0c-2.174,0 -3.936,1.762 -3.936,3.936l0,15.123c0,2.174 1.762,3.936 3.936,3.936l94.643,0c2.174,0 3.937,-1.762 3.937,-3.936l0,-15.123c0,-2.174 -1.763,-3.936 -3.937,-3.936z" fill="#B7BDFF" id="svg_136"/>
    <path d="m64.8836,397.49389c0,0 -32.9897,-36.857 -8.6601,-30.752c13.892,3.479 -6.9573,-16.817 1.1602,-24.35c8.1174,-7.533 15.6539,5.218 15.0764,13.914c-0.5774,8.697 1.7394,13.338 5.218,10.436c3.4787,-2.901 4.0596,-6.957 8.6966,-4.059c4.6371,2.898 3.4787,7.538 1.1602,11.598c-2.3185,4.059 -4.6405,10.436 -1.1602,9.858c3.4804,-0.577 1.7394,-6.378 5.7989,-6.378c4.0596,0 6.599,17.412 -3.6525,19.733l-23.6375,0z" fill="#A17DF7" id="svg_135"/>
    <path d="m72.0321,397.49389c0.5044,-2.936 0.3792,-7.083 -0.3687,-12.337c-0.6192,-4.349 -1.668,-9.48 -3.1134,-15.233c-2.5133,-9.998 -5.345,-18.375 -5.3728,-18.453c-0.0239,-0.077 -0.0167,-0.161 0.02,-0.234c0.0366,-0.072 0.0999,-0.127 0.1766,-0.154c0.0292,-0.009 0.0597,-0.014 0.0904,-0.014c0.0668,0 0.132,0.02 0.1861,0.06c0.0542,0.039 0.0944,0.094 0.1148,0.158l0,0.01c0.3044,0.905 3.0456,9.121 5.4476,18.715c3.1899,12.755 4.3483,22.001 3.4438,27.49l-0.6244,-0.008z" fill="#FFF0FF" id="svg_134"/>
    <path d="m72.4535,394.99589c-1.1097,0 -4.3327,-3.536 -9.8568,-10.812c-4.2579,-5.606 -8.3244,-11.41 -8.3644,-11.467c-0.0231,-0.033 -0.0395,-0.071 -0.0481,-0.11c-0.0087,-0.039 -0.0095,-0.08 -0.0023,-0.12c0.0069,-0.039 0.0217,-0.077 0.0435,-0.111c0.0219,-0.034 0.0502,-0.063 0.0834,-0.085c0.0507,-0.037 0.1116,-0.056 0.174,-0.056c0.0494,0 0.0981,0.012 0.142,0.034c0.0439,0.023 0.0817,0.056 0.1102,0.096c3.6978,5.283 7.6391,10.61 10.8133,14.635c3.6161,4.58 5.8929,7.041 6.7677,7.319l0.1514,0.049l0.1165,-0.11c1.5376,-1.426 7.8826,-15.92 11.7718,-25.314c0.0322,-0.073 0.0919,-0.131 0.1662,-0.161c0.0744,-0.029 0.1574,-0.029 0.2314,0.002c0.0739,0.031 0.1329,0.089 0.1642,0.163c0.0314,0.073 0.0326,0.156 0.0034,0.231c-0.9566,2.312 -3.4595,8.304 -6.025,14.015c-4.2979,9.567 -5.6789,11.426 -6.1189,11.687c-0.0942,0.069 -0.2068,0.109 -0.3235,0.115z" fill="#FFF0FF" id="svg_133"/>
    <path d="m83.2962,397.49289c3.8265,-3.512 7.7887,-12.215 8.5766,-14.001l0.0226,-0.051c0.0232,-0.056 0.0623,-0.103 0.1124,-0.137c0.0501,-0.034 0.109,-0.052 0.1694,-0.052c0.0401,0 0.0797,0.008 0.1165,0.024c0.0392,0.016 0.0749,0.039 0.1048,0.069c0.0298,0.03 0.0534,0.066 0.0691,0.105c0.0297,0.072 0.0297,0.152 0,0.224c-0.1739,0.395 -4.143,9.605 -8.2844,13.819l-0.887,0z" fill="#FFF0FF" id="svg_132"/>
    <path d="m362.7709,373.72389c0,0 -2.783,-17.948 -7.178,-13.161c-4.395,4.786 -2.794,26.323 -2.794,26.323c0,0 -2.391,-7.179 -5.583,-5.584c-3.191,1.595 0,13.958 0,13.958c0,0 -3.988,-2.391 -5.583,0c-1.595,2.392 4.545,5.185 4.545,5.185l28.407,0c0,0 6.531,-0.796 8.924,-4.785c2.393,-3.988 -7.977,0 -7.977,0c0,0 13.96,-18.346 10.769,-23.931c-3.192,-5.585 -12.764,7.18 -12.764,7.18c0,0 9.567,-27.52 2.394,-31.906c-7.173,-4.387 -13.16,17.548 -13.16,26.721z" fill="#BAA9FF" id="svg_131"/>
    <path d="m361.7259,400.64489c-0.016,0.002 -0.033,0.002 -0.049,0c-0.051,-0.013 -0.095,-0.046 -0.122,-0.091c-0.027,-0.045 -0.035,-0.099 -0.022,-0.151l10.816,-42.874c0.007,-0.025 0.018,-0.049 0.034,-0.07c0.015,-0.021 0.035,-0.039 0.057,-0.052c0.023,-0.014 0.048,-0.023 0.074,-0.026c0.026,-0.004 0.052,-0.003 0.077,0.004c0.026,0.006 0.049,0.017 0.07,0.033c0.021,0.016 0.039,0.035 0.052,0.058c0.014,0.022 0.023,0.047 0.027,0.073c0.003,0.026 0.002,0.052 -0.004,0.077l-10.817,42.875c-0.012,0.042 -0.037,0.079 -0.072,0.105c-0.035,0.026 -0.078,0.04 -0.121,0.039z" fill="#FFF0FF" id="svg_130"/>
    <path d="m365.0429,385.76889c-0.883,0.012 -1.758,-0.157 -2.572,-0.498c-0.814,-0.341 -1.549,-0.847 -2.159,-1.485c-1.88,-1.913 -3.131,-5.129 -3.712,-9.566c-0.262,-2.018 -0.366,-4.054 -0.311,-6.088c0.002,-0.051 0.024,-0.1 0.062,-0.136c0.037,-0.035 0.086,-0.055 0.138,-0.055c0.053,0.003 0.102,0.026 0.138,0.065c0.035,0.039 0.054,0.091 0.052,0.144c0,0.109 -0.439,10.938 3.91,15.358c0.6,0.623 1.326,1.111 2.129,1.432c0.803,0.32 1.666,0.466 2.53,0.427c0.053,0 0.104,0.02 0.142,0.056c0.038,0.037 0.061,0.086 0.064,0.139c0.001,0.053 -0.019,0.104 -0.055,0.142c-0.036,0.039 -0.086,0.061 -0.139,0.063l-0.217,0.002z" fill="#FFF0FF" id="svg_129"/>
    <path d="m363.7169,395.29189c-0.218,0 -0.437,-0.013 -0.654,-0.039c-0.052,-0.006 -0.1,-0.033 -0.133,-0.075c-0.032,-0.042 -0.047,-0.095 -0.04,-0.147c0.006,-0.052 0.033,-0.1 0.075,-0.132c0.041,-0.032 0.093,-0.048 0.145,-0.042c8.057,0.953 18.528,-18.246 18.632,-18.437c0.01,-0.027 0.026,-0.051 0.046,-0.071c0.02,-0.02 0.045,-0.036 0.072,-0.046c0.026,-0.01 0.055,-0.014 0.084,-0.012c0.028,0.002 0.056,0.01 0.081,0.024c0.025,0.013 0.047,0.032 0.064,0.055c0.017,0.023 0.029,0.049 0.036,0.077c0.006,0.028 0.006,0.057 0,0.085c-0.006,0.028 -0.018,0.055 -0.035,0.078c-1.876,3.369 -3.99,6.601 -6.324,9.67c-4.613,5.987 -8.659,9.012 -12.049,9.012z" fill="#FFF0FF" id="svg_128"/>
    <path d="m364.6219,400.41689l-23.655,-136.074c-0.019,-0.134 -0.065,-0.262 -0.135,-0.378c-0.069,-0.115 -0.161,-0.216 -0.271,-0.295c-0.109,-0.079 -0.233,-0.136 -0.364,-0.166c-0.132,-0.03 -0.268,-0.034 -0.401,-0.011c-0.133,0.024 -0.26,0.073 -0.373,0.147c-0.113,0.073 -0.211,0.168 -0.287,0.28c-0.075,0.112 -0.128,0.238 -0.154,0.37c-0.026,0.132 -0.025,0.269 0.002,0.401l1.826,10.507l-28.109,0l-1.887,-10.852c-0.019,-0.133 -0.065,-0.262 -0.134,-0.377c-0.07,-0.116 -0.162,-0.216 -0.272,-0.295c-0.109,-0.08 -0.233,-0.136 -0.364,-0.167c-0.132,-0.03 -0.268,-0.034 -0.401,-0.01c-0.133,0.023 -0.26,0.073 -0.373,0.146c-0.113,0.074 -0.211,0.169 -0.287,0.281c-0.075,0.111 -0.128,0.237 -0.154,0.369c-0.026,0.133 -0.025,0.269 0.002,0.401l23.655,136.076c0.04,0.234 0.162,0.445 0.343,0.598c0.181,0.152 0.41,0.236 0.647,0.235c0.058,0.001 0.116,-0.004 0.174,-0.013c0.13,-0.023 0.254,-0.071 0.366,-0.142c0.112,-0.071 0.209,-0.163 0.285,-0.271c0.076,-0.109 0.13,-0.231 0.159,-0.36c0.028,-0.129 0.032,-0.262 0.009,-0.393l-2.595,-14.925l28.109,0l2.656,15.271c0.04,0.233 0.162,0.445 0.343,0.597c0.181,0.153 0.41,0.236 0.647,0.236c0.058,0.001 0.116,-0.004 0.174,-0.013c0.131,-0.023 0.256,-0.071 0.368,-0.143c0.112,-0.071 0.209,-0.164 0.285,-0.273c0.077,-0.109 0.13,-0.232 0.159,-0.362c0.028,-0.13 0.03,-0.264 0.007,-0.395zm-39.022,-51.019l28.109,0l2.783,16.033l-28.106,0l-2.786,-16.033zm21.484,-38.116l-28.109,0l-2.783,-16.033l28.109,0l2.783,16.033zm0.348,2.014l2.783,16.033l-28.102,0l-2.783,-16.033l28.102,0zm3.131,18.047l2.783,16.034l-28.096,0l-2.783,-16.034l28.096,0zm-9.403,-54.134l2.783,16.033l-28.104,0l-2.783,-16.033l28.104,0zm-9.636,106.272l-2.783,-16.033l28.099,0l2.783,16.033l-28.099,0z" fill="#544DC9" id="svg_127"/>
    <path d="m325.0099,266.11189c0,0 -1.027,-1.767 -1.374,-2.473c-0.473,-0.969 -3.115,-4.229 -3.043,-2.681c0.066,1.425 2.075,6.034 2.075,6.034l2.342,-0.88z" fill="#FFA2D0" id="svg_126"/>
    <path d="m322.6699,266.99189c0,0 -1.327,-0.767 -2.076,-1.847c-0.43,-0.618 -0.661,-1.044 -0.237,-1.082c0.425,-0.038 0.927,1.082 1.623,1.082l0.69,1.847z" fill="#FFA2D0" id="svg_125"/>
    <path d="m354.9269,360.71189c0,0 0.727,2.379 0.929,3.151c0.202,0.773 -2.957,2.825 -2.957,2.825l-5.71,0c0.446,-0.645 1.011,-1.2 1.664,-1.635c1.131,-0.772 2.435,-1.903 2.261,-3.449l3.813,-0.892z" fill="#31006D" id="svg_124"/>
    <path d="m333.8829,342.79989c0,0 1.24,1.547 1.096,2.498c-0.145,0.951 -2.524,3.343 -2.524,3.343l-3.856,0c0,0 1.179,-1.379 1.299,-2.212c0.12,-0.834 -0.535,-4.044 -0.535,-4.044l4.52,0.415z" fill="#31006D" id="svg_123"/>
    <path d="m320.8389,321.02189c0.899,7.444 7.479,21.623 7.479,21.623c0,0 3.182,2.025 6.653,0l-3.729,-20.209l-10.403,-1.414z" fill="#4325AC" id="svg_122"/>
    <path d="m349.9059,311.87489c0,0 1.913,9.853 1.477,13.256c-0.437,3.402 4.478,35.574 4.478,35.574c0,0 -1.217,1.181 -5.955,1.317c0,0 -6.542,-20.177 -8.787,-31c-1.013,-4.87 -0.87,-5.566 -0.87,-5.566c0,0 -1.553,0.788 -9.276,0.682c-15.511,-0.216 -11.131,-10.029 -1.932,-13.313l20.865,-0.95z" fill="#553CF6" id="svg_121"/>
    <path d="m350.3259,314.21889c-0.24,-1.401 -0.422,-2.344 -0.422,-2.344l-16.837,-0.671l-4.025,1.628c0,0 5.11,2.932 12.697,2.769c7.587,-0.164 8.586,-1.382 8.587,-1.382z" fill="#4325AC" id="svg_120"/>
    <path d="m341.2769,281.75489c0,0 -7.144,1.366 -15.732,-15.782l-3.827,0.991c0,0 2.18,14.014 9.415,22.455l10.144,-7.664z" fill="#85D4FF" id="svg_119"/>
    <path d="m336.8469,279.69389l0.391,5.369l5.578,-1.062l-0.996,-5.523l-4.973,1.216z" fill="#FFA2D0" id="svg_118"/>
    <path d="m341.2779,281.75489c-5.901,0.326 -7.669,8.199 -9.262,13.08c-1.593,4.881 -2.087,17.045 -2.087,17.045c0,0 3.131,1.566 11.986,1.392c4.945,-0.099 9.625,-1.392 9.625,-1.392c0,0 1.19,-30.754 -10.262,-30.125z" fill="#BDEAFF" id="svg_117"/>
    <path d="m332.0199,294.83489c1.07,-3.278 2.214,-7.903 4.649,-10.686c0.971,0.036 1.833,0.72 2.595,2.424c1.818,4.062 -1.076,13.101 -8.044,14.279l-0.447,0.069c0.309,-2.247 0.716,-4.465 1.247,-6.086z" fill="#85BCFF" id="svg_116"/>
    <path d="m339.2619,286.17089c1.817,3.401 -1.077,10.972 -8.045,11.96c-6.967,0.988 -15.534,-1.391 -19.915,-5.98l1.325,-3.219c0,0 6.005,2.685 12.564,0.948c6.559,-1.738 11.079,-9.313 14.071,-3.709z" fill="#D4F7FF" id="svg_115"/>
    <path d="m311.6749,291.24489c0,0 -5.811,-1.913 -5.914,-2.889c-0.102,-0.976 1.141,-1.452 2.71,-1.167c1.569,0.285 4.148,1.739 4.148,1.739l-0.944,2.317z" fill="#FFA2D0" id="svg_114"/>
    <path d="m340.3619,280.00389c-0.869,0.935 -2.087,1.539 -3.36,1.826l-0.155,-2.136l3.347,-0.817l0.168,1.127z" fill="#FF6692" id="svg_113"/>
    <path d="m341.6279,269.17689c4.144,1.579 2.422,6.981 1.247,8.851c-1.176,1.87 -4.26,2.609 -6.61,2.31c-2.35,-0.299 -2.129,-2.202 -1.762,-4.406c0.367,-2.204 0.955,-9.107 7.125,-6.755z" fill="#FFA2D0" id="svg_112"/>
    <path d="m339.2629,275.03289c0,0 -1.055,2.077 -1.565,1.217c-0.51,-0.859 0,-5.318 0,-5.318c0,0 -6.129,-5.566 -3.141,-8.001c2.988,-2.435 6.738,4.913 6.738,4.913c0,0 -0.607,-2.583 1.115,-2.435c1.722,0.148 4.308,3.341 3.395,5.168l-0.558,1.115c0,0 1.115,-0.66 1.621,0.607c0.506,1.266 -0.851,2.353 -1.823,2.483c0,0 -1.633,5.078 -3.6,4.585c-0.91,-0.228 -0.442,-2.476 -0.442,-2.476l-1.74,-1.858z" fill="#31006D" id="svg_111"/>
    <path d="m339.2569,275.03189c0,0 0.87,-1.975 2.087,-1.316c1.218,0.659 0.508,4.204 -2.532,3.652l0.445,-2.336z" fill="#FFA2D0" id="svg_110"/>
    <path d="m317.6289,282.77989c6.552,-6.552 6.552,-17.176 0,-23.729c-6.553,-6.553 -17.177,-6.553 -23.73,0c-6.552,6.553 -6.552,17.177 0,23.729c6.553,6.553 17.177,6.553 23.73,0z" fill="#FFC800" id="svg_109"/>
    <path d="m305.7629,255.60589c4.323,0.001 8.479,1.669 11.602,4.658c3.123,2.989 4.972,7.067 5.162,11.386c0.01,-0.244 0.015,-0.489 0.015,-0.734c0,-4.45 -1.768,-8.718 -4.914,-11.865c-3.147,-3.147 -7.415,-4.914 -11.865,-4.914c-4.45,0 -8.718,1.767 -11.865,4.914c-3.146,3.147 -4.914,7.415 -4.914,11.865c0,0.245 0,0.49 0.015,0.734c0.19,-4.319 2.04,-8.397 5.162,-11.386c3.123,-2.989 7.279,-4.657 11.602,-4.658z" fill="#FFCD7D" id="svg_108"/>
    <path d="m314.9019,280.05389c5.047,-5.047 5.047,-13.23 0,-18.276c-5.047,-5.047 -13.229,-5.047 -18.276,0c-5.047,5.046 -5.047,13.229 0,18.276c5.047,5.047 13.229,5.047 18.276,0z" fill="#FF9E24" id="svg_107"/>
    <path d="m311.3809,274.51789c0,-3.305 -2.609,-4.155 -4.763,-5.004l0,-3.945c0.442,0.111 0.842,0.347 1.152,0.68c0.246,0.259 0.573,0.427 0.928,0.476c0.354,0.049 0.714,-0.024 1.022,-0.206c0.205,-0.121 0.381,-0.286 0.514,-0.484c0.134,-0.197 0.221,-0.422 0.256,-0.658c0.034,-0.236 0.016,-0.477 -0.055,-0.704c-0.071,-0.228 -0.192,-0.437 -0.354,-0.612c-0.913,-0.964 -2.141,-1.57 -3.463,-1.708l0,-1.043c0.001,-0.139 -0.027,-0.277 -0.08,-0.406c-0.053,-0.128 -0.131,-0.245 -0.229,-0.343c-0.098,-0.099 -0.215,-0.177 -0.343,-0.23c-0.128,-0.053 -0.266,-0.081 -0.405,-0.081c-0.281,0 -0.551,0.112 -0.749,0.311c-0.199,0.198 -0.31,0.468 -0.31,0.749l0,1.069c-2.262,0.4 -4.175,1.978 -4.175,4.696c0,2.928 2.113,4.05 4.175,4.871l0,4.174c-0.55,-0.155 -1.042,-0.466 -1.418,-0.896c-0.243,-0.286 -0.578,-0.478 -0.947,-0.544c-0.37,-0.066 -0.751,-0.002 -1.078,0.182l-0.113,0.067c-0.198,0.113 -0.369,0.267 -0.502,0.453c-0.133,0.186 -0.224,0.398 -0.267,0.622c-0.044,0.224 -0.038,0.455 0.016,0.677c0.054,0.222 0.156,0.429 0.298,0.608c0.934,1.144 2.315,1.875 4.011,2.103l0,1.123c0,0.281 0.112,0.55 0.31,0.748c0.199,0.198 0.468,0.31 0.749,0.31c0.28,0 0.549,-0.112 0.748,-0.31c0.198,-0.198 0.309,-0.467 0.309,-0.748l0,-1.094c2.74,-0.316 4.763,-2.056 4.763,-4.903zm-7.827,-7.418c-0.006,-0.307 0.081,-0.608 0.249,-0.864c0.167,-0.257 0.409,-0.457 0.692,-0.575l0,2.849c-0.68,-0.431 -0.934,-0.848 -0.934,-1.407l-0.007,-0.003zm3.057,9.093l0,-3.395c0.962,0.449 1.501,0.92 1.501,1.739c0.007,0.741 -0.438,1.416 -1.494,1.656l-0.007,0z" fill="#FFD18A" id="svg_106"/>
    <path d="m327.2489,353.17889c0.001,0.307 -0.06,0.611 -0.177,0.895c-0.117,0.284 -0.289,0.542 -0.507,0.759c-0.217,0.217 -0.475,0.389 -0.758,0.506c-0.284,0.118 -0.588,0.178 -0.896,0.178l-9.455,0l0,-4.676l9.455,0c0.62,0 1.215,0.246 1.653,0.685c0.439,0.438 0.685,1.033 0.685,1.653z" fill="#FD6000" id="svg_105"/>
    <path d="m324.3309,317.67389l0,70.4c0,0.358 -0.07,0.713 -0.207,1.044c-0.137,0.332 -0.338,0.633 -0.592,0.886c-0.253,0.254 -0.554,0.455 -0.885,0.592c-0.332,0.138 -0.687,0.208 -1.045,0.208l-109.993,0l0,-70.964c0,-1.297 0.516,-2.541 1.433,-3.458c0.917,-0.917 2.161,-1.433 3.458,-1.433l105.095,0c0.359,-0.001 0.714,0.069 1.046,0.205c0.331,0.137 0.633,0.337 0.887,0.59c0.254,0.254 0.456,0.554 0.594,0.886c0.137,0.331 0.208,0.686 0.209,1.044z" fill="#C44500" id="svg_104"/>
    <path d="m242.9109,335.40089c9.267,0 16.78,-7.512 16.78,-16.779c0,-9.267 -7.513,-16.779 -16.78,-16.779c-9.266,0 -16.779,7.512 -16.779,16.779c0,9.267 7.513,16.779 16.779,16.779z" fill="#FFC800" id="svg_103"/>
    <path d="m242.9159,303.31189c4.323,0.001 8.479,1.669 11.602,4.659c3.123,2.989 4.972,7.068 5.162,11.387c0.01,-0.244 0.017,-0.489 0.017,-0.736c0,-4.451 -1.768,-8.721 -4.916,-11.868c-3.147,-3.148 -7.417,-4.916 -11.868,-4.916c-4.452,0 -8.721,1.768 -11.869,4.916c-3.147,3.147 -4.916,7.417 -4.916,11.868c0,0.247 0.006,0.492 0.016,0.736c0.19,-4.321 2.04,-8.401 5.165,-11.39c3.124,-2.99 7.283,-4.657 11.607,-4.656z" fill="#FFCD7D" id="svg_102"/>
    <path d="m242.9109,331.54489c7.137,0 12.923,-5.786 12.923,-12.923c0,-7.137 -5.786,-12.923 -12.923,-12.923c-7.137,0 -12.923,5.786 -12.923,12.923c0,7.137 5.786,12.923 12.923,12.923z" fill="#FF9E24" id="svg_101"/>
    <path d="m248.5289,322.22389c0,-3.305 -2.609,-4.153 -4.763,-5.002l0,-3.947c0.442,0.111 0.842,0.348 1.152,0.682c0.247,0.259 0.574,0.426 0.928,0.475c0.354,0.048 0.714,-0.025 1.022,-0.207c0.205,-0.121 0.381,-0.286 0.514,-0.484c0.134,-0.197 0.221,-0.422 0.256,-0.658c0.034,-0.236 0.016,-0.477 -0.055,-0.704c-0.071,-0.228 -0.191,-0.437 -0.354,-0.612c-0.914,-0.962 -2.142,-1.566 -3.463,-1.703l0,-1.043c0,-0.281 -0.111,-0.55 -0.309,-0.749c-0.198,-0.198 -0.467,-0.31 -0.748,-0.31c-0.281,0 -0.55,0.111 -0.749,0.31c-0.199,0.198 -0.31,0.468 -0.31,0.749l0,1.07c-2.261,0.4 -4.175,1.979 -4.175,4.696c0,2.927 2.114,4.051 4.175,4.87l0,4.174c-0.549,-0.154 -1.042,-0.465 -1.418,-0.894c-0.243,-0.286 -0.578,-0.479 -0.947,-0.545c-0.37,-0.066 -0.751,-0.001 -1.077,0.183l-0.113,0.066c-0.199,0.114 -0.37,0.268 -0.503,0.454c-0.133,0.186 -0.224,0.398 -0.267,0.622c-0.043,0.224 -0.037,0.455 0.017,0.677c0.055,0.222 0.156,0.429 0.299,0.608c0.932,1.142 2.313,1.873 4,2.101l0,1.123c0,0.281 0.112,0.551 0.31,0.749c0.199,0.199 0.468,0.311 0.749,0.311c0.281,-0.001 0.55,-0.113 0.748,-0.311c0.198,-0.199 0.31,-0.468 0.31,-0.749l0,-1.094c2.744,-0.33 4.771,-2.054 4.771,-4.908zm-7.827,-7.416c-0.006,-0.307 0.08,-0.608 0.248,-0.865c0.168,-0.257 0.409,-0.457 0.693,-0.574l0,2.849c-0.68,-0.431 -0.934,-0.85 -0.934,-1.41l-0.007,0zm3.058,9.091l0,-3.399c0.961,0.447 1.501,0.919 1.501,1.74c0.007,0.737 -0.434,1.421 -1.495,1.659l-0.006,0z" fill="#FFD18A" id="svg_100"/>
    <path d="m289.7429,335.40089c9.267,0 16.78,-7.512 16.78,-16.779c0,-9.267 -7.513,-16.779 -16.78,-16.779c-9.266,0 -16.779,7.512 -16.779,16.779c0,9.267 7.513,16.779 16.779,16.779z" fill="#FFC800" id="svg_99"/>
    <path d="m289.7439,303.31189c4.323,0.001 8.479,1.669 11.602,4.659c3.123,2.989 4.972,7.068 5.162,11.387c0.01,-0.244 0.015,-0.489 0.015,-0.736c0,-4.451 -1.768,-8.721 -4.916,-11.868c-3.147,-3.148 -7.417,-4.916 -11.868,-4.916c-4.452,0 -8.721,1.768 -11.868,4.916c-3.148,3.147 -4.917,7.417 -4.917,11.868c0,0.247 0,0.492 0.018,0.736c0.189,-4.321 2.04,-8.401 5.164,-11.39c3.125,-2.99 7.284,-4.657 11.608,-4.656z" fill="#FFCD7D" id="svg_98"/>
    <path d="m289.7429,331.54489c7.137,0 12.923,-5.786 12.923,-12.923c0,-7.137 -5.786,-12.923 -12.923,-12.923c-7.137,0 -12.923,5.786 -12.923,12.923c0,7.137 5.786,12.923 12.923,12.923z" fill="#FF9E24" id="svg_97"/>
    <path d="m295.3619,322.22389c0,-3.304 -2.609,-4.153 -4.76,-5.002l0,-3.946c0.441,0.11 0.841,0.347 1.151,0.681c0.246,0.259 0.573,0.426 0.927,0.475c0.354,0.049 0.714,-0.024 1.021,-0.207c0.206,-0.12 0.382,-0.285 0.515,-0.483c0.134,-0.198 0.221,-0.423 0.256,-0.659c0.035,-0.235 0.016,-0.476 -0.054,-0.704c-0.071,-0.228 -0.191,-0.437 -0.353,-0.611c-0.914,-0.964 -2.143,-1.569 -3.463,-1.707l0,-1.043c0,-0.281 -0.112,-0.55 -0.31,-0.749c-0.198,-0.198 -0.467,-0.31 -0.748,-0.311c-0.139,0.001 -0.277,0.028 -0.406,0.082c-0.128,0.053 -0.245,0.132 -0.343,0.23c-0.098,0.099 -0.176,0.216 -0.229,0.345c-0.053,0.129 -0.08,0.267 -0.079,0.406l0,1.07c-2.262,0.4 -4.175,1.979 -4.175,4.696c0,2.927 2.113,4.051 4.175,4.87l0,4.174c-0.55,-0.154 -1.043,-0.465 -1.42,-0.894c-0.242,-0.286 -0.577,-0.478 -0.946,-0.544c-0.369,-0.066 -0.75,-0.002 -1.077,0.183l-0.114,0.066c-0.198,0.113 -0.37,0.268 -0.502,0.454c-0.133,0.185 -0.224,0.398 -0.267,0.622c-0.043,0.224 -0.038,0.455 0.017,0.676c0.054,0.222 0.156,0.429 0.298,0.608c0.932,1.143 2.313,1.873 4.011,2.101l0,1.124c0,0.281 0.111,0.55 0.31,0.749c0.198,0.198 0.468,0.31 0.749,0.31c0.28,0 0.549,-0.112 0.748,-0.311c0.198,-0.198 0.309,-0.468 0.309,-0.748l0,-1.094c2.733,-0.331 4.759,-2.054 4.759,-4.909zm-7.827,-7.416c-0.005,-0.308 0.083,-0.61 0.253,-0.867c0.17,-0.257 0.413,-0.456 0.699,-0.572l0,2.849c-0.696,-0.431 -0.943,-0.85 -0.943,-1.41l-0.009,0zm3.058,9.091l0,-3.398c0.962,0.447 1.501,0.918 1.501,1.739c0.009,0.737 -0.437,1.421 -1.492,1.659l-0.009,0z" fill="#FFD18A" id="svg_96"/>
    <path d="m278.1969,319.76189c6.553,-6.552 6.553,-17.176 0,-23.729c-6.553,-6.553 -17.177,-6.553 -23.729,0c-6.553,6.553 -6.553,17.177 0,23.729c6.552,6.553 17.176,6.553 23.729,0z" fill="#FFC800" id="svg_95"/>
    <path d="m266.3299,292.58789c4.323,0 8.48,1.668 11.603,4.657c3.123,2.99 4.972,7.069 5.162,11.388c0.01,-0.245 0.016,-0.489 0.016,-0.736c0,-4.45 -1.768,-8.718 -4.915,-11.864c-3.147,-3.147 -7.414,-4.915 -11.865,-4.915c-4.45,0 -8.718,1.768 -11.864,4.915c-3.147,3.146 -4.915,7.414 -4.915,11.864c0,0.247 0,0.491 0.016,0.736c0.189,-4.318 2.038,-8.397 5.161,-11.386c3.122,-2.99 7.278,-4.658 11.601,-4.659z" fill="#FFCD7D" id="svg_94"/>
    <path d="m278.3859,311.77089c1.642,-6.923 -2.64,-13.866 -9.563,-15.508c-6.923,-1.642 -13.866,2.64 -15.508,9.563c-1.641,6.923 2.64,13.866 9.564,15.508c6.923,1.642 13.866,-2.64 15.507,-9.563z" fill="#FF9E24" id="svg_93"/>
    <path d="m271.9469,311.49989c0,-3.305 -2.609,-4.154 -4.76,-5.004l0,-3.945c0.441,0.111 0.842,0.348 1.151,0.682c0.247,0.258 0.574,0.426 0.928,0.474c0.354,0.049 0.715,-0.024 1.022,-0.206c0.206,-0.121 0.381,-0.286 0.515,-0.484c0.133,-0.198 0.22,-0.423 0.255,-0.659c0.035,-0.235 0.016,-0.476 -0.055,-0.704c-0.07,-0.227 -0.191,-0.436 -0.353,-0.611c-0.914,-0.964 -2.142,-1.569 -3.463,-1.706l0,-1.044c0,-0.281 -0.112,-0.55 -0.31,-0.748c-0.198,-0.199 -0.467,-0.311 -0.748,-0.311c-0.281,0 -0.55,0.111 -0.749,0.31c-0.198,0.199 -0.31,0.468 -0.31,0.749l0,1.07c-2.261,0.4 -4.174,1.979 -4.174,4.696c0,2.927 2.113,4.049 4.174,4.87l0,4.174c-0.55,-0.154 -1.042,-0.465 -1.419,-0.894c-0.243,-0.286 -0.577,-0.478 -0.947,-0.545c-0.369,-0.066 -0.75,-0.001 -1.076,0.184l-0.113,0.066c-0.198,0.113 -0.37,0.268 -0.503,0.453c-0.133,0.186 -0.224,0.398 -0.267,0.622c-0.043,0.224 -0.038,0.455 0.017,0.677c0.054,0.222 0.155,0.429 0.297,0.608c0.934,1.143 2.313,1.873 4.011,2.101l0,1.124c0,0.28 0.112,0.549 0.311,0.748c0.198,0.198 0.468,0.309 0.748,0.309c0.281,0 0.55,-0.111 0.748,-0.31c0.198,-0.198 0.31,-0.467 0.31,-0.747l0,-1.094c2.734,-0.327 4.76,-2.051 4.76,-4.905zm-7.827,-7.417c-0.006,-0.307 0.081,-0.608 0.249,-0.865c0.168,-0.257 0.409,-0.457 0.692,-0.575l0,2.849c-0.678,-0.431 -0.923,-0.849 -0.923,-1.409l-0.018,0zm3.058,9.092l0,-3.394c0.962,0.447 1.501,0.919 1.501,1.74c0.009,0.732 -0.437,1.415 -1.492,1.654l-0.009,0z" fill="#FFD18A" id="svg_92"/>
    <path d="m315.4589,325.17589l0,4.44l-95.105,0c-2.709,0 -4.997,-2.216 -4.978,-4.925c0.01,-1.291 0.53,-2.526 1.446,-3.436c0.916,-0.91 2.154,-1.42 3.445,-1.421l89.85,0c1.417,0 2.776,0.563 3.777,1.565c1.002,1.002 1.565,2.36 1.565,3.777z" fill="#F77E00" id="svg_91"/>
    <path d="m216.5059,324.72489c-1.298,0 -2.542,-0.515 -3.459,-1.432c-0.917,-0.917 -1.432,-2.161 -1.432,-3.459l0,78.021c0,0.359 0.07,0.714 0.207,1.045c0.138,0.332 0.339,0.633 0.592,0.886c0.254,0.254 0.555,0.455 0.886,0.592c0.332,0.137 0.687,0.208 1.045,0.208l103.76,0c0.724,0 1.419,-0.288 1.931,-0.8c0.512,-0.512 0.8,-1.207 0.8,-1.931l0,-70.397c0,-0.724 -0.288,-1.419 -0.8,-1.931c-0.512,-0.512 -1.207,-0.8 -1.931,-0.8l-101.599,-0.002z" fill="#F05B00" id="svg_90"/>
    <path d="m216.9999,395.20589l-2.446,0c-0.124,-0.008 -0.242,-0.062 -0.327,-0.153c-0.086,-0.091 -0.134,-0.212 -0.134,-0.337c0,-0.125 0.048,-0.245 0.134,-0.336c0.085,-0.091 0.203,-0.146 0.327,-0.153l2.446,0c0.067,-0.004 0.134,0.005 0.196,0.028c0.063,0.023 0.121,0.058 0.169,0.104c0.049,0.046 0.088,0.101 0.114,0.163c0.027,0.061 0.041,0.127 0.041,0.194c0,0.067 -0.014,0.133 -0.041,0.195c-0.026,0.061 -0.065,0.116 -0.114,0.162c-0.048,0.046 -0.106,0.081 -0.169,0.104c-0.062,0.023 -0.129,0.033 -0.196,0.029z" fill="#FF9100" id="svg_89"/>
    <path d="m312.5639,395.20589l-2.725,0c-0.125,-0.007 -0.242,-0.062 -0.328,-0.153c-0.086,-0.091 -0.134,-0.211 -0.134,-0.336c0,-0.125 0.048,-0.246 0.134,-0.337c0.086,-0.091 0.203,-0.146 0.328,-0.153l2.725,0c0.288,0.001 0.573,-0.064 0.832,-0.189c0.26,-0.125 0.487,-0.308 0.666,-0.535c0.08,-0.101 0.198,-0.166 0.327,-0.181c0.129,-0.015 0.258,0.022 0.36,0.103c0.101,0.081 0.167,0.199 0.181,0.328c0.015,0.128 -0.022,0.258 -0.103,0.359c-0.27,0.342 -0.613,0.618 -1.005,0.808c-0.392,0.189 -0.822,0.287 -1.258,0.286zm-7.613,0l-4.886,0c-0.124,-0.007 -0.242,-0.062 -0.327,-0.153c-0.086,-0.091 -0.134,-0.211 -0.134,-0.336c0,-0.125 0.048,-0.246 0.134,-0.337c0.085,-0.091 0.203,-0.146 0.327,-0.153l4.886,0c0.067,-0.004 0.134,0.006 0.197,0.029c0.062,0.022 0.12,0.058 0.169,0.104c0.048,0.046 0.087,0.101 0.114,0.162c0.026,0.062 0.04,0.128 0.04,0.195c0,0.067 -0.014,0.133 -0.04,0.194c-0.027,0.061 -0.066,0.117 -0.114,0.163c-0.049,0.046 -0.107,0.081 -0.169,0.104c-0.063,0.023 -0.13,0.032 -0.197,0.028zm-9.771,0l-4.888,0c-0.125,-0.007 -0.242,-0.062 -0.328,-0.153c-0.085,-0.091 -0.133,-0.211 -0.133,-0.336c0,-0.125 0.048,-0.246 0.133,-0.337c0.086,-0.091 0.203,-0.146 0.328,-0.153l4.888,0c0.124,0.007 0.242,0.062 0.327,0.153c0.086,0.091 0.134,0.212 0.134,0.337c0,0.125 -0.048,0.245 -0.134,0.336c-0.085,0.091 -0.203,0.146 -0.327,0.153zm-9.774,0l-4.887,0c-0.125,-0.007 -0.242,-0.062 -0.328,-0.153c-0.086,-0.091 -0.133,-0.211 -0.133,-0.336c0,-0.125 0.047,-0.246 0.133,-0.337c0.086,-0.091 0.203,-0.146 0.328,-0.153l4.887,0c0.125,0.007 0.242,0.062 0.328,0.153c0.086,0.091 0.134,0.212 0.134,0.337c0,0.125 -0.048,0.245 -0.134,0.336c-0.086,0.091 -0.203,0.146 -0.328,0.153zm-9.773,0l-4.889,0c-0.125,-0.007 -0.242,-0.062 -0.328,-0.153c-0.086,-0.091 -0.133,-0.211 -0.133,-0.336c0,-0.125 0.047,-0.246 0.133,-0.337c0.086,-0.091 0.203,-0.146 0.328,-0.153l4.887,0c0.125,0.007 0.242,0.062 0.328,0.153c0.086,0.091 0.134,0.212 0.134,0.337c0,0.125 -0.048,0.245 -0.134,0.336c-0.086,0.091 -0.203,0.146 -0.328,0.153l0.002,0zm-9.773,0l-4.888,0c-0.124,-0.007 -0.242,-0.062 -0.327,-0.153c-0.086,-0.091 -0.134,-0.211 -0.134,-0.336c0,-0.125 0.048,-0.246 0.134,-0.337c0.085,-0.091 0.203,-0.146 0.327,-0.153l4.888,0c0.125,0.007 0.242,0.062 0.328,0.153c0.085,0.091 0.133,0.212 0.133,0.337c0,0.125 -0.048,0.245 -0.133,0.336c-0.086,0.091 -0.203,0.146 -0.328,0.153zm-9.773,0l-4.886,0c-0.067,0.004 -0.134,-0.005 -0.197,-0.028c-0.063,-0.023 -0.12,-0.058 -0.169,-0.104c-0.048,-0.046 -0.087,-0.102 -0.114,-0.163c-0.026,-0.061 -0.04,-0.127 -0.04,-0.194c0,-0.067 0.014,-0.133 0.04,-0.195c0.027,-0.061 0.066,-0.116 0.114,-0.162c0.049,-0.046 0.106,-0.082 0.169,-0.104c0.063,-0.023 0.13,-0.033 0.197,-0.029l4.886,0c0.124,0.007 0.242,0.062 0.327,0.153c0.086,0.091 0.134,0.212 0.134,0.337c0,0.125 -0.048,0.245 -0.134,0.336c-0.085,0.091 -0.203,0.146 -0.327,0.153zm-9.774,0l-4.885,0c-0.067,0.004 -0.134,-0.005 -0.197,-0.028c-0.063,-0.023 -0.12,-0.058 -0.169,-0.104c-0.049,-0.046 -0.087,-0.102 -0.114,-0.163c-0.026,-0.061 -0.04,-0.127 -0.04,-0.194c0,-0.067 0.014,-0.133 0.04,-0.195c0.027,-0.061 0.065,-0.116 0.114,-0.162c0.049,-0.046 0.106,-0.082 0.169,-0.104c0.063,-0.023 0.13,-0.033 0.197,-0.029l4.885,0c0.125,0.007 0.242,0.062 0.328,0.153c0.086,0.091 0.134,0.212 0.134,0.337c0,0.125 -0.048,0.245 -0.134,0.336c-0.086,0.091 -0.203,0.146 -0.328,0.153zm-9.773,0l-4.886,0c-0.125,-0.007 -0.242,-0.062 -0.328,-0.153c-0.085,-0.091 -0.133,-0.211 -0.133,-0.336c0,-0.125 0.048,-0.246 0.133,-0.337c0.086,-0.091 0.203,-0.146 0.328,-0.153l4.886,0c0.125,0.007 0.242,0.062 0.328,0.153c0.086,0.091 0.133,0.212 0.133,0.337c0,0.125 -0.047,0.245 -0.133,0.336c-0.086,0.091 -0.203,0.146 -0.328,0.153zm-9.773,0l-4.886,0c-0.125,-0.007 -0.242,-0.062 -0.328,-0.153c-0.086,-0.091 -0.133,-0.211 -0.133,-0.336c0,-0.125 0.047,-0.246 0.133,-0.337c0.086,-0.091 0.203,-0.146 0.328,-0.153l4.886,0c0.067,-0.004 0.133,0.006 0.196,0.029c0.063,0.022 0.121,0.058 0.169,0.104c0.049,0.046 0.088,0.101 0.114,0.162c0.027,0.062 0.04,0.128 0.04,0.195c0,0.067 -0.013,0.133 -0.04,0.194c-0.026,0.061 -0.065,0.117 -0.114,0.163c-0.048,0.046 -0.106,0.081 -0.169,0.104c-0.063,0.023 -0.129,0.032 -0.196,0.028zm88.199,-5.677c-0.064,0 -0.128,-0.012 -0.187,-0.037c-0.06,-0.024 -0.114,-0.06 -0.16,-0.105c-0.045,-0.046 -0.081,-0.1 -0.106,-0.159c-0.025,-0.06 -0.037,-0.123 -0.037,-0.188l0,-4.88c0.007,-0.125 0.062,-0.242 0.153,-0.328c0.091,-0.086 0.211,-0.133 0.336,-0.133c0.125,0 0.246,0.047 0.337,0.133c0.091,0.086 0.146,0.203 0.153,0.328l0,4.886c-0.001,0.128 -0.054,0.251 -0.145,0.342c-0.092,0.09 -0.215,0.141 -0.344,0.141zm0,-9.771c-0.13,0 -0.255,-0.052 -0.347,-0.144c-0.092,-0.092 -0.143,-0.217 -0.143,-0.347l0,-4.886c0.007,-0.124 0.062,-0.242 0.153,-0.327c0.091,-0.086 0.211,-0.134 0.336,-0.134c0.125,0 0.246,0.048 0.337,0.134c0.091,0.085 0.146,0.203 0.153,0.327l0,4.886c0,0.064 -0.012,0.128 -0.037,0.188c-0.024,0.059 -0.06,0.113 -0.106,0.159c-0.045,0.045 -0.099,0.082 -0.158,0.106c-0.06,0.025 -0.123,0.038 -0.188,0.038zm0,-9.774c-0.064,0.001 -0.128,-0.012 -0.187,-0.036c-0.06,-0.025 -0.114,-0.061 -0.16,-0.106c-0.045,-0.046 -0.081,-0.1 -0.106,-0.159c-0.025,-0.059 -0.037,-0.123 -0.037,-0.187l0,-4.888c0.007,-0.125 0.062,-0.242 0.153,-0.328c0.091,-0.085 0.211,-0.133 0.336,-0.133c0.125,0 0.246,0.048 0.337,0.133c0.091,0.086 0.146,0.203 0.153,0.328l0,4.888c0,0.064 -0.013,0.127 -0.037,0.187c-0.025,0.059 -0.061,0.113 -0.106,0.158c-0.046,0.046 -0.099,0.082 -0.159,0.106c-0.059,0.025 -0.123,0.037 -0.187,0.037zm0,-9.773c-0.064,0 -0.128,-0.012 -0.187,-0.037c-0.06,-0.024 -0.114,-0.06 -0.16,-0.105c-0.045,-0.046 -0.081,-0.1 -0.106,-0.159c-0.025,-0.06 -0.037,-0.123 -0.037,-0.188l0,-4.887c0.007,-0.125 0.062,-0.242 0.153,-0.328c0.091,-0.086 0.211,-0.133 0.336,-0.133c0.125,0 0.246,0.047 0.337,0.133c0.091,0.086 0.146,0.203 0.153,0.328l0,4.887c0,0.064 -0.013,0.128 -0.037,0.187c-0.025,0.06 -0.061,0.114 -0.106,0.159c-0.046,0.045 -0.099,0.081 -0.159,0.106c-0.059,0.024 -0.123,0.037 -0.187,0.037zm0,-9.773c-0.064,0 -0.128,-0.012 -0.187,-0.037c-0.06,-0.024 -0.114,-0.06 -0.16,-0.106c-0.045,-0.045 -0.081,-0.099 -0.106,-0.159c-0.025,-0.059 -0.037,-0.123 -0.037,-0.187l0,-4.887c0.007,-0.125 0.062,-0.243 0.153,-0.328c0.091,-0.086 0.211,-0.134 0.336,-0.134c0.125,0 0.246,0.048 0.337,0.134c0.091,0.085 0.146,0.203 0.153,0.328l0,4.887c0,0.13 -0.052,0.254 -0.143,0.346c-0.092,0.091 -0.216,0.143 -0.346,0.143zm0,-9.773c-0.064,0 -0.128,-0.013 -0.187,-0.037c-0.06,-0.025 -0.114,-0.061 -0.16,-0.106c-0.045,-0.045 -0.081,-0.099 -0.106,-0.159c-0.025,-0.059 -0.037,-0.123 -0.037,-0.187l0,-4.891c0.007,-0.125 0.062,-0.242 0.153,-0.328c0.091,-0.086 0.211,-0.133 0.336,-0.133c0.125,0 0.246,0.047 0.337,0.133c0.091,0.086 0.146,0.203 0.153,0.328l0,4.887c0,0.065 -0.012,0.129 -0.036,0.188c-0.025,0.06 -0.061,0.114 -0.106,0.16c-0.045,0.046 -0.099,0.082 -0.159,0.107c-0.059,0.025 -0.123,0.038 -0.188,0.038zm-1.271,-9.297c-0.08,-0.001 -0.159,-0.02 -0.23,-0.058c-0.277,-0.148 -0.586,-0.225 -0.901,-0.226l-3.708,0c-0.13,0 -0.254,-0.051 -0.346,-0.143c-0.091,-0.091 -0.143,-0.216 -0.143,-0.345c0,-0.13 0.052,-0.254 0.143,-0.346c0.092,-0.092 0.216,-0.143 0.346,-0.143l3.708,0c0.476,0.002 0.944,0.122 1.362,0.348c0.096,0.051 0.173,0.133 0.217,0.233c0.044,0.1 0.054,0.211 0.027,0.317c-0.026,0.106 -0.088,0.2 -0.174,0.267c-0.086,0.067 -0.192,0.103 -0.301,0.103l0,-0.007zm-9.725,-0.284l-4.887,0c-0.13,0 -0.254,-0.051 -0.346,-0.143c-0.092,-0.091 -0.143,-0.216 -0.143,-0.345c0,-0.13 0.051,-0.254 0.143,-0.346c0.092,-0.092 0.216,-0.143 0.346,-0.143l4.882,0c0.13,0 0.254,0.051 0.346,0.143c0.091,0.092 0.143,0.216 0.143,0.346c0,0.129 -0.052,0.254 -0.143,0.345c-0.092,0.092 -0.216,0.143 -0.346,0.143l0.005,0zm-9.773,0l-4.886,0c-0.129,0 -0.254,-0.051 -0.345,-0.143c-0.092,-0.091 -0.144,-0.216 -0.144,-0.345c0,-0.13 0.052,-0.254 0.144,-0.346c0.091,-0.092 0.216,-0.143 0.345,-0.143l4.886,0c0.13,0 0.254,0.051 0.346,0.143c0.091,0.092 0.143,0.216 0.143,0.346c0,0.129 -0.052,0.254 -0.143,0.345c-0.092,0.092 -0.216,0.143 -0.346,0.143zm-9.773,0l-4.886,0c-0.13,0 -0.254,-0.051 -0.346,-0.143c-0.091,-0.091 -0.143,-0.216 -0.143,-0.345c0,-0.13 0.052,-0.254 0.143,-0.346c0.092,-0.092 0.216,-0.143 0.346,-0.143l4.886,0c0.129,0 0.254,0.051 0.345,0.143c0.092,0.092 0.143,0.216 0.143,0.346c0,0.129 -0.051,0.254 -0.143,0.345c-0.091,0.092 -0.216,0.143 -0.345,0.143zm-9.774,0l-4.885,0c-0.13,0 -0.254,-0.051 -0.346,-0.143c-0.092,-0.091 -0.143,-0.216 -0.143,-0.345c0,-0.13 0.051,-0.254 0.143,-0.346c0.092,-0.092 0.216,-0.143 0.346,-0.143l4.885,0c0.13,0 0.254,0.051 0.346,0.143c0.092,0.092 0.143,0.216 0.143,0.346c0,0.129 -0.051,0.254 -0.143,0.345c-0.092,0.092 -0.216,0.143 -0.346,0.143zm-9.773,0l-4.886,0c-0.129,0 -0.254,-0.051 -0.345,-0.143c-0.092,-0.091 -0.143,-0.216 -0.143,-0.345c0,-0.13 0.051,-0.254 0.143,-0.346c0.091,-0.092 0.216,-0.143 0.345,-0.143l4.886,0c0.13,0 0.254,0.051 0.346,0.143c0.091,0.092 0.143,0.216 0.143,0.346c0,0.129 -0.052,0.254 -0.143,0.345c-0.092,0.092 -0.216,0.143 -0.346,0.143zm-9.773,0l-4.884,0c-0.13,0 -0.254,-0.051 -0.346,-0.143c-0.091,-0.091 -0.143,-0.216 -0.143,-0.345c0,-0.13 0.052,-0.254 0.143,-0.346c0.092,-0.092 0.216,-0.143 0.346,-0.143l4.886,0c0.129,0 0.254,0.051 0.345,0.143c0.092,0.092 0.143,0.216 0.143,0.346c0,0.129 -0.051,0.254 -0.143,0.345c-0.091,0.092 -0.216,0.143 -0.345,0.143l-0.002,0zm-9.772,0l-4.887,0c-0.13,0 -0.254,-0.051 -0.346,-0.143c-0.091,-0.091 -0.143,-0.216 -0.143,-0.345c0,-0.13 0.052,-0.254 0.143,-0.346c0.092,-0.092 0.216,-0.143 0.346,-0.143l4.887,0c0.13,0 0.254,0.051 0.346,0.143c0.092,0.092 0.143,0.216 0.143,0.346c0,0.129 -0.051,0.254 -0.143,0.345c-0.092,0.092 -0.216,0.143 -0.346,0.143zm-9.773,0l-4.887,0c-0.13,0 -0.254,-0.051 -0.346,-0.143c-0.092,-0.091 -0.143,-0.216 -0.143,-0.345c0,-0.13 0.051,-0.254 0.143,-0.346c0.092,-0.092 0.216,-0.143 0.346,-0.143l4.887,0c0.13,0 0.254,0.051 0.346,0.143c0.091,0.092 0.143,0.216 0.143,0.346c0,0.129 -0.052,0.254 -0.143,0.345c-0.092,0.092 -0.216,0.143 -0.346,0.143zm-9.773,0l-4.888,0c-0.129,0 -0.254,-0.051 -0.345,-0.143c-0.092,-0.091 -0.143,-0.216 -0.143,-0.345c0,-0.13 0.051,-0.254 0.143,-0.346c0.091,-0.092 0.216,-0.143 0.345,-0.143l4.888,0c0.129,0 0.254,0.051 0.345,0.143c0.092,0.092 0.144,0.216 0.144,0.346c0,0.129 -0.052,0.254 -0.144,0.345c-0.091,0.092 -0.216,0.143 -0.345,0.143z" fill="#FF9100" id="svg_88"/>
    <path d="m216.0159,330.99689c-0.028,0.003 -0.056,0.003 -0.084,0c-0.88,-0.138 -1.718,-0.47 -2.454,-0.972c-0.102,-0.076 -0.17,-0.188 -0.191,-0.314c-0.02,-0.125 0.009,-0.254 0.081,-0.358c0.073,-0.104 0.183,-0.176 0.308,-0.2c0.125,-0.025 0.254,0.001 0.361,0.07c0.619,0.418 1.322,0.695 2.061,0.811c0.12,0.02 0.229,0.085 0.304,0.182c0.075,0.097 0.111,0.219 0.101,0.341c-0.011,0.122 -0.066,0.235 -0.157,0.318c-0.09,0.083 -0.208,0.129 -0.33,0.129l0,-0.007z" fill="#FF9100" id="svg_87"/>
    <path d="m326.5679,354.83289c-0.217,0.217 -0.475,0.389 -0.759,0.507c-0.283,0.117 -0.588,0.177 -0.895,0.177l-18.089,0c-2.281,0.002 -4.467,0.91 -6.079,2.524c-1.613,1.613 -2.518,3.801 -2.518,6.082c0,1.13 0.223,2.249 0.655,3.293c0.433,1.044 1.067,1.993 1.866,2.792c0.799,0.799 1.748,1.433 2.792,1.865c1.044,0.432 2.163,0.655 3.293,0.654l17.971,0c0.649,0 1.271,-0.257 1.73,-0.716c0.459,-0.459 0.717,-1.082 0.717,-1.731l0,-17.103c0.001,0.308 -0.059,0.612 -0.177,0.896c-0.117,0.285 -0.289,0.543 -0.507,0.76z" fill="#FF8633" id="svg_86"/>
    <path d="m306.8329,368.03689c2.161,0 3.913,-1.753 3.913,-3.914c0,-2.161 -1.752,-3.913 -3.913,-3.913c-2.162,0 -3.914,1.752 -3.914,3.913c0,2.161 1.752,3.914 3.914,3.914z" fill="#FFCD7D" id="svg_85"/>
    <path d="m85.9304,398.97389c0,0 -2.282,0.683 -4.1014,0c-0.9462,-0.348 -1.5775,-8.871 -0.6313,-9.219c0.9461,-0.348 2.8385,4.613 3.1551,4.968l1.5776,1.772l0,2.479z" fill="#670957" id="svg_84"/>
    <path d="m141.2599,400.26789c-9.27,0 -23.781,-1.891 -28.199,-1.576c-4.418,0.315 -22.3975,1.578 -27.4451,0.631c0,0 -0.6313,-1.577 0,-4.732c0,0 21.4511,-6.624 26.4991,-7.255c5.047,-0.631 27.446,1.892 27.446,1.892l1.699,11.04z" fill="#FFA400" id="svg_83"/>
    <path d="m145.2369,342.53889c0.948,1.893 1.895,2.524 6.626,2.524c4.731,0 9.148,2.209 7.256,7.571c-1.892,5.363 -10.088,3.155 -13.882,1.893c-3.793,-1.263 -17.034,-1.261 -17.034,-6.626c0,-5.364 4.101,-4.73 4.732,-8.2l12.302,2.838z" fill="#31006D" id="svg_82"/>
    <path d="m104.4079,377.54989c-0.223,0.001 -0.442,-0.064 -0.628,-0.188c-0.186,-0.124 -0.33,-0.301 -0.415,-0.508l-5.2618,-13.013c-0.0495,-0.123 -0.0683,-0.256 -0.0545,-0.387c0.0138,-0.131 0.0596,-0.257 0.1334,-0.367c0.0739,-0.109 0.1735,-0.199 0.2901,-0.261c0.1167,-0.062 0.2468,-0.095 0.3789,-0.095l0.2244,0c0.1608,0 0.3179,0.048 0.4512,0.138c0.1333,0.09 0.2366,0.217 0.2967,0.366l5.3416,13.219c0.046,0.123 0.062,0.255 0.047,0.385c-0.016,0.13 -0.063,0.254 -0.138,0.362c-0.074,0.108 -0.174,0.196 -0.29,0.257c-0.116,0.06 -0.245,0.092 -0.376,0.092z" fill="#4100AD" id="svg_81"/>
    <path d="m120.8389,375.33789l-16.403,0c-0.61,0 -1.105,0.495 -1.105,1.104c0,0.61 0.495,1.105 1.105,1.105l16.403,0c0.61,0 1.105,-0.495 1.105,-1.105c0,-0.609 -0.495,-1.104 -1.105,-1.104z" fill="#4100AD" id="svg_80"/>
    <path d="m135.7759,349.79589c-5.363,1.261 -9.779,8.832 -11.673,13.248c-1.894,4.416 -8.523,5.044 -11.987,4.416c0,0 -1.576,2.524 -0.315,4.418c0,0 10.41,5.044 20.19,-1.263l3.785,-20.819z" fill="#7D27F7" id="svg_79"/>
    <path d="m142.7149,349.16389c4.732,1.578 11.041,4.719 11.041,20.191c0,6.939 -0.63,12.933 -0.63,12.933l-24.291,0c0,0 -1.261,-28.393 6.94,-32.492l6.94,-0.632z" fill="#7D27F7" id="svg_78"/>
    <path d="m128.7689,379.41189c2.515,0.427 7.1,0.452 12.998,-2.802c4.174,-2.307 6.19,-6.198 6.865,-9.982c0,0 -0.203,7.463 -4.747,11.55c-1.154,1.032 -2.394,1.963 -3.708,2.783l10.459,1.333l-21.803,0c0,0 -0.048,-1.091 -0.064,-2.882z" fill="#641ABA" id="svg_77"/>
    <path d="m126.6249,370.76689c0.506,-2.4 4.334,-13.276 4.334,-13.276c-1.228,4.292 -1.786,9.601 -2.028,14.203l-0.024,0.543c-2.822,1.168 -5.871,1.688 -8.921,1.522l-3.256,-0.383c6.314,0.358 9.895,-2.609 9.895,-2.609z" fill="#641ABA" id="svg_76"/>
    <path d="m140.6289,345.87489c0,0 -0.438,2.343 2.087,3.289c0,0 0.284,6.491 -5.362,5.363c-3.155,-0.63 -1.893,-4.102 -1.578,-4.731c0.315,-0.63 1.893,0 1.578,-2.524l3.275,-1.397z" fill="#FFA2D0" id="svg_75"/>
    <path d="m137.0169,349.07789c0.283,-0.28 0.464,-0.785 0.337,-1.806l3.277,-1.391c-0.073,0.534 -0.005,1.079 0.199,1.579c0,0 -0.879,1.889 -3.813,1.618z" fill="#FF6692" id="svg_74"/>
    <path d="m146.8139,356.41889c-4.577,-4.068 -9.463,0.948 -11.672,9.465c-2.209,8.518 -8.523,8.523 -8.523,8.523c0,0 -0.946,0.63 0,4.416c0,0 5.996,2.839 15.143,-2.209c9.147,-5.047 7.893,-17.675 5.052,-20.195z" fill="#7D27F7" id="svg_73"/>
    <path d="m92.2386,395.22189c0,0 -3.1551,1.892 -5.6789,2.524c-2.5238,0.631 -3.7848,0.631 -3.47,1.577c0.3149,0.946 7.2565,0.946 9.1489,0.946c1.8924,0 2.5238,-2.523 2.5238,-2.523l-2.5238,-2.524z" fill="#87137A" id="svg_72"/>
    <path d="m153.1249,382.28789c0.63,7.571 -1.262,18.611 -13.881,17.981c-12.619,-0.629 -21.137,-8.522 -25.553,-8.832c-4.416,-0.31 -14.1943,7.255 -18.6105,7.886c-1.6722,-1.202 -2.8047,-3.014 -3.1534,-5.044c0,0 13.8799,-17.666 21.1349,-17.666c7.254,0 21.47,5.679 21.47,5.679l18.593,-0.004z" fill="#FFC800" id="svg_71"/>
    <path d="m126.3979,374.74789c0,0 -5.075,-1.922 -6.209,-0.976c-1.134,0.946 1.087,4.679 6.286,4.39l-0.077,-3.414z" fill="#FFA2D0" id="svg_70"/>
    <path d="m112.1169,368.09189c0,0 -4.731,-2.524 -5.994,-0.946c-1.263,1.577 5.415,4.23 5.415,4.23l0.579,-3.284z" fill="#FFA2D0" id="svg_69"/>
    <path d="m126.6239,374.40189c0,0 6.311,0 8.523,-8.523c0.71,-2.732 1.694,-5.105 2.854,-6.933c0,0 -5.023,8.123 -5.99,10.459c-0.967,2.336 -2.673,4.714 -5.387,4.997z" fill="#641ABA" id="svg_68"/>
    <path d="m138.1119,336.00089c3.292,0.292 4.091,4.886 3.501,8.151c-0.59,3.264 -2.766,3.978 -5.159,3.765c-2.393,-0.212 -3.652,-3.036 -3.36,-6.329c0.292,-3.293 2.33,-5.825 5.018,-5.587z" fill="#FFA2D0" id="svg_67"/>
    <path d="m145.5559,336.54589c1.936,1.106 1.261,5.993 -0.316,5.993c-1.578,0 -4.1,-0.946 -6.94,-1.577c-2.841,-0.631 -6.309,0 -6.309,-1.578c0,-1.577 -0.631,-5.044 0.632,-5.677c1.262,-0.633 8.517,0.315 12.933,2.839z" fill="#553CF6" id="svg_66"/>
    <path d="m145.5519,337.17689c0,0 2.524,-5.993 -3.787,-8.202c-6.31,-2.209 -8.832,5.679 -8.832,5.679l12.619,2.523z" fill="#553CF6" id="svg_65"/>
    <path d="m143.2349,342.16989c-0.021,0.002 -0.042,-0.004 -0.06,-0.016c-0.017,-0.012 -0.03,-0.03 -0.035,-0.051c-0.006,-0.02 -0.005,-0.042 0.004,-0.061c0.008,-0.02 0.023,-0.036 0.042,-0.046c1.127,-0.695 1.76,-2.81 1.701,-4.379c-0.033,-0.849 -0.262,-1.444 -0.629,-1.632c-0.012,-0.005 -0.022,-0.013 -0.031,-0.022c-0.008,-0.01 -0.015,-0.021 -0.019,-0.033c-0.004,-0.012 -0.006,-0.024 -0.005,-0.037c0.001,-0.013 0.004,-0.025 0.009,-0.036c0.006,-0.012 0.013,-0.022 0.023,-0.03c0.009,-0.009 0.02,-0.015 0.032,-0.02c0.012,-0.004 0.025,-0.006 0.038,-0.005c0.012,0.001 0.025,0.004 0.036,0.009c0.437,0.223 0.696,0.858 0.731,1.79c0.08,2.11 -0.846,3.968 -1.788,4.545c-0.014,0.013 -0.031,0.021 -0.049,0.024z" fill="#A294EC" id="svg_64"/>
    <path d="m139.5649,341.31489c-0.03,0 -0.061,-0.003 -0.09,-0.01c-0.012,-0.002 -0.024,-0.007 -0.034,-0.014c-0.01,-0.007 -0.019,-0.015 -0.026,-0.026c-0.007,-0.01 -0.011,-0.021 -0.014,-0.033c-0.002,-0.012 -0.002,-0.025 0.001,-0.037c0.005,-0.024 0.02,-0.045 0.041,-0.058c0.021,-0.014 0.046,-0.018 0.07,-0.013c0.298,0.066 0.675,-0.417 1.044,-1.315c0.76,-1.885 1.123,-4.672 0.647,-4.971c-0.021,-0.013 -0.036,-0.034 -0.041,-0.058c-0.006,-0.024 -0.001,-0.049 0.012,-0.07c0.013,-0.021 0.034,-0.035 0.058,-0.041c0.024,-0.005 0.049,-0.001 0.07,0.013c0.659,0.413 0.116,3.478 -0.574,5.197c-0.277,0.668 -0.691,1.436 -1.164,1.436z" fill="#A294EC" id="svg_63"/>
    <path d="m136.9109,340.83489c-0.362,0 -0.595,-0.451 -0.673,-1.292c-0.164,-1.771 0.469,-5.502 1.739,-5.754c0.024,-0.005 0.049,0 0.07,0.014c0.02,0.014 0.034,0.035 0.04,0.059c0.002,0.012 0.002,0.024 0,0.036c-0.002,0.012 -0.007,0.024 -0.014,0.034c-0.007,0.01 -0.016,0.019 -0.026,0.026c-0.01,0.007 -0.021,0.011 -0.034,0.014c-1.061,0.212 -1.76,3.619 -1.582,5.555c0.066,0.71 0.245,1.12 0.492,1.124c0.024,0 0.048,0.009 0.065,0.027c0.017,0.017 0.027,0.04 0.027,0.065c0,0.024 -0.01,0.048 -0.027,0.065c-0.017,0.017 -0.041,0.027 -0.065,0.027l-0.012,0z" fill="#A294EC" id="svg_62"/>
    <path d="m133.5339,340.55489c-0.019,0 -0.038,-0.006 -0.054,-0.018c-0.604,-0.431 -0.372,-3.181 -0.026,-4.904c0.191,-0.954 0.508,-2.11 0.929,-2.206c0.012,-0.006 0.026,-0.01 0.04,-0.01c0.014,-0.001 0.028,0.002 0.041,0.008c0.012,0.006 0.024,0.014 0.032,0.025c0.009,0.011 0.016,0.024 0.019,0.037c0.003,0.014 0.003,0.028 0,0.042c-0.003,0.013 -0.009,0.026 -0.018,0.037c-0.008,0.011 -0.019,0.02 -0.032,0.026c-0.013,0.006 -0.027,0.009 -0.041,0.009c-0.173,0.042 -0.495,0.605 -0.789,2.061c-0.393,1.96 -0.498,4.395 -0.047,4.717c0.018,0.011 0.031,0.028 0.039,0.047c0.007,0.02 0.008,0.041 0.002,0.061c-0.007,0.02 -0.019,0.037 -0.036,0.049c-0.018,0.012 -0.038,0.018 -0.059,0.017l0,0.002z" fill="#A294EC" id="svg_61"/>
    <path d="m134.7559,333.63189c-0.008,0.002 -0.015,0.002 -0.023,0c-0.012,-0.003 -0.023,-0.008 -0.033,-0.015c-0.01,-0.007 -0.018,-0.017 -0.024,-0.027c-0.006,-0.011 -0.01,-0.022 -0.012,-0.035c-0.001,-0.012 0,-0.024 0.003,-0.036c0.769,-2.936 4.145,-4.973 5.307,-5.011c0.024,0 0.048,0.01 0.066,0.026c0.017,0.017 0.028,0.04 0.029,0.065c0.001,0.024 -0.008,0.048 -0.025,0.066c-0.017,0.018 -0.041,0.028 -0.065,0.029c-1,0.032 -4.378,1.99 -5.133,4.87c-0.005,0.02 -0.017,0.038 -0.033,0.05c-0.017,0.012 -0.037,0.019 -0.057,0.018z" fill="#A294EC" id="svg_60"/>
    <path d="m140.9479,334.76289l-0.021,0c-0.012,-0.003 -0.023,-0.008 -0.033,-0.015c-0.01,-0.007 -0.019,-0.016 -0.025,-0.026c-0.007,-0.011 -0.011,-0.022 -0.013,-0.034c-0.002,-0.012 -0.001,-0.025 0.001,-0.037c0.348,-1.514 1.027,-5.513 0.063,-5.821c-0.02,-0.01 -0.036,-0.026 -0.045,-0.047c-0.009,-0.02 -0.01,-0.043 -0.003,-0.064c0.007,-0.021 0.021,-0.039 0.04,-0.051c0.019,-0.012 0.042,-0.016 0.064,-0.012c1.299,0.416 0.193,5.467 0.062,6.041c-0.006,0.019 -0.018,0.036 -0.034,0.048c-0.016,0.012 -0.036,0.018 -0.056,0.018z" fill="#A294EC" id="svg_59"/>
    <path d="m143.7469,335.75189c-0.011,0.003 -0.023,0.003 -0.035,0c-0.011,-0.004 -0.021,-0.011 -0.03,-0.02c-0.009,-0.008 -0.016,-0.019 -0.02,-0.03c-0.005,-0.011 -0.007,-0.024 -0.007,-0.036c0,-0.012 0.002,-0.024 0.007,-0.036c0.637,-1.514 0.395,-3.906 -0.195,-5.251c-0.208,-0.476 -0.448,-0.784 -0.676,-0.869c-0.023,-0.009 -0.042,-0.027 -0.052,-0.049c-0.011,-0.022 -0.012,-0.048 -0.004,-0.071c0.009,-0.023 0.026,-0.042 0.049,-0.053c0.022,-0.01 0.048,-0.011 0.071,-0.003c0.348,0.129 0.621,0.597 0.783,0.967c0.603,1.379 0.85,3.837 0.196,5.392c-0.007,0.017 -0.019,0.032 -0.034,0.043c-0.016,0.01 -0.034,0.016 -0.053,0.016z" fill="#A294EC" id="svg_58"/>
    <path d="m144.9939,384.63089l-10.456,-2.343l18.589,0c0.062,0.752 0.099,1.538 0.104,2.343l-8.237,0z" fill="#FFA400" id="svg_57"/>
    <path d="m258.9809,229.59279l-94.643,0c-2.174,0 -3.936,1.7623 -3.936,3.9361l0,49.087c0,2.174 1.762,3.936 3.936,3.936l94.643,0c2.174,0 3.937,-1.762 3.937,-3.936l0,-49.087c0,-2.1738 -1.763,-3.9361 -3.937,-3.9361z" fill="#2A1BF6" id="svg_56"/>
    <path d="m196.4399,239.87199l-29.297,0c-0.302,0 -0.601,-0.0594 -0.88,-0.1749c-0.278,-0.1155 -0.532,-0.2847 -0.745,-0.4981c-0.213,-0.2133 -0.383,-0.4666 -0.498,-0.7454c-0.115,-0.2787 -0.175,-0.5775 -0.175,-0.8792c0,-0.3021 0.059,-0.6012 0.174,-0.8804c0.115,-0.2791 0.284,-0.5329 0.498,-0.7466c0.213,-0.2137 0.467,-0.3833 0.746,-0.4989c0.279,-0.1157 0.578,-0.1753 0.88,-0.1753l29.297,0c0.302,-0.0002 0.601,0.0592 0.88,0.1748c0.279,0.1156 0.533,0.2851 0.746,0.4989c0.214,0.2138 0.383,0.4676 0.498,0.7468c0.115,0.2793 0.174,0.5786 0.174,0.8807c0,0.3017 -0.059,0.6006 -0.175,0.8795c-0.115,0.2789 -0.284,0.5322 -0.498,0.7456c-0.213,0.2134 -0.467,0.3827 -0.746,0.4981c-0.278,0.1154 -0.577,0.1746 -0.879,0.1744z" fill="#8773FF" id="svg_55"/>
    <path d="m222.2489,239.87199l-17.52,0c-0.302,0.0002 -0.601,-0.059 -0.88,-0.1744c-0.279,-0.1154 -0.532,-0.2847 -0.746,-0.4981c-0.213,-0.2134 -0.382,-0.4667 -0.498,-0.7456c-0.115,-0.2789 -0.174,-0.5778 -0.174,-0.8795c-0.001,-0.3021 0.058,-0.6014 0.173,-0.8807c0.116,-0.2792 0.285,-0.533 0.498,-0.7468c0.214,-0.2138 0.467,-0.3833 0.746,-0.4989c0.279,-0.1156 0.579,-0.175 0.881,-0.1748l17.52,0c0.302,-0.0002 0.601,0.0591 0.879,0.1745c0.279,0.1153 0.533,0.2846 0.746,0.498c0.213,0.2134 0.383,0.4668 0.498,0.7456c0.116,0.2789 0.175,0.5778 0.175,0.8796c0,0.3021 -0.059,0.6013 -0.174,0.8806c-0.115,0.2793 -0.284,0.5331 -0.498,0.7468c-0.213,0.2138 -0.467,0.3833 -0.746,0.4989c-0.279,0.1156 -0.578,0.175 -0.88,0.1748z" fill="#8773FF" id="svg_54"/>
    <path d="m182.1249,254.89289l-7.958,0l0,4.599l7.958,0l0,-4.599z" fill="#FFC800" id="svg_53"/>
    <path d="m183.0329,248.93089l8.413,0l0,-1.83c-0.001,-0.734 -0.292,-1.437 -0.811,-1.956c-0.519,-0.519 -1.223,-0.811 -1.957,-0.811l-5.645,0l0,4.597z" fill="#FFC800" id="svg_52"/>
    <path d="m182.1249,249.83889l-7.958,0l0,4.145l7.958,0l0,-4.145z" fill="#FFC800" id="svg_51"/>
    <path d="m182.1249,244.32989l-7.958,0l0,4.599l7.958,0l0,-4.599z" fill="#FFC800" id="svg_50"/>
    <path d="m173.2579,244.32989l-5.646,0c-0.363,0 -0.723,0.072 -1.059,0.211c-0.336,0.139 -0.642,0.343 -0.899,0.601c-0.257,0.257 -0.46,0.563 -0.599,0.899c-0.139,0.336 -0.21,0.696 -0.21,1.06l0,1.833l8.413,0l0,-4.604z" fill="#FFC800" id="svg_49"/>
    <path d="m183.0329,254.89289l0,4.599l5.645,0c0.734,0 1.438,-0.291 1.957,-0.81c0.518,-0.519 0.81,-1.222 0.811,-1.956l0,-1.833l-8.413,0z" fill="#FFC800" id="svg_48"/>
    <path d="m173.2579,254.89289l-8.413,0l0,1.833c0,0.364 0.072,0.724 0.211,1.059c0.139,0.336 0.343,0.641 0.6,0.898c0.257,0.256 0.562,0.46 0.898,0.599c0.335,0.139 0.695,0.21 1.058,0.21l5.646,0l0,-4.599z" fill="#FFC800" id="svg_47"/>
    <path d="m191.4439,249.83889l-8.411,0l0,4.145l8.411,0l0,-4.145z" fill="#FFC800" id="svg_46"/>
    <path d="m173.2559,249.83889l-8.411,0l0,4.145l8.411,0l0,-4.145z" fill="#FFC800" id="svg_45"/>
    <path d="m183.1539,264.65089l-16.49,0c-0.956,0 -1.731,0.775 -1.731,1.73l0,5.596c0,0.956 0.775,1.73 1.731,1.73l16.49,0c0.956,0 1.731,-0.774 1.731,-1.73l0,-5.596c0,-0.955 -0.775,-1.73 -1.731,-1.73z" fill="#8773FF" id="svg_44"/>
    <path d="m207.6559,264.65089l-16.49,0c-0.956,0 -1.731,0.775 -1.731,1.73l0,5.596c0,0.956 0.775,1.73 1.731,1.73l16.49,0c0.956,0 1.731,-0.774 1.731,-1.73l0,-5.596c0,-0.955 -0.775,-1.73 -1.731,-1.73z" fill="#8773FF" id="svg_43"/>
    <path d="m232.1539,264.65089l-16.49,0c-0.956,0 -1.731,0.775 -1.731,1.73l0,5.596c0,0.956 0.775,1.73 1.731,1.73l16.49,0c0.956,0 1.731,-0.774 1.731,-1.73l0,-5.596c0,-0.955 -0.775,-1.73 -1.731,-1.73z" fill="#8773FF" id="svg_42"/>
    <path d="m256.6519,264.65089l-16.49,0c-0.956,0 -1.731,0.775 -1.731,1.73l0,5.596c0,0.956 0.775,1.73 1.731,1.73l16.49,0c0.956,0 1.731,-0.774 1.731,-1.73l0,-5.596c0,-0.955 -0.775,-1.73 -1.731,-1.73z" fill="#8773FF" id="svg_41"/>
    <path d="m197.4879,280.86789l-31.308,0c-0.164,0 -0.326,-0.032 -0.478,-0.095c-0.151,-0.063 -0.289,-0.155 -0.404,-0.271c-0.116,-0.116 -0.208,-0.253 -0.271,-0.405c-0.062,-0.151 -0.094,-0.314 -0.094,-0.478c0,-0.33 0.131,-0.648 0.365,-0.882c0.234,-0.233 0.551,-0.365 0.882,-0.365l31.308,0c0.164,0 0.327,0.033 0.479,0.096c0.152,0.063 0.289,0.155 0.405,0.272c0.116,0.116 0.208,0.255 0.27,0.407c0.062,0.152 0.094,0.315 0.093,0.479c-0.001,0.33 -0.133,0.646 -0.367,0.879c-0.234,0.232 -0.55,0.363 -0.88,0.363z" fill="#8773FF" id="svg_40"/>
    <path d="m223.2839,280.86789l-20.35,0c-0.164,0 -0.326,-0.032 -0.478,-0.095c-0.151,-0.063 -0.289,-0.155 -0.404,-0.271c-0.116,-0.116 -0.208,-0.253 -0.271,-0.405c-0.062,-0.151 -0.094,-0.314 -0.094,-0.478c0,-0.33 0.131,-0.648 0.365,-0.882c0.234,-0.233 0.551,-0.365 0.882,-0.365l20.35,0c0.331,0 0.648,0.132 0.882,0.365c0.234,0.234 0.365,0.552 0.365,0.882c0,0.164 -0.032,0.327 -0.094,0.478c-0.063,0.152 -0.155,0.289 -0.27,0.405c-0.116,0.116 -0.254,0.208 -0.405,0.271c-0.152,0.063 -0.314,0.095 -0.478,0.095z" fill="#8773FF" id="svg_39"/>
    <path d="m211.4319,395.84589c-7.048,-2.435 -12.871,-6.517 -17.282,-12.116c-3.454,-4.376 -6.035,-9.66 -7.672,-15.706c-2.724,-10.07 -1.899,-18.852 -1.863,-19.221l0.395,-3.988l4.321,0c5.456,0 10.435,-1.392 14.826,-4.11c3.226,-2.008 4.96,-4.067 5.104,-4.243l3.869,-3.856l3.791,3.86c0.157,0.189 1.891,2.238 5.104,4.239c4.381,2.727 9.369,4.11 14.824,4.11l4.326,0l0.394,3.988c0.037,0.369 0.87,9.151 -1.864,19.221c-1.635,6.046 -4.216,11.33 -7.671,15.706c-4.419,5.599 -10.234,9.674 -17.282,12.116l-1.659,0.574l-1.661,-0.574z" fill="#170000" id="svg_38" opacity="0.2"/>
    <path d="m211.4999,391.61689c-6.783,-2.349 -12.364,-6.262 -16.614,-11.654c-3.322,-4.207 -5.802,-9.286 -7.376,-15.099c-2.619,-9.683 -1.826,-18.125 -1.79,-18.48l0.378,-3.827l4.155,0c5.246,0 10.041,-1.329 14.252,-3.95c3.101,-1.93 4.769,-3.91 4.908,-4.079l3.719,-3.708l3.653,3.71c0.151,0.174 1.817,2.153 4.906,4.077c4.211,2.621 9.006,3.95 14.252,3.95l4.155,0l0.378,3.827c0.035,0.348 0.828,8.797 -1.792,18.48c-1.565,5.813 -4.052,10.892 -7.374,15.099c-4.25,5.382 -9.84,9.3 -16.614,11.654l-1.595,0.551l-1.601,-0.551z" fill="#CACFF6" id="svg_37"/>
    <path d="m213.0929,337.00789c0,0 -7.613,9.765 -22.841,9.765c0,0 -3.15,31.889 22.841,40.892l0,-50.657z" fill="#7067FF" id="svg_36"/>
    <path d="m213.0949,337.00789c0,0 7.615,9.765 22.843,9.765c0,0 3.15,31.889 -22.843,40.892l0,-50.657z" fill="#4D4AFF" id="svg_35"/>
    <path d="m14.7122,262.91789c-2.6386,3.282 -5.44408,7.246 -4.41788,11.33c1.16358,4.639 6.67028,6.716 11.45168,6.841c14.1147,0.367 26.4708,-9.601 35.0839,-20.79c3.7344,-4.849 7.0965,-10.154 8.5401,-16.105c1.4437,-5.9497 0.7358,-12.6618 -3.0386,-17.4815c-15.0329,-19.2056 -39.4826,26.0885 -47.6192,36.2055z" fill="url(#svg_34)" id="svg_33"/>
    <path d="m378.8649,197.55279c2.915,6.1537 8.46,10.5924 12.523,16.0539c7.479,10.0516 9.594,23.8705 5.459,35.6962c-1.697,4.853 -4.139,10.902 -0.49,14.525c2.783,2.755 7.434,2.054 11.015,0.484c9.194,-4.034 16.19,-12.739 18.152,-22.587c1.962,-9.8483 -1.167,-20.5678 -8.114,-27.8155c-3.067,-3.1986 -6.808,-5.7485 -9.528,-9.2463c-2.721,-3.4978 -4.258,-8.474 -2.145,-12.3683c1.473,-2.7134 4.446,-4.4162 5.74,-7.2234c2.609,-5.6876 -3.712,-12.1962 -9.972,-12.2797c-12.192,-0.16 -29.008,11.3196 -22.64,24.7611z" fill="url(#svg_32)" id="svg_31"/>
    <path d="m318.7169,163.12279l-26.478,0c-2.846,0 -5.154,2.3074 -5.154,5.1537l0,26.4777c0,2.8463 2.308,5.1536 5.154,5.1536l26.478,0c2.846,0 5.153,-2.3073 5.153,-5.1536l0,-26.4777c0,-2.8463 -2.307,-5.1537 -5.153,-5.1537z" fill="#FFC800" id="svg_30"/>
    <path d="m302.1079,171.92189c-1.65,0.0023 -3.231,0.6585 -4.397,1.8248c-1.166,1.1663 -1.823,2.7474 -1.825,4.3968c0,0.2357 0.094,0.4618 0.26,0.6284c0.167,0.1667 0.393,0.2604 0.629,0.2604c0.236,0 0.462,-0.0937 0.628,-0.2604c0.167,-0.1666 0.261,-0.3927 0.261,-0.6284c0.002,-1.1779 0.47,-2.307 1.303,-3.1397c0.834,-0.8328 1.963,-1.3012 3.141,-1.3026c0.235,0 0.461,-0.0936 0.628,-0.2603c0.167,-0.1667 0.26,-0.3927 0.26,-0.6285c0,-0.2357 -0.093,-0.4617 -0.26,-0.6284c-0.167,-0.1667 -0.393,-0.2603 -0.628,-0.2603l0,-0.0018z" fill="#FFF0FF" id="svg_29"/>
    <path d="m318.1079,191.10679l-5.592,-5.592c-0.082,-0.0826 -0.18,-0.1481 -0.288,-0.1929c-0.108,-0.0447 -0.224,-0.0677 -0.34,-0.0677c-0.117,0 -0.233,0.023 -0.341,0.0677c-0.108,0.0448 -0.206,0.1103 -0.288,0.1929l-0.261,0.2592l-1.378,-1.3776c1.617,-1.9378 2.425,-4.4244 2.255,-6.9425c-0.17,-2.5181 -1.304,-4.8737 -3.167,-6.5768c-1.862,-1.7031 -4.31,-2.6226 -6.833,-2.5671c-2.523,0.0555 -4.928,1.0817 -6.713,2.8651c-1.786,1.7833 -2.816,4.1865 -2.875,6.7097c-0.059,2.5231 0.857,4.9718 2.558,6.8366c1.7,1.8649 4.054,3.0024 6.572,3.1757c2.518,0.1734 5.006,-0.6307 6.946,-2.2449l1.379,1.3793l-0.261,0.2609c-0.082,0.0823 -0.148,0.1801 -0.193,0.2879c-0.045,0.1077 -0.068,0.2233 -0.068,0.34c0,0.1167 0.023,0.2323 0.068,0.34c0.045,0.1078 0.111,0.2056 0.193,0.2879l5.594,5.5937c0.333,0.3332 0.785,0.5203 1.257,0.5203c0.471,0 0.923,-0.1871 1.256,-0.5203l0.522,-0.5218c0.166,-0.165 0.297,-0.361 0.386,-0.5768c0.09,-0.2158 0.136,-0.4471 0.136,-0.6808c0,-0.2336 -0.046,-0.4649 -0.136,-0.6807c-0.089,-0.2158 -0.22,-0.4118 -0.386,-0.5768l-0.002,0.0018zm-24.002,-12.9632c-0.002,-1.3144 0.32,-2.6091 0.937,-3.7694c0.618,-1.1604 1.512,-2.1507 2.603,-2.8836c1.091,-0.7328 2.346,-1.1855 3.654,-1.3181c1.307,-0.1325 2.628,0.0591 3.844,0.558c1.216,0.499 2.29,1.2898 3.128,2.3027c0.837,1.0128 1.413,2.2164 1.675,3.5045c0.262,1.288 0.203,2.6207 -0.173,3.8804c-0.375,1.2596 -1.055,2.4074 -1.98,3.3417c-0.012,0.0122 -0.028,0.0209 -0.04,0.0331c-0.012,0.0122 -0.021,0.0261 -0.033,0.04c-1.123,1.1062 -2.548,1.856 -4.095,2.1553c-1.548,0.2992 -3.15,0.1347 -4.604,-0.4731c-1.455,-0.6078 -2.697,-1.6316 -3.572,-2.9431c-0.874,-1.3115 -1.342,-2.8521 -1.344,-4.4284zm22.741,14.2207l-0.521,0.5218l-4.965,-4.9641l0.26,-0.2591l0.259,-0.2592l4.966,4.9641l0.001,-0.0035z" fill="#FFF0FF" id="svg_28"/>
    <path d="m118.8219,272.52989l-26.4776,0c-2.8463,0 -5.1536,2.307 -5.1536,5.153l0,26.478c0,2.846 2.3073,5.154 5.1536,5.154l26.4776,0c2.846,0 5.154,-2.308 5.154,-5.154l0,-26.478c0,-2.846 -2.308,-5.153 -5.154,-5.153z" fill="#FFC800" id="svg_27"/>
    <path d="m116.8989,293.56189c0.001,-0.381 -0.094,-0.756 -0.276,-1.091c-0.183,-0.334 -0.447,-0.617 -0.768,-0.822c0.195,-0.344 0.296,-0.733 0.293,-1.129c-0.003,-0.395 -0.109,-0.783 -0.308,-1.124c-0.199,-0.341 -0.485,-0.625 -0.827,-0.821c-0.343,-0.197 -0.732,-0.301 -1.127,-0.3l-7.547,0l0,-6.036c0,-0.6 -0.238,-1.175 -0.662,-1.599c-0.424,-0.424 -0.999,-0.662 -1.599,-0.662l-0.797,0c-0.376,-0.003 -0.739,0.136 -1.018,0.39c-0.278,0.253 -0.45,0.602 -0.483,0.977c-0.087,0.962 -0.375,2.792 -1.3476,4.249c-0.7342,1.115 -1.3664,2.294 -1.8889,3.522c-0.161,-0.056 -0.3302,-0.086 -0.5009,-0.087l-2.2715,0c-0.4,0.001 -0.7833,0.161 -1.066,0.444c-0.2826,0.283 -0.4416,0.666 -0.442,1.066l0,9.805c0,0.4 0.1588,0.784 0.4415,1.067c0.2828,0.283 0.6663,0.442 1.0665,0.442l2.2611,0c0.3436,0 0.6768,-0.118 0.9446,-0.333c0.2678,-0.215 0.4542,-0.516 0.5286,-0.851c0.8696,0.564 2.0506,1.184 3.0526,1.184l9.806,0c0.37,0.002 0.734,-0.088 1.061,-0.26c0.327,-0.172 0.607,-0.422 0.815,-0.727c0.208,-0.305 0.339,-0.657 0.379,-1.024c0.041,-0.368 -0.009,-0.739 -0.145,-1.083c0.332,-0.09 0.639,-0.255 0.898,-0.482c0.259,-0.227 0.462,-0.51 0.595,-0.828c0.132,-0.317 0.191,-0.661 0.171,-1.005c-0.021,-0.343 -0.119,-0.678 -0.288,-0.977c0.321,-0.204 0.585,-0.485 0.768,-0.818c0.183,-0.333 0.28,-0.707 0.281,-1.087zm-18.8581,6.783l-2.2698,0l0,-9.799l2.2611,0l0.0087,9.799zm15.8401,-3.016l-3.016,0c-0.102,-0.004 -0.204,0.011 -0.3,0.047c-0.096,0.036 -0.183,0.091 -0.257,0.161c-0.074,0.071 -0.133,0.155 -0.173,0.249c-0.04,0.094 -0.061,0.195 -0.061,0.297c0,0.103 0.021,0.204 0.061,0.298c0.04,0.094 0.099,0.178 0.173,0.249c0.074,0.07 0.161,0.125 0.257,0.161c0.096,0.035 0.198,0.051 0.3,0.046l1.508,0c0.102,-0.004 0.204,0.011 0.3,0.047c0.095,0.036 0.183,0.091 0.257,0.161c0.074,0.071 0.133,0.155 0.173,0.249c0.04,0.094 0.061,0.195 0.061,0.297c0,0.103 -0.021,0.204 -0.061,0.298c-0.04,0.094 -0.099,0.178 -0.173,0.249c-0.074,0.07 -0.162,0.125 -0.257,0.161c-0.096,0.035 -0.198,0.051 -0.3,0.046l-9.806,0c-0.804,0 -2.1693,-0.843 -3.0164,-1.494l0,-8.174c0.5488,-1.49 1.2647,-2.912 2.1344,-4.239c1.156,-1.74 1.496,-3.848 1.593,-4.943l0.797,0c0.199,0 0.391,0.079 0.532,0.22c0.141,0.141 0.221,0.333 0.221,0.533l0,6.783c0,0.2 0.079,0.392 0.221,0.534c0.141,0.141 0.333,0.221 0.534,0.221l8.296,0c0.102,-0.005 0.204,0.011 0.3,0.047c0.096,0.035 0.183,0.09 0.257,0.161c0.074,0.07 0.133,0.155 0.173,0.249c0.041,0.094 0.061,0.195 0.061,0.297c0,0.102 -0.02,0.203 -0.061,0.297c-0.04,0.094 -0.099,0.179 -0.173,0.249c-0.074,0.071 -0.161,0.126 -0.257,0.161c-0.096,0.036 -0.198,0.052 -0.3,0.047l-3.014,0c-0.2,0 -0.392,0.08 -0.534,0.221c-0.141,0.142 -0.221,0.334 -0.221,0.534c0,0.2 0.08,0.392 0.221,0.534c0.142,0.141 0.334,0.221 0.534,0.221l3.771,0c0.102,-0.005 0.204,0.011 0.3,0.046c0.095,0.036 0.183,0.091 0.257,0.161c0.074,0.071 0.133,0.156 0.173,0.25c0.04,0.093 0.061,0.195 0.061,0.297c0,0.102 -0.021,0.203 -0.061,0.297c-0.04,0.094 -0.099,0.179 -0.173,0.249c-0.074,0.071 -0.162,0.125 -0.257,0.161c-0.096,0.036 -0.198,0.052 -0.3,0.047l-3.771,0c-0.102,-0.005 -0.204,0.011 -0.3,0.046c-0.096,0.036 -0.183,0.091 -0.257,0.161c-0.074,0.071 -0.133,0.156 -0.173,0.25c-0.04,0.093 -0.061,0.195 -0.061,0.297c0,0.102 0.021,0.203 0.061,0.297c0.04,0.094 0.099,0.179 0.173,0.249c0.074,0.071 0.161,0.125 0.257,0.161c0.096,0.036 0.198,0.052 0.3,0.047l3.016,0c0.2,0 0.392,0.079 0.534,0.221c0.141,0.141 0.221,0.333 0.221,0.534c0,0.2 -0.08,0.392 -0.221,0.533c-0.142,0.142 -0.334,0.221 -0.534,0.221z" fill="#FFF0FF" id="svg_26"/>
    <path d="m128.8249,254.28789l-9.726,0c-1.045,0 -1.893,0.847 -1.893,1.892l0,9.726c0,1.046 0.848,1.893 1.893,1.893l9.726,0c1.045,0 1.892,-0.847 1.892,-1.893l0,-9.726c0,-1.045 -0.847,-1.892 -1.892,-1.892z" fill="#FFC800" id="svg_25"/>
    <path clip-rule="evenodd" d="m171.5669,178.09869l0,3.0175l-0.754,0l0,-3.0175l-8.3,0l0,8.2991l2.263,0l0,-6.0359l3.773,0l0,0.7543l-3.018,0l0,0.7548l3.772,0l0,-2.2635l-5.281,0l0,6.0363l-0.754,0l0,-6.7907l6.79,0l0,3.0179l2.263,0l0,-3.0179l6.791,0l0,6.7907l-6.791,0l0,-3.0184l-2.263,0l0,3.0184l-0.755,0l0,-3.0184l-3.772,0l0,0.7544l3.018,0l0,3.018l2.264,0l0,-3.018l0.754,0l0,3.018l8.299,0l0,-8.2991l-8.299,0zm1.507,1.5086l0,0.7543l4.527,0l0,0.7544l-4.527,0l0,0.7548l5.282,0l0,-2.2635l-5.282,0zm0,3.0185l0,0.7544l4.527,0l0,0.7548l-4.527,0l0,0.7544l5.282,0l0,-2.2636l-5.282,0zm-7.546,1.509l0.002,2.2632l2.263,0l0,-2.2632l-2.265,0zm0.758,0.7543l0.755,0l0,0.7548l-0.754,0l-0.001,-0.7548zm5.282,2.2634l0,0.7544l7.545,0l0,0.7544l-3.019,0l0,6.0359l-0.754,0l0,-6.0359l-4.305,0l0,0.7544l3.55,0l0,6.0359l2.265,0l0,-6.0359l3.017,0l0,-2.2632l-8.299,0zm-9.055,0l0,8.2991l8.3,0l0,-2.2632l-6.037,0l0,-3.7727l5.504,0l0,-0.7544l-6.258,0l0,5.2811l6.036,0l0,0.7548l-6.79,0l0,-6.7903l7.545,0l0,-0.7544l-8.3,0zm16.601,3.0181l0,4.5267l-0.755,0l0,-4.5267l-0.755,0l0,5.2811l2.264,0l0,-5.2811l-0.754,0zm-13.582,0l0,2.2635l8.3,0l0,-0.7548l-7.546,0l0,-0.7543l7.546,0l0,-0.7544l-8.3,0zm6.036,3.018l0.002,2.2632l2.263,0l0,-2.2632l-2.265,0zm0.75,0.7539l0.756,0l0,0.7548l-0.755,0l-0.001,-0.7548z" fill="#E6B65D" fill-rule="evenodd" id="svg_24"/>
    <path clip-rule="evenodd" d="m188.6469,183.18199c-0.04,0.1088 -0.03,0.1487 0.099,0.1487l1.575,0c0.119,0 0.109,-0.1192 0.079,-0.198c-0.04,-0.0694 -0.723,-1.8923 -0.802,-2.08c-0.04,-0.1191 -0.139,-0.0304 -0.179,0.0789c-0.039,0.1191 -0.653,1.783 -0.772,2.0504zm3.753,2.3281c0.247,0.5845 0.476,0.8917 0.624,0.941c0.149,0.0694 0.179,0.1984 -0.01,0.2079c-0.128,0.0102 -0.367,-0.0296 -0.673,-0.0296c-0.198,0 -0.793,0.0201 -0.902,0.0296c-0.168,0.0102 -0.158,-0.1183 -0.049,-0.2374c0.089,-0.0793 0.089,-0.2276 0.04,-0.4161c-0.12,-0.4358 -0.615,-1.7334 -0.723,-1.9514c-0.04,-0.0695 -0.11,-0.1286 -0.258,-0.1286c-1.862,0 -1.902,0 -1.922,0.0098c-0.039,0.0103 -0.158,0.099 -0.178,0.1487c-0.05,0.1388 -0.644,1.6738 -0.683,1.7633c-0.11,0.2674 -0.06,0.4753 0.049,0.5841c0.089,0.0891 0.059,0.2579 -0.099,0.2276c-0.169,-0.0193 -0.525,-0.0296 -0.674,-0.0296c-0.188,0 -0.346,0.0103 -0.475,0.0296c-0.149,0.0102 -0.198,-0.1085 -0.069,-0.198c0.267,-0.1881 0.376,-0.4654 0.574,-0.9312c0.208,-0.4653 2.566,-6.2995 2.615,-6.4478c0.069,-0.1487 0.149,-0.1388 0.198,-0.0304c0.05,0.1093 2.506,6.1813 2.615,6.4585z" fill="#55524F" fill-rule="evenodd" id="svg_23"/>
    <path clip-rule="evenodd" d="m195.3579,186.49059c-0.109,-0.0493 -0.129,-0.1783 -0.158,-0.3763c-0.03,-0.2378 -0.04,-0.4555 -0.05,-0.6838c-0.01,-0.2966 0.317,-0.3069 0.386,-0.0986c0.268,0.4756 0.674,0.7923 1.466,0.7923c1.446,0 1.773,-1.6541 0.743,-2.4069c-0.505,-0.3668 -1.297,-0.941 -1.723,-1.2483c-0.921,-0.6637 -0.803,-2.2582 0.039,-2.922c0.426,-0.3171 0.892,-0.4559 1.605,-0.4559c0.228,0 0.773,0.1191 1.05,0.1191c0.079,0 0.258,-0.0201 0.228,0.1582c-0.03,0.278 0.009,0.6542 0,0.8029c0,0.3364 -0.278,0.366 -0.426,0.0888c-0.188,-0.3364 -0.436,-0.6441 -1.139,-0.6441c-1.05,0.0201 -1.456,1.3871 -0.545,2.011c0.317,0.2378 1.595,1.0897 1.852,1.3074c1.04,0.902 0.813,2.7836 -0.287,3.3582c-0.476,0.2477 -0.971,0.4259 -1.644,0.4259c-0.595,0 -0.971,-0.0394 -1.397,-0.2279z" fill="#55524F" fill-rule="evenodd" id="svg_22"/>
    <path clip-rule="evenodd" d="m203.6389,186.65849c-0.148,-0.0296 -0.534,-0.0198 -0.723,-0.0198c-0.188,0 -0.604,-0.0098 -0.753,0.0198c-0.168,0.0098 -0.217,-0.0892 -0.089,-0.1779c0.198,-0.1191 0.327,-0.4259 0.297,-1.6347l0,-4.9429c-0.03,-0.3861 -0.158,-0.5151 -0.247,-0.5841c-0.089,-0.0796 -0.06,-0.1782 0.049,-0.1782c0.149,0 0.495,0.0193 0.743,0.0295c0.248,-0.0102 0.555,-0.0295 0.703,-0.0295c0.11,0 0.139,0.0986 0.05,0.1782c-0.089,0.069 -0.228,0.198 -0.238,0.5841c-0.039,0.2382 -0.02,3.6946 -0.02,4.9429c0,1.2182 0.129,1.4955 0.318,1.6347c0.148,0.0887 0.099,0.1877 -0.09,0.1779z" fill="#55524F" fill-rule="evenodd" id="svg_21"/>
    <path clip-rule="evenodd" d="m208.1329,183.18239c-0.04,0.1089 -0.03,0.1487 0.099,0.1487l1.574,0c0.119,0 0.11,-0.1191 0.08,-0.198c-0.04,-0.0694 -0.724,-1.8922 -0.803,-2.08c-0.039,-0.1191 -0.138,-0.0303 -0.178,0.0789c-0.04,0.1191 -0.654,1.783 -0.772,2.0504zm3.754,2.3272c0.247,0.5845 0.475,0.8917 0.624,0.941c0.148,0.0695 0.178,0.1984 -0.01,0.2079c-0.129,0.0102 -0.367,-0.0296 -0.674,-0.0296c-0.198,0 -0.793,0.0201 -0.901,0.0296c-0.169,0.0102 -0.159,-0.1183 -0.05,-0.2374c0.089,-0.0793 0.089,-0.2276 0.04,-0.4161c-0.119,-0.4358 -0.614,-1.7333 -0.723,-1.9514c-0.04,-0.0694 -0.109,-0.1286 -0.258,-0.1286c-1.862,0 -1.902,0 -1.922,0.0099c-0.039,0.0102 -0.158,0.0989 -0.178,0.1486c-0.05,0.1389 -0.644,1.6738 -0.683,1.7633c-0.11,0.2674 -0.06,0.4753 0.049,0.5841c0.089,0.0892 0.06,0.258 -0.099,0.2276c-0.168,-0.0193 -0.525,-0.0296 -0.673,-0.0296c-0.189,0 -0.347,0.0103 -0.476,0.0296c-0.148,0.0102 -0.198,-0.1085 -0.069,-0.198c0.268,-0.1881 0.376,-0.4654 0.574,-0.9311c0.208,-0.4654 2.566,-6.2996 2.616,-6.4479c0.069,-0.1487 0.148,-0.1388 0.198,-0.0303c0.049,0.1092 2.505,6.1812 2.615,6.4584z" fill="#55524F" fill-rule="evenodd" id="svg_20"/>
    <path clip-rule="evenodd" d="m222.1249,179.30889c-0.188,0.1388 -0.307,0.4161 -0.307,1.6146c0,1.2084 -0.01,5.4974 -0.01,5.7155c0,0.1881 -0.178,0.2078 -0.297,0.0891c-1.149,-1.1492 -3.704,-3.9723 -5.438,-5.8046c-0.149,-0.1585 -0.258,-0.2575 -0.267,0.0395c0,0.4756 0.009,2.7638 0.009,3.9028c-0.029,1.1985 0.09,1.4857 0.288,1.6245c0.129,0.0895 0.089,0.2078 -0.099,0.1782c-0.149,-0.0098 -0.446,-0.0394 -0.634,-0.0394c-0.188,0 -0.327,0.0099 -0.476,0.0394c-0.188,0.0103 -0.237,-0.0887 -0.089,-0.1782c0.198,-0.1286 0.317,-0.4555 0.317,-1.6344c0,-1.0005 0.01,-4.1599 0.01,-5.0619c0,-0.2867 -0.159,-0.4453 -0.247,-0.4752c-0.159,-0.0793 -0.06,-0.1882 0.049,-0.1882c0.129,0 0.218,0.0201 0.465,0.0296c0.248,-0.0095 0.288,-0.0197 0.437,-0.0197c0.108,0 0.168,0.099 0.198,0.1684c0.049,0.1088 0.108,0.1191 0.425,0.5151c0.288,0.3171 2.873,2.9121 4.458,4.6458c0.168,0.1783 0.208,0.1286 0.208,-0.0595l-0.04,-3.4769c0.01,-1.1986 -0.148,-1.4959 -0.327,-1.6245c-0.148,-0.0891 -0.099,-0.1885 0.089,-0.1783c0.149,0.0296 0.317,0.0395 0.506,0.0296c0.188,0 0.534,-0.0095 0.683,-0.0296c0.188,-0.0295 0.218,0.0892 0.089,0.1783z" fill="#55524F" fill-rule="evenodd" id="svg_19"/>
    <path clip-rule="evenodd" d="m232.4509,182.84499c-0.347,-0.2181 -0.704,-0.2382 -0.829,-0.2477c-0.222,-0.0099 -0.222,-0.3368 -0.017,-0.3964c0.632,-0.2374 0.927,-0.4953 0.927,-1.4659c0,-0.6539 -0.268,-1.139 -1.043,-1.139c-0.25,0 -0.598,0.0099 -0.598,0.2177l0,5.7155c-0.009,0.1983 0.072,0.4358 0.294,0.5052c0.223,0.0694 0.642,0.1384 1.115,-0.0892c0.562,-0.2673 0.847,-0.6633 0.873,-1.6142c0.027,-0.7335 -0.32,-1.2384 -0.722,-1.486zm1.677,1.4365c0.009,0.5052 -0.143,1.0006 -0.402,1.3867c-0.383,0.5943 -1.328,0.9903 -2.112,1.0001c-0.357,0 -0.928,-0.0394 -1.141,-0.0394c-0.107,0 -0.481,0 -0.66,0.0296c-0.152,0.03 -0.196,-0.0892 -0.081,-0.1779c0.179,-0.1191 0.295,-0.4165 0.268,-1.6245c0,-1.2186 -0.008,-4.7251 -0.008,-4.9625c-0.009,-0.3668 -0.135,-0.5155 -0.215,-0.5849c-0.08,-0.0793 -0.053,-0.1783 0.045,-0.1783c0.17,0 0.454,0.0296 0.802,0.0296c0.455,0 1.471,-0.1581 1.952,0.1092c0.322,0.1586 0.803,0.5747 0.83,1.2877c0,0.9809 -0.402,1.4163 -0.954,1.6344c-0.098,0.0295 -0.125,0.1191 -0.009,0.1486c1.498,0.1089 1.685,1.2483 1.685,1.9416z" fill="#55524F" fill-rule="evenodd" id="svg_18"/>
    <path clip-rule="evenodd" d="m238.2799,183.18239c-0.04,0.1089 -0.029,0.1487 0.099,0.1487l1.575,0c0.119,0 0.109,-0.1191 0.079,-0.198c-0.039,-0.0694 -0.723,-1.8922 -0.802,-2.08c-0.039,-0.1191 -0.138,-0.0303 -0.178,0.0789c-0.04,0.1191 -0.654,1.783 -0.773,2.0504zm3.757,2.3272c0.247,0.5845 0.475,0.8917 0.624,0.941c0.149,0.0695 0.178,0.1984 -0.01,0.2079c-0.129,0.0102 -0.367,-0.0296 -0.674,-0.0296c-0.198,0 -0.792,0.0201 -0.901,0.0296c-0.168,0.0102 -0.158,-0.1183 -0.05,-0.2374c0.09,-0.0793 0.09,-0.2276 0.04,-0.4161c-0.119,-0.4358 -0.614,-1.7333 -0.723,-1.9514c-0.039,-0.0694 -0.109,-0.1286 -0.258,-0.1286c-1.861,0 -1.901,0 -1.921,0.0099c-0.039,0.0102 -0.159,0.0989 -0.179,0.1486c-0.049,0.1389 -0.643,1.6738 -0.683,1.7633c-0.109,0.2674 -0.059,0.4753 0.05,0.5841c0.089,0.0892 0.059,0.258 -0.099,0.2276c-0.169,-0.0193 -0.525,-0.0296 -0.674,-0.0296c-0.188,0 -0.347,0.0103 -0.475,0.0296c-0.149,0.0102 -0.198,-0.1085 -0.07,-0.198c0.268,-0.1881 0.377,-0.4654 0.575,-0.9311c0.208,-0.4654 2.565,-6.2996 2.615,-6.4479c0.069,-0.1487 0.148,-0.1388 0.198,-0.0303c0.049,0.1092 2.506,6.1812 2.615,6.4584z" fill="#55524F" fill-rule="evenodd" id="svg_17"/>
    <path clip-rule="evenodd" d="m252.2759,179.30889c-0.189,0.1388 -0.308,0.4161 -0.308,1.6146c0,1.2084 -0.009,5.4974 -0.009,5.7155c0,0.1881 -0.179,0.2078 -0.298,0.0891c-1.149,-1.1492 -3.704,-3.9723 -5.438,-5.8046c-0.148,-0.1585 -0.257,-0.2575 -0.267,0.0395c0,0.4756 0.01,2.7638 0.01,3.9028c-0.03,1.1985 0.089,1.4857 0.287,1.6245c0.129,0.0895 0.089,0.2078 -0.099,0.1782c-0.148,-0.0098 -0.446,-0.0394 -0.634,-0.0394c-0.188,0 -0.327,0.0099 -0.475,0.0394c-0.189,0.0103 -0.238,-0.0887 -0.09,-0.1782c0.198,-0.1286 0.317,-0.4555 0.317,-1.6344c0,-1.0005 0.01,-4.1599 0.01,-5.0619c0,-0.2867 -0.158,-0.4453 -0.247,-0.4752c-0.159,-0.0793 -0.06,-0.1882 0.049,-0.1882c0.129,0 0.218,0.0201 0.466,0.0296c0.247,-0.0095 0.287,-0.0197 0.436,-0.0197c0.108,0 0.168,0.099 0.198,0.1684c0.049,0.1088 0.108,0.1191 0.426,0.5151c0.287,0.3171 2.872,2.9121 4.457,4.6458c0.168,0.1783 0.208,0.1286 0.208,-0.0595l-0.04,-3.4769c0.011,-1.1986 -0.148,-1.4959 -0.327,-1.6245c-0.148,-0.0891 -0.099,-0.1885 0.09,-0.1783c0.149,0.0296 0.317,0.0395 0.505,0.0296c0.188,0 0.534,-0.0095 0.683,-0.0296c0.189,-0.0295 0.218,0.0892 0.09,0.1783z" fill="#55524F" fill-rule="evenodd" id="svg_16"/>
    <path clip-rule="evenodd" d="m260.9619,186.64899c-0.09,0.0095 -0.516,0.0296 -0.862,0.0398c-0.346,0.0095 -0.584,-0.0895 -0.822,-0.3963c-0.178,-0.2477 -2.15,-2.9422 -2.229,-3.0411c-0.099,-0.1188 -0.188,-0.2477 -0.287,-0.1783c-0.069,0.0497 -0.069,0.069 -0.069,0.2078c-0.011,0.5549 0,1.1493 0,1.5752c0.01,1.2084 0.099,1.5054 0.297,1.6442c0.129,0.0891 0.099,0.1885 -0.089,0.1783c-0.149,-0.0296 -0.565,-0.0296 -0.753,-0.0296c-0.188,0 -0.545,0 -0.694,0.0296c-0.168,0.0102 -0.218,-0.0892 -0.088,-0.1783c0.198,-0.1191 0.326,-0.4456 0.296,-1.6442c0,-1.2384 -0.01,-4.7054 -0.01,-4.9527c-0.029,-0.396 -0.148,-0.5151 -0.237,-0.5943c-0.089,-0.0694 -0.06,-0.1684 0.05,-0.1684c0.148,0 0.435,0.0197 0.683,0.0197c0.247,0 0.604,-0.0197 0.753,-0.0197c0.109,0 0.138,0.099 0.049,0.1684c-0.089,0.0792 -0.218,0.1983 -0.247,0.5943c-0.01,0.2773 -0.01,1.1788 -0.01,2.3774c0,0.1088 0.059,0.1285 0.158,0.0197c0.495,-0.5352 1.932,-2.4768 2.08,-2.7043c0.109,-0.1881 0.03,-0.4457 0.248,-0.4457c0.138,0 0.446,0.0099 0.555,0.0099c0.128,0 0.495,0 0.564,-0.0099c0.109,-0.0098 0.119,0.1388 0.01,0.2177c-0.069,0.0497 -0.515,0.3073 -0.664,0.4954c-0.227,0.2575 -1.466,1.8027 -1.931,2.3773c-0.109,0.1389 -0.079,0.1487 -0.01,0.2276c0.466,0.5947 2.169,2.9323 2.456,3.2789c0.188,0.228 0.426,0.6441 0.783,0.6736c0.168,0.0099 0.168,0.2181 0.02,0.228z" fill="#55524F" fill-rule="evenodd" id="svg_15"/>
    <path clip-rule="evenodd" d="m191.2449,192.14349c0.179,-0.1132 0.336,-0.3167 0.336,-0.6385c0,-0.3404 -0.138,-0.4346 -0.331,-0.4346c-0.199,0.0138 -0.313,0.1557 -0.313,0.4251c0,0.2319 0.123,0.4401 0.308,0.648zm0.894,1.7028c-0.331,-0.312 -0.814,-0.8988 -1.121,-1.2577c-0.284,0.1842 -0.459,0.4113 -0.459,0.7517c0,0.4591 0.288,0.8179 0.818,0.8179c0.274,0.0056 0.568,-0.1175 0.762,-0.3119zm0.568,-0.1835c0.213,0.1933 0.274,0.2639 0.43,0.392c0.156,0.1278 0.27,0.1988 0.44,0.2079c0.095,0.0055 0.085,0.1278 0.024,0.1471c-0.057,0.0185 -0.246,0.0284 -0.36,0.0331c-0.156,0.0047 -0.355,0.0469 -0.577,-0.1278c0.1,0.0899 -0.208,-0.151 -0.303,-0.265c-0.34,0.3404 -0.69,0.4066 -1.14,0.4066c-0.591,0 -1.149,-0.3687 -1.149,-1.0073c0,-0.4732 0.289,-0.8045 0.776,-1.0877c-0.171,-0.2413 -0.322,-0.4685 -0.322,-0.8467c0,-0.284 0.251,-0.691 0.738,-0.6953c0.464,-0.0048 0.752,0.2693 0.766,0.6476c0,0.4685 -0.255,0.6578 -0.586,0.885c0.241,0.2835 0.652,0.7564 1.003,1.083c0.009,-0.019 0.009,0.0516 0.052,-0.0091c0.241,-0.3459 0.127,-0.9414 -0.213,-1.0459c-0.076,-0.0233 -0.081,-0.1227 0,-0.1558c0.089,-0.0331 0.146,-0.0284 0.217,-0.0284c0.728,0.0047 0.662,1.0498 0.204,1.4667z" fill="#55524F" fill-rule="evenodd" id="svg_14"/>
    <path clip-rule="evenodd" d="m201.8549,191.45339c-0.113,-0.3029 -0.459,-0.3782 -0.828,-0.3782c-0.667,0 -1.376,0.3873 -1.376,1.4853c0,1.2861 0.828,1.6221 1.315,1.6221c0.393,0 0.776,-0.071 1.017,-0.312c0.066,-0.0662 0.146,-0.071 0.118,0.047c-0.028,0.0946 -0.024,0.1849 -0.061,0.3072c-0.038,0.114 -0.071,0.1096 -0.133,0.1325c-0.118,0.0379 -0.563,0.114 -0.955,0.114c-1.107,0 -1.869,-0.7754 -1.869,-1.854c0,-1.0223 0.786,-1.8118 2.001,-1.8118c0.265,0 0.96,0.0564 0.923,0.222c-0.019,0.0946 -0.024,0.265 -0.043,0.4212c0,0.0801 -0.076,0.0801 -0.109,0.0047z" fill="#55524F" fill-rule="evenodd" id="svg_13"/>
    <path clip-rule="evenodd" d="m205.3099,192.77259c-0.018,0.0525 -0.014,0.071 0.048,0.071l0.751,0c0.058,0 0.053,-0.0564 0.039,-0.095c-0.019,-0.0332 -0.346,-0.9028 -0.384,-0.9927c-0.018,-0.0572 -0.066,-0.0138 -0.084,0.0379c-0.019,0.0568 -0.313,0.8511 -0.37,0.9788zm1.791,1.1114c0.118,0.2797 0.226,0.426 0.297,0.45c0.071,0.0332 0.086,0.0939 -0.004,0.0994c-0.062,0.0047 -0.175,-0.0146 -0.322,-0.0146c-0.095,0 -0.378,0.0091 -0.43,0.0146c-0.081,0.0047 -0.076,-0.0572 -0.024,-0.114c0.043,-0.0378 0.043,-0.1088 0.019,-0.1987c-0.057,-0.2079 -0.293,-0.8275 -0.346,-0.9312c-0.019,-0.0331 -0.052,-0.0619 -0.122,-0.0619c-0.89,0 -0.909,0 -0.918,0.0047c-0.019,0.0048 -0.076,0.047 -0.085,0.071c-0.024,0.0663 -0.308,0.7994 -0.326,0.842c-0.052,0.1278 -0.029,0.2272 0.023,0.2789c0.043,0.043 0.028,0.123 -0.047,0.1092c-0.08,-0.0098 -0.251,-0.0146 -0.322,-0.0146c-0.09,0 -0.165,0.0048 -0.227,0.0146c-0.071,0.0047 -0.095,-0.0524 -0.033,-0.0946c0.128,-0.0904 0.18,-0.2229 0.274,-0.4453c0.1,-0.222 1.225,-3.008 1.249,-3.079c0.034,-0.071 0.071,-0.0662 0.095,-0.0138c0.023,0.0517 1.196,2.9508 1.249,3.0833z" fill="#55524F" fill-rule="evenodd" id="svg_12"/>
    <path clip-rule="evenodd" d="m211.9029,191.71369c0,0.6053 -0.483,1.0739 -1.122,0.9974c-0.122,-0.0138 -0.122,-0.1933 -0.004,-0.1988c0.033,-0.0138 0.037,0.0055 0.09,-0.0091c0.42,-0.071 0.53,-0.3072 0.52,-0.7564c-0.005,-0.3735 -0.237,-0.691 -0.591,-0.691c-0.128,0 -0.322,0.0047 -0.322,0.0994l0,2.5351c0,0.4591 0.199,0.6054 0.26,0.6579c0.062,0.0422 0.047,0.1131 -0.042,0.0993c-0.052,0 -0.317,-0.0287 -0.393,-0.0287l-0.005,0c-0.052,0 -0.303,0.0145 -0.397,0.024c-0.08,0.0138 -0.104,-0.0426 -0.042,-0.0856c0.094,-0.056 0.155,-0.2173 0.141,-0.7943l0,-2.3608c-0.014,-0.1841 -0.071,-0.2457 -0.113,-0.2788c-0.043,-0.0379 -0.028,-0.0848 0.023,-0.0848c0.09,0 0.237,0.0185 0.421,0.0138c0.17,-0.0138 0.776,-0.0615 1.036,0.0525c0.251,0.0993 0.54,0.3498 0.54,0.8089z" fill="#55524F" fill-rule="evenodd" id="svg_11"/>
    <path clip-rule="evenodd" d="m215.1879,194.43359c-0.071,-0.0146 -0.255,-0.0099 -0.346,-0.0099c-0.09,0 -0.288,-0.0047 -0.359,0.0099c-0.08,0.0047 -0.104,-0.043 -0.043,-0.0856c0.095,-0.0568 0.157,-0.2031 0.143,-0.7801l0,-2.3604c-0.015,-0.1846 -0.077,-0.2465 -0.119,-0.2797c-0.042,-0.0374 -0.028,-0.0847 0.024,-0.0847c0.07,0 0.236,0.0094 0.354,0.0142c0.119,-0.0048 0.265,-0.0142 0.336,-0.0142c0.052,0 0.067,0.0473 0.024,0.0847c-0.043,0.0332 -0.109,0.0951 -0.113,0.2797c-0.019,0.1132 -0.01,1.7641 -0.01,2.3604c0,0.5813 0.062,0.7138 0.151,0.7801c0.071,0.0426 0.048,0.0903 -0.042,0.0856z" fill="#55524F" fill-rule="evenodd" id="svg_10"/>
    <path clip-rule="evenodd" d="m220.1049,190.88529c0,0.1464 0.019,0.3167 0.019,0.4067c0,0.0571 -0.08,0.0571 -0.114,0.024c-0.113,-0.1372 -0.326,-0.185 -0.487,-0.2082c-0.099,-0.0237 -0.312,-0.0237 -0.349,-0.019c-0.105,0.0091 -0.086,0.1038 -0.091,0.1988l0,2.2606c0,0.577 0.052,0.7427 0.143,0.8042c0.07,0.0422 0.047,0.0903 -0.043,0.0856c-0.071,-0.0146 -0.251,-0.0146 -0.341,-0.0146c-0.09,0 -0.279,0 -0.35,0.0146c-0.08,0.0047 -0.104,-0.0434 -0.042,-0.0856c0.099,-0.0615 0.146,-0.2078 0.146,-0.7848c0,-0.6054 0.005,-2.1617 0.005,-2.2756c-0.005,-0.0994 -0.01,-0.2032 -0.081,-0.2032c-0.047,0 -0.274,-0.0047 -0.373,0.019c-0.166,0.0232 -0.36,0.0516 -0.487,0.2082c-0.033,0.0331 -0.114,0.0331 -0.114,-0.024c0,-0.09 0.019,-0.2603 0.019,-0.4067c0,-0.0753 0.038,-0.0709 0.09,-0.0571c0.052,0.0149 0.128,0.0287 0.762,0.0287l0.837,0c0.633,0 0.709,-0.0138 0.761,-0.0287c0.052,-0.0138 0.09,-0.0182 0.09,0.0571z" fill="#55524F" fill-rule="evenodd" id="svg_9"/>
    <path clip-rule="evenodd" d="m222.8599,192.77259c-0.019,0.0525 -0.014,0.071 0.047,0.071l0.752,0c0.057,0 0.052,-0.0564 0.038,-0.095c-0.019,-0.0332 -0.345,-0.9028 -0.383,-0.9927c-0.019,-0.0572 -0.066,-0.0138 -0.085,0.0379c-0.019,0.0568 -0.312,0.8511 -0.369,0.9788zm1.797,1.1114c0.118,0.2797 0.227,0.426 0.298,0.45c0.071,0.0332 0.085,0.0939 -0.005,0.0994c-0.061,0.0047 -0.175,-0.0146 -0.321,-0.0146c-0.095,0 -0.379,0.0091 -0.431,0.0146c-0.08,0.0047 -0.076,-0.0572 -0.024,-0.114c0.043,-0.0378 0.043,-0.1088 0.019,-0.1987c-0.056,-0.2079 -0.293,-0.8275 -0.345,-0.9312c-0.019,-0.0331 -0.052,-0.0619 -0.123,-0.0619c-0.889,0 -0.908,0 -0.918,0.0047c-0.018,0.0048 -0.075,0.047 -0.084,0.071c-0.024,0.0663 -0.308,0.7994 -0.327,0.842c-0.052,0.1278 -0.028,0.2272 0.024,0.2789c0.042,0.043 0.028,0.123 -0.048,0.1092c-0.08,-0.0098 -0.25,-0.0146 -0.321,-0.0146c-0.09,0 -0.166,0.0048 -0.227,0.0146c-0.071,0.0047 -0.095,-0.0524 -0.033,-0.0946c0.127,-0.0904 0.179,-0.2229 0.274,-0.4453c0.099,-0.222 1.225,-3.008 1.249,-3.079c0.033,-0.071 0.07,-0.0662 0.094,-0.0138c0.024,0.0517 1.197,2.9508 1.249,3.0833z" fill="#55524F" fill-rule="evenodd" id="svg_8"/>
    <path clip-rule="evenodd" d="m229.4489,193.87549c-0.004,0.0946 -0.052,0.3644 -0.071,0.4729c-0.019,0.0757 -0.052,0.0903 -0.122,0.0903c-0.052,0 -0.729,-0.0146 -0.965,-0.0146c-0.057,0 -0.828,0.0146 -0.876,0.0146l-0.004,0c-0.081,0.0043 -0.104,-0.0477 -0.043,-0.0903c0.18,-0.1416 0.137,-0.553 0.137,-0.7758l0,-2.36c0,-0.1893 -0.07,-0.2465 -0.113,-0.2796c-0.042,-0.0379 -0.029,-0.0848 0.023,-0.0848c0.071,0 0.166,0.0094 0.284,0.0094c0.118,0 0.308,-0.0094 0.379,-0.0094c0.052,0 0.066,0.0469 0.023,0.0848c-0.042,0.0331 -0.104,0.0903 -0.118,0.2796l0,2.2654c0,0.1849 0.005,0.3312 0.014,0.4397c0.033,0.1471 0.118,0.1988 0.232,0.2181c0.194,0.0331 0.364,0.0379 0.648,-0.0331c0.151,-0.0379 0.355,-0.1471 0.454,-0.2603c0.052,-0.0572 0.132,-0.0422 0.118,0.0331z" fill="#55524F" fill-rule="evenodd" id="svg_7"/>
    <path clip-rule="evenodd" d="m237.3479,190.88529c0,0.1464 0.019,0.3167 0.019,0.4067c0,0.0571 -0.081,0.0571 -0.114,0.024c-0.114,-0.1372 -0.326,-0.185 -0.487,-0.2082c-0.1,-0.0237 -0.313,-0.0237 -0.35,-0.019c-0.104,0.0091 -0.085,0.1038 -0.09,0.1988l0,2.2606c0,0.577 0.052,0.7427 0.142,0.8042c0.071,0.0422 0.047,0.0903 -0.043,0.0856c-0.071,-0.0146 -0.251,-0.0146 -0.34,-0.0146c-0.091,0 -0.279,0 -0.35,0.0146c-0.081,0.0047 -0.105,-0.0434 -0.043,-0.0856c0.099,-0.0615 0.147,-0.2078 0.147,-0.7848c0,-0.6054 0.004,-2.1617 0.004,-2.2756c-0.004,-0.0994 -0.009,-0.2032 -0.08,-0.2032c-0.047,0 -0.275,-0.0047 -0.374,0.019c-0.166,0.0232 -0.359,0.0516 -0.487,0.2082c-0.033,0.0331 -0.114,0.0331 -0.114,-0.024c0,-0.09 0.02,-0.2603 0.02,-0.4067c0,-0.0753 0.037,-0.0709 0.089,-0.0571c0.052,0.0149 0.128,0.0287 0.762,0.0287l0.837,0c0.634,0 0.71,-0.0138 0.761,-0.0287c0.052,-0.0138 0.091,-0.0182 0.091,0.0571z" fill="#55524F" fill-rule="evenodd" id="svg_6"/>
    <path clip-rule="evenodd" d="m242.2449,194.42339c-0.09,0.0146 -0.294,0.024 -0.445,0.0193c-0.152,-0.0047 -0.289,-0.0426 -0.454,-0.2934c-0.152,-0.265 -0.729,-1.3811 -0.748,-1.4143c-0.056,-0.1041 -0.023,-0.1897 0.033,-0.2035c0.034,-0.0047 0.095,-0.0236 0.119,-0.0236c0.364,-0.1089 0.492,-0.3546 0.483,-0.7612c-0.006,-0.3976 -0.289,-0.691 -0.635,-0.691c-0.136,0 -0.307,0.0048 -0.321,0.0994c0,1.7925 0.004,2.3979 0.004,2.616c0.015,0.3782 0.143,0.5344 0.218,0.586c0.061,0.043 0.047,0.0994 -0.042,0.0856c-0.053,0 -0.218,-0.024 -0.289,-0.024c-0.057,0 -0.369,0.0094 -0.463,0.024c-0.091,0.0138 -0.104,-0.0426 -0.043,-0.0856c0.099,-0.0615 0.142,-0.2035 0.142,-0.7801c0,-0.5817 -0.005,-2.261 -0.005,-2.375c-0.014,-0.1841 -0.076,-0.2457 -0.113,-0.2788c-0.043,-0.0379 -0.029,-0.0848 0.023,-0.0848c0.09,0 0.246,0.0186 0.421,0.0138c0.114,0.0048 0.79,-0.0469 1.05,0.0619c0.251,0.0994 0.563,0.3972 0.563,0.7995c0.014,0.4914 -0.288,0.7757 -0.553,0.8794c-0.034,0.0142 -0.119,0.0288 -0.076,0.0848c0.094,0.2091 0.686,1.2396 0.832,1.4246c0.076,0.1084 0.185,0.1699 0.294,0.1837c0.066,0 0.08,0.1235 0.005,0.1373z" fill="#55524F" fill-rule="evenodd" id="svg_5"/>
    <path clip-rule="evenodd" d="m247.7379,194.44269c-0.071,-0.0047 -0.104,-0.0146 -0.194,-0.0146c-0.033,0 -0.218,0.0146 -0.27,0.0146c-0.094,0.0138 -0.108,-0.1372 -0.108,-0.2843c0,-0.0422 -0.033,-0.0422 -0.066,-0.0091c-0.256,0.1988 -0.677,0.3072 -1.079,0.3072c-0.327,0 -0.639,-0.071 -0.852,-0.2319c-0.269,-0.2264 -0.364,-0.6054 -0.364,-1.0404c0,-0.5671 0.005,-1.8966 0.005,-1.9766c-0.014,-0.185 -0.076,-0.2513 -0.113,-0.2844c-0.053,-0.0379 -0.029,-0.0848 0.023,-0.0848c0.062,0 0.223,0.0138 0.336,0.0186c0.118,-0.0048 0.251,-0.0186 0.312,-0.0186c0.052,0 0.066,0.0469 0.024,0.0848c-0.038,0.0331 -0.094,0.0994 -0.109,0.2844l0,1.9534c0,0.9552 0.743,1.1445 1.424,0.898c0.18,-0.0663 0.459,-0.3211 0.459,-0.5439l0,-2.3075c-0.005,-0.185 -0.081,-0.2513 -0.123,-0.2844c-0.043,-0.0379 -0.024,-0.0848 0.028,-0.0848c0.062,0 0.241,0.0138 0.36,0.0186c0.118,-0.0048 0.231,-0.0186 0.302,-0.0186c0.052,0 0.067,0.0469 0.024,0.0848c-0.043,0.0331 -0.099,0.0994 -0.114,0.2844l0,2.3738c0,0.5438 0.048,0.7095 0.137,0.7757c0.062,0.0434 0.038,0.0903 -0.042,0.0856z" fill="#55524F" fill-rule="evenodd" id="svg_4"/>
    <path clip-rule="evenodd" d="m250.6399,194.35289c-0.052,-0.024 -0.061,-0.0848 -0.075,-0.1794c-0.015,-0.114 -0.019,-0.2181 -0.024,-0.3266c-0.005,-0.1419 0.151,-0.1463 0.184,-0.0469c0.128,0.2264 0.322,0.3782 0.7,0.3782c0.691,0 0.847,-0.7903 0.355,-1.1492c-0.241,-0.1751 -0.62,-0.45 -0.823,-0.5963c-0.44,-0.3167 -0.383,-1.0787 0.019,-1.395c0.203,-0.1518 0.426,-0.2181 0.766,-0.2181c0.109,0 0.369,0.0572 0.501,0.0572c0.038,0 0.124,-0.0103 0.109,0.0753c-0.014,0.1325 0.005,0.312 0,0.383c0,0.1609 -0.132,0.1755 -0.203,0.043c-0.09,-0.1609 -0.208,-0.3073 -0.544,-0.3073c-0.501,0.0091 -0.695,0.6614 -0.26,0.9596c0.151,0.1132 0.761,0.521 0.884,0.6247c0.497,0.4299 0.388,1.3287 -0.137,1.6032c-0.227,0.1187 -0.463,0.2031 -0.785,0.2031c-0.284,0 -0.464,-0.0182 -0.667,-0.1085z" fill="#55524F" fill-rule="evenodd" id="svg_3"/>
    <path clip-rule="evenodd" d="m257.3069,190.88529c0,0.1464 0.019,0.3167 0.019,0.4067c0,0.0571 -0.081,0.0571 -0.114,0.024c-0.114,-0.1372 -0.326,-0.185 -0.488,-0.2082c-0.099,-0.0237 -0.312,-0.0237 -0.349,-0.019c-0.104,0.0091 -0.086,0.1038 -0.09,0.1988l0,2.2606c0,0.577 0.052,0.7427 0.142,0.8042c0.071,0.0422 0.047,0.0903 -0.043,0.0856c-0.071,-0.0146 -0.251,-0.0146 -0.34,-0.0146c-0.091,0 -0.279,0 -0.35,0.0146c-0.081,0.0047 -0.105,-0.0434 -0.043,-0.0856c0.099,-0.0615 0.147,-0.2078 0.147,-0.7848c0,-0.6054 0.004,-2.1617 0.004,-2.2756c-0.004,-0.0994 -0.009,-0.2032 -0.08,-0.2032c-0.047,0 -0.275,-0.0047 -0.374,0.019c-0.166,0.0232 -0.359,0.0516 -0.487,0.2082c-0.033,0.0331 -0.114,0.0331 -0.114,-0.024c0,-0.09 0.02,-0.2603 0.02,-0.4067c0,-0.0753 0.037,-0.0709 0.089,-0.0571c0.052,0.0149 0.128,0.0287 0.762,0.0287l0.837,0c0.634,0 0.71,-0.0138 0.761,-0.0287c0.052,-0.0138 0.091,-0.0182 0.091,0.0571z" fill="#55524F" fill-rule="evenodd" id="svg_2"/>
   </g>
  </symbol>
 </defs>
 <g class="layer">
  <title>Layer 1</title>
  <rect fill="url(#paint0_linear)" height="400" id="svg_1" width="425"/>
  <use id="svg_158" transform="matrix(0.990461 0 0 0.990461 2.16452 2.16452)" x="0" xlink:href="#svg_157" y="1.8813"/>
  <g id="svg_159"/>
 </g>
</svg>