<svg width="425" height="400" viewBox="0 0 425 400" fill="none" xmlns="http://www.w3.org/2000/svg">
<rect width="425" height="400" fill="url(#paint0_linear)"/>
<mask id="mask0" mask-type="alpha" maskUnits="userSpaceOnUse" x="0" y="0" width="425" height="400">
<rect width="425" height="400" fill="url(#paint1_linear)"/>
</mask>
<g mask="url(#mask0)">
<path opacity="0.76" d="M26.6588 395.029C115.511 375.328 122.882 316.223 170.496 334.133C217.91 352.044 201.774 273.038 245.602 276.62C289.032 280.003 293.216 374.93 278.274 391.646C263.333 408.164 112.124 407.766 112.124 407.766C112.124 407.766 33.2331 414.731 27.6549 408.363C21.8775 401.597 26.6588 395.029 26.6588 395.029Z" fill="url(#paint2_linear)"/>
<path opacity="0.76" d="M222.692 411.945C110.132 385.477 100.569 305.675 40.4049 329.755C-19.7597 353.835 0.759992 247.366 -54.8225 252.143C-109.807 256.72 -114.987 384.681 -96.0611 406.97C-77.1352 429.259 114.714 428.662 114.714 428.662C114.714 428.662 214.723 438.015 221.895 429.458C228.668 420.9 222.692 411.945 222.692 411.945Z" fill="url(#paint3_linear)"/>
<path opacity="0.76" d="M128.46 405.179C225.281 383.686 233.449 319.407 285.047 338.91C336.844 358.412 319.114 272.441 366.927 276.222C414.341 280.004 418.724 383.487 402.388 401.398C386.052 419.507 221.297 418.91 221.297 418.91C221.297 418.91 135.233 426.473 129.257 419.507C123.28 412.542 128.46 405.179 128.46 405.179Z" fill="url(#paint4_linear)"/>
<path opacity="0.76" d="M220.103 400.602C331.268 375.925 340.631 301.894 399.999 324.382C459.366 346.87 439.046 247.963 494.031 252.342C548.418 256.72 553.598 375.527 534.871 396.223C516.144 416.92 326.885 416.323 326.885 416.323C326.885 416.323 228.072 424.88 221.099 416.92C214.126 408.96 220.103 400.602 220.103 400.602Z" fill="url(#paint5_linear)"/>
<path opacity="0.76" d="M94.7935 412.542C183.646 392.84 191.017 333.735 238.631 351.646C286.045 369.557 269.908 290.551 313.737 294.133C357.167 297.516 361.35 392.442 346.409 409.159C331.467 425.677 180.259 425.279 180.259 425.279C180.259 425.279 101.368 432.244 95.7897 425.875C90.0123 419.109 94.7935 412.542 94.7935 412.542Z" fill="url(#paint6_linear)"/>
<path opacity="0.76" d="M217.513 395.029C128.661 375.328 121.289 316.223 73.6757 334.133C26.2612 352.044 42.3981 273.038 -1.43038 276.62C-44.8604 280.003 -49.0441 374.93 -34.1025 391.646C-19.161 408.363 132.047 407.766 132.047 407.766C132.047 407.766 210.939 414.731 216.517 408.363C222.095 401.597 217.513 395.029 217.513 395.029Z" fill="url(#paint7_linear)"/>
<path opacity="0.76" d="M357.763 433.836C454.385 411.149 462.553 343.089 513.952 363.587C565.35 384.084 548.018 293.337 595.632 297.317C642.847 301.297 647.23 410.751 631.093 429.657C614.757 448.761 450.4 448.164 450.4 448.164C450.4 448.164 364.536 456.125 358.56 448.761C352.583 441.597 357.763 433.836 357.763 433.836Z" fill="url(#paint8_linear)"/>
<path opacity="0.76" d="M309.95 392.641C407.568 370.95 415.736 306.073 467.932 325.775C520.128 345.477 502.198 258.71 550.409 262.491C598.222 266.272 602.605 370.552 586.269 388.86C569.933 407.169 403.584 406.572 403.584 406.572C403.584 406.572 316.724 414.134 310.747 407.169C304.77 400.005 309.95 392.641 309.95 392.641Z" fill="url(#paint9_linear)"/>
<path d="M119.315 127.175C119.315 129.375 117.553 131.355 115.131 131.355C112.929 131.355 110.947 129.595 110.947 127.175C110.947 124.976 112.709 122.996 115.131 122.996C117.553 122.996 119.315 124.976 119.315 127.175Z" fill="#A1D3E2"/>
<path d="M286.008 158.851C286.008 161.05 284.247 163.03 281.824 163.03C279.622 163.03 277.641 161.27 277.641 158.851C277.641 156.651 279.402 154.671 281.824 154.671C284.247 154.891 286.008 156.651 286.008 158.851Z" fill="#A1D3E2"/>
<path d="M280.723 205.264C280.723 206.584 279.622 207.684 278.301 207.684C276.98 207.684 275.879 206.584 275.879 205.264C275.879 203.945 276.98 202.845 278.301 202.845C279.622 202.845 280.723 203.945 280.723 205.264Z" fill="#A1D3E2"/>
<path d="M130.326 164.791C130.326 165.891 129.445 166.991 128.124 166.991C126.803 166.991 125.922 166.111 125.922 164.791C125.922 163.471 126.803 162.591 128.124 162.591C129.445 162.591 130.326 163.471 130.326 164.791Z" fill="#A1D3E2"/>
<path d="M21.324 214.943C21.324 216.043 20.4432 217.143 19.122 217.143C18.0209 217.143 16.9199 216.263 16.9199 214.943C16.9199 213.843 17.8007 212.744 19.122 212.744C20.4432 212.964 21.324 213.843 21.324 214.943Z" fill="#A1D3E2"/>
<path d="M66.6873 103.2C66.6873 104.3 65.8065 105.399 64.4852 105.399C63.164 105.399 62.2832 104.519 62.2832 103.2C62.2832 102.1 63.164 101 64.4852 101C65.8065 101 66.6873 101.88 66.6873 103.2Z" fill="#A1D3E2"/>
<path d="M223.252 117.058C223.252 118.157 222.371 119.257 221.05 119.257C219.949 119.257 218.848 118.377 218.848 117.058C218.848 115.738 219.728 114.858 221.05 114.858C222.151 114.858 223.252 115.958 223.252 117.058Z" fill="#A1D3E2"/>
<path d="M9.87478 134.874C9.87478 135.974 8.99397 137.074 7.67274 137.074C6.57172 137.074 5.4707 136.194 5.4707 134.874C5.4707 133.555 6.35152 132.675 7.67274 132.675C8.99397 132.895 9.87478 133.775 9.87478 134.874Z" fill="#A1D3E2"/>
<path d="M235.802 253.877C244.437 253.877 251.437 246.885 251.437 238.259C251.437 229.634 244.437 222.642 235.802 222.642C227.168 222.642 220.168 229.634 220.168 238.259C220.168 246.885 227.168 253.877 235.802 253.877Z" fill="#FDD247"/>
<path fill-rule="evenodd" clip-rule="evenodd" d="M229.82 170.789L244.211 185.18C246.596 187.566 246.596 191.434 244.211 193.82L229.82 208.211C227.434 210.596 223.566 210.596 221.18 208.211L206.789 193.82C204.404 191.434 204.404 187.566 206.789 185.18L221.18 170.789C223.566 168.404 227.434 168.404 229.82 170.789ZM235.579 188.935C235.579 183.227 231.062 178.849 225.493 178.849C219.924 178.849 215.407 183.227 215.407 188.935C215.407 194.643 219.924 199.021 225.493 199.021C227.128 199.021 228.68 198.633 230.037 197.968L232.115 200.157L235.302 197.331L233.362 195.28C233.602 194.959 233.774 194.719 233.878 194.56C234.222 194.032 234.451 193.61 234.454 193.608C235.173 192.223 235.579 190.64 235.579 188.935ZM225.493 194.699C222.334 194.699 219.841 192.399 219.841 188.935C219.841 185.472 222.334 183.172 225.493 183.172C228.652 183.172 231.146 185.472 231.146 188.935C231.146 189.312 231.131 189.678 231.073 190.026C231.069 190.053 231.052 190.078 231.047 190.105C231.039 190.15 231.031 190.195 231.02 190.238C231.012 190.274 231.002 190.309 230.994 190.345C230.97 190.452 230.943 190.559 230.914 190.663C230.867 190.835 230.815 191.005 230.755 191.168C230.721 191.258 230.685 191.346 230.648 191.434C230.607 191.533 230.562 191.63 230.516 191.726C230.46 191.841 230.404 191.956 230.342 192.066L227.239 188.769L224.052 191.595L226.851 194.56C226.407 194.643 225.964 194.699 225.493 194.699Z" fill="white"/>
<path d="M313.972 189.671C313.972 186.372 308.247 180.872 305.164 180.872C308.467 180.872 313.972 175.153 313.972 172.074C313.972 175.373 319.697 180.872 322.78 180.872C319.697 180.652 313.972 186.372 313.972 189.671Z" fill="#FDD247"/>
<path d="M65.3652 139.054L69.7693 144.993L72.4118 143.013L68.0077 137.074L65.3652 139.054ZM67.7875 139.494C67.5673 139.714 67.3471 139.714 67.1269 139.494C66.9067 139.274 66.9067 139.054 67.1269 138.834C67.3471 138.614 67.5673 138.614 67.7875 138.834C68.0077 138.834 68.0077 139.274 67.7875 139.494Z" fill="white"/>
<path d="M73.073 142.354L77.0366 139.275C78.5781 138.175 78.7983 136.195 77.6973 134.655L75.9356 132.456C76.5962 131.796 76.8164 130.916 76.1558 130.256C75.4952 129.596 74.6144 129.376 73.9538 130.036L70.6507 132.676L70.4305 129.596C70.2103 128.496 69.1093 127.836 68.2285 128.496L69.1093 136.635L73.073 142.354Z" fill="white"/>
<path d="M166.659 162.591H180.972C181.192 162.591 181.413 162.591 181.633 162.371C182.073 161.931 182.514 161.051 182.073 160.172C181.413 159.072 179.871 159.512 179.871 159.512C179.871 159.512 180.091 157.752 178.77 157.312C177.449 156.872 176.128 157.972 176.128 157.972C176.128 157.972 176.128 155.552 173.926 155.332C171.724 155.112 170.182 157.092 169.962 158.412C169.962 158.412 168.2 157.092 167.099 158.192C165.998 159.292 165.998 160.831 166.219 161.931C165.998 162.371 166.219 162.591 166.659 162.591Z" fill="white"/>
<path d="M69.3302 191.187H91.5708C92.0112 191.187 92.2314 190.967 92.4516 190.747C93.1122 190.087 93.993 188.547 93.1122 187.227C92.0112 185.468 89.5889 186.347 89.5889 186.347C89.5889 186.347 90.0294 183.488 87.8273 182.828C85.8455 181.948 83.6435 183.928 83.6435 183.928C83.6435 183.928 83.6435 180.188 80.3404 179.748C77.0374 179.309 74.3949 182.388 74.1747 184.588C74.1747 184.588 71.5323 182.388 69.5504 184.368C68.009 185.908 68.009 188.547 68.2292 190.307C68.4494 190.747 68.8898 191.187 69.3302 191.187Z" fill="white"/>
<path d="M191.983 341.865L196.167 393.117H182.734V392.457L188.68 341.425L191.983 341.865Z" fill="white"/>
<path d="M191.543 337.905L192.644 341.425L213.123 333.946C213.343 333.946 213.563 333.506 213.563 333.286C213.563 333.066 213.123 332.846 212.903 332.846L191.543 337.905Z" fill="white"/>
<path d="M188.46 338.785L189.561 342.305L168.202 347.364C167.981 347.364 167.541 347.364 167.541 346.924C167.541 346.704 167.541 346.264 167.981 346.264L188.46 338.785Z" fill="white"/>
<path d="M188.461 339.005L191.984 337.905L184.498 317.448C184.498 317.228 184.057 317.008 183.837 317.008C183.617 317.008 183.396 317.448 183.396 317.668L188.461 339.005Z" fill="white"/>
<path d="M188.021 347.364L193.306 358.582L192.205 345.604L190.444 341.645L188.682 341.425L188.021 347.364Z" fill="#CCCCCC"/>
<path d="M192.644 340.545L189.121 341.645L196.608 362.102C196.608 362.322 197.048 362.542 197.269 362.542C197.489 362.542 197.709 362.102 197.709 361.882L192.644 340.545Z" fill="white"/>
<path d="M189.121 340.765C189.121 341.644 190.002 342.524 190.883 342.524C191.764 342.524 192.644 341.644 192.644 340.765C192.644 339.885 191.764 339.005 190.883 339.005C190.002 339.005 189.121 339.665 189.121 340.765Z" stroke="white" stroke-miterlimit="10"/>
<path d="M190.442 343.405C192.145 343.405 193.525 342.026 193.525 340.325C193.525 338.624 192.145 337.246 190.442 337.246C188.74 337.246 187.359 338.624 187.359 340.325C187.359 342.026 188.74 343.405 190.442 343.405Z" fill="white"/>
<path d="M190.441 342.084C191.414 342.084 192.203 341.297 192.203 340.325C192.203 339.353 191.414 338.565 190.441 338.565C189.468 338.565 188.68 339.353 188.68 340.325C188.68 341.297 189.468 342.084 190.441 342.084Z" fill="#4E3654"/>
<path d="M8.114 335.045L3.26953 393.117H18.4635V392.457L11.6373 334.605L8.114 335.045Z" fill="white"/>
<path d="M8.55483 330.426L7.45381 334.385L-15.8877 326.026C-16.3281 325.806 -16.3281 325.586 -16.3281 325.146C-16.3281 324.707 -15.8877 324.707 -15.4473 324.707L8.55483 330.426Z" fill="white"/>
<path d="M11.8588 331.525L10.7578 335.485L34.9802 341.424C35.4206 341.424 35.6408 341.204 35.861 340.984C35.861 340.544 35.861 340.324 35.4206 340.104L11.8588 331.525Z" fill="white"/>
<path d="M12.0789 331.745L8.11523 330.646L16.483 307.329C16.7032 306.889 16.9234 306.889 17.3638 306.889C17.8042 306.889 17.8042 307.329 17.8042 307.769L12.0789 331.745Z" fill="white"/>
<path d="M12.5197 341.204L6.57422 353.963L7.67523 339.005L9.87727 334.825L11.6389 334.605L12.5197 341.204Z" fill="#CCCCCC"/>
<path d="M7.2331 333.505L11.1968 334.605L2.82903 357.922C2.60883 358.362 2.38863 358.362 1.94822 358.362C1.50781 358.362 1.50781 357.922 1.50781 357.482L7.2331 333.505Z" fill="white"/>
<path d="M9.2162 335.485C10.3107 335.485 11.198 334.598 11.198 333.505C11.198 332.412 10.3107 331.525 9.2162 331.525C8.12166 331.525 7.23438 332.412 7.23438 333.505C7.23438 334.598 8.12166 335.485 9.2162 335.485Z" stroke="white" stroke-miterlimit="10"/>
<path d="M13.1793 333.065C13.1793 335.045 11.6379 336.585 9.65607 336.585C7.67424 336.585 6.13281 335.045 6.13281 333.065C6.13281 331.086 7.67424 329.546 9.65607 329.546C11.6379 329.766 13.1793 331.306 13.1793 333.065Z" fill="white"/>
<path d="M11.6375 333.065C11.6375 334.165 10.7567 335.045 9.65566 335.045C8.55465 335.045 7.67383 334.165 7.67383 333.065C7.67383 331.965 8.55465 331.085 9.65566 331.085C10.7567 331.085 11.6375 331.965 11.6375 333.065Z" fill="#4E3654"/>
<path d="M45.1094 278.293L35.6406 393.116H65.8085V391.576L52.3761 277.414L45.1094 278.293Z" fill="white"/>
<path d="M46.209 269.495L44.0069 277.193L-2.23573 260.476C-2.89634 260.256 -3.33675 259.596 -3.11655 258.936C-2.89634 258.276 -2.23573 257.836 -1.57512 258.056L46.209 269.495Z" fill="white"/>
<path d="M52.8153 271.474L50.6133 279.173L98.3974 290.831C99.058 291.051 99.7186 290.611 99.9388 289.951C100.159 289.291 99.7186 288.632 99.058 288.412L52.8153 271.474Z" fill="white"/>
<path d="M53.254 271.914L45.5469 269.494L62.2823 223.301C62.5025 222.641 63.1631 222.202 63.8237 222.421C64.4843 222.641 64.9248 223.301 64.7046 223.961L53.254 271.914Z" fill="white"/>
<path d="M53.9164 290.392L42.0254 315.908L44.4476 286.432L48.6315 277.854L52.375 277.414L53.9164 290.392Z" fill="#CCCCCC"/>
<path d="M43.7871 275.214L51.4942 277.634L34.7588 323.827C34.5386 324.486 33.878 324.926 33.2174 324.706C32.5568 324.486 32.1164 323.827 32.3366 323.167L43.7871 275.214Z" fill="white"/>
<path d="M51.273 275.434C51.273 277.633 49.5114 279.393 47.3094 279.393C45.1073 279.393 43.3457 277.633 43.3457 275.434C43.3457 273.234 45.1073 271.474 47.3094 271.474C49.5114 271.474 51.273 273.234 51.273 275.434Z" stroke="white" stroke-miterlimit="10"/>
<path d="M55.4573 274.554C55.4573 278.293 52.3744 281.373 48.631 281.373C44.8875 281.373 41.8047 278.293 41.8047 274.554C41.8047 270.814 44.8875 267.735 48.631 267.735C52.3744 267.735 55.4573 270.814 55.4573 274.554Z" fill="white"/>
<path d="M48.6297 278.513C50.8187 278.513 52.5933 276.74 52.5933 274.554C52.5933 272.367 50.8187 270.594 48.6297 270.594C46.4406 270.594 44.666 272.367 44.666 274.554C44.666 276.74 46.4406 278.513 48.6297 278.513Z" fill="#4E3654"/>
<path d="M332.473 392.457H-48.2578V393.776H332.473V392.457Z" fill="url(#paint10_linear)"/>
<path d="M119.535 358.801L119.755 373.319C119.976 383.217 128.123 391.136 138.032 390.916C147.941 390.696 155.869 382.557 155.648 372.659L155.428 358.141L119.535 358.801Z" fill="#5D5D5D"/>
<path d="M155.428 358.141L155.648 373.099C153.887 373.759 151.685 374.199 149.703 374.199L127.683 374.419C124.82 374.419 122.178 373.979 119.755 372.879L119.535 358.801L155.428 358.141Z" fill="#3A3A3A"/>
<path d="M107.865 337.244L108.085 351.762C108.306 361.441 116.453 369.14 126.583 368.92L148.383 368.7C158.512 368.48 166.439 360.561 166.439 351.102L166.219 336.584L107.865 337.244Z" fill="#EFF8FF"/>
<path d="M177.008 200.205L168.42 208.343L156.529 214.942L158.071 216.042L170.182 212.083L178.77 205.924L177.008 200.205Z" fill="#C13A72"/>
<path d="M141.125 346.751C179.827 344.074 209.029 310.564 206.35 271.903C203.67 233.243 170.124 204.072 131.422 206.748C92.7199 209.425 63.5178 242.935 66.1972 281.596C68.8766 320.256 102.423 349.427 141.125 346.751Z" fill="#EFF8FF"/>
<path d="M163.798 335.704L164.018 345.603C164.238 354.402 156.752 361.661 147.503 361.881L127.465 362.1C118.216 362.32 110.729 355.281 110.509 346.483L110.289 336.584C88.0482 326.686 72.1935 304.689 71.7531 278.733C71.3127 243.318 99.4987 214.063 135.172 213.623C170.624 213.183 199.911 241.339 200.352 276.973C201.012 302.709 185.818 325.146 163.798 335.704Z" fill="#DFEAF2"/>
<path d="M161.595 231.44C160.273 234.299 155.869 235.179 151.685 233.419C147.502 231.44 145.079 227.7 146.401 224.621C147.722 221.761 152.126 220.881 156.31 222.641C160.714 224.621 162.916 228.58 161.595 231.44Z" fill="white"/>
<path d="M163.796 335.704L164.017 345.603C164.237 354.401 156.75 361.66 147.501 361.88L127.463 362.1C118.214 362.32 110.727 355.281 110.507 346.483L110.287 336.584C97.5152 330.865 86.9454 321.406 80.1191 309.308C142.877 311.288 151.245 293.471 194.845 304.469C188.459 317.887 177.449 329.105 163.796 335.704Z" fill="#DC9849"/>
<path d="M163.796 335.704L164.016 345.603C164.236 354.401 156.749 361.66 147.501 361.88L127.462 362.1C118.214 362.32 110.727 355.281 110.506 346.482L110.286 336.584C100.597 332.405 92.2296 325.806 85.8438 317.667C85.8438 317.227 85.8438 317.007 85.8438 317.007C104.341 330.425 126.361 320.086 137.812 336.144C149.042 351.982 162.915 329.325 179.21 325.586C174.586 329.545 169.521 333.064 163.796 335.704Z" fill="#BC7D3F"/>
<path d="M137.151 312.388C142.624 312.388 147.06 311.797 147.06 311.068C147.06 310.339 142.624 309.749 137.151 309.749C131.679 309.749 127.242 310.339 127.242 311.068C127.242 311.797 131.679 312.388 137.151 312.388Z" fill="#BC7D3F"/>
<path d="M136.049 311.508C132.387 307.264 133.266 300.677 134.291 293.652C135.317 286.773 136.342 279.748 133.266 274.04L133.705 273.748C136.782 279.602 135.756 286.773 134.877 293.652C133.852 300.531 132.973 306.971 136.489 311.069L136.049 311.508Z" fill="#1FB89A"/>
<path d="M130.973 274.902C134.342 275.799 138.15 271.912 133.902 265.932C129.655 259.952 121.453 265.334 119.842 261.746C119.842 261.896 121.746 272.51 130.973 274.902Z" fill="#219E86"/>
<path d="M133.709 249.125V246.31C132.335 246.047 131.044 245.479 129.939 244.65C128.835 243.82 127.947 242.753 127.347 241.534C126.748 240.315 126.453 238.977 126.487 237.629C126.521 236.28 126.882 234.958 127.541 233.768C128.201 232.578 129.141 231.553 130.286 230.776C131.431 229.999 132.748 229.491 134.134 229.292C135.519 229.094 136.933 229.211 138.263 229.633C139.593 230.056 140.802 230.773 141.793 231.727C142.943 232.835 143.759 234.223 144.152 235.744C144.546 237.264 144.503 238.859 144.027 240.357C143.552 241.856 142.662 243.201 141.453 244.25C140.244 245.299 138.762 246.011 137.165 246.31V249.125H133.709ZM136.107 243.147C137.516 242.983 138.807 242.306 139.716 241.256C140.625 240.206 141.083 238.861 140.997 237.497C140.912 236.132 140.289 234.85 139.255 233.913C138.222 232.976 136.856 232.454 135.437 232.454C134.017 232.454 132.651 232.976 131.618 233.913C130.584 234.85 129.961 236.132 129.876 237.497C129.79 238.861 130.249 240.206 131.157 241.256C132.066 242.306 133.357 242.983 134.766 243.147H136.107Z" fill="#FF6932" fill-opacity="0.7"/>
<path d="M43.2788 177V172.478C41.1339 172.057 39.1185 171.144 37.3939 169.812C35.6693 168.481 34.2835 166.767 33.3475 164.809C32.4116 162.851 31.9515 160.704 32.0041 158.538C32.0566 156.372 32.6205 154.249 33.6504 152.338C34.6803 150.427 36.1477 148.782 37.9349 147.533C39.7221 146.285 41.7796 145.469 43.9424 145.151C46.1053 144.832 48.3133 145.02 50.3898 145.699C52.4662 146.378 54.3533 147.529 55.8998 149.061C57.6958 150.84 58.9694 153.069 59.584 155.511C60.1986 157.952 60.1311 160.513 59.3887 162.92C58.6464 165.326 57.2571 167.487 55.3698 169.171C53.4826 170.855 51.1684 171.998 48.6753 172.478V177H43.2788ZM47.0232 167.4C49.2231 167.136 51.2383 166.049 52.6572 164.363C54.0762 162.677 54.792 160.517 54.6584 158.326C54.5248 156.135 53.5519 154.076 51.9384 152.571C50.3249 151.066 48.1925 150.228 45.9765 150.228C43.7604 150.228 41.628 151.066 40.0145 152.571C38.401 154.076 37.4281 156.135 37.2945 158.326C37.161 160.517 37.8767 162.677 39.2957 164.363C40.7146 166.049 42.7298 167.136 44.9297 167.4H47.0232Z" fill="#FFF6F2" fill-opacity="0.7"/>
<path d="M135.902 286.919L135.463 286.627C135.609 286.48 138.979 282.382 141.324 282.382V282.968C139.272 282.821 135.902 286.919 135.902 286.919Z" fill="#1FB89A"/>
<path d="M140.689 281.647C139.677 283.655 141.845 284.993 144.156 283.989C146.035 283.153 147.479 280.141 149.069 281.145C149.069 281.312 144.156 274.451 140.689 281.647Z" fill="#219E86"/>
<path d="M134.583 293.506C134.144 293.213 133.851 293.067 133.411 292.774C131.36 291.603 129.016 290.432 128.43 287.798L129.016 287.651C129.455 289.993 131.8 291.164 133.704 292.188C134.144 292.481 134.583 292.628 134.876 292.92L134.583 293.506Z" fill="#1FB89A"/>
<path d="M125.495 289.043C127.563 290.772 130.183 288.467 130.458 286.018C130.734 283.713 125.908 277.518 119.842 281.84C119.842 281.84 121.634 281.408 122.737 282.56C123.84 283.857 122.461 286.45 125.495 289.043Z" fill="#219E86"/>
<path d="M140.434 283.044C141.801 280.76 145.083 280.345 145.083 280.345C145.083 280.345 141.117 282.213 140.57 283.666L140.434 283.044Z" fill="#288976"/>
<path d="M129.142 288.435C127.718 285.437 125.156 283.666 125.156 283.666L128.288 288.98L129.142 288.435Z" fill="#288976"/>
<path d="M134.455 273.512C132.498 267.392 126.484 266.396 126.484 266.396C126.484 266.396 131.239 267.819 133.476 274.366L134.455 273.512Z" fill="#288976"/>
<path d="M173.926 192.286L176.788 195.806L178.77 193.606L175.687 189.867L173.926 192.286Z" fill="#E29779"/>
<path d="M165.339 190.306C169.082 196.025 174.367 194.265 176.129 191.186C177.89 188.106 175.688 183.267 172.165 181.947C168.862 180.407 162.696 186.126 165.339 190.306Z" fill="#FEAC84"/>
<path d="M163.796 189.866C165.337 191.626 171.063 186.566 171.503 184.147C171.503 184.147 175.907 185.906 177.008 188.326C177.008 188.326 177.228 184.147 173.925 181.947C170.622 179.967 167.319 180.407 164.897 182.387C162.255 184.367 162.255 187.886 163.796 189.866Z" fill="#57547F"/>
<path d="M169.301 181.068C173.044 179.968 176.788 182.387 178.329 185.907C179.871 189.426 184.054 191.846 184.054 192.726C184.054 193.606 184.495 190.086 184.054 193.166C183.614 196.245 175.907 194.266 174.586 191.406C173.264 188.327 169.301 181.068 169.301 181.068Z" fill="#57547F"/>
<path d="M169.962 259.376L169.301 263.776L161.814 261.796C161.153 261.576 160.933 260.916 161.374 260.476C162.254 259.156 164.236 257.397 167.099 258.276L169.962 259.376Z" fill="#A7C4E6"/>
<path d="M182.074 271.254L183.835 278.073L179.211 277.853L180.312 270.594L182.074 271.254Z" fill="#A7C4E6"/>
<path d="M192.864 218.462C192.864 218.462 196.167 225.501 191.983 231.001C187.799 236.5 184.716 243.539 184.716 243.539L183.175 272.794H179.872L180.312 242.219L186.038 227.701L177.45 232.98L170.183 259.816L167.32 258.716L172.825 230.341L184.496 218.902L192.864 218.462Z" fill="#F1A32A"/>
<path d="M179.43 191.626C179.43 191.626 185.375 193.386 187.137 198.885C189.119 204.165 192.642 218.462 192.642 218.462L183.173 220.222L178.329 206.804C178.329 206.804 175.246 202.845 175.466 198.006C175.687 193.166 179.43 191.626 179.43 191.626Z" fill="#D84178"/>
<path d="M182.954 219.122C187.358 218.242 187.578 209.883 186.037 202.844C184.495 195.805 182.293 197.345 182.293 197.345L179.871 210.543L182.954 219.122Z" fill="#C13A72"/>
<path d="M164.677 222.641C164.677 222.641 162.255 225.501 161.154 224.841C160.053 224.181 159.833 222.421 159.833 222.421C159.833 222.421 159.393 222.421 159.172 222.201C158.952 221.761 161.374 220.661 161.374 220.661C161.374 220.661 159.833 218.902 160.053 218.682C160.494 218.462 162.916 220.221 163.576 220.221C164.457 220.221 164.677 222.641 164.677 222.641Z" fill="#FEAC84"/>
<path d="M185.156 213.623C185.156 214.283 184.936 214.943 184.495 215.383C183.615 216.262 182.514 216.922 181.192 217.362L164.677 222.642L163.576 220.222L180.532 212.523L178.55 194.486C179.431 188.767 183.394 193.826 183.394 193.826L185.156 213.623Z" fill="#D84178"/>
<path d="M86.0644 388.276L85.1836 392.016L95.9735 393.115C95.9735 393.115 94.6523 390.256 91.5695 390.036C88.4866 389.816 88.2664 388.056 88.2664 388.056H86.0644V388.276Z" fill="#3A3A3A"/>
<path d="M73.0742 387.837L72.1934 391.576L82.9833 392.676C82.9833 392.676 81.6621 389.816 78.5792 389.596C75.4964 389.376 75.2762 387.617 75.2762 387.617H73.0742V387.837Z" fill="#3A3A3A"/>
<path d="M79.2383 303.369L79.6787 306.448L83.8625 304.468L82.1009 300.289L79.2383 303.369Z" fill="#E29779"/>
<path d="M76.8163 292.59C76.8163 292.59 84.3032 294.57 83.4224 299.849C82.5415 304.908 74.1738 305.568 73.7334 299.849C73.293 293.91 76.8163 292.59 76.8163 292.59Z" fill="#FEAC84"/>
<path d="M76.1555 299.629C76.1555 299.629 81 294.79 79.6787 289.951C78.3575 285.111 72.412 288.631 72.412 288.631C72.412 288.631 76.1555 288.411 75.7151 290.831C75.7151 290.831 70.21 296.55 72.8524 301.829C75.7151 307.108 80.3393 303.149 80.3393 303.149L76.1555 299.629Z" fill="#D84178"/>
<path d="M94.6526 359.9L88.4869 388.496H85.6243L89.3677 359.241L86.2849 346.042L83.4223 359.9L75.7152 388.276H72.4121L77.4768 358.141L81 332.185L92.891 335.704L94.6526 357.261C94.8728 357.921 94.8728 359.021 94.6526 359.9Z" fill="#F1A32A"/>
<path d="M73.7338 323.606L81.0005 334.164L79.6792 336.804L69.3297 326.026C68.6691 325.366 68.4489 324.486 68.8893 323.606L69.1095 323.166V322.946L77.4772 306.668L79.6792 307.328L81.2207 314.367L73.7338 323.606Z" fill="#3F4CC9"/>
<path d="M87.1655 299.85C87.1655 299.85 95.313 316.347 93.3312 337.904L79.4584 336.144C79.4584 336.144 79.4584 309.968 77.4766 306.669L87.1655 299.85Z" fill="#4952DB"/>
<path d="M100.597 274.993C100.597 274.993 104.121 274.333 104.781 272.134C105.442 269.934 102.359 267.954 101.258 269.274C100.377 270.594 100.377 270.594 100.377 270.594C100.377 270.594 99.056 268.834 98.8358 269.054C98.6156 269.274 98.6156 270.154 99.7166 271.254V273.893L100.597 274.993Z" fill="#FEAC84"/>
<path d="M102.36 275.433L94.6531 295.01L88.2672 308.428L82.1016 303.369L91.3501 290.391L99.7178 273.673L102.36 275.433Z" fill="#4952DB"/>
<path d="M77.2574 300.289C75.2756 300.729 76.1564 302.269 79.2393 301.829C82.1019 301.389 77.2574 300.289 77.2574 300.289Z" fill="#FEAC84"/>
<path d="M172.385 187.227C173.706 183.927 175.468 186.127 174.587 188.986C173.486 192.066 171.725 189.426 171.725 189.426L172.385 187.227Z" fill="#FEAC84"/>
<path d="M227.512 393.087H228.613V370.871H227.512V393.087Z" fill="white"/>
<path d="M215.545 368.261L228.097 380.579L240.648 368.261L228.097 355.943L215.545 368.261Z" fill="#CAC4F2"/>
<path d="M224.132 376.62L236.463 364.302L236.243 364.082L223.691 376.4L224.132 376.62Z" fill="#FDFDFF"/>
<path d="M219.948 372.66L232.5 360.342L232.059 359.902L219.508 372.221L219.948 372.66Z" fill="#FDFDFF"/>
<path d="M236.243 372.661L236.463 372.221L224.132 359.903L223.691 360.343L236.243 372.661Z" fill="#FDFDFF"/>
<path d="M232.059 376.621L232.5 376.401L219.948 364.083L219.508 364.302L232.059 376.621Z" fill="#FDFDFF"/>
<path d="M271.664 393.248H273.205V360.253H271.664V393.248Z" fill="white"/>
<path d="M254.08 356.166L272.453 374.52L290.826 356.166L272.453 337.812L254.08 356.166Z" fill="#CAC4F2"/>
<path d="M284.428 349.787L266.055 368.14L266.522 368.607L284.895 350.253L284.428 349.787Z" fill="#FDFDFF"/>
<path d="M278.391 343.538L260.018 361.891L260.485 362.358L278.858 344.004L278.391 343.538Z" fill="#FDFDFF"/>
<path d="M266.665 343.637L266.197 344.104L284.568 362.462L285.035 361.996L266.665 343.637Z" fill="#FDFDFF"/>
<path d="M260.409 349.668L259.941 350.134L278.312 368.493L278.779 368.026L260.409 349.668Z" fill="#FDFDFF"/>
<path d="M240.549 393.145H243.412V327.595H240.549V393.145Z" fill="white"/>
<path d="M205.46 319.158L242.051 355.709L278.642 319.158L242.051 282.606L205.46 319.158Z" fill="#CAC4F2"/>
<path d="M266.04 306.582L229.449 343.133L230.539 344.222L267.13 307.671L266.04 306.582Z" fill="#FDFDFF"/>
<path d="M253.942 294.451L217.352 331.002L218.442 332.091L255.032 295.54L253.942 294.451Z" fill="#FDFDFF"/>
<path d="M230.406 294.318L229.316 295.407L265.907 331.958L266.997 330.87L230.406 294.318Z" fill="#FDFDFF"/>
<path d="M218.418 306.558L217.328 307.646L253.919 344.198L255.009 343.109L218.418 306.558Z" fill="#FDFDFF"/>
<path d="M295.697 382.778C293.495 372.879 289.312 373.539 289.752 368.04C289.752 368.04 286.008 361.441 288.871 351.103C288.871 351.103 284.467 346.703 285.788 341.644C287.109 336.585 284.467 330.866 287.109 327.346C289.532 323.827 291.073 321.627 290.413 319.867C289.752 317.888 292.835 312.608 296.138 311.289C299.441 309.969 302.304 310.849 304.506 313.048C306.708 315.248 308.029 321.627 307.809 323.607C307.588 325.586 310.011 330.206 311.112 333.065C312.433 335.925 310.671 341.644 309.79 344.944C308.91 348.243 310.671 350.223 313.093 351.543C315.516 353.082 312.433 358.361 310.011 362.101C307.588 365.62 304.726 369.36 305.166 370.68C305.607 371.999 297.459 377.059 297.239 379.038C297.239 381.238 295.697 382.778 295.697 382.778Z" fill="#0E8A96"/>
<path d="M295.037 393.117C293.936 388.717 295.257 382.118 296.579 375.959C297.459 371.56 298.34 366.941 298.34 363.421C298.34 360.122 297.68 357.482 297.019 354.842C296.138 350.883 295.037 346.923 296.799 341.424C299.441 332.846 296.799 327.566 296.799 327.566L297.9 327.126C298.12 327.346 300.762 332.846 297.9 341.864C296.358 347.143 297.239 350.443 298.12 354.622C298.781 357.262 299.441 360.122 299.441 363.421C299.441 367.16 298.56 371.78 297.68 376.179C296.358 382.338 295.257 388.497 296.138 392.897L295.037 393.117Z" fill="#123F49"/>
<path d="M44.6663 393.116C32.3349 372.439 39.8218 344.503 39.8218 344.503C39.8218 344.503 59.6401 350.882 68.8887 393.116H44.6663Z" fill="#1B687A"/>
<path d="M55.8971 393.116C50.8324 371.779 30.3535 364.52 30.3535 364.52C30.3535 364.52 31.2343 382.997 39.8222 393.116H55.8971Z" fill="#155263"/>
<path d="M60.5223 393.116C56.1183 374.199 48.8516 364.74 48.8516 364.74C48.8516 364.74 57.2193 383.217 58.1001 393.116H60.5223Z" fill="#155263"/>
<path d="M50.3915 393.115L38.7207 374.638L47.9692 393.115H50.3915Z" fill="#123F49"/>
<path d="M78.3574 393.116C83.4221 371.779 103.901 364.52 103.901 364.52C103.901 364.52 103.02 382.997 94.4323 393.116H78.3574Z" fill="#155263"/>
<path d="M83.8633 393.115L95.5341 374.638L86.2855 393.115H83.8633Z" fill="#123F49"/>
<path d="M169.744 386.517C178.552 361.441 208.279 355.942 208.279 355.942C208.279 355.942 201.453 384.318 189.121 393.116H168.643L169.744 386.517Z" fill="#1B687A"/>
<path d="M175.689 393.116C175.689 393.116 184.498 374.199 193.966 369.36C193.966 369.36 184.498 380.578 179.213 393.116H175.689Z" fill="#155263"/>
<path d="M213.124 393.117C224.134 381.018 218.629 366.061 218.629 366.061C218.629 366.061 191.764 376.619 186.92 393.117H213.124Z" fill="#155263"/>
<path d="M197.709 393.116L208.719 380.138L202.113 393.116H197.709Z" fill="#123F49"/>
</g>
<defs>
<linearGradient id="paint0_linear" x1="212.5" y1="0" x2="212.5" y2="400" gradientUnits="userSpaceOnUse">
<stop stop-color="#FF8F50"/>
<stop offset="1" stop-color="#FF7511"/>
</linearGradient>
<linearGradient id="paint1_linear" x1="212.5" y1="0" x2="212.5" y2="400" gradientUnits="userSpaceOnUse">
<stop stop-color="#FF8F50"/>
<stop offset="1" stop-color="#FF7511"/>
</linearGradient>
<linearGradient id="paint2_linear" x1="285.921" y1="343.557" x2="24.71" y2="343.557" gradientUnits="userSpaceOnUse">
<stop stop-color="#FFB68D"/>
<stop offset="1" stop-color="#FF7511"/>
</linearGradient>
<linearGradient id="paint3_linear" x1="-106.022" y1="342.479" x2="225.076" y2="342.479" gradientUnits="userSpaceOnUse">
<stop stop-color="#FFA877"/>
<stop offset="1" stop-color="#FF7511"/>
</linearGradient>
<linearGradient id="paint4_linear" x1="411.052" y1="349.175" x2="126.405" y2="349.175" gradientUnits="userSpaceOnUse">
<stop stop-color="#FFAF82"/>
<stop offset="1" stop-color="#FF7511"/>
</linearGradient>
<linearGradient id="paint5_linear" x1="217.74" y1="336.141" x2="544.726" y2="336.141" gradientUnits="userSpaceOnUse">
<stop stop-color="#FF8F50"/>
<stop offset="1" stop-color="#FFF1E7"/>
</linearGradient>
<linearGradient id="paint6_linear" x1="92.9402" y1="361.053" x2="354.151" y2="361.053" gradientUnits="userSpaceOnUse">
<stop stop-color="#FFE4D6"/>
<stop offset="1" stop-color="#FFA15C"/>
</linearGradient>
<linearGradient id="paint7_linear" x1="219.349" y1="343.557" x2="-41.8614" y2="343.557" gradientUnits="userSpaceOnUse">
<stop stop-color="#FFE0CE"/>
<stop offset="1" stop-color="#FF9D56"/>
</linearGradient>
<linearGradient id="paint8_linear" x1="355.66" y1="374.542" x2="639.626" y2="374.542" gradientUnits="userSpaceOnUse">
<stop stop-color="#FF8F50"/>
<stop offset="1" stop-color="#FF7511"/>
</linearGradient>
<linearGradient id="paint9_linear" x1="307.839" y1="336.141" x2="594.859" y2="336.141" gradientUnits="userSpaceOnUse">
<stop stop-color="#FF8F50"/>
<stop offset="1" stop-color="#FF7511"/>
</linearGradient>
<linearGradient id="paint10_linear" x1="-48.1759" y1="393.169" x2="332.628" y2="393.169" gradientUnits="userSpaceOnUse">
<stop stop-color="#2EB7B3"/>
<stop offset="0.986" stop-color="#00A884"/>
</linearGradient>
</defs>
</svg>
