<svg width="425" height="400" viewBox="0 0 425 400" fill="none" xmlns="http://www.w3.org/2000/svg">
<rect width="425" height="400" fill="#DEE3FF"/>
<mask id="mask0" mask-type="alpha" maskUnits="userSpaceOnUse" x="0" y="0" width="425" height="400">
<rect width="425" height="400" fill="#DEE3FF"/>
</mask>
<g mask="url(#mask0)">
<rect x="-35" width="460" height="400" fill="url(#paint0_linear)"/>
<path d="M201.778 412.22C279.858 412.22 343.154 406.983 343.154 400.522C343.154 394.062 279.858 388.824 201.778 388.824C123.698 388.824 60.4023 394.062 60.4023 400.522C60.4023 406.983 123.698 412.22 201.778 412.22Z" fill="#E6E6E6"/>
<path d="M73.903 406.042C54.6974 372.337 43.8168 331.502 43.0509 290.295C42.8934 281.783 43.2585 272.806 46.902 265.582C50.6601 258.108 57.3889 253.655 64.2107 251.142C71.542 248.378 79.442 247.466 87.2102 248.486C101.634 250.419 114.92 258.917 129.065 262.926C136.08 264.916 143.882 265.639 150.06 261.079C153.782 258.323 156.502 253.92 158.936 249.474C166.18 236.216 171.678 221.619 178.414 207.952C185.15 194.286 193.446 181.242 204.642 173.202C215.837 165.163 230.411 162.929 241.707 170.797C256.582 181.177 261.221 204.315 266.045 224.568C268.336 234.24 271.056 244.012 276.231 251.815C286.554 267.415 303.963 271.861 319.718 277.058C335.473 282.256 352.739 291.376 358.143 310.362C362.753 326.591 356.948 344.453 349.654 359.1C344.706 368.842 339.209 378.296 333.19 387.414C330.019 392.311 326.654 397.258 322.166 400.179C317.348 403.307 311.722 403.794 306.282 404.116C271.656 406.185 236.908 404.367 202.687 398.697C181.671 395.218 160.454 390.292 139.415 393.485C128.929 395.039 118.707 398.618 108.227 400.05C96.3299 401.675 83.8888 400.594 72.8436 406.371" fill="#F3F3F3"/>
<path d="M119.079 343.78C119.079 343.78 131.664 364.255 105.386 397.358L100.525 395.619L95.6719 393.879C96.3877 351.591 119.079 343.78 119.079 343.78Z" fill="#D3AED1"/>
<path d="M119.08 343.78L100.525 395.619" stroke="white" stroke-width="2" stroke-miterlimit="10"/>
<path d="M122.063 359.078L112.263 362.822L107.066 353.709" stroke="white" stroke-width="2" stroke-miterlimit="10"/>
<path d="M119.986 371.192L108.182 374.22L100.988 364.391" stroke="white" stroke-width="2" stroke-miterlimit="10"/>
<path d="M115.362 382.395L104.117 385.623L97.4668 375.987" stroke="white" stroke-width="2" stroke-miterlimit="10"/>
<path d="M47.295 323.154C47.295 323.154 29.3493 352.291 66.8228 399.548L73.7448 397.064L80.674 394.587C79.6504 334.287 47.295 323.154 47.295 323.154Z" fill="#D3AED1"/>
<path d="M47.2949 323.154L73.7447 397.064" stroke="white" stroke-width="2" stroke-miterlimit="10"/>
<path d="M43.043 344.968L57.0087 350.309L64.4175 337.315" stroke="white" stroke-width="2" stroke-miterlimit="10"/>
<path d="M45.998 362.242L62.82 366.559L73.0921 352.542" stroke="white" stroke-width="2" stroke-miterlimit="10"/>
<path d="M52.5918 378.215L68.6263 382.818L78.1039 369.08" stroke="white" stroke-width="2" stroke-miterlimit="10"/>
<path d="M85.1182 298.964C85.1182 298.964 52.1901 325.331 76.0486 395.754H94.1877C118.046 325.331 85.1182 298.964 85.1182 298.964Z" fill="#A7B9B8"/>
<path d="M85.1191 298.964V395.74" stroke="white" stroke-width="2" stroke-miterlimit="10"/>
<path d="M71.125 322.518L85.1194 334.516L99.1138 322.518" stroke="white" stroke-width="2" stroke-miterlimit="10"/>
<path d="M67.3828 343.794L85.1138 355.793L102.852 343.794" stroke="white" stroke-width="2" stroke-miterlimit="10"/>
<path d="M68.3965 365.071L85.0967 377.069L101.797 365.071" stroke="white" stroke-width="2" stroke-miterlimit="10"/>
<path d="M293.218 350.337C293.218 350.337 282.008 368.549 305.387 398.073L309.682 396.527L314.012 394.973C313.44 357.295 293.218 350.337 293.218 350.337Z" fill="#D3AED1"/>
<path d="M293.219 350.337L309.747 396.527" stroke="white" stroke-width="2" stroke-miterlimit="10"/>
<path d="M290.561 363.968L299.286 367.304L303.918 359.186" stroke="white" stroke-width="2" stroke-miterlimit="10"/>
<path d="M292.408 374.764L302.924 377.463L309.337 368.7" stroke="white" stroke-width="2" stroke-miterlimit="10"/>
<path d="M296.531 384.744L306.553 387.622L312.473 379.038" stroke="white" stroke-width="2" stroke-miterlimit="10"/>
<path d="M357.176 331.959C357.176 331.959 373.168 357.925 339.774 400.027L333.604 397.815L327.434 395.603C328.35 341.882 357.176 331.959 357.176 331.959Z" fill="#D3AED1"/>
<path d="M357.178 331.959L333.605 397.815" stroke="white" stroke-width="2" stroke-miterlimit="10"/>
<path d="M360.97 351.397L348.522 356.15L341.922 344.574" stroke="white" stroke-width="2" stroke-miterlimit="10"/>
<path d="M358.336 366.789L343.34 370.633L334.191 358.148" stroke="white" stroke-width="2" stroke-miterlimit="10"/>
<path d="M352.459 381.021L338.171 385.116L329.725 372.881" stroke="white" stroke-width="2" stroke-miterlimit="10"/>
<path d="M323.475 310.404C323.475 310.404 352.824 333.9 331.549 396.635H315.393C294.133 333.9 323.475 310.404 323.475 310.404Z" fill="#A7B9B8"/>
<path d="M323.475 310.404V396.635" stroke="white" stroke-width="2" stroke-miterlimit="10"/>
<path d="M335.945 331.394L323.476 342.082L311.006 331.394" stroke="white" stroke-width="2" stroke-miterlimit="10"/>
<path d="M339.281 350.352L323.483 361.04L307.678 350.352" stroke="white" stroke-width="2" stroke-miterlimit="10"/>
<path d="M338.379 369.309L323.497 380.005L308.615 369.309" stroke="white" stroke-width="2" stroke-miterlimit="10"/>
<path d="M283.196 321.686H258.507C260.595 319.605 262.019 316.95 262.598 314.059C263.177 311.168 262.885 308.17 261.759 305.445C260.633 302.72 258.724 300.39 256.273 298.751C253.822 297.111 250.94 296.236 247.992 296.236C245.043 296.236 242.161 297.111 239.71 298.751C237.26 300.39 235.35 302.72 234.224 305.445C233.098 308.17 232.806 311.168 233.385 314.059C233.964 316.95 235.388 319.605 237.476 321.686H212.787C212.273 321.685 211.762 321.784 211.286 321.98C210.81 322.175 210.377 322.463 210.012 322.826C209.647 323.189 209.357 323.62 209.159 324.096C208.961 324.571 208.858 325.08 208.857 325.595V350.165C210.951 348.104 213.607 346.709 216.491 346.153C219.376 345.597 222.36 345.906 225.069 347.042C227.779 348.177 230.092 350.087 231.719 352.533C233.346 354.979 234.214 357.851 234.214 360.789C234.214 363.727 233.346 366.599 231.719 369.045C230.092 371.491 227.779 373.401 225.069 374.536C222.36 375.671 219.376 375.981 216.491 375.425C213.607 374.869 210.951 373.473 208.857 371.413V395.983C208.857 397.019 209.269 398.014 210.002 398.747C210.735 399.48 211.729 399.891 212.766 399.891H283.175C283.688 399.892 284.197 399.792 284.671 399.596C285.146 399.4 285.577 399.112 285.94 398.749C286.303 398.386 286.591 397.954 286.787 397.48C286.983 397.005 287.084 396.496 287.083 395.983V325.595C287.083 324.562 286.674 323.571 285.946 322.839C285.217 322.106 284.229 321.692 283.196 321.686Z" fill="#FF0A7B"/>
<path d="M219.138 345.906C215.232 345.912 211.485 347.455 208.708 350.201V325.596C208.709 325.082 208.608 324.573 208.412 324.098C208.216 323.623 207.929 323.191 207.566 322.827C207.203 322.463 206.772 322.175 206.297 321.978C205.822 321.781 205.313 321.68 204.8 321.68H180.111C182.201 319.598 183.627 316.942 184.208 314.049C184.788 311.156 184.497 308.156 183.37 305.428C182.244 302.701 180.334 300.369 177.882 298.729C175.43 297.088 172.546 296.212 169.595 296.212C166.645 296.212 163.761 297.088 161.309 298.729C158.856 300.369 156.946 302.701 155.82 305.428C154.694 308.156 154.402 311.156 154.983 314.049C155.563 316.942 156.989 319.598 159.08 321.68H134.412C133.375 321.682 132.381 322.095 131.648 322.829C130.915 323.563 130.504 324.558 130.504 325.596V350.165C132.599 348.108 135.255 346.715 138.138 346.162C141.022 345.609 144.004 345.92 146.712 347.056C149.419 348.192 151.731 350.102 153.357 352.548C154.982 354.993 155.85 357.864 155.85 360.8C155.85 363.737 154.982 366.608 153.357 369.053C151.731 371.498 149.419 373.409 146.712 374.545C144.004 375.681 141.022 375.992 138.138 375.438C135.255 374.885 132.599 373.492 130.504 371.435V396.005C130.504 397.041 130.916 398.036 131.649 398.769C132.382 399.502 133.376 399.913 134.412 399.913H204.821C205.335 399.914 205.843 399.814 206.318 399.618C206.792 399.422 207.224 399.134 207.587 398.771C207.95 398.408 208.238 397.976 208.434 397.502C208.63 397.027 208.73 396.518 208.729 396.005V371.413C210.474 373.124 212.613 374.379 214.957 375.068C217.302 375.758 219.779 375.859 222.172 375.365C224.565 374.87 226.8 373.795 228.679 372.233C230.558 370.671 232.024 368.671 232.948 366.409C233.872 364.146 234.225 361.692 233.977 359.261C233.729 356.83 232.886 354.497 231.524 352.468C230.161 350.44 228.321 348.778 226.165 347.628C224.008 346.479 221.602 345.877 219.159 345.877L219.138 345.906Z" fill="#FFC700"/>
<path d="M302.33 323.384C302.33 323.384 308.3 323.162 309.202 329.476C310.104 335.79 306.532 337.602 306.532 337.602H297.319C297.319 337.602 294.699 323.641 302.33 323.384Z" fill="#1C1E2F"/>
<path d="M297.921 330.901C297.921 334.172 299.904 336.821 301.5 336.821C303.097 336.821 306.719 334.172 306.719 330.901C306.719 327.629 306.919 324.987 302.309 324.987C297.47 324.987 297.921 327.636 297.921 330.901Z" fill="#FFAF83"/>
<path d="M301.371 342.233H303.812V335.747H301.657L301.371 342.233Z" fill="#FFAF83"/>
<path d="M286.826 340.407L294.199 346.85C294.199 346.85 296.99 342.262 297.978 340.035C298.176 339.569 298.496 339.166 298.904 338.867C299.312 338.569 299.794 338.386 300.297 338.338V342.841L301.543 341.889L302.33 343.128L305.344 338.446C306.876 338.653 309.059 339.341 309.353 341.56C309.818 345.032 306.747 354.661 306.747 354.661H299.839L298.909 345.175C298.909 345.175 295.995 351.067 294.614 351.067C293.232 351.067 285.451 342.269 285.451 342.269L286.826 340.407Z" fill="#FF7F2B"/>
<path d="M301.541 341.897L303.81 338.375C304.322 338.358 304.835 338.385 305.342 338.454L302.328 343.136L301.541 341.897Z" fill="#EEE7D7"/>
<path d="M300.297 338.346C300.709 338.28 301.13 338.28 301.542 338.346V341.868L300.297 342.82V338.346Z" fill="#EEE7D7"/>
<path d="M287.018 340.723C287.018 340.723 284.928 336.843 284.62 336.964C284.312 337.086 285.336 339.191 285.336 339.191C285.336 339.191 283.188 336.671 282.773 336.828C282.539 336.924 282.331 337.074 282.167 337.267C282.003 337.46 281.889 337.69 281.833 337.937C281.778 338.184 281.783 338.44 281.848 338.685C281.913 338.93 282.036 339.155 282.208 339.341C283.355 340.461 284.633 341.437 286.016 342.248L287.018 340.723Z" fill="#FFAF83"/>
<path d="M309.451 396.699C309.451 396.699 307.504 399.562 306.875 400.572C306.245 401.581 307.018 402.283 309.344 400.923C310.017 400.536 311.384 398.338 311.384 398.338L312.157 400.092L312.336 400.028C312.336 400.028 312.372 396.412 311.205 396.083L309.451 396.699Z" fill="#1C1E2F"/>
<path d="M303.697 379.288C304.971 378.837 305.944 377.713 306.861 379.482C308.222 381.827 309.135 384.405 309.552 387.085C310.268 391.566 311.206 396.098 311.206 396.098C311.206 396.098 309.774 398.281 308.629 398.847C307.483 399.412 309.452 396.699 309.452 396.699C309.452 396.699 304.971 384.872 304.055 383.355C303.138 381.837 302.423 379.725 303.697 379.288Z" fill="#F7A379"/>
<path d="M300.518 397.186C300.518 397.186 297.733 399.233 296.802 399.978C295.872 400.722 296.366 401.631 299.014 401.13C299.78 400.987 301.799 399.376 301.799 399.376L301.942 401.288H302.128C302.128 401.288 303.374 397.887 302.379 397.186H300.518Z" fill="#1C1E2F"/>
<path d="M300.519 397.186C300.519 397.186 300.24 384.543 299.889 382.803C299.538 381.063 299.56 378.837 300.906 378.837C302.251 378.837 303.547 378.121 303.826 380.075C304.327 382.739 304.327 385.473 303.826 388.137C303.003 392.597 302.394 397.186 302.394 397.186C302.394 397.186 300.354 398.782 299.052 398.918C297.749 399.054 300.519 397.186 300.519 397.186Z" fill="#FFAF83"/>
<path d="M289.243 352.005C289.243 352.005 284.948 350.945 284.841 351.289C284.734 351.632 286.945 352.277 286.945 352.277C286.945 352.277 283.66 352.155 283.474 352.592C283.387 352.83 283.359 353.086 283.393 353.337C283.426 353.588 283.52 353.827 283.667 354.034C283.813 354.241 284.008 354.409 284.233 354.525C284.459 354.64 284.709 354.699 284.963 354.696C286.562 354.602 288.144 354.311 289.673 353.83L289.243 352.005Z" fill="#FFAF83"/>
<path d="M306.747 354.669C306.747 354.669 309.76 356.509 309.925 363.138C310.09 369.767 307.641 380.083 307.641 380.083H299.431C299.431 380.083 298.293 359.108 299.839 354.669H306.747Z" fill="#631958"/>
<path d="M307.877 341.703C308.023 342.885 307.793 344.082 307.218 345.125C306.503 346.356 302.924 350.781 301.492 352.499C301.321 352.704 301.098 352.86 300.846 352.949C300.594 353.039 300.322 353.059 300.06 353.007L299.688 352.936L299.337 349.356L299.266 348.64L305.601 340.092L307.877 341.703Z" fill="#EF6A20"/>
<path d="M305.587 340.107L299.324 349.342L288.379 351.776L288.808 354.232C288.808 354.232 299.761 352.936 300.691 352.256C301.622 351.576 307.57 343.328 307.57 343.328C307.57 343.328 309.073 340.357 305.587 340.107Z" fill="#FF7F2B"/>
<path d="M298.183 346.572L297.911 347.059C297.911 347.059 297.389 343.522 299.25 342.227L299.207 344.646L298.183 346.572Z" fill="#EF6A20"/>
<path d="M299.251 342.227C299.251 342.227 296.753 347.08 299.186 348.011L300.296 346.765L299.251 342.227Z" fill="#FF7F2B"/>
<path d="M297.913 329.226L299.688 326.648C300.172 327.578 300.896 328.36 301.785 328.914C302.674 329.468 303.695 329.773 304.742 329.798C307.663 330.006 304.892 332.662 304.892 332.662L303.174 337.63H306.532C306.532 337.63 308.45 328.725 307.248 326.892C306.045 325.059 304.892 324.086 302.638 324.186C300.383 324.286 297.434 325.159 297.913 329.226Z" fill="#1C1E2F"/>
<path d="M159.71 244.964C159.71 244.964 159.846 244.312 161.063 243.532C162.28 242.752 164.384 243.16 164.957 242.709C165.53 242.258 160.247 242.143 159.23 242.394C158.214 242.644 157.455 245.687 157.455 245.687L159.71 244.964Z" fill="#FFAF83"/>
<path d="M130.831 244.964C130.831 244.964 130.695 244.312 129.478 243.532C128.261 242.752 126.157 243.16 125.584 242.709C125.012 242.258 130.294 242.143 131.311 242.394C132.327 242.644 133.086 245.687 133.086 245.687L130.831 244.964Z" fill="#FFAF83"/>
<path d="M146.293 264.536L143.859 264.443L144.117 257.964L146.265 258.05L146.293 264.536Z" fill="#FFAF83"/>
<path d="M150.158 253.354C150.029 256.619 147.946 259.189 146.321 259.124C144.696 259.06 141.217 256.261 141.31 253.011C141.403 249.76 141.31 247.09 145.949 247.283C150.874 247.462 150.316 250.097 150.158 253.354Z" fill="#FFAF83"/>
<path d="M149.959 249.131C148.405 250.234 146.53 250.793 144.626 250.72L144.855 252.868C144.855 252.868 143.424 251.536 143.266 252.804C143.254 253.211 143.335 253.617 143.502 253.989C143.669 254.361 143.919 254.69 144.232 254.951L144.118 257.951C144.118 257.951 141.097 256.648 140.403 252.081C139.708 247.513 143.409 246.139 144.082 246.353C144.082 246.36 149.508 245.416 149.959 249.131Z" fill="#A46836"/>
<path d="M140.316 260.12H144.032C144.11 260.355 144.26 260.559 144.462 260.704C144.663 260.849 144.904 260.927 145.152 260.927C145.4 260.927 145.641 260.849 145.842 260.704C146.043 260.559 146.194 260.355 146.272 260.12L151.999 260.012L150.832 278.84H140.81L138.863 260.227L140.316 260.12Z" fill="#FF7F2B"/>
<path d="M147.496 286.171C148.993 283.895 147.496 278.84 147.496 278.84H140.789L136.559 318.272H139.737C139.737 318.272 143.151 305.644 143.652 301.355C143.652 301.355 145.8 288.713 147.496 286.171Z" fill="#631958"/>
<path d="M136.558 318.272C136.558 318.272 135.985 318.379 135.842 319.969C135.699 321.558 136.2 321.458 136.2 321.458H140.08C140.08 321.458 141.118 319.653 139.736 318.272C138.355 316.89 136.558 318.272 136.558 318.272Z" fill="#1C1E2F"/>
<path d="M144.134 286.171C142.638 283.895 144.134 278.84 144.134 278.84H150.834L155.064 318.272H151.893C151.893 318.272 148.479 305.644 147.971 301.355C147.971 301.355 145.823 288.713 144.134 286.171Z" fill="#631958"/>
<path d="M155.064 318.272C155.064 318.272 155.636 318.379 155.78 319.969C155.923 321.558 155.415 321.458 155.415 321.458H151.535C151.535 321.458 150.497 319.653 151.885 318.272C153.274 316.89 155.064 318.272 155.064 318.272Z" fill="#1C1E2F"/>
<path d="M130.832 244.935C130.832 244.935 127.253 258.408 129.78 259.31C132.307 260.212 141.405 264.536 141.405 264.536L142.357 260.119L133.094 255.545V245.651L130.832 244.935Z" fill="#FF7F2B"/>
<path d="M159.687 244.935C159.687 244.935 163.266 258.408 160.739 259.31C158.212 260.212 149.114 264.536 149.114 264.536L148.162 260.119L157.425 255.545V245.651L159.687 244.935Z" fill="#FF7F2B"/>
<path d="M95.197 395.797C95.197 395.797 98.0603 398.375 99.3202 398.496C100.58 398.618 102.634 401.081 99.0267 401.074C95.4189 401.067 93.6437 400.258 93.6437 400.258C93.4868 400.48 93.2659 400.65 93.0102 400.745C92.7546 400.84 92.4762 400.854 92.212 400.787C91.3459 400.501 90.1719 397.544 91.4103 396.127C92.6487 394.709 95.197 395.797 95.197 395.797Z" fill="#1C1E2F"/>
<path d="M108.828 360.925L95.6778 396.219L91.3828 396.126C91.3828 396.126 93.8954 378.945 97.4315 377.112C97.4315 377.112 95.9999 367.877 97.8181 363.352C99.6363 358.828 100.381 357.904 100.381 357.904L108.828 360.925Z" fill="#591553"/>
<path d="M113.654 395.797C113.654 395.797 116.517 398.375 117.784 398.496C119.051 398.618 121.091 401.081 117.483 401.074C113.875 401.067 112.107 400.258 112.107 400.258C111.949 400.479 111.728 400.648 111.473 400.742C111.218 400.837 110.94 400.852 110.676 400.787C109.81 400.501 108.643 397.544 109.874 396.127C111.105 394.709 113.654 395.797 113.654 395.797Z" fill="#1C1E2F"/>
<path d="M99.6367 358.828C99.6367 358.828 96.8235 363.316 98.4913 366.924C100.159 370.533 107.962 378.572 107.962 378.572C107.962 378.572 105.778 381.157 109.859 396.126L114.154 396.219C114.154 396.219 114.282 379.474 112.514 375.458C110.746 371.442 106.945 363.438 106.945 363.438L108.842 360.94L99.6367 358.828Z" fill="#631958"/>
<path d="M109.98 346.335L107.604 345.798L109.042 339.477L111.14 339.957L109.98 346.335Z" fill="#FFAF83"/>
<path d="M131.34 343.286C131.34 343.286 135.441 341.696 135.635 341.983C135.828 342.269 133.673 343.236 133.673 343.236C133.673 343.236 136.916 342.692 137.152 343.1C137.27 343.325 137.331 343.575 137.331 343.829C137.331 344.082 137.269 344.333 137.15 344.557C137.032 344.782 136.861 344.974 136.652 345.118C136.443 345.262 136.202 345.353 135.95 345.383C134.351 345.49 132.746 345.404 131.168 345.126L131.34 343.286Z" fill="#FFAF83"/>
<path d="M112.685 349.571L108.011 363.123L98.6191 360.925C98.6191 360.925 101.984 346.987 103.208 343.708C103.988 341.61 105.355 341.639 106.923 341.775C107.435 341.819 107.942 341.906 108.44 342.033L108.77 342.534C108.873 342.687 109.013 342.813 109.176 342.9C109.34 342.987 109.522 343.033 109.707 343.033C109.892 343.033 110.075 342.987 110.238 342.9C110.402 342.813 110.541 342.687 110.645 342.534C111.064 342.554 111.476 342.638 111.869 342.784C112.32 342.93 112.75 343.132 113.15 343.386C114.669 344.337 116.471 344.73 118.247 344.495L132.42 342.899V345.641L112.685 349.571Z" fill="#FF7F2B"/>
<path d="M115.857 336.063C115.141 339.248 112.614 341.389 111.025 341.024C109.436 340.659 106.53 337.287 107.26 334.101C107.99 330.915 108.377 328.288 112.872 329.312C117.611 330.393 116.58 332.877 115.857 336.063Z" fill="#FFAF83"/>
<path d="M116.408 331.867C114.675 332.665 112.728 332.869 110.867 332.447L110.703 334.595C110.703 334.595 109.514 333.013 109.149 334.237C109.063 334.636 109.068 335.05 109.165 335.446C109.262 335.843 109.447 336.213 109.708 336.528L109.042 339.456C109.042 339.456 106.315 337.623 106.465 333.013C106.615 328.402 110.517 327.722 111.132 328.051C111.132 328.066 116.644 328.13 116.408 331.867Z" fill="#A46836"/>
<path d="M127.97 334.788C127.97 334.788 128.629 334.673 129.402 333.492C130.175 332.311 129.903 330.185 130.375 329.634C130.848 329.082 130.755 334.358 130.469 335.361C130.182 336.363 127.111 337 127.111 337L127.97 334.788Z" fill="#FFAF83"/>
<path d="M104.976 341.431L127.969 334.788L128.205 337.308L104.869 346.049C104.869 346.049 101.318 343.693 104.976 341.431Z" fill="#FF7F2B"/>
<path d="M111.812 328.115C111.812 328.115 114.833 327.843 116.487 329.59C117.494 330.484 118.691 331.138 119.987 331.502C119.987 331.502 114.01 333.95 110.867 332.447C107.725 330.943 111.812 328.115 111.812 328.115Z" fill="#A46836"/>
<path d="M162.844 310.97V400.637" stroke="#631958" stroke-width="3" stroke-miterlimit="10"/>
<path d="M176.947 310.97V400.637" stroke="#631958" stroke-width="3" stroke-miterlimit="10"/>
<path d="M162.844 324.272H176.946" stroke="#631958" stroke-width="3" stroke-miterlimit="10"/>
<path d="M162.844 336.885H176.946" stroke="#631958" stroke-width="3" stroke-miterlimit="10"/>
<path d="M162.844 349.5H176.946" stroke="#631958" stroke-width="3" stroke-miterlimit="10"/>
<path d="M162.844 362.107H176.946" stroke="#631958" stroke-width="3" stroke-miterlimit="10"/>
<path d="M162.844 374.721H176.946" stroke="#631958" stroke-width="3" stroke-miterlimit="10"/>
<path d="M162.844 387.329H176.946" stroke="#631958" stroke-width="3" stroke-miterlimit="10"/>
<path d="M181.005 164.06H156.187C158.154 161.907 159.453 159.229 159.926 156.352C160.398 153.474 160.023 150.521 158.847 147.853C157.671 145.185 155.745 142.916 153.303 141.323C150.86 139.73 148.008 138.882 145.092 138.882C142.176 138.882 139.323 139.73 136.881 141.323C134.439 142.916 132.512 145.185 131.336 147.853C130.16 150.521 129.786 153.474 130.258 156.352C130.73 159.229 132.029 161.907 133.996 164.06H110.603C109.565 164.06 108.569 164.472 107.835 165.207C107.1 165.941 106.688 166.937 106.688 167.976V192.66C104.606 190.57 101.95 189.145 99.0577 188.565C96.1652 187.986 93.1658 188.278 90.4393 189.404C87.7129 190.531 85.3821 192.441 83.742 194.894C82.102 197.346 81.2266 200.23 81.2266 203.18C81.2266 206.13 82.102 209.014 83.742 211.466C85.3821 213.919 87.7129 215.829 90.4393 216.956C93.1658 218.082 96.1652 218.374 99.0577 217.795C101.95 217.215 104.606 215.79 106.688 213.7V238.384C106.688 239.423 107.1 240.419 107.835 241.153C108.569 241.888 109.565 242.3 110.603 242.3H135.17C133.113 240.205 131.721 237.549 131.167 234.665C130.614 231.781 130.925 228.798 132.061 226.091C133.197 223.383 135.107 221.071 137.552 219.445C139.997 217.819 142.868 216.952 145.804 216.952C148.74 216.952 151.611 217.819 154.056 219.445C156.501 221.071 158.411 223.383 159.547 226.091C160.683 228.798 160.994 231.781 160.441 234.665C159.887 237.549 158.495 240.205 156.438 242.3H181.005C182.043 242.3 183.039 241.888 183.774 241.153C184.508 240.419 184.92 239.423 184.92 238.384V167.976C184.92 166.937 184.508 165.941 183.774 165.207C183.039 164.472 182.043 164.06 181.005 164.06Z" fill="#631958"/>
<path fill-rule="evenodd" clip-rule="evenodd" d="M158.917 191.988C159.246 190.884 159.411 189.661 159.411 188.319C159.411 186.32 159.037 184.456 158.288 182.725C157.569 180.965 156.58 179.444 155.322 178.161C154.094 176.849 152.641 175.835 150.963 175.119C149.315 174.373 147.563 174 145.706 174C143.848 174 142.081 174.373 140.403 175.119C138.755 175.835 137.302 176.849 136.044 178.161C134.816 179.444 133.827 180.965 133.078 182.725C132.359 184.456 132 186.32 132 188.319C132 190.347 132.359 192.226 133.078 193.957C133.827 195.687 134.816 197.208 136.044 198.521C137.302 199.803 138.755 200.818 140.403 201.563C142.081 202.279 143.848 202.637 145.706 202.637C146.874 202.637 147.922 202.518 148.851 202.279C149.81 202.041 150.619 201.757 151.278 201.429C152.057 201.071 152.746 200.654 153.345 200.176L156.266 203.085L159.186 199.953L156.49 197.268C157.03 196.552 157.509 195.731 157.928 194.807C158.288 194.031 158.617 193.091 158.917 191.988ZM138.066 192.033C137.616 190.899 137.392 189.661 137.392 188.319C137.392 186.976 137.616 185.753 138.066 184.65C138.515 183.516 139.114 182.546 139.863 181.741C140.612 180.906 141.481 180.264 142.469 179.817C143.488 179.369 144.566 179.146 145.705 179.146C146.813 179.146 147.877 179.369 148.895 179.817C149.914 180.264 150.798 180.906 151.546 181.741C152.295 182.546 152.895 183.516 153.344 184.65C153.793 185.753 154.018 186.976 154.018 188.319C154.018 189.094 153.943 189.81 153.793 190.466C153.644 191.093 153.494 191.63 153.344 192.077C153.134 192.614 152.91 193.077 152.67 193.464L149.524 190.556L146.603 193.688L149.524 196.597C149.225 196.776 148.895 196.925 148.536 197.044C148.206 197.163 147.802 197.268 147.323 197.357C146.843 197.447 146.304 197.492 145.705 197.492C144.566 197.492 143.488 197.268 142.469 196.82C141.481 196.373 140.612 195.746 139.863 194.941C139.114 194.106 138.515 193.136 138.066 192.033Z" fill="#FF6932"/>
<path d="M133 94V-58" stroke="#A7B9B8" stroke-opacity="0.4" stroke-miterlimit="10"/>
<path d="M183 94V-58" stroke="#A7B9B8" stroke-opacity="0.4" stroke-miterlimit="10"/>
<path d="M294.306 232.615C290.438 233.17 286.945 235.228 284.585 238.342L281.113 214.001C280.964 212.975 280.415 212.05 279.586 211.428C278.757 210.805 277.716 210.536 276.689 210.679L252.351 214.152C254.093 211.787 255.097 208.961 255.238 206.028C255.379 203.095 254.651 200.185 253.145 197.665C251.638 195.144 249.421 193.125 246.771 191.86C244.121 190.595 241.157 190.141 238.25 190.555C235.343 190.969 232.623 192.233 230.432 194.188C228.24 196.142 226.675 198.701 225.933 201.542C225.19 204.383 225.303 207.38 226.258 210.157C227.213 212.934 228.966 215.367 231.299 217.151L206.96 220.623C206.452 220.695 205.962 220.867 205.52 221.128C205.077 221.39 204.691 221.736 204.383 222.147C204.074 222.558 203.85 223.025 203.722 223.523C203.594 224.021 203.566 224.539 203.639 225.048L213.575 294.755C213.724 295.78 214.273 296.705 215.102 297.326C215.931 297.947 216.973 298.215 217.999 298.069L242.337 294.605C240.004 292.821 238.251 290.388 237.296 287.611C236.341 284.834 236.228 281.836 236.971 278.995C237.713 276.154 239.279 273.596 241.47 271.641C243.661 269.686 246.381 268.423 249.288 268.009C252.195 267.594 255.159 268.048 257.809 269.313C260.459 270.578 262.676 272.597 264.183 275.118C265.689 277.639 266.417 280.548 266.276 283.481C266.135 286.414 265.131 289.241 263.389 291.605L287.727 288.133C288.236 288.061 288.725 287.889 289.168 287.628C289.61 287.366 289.997 287.02 290.305 286.609C290.614 286.198 290.838 285.731 290.966 285.233C291.093 284.735 291.121 284.217 291.049 283.708L287.584 259.368C289.553 260.815 291.847 261.756 294.265 262.107C296.683 262.458 299.151 262.209 301.45 261.382C303.749 260.554 305.809 259.174 307.449 257.363C309.089 255.551 310.258 253.364 310.853 250.994C311.449 248.624 311.452 246.144 310.863 243.773C310.274 241.401 309.111 239.211 307.476 237.395C305.841 235.579 303.785 234.193 301.488 233.359C299.191 232.526 296.725 232.27 294.306 232.615Z" fill="#A32E98"/>
<path d="M230 219V-58" stroke="#A7B9B8" stroke-opacity="0.4" stroke-miterlimit="10"/>
<path d="M277 204V-58" stroke="#A7B9B8" stroke-opacity="0.4" stroke-miterlimit="10"/>
<path d="M337.348 135.832C335.966 135.828 334.601 136.142 333.36 136.75C332.118 137.358 331.034 138.244 330.19 139.339C330.643 137.041 330.629 134.674 330.149 132.38C329.669 130.087 328.733 127.914 327.396 125.989C326.058 124.065 324.348 122.43 322.366 121.181C320.384 119.932 318.17 119.094 315.858 118.718C313.545 118.342 311.181 118.435 308.905 118.991C306.629 119.548 304.488 120.557 302.61 121.958C300.732 123.359 299.155 125.123 297.973 127.146C296.791 129.17 296.028 131.41 295.73 133.734C294.1 131.91 291.953 130.626 289.575 130.053C287.197 129.479 284.7 129.644 282.418 130.525C280.136 131.405 278.177 132.961 276.8 134.983C275.424 137.005 274.696 139.399 274.713 141.845C274.724 142.977 274.893 144.103 275.214 145.188H328.114C328.185 145.067 328.25 144.931 328.314 144.809V144.873C328.314 144.981 328.314 145.088 328.314 145.188H346.353C346.353 145.088 346.353 144.981 346.353 144.873C346.355 142.481 345.408 140.185 343.72 138.49C342.032 136.795 339.74 135.839 337.348 135.832Z" fill="#E6E6E6"/>
<path d="M78.2404 159.692C77.4746 159.695 76.7196 159.873 76.0333 160.213C75.3471 160.553 74.748 161.046 74.2819 161.654C74.371 161.124 74.4165 160.588 74.4179 160.05C74.4101 157.626 73.4903 155.294 71.8415 153.517C70.1927 151.74 67.9356 150.649 65.5191 150.46C63.1026 150.272 60.7037 151 58.7993 152.499C56.8949 153.999 55.6246 156.16 55.2409 158.554C54.3391 157.556 53.1562 156.855 51.848 156.542C50.5397 156.23 49.1676 156.321 47.9122 156.804C46.6568 157.287 45.5771 158.138 44.8153 159.247C44.0535 160.356 43.6453 161.669 43.6445 163.014C43.6441 163.639 43.7333 164.261 43.9094 164.861H73.1366C73.1724 164.797 73.2082 164.718 73.2511 164.654C73.2476 164.711 73.2476 164.768 73.2511 164.825H83.2226C83.2261 164.768 83.2261 164.711 83.2226 164.654C83.2094 163.338 82.6797 162.081 81.7475 161.152C80.8154 160.224 79.5558 159.7 78.2404 159.692Z" fill="#E6E6E6"/>
<path d="M354 214.632C353.097 214.632 352.206 214.839 351.395 215.237C350.585 215.636 349.877 216.215 349.325 216.93C349.435 216.301 349.49 215.664 349.49 215.025C349.427 212.184 348.31 209.467 346.356 207.404C344.402 205.34 341.75 204.077 338.917 203.859C336.084 203.641 333.27 204.485 331.024 206.225C328.778 207.966 327.259 210.48 326.762 213.279C325.566 211.96 323.958 211.086 322.202 210.798C320.445 210.511 318.642 210.827 317.088 211.696C315.534 212.565 314.321 213.935 313.645 215.582C312.97 217.23 312.873 219.057 313.369 220.767H347.987L348.123 220.516V220.559C348.119 220.628 348.119 220.698 348.123 220.767H359.898C359.898 220.695 359.898 220.631 359.898 220.559C359.9 219.783 359.749 219.013 359.453 218.295C359.158 217.577 358.724 216.924 358.176 216.374C357.629 215.823 356.978 215.386 356.261 215.087C355.545 214.788 354.776 214.633 354 214.632Z" fill="#E6E6E6"/>
<path d="M204.312 151.632C218.579 132.159 246.797 124.427 269.03 133.849C276.096 136.855 282.631 141.559 286.561 148.167C290.491 154.774 291.307 163.451 287.506 170.116C286.003 172.751 283.733 175.056 280.856 176.015C275.351 177.855 269.016 173.868 267.219 168.326C265.423 162.785 267.506 156.557 271.371 152.226C277.864 144.967 288.751 142.697 298.236 144.938C307.721 147.179 315.881 153.321 322.395 160.559C342.317 182.702 348.881 214.216 337.098 241.556" stroke="#FF7F2B" stroke-width="2" stroke-miterlimit="10" stroke-dasharray="6 6"/>
<path d="M339.933 253.777L321.186 266.892L332.388 241.857L339.933 253.777Z" fill="#FF7F2B"/>
<path d="M324.12 237.332L321.186 266.892L332.388 241.857L324.12 237.332Z" fill="#FFC700"/>
<path d="M336.247 243.969L321.186 266.892L344.507 248.5L336.247 243.969Z" fill="#FFC700"/>
<path d="M211.6 297.024C211.6 297.024 213.69 293.151 214.005 293.266C214.32 293.38 213.325 295.492 213.325 295.492C213.325 295.492 215.436 292.972 215.887 293.13C216.123 293.224 216.331 293.375 216.495 293.568C216.659 293.761 216.773 293.992 216.828 294.239C216.883 294.486 216.877 294.743 216.811 294.988C216.744 295.233 216.619 295.457 216.446 295.642C215.3 296.765 214.021 297.744 212.638 298.556L211.6 297.024Z" fill="#FFAF83"/>
<path d="M197.253 298.535H194.812V292.049H196.96L197.253 298.535Z" fill="#FFAF83"/>
<path d="M200.696 287.209C200.696 290.474 198.72 293.123 197.117 293.123C195.513 293.123 191.906 290.474 191.906 287.209C191.906 283.945 191.705 281.296 196.315 281.296C201.147 281.296 200.696 283.938 200.696 287.209Z" fill="#FFAF83"/>
<path d="M211.8 296.717L204.964 302.687C203.663 300.685 202.517 298.586 201.535 296.409C200.898 294.719 199.13 294.755 198.329 294.648C197.914 294.582 197.491 294.582 197.076 294.648C197.009 294.821 196.901 294.974 196.761 295.095C196.621 295.216 196.453 295.3 196.272 295.341C196.092 295.381 195.904 295.376 195.726 295.326C195.547 295.277 195.384 295.184 195.25 295.056L194.814 294.648C194.302 294.631 193.789 294.658 193.282 294.727C191.743 294.934 188.987 295.328 188.693 297.547C188.228 301.019 189.939 312.982 189.939 312.982H199.374L199.71 301.456C199.71 301.456 202.623 307.348 204.005 307.348C205.387 307.348 213.647 299.122 213.647 299.122L211.8 296.717Z" fill="#FF7F2B"/>
<path d="M210.01 289.364C210.01 289.364 211.441 285.19 211.756 285.255C212.071 285.319 211.456 287.567 211.456 287.567C211.456 287.567 213.116 284.704 213.603 284.811C213.852 284.864 214.084 284.976 214.279 285.139C214.474 285.301 214.626 285.509 214.723 285.744C214.82 285.979 214.857 286.234 214.833 286.487C214.809 286.74 214.723 286.983 214.584 287.195C213.64 288.491 212.542 289.667 211.313 290.696L210.01 289.364Z" fill="#FFAF83"/>
<path d="M190.734 298.535C190.752 299.066 190.899 299.585 191.164 300.045C191.428 300.506 191.802 300.894 192.252 301.177C193.734 301.971 203.261 299.867 203.261 299.867L201.114 295.836C200.951 295.619 200.73 295.453 200.477 295.357C200.223 295.26 199.948 295.238 199.682 295.292C198.05 295.578 194.192 296.151 191.185 296.724L190.734 298.535Z" fill="#EF6A20"/>
<path d="M191.182 296.731L202.228 295.299L209.801 288.212L212.12 290.209C212.12 290.209 205.134 298.743 204.053 299.158C202.972 299.573 193.108 300.69 193.108 300.69C193.108 300.69 189.529 299.824 191.182 296.731Z" fill="#FF7F2B"/>
<path d="M191.877 347.352C191.877 347.352 192.672 351.111 193.631 351.963C194.59 352.815 194.79 355.993 191.877 353.874C188.964 351.755 188.004 350.051 188.004 350.051C187.743 350.138 187.46 350.145 187.195 350.07C186.929 349.994 186.693 349.841 186.516 349.629C185.986 348.913 186.773 345.806 188.613 345.384C190.453 344.961 191.877 347.352 191.877 347.352Z" fill="#1C1E2F"/>
<path d="M189.94 313.01C189.216 314.326 188.784 315.782 188.674 317.279C188.564 318.776 188.778 320.28 189.302 321.687C190.848 325.692 193.232 329.319 196.296 332.325C196.296 332.325 193.841 332.118 188.615 345.383L191.879 347.352C191.879 347.352 202.495 335.296 202.223 332.01C201.951 328.724 197.878 321.687 197.878 321.687H201.457L199.396 313.01H189.94Z" fill="#631958"/>
<path d="M200.713 280.859H200.655C200.69 280.755 200.709 280.647 200.713 280.537C200.713 280.269 200.606 280.013 200.417 279.823C200.228 279.634 199.971 279.528 199.703 279.528C199.543 279.531 199.386 279.572 199.245 279.649C199.208 279.462 199.118 279.288 198.986 279.15C198.854 279.012 198.685 278.914 198.499 278.869C198.313 278.824 198.118 278.833 197.937 278.895C197.756 278.957 197.596 279.07 197.477 279.22C197.417 279.014 197.292 278.833 197.12 278.704C196.949 278.575 196.74 278.505 196.525 278.504C196.353 278.504 196.184 278.548 196.033 278.632C195.883 278.716 195.757 278.837 195.666 278.984C195.578 278.837 195.453 278.715 195.304 278.631C195.154 278.547 194.986 278.503 194.814 278.504C194.617 278.504 194.424 278.562 194.258 278.67C194.093 278.778 193.963 278.932 193.884 279.112C193.742 278.973 193.563 278.878 193.368 278.84C193.172 278.802 192.97 278.823 192.787 278.899C192.603 278.976 192.447 279.105 192.336 279.27C192.226 279.435 192.166 279.63 192.166 279.828C192.162 279.862 192.162 279.895 192.166 279.929C191.217 280.374 190.38 281.027 189.718 281.84C189.714 281.869 189.714 281.897 189.718 281.926C189.537 282.003 189.383 282.132 189.275 282.296C189.166 282.46 189.109 282.653 189.109 282.849C189.109 283.015 189.151 283.177 189.231 283.322C189.07 283.406 188.936 283.533 188.843 283.688C188.749 283.843 188.7 284.021 188.701 284.202C188.702 284.434 188.783 284.659 188.93 284.838C189.078 285.016 189.283 285.139 189.51 285.183C189.506 285.342 189.541 285.499 189.611 285.642C189.681 285.784 189.784 285.908 189.912 286.002C190.04 286.096 190.188 286.158 190.345 286.182C190.502 286.207 190.662 286.193 190.813 286.143C190.813 286.193 190.813 286.236 190.849 286.286C192.28 290.674 194.793 292.013 194.793 292.013V289.085C194.469 288.837 194.206 288.519 194.023 288.154C193.841 287.79 193.744 287.388 193.741 286.98C193.819 285.706 195.33 286.98 195.33 286.98L195.065 285.162C195.198 285.228 195.345 285.262 195.494 285.262C195.677 285.262 195.857 285.212 196.013 285.117C196.17 285.023 196.297 284.887 196.382 284.725C196.555 284.85 196.763 284.918 196.976 284.918C197.152 284.919 197.325 284.873 197.477 284.785C197.629 284.697 197.755 284.57 197.842 284.417C197.967 284.469 198.101 284.495 198.236 284.496C198.452 284.497 198.662 284.428 198.835 284.298C199.008 284.169 199.135 283.987 199.195 283.78C199.342 283.869 199.51 283.916 199.682 283.916C200.083 284.05 200.52 284.019 200.898 283.831C201.276 283.642 201.563 283.311 201.697 282.91C201.831 282.51 201.8 282.072 201.611 281.694C201.423 281.316 201.092 281.029 200.691 280.895L200.713 280.859Z" fill="#1C1E2F"/>
</g>
<defs>
<linearGradient id="paint0_linear" x1="195" y1="0" x2="195" y2="400" gradientUnits="userSpaceOnUse">
<stop offset="1" stop-color="#DEF3FF"/>
<stop offset="1" stop-color="#B3D7F8"/>
</linearGradient>
</defs>
</svg>
